<?xml version="1.0" standalone="no"?>
<!DOCTYPE svg PUBLIC "-//W3C//DTD SVG 20010904//EN"
 "http://www.w3.org/TR/2001/REC-SVG-20010904/DTD/svg10.dtd">
<svg version="1.0" xmlns="http://www.w3.org/2000/svg"
 width="8000.000000pt" height="8000.000000pt" viewBox="0 0 8000.000000 8000.000000"
 preserveAspectRatio="xMidYMid meet">

<g transform="translate(0.000000,8000.000000) scale(0.100000,-0.100000)"
fill="#000000" stroke="none">
<path d="M38350 68690 c-3937 -111 -7460 -818 -10804 -2166 -3080 -1242 -5862
-2952 -8256 -5073 -2851 -2526 -5107 -5539 -6732 -8986 -1226 -2602 -2012
-5281 -2407 -8205 -284 -2101 -353 -4441 -196 -6610 253 -3478 1039 -6650
2393 -9655 1219 -2706 2817 -5150 4777 -7305 2893 -3182 6411 -5607 10520
-7250 3866 -1545 8122 -2256 12690 -2120 2875 87 5620 524 8246 1315 3351
1010 6178 2493 8689 4559 231 190 825 697 1030 879 584 520 820 807 919 1118
38 121 65 256 87 429 26 214 30 820 8 1260 -17 329 -18 723 -21 5300 -3 4206
-1 4943 10 4930 8 -8 1773 -2224 3923 -4925 2741 -3442 3937 -4938 4004 -5005
308 -308 702 -512 1145 -592 129 -23 135 -23 810 -21 374 1 735 5 803 9 l122
6 0 142 c1 470 -221 16247 -230 16361 -18 250 -78 461 -191 685 -278 546 -806
907 -1420 971 -88 9 -282 10 -833 1 -395 -6 -720 -13 -723 -16 -3 -2 32 -2663
76 -5913 45 -3249 81 -5956 79 -6014 l-3 -106 -4435 5571 c-4769 5990 -4558
5730 -4782 5897 -321 239 -691 381 -1091 420 -89 8 -301 8 -844 0 -400 -6
-727 -12 -728 -13 -2 -2 26 -2050 61 -4553 l63 -4550 1 -2197 0 -2196 -47 -59
c-65 -81 -220 -257 -406 -462 -413 -454 -603 -707 -753 -998 -144 -282 -214
-564 -158 -640 11 -16 37 -36 58 -47 33 -16 45 -17 92 -8 212 43 577 321 1027
781 l187 192 0 -1484 0 -1484 -142 -125 c-1907 -1669 -4021 -2908 -6373 -3735
-2216 -779 -4701 -1277 -7215 -1448 -1163 -78 -2508 -89 -3670 -30 -3171 164
-6106 833 -8875 2023 -2473 1063 -4654 2430 -6595 4133 -1982 1739 -3638 3757
-4925 6004 -450 785 -891 1669 -1247 2499 -1039 2423 -1646 4941 -1857 7701
-56 722 -75 1275 -75 2125 0 863 20 1400 79 2167 265 3413 1175 6563 2747
9505 l89 166 107 47 c227 100 306 125 403 125 l66 0 16 -77 c80 -378 81 -792
1 -1182 -87 -427 -220 -779 -604 -1591 -405 -858 -492 -1095 -634 -1730 -235
-1048 -369 -1988 -428 -2995 -15 -273 -15 -1082 1 -1345 80 -1341 335 -2479
826 -3685 267 -658 577 -1277 1148 -2290 283 -502 411 -782 506 -1108 132
-452 158 -795 131 -1787 -26 -1009 18 -1275 367 -2210 153 -408 298 -756 697
-1663 486 -1106 657 -1528 842 -2082 164 -492 240 -790 360 -1395 47 -239 108
-536 135 -660 386 -1730 952 -3114 1668 -4074 273 -366 615 -718 926 -953 428
-323 910 -531 1329 -573 60 -6 112 -7 117 -3 13 14 38 156 49 276 18 213 -13
445 -94 691 -80 241 -179 446 -435 895 -354 620 -469 917 -503 1291 -21 224 5
406 127 891 143 570 294 1036 715 2214 313 874 459 1314 585 1759 256 904 375
1678 375 2441 0 353 -50 717 -126 924 -115 312 -593 1189 -3212 5896 -597
1073 -1129 2029 -1181 2126 -187 340 -282 606 -338 944 -14 85 -18 165 -18
350 0 254 10 347 60 561 139 593 511 1198 1076 1749 246 240 442 404 989 825
610 470 801 630 1065 895 320 321 419 455 850 1156 1059 1723 1364 2171 1819
2684 187 210 599 614 1121 1100 437 406 687 557 945 572 178 10 296 -27 637
-198 252 -127 375 -176 508 -203 339 -68 647 34 842 278 244 307 408 661 517
1116 62 258 90 440 161 1030 95 796 171 1121 390 1671 191 480 387 868 905
1789 673 1197 814 1500 892 1919 29 153 31 423 5 553 -52 260 -161 468 -346
660 -163 171 -340 300 -571 417 -233 119 -617 261 -800 295 -470 90 -1085 7
-2800 -374 -978 -217 -1686 -389 -1962 -474 -550 -171 -1064 -404 -2023 -916
-1003 -535 -1540 -778 -2085 -940 -297 -88 -367 -100 -490 -81 -116 18 -209
54 -450 175 -124 63 -259 126 -300 141 -82 29 -201 55 -258 55 l-37 1 84 81
c47 44 171 158 275 252 2069 1866 4426 3347 7113 4467 3563 1486 7481 2121
11778 1909 2645 -131 5140 -581 7485 -1352 1314 -432 2585 -1013 3795 -1736
1172 -701 2282 -1527 3375 -2511 243 -220 383 -352 1039 -980 420 -402 527
-499 536 -489 90 98 996 1166 1050 1238 280 377 452 800 530 1305 22 139 30
471 16 625 -62 666 -332 1261 -785 1729 -156 160 -496 452 -946 811 -1536
1225 -3204 2234 -5054 3057 -2133 949 -4652 1682 -7191 2093 -1366 221 -2663
347 -4235 410 -338 14 -1778 20 -2150 10z"/>
<path d="M41840 58073 c-14 -2 -54 -11 -90 -20 -61 -15 -70 -21 -152 -104
-150 -153 -248 -318 -423 -714 -53 -121 -119 -264 -147 -317 -215 -420 -514
-674 -1168 -991 -911 -442 -942 -462 -1417 -898 -730 -672 -916 -827 -1097
-914 -51 -24 -124 -50 -166 -59 -239 -47 -564 -46 -1005 3 -399 45 -597 56
-768 42 -311 -25 -518 -92 -813 -261 -828 -474 -1783 -1416 -2796 -2760 -2132
-2826 -4118 -6870 -5053 -10285 -333 -1218 -526 -2307 -586 -3310 -14 -246
-14 -822 0 -1040 68 -1019 317 -1810 750 -2388 112 -151 203 -257 346 -405
205 -213 392 -377 1021 -894 307 -252 432 -363 628 -556 481 -476 712 -848
971 -1562 230 -634 373 -1299 559 -2585 159 -1096 240 -1544 376 -2070 204
-791 494 -1448 921 -2086 467 -698 960 -1071 1531 -1155 163 -24 407 -15 538
19 716 187 1782 983 3224 2407 397 393 1009 1033 1166 1222 68 81 154 223 226
373 249 523 332 1176 274 2155 -6 91 -26 370 -45 620 -47 614 -54 769 -62
1230 -23 1544 206 2937 653 3972 160 371 354 704 493 846 205 209 489 286 695
187 120 -58 327 -236 468 -404 177 -211 333 -475 534 -904 354 -753 501 -1002
740 -1256 197 -209 409 -357 689 -481 238 -106 450 -171 968 -296 191 -46 421
-104 510 -130 424 -120 741 -276 992 -485 119 -100 203 -191 398 -433 988
-1230 1314 -2050 1258 -3165 -19 -366 -55 -678 -147 -1251 -75 -473 -110 -706
-134 -900 -121 -988 -53 -1624 221 -2045 71 -110 275 -313 351 -349 180 -87
397 -57 1400 196 558 140 564 142 694 146 150 4 215 -8 329 -62 151 -72 284
-201 495 -481 274 -366 408 -492 599 -567 101 -39 281 -29 480 28 495 142
1024 505 1468 1009 774 877 1306 2164 1547 3740 63 409 331 2699 415 3540 222
2217 153 2921 -353 3625 -138 193 -239 313 -681 810 -677 761 -927 1080 -1168
1488 -456 769 -611 1595 -501 2662 27 262 676 4979 820 5960 73 498 139 884
169 999 21 76 46 132 129 280 284 509 570 1084 783 1571 414 948 734 1960 838
2655 19 123 15 309 -11 494 -85 622 -525 1412 -1223 2196 -394 442 -854 835
-1291 1100 -229 139 -588 301 -895 404 -161 54 -686 202 -1470 416 -1606 438
-2444 631 -3065 707 -140 17 -503 17 -600 0 -124 -22 -286 -68 -447 -126 -469
-171 -826 -188 -1212 -60 -298 99 -609 302 -1026 669 -82 72 -212 186 -289
254 -405 356 -693 549 -976 654 -149 55 -328 96 -390 90z"/>
<path d="M39165 57826 c-66 -21 -84 -34 -207 -152 -64 -62 -138 -125 -164
-140 -46 -27 -55 -28 -248 -37 -251 -12 -282 -21 -377 -116 -76 -76 -134 -183
-170 -316 -31 -114 -38 -349 -14 -466 36 -178 118 -316 217 -362 243 -113 843
-109 1155 8 175 66 347 180 481 319 133 137 208 257 252 405 54 176 -10 403
-133 476 -42 24 -112 42 -253 65 -104 17 -162 54 -231 148 -80 110 -102 132
-158 158 -56 26 -91 29 -150 10z"/>
</g>
</svg>
