<?xml version="1.0" standalone="no"?>
<!DOCTYPE svg PUBLIC "-//W3C//DTD SVG 20010904//EN"
 "http://www.w3.org/TR/2001/REC-SVG-20010904/DTD/svg10.dtd">
<svg version="1.0" xmlns="http://www.w3.org/2000/svg"
 width="6250.000000pt" height="6250.000000pt" viewBox="0 0 6250.000000 6250.000000"
 preserveAspectRatio="xMidYMid meet">

<g transform="translate(0.000000,6250.000000) scale(0.100000,-0.100000)"
fill="#000000" stroke="none">
<path d="M29870 53914 c-41 -2 -199 -8 -350 -14 -2382 -93 -4731 -517 -6861
-1239 -1399 -474 -2801 -1104 -4069 -1829 -2268 -1296 -4258 -2954 -5941
-4952 -1963 -2330 -3453 -5130 -4290 -8064 -448 -1570 -730 -3240 -834 -4946
-36 -598 -40 -756 -40 -1600 0 -978 15 -1376 80 -2158 296 -3520 1314 -6707
3090 -9667 1644 -2740 3909 -5117 6585 -6910 1374 -920 2875 -1699 4470 -2320
2208 -859 4602 -1380 7100 -1545 775 -51 1255 -64 2110 -57 653 6 829 11 1310
37 2603 144 5119 675 7450 1572 886 342 1832 791 2657 1264 874 501 1684 1058
2477 1703 223 181 830 700 991 847 342 311 528 533 605 723 97 239 132 611
111 1193 -29 821 -32 1223 -29 4715 l3 3592 3090 -3881 c2193 -2756 3118
-3910 3186 -3977 247 -247 548 -399 914 -463 116 -20 142 -20 734 -14 338 3
615 7 617 8 4 4 -174 12857 -180 12989 -16 359 -159 683 -416 939 -235 236
-525 374 -858 410 -91 9 -1216 -1 -1227 -12 -2 -2 25 -2094 60 -4648 36 -2555
65 -4694 65 -4753 l0 -108 -3485 4378 c-2027 2546 -3530 4425 -3592 4491 -204
218 -433 364 -703 450 -249 79 -336 86 -1030 75 l-575 -8 3 -230 c2 -126 23
-1690 48 -3475 40 -2977 44 -3398 44 -5102 l0 -1857 -79 -93 c-43 -51 -170
-194 -281 -318 -240 -266 -361 -414 -465 -570 -151 -227 -258 -489 -259 -633
-1 -74 1 -80 27 -103 58 -50 164 -23 324 81 170 111 383 297 605 528 l127 132
1 -1172 0 -1172 -217 -187 c-1562 -1341 -3248 -2299 -5183 -2944 -1759 -587
-3633 -944 -5585 -1064 -546 -34 -796 -41 -1515 -41 -720 0 -944 6 -1485 41
-2399 151 -4628 670 -6715 1564 -2312 990 -4297 2308 -6021 3998 -1751 1716
-3124 3722 -4097 5987 -1025 2387 -1532 4954 -1532 7760 0 3365 722 6364 2208
9172 l96 183 109 46 c59 25 134 54 165 65 66 23 170 28 182 10 4 -7 15 -56 24
-109 66 -380 43 -727 -75 -1129 -72 -246 -188 -527 -419 -1013 -316 -665 -390
-870 -515 -1443 -150 -689 -246 -1325 -301 -2007 -21 -263 -30 -1062 -15
-1326 67 -1154 305 -2140 776 -3206 176 -397 393 -820 742 -1441 268 -480 325
-599 413 -867 58 -174 93 -328 116 -510 20 -145 23 -440 15 -1200 -7 -646 26
-821 289 -1525 102 -273 237 -601 417 -1010 407 -926 526 -1207 643 -1517 218
-573 326 -952 440 -1538 167 -857 347 -1517 585 -2145 186 -493 423 -968 671
-1348 454 -694 1009 -1170 1588 -1362 152 -51 258 -74 373 -82 92 -7 80 -17
103 87 18 80 23 279 11 375 -37 279 -130 506 -401 985 -329 580 -411 812 -411
1151 0 152 17 256 97 574 120 479 230 818 604 1865 388 1088 558 1686 650
2290 59 388 88 850 70 1107 -11 154 -48 394 -76 492 -64 223 -443 918 -3114
5716 -233 418 -447 812 -476 875 -442 972 -82 2001 1021 2920 83 69 299 240
480 380 498 384 707 563 915 785 216 230 267 301 580 810 771 1255 1029 1643
1340 2015 140 167 473 504 815 825 318 299 414 381 537 466 203 139 358 181
532 144 100 -21 159 -45 368 -151 321 -161 484 -199 686 -159 123 25 233 84
322 174 174 175 330 472 425 804 64 227 99 428 160 942 79 658 144 923 350
1420 92 224 324 688 513 1025 87 157 232 416 321 575 188 336 372 697 431 846
53 132 104 318 120 436 18 129 8 344 -20 448 -114 420 -472 730 -1092 944
-162 55 -265 79 -408 92 -368 33 -927 -60 -2450 -406 -1397 -317 -1559 -377
-2810 -1040 -728 -386 -1090 -551 -1500 -683 -254 -82 -320 -95 -430 -89 -119
6 -187 30 -415 146 -194 100 -280 131 -383 140 l-73 6 153 140 c1640 1505
3486 2686 5613 3592 2071 882 4288 1397 6655 1548 488 31 656 36 1285 42 795
7 1404 -11 2105 -62 1890 -139 3733 -502 5400 -1063 678 -229 1239 -463 1900
-793 1335 -667 2566 -1524 3765 -2621 157 -143 444 -416 936 -889 l196 -188
374 436 c435 508 451 527 534 653 174 261 298 588 345 909 35 238 25 556 -25
791 -90 428 -318 839 -632 1140 -209 200 -725 623 -1138 931 -1191 888 -2434
1600 -3837 2197 -1116 476 -2474 912 -3753 1206 -1557 357 -2976 548 -4745
637 -204 10 -1840 21 -2020 13z"/>
<path d="M32715 45516 c-25 -22 -129 -172 -513 -736 -132 -195 -271 -388 -307
-428 -175 -191 -380 -318 -890 -552 -344 -157 -508 -257 -696 -422 -58 -51
-236 -212 -396 -358 -572 -524 -693 -615 -864 -654 -193 -44 -409 -44 -809 2
-301 34 -644 38 -780 9 -180 -39 -317 -96 -525 -222 -327 -196 -647 -457
-1020 -830 -1759 -1757 -3736 -5215 -4796 -8385 -452 -1356 -710 -2550 -779
-3610 -15 -227 -15 -733 0 -925 64 -835 271 -1440 658 -1925 92 -116 397 -422
548 -551 62 -52 210 -175 330 -274 593 -485 831 -723 1045 -1045 126 -188 282
-530 389 -850 165 -495 260 -955 410 -1985 150 -1031 247 -1498 414 -2000 153
-457 336 -828 610 -1235 357 -531 735 -820 1165 -894 121 -21 319 -21 417 0
440 90 1124 548 1966 1316 569 518 1479 1450 1609 1647 117 177 222 443 273
687 46 222 58 350 63 687 6 336 -2 506 -42 1022 -39 500 -48 697 -48 1120 0
399 10 642 39 955 81 873 273 1633 565 2225 80 164 183 335 254 426 80 101
218 193 325 218 65 15 169 13 226 -4 73 -22 184 -103 310 -229 187 -187 299
-358 480 -733 58 -120 157 -322 220 -449 218 -442 412 -685 695 -871 230 -150
459 -233 1044 -378 517 -128 707 -192 917 -311 251 -142 406 -297 742 -744
243 -324 393 -560 527 -833 283 -576 346 -1088 238 -1947 -19 -152 -36 -262
-118 -785 -79 -501 -105 -795 -98 -1125 5 -273 23 -408 78 -585 60 -195 129
-315 258 -449 94 -97 141 -129 216 -152 128 -37 330 -3 1045 177 581 145 637
149 823 56 109 -54 232 -177 397 -397 198 -263 316 -372 455 -421 143 -50 400
4 685 144 593 292 1153 924 1520 1717 288 622 486 1352 589 2175 83 658 240
2026 291 2528 152 1519 127 2092 -110 2582 -117 242 -228 385 -744 965 -568
636 -804 955 -997 1345 -179 362 -264 677 -300 1110 -14 173 -6 573 16 775 22
206 420 3105 586 4270 121 856 169 1150 206 1263 8 27 64 137 125 245 142 255
439 852 552 1107 336 761 582 1516 681 2092 44 253 25 487 -62 758 -169 529
-603 1172 -1154 1711 -468 456 -904 731 -1461 918 -269 90 -1619 460 -2288
626 -797 198 -1219 273 -1545 274 -224 1 -289 -11 -567 -104 -114 -38 -251
-78 -305 -89 -342 -69 -647 -13 -973 180 -173 103 -310 212 -750 599 -404 355
-673 509 -996 569 -40 8 -49 6 -69 -13z"/>
<path d="M30610 45341 c-53 -16 -90 -43 -166 -119 -44 -43 -99 -92 -123 -107
-42 -28 -49 -29 -205 -36 -187 -7 -227 -19 -299 -92 -50 -49 -109 -161 -133
-252 -25 -96 -30 -277 -9 -371 37 -170 109 -266 228 -303 181 -56 537 -56 754
-1 289 74 558 295 660 542 53 128 40 288 -30 379 -46 61 -83 79 -206 99 -152
26 -164 33 -264 167 -65 86 -132 116 -207 94z"/>
<path d="M45687 43183 c-4 -3 -7 -2528 -7 -5610 l0 -5603 4385 0 4385 0 -2
5608 -3 5607 -4376 3 c-2407 1 -4379 -1 -4382 -5z m2033 -1138 l0 -345 -675 0
-675 0 0 345 0 345 675 0 675 0 0 -345z m4020 -1845 l0 -2190 -1670 0 -1670 0
0 2190 0 2190 1670 0 1670 0 0 -2190z m2020 1845 l0 -345 -665 0 -665 0 0 345
0 345 665 0 665 0 0 -345z m-6040 -1490 l0 -345 -675 0 -675 0 0 345 0 345
675 0 675 0 0 -345z m6040 0 l0 -345 -665 0 -665 0 0 345 0 345 665 0 665 0 0
-345z m-6040 -1490 l0 -345 -675 0 -675 0 0 345 0 345 675 0 675 0 0 -345z
m6040 0 l0 -345 -665 0 -665 0 0 345 0 345 665 0 665 0 0 -345z m-6040 -1490
l0 -345 -675 0 -675 0 0 345 0 345 675 0 675 0 0 -345z m6040 0 l0 -345 -665
0 -665 0 0 345 0 345 665 0 665 0 0 -345z m-2020 -2585 l0 -2220 -1670 0
-1670 0 0 2220 0 2220 1670 0 1670 0 0 -2220z m-4020 1095 l0 -345 -675 0
-675 0 0 345 0 345 675 0 675 0 0 -345z m6040 0 l0 -345 -665 0 -665 0 0 345
0 345 665 0 665 0 0 -345z m-6040 -1485 l0 -350 -675 0 -675 0 0 350 0 350
675 0 675 0 0 -350z m6040 0 l0 -350 -665 0 -665 0 0 350 0 350 665 0 665 0 0
-350z m-6040 -1485 l0 -345 -675 0 -675 0 0 345 0 345 675 0 675 0 0 -345z
m6040 0 l0 -345 -665 0 -665 0 0 345 0 345 665 0 665 0 0 -345z"/>
</g>
</svg>
