<svg xmlns="http://www.w3.org/2000/svg" width="425" height="24" viewBox="0 0 424.5 24.2">
  <defs>
    <style>
      .cls-1 {
        fill: #fff;
      }
    </style>
  </defs>
  <path id="mainTxt" data-name="mainTxt" class="cls-1" d="M804.4,34781.9a1.245,1.245,0,0,0-.384-0.8,9.952,9.952,0,0,0-1.8-1.5,6.931,6.931,0,0,0-1.129.7c-0.6.2-8.232,0.9-9.864,0.9a1.8,1.8,0,0,1-1.225-.3,8.8,8.8,0,0,1-1.248-1.4,3.071,3.071,0,0,0-.264,1.1,3.251,3.251,0,0,0,2.113,3,1.059,1.059,0,0,0,.6-0.2c1.512-.8,9.168-1.8,10.176-1.7a22.77,22.77,0,0,1-10.536,14.2l0.072,0.2c3.5-1,8.928-3.3,11.9-12.3a1.246,1.246,0,0,1,.768-1C804.23,34782.5,804.4,34782.4,804.4,34781.9Zm21.864-1.8a1,1,0,0,0-.649-0.9,13.014,13.014,0,0,0-1.512-.5c-0.192,0-1.032.5-1.248,0.5a17.688,17.688,0,0,1-4.872.6,4.2,4.2,0,0,1-3.408-1.2c-0.12,1.2.96,2.9,2.088,2.9a6.777,6.777,0,0,0,1.536-.2c1.008-.2,4.56-0.4,5.688-0.5C825.878,34780.8,826.262,34780.7,826.262,34780.1Zm1.776,4.5c0-.6-1.9-2-2.136-2a8.231,8.231,0,0,0-1.033.9c-0.288.2-7.92,0.8-9.5,0.8a1.83,1.83,0,0,1-1.393-.5,3.139,3.139,0,0,1-1.056-1.1,2.35,2.35,0,0,0-.192.9,3.712,3.712,0,0,0,2.425,3,3.624,3.624,0,0,0,.912-0.4c1.368-.6,7.272-1.2,8.712-1.3a18.448,18.448,0,0,1-3.576,6.7c-0.648.8-4.056,4.2-6.48,5.1v0.2c2.616-.1,5.328-2,6.528-2.9a17.438,17.438,0,0,0,5.137-7.1,5.97,5.97,0,0,1,.7-1.4C827.8,34785.1,828.038,34784.9,828.038,34784.6Zm15.839-2.5c0-2.7-4.488-3-5.3-3a4.589,4.589,0,0,0-1.177.1,11.74,11.74,0,0,1,4.009,2.9c0.816,0.8,1.128,1.1,1.536,1.1A1.057,1.057,0,0,0,843.877,34782.1Zm9.553-1-0.1-.1a52.685,52.685,0,0,1-7.513,7.2c-0.864.6-4.872,3.6-5.544,3.6-0.408,0-1.128-.4-1.9-1.7a6.879,6.879,0,0,0-.169,1.2c0,1.1,1.705,3.3,2.569,3.3a0.472,0.472,0,0,0,.336-0.1,6.2,6.2,0,0,0,.84-0.8c0.816-.7,2.256-1.8,3.144-2.5C850.646,34786.9,853.046,34782.6,853.43,34781.1Zm22.9,12.8c0-2.1-3.769-5-6.7-6.3a26.625,26.625,0,0,0,3.1-4.9,1.539,1.539,0,0,1,.672-0.9c0.769-.3.937-0.4,0.937-0.7a7.159,7.159,0,0,0-2.185-2.1,3.625,3.625,0,0,0-1.128.8c-0.984.6-6.24,1-6.816,1-0.792,0-.984-0.2-1.969-1.5a2.06,2.06,0,0,0-.216,1.1,3.009,3.009,0,0,0,1.873,2.6,1.734,1.734,0,0,0,.984-0.4,43.684,43.684,0,0,1,6.144-1.5c-0.792,3.4-6.72,11.4-12.457,14.1v0.2c3.384-.6,7.033-2.9,10.705-7.3,1.92,1.5,3.024,3.1,4.873,6.1a1.608,1.608,0,0,0,1.248,1A1.09,1.09,0,0,0,876.326,34793.9Zm27.168,1.3a14.323,14.323,0,0,1-6.049-4.3c-2.184-2.9-3.744-7.4-3.936-12.7a0.809,0.809,0,0,0,.624-0.7,0.906,0.906,0,0,0-.528-0.4l-3.216-.9a6.076,6.076,0,0,1,.312,2.4,28.553,28.553,0,0,1-2.184,11.1c-1.008,2-3.505,5.5-6.409,7.1l0.144,0.2a13.064,13.064,0,0,0,8.161-6.5c2.016-3.9,2.4-8.7,2.376-12.1h0.168a31.185,31.185,0,0,0,1.656,11c1.2,3.2,3.024,6.3,6,8a4.6,4.6,0,0,1,2.88-2v-0.2Zm13.487-8.8v-3h6.457c0.168,0,.36,0,0.36-0.2a0.6,0.6,0,0,0-.24-0.4l-1.3-1a0.653,0.653,0,0,0-.457-0.2c-0.144,0-.216,0-0.36.3l-0.744,1h-3.72v-2.4h8.737c0.168,0,.384,0,0.384-0.2a0.5,0.5,0,0,0-.24-0.4l-1.392-1.3a0.835,0.835,0,0,0-.456-0.2c-0.12,0-.168,0-0.36.3l-1.032,1.3h-4.681c1.9-1.3,2.112-1.4,3.048-2.1,0.6-.2.816-0.2,0.816-0.5a0.577,0.577,0,0,0-.312-0.5l-2.568-1.5a11.18,11.18,0,0,1-1.512,4.6h-7.249c-0.264,0-1.968-.1-3.408-0.2l0.384,0.9a12.77,12.77,0,0,1,2.592-.2h5.209v2.4h-3.456a27.952,27.952,0,0,1-3.409-.2l0.384,0.9a12.774,12.774,0,0,1,2.593-.2h3.888v3h-5.617a27.939,27.939,0,0,1-3.408-.2l0.384,0.9a12.77,12.77,0,0,1,2.592-.2h5.929a4.976,4.976,0,0,1,.072.8,10.315,10.315,0,0,1-.36,2.4h-5.4c-0.264,0-1.968,0-3.432-.1l0.408,0.9a12.77,12.77,0,0,1,2.592-.2h5.689c-0.744,2.6-3.984,5.6-8.281,6.4v0.2c3.984-.3,8.5-1.1,10.489-6.6h0.168a10.507,10.507,0,0,0,8.521,6.8,4.078,4.078,0,0,1,2.232-2.4v-0.2a6.1,6.1,0,0,1-1.176.1c-4.056,0-7.633-2-9-4.3h9.217c0.144,0,.36,0,0.36-0.2a0.522,0.522,0,0,0-.264-0.4l-1.464-1.2a0.729,0.729,0,0,0-.48-0.3,0.859,0.859,0,0,0-.384.3l-0.912,1.2h-6.649a6.586,6.586,0,0,0,.288-1.8c0.432-.3.552-0.3,0.552-0.6a0.422,0.422,0,0,0-.48-0.4l-1.176-.4h11.017c0.168,0,.36,0,0.36-0.2a0.428,0.428,0,0,0-.216-0.4l-1.56-1.3a0.7,0.7,0,0,0-.456-0.3c-0.1,0-.168,0-0.384.3l-1.08,1.4h-6.649Zm-6.841-10.4a7.266,7.266,0,0,1,1.993,2.6c0.528,1,.7,1.3,1.368,1.3a1.089,1.089,0,0,0,1.08-1.2c0-1.2-1.608-2.5-4.369-2.9ZM937,34790l-1.608-.8a27.8,27.8,0,0,0,5.328-4.6c1.032,1.9,5.233,5.6,8.761,6.7a4.122,4.122,0,0,1,2.16-2.2v-0.2a16.566,16.566,0,0,1-10.369-4.4,0.591,0.591,0,0,0,.48-0.5,0.867,0.867,0,0,0-.432-0.5l-2.208-1.3c-0.432,2.1-5.065,7-9.769,9.8l0.072,0.2a18.7,18.7,0,0,0,5.065-2.4c0.048,0.9.072,1.3,0.072,2.2,0,0.3,0,1.7-.1,3.6,0,0.2-.072,1.4-0.072,1.6a0.847,0.847,0,0,0,1.008.7,1.019,1.019,0,0,0,1.1-1.3h7.416a0.881,0.881,0,0,0,.84,1.1,1.167,1.167,0,0,0,1.321-1.3c0-.5-0.12-1.8-0.168-2.3-0.1-1-.121-2-0.121-2.9a1.251,1.251,0,0,0,.625-0.8,0.363,0.363,0,0,0-.192-0.3l-1.105-.8a1.225,1.225,0,0,0-.432-0.2,0.67,0.67,0,0,0-.384.3l-0.672.6H937Zm6.96,0.6v5.4h-7.488v-5.4h7.488Zm-2.64-11.7v-1.2a5.982,5.982,0,0,0,.576-0.4,0.439,0.439,0,0,0,.144-0.3,0.5,0.5,0,0,0-.288-0.4l-2.736-.7a13.64,13.64,0,0,1,.432,3h-6.1c-0.024-.3-0.048-0.4-0.072-1.1h-0.12a4.6,4.6,0,0,1-1.872,2.4,2.15,2.15,0,0,0-1.248,1.6,1.141,1.141,0,0,0,1.176,1c1.392,0,2.232-1.9,2.184-3.3h14.186a10.715,10.715,0,0,1-.96,2.4l0.168,0.1a10.867,10.867,0,0,0,2.448-1.1h1.272a0.777,0.777,0,0,0,.48-0.7,0.494,0.494,0,0,0-.1-0.3l-1.7-1.6a1.015,1.015,0,0,0-.576-0.4,0.693,0.693,0,0,0-.336.2l-0.768.8h-6.193Zm-4.944,1a2.928,2.928,0,0,1-.528,1.2c-0.6.8-2.977,4-5.065,5.3l0.072,0.2a15.117,15.117,0,0,0,6.745-4.4c0.936,0,1.152-.1,1.152-0.4a0.477,0.477,0,0,0-.216-0.3Zm6.192,1.1a16.323,16.323,0,0,1,2.9,3.3c0.793,1.2.937,1.4,1.585,1.4a0.957,0.957,0,0,0,1.08-1.1c0-1.3-1.944-2.4-2.377-2.6a16.255,16.255,0,0,0-3.144-1h-0.048Zm32.329-.9a0.8,0.8,0,0,0-.264-0.6l-1.8-1.5a1.062,1.062,0,0,0-.552-0.2,0.647,0.647,0,0,0-.408.3l-0.5.6h-6v-1.3c0.552-.4.744-0.5,0.744-0.8a0.641,0.641,0,0,0-.456-0.4l-2.616-.4c0.384,0.8.384,1,.456,2.9H956.82a6.075,6.075,0,0,0-.216-0.9H956.46a3.767,3.767,0,0,1-1.344,2.1c-1.032.9-1.176,1-1.176,1.6a1.018,1.018,0,0,0,1.056,1c1.1,0,1.9-1.7,1.848-3.2h14.642a16.091,16.091,0,0,1-.888,2.8h0.144a22.3,22.3,0,0,1,2.328-1.4,3.9,3.9,0,0,0,.84.1A0.848,0.848,0,0,0,974.894,34780.1Zm0.528,14.4v-0.2a17.7,17.7,0,0,1-8.113-6.6c0.216-.1.576-0.1,1.08-0.3s2.9-1.3,3.457-1.6c1.152,0,1.3,0,1.3-.3a0.917,0.917,0,0,0-.336-0.5l-2.28-1.7c-0.12.7-.24,1.5-3.361,4.2a13.769,13.769,0,0,1-2.04-4.5,2.784,2.784,0,0,0,.576-0.4h4.345c0.168,0,.36,0,0.36-0.3a0.386,0.386,0,0,0-.24-0.3l-1.393-1.3a0.862,0.862,0,0,0-.432-0.3,1.01,1.01,0,0,0-.384.3l-1.056,1.3h-6.072c-0.264,0-1.944,0-3.409-.1l0.384,0.9a8.035,8.035,0,0,1,2.593-.2h1.872a35.644,35.644,0,0,1-9.145,5.3v0.1c2.088,0,5.112-.9,8.953-3a2.435,2.435,0,0,1,.36.6c-1.152,1.1-6.457,5.3-9.313,6.2v0.1a20.271,20.271,0,0,0,10.2-4.6,6.339,6.339,0,0,1,.336.9c-1.728,2.2-7.417,7-10.345,8.3l0.048,0.1c2.472-.6,6-1.8,10.849-6.1a10.287,10.287,0,0,1,.144,1.7,4.7,4.7,0,0,1-.672,2.7,1.316,1.316,0,0,1-1.32.5,6.687,6.687,0,0,1-2.52-.5l-0.072.2c1.1,0.6,2.112,1.2,2.28,2.7,1.56-.1,4.176-0.3,4.176-4.9a10.5,10.5,0,0,0-3.768-8.1c1.248-.8,1.848-1.2,2.184-1.4a18.463,18.463,0,0,0,8.233,12.4A3.313,3.313,0,0,1,975.422,34794.5Zm12.983,0.9c5.449-.5,9.769-3.6,9.769-8.6,0-4.8-4.032-7.6-8.953-7.6-5.832,0-10.3,4.2-10.3,9.3a4,4,0,0,0,1.08,2.8,4.627,4.627,0,0,1,.96,1c0.744,1.1,1.008,1.4,1.537,1.4,0.672,0,1.488-.1,3.984-4.8a61.559,61.559,0,0,0,3.1-6.7c0-.4-0.456-1.4-2.064-2.1a5.829,5.829,0,0,1,1.512-.1c4.752,0,6.913,3.1,6.913,6.4,0,5.9-5.785,8.2-7.537,8.8v0.2Zm-1.8-15.2a2.1,2.1,0,0,1,.816,1.5c0,1.5-2.136,5.8-2.9,7.3-0.5.9-1.44,2.7-2.208,2.7-0.889,0-1.609-2.1-1.609-3.6C980.7,34785,983.341,34781,986.605,34780.2Zm36.605,14.8-0.03-.1a18.317,18.317,0,0,1-9.38-1.7,21.586,21.586,0,0,0,3.14-3.8c1.27-.2,1.39-0.3,1.39-0.7a0.778,0.778,0,0,0-.24-0.5l-1.22-1.2a0.593,0.593,0,0,0-.41-0.3,0.578,0.578,0,0,0-.33.2l-1.18.9h-6.17c-0.26,0-1.97,0-3.43-.1l0.41,0.9a10.36,10.36,0,0,1,2.83-.2,15.446,15.446,0,0,0,2.76,4.6,18.464,18.464,0,0,1-8.28,4.4l0.02,0.1a17.294,17.294,0,0,0,9.53-3.3,16.506,16.506,0,0,0,8.31,3.5A4.509,4.509,0,0,1,1023.21,34795Zm-8.28-6.6a15.482,15.482,0,0,1-2.72,3.8,10.314,10.314,0,0,1-3.21-3.8h5.93Zm4.53-11a0.838,0.838,0,0,0-.21-0.4l-1.76-1.7c-1.84,1.1-6.53,2.7-13.17,3.6v0.1a13.717,13.717,0,0,0,2.18.1,43.262,43.262,0,0,0,11.86-1.6,1.7,1.7,0,0,0,.62.1C1019.1,34777.6,1019.46,34777.6,1019.46,34777.4Zm-5.76,4.2c0-1.1-1.46-2.2-3.41-2.5l-0.07.1a6.2,6.2,0,0,1,1.22,2.5,1.2,1.2,0,0,0,1.25,1.1A1.162,1.162,0,0,0,1013.7,34781.6Zm9.65,3.3a0.587,0.587,0,0,0-.17-0.4l-1.75-1.7a0.366,0.366,0,0,0-.31-0.2,0.437,0.437,0,0,0-.36.2l-0.91.8h-4.32a38.207,38.207,0,0,0,2.92-2.9,0.725,0.725,0,0,0,.89-0.6,0.6,0.6,0,0,0-.36-0.4l-2.52-1.2c0,0.1.03,0.4,0.03,0.6a12.21,12.21,0,0,1-1.52,4.5h-10.25a5.291,5.291,0,0,0-.48-1.4h-0.12a5.873,5.873,0,0,1-1.27,3.2c-0.86,1.1-.96,1.2-0.96,1.7a1.068,1.068,0,0,0,1.06,1.1c0.98,0,1.92-.8,1.92-3a9.088,9.088,0,0,0-.05-1h15.07a17.118,17.118,0,0,1-.88,2.5h0.04a23.017,23.017,0,0,0,2.86-1.4,2.245,2.245,0,0,0,.74.1A0.561,0.561,0,0,0,1023.35,34784.9Zm-14.02-2.9c0-.3-0.14-1.9-3.02-2.6l-0.12.1a5.764,5.764,0,0,1,.91,2.2c0.19,0.6.38,1.4,1.25,1.4A0.993,0.993,0,0,0,1009.33,34782Zm23.57,12.2c-2.04,1.9-5.81,3-6.98,3.4l0.02,0.2c5.23-.4,7.37-1.4,8.74-2.2,0.62,0,1.1,0,1.1-.3a0.275,0.275,0,0,0-.24-0.3l-1.39-.8h6.67a0.431,0.431,0,0,0,.43.5c1.59,0,1.59-.7,1.59-1.4,0-.9-0.15-4.5-0.15-5.3a1.1,1.1,0,0,0,.63-0.7,0.945,0.945,0,0,0-.27-0.4l-0.91-.8a0.651,0.651,0,0,0-.5-0.3,1.749,1.749,0,0,0-.43.3l-0.8.8h-8.13l-2.26-1.2a13.075,13.075,0,0,1,.22,3.5c0,2.3.02,3.1-.05,4,0,0.2-.07.9-0.07,1a0.707,0.707,0,0,0,.76.8,1.2,1.2,0,0,0,1.25-.8h0.77Zm7.92-2.9h-8.64v-1.6h8.64v1.6Zm-8.64,2.4v-1.8h8.64v1.8h-8.64Zm8.64-4.6h-8.64v-1.7h8.64v1.7Zm-2.25,5.7a9.344,9.344,0,0,1,4,2.3c1.16,1,1.3,1.1,1.83,1.1a1.168,1.168,0,0,0,1.17-1.2c0-1.9-4.44-2.5-6.24-2.5-0.33,0-.57.1-0.76,0.1v0.2Zm-5.19-12.5-2.33-1.1a14.648,14.648,0,0,1,.17,2.4c0,0.3-.07,1.7-0.07,2.1a0.615,0.615,0,0,0,.72.7,1,1,0,0,0,1.2-1.2h6.38c0,0.6.05,1,.63,1a1.206,1.206,0,0,0,1.32-1c0-.3-0.07-1.5-0.05-1.8a0.856,0.856,0,0,0,.55-0.7,0.364,0.364,0,0,0-.21-0.3l-1.11-.8a0.647,0.647,0,0,0-.38-0.1,1.019,1.019,0,0,0-.46.3l-0.6.5h-5.76Zm6.07,0.6v1.7h-6.36v-1.7h6.36Zm-1.92-2.7v-2.1c0.65-.7.72-0.8,0.72-1,0-.3-0.24-0.3-0.55-0.4l-2.71-.8c0.57,1.4.6,1.9,0.65,4.3h-2.45a1.1,1.1,0,0,0,.77-1c0-1.8-2.36-2.4-3.63-2.7l-0.09.2a4.727,4.727,0,0,1,1.41,2.3,1.89,1.89,0,0,0,1.03,1.2h-3.12c-0.07-.4-0.12-0.8-0.24-1.3h-0.21c-0.05,1.5-1.56,2.7-2.04,3.1a1.783,1.783,0,0,0-.84,1.3,1.2,1.2,0,0,0,1.1,1.2c1.27,0,2.38-1.9,2.28-3.7h14.26a17.272,17.272,0,0,1-.91,2.6l0.12,0.1a11.9,11.9,0,0,1,2.52-1.3c0.65,0,1.56.1,1.56-.6a0.7,0.7,0,0,0-.17-0.4l-1.66-1.6a0.782,0.782,0,0,0-.38-0.2,0.526,0.526,0,0,0-.38.2l-0.75.6h-3.79a21,21,0,0,0,2.54-1.9c0.53,0,.82-0.1.82-0.4a0.428,0.428,0,0,0-.31-0.3l-2.38-1.4a12.853,12.853,0,0,1-1.29,4h-1.88Zm30.94,2a5.144,5.144,0,0,0-2.14-2.1,8.015,8.015,0,0,0-1.27.7,75.188,75.188,0,0,1-8.64.8,3.988,3.988,0,0,1-3.31-1.6,4.108,4.108,0,0,0-.07.7,2.106,2.106,0,0,0,.38,1.3c0.1,0.1,1.03,1.8,2.02,1.8,0.19,0,1-.4,1.2-0.4a42.905,42.905,0,0,1,8.33-1.1c0.24,0,.4,0,0.4.3s-0.38,4.5-.96,8.1c-2.06.2-7.2,0.7-8.21,0.7-1.44,0-2.85-1.4-3.09-1.6a1.9,1.9,0,0,0-.15.8c0,1.2,1.54,3,2.19,3a7.3,7.3,0,0,0,1.32-.4,20.978,20.978,0,0,1,6.02-.8c0.46,0,2.6.1,3.08,0.1,0.81,0,1.65,0,1.65-.7a1.678,1.678,0,0,0-1.15-1.2c0.82-4.9.91-5.5,1.25-6.8a1.1,1.1,0,0,1,.6-0.9A0.848,0.848,0,0,0,1068.47,34782.2Zm21.89-1.5c0-.8-1.73-2.2-2.95-2.2a4.02,4.02,0,0,0-1.61.4c0.6,0.2,1.68.6,1.68,1.4s-2.07,4.8-2.11,4.9a15.725,15.725,0,0,0-6.08-2.1,39.262,39.262,0,0,1,5.26,3.5c-2.16,3.4-6.53,7.5-9.19,8.6l0.12,0.2a19.944,19.944,0,0,0,10.46-7.4c0.72,0.9,1.18,1.5,1.78,2.4,0.55,0.8.74,1.2,1.25,1.2a1.188,1.188,0,0,0,1-1.2c0-1.7-2.42-3.6-2.92-4a37.95,37.95,0,0,0,1.82-3.6,2.483,2.483,0,0,1,.94-1.3A0.949,0.949,0,0,0,1090.36,34780.7Zm17.52,1.4c0-2.7-4.49-3-5.31-3a4.554,4.554,0,0,0-1.17.1,11.7,11.7,0,0,1,4,2.9c0.82,0.8,1.13,1.1,1.54,1.1A1.063,1.063,0,0,0,1107.88,34782.1Zm9.55-1-0.1-.1a52.389,52.389,0,0,1-7.51,7.2c-0.86.6-4.87,3.6-5.54,3.6-0.41,0-1.13-.4-1.9-1.7a7.077,7.077,0,0,0-.17,1.2c0,1.1,1.71,3.3,2.57,3.3a0.476,0.476,0,0,0,.34-0.1,6.842,6.842,0,0,0,.84-0.8c0.81-.7,2.25-1.8,3.14-2.5C1114.65,34786.9,1117.05,34782.6,1117.43,34781.1Zm21.67,7.5c0-2.3-4.17-3.8-6.91-4.1a26.639,26.639,0,0,1,.31-4.9,10.933,10.933,0,0,0,.36-1.2c0-.8-2.59-1.3-3.05-1.3a3.629,3.629,0,0,0-1.58.6c1.77,0.7,1.85.9,1.92,1.2,0.24,0.9.29,6.5,0.29,7.7a52.487,52.487,0,0,1-.32,6.4,8.926,8.926,0,0,0-.16,1.4c0,1.4.6,2.4,1.29,2.4,0.65,0,1.16-.8,1.16-1.8,0-.4-0.17-2.6-0.17-3.1,0-.1-0.1-5.4-0.05-6.9,1.73,0.7,2.4,1.4,4.9,4.1a1.472,1.472,0,0,0,1.03.7A1.092,1.092,0,0,0,1139.1,34788.6Zm17.31,6.8c5.44-.5,9.76-3.6,9.76-8.6,0-4.8-4.03-7.6-8.95-7.6-5.83,0-10.3,4.2-10.3,9.3a4,4,0,0,0,1.08,2.8,4.442,4.442,0,0,1,.96,1c0.75,1.1,1.01,1.4,1.54,1.4,0.67,0,1.49-.1,3.98-4.8a61.87,61.87,0,0,0,3.1-6.7c0-.4-0.45-1.4-2.06-2.1a5.8,5.8,0,0,1,1.51-.1c4.75,0,6.91,3.1,6.91,6.4,0,5.9-5.78,8.2-7.53,8.8v0.2Zm-1.81-15.2a2.083,2.083,0,0,1,.82,1.5c0,1.5-2.14,5.8-2.9,7.3-0.51.9-1.44,2.7-2.21,2.7-0.89,0-1.61-2.1-1.61-3.6C1148.7,34785,1151.34,34781,1154.6,34780.2Zm37.59,15.2v-0.1a12.113,12.113,0,0,1-5.71-3.5,25.484,25.484,0,0,0,2.45-7.1,1.032,1.032,0,0,0,.91-0.6,0.18,0.18,0,0,0-.19-0.2l-1.78-1h3c0.17,0,.36,0,0.36-0.2a0.5,0.5,0,0,0-.24-0.4l-1.54-1.3a1.264,1.264,0,0,0-.45-0.2,0.522,0.522,0,0,0-.36.3l-1.03,1.2h-3.72a24.347,24.347,0,0,0,2.04-4.3,0.926,0.926,0,0,0,.96-0.6,0.53,0.53,0,0,0-.2-0.3l-2.76-1.3a14.7,14.7,0,0,1-.31,2.5c-0.43,1.6-2.4,7.2-4.03,9.2l0.17,0.1a12.892,12.892,0,0,0,3.05-3.5,20.342,20.342,0,0,0,1.82,7.8c-0.55.9-3.62,4.9-6.19,5.7l0.09,0.2a14.341,14.341,0,0,0,6.89-4.5,11.516,11.516,0,0,0,4.51,4.1C1190.89,34796,1191.09,34795.8,1192.19,34795.4Zm-5.38-12.5a19.518,19.518,0,0,1-1.41,7.4,20,20,0,0,1-2.16-6.8c0.07-.1.09-0.2,0.31-0.6h3.26Zm-4.53,7.2a0.619,0.619,0,0,0-.24-0.4l-1.2-1a0.711,0.711,0,0,0-.43-0.3,0.671,0.671,0,0,0-.39.3l-0.82,1.1h-3.74a10.546,10.546,0,0,1,.48-1.1c0.79-.3.89-0.3,0.89-0.5a0.391,0.391,0,0,0-.19-0.3l-1.37-.8h0.41a0.95,0.95,0,0,0,1.08-1c0-.5-0.1-3-0.12-3.6a10.452,10.452,0,0,1,1.7,2.3c0.41,0.7.6,1,1.18,1a0.892,0.892,0,0,0,.84-1c0-1.5-2.74-2.5-3.72-2.8v-0.6h4.82a0.283,0.283,0,0,0,.36-0.3,0.382,0.382,0,0,0-.24-0.3l-1.08-1a0.573,0.573,0,0,0-.43-0.3c-0.1,0-.17,0-0.39.3l-0.76,1h-2.28c0.02-1.1.04-2.9,0.04-3.2,0.51-.2.75-0.3,0.75-0.6a0.472,0.472,0,0,0-.34-0.3l-2.23-.6a23.292,23.292,0,0,1,.31,4.7h-1.65c-0.27,0-1.97,0-3.41-.1l0.38,0.9a8.024,8.024,0,0,1,2.59-.2h1.61c-0.6,1.1-2.97,4.7-4.92,6l0.1,0.2a13.3,13.3,0,0,0,5.16-4.1c0,0.4-.15,2.4-0.15,2.9a0.655,0.655,0,0,0,.15.5l-0.43-.2a9.142,9.142,0,0,1-.99,3.1c-0.43,0-2.06-.1-3.48-0.2l0.39,0.9a17.129,17.129,0,0,1,2.83-.2c-0.17.3-.89,1.8-1.08,2.2a1.6,1.6,0,0,0-.43.9c0,0.6,1.05.6,1.17,0.6,0.65,0,.72-0.3,1.01-0.9a16.118,16.118,0,0,1,1.51.8,10.84,10.84,0,0,1-5.42,3.4v0.1a10,10,0,0,0,6.65-2.6c0.62,0.6.67,0.6,1.24,1.2a1.781,1.781,0,0,0,1.16.6,0.909,0.909,0,0,0,.88-1c0-1.1-1-1.5-2.2-1.9a12.236,12.236,0,0,0,1.53-2.3,1.08,1.08,0,0,0,.65-0.5,0.522,0.522,0,0,0-.41-0.4l-0.48-.2h2.76C1182.06,34790.3,1182.28,34790.3,1182.28,34790.1Zm-4.59.2a9.37,9.37,0,0,1-1.58,2.9,11.539,11.539,0,0,0-1.99-.3c0.33-.9.69-1.7,1.08-2.6h2.49Zm3.15-12.3a0.4,0.4,0,0,0-.24-0.4l-1.83-1.1a10.234,10.234,0,0,1-1.73,3.7l0.12,0.1a18.026,18.026,0,0,0,2.98-2,0.575,0.575,0,0,0,.39.1A0.365,0.365,0,0,0,1180.84,34778Zm-6.32,1c0-1.4-2.08-1.9-3.04-2l-0.05.1a6.028,6.028,0,0,1,1.15,2.1,1.111,1.111,0,0,0,.96,1A1.135,1.135,0,0,0,1174.52,34779Zm26.19,9.8a17.607,17.607,0,0,1,5.21,5.9,1.183,1.183,0,0,0,.93.7,1.048,1.048,0,0,0,.92-1.2,4.118,4.118,0,0,0-1.97-3.3,58.345,58.345,0,0,0,4.32-4.2,1.709,1.709,0,0,1,1.03-.6,1.011,1.011,0,0,0,.84-0.6,3.725,3.725,0,0,0-2.33-2.2,6.422,6.422,0,0,0-1.13.5,21.2,21.2,0,0,1-4.15.6,0.95,0.95,0,0,1-.79-0.4c0.17-.2.89-1.2,1.06-1.5a6.414,6.414,0,0,0,1.32-1.5c0-.5-1.44-1.9-2.19-2.2a6.605,6.605,0,0,0-1.97-.2c0.67,0.6,1.2.9,1.2,1.6,0,1.2-1.46,3.5-2.49,5a34.945,34.945,0,0,1-6.05,6.9l0.07,0.1c2.66-1.3,4.92-2.7,8.26-7.1a1.754,1.754,0,0,0,1.32.6c0.62,0,3.33-.6,3.91-0.6a0.264,0.264,0,0,1,.26.3c0,0.1-.4,1.4-2.85,5.2a13.329,13.329,0,0,0-4.71-1.9Z" transform="translate(-788 -34774.5)"/>
</svg>
