<svg id="main_ttl01" data-name="main_ttl01" xmlns="http://www.w3.org/2000/svg" viewBox="0 0 199.37 801.79" width="105" height="423">
	<defs>
		<style>
			.cls-1{fill:#ffffff;}
		</style>
	</defs>
	<path class="cls-1" d="M174.43,15c1.65,0,2.85,0,3.89-.95.43-.43,2.5-3.1,3.28-3.1S188,14.67,188,16.31a10.71,10.71,0,0,1-1.64,2.41,6.68,6.68,0,0,0-1,4.23c0,8.63,0,18,.18,26.66,0,2.85.68,17.09.68,20.28,0,5.26-4.05,6-4.83,6-2.24,0-2.41-1.9-2.59-3.2C178.66,71,177.28,71,176.08,71H142.77c-1.9,0-2.85,0-3.1,2.33a4.71,4.71,0,0,1-4.58,4c-2.16,0-2.16-2.24-2.16-3.28,0-3.88.35-23,.35-27.26,0-2.24-.26-27.52-.35-28.82-.17-2.5-.34-3.88-.34-4.57s.09-1.12.95-1.12c.69,0,1.21.17,5.35,1.9a6.65,6.65,0,0,0,3.54.77h5c.86,0,2.16,0,2.85-.86,1.38-1.9,3.19-10.18,3.53-12S154.25,0,154.5,0C155,0,164,3.62,164,5.44c0,.94-.51,1-3.53,1.81-2.33.6-7.34,6.38-7.34,7.16,0,.6.52.6,1.73.6Zm-33,20.11A2.14,2.14,0,0,0,139,37.36v11.3c0,1.9,1.9,1.9,2.59,1.9H177.2c2.07,0,2.41-1.38,2.41-2.16V37.1c0-2-1.9-2-2.67-2Zm.17-17.78c-1.73,0-2.5.69-2.5,2.16V30.72c0,.77,0,2.15,2.41,2.15h35.38c.69,0,2.59,0,2.59-1.81V19.5c0-.69,0-2.16-2.59-2.16ZM177,68.68c1.73,0,2.59-.52,2.59-2.24V55c0-1.12-.51-2.07-2.41-2.07H141.65c-2.5,0-2.5.86-2.5,5.44,0,.43.08,8.45.08,9,.09,1,1.47,1.38,2.5,1.38Z"/>
	<path class="cls-1" d="M152.26,108.28c0,.86-.6,1-2.41,1.47-.87.26-2.42,2.76-4.32,5.86-10,16.49-23.72,23.9-25.62,23.9a.45.45,0,0,1-.52-.51c0-.52.17-.61,1.81-1.9,11.65-9.15,18.2-23.47,19.41-26.06.61-1.29,2.85-8.63,2.94-8.63C144.15,102.16,152.26,106.82,152.26,108.28Zm8.37,25.2c-2.24,0-2.24.17-2.76,4.74-.78,7.59-2.42,22.52-17.43,30.89A56.26,56.26,0,0,1,124,174.72c-.26,0-1,0-1-.61,0-.43.43-.6,2-1.12,6-2.16,12.86-6.21,17-10.44,6.38-6.47,9.75-18.2,9.75-27.18,0-1.89-.87-1.89-2.16-1.89h-2.59c-3.19,0-7.33.08-8.88.17a16.93,16.93,0,0,1-1.82.26c-.34,0-.51-.26-.77-.61l-1.73-2c-.26-.35-.35-.43-.35-.52s.09-.26.35-.26c.6,0,3.19.35,3.8.35,4.22.17,7.76.26,11.82.26h18.89c3.89,0,4.32-.18,5.7-1.64s2.07-1.9,2.67-1.9c1.38,0,6.39,4,6.39,5.78,0,.43-1.38,2-1.56,2.33-.43.86-.94,10.7-1.12,12.68-1,10.44-1.64,17.52-4.05,21.4-2.33,3.71-7.51,5.18-8.81,5.18-.94,0-.94-.26-1.63-2.68-.52-2-3.45-3.1-7.94-4.4-1.9-.52-2.85-.86-2.85-1.38s.78-.52.95-.52a32.88,32.88,0,0,1,3.37.61,51.32,51.32,0,0,0,6.12.69c4.14,0,6.47-.78,7.68-9.67.86-6.64,1.73-16.65,1.73-21,0-2.33-.18-3.1-2.59-3.1Zm4.31-27.79c-2.15,0-5.08.09-6.9.18-.26,0-1.47.17-1.72.17s-.35-.09-.7-.52l-1.63-2a.93.93,0,0,1-.26-.61c0-.08.08-.17.26-.17.51,0,3,.34,3.53.34.95.09,4.58.26,5.18.26a4.41,4.41,0,0,0,3.63-2.24c1.72-2.41,1.89-2.67,2.58-2.67,1.12,0,7.51,4.31,7.51,6.21,0,.86-.26,1-2.59,1.55-.43.09-1.72.52-1.72,1.81,0,4.49,11.39,18.21,26,19.67.26,0,1.29.18,1.29.7s-2.24.94-2.59,1a17.87,17.87,0,0,0-5.26,4c-.17.26-1.12,1.29-1.38,1.29-2.94,0-17.17-11.9-20.62-24.93-1-3.71-1.13-4.06-3.11-4.06Z"/>
	<path class="cls-1" d="M159.42,208.19c0,.26.17.6.17.95a65.27,65.27,0,0,1,.87,9.32c0,5.78-1.3,13.8-8.89,25.28-6.9,10.52-11.3,12.59-14.75,12.59-5.7,0-10.79-8.88-10.79-19.41,0-4.57,1-13.29,9.58-22,11-11.22,22.52-11.22,27.52-11.22,7.85,0,11.48,1.56,13.89,2.76,9.32,4.58,15,13.81,15,25.11a32.17,32.17,0,0,1-21.75,30.37,53,53,0,0,1-14.32,3.2c-.35,0-.86-.09-.86-.61,0-.26.17-.34,2.33-1.21,9-3.53,27.69-10.95,27.69-32.44,0-3.36-.34-23.9-23.89-23.9C159.51,207,159.42,207.67,159.42,208.19Zm-28,26.49c0,5.61,2.25,13.29,7.51,13.29,2.5,0,4.57-1,10.53-10,4.57-7,8.45-16.57,8.45-25.11,0-5.18-.35-5.61-1.47-5.61C148.2,207.24,131.38,218.37,131.38,234.68Z"/>
	<path class="cls-1" d="M168.14,344.34a4.25,4.25,0,0,0,2-.34c.43-.18,2.42-1.9,3-1.9,1.21,0,6.21,4.74,6.21,5.78a.94.94,0,0,1-.52.86c-.51.17-2.93.6-3.45.86s-5,4.32-5.95,5.09c-.69.52-2.42,1.9-2.42,2.42,0,1.64,12.34,4,20.37,4,1.72,0,5-.17,7-.26.34,0,2.15-.35,2.5-.35s.52.09.52.35c0,.43-.78.6-1,.69a13,13,0,0,0-6.47,4c-1.73,2.16-2,2.41-2.85,2.41-4.31,0-13.54-2-18.37-4.05-1-.43-5.79-2.93-6.82-2.93a4.81,4.81,0,0,0-2.33.86,57.06,57.06,0,0,1-22.18,6.64c-.17,0-.86,0-.86-.34s.26-.43,1.81-.86c3.28-.87,8.55-3.2,14.5-6.39,3.79-2.07,4.23-2.33,4.23-3.37,0-.51-.35-.77-.52-1-.69-.6-3.89-3.63-4.57-4.31-2.85-3.2-3.11-3.54-3.72-3.54-.86,0-6.47,5.43-7.67,6.47-6.56,5.26-16.91,10.7-18.47,10.7-.25,0-.52-.09-.52-.26,0-.43,1.3-1.47,2.34-2.07a72.26,72.26,0,0,0,8.8-6.39c11.64-9.66,15-16.39,15-16.91,0-.77-.86-.77-1.73-.77H135.35c-2.5,0-6.73,0-10.18.26-.26,0-2.33.17-2.5.17-.35,0-.52-.17-.78-.52l-1.64-2c-.34-.43-.43-.43-.43-.6s.17-.17.34-.17c.52,0,3.2.26,3.8.26,2.5.17,6.9.34,11.82.34h11.13c1,0,2.68,0,3.37-1.29a10.24,10.24,0,0,0,1-3.45c0-.26-.17-1.47-.17-1.81s0-.61.6-.61a35.92,35.92,0,0,1,3.45,1.38c3.63,1.21,4,1.3,4,2,0,.34-1.64,1.12-1.89,1.38a2.49,2.49,0,0,0-1,1.72c0,.69.25.69,1.72.69h23.47a15.6,15.6,0,0,0,4.14-.26c.87-.43,3.8-4.4,4.83-4.4.52,0,8,4.58,8,5.78s-1.73,1.13-4.57,1.13H157.61a4.51,4.51,0,0,0-3,.69c-.6.43-2.33,2.76-2.33,3.53s.52.78,1.47.78ZM153.9,316.73a3.47,3.47,0,0,0,2.33-.52c.52-.43,2.93-3.1,3.36-3.1s5.79,3.45,5.79,4.66-.69,1.29-5.27,1.29H138.89c-.09,0-.35,0-.35.09s1.38,1.38,1.38,1.72-.17.52-1.81,1.12c-.69.26-3.54,4.14-3.54,4.92,0,.61.69.61,1.21.61,1.47,0,11.82-1.73,14-2,.34-.09,1-.09,1-.69s-2-1.9-3.88-3c-.26-.17-1.81-.69-1.81-1,0-.61.86-.61,1.29-.61,2.85,0,12.17,2.5,12.17,7.16a2.5,2.5,0,0,1-2.33,2.76c-.86,0-1.12-.26-2.76-2.5a1.75,1.75,0,0,0-1.55-.77c-1.13,0-22,5.78-22.35,5.95s-1.81,1.55-2.24,1.55c-.61,0-1-.86-1.12-1.21-.27-.69-2.33-4-2.33-4.83,0-.52.25-.69.68-.69.27,0,4.67.26,5.53.26,1.55,0,2.16-.52,2.5-1.64a24.16,24.16,0,0,0,1.21-5.52c0-1.12-.44-1.64-1.55-1.64-1.47,0-5.79.09-7.17.26-.17,0-1,.17-1.12.17-.34,0-.52-.26-.78-.6l-1.72-2c-.26-.34-.35-.43-.35-.6s.18-.17.35-.17c1.29,0,8,.51,9.49.51,1.64,0,1.64-.34,1.64-5.35,0-2.41-.17-14.23-.17-17,0-.78.08-1,.34-1a13.41,13.41,0,0,1,2.85,1.55,6.15,6.15,0,0,0,3.54.7h9.23c2.85,0,3.19,0,3.62-.26a35.74,35.74,0,0,1,3.62-2.76c.27,0,5.7,3.19,5.7,4.22s-.95,1.12-3.11,1.12H139.67c-1.21,0-2.07.09-2.07,2.08s.51,2.24,2.15,2.24h6.56c2.5,0,2.76,0,3.28-.43s2.33-2.76,2.93-2.76c.43,0,5,3.36,5,4.31,0,1.12-1,1.12-2.67,1.12H139.32c-1.55,0-1.81.78-1.81,2.42,0,1.38.09,2.33,1.89,2.33h6.3a13.87,13.87,0,0,0,2.94-.17c.6-.26,2.67-3,3.36-3,.35,0,5,3.46,5,4.32,0,1.12-1.12,1.12-2.76,1.12H139.49c-.77,0-1.89,0-1.89,1.73,0,2.93,0,3.62,1.89,3.62Zm-1.38,29.85c-.78,0-1.64,0-1.64.69,0,1,8.54,7.6,10.44,7.6s8.11-6.13,8.11-7.6c0-.69-.52-.69-1.12-.69Zm40.81-32.52c.61.51,4.66,3.71,4.66,4,0,.52-.78.61-1.47.69-1.47.18-7.42,3.2-8.62,3.71a117.88,117.88,0,0,1-23.56,7.17c-.17,0-.43-.09-.43-.35s1.21-.6,1.64-.77c1.38-.44,22.6-9.5,25-14.16.08-.17.43-1.38.52-1.46C191.43,312.59,191.69,312.76,193.33,314.06Zm-9.75-22.7c.09,0,5.18,4.15,5.18,4.58,0,.69-.61.77-1.9.95-.52,0-8.11,3.36-9.66,4a106,106,0,0,1-12.08,3.62c-.18,0-.35,0-.35-.17s3.54-2.25,4.23-2.59c11.21-6,12.86-8.37,13.8-9.84C183.06,291.54,183.23,291.36,183.58,291.36Zm4.14,11.13c.61,0,5.78,3.37,5.78,4.15s-.26.69-2.33,1c-.25,0-19.41,7.51-23.29,7.51-.17,0-.35,0-.35-.17s.95-.7,1.47-.95c7-3.37,16.39-8.12,18.2-11.31A.53.53,0,0,1,187.72,302.49Z"/>
	<path class="cls-1" d="M132.85,432.69c0-2.59,2.41-5.35,8.28-12.17,3.89-4.48,7.34-11.64,7.34-12.85,0-.52-.61-.61-.95-.61-.87,0-4.4.69-5.18.69-3.28,0-7.68-4.22-7.68-7.59,0-.26,0-.6.52-.6a19.31,19.31,0,0,1,3.28,1.64,13.79,13.79,0,0,0,5.69,1.55c7.08,0,7.08-2.33,7.08-4.06a7,7,0,0,0-.69-3c-.26-.43-2.07-2-2.07-2.5,0-.69,2.24-1.38,3.79-1.38,2.07,0,4.23.78,4.4,2.68.09,1.12.43,1.29,3.88,1.55.61,0,3.89.43,3.89,2.24,0,2.85-6.3,5.27-10.27,6.82-1.29.52-1.38.69-3.28,5.09a66.28,66.28,0,0,1-4.66,9.32c-.43.77-.6,1-.6,1.38a.31.31,0,0,0,.34.34,16.85,16.85,0,0,0,2.68-.95,8.08,8.08,0,0,1,3.36-.69c1.12,0,5.09.18,7.34,5.27.6,1.46.68,1.64.86,1.64a40.25,40.25,0,0,0,3.54-4.66c2.84-4,8.45-11.82,16-11.82a8.13,8.13,0,0,1,8.11,7.68c0,4.05-6.82,6.9-12.17,9.23-2.15.95-11.9,4.83-13.46,5.78-1.38.86-1.46,1.81-1.46,3.62,0,.78.17,4.4.17,5.18,0,1.38,0,6.3-3.19,6.3-2.33,0-2.68-2.85-2.68-4.4,0-.87.26-5,.26-5.09,0-.35,0-1-.6-1s-8.37,5.35-8.37,10.27c0,6,8.63,6,11.13,6A26.35,26.35,0,0,0,163,453c1.21-.17,6.73-1.55,7.85-1.55,1.81,0,4.23.86,4.23,2.94,0,5.34-13.37,5.69-15.45,5.69-11,0-16.73-4.49-16.73-11.3,0-5.52,3.27-8.29,11.39-14.84a3.69,3.69,0,0,0,1.29-3c0-3.89-.69-8.72-4.14-8.72-3.28,0-8.37,4-10.62,9.15-.94,2.16-1.89,4.23-4.65,4.23C134.49,435.54,132.85,435,132.85,432.69Zm22-32.61c.17,0,4.31-1.13,4.31-2.08,0-1.12-2.15-1.29-2.93-1.29-1.21,0-1.55,2.42-1.55,2.76S154.68,400.08,154.85,400.08ZM162.7,428c0,.17.09.43.35.43s17.25-6.9,17.25-12.6c0-2.15-1.9-2.59-3-2.59C170.12,413.27,162.7,426.65,162.7,428Z"/>
	<path class="cls-1" d="M193.68,501.62c-1.73,0-2.08-.6-4.92-5.78a24.41,24.41,0,0,0-9.06-9.23c-.26-.17-1.21-.69-1.21-1s.26-.61.95-.61c3,0,17.69,4.49,17.69,12.6C197.13,499.64,195.4,501.62,193.68,501.62Z"/>
	<path class="cls-1" d="M41.93,9.15s1,20.7,12.51,39.51C55.91,51,65.66,66.78,78.94,70.23c.27.09.87.26.87.61s-.26.43-3,1a17.19,17.19,0,0,0-6,2.59c-1.64,1.21-1.9,1.47-2.16,1.47S57.38,69.11,49,50.82a93,93,0,0,1-8.29-33.39c-.08-.95-.08-1-.43-1-.51,0-.51.35-.86,3.46-.26,2.76-2.5,22.86-11,36.92C19.15,72.13,4.05,77.31,3.28,77.31c-.26,0-.52-.09-.52-.43s.43-.61,1.12-1c5-3.36,14.67-11,20.45-22.17C34.17,35,34.17,10.27,34.17,9.32a23.31,23.31,0,0,0-.35-5.26,11.75,11.75,0,0,1-.34-1.73.74.74,0,0,1,.69-.69c.51,0,4.22,1.21,5,1.38C43.31,4.14,45,4.66,45,6.21c0,1-.69,1.21-1.47,1.39s-1.12.17-1.38.51A1.69,1.69,0,0,0,41.93,9.15Z"/>
	<path class="cls-1" d="M34.94,116.13c2.68,0,2.68-1,2.68-5.35a76.87,76.87,0,0,0-.52-10.09c-.09-.43-.69-2.33-.69-2.76s.35-.61,1-.61,9.32.87,9.32,3c0,.52-1.82,2.16-2.07,2.59-.61,1.3-.78,8.11-.78,9.92,0,2.25.08,3.28,2.76,3.28H57.72c4,0,4.4,0,5.52-1.46,2.59-3.54,2.85-3.89,3.63-3.89.95,0,7.85,5.78,7.85,6.56,0,1.12-2,1.12-4.58,1.12H46.5c-.94,0-2.15,0-2.59,1.47-.16.69-.16,14.15-.16,16.65,0,2.68.16,3.71,2.84,3.71h8.54c4.06,0,4.49,0,5.52-1.47,2.68-3.53,2.94-3.88,3.71-3.88,1,0,7.86,5.78,7.86,6.56,0,1.12-2,1.12-4.66,1.12H46.68c-2.5,0-2.77.86-2.77,2.94,0,2.58.09,21.13.18,21.56.34,1.3,1.38,1.47,2.76,1.47H62.64c4,0,4.4,0,5.52-1.47,2.59-3.53,2.85-4,3.63-4,.94,0,7.85,5.78,7.85,6.55,0,1.12-2,1.12-4.58,1.12H17.77c-7.59,0-10.09.18-10.87.26-.34,0-1.55.18-1.9.18s-.43-.18-.68-.52l-1.73-2c-.35-.43-.35-.43-.35-.6s.09-.17.35-.17c.51,0,3.19.26,3.79.26,4.23.17,7.77.34,11.82.34H34.68c1.56,0,2.85,0,2.85-3.1v-20.8c0-1-.52-2.07-2.5-2.07H24.94c-7.6,0-10.1.17-10.88.17a14.34,14.34,0,0,1-1.81.26c-.35,0-.52-.26-.78-.6l-1.72-2c-.26-.34-.35-.43-.35-.51s.09-.26.35-.26c.6,0,3.19.26,3.8.34,4.22.18,7.76.26,11.82.26h9.57c2.59,0,2.59-1.29,2.59-2.67V120.71a2.16,2.16,0,0,0-2.5-2.25H20.79c-2.67,0-2.84.26-5,3.89-4.75,7.93-10.61,15-12,15-.35,0-.43-.26-.43-.52s1.38-2.76,2.15-4.14c9.49-17.52,11.13-28.65,11.39-30.37s.34-1.81.52-1.81,8.45,3.36,8.45,4.83c0,.69-2.76,2.59-3.1,3.1A33.17,33.17,0,0,0,20,115c0,1.12,1,1.12,2.15,1.12Z"/>
	<path class="cls-1" d="M12.25,214.92c3.62,0,4.92-.34,16.74-3.71,7.68-2.16,27.44-7.76,33.13-7.76,3.11,0,7,1.2,7,4.14,0,2.24-2.24,3.19-3.54,3.19-1.12,0-6-.95-7-.95-11,0-23.21,10.1-23.21,32.36,0,14.49,5.43,15.44,10.52,15.44,1.3,0,7.42-.52,8.2-.52,2.67,0,4.22,1.12,4.22,3.2,0,4.57-9.49,4.57-10,4.57-17.61,0-17.61-14.41-17.61-18.47,0-3.79.09-22.08,12.52-33.21a16.59,16.59,0,0,0,2.15-1.82c0-.17-.34-.17-.52-.17-5,0-22.86,7.59-25.71,9.23a6.52,6.52,0,0,1-2.93,1.13c-4.32,0-8.45-5.79-7.33-7C9.23,214.15,11.73,214.92,12.25,214.92ZM67.39,234a3.51,3.51,0,0,1-3,3.54c-1.55,0-2.32-1.64-3.71-5-.95-2.41-1.55-3.19-4.31-6.73a4.64,4.64,0,0,1-.86-1.55c0-.43,1-.52,1.72-.35C64.54,225.88,67.39,231.23,67.39,234Zm10.44-4.14c0,2.24-1.39,3.19-2.51,3.19-2.07,0-3-2.5-3.88-4.57a22.3,22.3,0,0,0-5.7-6.9c-.43-.35-.77-.69-.77-1.13s1-.51,1.2-.51a7.59,7.59,0,0,1,2.16.43C73.42,222,77.83,225.71,77.83,229.85Z"/>
	<path class="cls-1" d="M60.22,328.29c3.89,0,4.32,0,5.52-1.47,3.46-4.31,3.89-4.74,5-4.74.86,0,1.38,0,7.42,5.35,1.38,1.21,2.07,1.81,2.07,2.5,0,1.21-.52,1.21-4.75,1.21H16.14c-7.25,0-9.84.17-10.88.26-.26,0-1.55.17-1.81.17s-.52-.26-.78-.52L.86,328.64c-.08-.18-.43-.61-.43-.78s.26-.17.35-.17c.43,0,3.1.34,3.62.34,2.76.26,9.49.26,12,.26Z"/>
	<path class="cls-1" d="M25.37,460.47c-.95,0-2.16,0-2.51,1.47-.25,1.2-.95,3.71-4.91,3.71-2.25,0-2.25-1.21-2.25-1.9,0-.86.35-6.3.44-7.51.25-4.05.25-15.27.25-19.67,0-3.19,0-3.54-.77-3.54a21,21,0,0,0-2.42,1.21C4.66,438.9,1,439.5.6,439.5S0,439.24,0,439c0-.44.35-.61,2.93-2,8.89-4.92,19.93-15,24-20.71.43-.6,2.24-3.27,2.24-3.79,0-.69-.6-.78-2.15-.78H17.08c-2,0-7.85.09-10.87.26-.34,0-1.64.17-1.89.17s-.44-.17-.7-.51l-1.72-2c-.35-.34-.35-.43-.35-.6s.09-.18.26-.18c.61,0,3.28.26,3.88.35,3.89.17,7.77.26,11.82.26h2c1,0,1.64,0,1.64-.69,0-.26-2.42-9.32-4.75-10.79-.86-.6-1.47-.6-3.62-.77-3.54-.26-3.88-.26-3.88-.87s.26-.6,2.93-.95c9.06-1,27.52-3.1,43.31-7.42.78-.17,4.32-1.63,5.09-1.63,1.73,0,7.34,5.78,7.34,6.64,0,.34-.35.78-1.12.78-.35,0-1.9-.26-2.25-.26-.52,0-4,.17-4,.86,0,.34,2.07,1.81,2.33,2,1.9,1.21,2.16,1.47,2.16,2.33,0,.61-.09.61-2.33,1.56-2.41.95-10.27,8.62-10.27,8.8,0,.43.26.43,1.38.43h7.6c2.93,0,3.36,0,5-2.07s3.11-3.8,3.71-3.8c.78,0,8.8,6,8.8,7.16,0,1-2.59,1-5.09,1H46.76c-.69,0-1,.09-1,.52s9.75,15.62,32,18.89c3.19.52,3.71.61,3.71.95,0,.61-1,.78-1.73.95a9.73,9.73,0,0,0-6,4.49c-.43.86-.77,1.72-1.46,1.72-.43,0-1.73-.25-4.06-2.15-.86-.69-1-.78-1.29-.78-.7,0-1.56.86-1.81,1.21-1.56,1.55-1.56,2.93-1.56,6,0,2.85.43,15.1.43,17.6,0,1.47-.17,2-.94,2.5a8,8,0,0,1-4.06,1.47c-1.64,0-1.73-.61-2.07-3-.17-1.3-1.47-1.64-2.51-1.64Zm27.35-26.4a5.1,5.1,0,0,0,3.71-1c.51-.43,2.07-1.81,2.07-2.5,0-.35-.09-.43-1.21-1.38-5.52-4.92-8.8-7.77-12.43-13.89a20.55,20.55,0,0,0-1.55-2.5c-.34,0-.34.17-.34,1-.09,2.07.08,11.82.08,14.07a4,4,0,0,1-1.12,3.27,5.39,5.39,0,0,1-3.19,1.47c-2.24,0-2.24-1.64-2.24-2.5,0-2,.69-11.82.69-14.06,0-1.13,0-1.64-.61-1.64-.34,0-1.9,1.72-2.07,2-5.17,5.78-7.76,8.72-12.34,12.08-2,1.47-2.24,1.64-2.24,2s.26.52,2.16,2c1.72,1.29,2.15,1.64,4.74,1.64ZM34.94,409.48c1.38,0,2.16-.52,2.33-1.73.09-.34.09-1.29.09-9.75,0-.95-.26-1.72-1.38-1.72-.6,0-11.31.86-13.46,1-1.81.08-2,.08-2,.43,0,.08,1.63,1.2,2.15,1.64,1.81,1.29,4.14,3.45,4.14,7,0,.34-.26,2-.26,2.33,0,.86.44.86,2.07.86ZM25,436.31c-2.59,0-2.59,1.55-2.59,3.8,0,4.83,0,5.78,2.59,5.78h9.23c2.51,0,2.51-1.55,2.51-3.8,0-4.57,0-5.78-2.59-5.78Zm0,11.82c-2.5,0-2.5,1.21-2.5,5.18,0,3.79,0,4.92,2.59,4.92h9.06c2.5,0,2.59-1,2.59-6.13,0-2.42,0-4-2.51-4Zm20.19-11.82c-2.5,0-2.5,1.21-2.5,6.13,0,1.9,0,3.45,2.5,3.45h9.66c2.51,0,2.51-1.64,2.51-3.37,0-5.17-.18-6.21-2.59-6.21Zm9.49,21.92c2.5,0,2.68-.87,2.68-6,0-2.76,0-4.06-2.68-4.06H45.38c-2.58,0-2.58,1.38-2.58,3.37,0,6,0,6.73,2.67,6.73ZM47,409.48c1,0,2.16,0,3.45-2,1.81-2.93,5.44-9.23,5.44-12.08,0-.51-.17-.86-.78-.86-.43,0-3.88.35-7.42.69-4.05.35-4.48.43-4.74,1.12-.09.35-.09,6.82-.09,10.27,0,1.55.09,2.85,2.59,2.85Z"/>
	<path class="cls-1" d="M60,500.42c3.88,0,4.31,0,5.52-1.47,2.41-2.85,2.67-3.19,3.45-3.19.52,0,8.11,4.57,8.11,5.69,0,1.3-1.73,1.3-4.66,1.3H45.73c-2.25,0-2.25,1.64-2.25,4.4,0,3.62,0,5.17,2.25,5.17h4.05c3.45,0,4.14-.08,4.92-.69s3.28-4,4-4,7.51,4.23,7.51,5.44c0,1.55-1.9,1.55-4.83,1.55H45.73c-2.33,0-2.33,2-2.33,3.54,0,3.28,0,5,2.33,5H61.6c3.89,0,4.32,0,5.52-1.46,2.42-2.85,2.68-3.19,3.46-3.19.6,0,8.11,4.65,8.11,5.78s-1.73,1.2-4.66,1.2H16.57c-7.51,0-10,.18-10.88.26-.34,0-1.55.18-1.81.18s-.51-.26-.78-.52l-1.72-2.07c-.26-.43-.35-.43-.35-.52s.09-.26.35-.26c.6,0,3.19.26,3.8.35,4.22.17,7.76.25,11.82.25H35.38c2.24,0,2.24-1.46,2.24-5.17,0-1.56,0-3.37-2.24-3.37h-9c-7.51,0-10,.18-10.87.18a14.09,14.09,0,0,1-1.81.26c-.35,0-.52-.26-.78-.61l-1.64-2c-.34-.44-.34-.44-.34-.61s.08-.17.26-.17c.6,0,3.27.26,3.79.26,4.23.26,7.77.34,11.82.34h8.46c2.24,0,2.24-1.29,2.24-4.91,0-2.77,0-4.66-2.33-4.66H19.5c-7.6,0-10.1.17-11,.17a12.53,12.53,0,0,1-1.81.26c-.26,0-.52-.26-.78-.61l-1.63-2C4,500.16,4,500.16,4,500s.08-.18.26-.18c.6,0,3.27.26,3.79.26,4.23.17,7.85.35,11.91.35H43.75c3.1,0,6.81-7.34,6.81-12.51,0-2,0-2.68.86-2.68.43,0,5.18,1.9,6,2.24,1.81.7,3.11,1.21,3.11,2.59,0,1-1,1.12-1.82,1.21-1.63.26-2.06.61-6.12,4.14-.69.52-3.54,2.85-4.05,3.37s-.78.69-.78,1c0,.61.69.61,1.64.61ZM18.72,540.8c-7.59,0-10,.17-10.95.25-.27,0-1.56.18-1.82.18s-.43-.26-.77-.61l-1.64-2c-.35-.43-.35-.43-.35-.6s.09-.18.26-.18c.6,0,3.28.26,3.8.26,4.22.26,7.85.35,11.9.35H34.51c2.25,0,2.25-1.47,2.25-4a16.64,16.64,0,0,0-.44-4.92,10.67,10.67,0,0,1-.51-2.16c0-.6.77-.6,1.2-.6,1.12,0,7.85.6,7.85,2.59,0,.52-1,2.67-1.11,3.1-.09.61-.44,4.23-.44,4.49,0,.78.09,1.47,1.9,1.47H58.5c4.31,0,4.4,0,6.21-2,.69-.78,1.9-2.15,2.85-2.15,1.2,0,7.93,4.74,7.93,5.43,0,1-2.07,1-4.57,1H46.42c-1,0-1.56,0-1.56.6,0,1.21,13.38,14.06,33.83,14.06.43,0,2.33-.08,2.67-.08.17,0,.52,0,.52.17s-3,1.55-3.54,1.9c-1.64,1.12-5,3.54-6,5-.26.52-.69,1.12-1.12,1.12a53.12,53.12,0,0,1-22.09-13.8,47.37,47.37,0,0,1-5.43-6.56c-.26-.34-.61-1-1-1s-.43.26-1,1.81c-5.61,15.36-24.16,17-30.46,17-5.26,0-10-1-10-1.29,0-.09,3.88-.52,4.23-.52,23.12-2.42,30-13.72,30-17.17,0-1.29-.7-1.29-1.9-1.29Zm13.29-41c-1.3,0-1.73-.6-4.83-5.78a30.13,30.13,0,0,0-5.78-6.73c-.09-.17-.52-.52-.52-.86,0-.09.26-.17.34-.17a39.36,39.36,0,0,1,6.56,2.15c4.49,2,7.33,3.37,7.33,7.51C35.11,497.66,34.34,499.81,32,499.81Z"/>
	<path class="cls-1" d="M33.65,596.1c0,.86-1.47,4.14-1.64,4.83-1.21,4.4-3.62,23.47-3.62,30.72,0,8.71,1.64,16.47,13.2,16.47a42.49,42.49,0,0,0,18.11-4.48c1.3-.61,7.86-4.23,8.2-4.23a.4.4,0,0,1,.43.43c0,.95-12.76,14.84-29,14.84-11.21,0-16.56-6.47-16.56-23.81,0-5.35.17-7.08,2-24,.35-2.84,1.12-9.92,1.12-12.34a11,11,0,0,0-.77-4.22c-.09-.26-.95-2.25-.95-2.33,0-.61.69-.87,1.21-.87C29.85,587.12,33.65,594.11,33.65,596.1Z"/>
	<path class="cls-1" d="M41.76,687.73c2.07,0,10.61,4.4,10.61,7.59,0,2.33-23.12,24.67-23.12,28.38,0,1.47.69,2.77,2.59,4.75,7.67,8.37,19.41,21,19.41,27,0,2.85-1.9,4.06-3.71,4.06-2.68,0-3.19-1.64-5-6.73-2.67-7.59-12.07-19.07-14.32-21.83-2.67-3.28-3.36-4.57-3.36-6.38,0-2.33,1.12-4.92,7-12.26,8.54-10.69,11.73-15.18,11.73-18.37,0-1.81-.77-3.11-2.16-5-.25-.43-.43-.77-.25-1S41.5,687.73,41.76,687.73Z"/>
	<path class="cls-1" d="M78.34,792.3a9.55,9.55,0,0,1-9.66,9.49,9.44,9.44,0,0,1-9.49-9.67c0-6.55,5.69-9.49,9.57-9.49A9.74,9.74,0,0,1,78.34,792.3Zm-16.82-.09a7.22,7.22,0,0,0,7.24,7.16,7.05,7.05,0,0,0,7.17-7,7.25,7.25,0,0,0-7.34-7.33A7,7,0,0,0,61.52,792.21Z"/>
	<path class="cls-1" d="M174.43,15c1.65,0,2.85,0,3.89-.95.43-.43,2.5-3.1,3.28-3.1S188,14.67,188,16.31a10.71,10.71,0,0,1-1.64,2.41,6.68,6.68,0,0,0-1,4.23c0,8.63,0,18,.18,26.66,0,2.85.68,17.09.68,20.28,0,5.26-4.05,6-4.83,6-2.24,0-2.41-1.9-2.59-3.2C178.66,71,177.28,71,176.08,71H142.77c-1.9,0-2.85,0-3.1,2.33a4.71,4.71,0,0,1-4.58,4c-2.16,0-2.16-2.24-2.16-3.28,0-3.88.35-23,.35-27.26,0-2.24-.26-27.52-.35-28.82-.17-2.5-.34-3.88-.34-4.57s.09-1.12.95-1.12c.69,0,1.21.17,5.35,1.9a6.65,6.65,0,0,0,3.54.77h5c.86,0,2.16,0,2.85-.86,1.38-1.9,3.19-10.18,3.53-12S154.25,0,154.5,0C155,0,164,3.62,164,5.44c0,.94-.51,1-3.53,1.81-2.33.6-7.34,6.38-7.34,7.16,0,.6.52.6,1.73.6Zm-33,20.11A2.14,2.14,0,0,0,139,37.36v11.3c0,1.9,1.9,1.9,2.59,1.9H177.2c2.07,0,2.41-1.38,2.41-2.16V37.1c0-2-1.9-2-2.67-2Zm.17-17.78c-1.73,0-2.5.69-2.5,2.16V30.72c0,.77,0,2.15,2.41,2.15h35.38c.69,0,2.59,0,2.59-1.81V19.5c0-.69,0-2.16-2.59-2.16ZM177,68.68c1.73,0,2.59-.52,2.59-2.24V55c0-1.12-.51-2.07-2.41-2.07H141.65c-2.5,0-2.5.86-2.5,5.44,0,.43.08,8.45.08,9,.09,1,1.47,1.38,2.5,1.38Z"/>
	<path class="cls-1" d="M152.26,108.28c0,.86-.6,1-2.41,1.47-.87.26-2.42,2.76-4.32,5.86-10,16.49-23.72,23.9-25.62,23.9a.45.45,0,0,1-.52-.51c0-.52.17-.61,1.81-1.9,11.65-9.15,18.2-23.47,19.41-26.06.61-1.29,2.85-8.63,2.94-8.63C144.15,102.16,152.26,106.82,152.26,108.28Zm8.37,25.2c-2.24,0-2.24.17-2.76,4.74-.78,7.59-2.42,22.52-17.43,30.89A56.26,56.26,0,0,1,124,174.72c-.26,0-1,0-1-.61,0-.43.43-.6,2-1.12,6-2.16,12.86-6.21,17-10.44,6.38-6.47,9.75-18.2,9.75-27.18,0-1.89-.87-1.89-2.16-1.89h-2.59c-3.19,0-7.33.08-8.88.17a16.93,16.93,0,0,1-1.82.26c-.34,0-.51-.26-.77-.61l-1.73-2c-.26-.35-.35-.43-.35-.52s.09-.26.35-.26c.6,0,3.19.35,3.8.35,4.22.17,7.76.26,11.82.26h18.89c3.89,0,4.32-.18,5.7-1.64s2.07-1.9,2.67-1.9c1.38,0,6.39,4,6.39,5.78,0,.43-1.38,2-1.56,2.33-.43.86-.94,10.7-1.12,12.68-1,10.44-1.64,17.52-4.05,21.4-2.33,3.71-7.51,5.18-8.81,5.18-.94,0-.94-.26-1.63-2.68-.52-2-3.45-3.1-7.94-4.4-1.9-.52-2.85-.86-2.85-1.38s.78-.52.95-.52a32.88,32.88,0,0,1,3.37.61,51.32,51.32,0,0,0,6.12.69c4.14,0,6.47-.78,7.68-9.67.86-6.64,1.73-16.65,1.73-21,0-2.33-.18-3.1-2.59-3.1Zm4.31-27.79c-2.15,0-5.08.09-6.9.18-.26,0-1.47.17-1.72.17s-.35-.09-.7-.52l-1.63-2a.93.93,0,0,1-.26-.61c0-.08.08-.17.26-.17.51,0,3,.34,3.53.34.95.09,4.58.26,5.18.26a4.41,4.41,0,0,0,3.63-2.24c1.72-2.41,1.89-2.67,2.58-2.67,1.12,0,7.51,4.31,7.51,6.21,0,.86-.26,1-2.59,1.55-.43.09-1.72.52-1.72,1.81,0,4.49,11.39,18.21,26,19.67.26,0,1.29.18,1.29.7s-2.24.94-2.59,1a17.87,17.87,0,0,0-5.26,4c-.17.26-1.12,1.29-1.38,1.29-2.94,0-17.17-11.9-20.62-24.93-1-3.71-1.13-4.06-3.11-4.06Z"/>
	<path class="cls-1" d="M159.42,208.19c0,.26.17.6.17.95a65.27,65.27,0,0,1,.87,9.32c0,5.78-1.3,13.8-8.89,25.28-6.9,10.52-11.3,12.59-14.75,12.59-5.7,0-10.79-8.88-10.79-19.41,0-4.57,1-13.29,9.58-22,11-11.22,22.52-11.22,27.52-11.22,7.85,0,11.48,1.56,13.89,2.76,9.32,4.58,15,13.81,15,25.11a32.17,32.17,0,0,1-21.75,30.37,53,53,0,0,1-14.32,3.2c-.35,0-.86-.09-.86-.61,0-.26.17-.34,2.33-1.21,9-3.53,27.69-10.95,27.69-32.44,0-3.36-.34-23.9-23.89-23.9C159.51,207,159.42,207.67,159.42,208.19Zm-28,26.49c0,5.61,2.25,13.29,7.51,13.29,2.5,0,4.57-1,10.53-10,4.57-7,8.45-16.57,8.45-25.11,0-5.18-.35-5.61-1.47-5.61C148.2,207.24,131.38,218.37,131.38,234.68Z"/>
	<path class="cls-1" d="M168.14,344.34a4.25,4.25,0,0,0,2-.34c.43-.18,2.42-1.9,3-1.9,1.21,0,6.21,4.74,6.21,5.78a.94.94,0,0,1-.52.86c-.51.17-2.93.6-3.45.86s-5,4.32-5.95,5.09c-.69.52-2.42,1.9-2.42,2.42,0,1.64,12.34,4,20.37,4,1.72,0,5-.17,7-.26.34,0,2.15-.35,2.5-.35s.52.09.52.35c0,.43-.78.6-1,.69a13,13,0,0,0-6.47,4c-1.73,2.16-2,2.41-2.85,2.41-4.31,0-13.54-2-18.37-4.05-1-.43-5.79-2.93-6.82-2.93a4.81,4.81,0,0,0-2.33.86,57.06,57.06,0,0,1-22.18,6.64c-.17,0-.86,0-.86-.34s.26-.43,1.81-.86c3.28-.87,8.55-3.2,14.5-6.39,3.79-2.07,4.23-2.33,4.23-3.37,0-.51-.35-.77-.52-1-.69-.6-3.89-3.63-4.57-4.31-2.85-3.2-3.11-3.54-3.72-3.54-.86,0-6.47,5.43-7.67,6.47-6.56,5.26-16.91,10.7-18.47,10.7-.25,0-.52-.09-.52-.26,0-.43,1.3-1.47,2.34-2.07a72.26,72.26,0,0,0,8.8-6.39c11.64-9.66,15-16.39,15-16.91,0-.77-.86-.77-1.73-.77H135.35c-2.5,0-6.73,0-10.18.26-.26,0-2.33.17-2.5.17-.35,0-.52-.17-.78-.52l-1.64-2c-.34-.43-.43-.43-.43-.6s.17-.17.34-.17c.52,0,3.2.26,3.8.26,2.5.17,6.9.34,11.82.34h11.13c1,0,2.68,0,3.37-1.29a10.24,10.24,0,0,0,1-3.45c0-.26-.17-1.47-.17-1.81s0-.61.6-.61a35.92,35.92,0,0,1,3.45,1.38c3.63,1.21,4,1.3,4,2,0,.34-1.64,1.12-1.89,1.38a2.49,2.49,0,0,0-1,1.72c0,.69.25.69,1.72.69h23.47a15.6,15.6,0,0,0,4.14-.26c.87-.43,3.8-4.4,4.83-4.4.52,0,8,4.58,8,5.78s-1.73,1.13-4.57,1.13H157.61a4.51,4.51,0,0,0-3,.69c-.6.43-2.33,2.76-2.33,3.53s.52.78,1.47.78ZM153.9,316.73a3.47,3.47,0,0,0,2.33-.52c.52-.43,2.93-3.1,3.36-3.1s5.79,3.45,5.79,4.66-.69,1.29-5.27,1.29H138.89c-.09,0-.35,0-.35.09s1.38,1.38,1.38,1.72-.17.52-1.81,1.12c-.69.26-3.54,4.14-3.54,4.92,0,.61.69.61,1.21.61,1.47,0,11.82-1.73,14-2,.34-.09,1-.09,1-.69s-2-1.9-3.88-3c-.26-.17-1.81-.69-1.81-1,0-.61.86-.61,1.29-.61,2.85,0,12.17,2.5,12.17,7.16a2.5,2.5,0,0,1-2.33,2.76c-.86,0-1.12-.26-2.76-2.5a1.75,1.75,0,0,0-1.55-.77c-1.13,0-22,5.78-22.35,5.95s-1.81,1.55-2.24,1.55c-.61,0-1-.86-1.12-1.21-.27-.69-2.33-4-2.33-4.83,0-.52.25-.69.68-.69.27,0,4.67.26,5.53.26,1.55,0,2.16-.52,2.5-1.64a24.16,24.16,0,0,0,1.21-5.52c0-1.12-.44-1.64-1.55-1.64-1.47,0-5.79.09-7.17.26-.17,0-1,.17-1.12.17-.34,0-.52-.26-.78-.6l-1.72-2c-.26-.34-.35-.43-.35-.6s.18-.17.35-.17c1.29,0,8,.51,9.49.51,1.64,0,1.64-.34,1.64-5.35,0-2.41-.17-14.23-.17-17,0-.78.08-1,.34-1a13.41,13.41,0,0,1,2.85,1.55,6.15,6.15,0,0,0,3.54.7h9.23c2.85,0,3.19,0,3.62-.26a35.74,35.74,0,0,1,3.62-2.76c.27,0,5.7,3.19,5.7,4.22s-.95,1.12-3.11,1.12H139.67c-1.21,0-2.07.09-2.07,2.08s.51,2.24,2.15,2.24h6.56c2.5,0,2.76,0,3.28-.43s2.33-2.76,2.93-2.76c.43,0,5,3.36,5,4.31,0,1.12-1,1.12-2.67,1.12H139.32c-1.55,0-1.81.78-1.81,2.42,0,1.38.09,2.33,1.89,2.33h6.3a13.87,13.87,0,0,0,2.94-.17c.6-.26,2.67-3,3.36-3,.35,0,5,3.46,5,4.32,0,1.12-1.12,1.12-2.76,1.12H139.49c-.77,0-1.89,0-1.89,1.73,0,2.93,0,3.62,1.89,3.62Zm-1.38,29.85c-.78,0-1.64,0-1.64.69,0,1,8.54,7.6,10.44,7.6s8.11-6.13,8.11-7.6c0-.69-.52-.69-1.12-.69Zm40.81-32.52c.61.51,4.66,3.71,4.66,4,0,.52-.78.61-1.47.69-1.47.18-7.42,3.2-8.62,3.71a117.88,117.88,0,0,1-23.56,7.17c-.17,0-.43-.09-.43-.35s1.21-.6,1.64-.77c1.38-.44,22.6-9.5,25-14.16.08-.17.43-1.38.52-1.46C191.43,312.59,191.69,312.76,193.33,314.06Zm-9.75-22.7c.09,0,5.18,4.15,5.18,4.58,0,.69-.61.77-1.9.95-.52,0-8.11,3.36-9.66,4a106,106,0,0,1-12.08,3.62c-.18,0-.35,0-.35-.17s3.54-2.25,4.23-2.59c11.21-6,12.86-8.37,13.8-9.84C183.06,291.54,183.23,291.36,183.58,291.36Zm4.14,11.13c.61,0,5.78,3.37,5.78,4.15s-.26.69-2.33,1c-.25,0-19.41,7.51-23.29,7.51-.17,0-.35,0-.35-.17s.95-.7,1.47-.95c7-3.37,16.39-8.12,18.2-11.31A.53.53,0,0,1,187.72,302.49Z"/>
	<path class="cls-1" d="M132.85,432.69c0-2.59,2.41-5.35,8.28-12.17,3.89-4.48,7.34-11.64,7.34-12.85,0-.52-.61-.61-.95-.61-.87,0-4.4.69-5.18.69-3.28,0-7.68-4.22-7.68-7.59,0-.26,0-.6.52-.6a19.31,19.31,0,0,1,3.28,1.64,13.79,13.79,0,0,0,5.69,1.55c7.08,0,7.08-2.33,7.08-4.06a7,7,0,0,0-.69-3c-.26-.43-2.07-2-2.07-2.5,0-.69,2.24-1.38,3.79-1.38,2.07,0,4.23.78,4.4,2.68.09,1.12.43,1.29,3.88,1.55.61,0,3.89.43,3.89,2.24,0,2.85-6.3,5.27-10.27,6.82-1.29.52-1.38.69-3.28,5.09a66.28,66.28,0,0,1-4.66,9.32c-.43.77-.6,1-.6,1.38a.31.31,0,0,0,.34.34,16.85,16.85,0,0,0,2.68-.95,8.08,8.08,0,0,1,3.36-.69c1.12,0,5.09.18,7.34,5.27.6,1.46.68,1.64.86,1.64a40.25,40.25,0,0,0,3.54-4.66c2.84-4,8.45-11.82,16-11.82a8.13,8.13,0,0,1,8.11,7.68c0,4.05-6.82,6.9-12.17,9.23-2.15.95-11.9,4.83-13.46,5.78-1.38.86-1.46,1.81-1.46,3.62,0,.78.17,4.4.17,5.18,0,1.38,0,6.3-3.19,6.3-2.33,0-2.68-2.85-2.68-4.4,0-.87.26-5,.26-5.09,0-.35,0-1-.6-1s-8.37,5.35-8.37,10.27c0,6,8.63,6,11.13,6A26.35,26.35,0,0,0,163,453c1.21-.17,6.73-1.55,7.85-1.55,1.81,0,4.23.86,4.23,2.94,0,5.34-13.37,5.69-15.45,5.69-11,0-16.73-4.49-16.73-11.3,0-5.52,3.27-8.29,11.39-14.84a3.69,3.69,0,0,0,1.29-3c0-3.89-.69-8.72-4.14-8.72-3.28,0-8.37,4-10.62,9.15-.94,2.16-1.89,4.23-4.65,4.23C134.49,435.54,132.85,435,132.85,432.69Zm22-32.61c.17,0,4.31-1.13,4.31-2.08,0-1.12-2.15-1.29-2.93-1.29-1.21,0-1.55,2.42-1.55,2.76S154.68,400.08,154.85,400.08ZM162.7,428c0,.17.09.43.35.43s17.25-6.9,17.25-12.6c0-2.15-1.9-2.59-3-2.59C170.12,413.27,162.7,426.65,162.7,428Z"/>
	<path class="cls-1" d="M193.68,501.62c-1.73,0-2.08-.6-4.92-5.78a24.41,24.41,0,0,0-9.06-9.23c-.26-.17-1.21-.69-1.21-1s.26-.61.95-.61c3,0,17.69,4.49,17.69,12.6C197.13,499.64,195.4,501.62,193.68,501.62Z"/>
	<path class="cls-1" d="M41.93,9.15s1,20.7,12.51,39.51C55.91,51,65.66,66.78,78.94,70.23c.27.09.87.26.87.61s-.26.43-3,1a17.19,17.19,0,0,0-6,2.59c-1.64,1.21-1.9,1.47-2.16,1.47S57.38,69.11,49,50.82a93,93,0,0,1-8.29-33.39c-.08-.95-.08-1-.43-1-.51,0-.51.35-.86,3.46-.26,2.76-2.5,22.86-11,36.92C19.15,72.13,4.05,77.31,3.28,77.31c-.26,0-.52-.09-.52-.43s.43-.61,1.12-1c5-3.36,14.67-11,20.45-22.17C34.17,35,34.17,10.27,34.17,9.32a23.31,23.31,0,0,0-.35-5.26,11.75,11.75,0,0,1-.34-1.73.74.74,0,0,1,.69-.69c.51,0,4.22,1.21,5,1.38C43.31,4.14,45,4.66,45,6.21c0,1-.69,1.21-1.47,1.39s-1.12.17-1.38.51A1.69,1.69,0,0,0,41.93,9.15Z"/>
	<path class="cls-1" d="M34.94,116.13c2.68,0,2.68-1,2.68-5.35a76.87,76.87,0,0,0-.52-10.09c-.09-.43-.69-2.33-.69-2.76s.35-.61,1-.61,9.32.87,9.32,3c0,.52-1.82,2.16-2.07,2.59-.61,1.3-.78,8.11-.78,9.92,0,2.25.08,3.28,2.76,3.28H57.72c4,0,4.4,0,5.52-1.46,2.59-3.54,2.85-3.89,3.63-3.89.95,0,7.85,5.78,7.85,6.56,0,1.12-2,1.12-4.58,1.12H46.5c-.94,0-2.15,0-2.59,1.47-.16.69-.16,14.15-.16,16.65,0,2.68.16,3.71,2.84,3.71h8.54c4.06,0,4.49,0,5.52-1.47,2.68-3.53,2.94-3.88,3.71-3.88,1,0,7.86,5.78,7.86,6.56,0,1.12-2,1.12-4.66,1.12H46.68c-2.5,0-2.77.86-2.77,2.94,0,2.58.09,21.13.18,21.56.34,1.3,1.38,1.47,2.76,1.47H62.64c4,0,4.4,0,5.52-1.47,2.59-3.53,2.85-4,3.63-4,.94,0,7.85,5.78,7.85,6.55,0,1.12-2,1.12-4.58,1.12H17.77c-7.59,0-10.09.18-10.87.26-.34,0-1.55.18-1.9.18s-.43-.18-.68-.52l-1.73-2c-.35-.43-.35-.43-.35-.6s.09-.17.35-.17c.51,0,3.19.26,3.79.26,4.23.17,7.77.34,11.82.34H34.68c1.56,0,2.85,0,2.85-3.1v-20.8c0-1-.52-2.07-2.5-2.07H24.94c-7.6,0-10.1.17-10.88.17a14.34,14.34,0,0,1-1.81.26c-.35,0-.52-.26-.78-.6l-1.72-2c-.26-.34-.35-.43-.35-.51s.09-.26.35-.26c.6,0,3.19.26,3.8.34,4.22.18,7.76.26,11.82.26h9.57c2.59,0,2.59-1.29,2.59-2.67V120.71a2.16,2.16,0,0,0-2.5-2.25H20.79c-2.67,0-2.84.26-5,3.89-4.75,7.93-10.61,15-12,15-.35,0-.43-.26-.43-.52s1.38-2.76,2.15-4.14c9.49-17.52,11.13-28.65,11.39-30.37s.34-1.81.52-1.81,8.45,3.36,8.45,4.83c0,.69-2.76,2.59-3.1,3.1A33.17,33.17,0,0,0,20,115c0,1.12,1,1.12,2.15,1.12Z"/>
	<path class="cls-1" d="M12.25,214.92c3.62,0,4.92-.34,16.74-3.71,7.68-2.16,27.44-7.76,33.13-7.76,3.11,0,7,1.2,7,4.14,0,2.24-2.24,3.19-3.54,3.19-1.12,0-6-.95-7-.95-11,0-23.21,10.1-23.21,32.36,0,14.49,5.43,15.44,10.52,15.44,1.3,0,7.42-.52,8.2-.52,2.67,0,4.22,1.12,4.22,3.2,0,4.57-9.49,4.57-10,4.57-17.61,0-17.61-14.41-17.61-18.47,0-3.79.09-22.08,12.52-33.21a16.59,16.59,0,0,0,2.15-1.82c0-.17-.34-.17-.52-.17-5,0-22.86,7.59-25.71,9.23a6.52,6.52,0,0,1-2.93,1.13c-4.32,0-8.45-5.79-7.33-7C9.23,214.15,11.73,214.92,12.25,214.92ZM67.39,234a3.51,3.51,0,0,1-3,3.54c-1.55,0-2.32-1.64-3.71-5-.95-2.41-1.55-3.19-4.31-6.73a4.64,4.64,0,0,1-.86-1.55c0-.43,1-.52,1.72-.35C64.54,225.88,67.39,231.23,67.39,234Zm10.44-4.14c0,2.24-1.39,3.19-2.51,3.19-2.07,0-3-2.5-3.88-4.57a22.3,22.3,0,0,0-5.7-6.9c-.43-.35-.77-.69-.77-1.13s1-.51,1.2-.51a7.59,7.59,0,0,1,2.16.43C73.42,222,77.83,225.71,77.83,229.85Z"/>
	<path class="cls-1" d="M60.22,328.29c3.89,0,4.32,0,5.52-1.47,3.46-4.31,3.89-4.74,5-4.74.86,0,1.38,0,7.42,5.35,1.38,1.21,2.07,1.81,2.07,2.5,0,1.21-.52,1.21-4.75,1.21H16.14c-7.25,0-9.84.17-10.88.26-.26,0-1.55.17-1.81.17s-.52-.26-.78-.52L.86,328.64c-.08-.18-.43-.61-.43-.78s.26-.17.35-.17c.43,0,3.1.34,3.62.34,2.76.26,9.49.26,12,.26Z"/>
	<path class="cls-1" d="M25.37,460.47c-.95,0-2.16,0-2.51,1.47-.25,1.2-.95,3.71-4.91,3.71-2.25,0-2.25-1.21-2.25-1.9,0-.86.35-6.3.44-7.51.25-4.05.25-15.27.25-19.67,0-3.19,0-3.54-.77-3.54a21,21,0,0,0-2.42,1.21C4.66,438.9,1,439.5.6,439.5S0,439.24,0,439c0-.44.35-.61,2.93-2,8.89-4.92,19.93-15,24-20.71.43-.6,2.24-3.27,2.24-3.79,0-.69-.6-.78-2.15-.78H17.08c-2,0-7.85.09-10.87.26-.34,0-1.64.17-1.89.17s-.44-.17-.7-.51l-1.72-2c-.35-.34-.35-.43-.35-.6s.09-.18.26-.18c.61,0,3.28.26,3.88.35,3.89.17,7.77.26,11.82.26h2c1,0,1.64,0,1.64-.69,0-.26-2.42-9.32-4.75-10.79-.86-.6-1.47-.6-3.62-.77-3.54-.26-3.88-.26-3.88-.87s.26-.6,2.93-.95c9.06-1,27.52-3.1,43.31-7.42.78-.17,4.32-1.63,5.09-1.63,1.73,0,7.34,5.78,7.34,6.64,0,.34-.35.78-1.12.78-.35,0-1.9-.26-2.25-.26-.52,0-4,.17-4,.86,0,.34,2.07,1.81,2.33,2,1.9,1.21,2.16,1.47,2.16,2.33,0,.61-.09.61-2.33,1.56-2.41.95-10.27,8.62-10.27,8.8,0,.43.26.43,1.38.43h7.6c2.93,0,3.36,0,5-2.07s3.11-3.8,3.71-3.8c.78,0,8.8,6,8.8,7.16,0,1-2.59,1-5.09,1H46.76c-.69,0-1,.09-1,.52s9.75,15.62,32,18.89c3.19.52,3.71.61,3.71.95,0,.61-1,.78-1.73.95a9.73,9.73,0,0,0-6,4.49c-.43.86-.77,1.72-1.46,1.72-.43,0-1.73-.25-4.06-2.15-.86-.69-1-.78-1.29-.78-.7,0-1.56.86-1.81,1.21-1.56,1.55-1.56,2.93-1.56,6,0,2.85.43,15.1.43,17.6,0,1.47-.17,2-.94,2.5a8,8,0,0,1-4.06,1.47c-1.64,0-1.73-.61-2.07-3-.17-1.3-1.47-1.64-2.51-1.64Zm27.35-26.4a5.1,5.1,0,0,0,3.71-1c.51-.43,2.07-1.81,2.07-2.5,0-.35-.09-.43-1.21-1.38-5.52-4.92-8.8-7.77-12.43-13.89a20.55,20.55,0,0,0-1.55-2.5c-.34,0-.34.17-.34,1-.09,2.07.08,11.82.08,14.07a4,4,0,0,1-1.12,3.27,5.39,5.39,0,0,1-3.19,1.47c-2.24,0-2.24-1.64-2.24-2.5,0-2,.69-11.82.69-14.06,0-1.13,0-1.64-.61-1.64-.34,0-1.9,1.72-2.07,2-5.17,5.78-7.76,8.72-12.34,12.08-2,1.47-2.24,1.64-2.24,2s.26.52,2.16,2c1.72,1.29,2.15,1.64,4.74,1.64ZM34.94,409.48c1.38,0,2.16-.52,2.33-1.73.09-.34.09-1.29.09-9.75,0-.95-.26-1.72-1.38-1.72-.6,0-11.31.86-13.46,1-1.81.08-2,.08-2,.43,0,.08,1.63,1.2,2.15,1.64,1.81,1.29,4.14,3.45,4.14,7,0,.34-.26,2-.26,2.33,0,.86.44.86,2.07.86ZM25,436.31c-2.59,0-2.59,1.55-2.59,3.8,0,4.83,0,5.78,2.59,5.78h9.23c2.51,0,2.51-1.55,2.51-3.8,0-4.57,0-5.78-2.59-5.78Zm0,11.82c-2.5,0-2.5,1.21-2.5,5.18,0,3.79,0,4.92,2.59,4.92h9.06c2.5,0,2.59-1,2.59-6.13,0-2.42,0-4-2.51-4Zm20.19-11.82c-2.5,0-2.5,1.21-2.5,6.13,0,1.9,0,3.45,2.5,3.45h9.66c2.51,0,2.51-1.64,2.51-3.37,0-5.17-.18-6.21-2.59-6.21Zm9.49,21.92c2.5,0,2.68-.87,2.68-6,0-2.76,0-4.06-2.68-4.06H45.38c-2.58,0-2.58,1.38-2.58,3.37,0,6,0,6.73,2.67,6.73ZM47,409.48c1,0,2.16,0,3.45-2,1.81-2.93,5.44-9.23,5.44-12.08,0-.51-.17-.86-.78-.86-.43,0-3.88.35-7.42.69-4.05.35-4.48.43-4.74,1.12-.09.35-.09,6.82-.09,10.27,0,1.55.09,2.85,2.59,2.85Z"/>
	<path class="cls-1" d="M60,500.42c3.88,0,4.31,0,5.52-1.47,2.41-2.85,2.67-3.19,3.45-3.19.52,0,8.11,4.57,8.11,5.69,0,1.3-1.73,1.3-4.66,1.3H45.73c-2.25,0-2.25,1.64-2.25,4.4,0,3.62,0,5.17,2.25,5.17h4.05c3.45,0,4.14-.08,4.92-.69s3.28-4,4-4,7.51,4.23,7.51,5.44c0,1.55-1.9,1.55-4.83,1.55H45.73c-2.33,0-2.33,2-2.33,3.54,0,3.28,0,5,2.33,5H61.6c3.89,0,4.32,0,5.52-1.46,2.42-2.85,2.68-3.19,3.46-3.19.6,0,8.11,4.65,8.11,5.78s-1.73,1.2-4.66,1.2H16.57c-7.51,0-10,.18-10.88.26-.34,0-1.55.18-1.81.18s-.51-.26-.78-.52l-1.72-2.07c-.26-.43-.35-.43-.35-.52s.09-.26.35-.26c.6,0,3.19.26,3.8.35,4.22.17,7.76.25,11.82.25H35.38c2.24,0,2.24-1.46,2.24-5.17,0-1.56,0-3.37-2.24-3.37h-9c-7.51,0-10,.18-10.87.18a14.09,14.09,0,0,1-1.81.26c-.35,0-.52-.26-.78-.61l-1.64-2c-.34-.44-.34-.44-.34-.61s.08-.17.26-.17c.6,0,3.27.26,3.79.26,4.23.26,7.77.34,11.82.34h8.46c2.24,0,2.24-1.29,2.24-4.91,0-2.77,0-4.66-2.33-4.66H19.5c-7.6,0-10.1.17-11,.17a12.53,12.53,0,0,1-1.81.26c-.26,0-.52-.26-.78-.61l-1.63-2C4,500.16,4,500.16,4,500s.08-.18.26-.18c.6,0,3.27.26,3.79.26,4.23.17,7.85.35,11.91.35H43.75c3.1,0,6.81-7.34,6.81-12.51,0-2,0-2.68.86-2.68.43,0,5.18,1.9,6,2.24,1.81.7,3.11,1.21,3.11,2.59,0,1-1,1.12-1.82,1.21-1.63.26-2.06.61-6.12,4.14-.69.52-3.54,2.85-4.05,3.37s-.78.69-.78,1c0,.61.69.61,1.64.61ZM18.72,540.8c-7.59,0-10,.17-10.95.25-.27,0-1.56.18-1.82.18s-.43-.26-.77-.61l-1.64-2c-.35-.43-.35-.43-.35-.6s.09-.18.26-.18c.6,0,3.28.26,3.8.26,4.22.26,7.85.35,11.9.35H34.51c2.25,0,2.25-1.47,2.25-4a16.64,16.64,0,0,0-.44-4.92,10.67,10.67,0,0,1-.51-2.16c0-.6.77-.6,1.2-.6,1.12,0,7.85.6,7.85,2.59,0,.52-1,2.67-1.11,3.1-.09.61-.44,4.23-.44,4.49,0,.78.09,1.47,1.9,1.47H58.5c4.31,0,4.4,0,6.21-2,.69-.78,1.9-2.15,2.85-2.15,1.2,0,7.93,4.74,7.93,5.43,0,1-2.07,1-4.57,1H46.42c-1,0-1.56,0-1.56.6,0,1.21,13.38,14.06,33.83,14.06.43,0,2.33-.08,2.67-.08.17,0,.52,0,.52.17s-3,1.55-3.54,1.9c-1.64,1.12-5,3.54-6,5-.26.52-.69,1.12-1.12,1.12a53.12,53.12,0,0,1-22.09-13.8,47.37,47.37,0,0,1-5.43-6.56c-.26-.34-.61-1-1-1s-.43.26-1,1.81c-5.61,15.36-24.16,17-30.46,17-5.26,0-10-1-10-1.29,0-.09,3.88-.52,4.23-.52,23.12-2.42,30-13.72,30-17.17,0-1.29-.7-1.29-1.9-1.29Zm13.29-41c-1.3,0-1.73-.6-4.83-5.78a30.13,30.13,0,0,0-5.78-6.73c-.09-.17-.52-.52-.52-.86,0-.09.26-.17.34-.17a39.36,39.36,0,0,1,6.56,2.15c4.49,2,7.33,3.37,7.33,7.51C35.11,497.66,34.34,499.81,32,499.81Z"/>
	<path class="cls-1" d="M33.65,596.1c0,.86-1.47,4.14-1.64,4.83-1.21,4.4-3.62,23.47-3.62,30.72,0,8.71,1.64,16.47,13.2,16.47a42.49,42.49,0,0,0,18.11-4.48c1.3-.61,7.86-4.23,8.2-4.23a.4.4,0,0,1,.43.43c0,.95-12.76,14.84-29,14.84-11.21,0-16.56-6.47-16.56-23.81,0-5.35.17-7.08,2-24,.35-2.84,1.12-9.92,1.12-12.34a11,11,0,0,0-.77-4.22c-.09-.26-.95-2.25-.95-2.33,0-.61.69-.87,1.21-.87C29.85,587.12,33.65,594.11,33.65,596.1Z"/>
	<path class="cls-1" d="M41.76,687.73c2.07,0,10.61,4.4,10.61,7.59,0,2.33-23.12,24.67-23.12,28.38,0,1.47.69,2.77,2.59,4.75,7.67,8.37,19.41,21,19.41,27,0,2.85-1.9,4.06-3.71,4.06-2.68,0-3.19-1.64-5-6.73-2.67-7.59-12.07-19.07-14.32-21.83-2.67-3.28-3.36-4.57-3.36-6.38,0-2.33,1.12-4.92,7-12.26,8.54-10.69,11.73-15.18,11.73-18.37,0-1.81-.77-3.11-2.16-5-.25-.43-.43-.77-.25-1S41.5,687.73,41.76,687.73Z"/>
	<path class="cls-1" d="M78.34,792.3a9.55,9.55,0,0,1-9.66,9.49,9.44,9.44,0,0,1-9.49-9.67c0-6.55,5.69-9.49,9.57-9.49A9.74,9.74,0,0,1,78.34,792.3Zm-16.82-.09a7.22,7.22,0,0,0,7.24,7.16,7.05,7.05,0,0,0,7.17-7,7.25,7.25,0,0,0-7.34-7.33A7,7,0,0,0,61.52,792.21Z"/>
</svg>