<?xml version="1.0" encoding="utf-8"?>
<!-- Generator: Adobe Illustrator 25.0.0, SVG Export Plug-In . SVG Version: 6.00 Build 0)  -->
<svg version="1.1" id="レイヤー_1" xmlns="http://www.w3.org/2000/svg" xmlns:xlink="http://www.w3.org/1999/xlink" x="0px"
	 y="0px" viewBox="0 0 906 569" style="enable-background:new 0 0 906 569;" xml:space="preserve">
<style type="text/css">
	.st0{opacity:0.3;}
	.st1{fill:#9D1B5B;}
	.st2{fill:#FFFFFF;}
	.st3{fill:#231815;}
</style>
<g id="man_txt">
	<g class="st0">
		<path class="st1" d="M287.8,136.1l-67.9,231.5L242.3,127c-121.8-11.4-229.7,78.1-241,199.9s78.1,229.7,199.8,241
			s229.6-78.1,241-199.9C452,262,385.5,166.5,287.8,136.1z"/>
	</g>
	<g>
		<g>
			<path class="st2" d="M625.4,338.3c-32.6,0-59.6-10.7-74.3-29.5c-8.3-10.6-16.7-29.1-9.5-57.1c10.1-40.2,42.3-61.9,87.5-84.3
				l-9.2-4.7h3.7c-5.5-4-11-8.8-15.7-14.4c-14.6-17.1-19-37.7-13.1-61c5.8-23.1,21.4-44.8,43.9-60.9c22.1-15.9,48.2-24.7,73.7-24.8
				c0.2,0,0.4,0,0.7,0c26.3,0,48.8,9.4,61.8,25.9c11,14.1,14.4,32.4,9.5,51.7c-9.1,36.2-39.8,58.9-64.1,73.7
				c23.1,15.5,50.9,41.6,39,88.9c-6.7,26.3-23.2,50.4-46.7,68c-24.6,18.5-54.4,28.3-86.2,28.5l0,0
				C626,338.3,625.7,338.3,625.4,338.3z M661.5,184c-26.2,15-59.3,35.7-68.2,71.1c-3.9,15.3-2.3,28,4.6,36.8
				c6.9,8.8,19.4,13.7,35.1,13.6c31.1-0.2,69.3-20.8,78.8-58.6C718.9,218.3,702,205.1,661.5,184z M705.7,33.9
				C684.2,34,650.1,48.7,642,80.8c-4,15.7,0.7,23.2,11.2,32.4l0.1,0.1c8.7,7.7,21.7,15.7,36.1,22.3c14.7-9.2,42.4-28.6,49.5-56.7
				c3.2-12.8,1.3-25.4-5.2-33.7c-5.9-7.5-15.2-11.3-27.6-11.3C706,33.9,705.9,33.9,705.7,33.9L705.7,33.9z"/>
			<path class="st2" d="M394.6,339.7c-20.5,0-36.7-6.3-45.6-17.7c-6.7-8.5-8.8-19.3-6-30.4c4.4-17.4,17-27.4,34.6-27.5
				c0.1,0,0.2,0,0.3,0c12.3,0,18.9,5.1,22.3,9.4c5.8,7.4,6,17.5,4.2,24.4c-1.3,5-1.5,7.4-1.4,8.5c0.6,0.2,1.8,0.5,3.9,0.4
				c12.6-0.1,25.7-7.4,33.1-13.6l0.1-0.1c33.6-27.7,52-66.4,64-100.8c-19.6,16.8-41.7,29.7-70.7,29.9c-22.2,0.1-40.3-8-52.5-23.6
				c-15.3-19.5-19.3-49.3-11.1-81.8c7.9-31.1,25.5-60,49.8-81.4c23.9-21,51.6-32.7,78-32.9c0.2,0,0.3,0,0.5,0
				c23.8,0,44.8,10.1,59.3,28.6c22.3,28.5,27.2,73.4,13.7,126.6c-10.8,42.8-33.5,86.5-62.4,120.1c-34.5,40.1-73.7,61.4-113.5,61.7
				l0,0C395,339.7,394.8,339.7,394.6,339.7z M495.4,36.4c-0.3,0-0.5,0-0.8,0c-37.4,0.2-62.3,46.3-72.3,85.7
				c-6.2,24.6-5.6,44.1,1.8,53.6c4.3,5.4,11.2,8,21.2,8c26.1-0.2,52.3-20.1,77.9-59.3c4.9-34.8,4.6-51.3-1-67.2
				C515.6,38.6,508.9,36.4,495.4,36.4z"/>
			<path class="st2" d="M773.7,323.2l-21.5-13.4l46.6-49.3c-1.8,0.3-3.5,0.4-5.2,0.4l0,0c-0.1,0-0.1,0-0.2,0
				c-10,0-19.3-4.4-25.3-12.2c-7-9-9.2-21.3-6.1-33.9c5.7-22.7,27.5-41.4,48.5-41.6c0.1,0,0.1,0,0.2,0c10,0,19.1,4.4,25.2,12.2
				c6,7.6,8.5,17.7,7.1,28.3l41.3-43.7l21.5,13.4l-46.6,49.3c1.7-0.3,3.5-0.4,5.2-0.4c0.1,0,0.1,0,0.2,0c10,0,19.3,4.4,25.3,12.2
				c7,8.9,9.2,21.3,6,33.9c-5.6,22.4-27.9,41.4-48.5,41.5l0,0c-0.1,0-0.1,0-0.2,0c-9.9,0-19.1-4.4-25.1-12.1
				c-6-7.6-8.5-17.7-7.2-28.2L773.7,323.2z M863.5,256.3c-5.4,0-13.8,9.2-17.1,22.4c-1.9,7.6-1.2,14.5,0.6,16.8
				c0.2,0.3,0.4,0.5,1.4,0.5c5.4,0,13.8-9.2,17.1-22.4c1.9-7.5,1.2-14.6-0.5-16.8C864.7,256.6,864.6,256.3,863.5,256.3L863.5,256.3
				L863.5,256.3z M809.6,197.3c-5.6,0-13.8,9-17.1,22.4c-1.9,7.5-1.2,14.4,0.5,16.6c0.2,0.2,0.4,0.5,1.5,0.5
				c6.7,0,14.3-11.7,16.9-22.2c1.9-7.6,1.2-14.6-0.5-16.8C810.8,197.5,810.6,197.3,809.6,197.3L809.6,197.3z"/>
		</g>
		<g>
			<path class="st1" d="M395.1,329.7c-31.6,0.2-47.4-15.8-42.4-35.6c3.6-14.5,13.7-19.9,24.9-20c19.9-0.1,18.3,16.4,17.1,21.3
				c-2.5,9.9-4.5,21.5,12.3,21.4c14.3-0.1,29.6-7.6,39.5-15.9c47.5-39,65.7-97.7,78.8-142.8c-27.3,27.8-52.5,53.9-91.9,54.2
				c-46.8,0.3-66.9-41.2-53.9-92.9C395,58,449.1,13.1,497.6,12.8c50.6-0.3,87,51,63.8,142.7C541.8,233.2,475.6,329.3,395.1,329.7z
				 M531.7,53.8c-8.7-23.9-19.8-27.5-37.2-27.4c-47.2,0.3-73,58.2-81.9,93.3c-5.6,22.3-14.4,74.3,32.7,74
				c44.6-0.3,76.8-49.1,87.5-65.7C538,92.6,538.5,73.2,531.7,53.8z"/>
			<path class="st1" d="M626.2,328.3c-45.9,0.3-88-23-75-74.2c10.5-41.7,48-61.7,100-86.4c-21.3-11.4-58.5-31.8-46.8-78.1
				c10.9-43.4,59.8-77.9,107.9-78.2c43.3-0.3,71.9,26.8,62.2,65.2c-10,39.7-49.8,62.2-73.6,75.9c22.9,13.9,61.3,36.3,48.6,86.7
				C737.2,287.7,688.1,328,626.2,328.3z M661.2,172.7c-27.8,15.8-67.2,38.4-77.7,80.1c-10,39.6,12.6,63,49.4,62.8
				c35.1-0.2,77.6-23.1,88.4-66.1C731.2,210.6,702.5,193.8,661.2,172.7L661.2,172.7z M705.7,23.9c-26,0.2-64.1,17.7-73.4,54.5
				c-5.1,20.2,1.6,31.3,14.4,42.4c10.6,9.4,26.4,18.8,43.5,26.1c14.3-8.7,49.6-30.4,58.5-65.5C755.4,54.5,743.8,23.7,705.7,23.9z"/>
			<path class="st1" d="M772.1,310.4l-4.2-2.6l118-124.8l4.2,2.6L772.1,310.4z M793.5,250.9c-16.1,0.1-26.5-15.2-21.8-33.6
				c4.7-18.7,23.1-33.9,38.9-34c15.6-0.1,26.4,14.9,21.7,33.6C827.5,235.5,809.1,250.8,793.5,250.9L793.5,250.9z M809.5,187.3
				c-13.7,0.1-23.6,17.2-26.8,29.9c-3.1,12.2-2.1,29.6,11.8,29.5c13.5-0.1,23.4-17.2,26.6-29.8C824.3,204.4,823.1,187.2,809.5,187.3
				z M847.4,309.9c-16,0.1-26.2-15.4-21.7-33.6c4.7-18.5,22.8-33.9,38.7-33.9s26.5,15,21.8,33.6
				C881.6,294.5,863.2,309.8,847.4,309.9z M863.4,246.3c-13.4,0.1-23.5,16.8-26.8,29.9c-3.3,12.9-1.6,29.8,11.7,29.7
				s23.5-16.8,26.8-29.9C878.4,263.3,877,246.3,863.4,246.3L863.4,246.3z"/>
		</g>
	</g>
	<g>
		<path class="st2" d="M191.8,104.7l0.6-6.2c0.3-3.3-1.1-4.2-2.3-5.1l-2.7-1.9l0.6-3l-1.9,0c-1.3,2.6-3.7,5.4-8.5,5.4
			c-0.4,0-0.8,0-1.1-0.1c0,0.2-0.1,0.3-0.1,0.5c-1,4-1.4,5.6-3.7,7.5l-0.4,0.3c-2.1,1.4-4.5,2.1-6.9,2.1c-2.8,0-4.9-0.9-6.3-2.7
			c-0.2-0.2-0.3-0.5-0.5-0.7c-2,1.9-4.5,3-7.3,3.2l-0.3,0c-2.7,0-5.1-1.1-6.7-3.1c-1.6-2-2.1-4.7-1.5-7.5l0-0.2
			c0.2-0.7,0.8-2.5,1.5-5c0.3-0.9,0.5-1.7,0.7-2.1c0.4-1.7,0.2-2.3,0.2-2.3c-0.1-0.1-0.6-0.4-0.8-0.5l-3-1.7l1.4-8.6l4.6,0.4
			c1.1,0.1,1.3,0,1.3,0l0,0c0,0,0.1,0,0.2-0.1l0.2-0.2c0.9-0.8,3.2-3.6,5.8-7c-3.2-1.8-4-5.7-4.5-8.5l0-0.3
			c-0.2-1.4-0.8-2.9-1.7-4.1l-2-2.7l3.8-6.3L155,45c2.3,0.4,4.4,0.8,6.3,1.5c-0.7-1.2-1-2.6-1.3-3.8l-0.1-0.5
			c-0.4-1.7-1.3-3.5-2.4-4.9l-1.4-1.7l1.2-7.2l4.4,0.2c3.2,0.1,6.2,0.6,8.9,1.6l0.3,0.1c3.1,1.3,5.1,3.1,6.3,5.1l0.4,0
			c2.1,0.2,4,0.3,5.7,0.3c0.3-1.9,0.4-2.9,0.4-4.9l0.2-6.2l14.5,3c0.9,0.2,1.7,0.5,2.4,0.8l0.2-4.1l14,2.8c1.4,0.3,3.4,0.9,4.7,2.9
			c0.1,0.1,0.1,0.2,0.2,0.3c1.2,0.2,2.8,0.7,4.3,2.5l3.6,3.9c1.5,1.6,2.1,3.8,1.6,5.9l0,0.2c-0.4,1.4-1.3,2.8-2.9,3.6l1.1,1
			c1.6,1.6,2.2,3.9,1.7,5.9l-0.1,0.4c-0.7,2-2.6,4.1-6.1,4.1c1.7,2,1.6,4,1.2,5.5c-0.6,2.1-2,3.3-3.7,4.3c-1.6,6.5-5.3,22-5.4,22.7
			l0,0.1c-2.3,9.6-10.5,12.6-17.1,13.4L191.8,104.7z M223.1,37.2C223.1,37.2,223.1,37.2,223.1,37.2L223.1,37.2z"/>
		<path class="st2" d="M212.7,104.3l-4.9-8.2l4.2-2.6c10.5-6.5,19.6-23,21.4-29.6c0.2-0.9,0.4-1.8,0.4-2.8l0.5-6.2l1.2,0.3
			c0.4-1.4,1-3.8,2-7c0.7-2.5,1.5-5.4,1.7-6.2c0.9-3.7,1.7-7.5,2.3-11.6l1-6.5l13.3,5.9l24.9-0.2l1.8-1.6c1-0.8,2.5-2.1,4.6-2.1h0.5
			l0.5,0.1c1.5,0.3,2.8,0.9,3.8,1.9l4.4,3.9c2.4,2.4,2.2,4.8,1.7,6.4c-0.6,2-2.4,3.5-4,4.6l-1.5,6.1c-0.1,0.5-0.4,2.1-0.7,3.4
			c-0.5,2.3-0.7,3.8-0.9,4.5c-0.3,1.3-1.2,3.7-3.5,5.6l3.7,3.9c2.1,2.1,2.1,4.3,1.8,5.8c-0.2,0.8-1.4,4.6-6.3,4.6l-18.9,0.1
			l-1.6,6.4c1.2,0,2.5,0.1,3.9,0.1c4.4,0,12.9-0.3,20.2-2.1l6.2-1.6v9.4l-2,1.5c-3.1,2.3-5.1,4.9-6.3,8l-1.1,2.8l-3,0.4
			c-3,0.4-5.7,0.5-8.2,0.5c-14.7,0.1-30.1-1.7-37.2-13.5c-4.7,5.2-11.5,10.6-22.1,14.4L212.7,104.3z M247.5,75.8
			c0.3,0.9,0.7,1.7,1.4,2.5l2-7.9c-0.3,0.2-0.6,0.4-1,0.7C249.1,72.6,248.3,74.2,247.5,75.8z M271.8,61l-1.1,4.2l2.7,0l1.4-1.5
			c-0.6-0.4-1-0.9-1.3-1.3c-0.3-0.4-0.6-0.9-0.8-1.3L271.8,61z M252.7,61.2c0.1,0.1,0.3,0.3,0.4,0.5l0.1-0.5L252.7,61.2z
			 M257.2,41.7l-2,7.8l18.2-0.1l2-7.7L257.2,41.7z"/>
		<path class="st2" d="M292.8,104.3L285,98l3.7-3.9c5.4-5.8,8.9-15.2,9.8-17.9c2.4-6.6,4.4-13.6,6.4-21.5c1.7-6.9,3.3-13.3,3.6-19.6
			l0.3-7.3l15.4,6.8l10.4-0.1c0.5-2.7,0.3-3.6,0.2-4.3l-1.3-7.2l17.7,3.4c2.1,0.4,3.7,1.4,4.6,2.9c0.8,1.3,1,2.9,0.6,4.4
			c-0.1,0.2-0.1,0.4-0.2,0.6l4.1,0l3.6-3.4c1-1,2.5-2.4,4.9-2.4c2.3,0,3.7,1.2,4.3,1.8l0.3,0.3l5.6,5c0.3,0.3,2,2.1,2,4.5v0.8
			l-0.3,0.8c-0.9,2.7-3.4,4.3-6.1,4.2l1.9,1.7c1.8,1.4,2.8,3.8,2.3,6.1l-0.1,0.4c-0.6,2.1-2.6,4.4-6.3,4.4l-14.7,0.1
			c-0.6,2.5-1,4.2-1.4,5.5l4.2,4c1.7,1.5,2.5,3.8,2.1,6l-0.1,0.5l-0.2,0.4c-0.7,1.7-2.1,3.1-3.8,3.9c-1.3,0.5-2.6,1-3.8,1.3
			c-0.7,0.6-1.3,1.3-2,1.9c4.3,0.6,9,0.8,13.4,0.6l6.2-0.4l-1.5,9.2l-2.2,1.2c-2.7,1.4-6.5,3.7-8,7.2l-1.5,3.4l-3.7-0.4
			c-6.9-0.8-16.2-4.5-21.9-7.9c-9.5,4.4-20.5,7.1-33.2,8.2l-5.4,0.5v-1.1L292.8,104.3z M352,92.1c0.4,0.1,0.9,0.2,1.3,0.3
			c0-0.1,0.1-0.1,0.1-0.2C352.9,92.3,352.5,92.2,352,92.1z M315.5,78.1c-2,4-4.4,8-7.4,11.8c5.2-1.8,10.2-4,14.9-6.5
			c-0.9-1.9-1.7-3.9-2.2-6c-1.4,0.1-2.8,0.2-4.2,0.5L315.5,78.1z M320.3,65.5c0,0,0.1,0,0.1,0c0-0.3,0.1-0.7,0.2-1
			C320.5,64.8,320.4,65.2,320.3,65.5z M322.2,59c-0.1,0.4-0.2,0.9-0.4,1.3c0.1-0.4,0.2-0.8,0.4-1.2C322.2,59,322.2,59,322.2,59
			L322.2,59z M372.3,53.6l0-1.1h0V53.6z M372.3,52.4L372.3,52.4l0-3.8c0,0,0,0,0,0V52.4z M325.1,47h0.2c0.1-0.3,0.1-0.6,0.1-0.8
			l-0.1,0C325.3,46.4,325.2,46.7,325.1,47z"/>
	</g>
	<g>
		<path class="st3" d="M223,52.9L199.8,53l-2,7.8l11.9-0.1l2.2-2.3c0.4-0.5,1.4-1.4,2-1.4s1.1,0.6,1.4,0.8l3.4,2.8
			c0.5,0.5,0.9,0.7,0.7,1.4s-0.9,1.2-3.2,2.4c-1,4-5.9,24.5-6,25c-0.5,2.1-2.1,8.3-12.8,9.6c0.6-6-2.7-8.5-4.4-9.7l0.1-0.5
			c2.5,0.3,5,0.4,7.5,0.3c2.2,0,2.3-0.5,3.4-4.7l5.6-22l-12.3,0.1l-4.9,19.2h3.4c2.6-9.5,3-10.8,3.6-15.7l6,1.2
			c1.1,0.2,1.4,0.4,1.3,0.8c-0.2,0.7-1.3,1.3-2.1,1.7c-0.6,2.4-3.3,13.9-3.7,14.7c-0.8,1.5-2.4,2.4-4.1,2.5c-2.4,0-2-1.4-1.4-3.4
			l-12.8,0.1c-0.6,2.4-1.4,5.4-5,5.4c-1.5,0-2.1-0.6-1.7-2.2c0.8-3.1,2.3-8.2,3.1-11.4c0.9-3.1,1.5-6.2,1.8-9.4l6.2,1.3
			c1.1,0.2,1.5,0.4,1.3,1c-0.1,0.4-0.7,0.8-2.3,1.8l-3,11.8h3.1l4.9-19.2l-12,0.1c-1.2,4.9-6.4,26-7.5,30.4c-0.9,3.7-1,4-2,4.8
			c-1.2,0.8-2.6,1.3-4.1,1.3c-2.9,0-2.7-1.5-2.4-2.6c0.1-0.3,0.2-0.7,0.3-1c2.1-6.7,5.2-18.9,7.3-27.2c1-3.6,1.8-7.3,2.3-11l7.7,3.5
			l10.8-0.1l2-7.8l-13.6,0.1c-2.9-0.1-5.8,0.1-8.6,0.6l-0.1-0.1c-1.7,3.5-13,25.9-13.6,27.9s0,10.7-0.4,12.5c-0.8,2.8-3.2,4.8-6.1,5
			c-2.1,0-4-1.5-3.3-4.5c0.3-1.1,1.9-6.1,2.2-7.1c1.5-5.8-1-7.4-2.9-8.5l0.1-0.6c2.2,0.2,3.6,0,5.1-1.2C154.9,75.4,169,56,171,53
			h0.1l-0.4-1.9c4.7,0.4,10.2,0.4,11.1,0.4h2.9c0.7-2.8,1.5-6.1,2.2-9c-3.1-0.1-6.2,0.1-9.3,0.6l-0.6-2.8c4.1,0.4,7.1,0.4,10.2,0.4
			c1.3-5.6,1.3-6.6,1.4-10l8.6,1.8c1.3,0.3,1.7,0.4,1.6,1s-1.7,1.4-3,2.3l-1.3,4.8l9.7-0.1c0.8-3.3,1.2-6.7,1.4-10.1l8.4,1.7
			c1.5,0.3,1.6,0.7,1.5,1.1s-1.7,1.6-2.6,2.1l-1.3,5.1h2.4l3.6-4.2c0.4-0.4,0.9-0.7,1.5-0.9c0.5,0,0.9,0.4,1.2,0.8l3.8,4.1
			c0.3,0.3,0.5,0.8,0.4,1.2c-0.2,0.7-0.8,0.8-1.4,0.8l-12,0.1c-0.1,0.5-2,7.6-2.3,9h4.1l3.9-4.4c0.3-0.3,0.9-0.9,1.4-0.9
			s0.8,0.4,1.2,0.8L224,51c0.3,0.3,0.5,0.8,0.4,1.2C224.2,52.8,223.5,52.9,223,52.9z M159.2,62c-2.6,0-2.9-1.5-3.6-5.3
			c-0.3-2.3-1.2-4.5-2.6-6.4l0.3-0.5c3.3,0.6,5.9,1,7.6,2c3.3,1.8,3.9,4.5,3.6,6.1C163.6,60.2,161.6,61.8,159.2,62L159.2,62z
			 M168.1,45.2c-2.4,0-2.5-0.8-3.4-4.2c-0.6-2.5-1.8-4.9-3.4-6.9l0.1-0.6c2.5,0.1,5.1,0.5,7.5,1.3c4.3,1.8,4.9,4.6,4.5,6
			C172.8,43.3,170.6,45,168.1,45.2z M203.8,42.2l-9.7,0.1c-0.6,2.5-1.6,6.6-2.3,9l9.7-0.1C202.3,48.7,203.8,42.3,203.8,42.2
			L203.8,42.2z"/>
		<path class="st3" d="M283.4,96.6c-2.5,0.3-5.1,0.5-7.6,0.5c-23.4,0.1-33.3-5.6-35.6-18.9c-4.2,6.6-11,14.9-25.3,20l-0.3-0.5
			c11.8-7.3,21.6-25,23.6-32.6c0.3-1.2,0.5-2.4,0.6-3.7l9.2,2.7c0.6,0.1,1.3,0.4,1.1,1s-0.4,0.8-3.2,2.6c-1.1,2.5-2.4,5-3.8,7.4
			c0.8,3.7,2.6,8.3,9.9,11.1l7.6-30.1l-11,0.1c-0.1,0.8-0.4,1.5-0.9,2.1c-1.5,1.2-3.3,1.9-5.2,1.9c-3.2,0-2.9-1.3-2.4-3
			c0.5-2.2,3.4-12,3.9-14.1c1-3.9,1.8-8,2.4-12l8.3,3.7l27.8-0.2l2.9-2.5c0.5-0.4,1.3-1.1,1.7-1.1c0.5,0.1,1,0.3,1.4,0.7l4.3,3.8
			c0.4,0.4,0.7,0.7,0.5,1.3c-0.3,1-3,2.6-3.6,2.9l-2,8.1c-0.3,1.2-1.3,6.7-1.6,7.8c-1,3.9-4.4,4.4-6.2,4.5c-3.6,0-2.9-2.4-2.4-4.2
			l-9.6,0.1l-3.7,14.2l11.4-0.1l4.6-5c0.3-0.5,0.8-0.8,1.4-0.9c0.5,0,0.8,0.2,1.2,0.7l4.7,5c0.4,0.4,0.6,0.7,0.5,1.1
			c-0.2,0.8-0.9,0.8-1.4,0.8l-22.8,0.1l-4,15.9c3.4,0.4,6.8,0.5,10.2,0.5c4.6,0,13.6-0.3,21.4-2.3v0.4
			C287.5,89.3,284.9,92.7,283.4,96.6z M281.9,36.6l-28.6,0.1l-4.5,17.8l28.5-0.2L281.9,36.6z"/>
		<path class="st3" d="M372.3,53.6l-18.7,0.1c-0.4,1.6-1.9,8.5-2.5,10c-1.4,3.2-5,3.2-5.6,3.2c-3.1,0-2.6-1.7-2.2-3.1l-9.5,0.1
			c-0.2,1.2-1,2.3-2.1,2.9c-1.2,0.7-2.5,1.1-3.8,1.1c-1.4,0-2.9-0.5-2.3-2.6c0.2-1,2.9-9.6,3.3-11.4L318.3,54
			c-4.2,16.8-8.4,30.5-25.5,43.9l-0.5-0.4c6.3-6.8,10.1-17.4,10.9-19.7c2.6-7.3,4.7-14.6,6.5-21.9c1.7-6.9,3.4-13.8,3.7-20.6
			l9.7,4.3l15.5-0.1c1.7-6.8,1.4-8.6,1.1-10.2l10.5,2c0.5,0.1,1.5,0.4,1.3,1.1c-0.2,0.7-2.2,1.9-3.6,2.6c-0.3,0.9-0.4,1.2-1.2,4.4
			l15.5-0.1l5.1-4.8c0.7-0.7,1-1,1.4-1c0.5,0,0.7,0.3,1.3,0.8l5.4,4.8c0.2,0.2,0.5,0.7,0.5,1c-0.2,0.6-0.8,0.9-1.4,0.8l-53.1,0.3
			c-0.4,1.7-2.3,9.3-2.6,10.8h10.6c1.5-7,1.3-8.1,1.1-9.1l9.1,1.8c0.5,0.1,1.3,0.4,1.1,1.1c-0.1,0.5-0.4,0.7-1,1l-1.9,1.2l-1,3.9
			l9.6-0.1c1.3-5.3,1.5-6.1,1.5-9.2l9,1.8c0.6,0.1,1.4,0.3,1.2,1s-2,1.9-3,2.6l-1,3.8h6.5l4.9-4.7c0.7-0.7,1-1,1.5-1
			s0.8,0.4,1.3,0.9l5,4.6c0.4,0.2,0.6,0.7,0.5,1.2C373.6,53.5,372.9,53.6,372.3,53.6z M355.9,98c-7.2-0.8-17.8-5.4-22-8.7
			c-11,5.6-22.7,8-34.1,9v-0.7c10.6-2.7,20.8-6.8,30.2-12.4c-2.9-3.7-4.6-8.1-5.1-12.8c-3.1-0.1-6.2,0.1-9.2,0.6l-0.6-2.8
			c4.7,0.4,10.2,0.4,11.1,0.4l19.4-0.1l4.3-3c0.4-0.3,0.9-0.6,1.4-0.8c0.3,0,0.6,0.3,1.2,0.8l4.6,4.4c0.4,0.3,0.6,0.8,0.5,1.3
			c-0.2,0.5-0.6,0.9-1.1,1.1c-1.4,0.6-2.9,1.1-4.4,1.4c-3.4,3.4-7,6.4-11,9c5.8,2.1,16.6,3.5,25.2,3l-0.1,0.6
			C363.3,89.8,358.2,92.7,355.9,98z M327.2,72.5c1.8,3.7,4.4,6.9,7.8,9.3c3.7-2.7,7-5.8,9.9-9.4L327.2,72.5z M346,53.8l-9.6,0.1
			l-2.1,8.2l9.6-0.1L346,53.8z"/>
	</g>
	<g>
		<path class="st3" d="M831.3,17.8l1.1,1.1l-12.2,12.3l12.2,12.3l-1.1,1.1l-12.2-12.1l-12.2,12.1l-1.1-1.1L818,31.3L805.8,19
			l1.1-1.1L819.1,30L831.3,17.8z M811.8,31.2c0,1.4-1.1,2.6-2.6,2.6l0,0c-1.5,0-2.6-1.2-2.7-2.6c0.1-1.5,1.3-2.6,2.8-2.5
			C810.7,28.8,811.8,29.9,811.8,31.2z M821.7,41.3c0,1.4-1.2,2.6-2.6,2.7c-1.5,0-2.7-1.2-2.7-2.7c0-1.4,1.1-2.5,2.4-2.7h0.1
			c0,0,0,0,0.1,0h0.1C820.5,38.6,821.7,39.8,821.7,41.3L821.7,41.3z M821.7,21.3c0,1.4-1.1,2.6-2.6,2.6l0,0c-1.5,0.1-2.7-1-2.8-2.5
			s1-2.7,2.5-2.8c0.1,0,0.2,0,0.3,0C820.5,18.6,821.7,19.8,821.7,21.3C821.7,21.2,821.7,21.3,821.7,21.3L821.7,21.3z M831.5,31.3
			c0,1.4-1.2,2.6-2.6,2.6c-1.4,0-2.6-1.2-2.6-2.6s1.2-2.6,2.6-2.6l0,0C830.4,28.6,831.5,29.8,831.5,31.3
			C831.6,31.2,831.6,31.2,831.5,31.3L831.5,31.3z"/>
		<path class="st3" d="M844,44.3c-1.3,0-2.7,0-4,0.1c0.1-1.5,0.4-3,1-4.5c1-2.4,2.6-4.5,4.6-6.2c1.7-1.4,3.5-2.7,5.4-3.9
			c3.3-2.2,4.4-3.7,4.4-5.8c0-2.5-2.1-4.1-5.4-4.1c-2.2,0-3.9,0.7-4.8,2.2c-0.7,1-1.1,2.2-1.2,3.4l-3.5-0.5c0.2-1.9,1-3.7,2.2-5.1
			c1.6-1.8,4.1-2.8,7.2-2.8c5.4,0,8.9,2.7,8.9,6.9c0,1.6-0.6,3.2-1.6,4.5c-1.1,1.4-2,2.1-5.9,4.7c-4.6,3-6.3,5-7.2,8.1h10.7
			c1.5,0,3-0.1,4.5-0.2v3.3c-1.5-0.1-3-0.2-4.5-0.2L844,44.3z"/>
	</g>
	<g>
		<path class="st3" d="M368.6,376.2l0.7,0.7l-7.5,7.5l7.5,7.5l-0.7,0.7l-7.5-7.4l-7.5,7.4l-0.7-0.7l7.5-7.5l-7.5-7.5l0.7-0.7
			l7.5,7.5L368.6,376.2z M356.7,384.3c0,0.9-0.7,1.6-1.6,1.6l0,0c-0.9,0-1.6-0.7-1.6-1.6s0.7-1.6,1.6-1.6
			C356,382.7,356.7,383.5,356.7,384.3z M362.7,390.5c0,0.9-0.7,1.6-1.6,1.6s-1.7-0.7-1.7-1.5c0-0.9,0.7-1.7,1.5-1.7h0.1l0,0l0,0
			c0.9-0.1,1.6,0.6,1.7,1.5V390.5L362.7,390.5z M362.7,378.3c0,0.9-0.7,1.6-1.6,1.6l0,0c-0.9,0.1-1.7-0.6-1.7-1.5
			c-0.1-0.9,0.6-1.7,1.5-1.7c0.1,0,0.2,0,0.3,0C362,376.6,362.7,377.3,362.7,378.3C362.8,378.2,362.8,378.3,362.7,378.3L362.7,378.3
			z M368.7,384.4c0,0.9-0.7,1.6-1.6,1.6s-1.6-0.7-1.6-1.6s0.7-1.6,1.6-1.6C368,382.7,368.7,383.4,368.7,384.4
			C368.8,384.3,368.8,384.3,368.7,384.4L368.7,384.4z"/>
		<path class="st3" d="M376.5,392.4c-0.8,0-1.6,0-2.4,0.1c0.1-0.9,0.3-1.9,0.6-2.7c0.6-1.5,1.6-2.8,2.8-3.8c1-0.9,2.1-1.7,3.3-2.4
			c2-1.4,2.7-2.2,2.7-3.5c0-1.5-1.3-2.5-3.3-2.5c-1.2-0.1-2.3,0.4-3,1.3c-0.4,0.6-0.7,1.3-0.7,2.1l-2.1-0.3c0.1-1.2,0.6-2.2,1.4-3.1
			c1.2-1.2,2.8-1.8,4.4-1.7c3.3,0,5.4,1.7,5.4,4.2c0,1-0.4,2-1,2.7c-0.7,0.9-1.2,1.3-3.6,2.9c-2.8,1.9-3.9,3-4.4,4.9h6.5
			c0.9,0,1.8,0,2.7-0.1v2c-0.9-0.1-1.6-0.1-2.8-0.1H376.5z"/>
		<path class="st3" d="M394.7,381h-2.4v-2.4h2.4V381z M392.4,390.2v-2.4h2.4v2.4H392.4z"/>
		<path class="st3" d="M403.7,392.4c-0.8,0-1.6,0-2.5,0.1c0.1-0.9,0.3-1.9,0.6-2.7c0.6-1.5,1.6-2.8,2.8-3.8c1-0.9,2.1-1.7,3.3-2.4
			c2-1.4,2.7-2.2,2.7-3.5c0-1.5-1.3-2.5-3.3-2.5c-1.2-0.1-2.3,0.4-3,1.3c-0.4,0.6-0.7,1.3-0.7,2.1l-2.1-0.3c0.1-1.2,0.6-2.2,1.4-3.1
			c1.2-1.2,2.8-1.8,4.4-1.7c3.3,0,5.4,1.7,5.4,4.2c0,1-0.4,2-1,2.7c-0.7,0.9-1.2,1.3-3.6,2.9c-2.8,1.9-3.9,3-4.4,4.9h6.5
			c0.9,0,1.8,0,2.7-0.1v2c-0.9-0.1-1.6-0.1-2.8-0.1H403.7z"/>
		<path class="st3" d="M418.5,391.1c-0.6-0.6-1-1.2-1.3-2c-0.6-1.6-0.8-3.2-0.8-4.8c-0.1-2,0.4-4,1.2-5.8c1-1.7,2.9-2.8,4.9-2.7
			c2.3-0.1,4.5,1.3,5.3,3.5c0.6,1.6,0.8,3.2,0.8,4.9c0.1,2.1-0.4,4.3-1.5,6.1c-2,2.6-5.7,3-8.3,1
			C418.7,391.3,418.6,391.2,418.5,391.1L418.5,391.1z M419.9,378.6c-0.4,0.4-0.7,1-0.9,1.6c-0.4,1.3-0.6,2.7-0.6,4.1
			c0,1.7,0.3,3.3,1,4.9c0.6,1.1,1.8,1.8,3.1,1.8c0.9,0,1.8-0.3,2.5-1c0.5-0.5,0.8-1,1-1.7c0.4-1.3,0.6-2.7,0.6-4.1
			c0-1.6-0.3-3.3-0.9-4.8c-0.6-1.2-1.9-2-3.2-1.9C421.5,377.5,420.6,377.9,419.9,378.6L419.9,378.6z"/>
		<path class="st3" d="M434.5,392.4c-0.8,0-1.6,0-2.4,0.1c0.1-0.9,0.3-1.9,0.6-2.7c0.6-1.5,1.6-2.8,2.8-3.8c1-0.9,2.1-1.7,3.3-2.4
			c2-1.4,2.7-2.2,2.7-3.5c0-1.5-1.3-2.5-3.3-2.5c-1.2-0.1-2.3,0.4-3,1.3c-0.4,0.6-0.7,1.3-0.7,2.1l-2.1-0.3c0.1-1.2,0.6-2.2,1.4-3.1
			c1.2-1.2,2.8-1.8,4.4-1.7c3.3,0,5.4,1.7,5.4,4.2c0,1-0.4,2-1,2.7c-0.7,0.9-1.2,1.3-3.6,2.9c-2.8,1.9-3.9,3-4.4,4.9h6.5
			c0.9,0,1.8,0,2.7-0.1v2c-0.9-0.1-1.6-0.1-2.8-0.1H434.5z"/>
		<path class="st3" d="M449.3,391.1c-0.6-0.6-1-1.2-1.3-2c-0.6-1.6-0.8-3.2-0.8-4.8c-0.1-2,0.4-4,1.2-5.8c1-1.7,2.9-2.8,4.9-2.7
			c2.3-0.1,4.5,1.3,5.3,3.5c0.6,1.6,0.8,3.2,0.8,4.9c0.1,2.1-0.4,4.3-1.5,6.1c-2,2.6-5.7,3-8.3,1
			C449.6,391.3,449.4,391.2,449.3,391.1L449.3,391.1z M450.8,378.6c-0.4,0.4-0.7,1-0.9,1.6c-0.4,1.3-0.6,2.7-0.6,4.1
			c0,1.7,0.3,3.3,1,4.9c0.6,1.1,1.8,1.8,3.1,1.8c0.9,0,1.8-0.3,2.5-1c0.5-0.5,0.8-1,1-1.7c0.4-1.3,0.6-2.7,0.6-4.1
			c0-1.6-0.3-3.3-0.9-4.8c-0.6-1.2-1.9-2-3.2-1.9C452.4,377.5,451.4,377.9,450.8,378.6L450.8,378.6z"/>
		<path class="st3" d="M466.3,383.1c0-0.4,0-0.8-0.1-1.2c0.5,0.1,1,0.1,1.5,0.1h4.6v-3.2h-4.8c-0.9,1.6-2.1,3.1-3.5,4.3
			c-0.3-0.5-0.7-0.9-1.2-1.3c1.9-1.5,3.3-3.4,4.2-5.6c0.2-0.5,0.4-1,0.5-1.5l1.8,0.4l-0.3,0.6l-0.5,1l-0.3,0.6h10.2
			c0.7,0,1.3,0,2-0.1v1.7c-0.7-0.1-1.3-0.1-2-0.1H474v3.2h3.7c0.7,0,1.3,0,2-0.1v1.6c-0.6-0.1-1.3-0.1-1.9-0.1H474v3.9h5.2
			c0.7,0,1.5,0,2.2-0.1v1.8c-0.7-0.1-1.5-0.1-2.2-0.1H474v3.2c0,0.7,0,1.3,0.1,2h-1.9c0.1-0.7,0.2-1.4,0.1-2.1v-3.2h-7.5
			c-0.7,0-1.5,0-2.2,0.1v-1.8c0.7,0.1,1.5,0.1,2.2,0.1h1.4L466.3,383.1L466.3,383.1z M472.3,387.3v-3.9h-4.4v3.9H472.3z"/>
		<path class="st3" d="M486.9,388.3c0.1,0.8,0.6,1.5,1.2,1.9c0.8,0.5,1.7,0.8,2.7,0.8c2.3,0,3.8-1.2,3.8-3.1s-1.4-3.1-4.1-3.1
			c-0.6,0-1.2,0-1.8,0.1V383c0.6,0.1,1.1,0.1,1.7,0.1c1.1,0.1,2.2-0.2,3-0.9c0.5-0.5,0.8-1.3,0.8-2c0-1.6-1.2-2.6-3.2-2.6
			c-1-0.1-2,0.3-2.7,1.1c-0.3,0.4-0.5,0.9-0.6,1.4l-2.1-0.4c0.2-0.8,0.6-1.6,1.2-2.2c1.2-1.1,2.7-1.6,4.3-1.5c3.2,0,5.2,1.7,5.2,4.2
			c0,1.2-0.5,2.4-1.5,3.1c-0.6,0.4-1.3,0.7-2,0.8c1.1,0,2.2,0.5,3,1.3c0.7,0.8,1.1,1.8,1,2.9c0,1.1-0.4,2.2-1.2,3
			c-1.3,1.1-3,1.7-4.7,1.6c-1.8,0.2-3.6-0.5-4.9-1.8c-0.5-0.6-0.9-1.4-1.1-2.1L486.9,388.3z"/>
		<path class="st3" d="M505.2,387.1c-0.2,1-0.4,2-0.8,3c-0.5,1.4-1.3,2.7-2.4,3.8c-0.4-0.5-0.8-1-1.4-1.4c1.2-1.1,2-2.5,2.4-4
			c0.6-2,0.8-4.5,0.8-9.4c0-1.8,0-2.7-0.1-3.5c0.8,0.1,1.5,0.1,2.3,0.1h8.2c0.8,0,1.5,0,2.3-0.1c-0.1,0.7-0.1,1.5-0.1,2.2v13.7
			c0,0.9-0.2,1.4-0.6,1.7c-0.7,0.3-1.4,0.4-2.1,0.3c-0.6,0-1.3,0-2.3-0.1c-0.1-0.6-0.2-1.2-0.4-1.7c1,0.2,2,0.2,3,0.2
			c0.7,0,0.9-0.1,0.9-0.6V387L505.2,387.1z M514.8,385.5V382h-9.2c0,0.9-0.1,1.8-0.2,3.5H514.8z M514.8,380.5v-3.2h-9.2v3.2H514.8z"
			/>
		<path class="st3" d="M535.5,389.8c2.1-1.1,3.4-3.3,3.3-5.6c0.1-2.2-1.2-4.2-3.1-5.1c-0.7-0.4-1.5-0.6-2.4-0.6
			c-0.3,2.9-1,5.7-2.1,8.4c-1.2,2.8-2.5,4-4,4c-2.1,0-3.7-2.2-3.7-5.3c0-2.2,0.8-4.3,2.2-5.9c1.8-1.9,4.3-2.9,6.9-2.8
			c4.8,0,8,3,8,7.4c0.1,3.1-1.7,6-4.6,7.3c-1.1,0.5-2.3,0.9-3.5,1.1c-0.2-0.6-0.5-1.2-0.9-1.7C533,390.8,534.3,390.4,535.5,389.8z
			 M528.5,379.6c-2.1,1.3-3.3,3.6-3.3,6.1c0,1.9,0.8,3.4,1.9,3.4c0.8,0,1.6-1,2.5-3c1-2.4,1.6-5,1.9-7.6
			C530.4,378.6,529.4,379,528.5,379.6L528.5,379.6z"/>
		<path class="st3" d="M547.1,387.1c0-0.6,0-1.1,0-1.4s0-0.1,0-1.3c-0.6,0.7-1.2,1.4-1.9,1.9c-0.2-0.5-0.5-1-0.8-1.5
			c1.4-1,2.6-2.2,3.6-3.6c0.5-0.6,0.9-1.4,1.2-2.1l1.4,0.9c-0.2,0.3-0.3,0.5-0.6,0.9s-0.8,1.1-1.4,1.9v8.7c0,0.8,0,1.7,0.1,2.5H547
			c0.1-0.8,0.1-1.6,0.1-2.4V387.1z M550.5,375.5c-0.2,0.2-0.2,0.2-0.4,0.6c-1.2,1.6-2.6,3-4.3,4.2c-0.2-0.5-0.5-0.9-0.9-1.3
			c1.2-0.7,2.3-1.7,3.2-2.7c0.4-0.5,0.8-1.1,1.1-1.7L550.5,375.5z M557.2,375.4c-0.2,0.2-0.4,0.5-0.6,0.7c-0.7,1-1.5,1.9-2.3,2.8
			c0.9,0.8,1.2,1,1.7,1.6c1.3-1.2,2.4-2.7,3.3-4.2l1.6,0.9c-0.3,0.3-0.6,0.6-0.8,1c-1.4,1.6-2.8,3.2-4.4,4.6
			c1.3-0.1,2.2-0.1,2.6-0.1s1.1-0.1,2.5-0.2c-0.5-0.6-0.9-1.2-1.5-1.7l1.2-0.8c1.3,1.4,2.4,2.9,3.5,4.4l-1.3,0.9
			c-0.5-0.8-0.7-1.1-1.1-1.7c-3.5,0.4-3.5,0.4-5.7,0.5c-0.3,0.5-0.6,1-0.9,1.5h3.8c0.6,0,1.1,0,1.7-0.1l1,0.9
			c-0.2,0.2-0.3,0.4-0.4,0.6c-0.9,1.2-1.9,2.2-3.1,3.2c1.9,1,3.9,1.7,6,2c-0.2,0.3-0.3,0.5-0.4,0.8c0,0.1-0.1,0.2-0.2,0.5
			c0,0.1-0.1,0.2-0.1,0.3c-1.6-0.3-3.1-0.9-4.6-1.6c-0.7-0.3-1.4-0.7-2-1.1c-2,1.4-4.2,2.3-6.6,2.8c-0.2-0.5-0.5-1-0.9-1.5
			c2.2-0.4,4.3-1.1,6.2-2.3c-0.8-0.7-1.6-1.5-2.3-2.4c-0.8,0.8-1.8,1.5-2.8,2.1c-0.3-0.5-0.6-0.9-1.1-1.2c2.1-0.9,3.8-2.5,4.9-4.4
			h-0.5c-2.2,0.1-2.2,0.1-2.8,0.2c-0.3,0-0.6,0-0.9,0.1l-0.2-1.6c0.5,0,1,0.1,1.4,0.1l2.2-0.1c0.2-0.2,0.4-0.3,0.5-0.4
			c0.5-0.4,0.5-0.4,0.9-0.9c-1.3-1.2-2.6-2.4-4.1-3.4l1-1.1c0.7,0.5,0.9,0.6,1.3,1c1-1,1.8-2.2,2.4-3.4L557.2,375.4z M554.3,386.9
			c0.7,0.9,1.5,1.8,2.5,2.5c1-0.7,1.8-1.5,2.5-2.5H554.3z"/>
		<path class="st3" d="M570.7,389.6c0.3-1.3,0.7-2.6,1.2-3.9l1.3,0.6c-0.9,1.9-1.5,3.9-1.8,5.9c0,0.1,0,0.3,0,0.4l-1.8,0.1l-0.1-0.9
			c-0.4-2-0.6-4-0.5-6c0-2.8,0.3-5.6,0.9-8.3c0.1-0.6,0.2-1.2,0.3-1.8l2,0.3c-0.5,1.4-0.8,2.8-1.1,4.2c-0.3,2.1-0.5,4.3-0.5,6.4
			c0,0.4,0,1.4,0,2S570.6,389.1,570.7,389.6L570.7,389.6z M577.6,384.6c-0.9,0.8-1.5,1.9-1.6,3.1c0,1.4,1.3,2.1,3.8,2.1
			c1.7,0,3.3-0.2,4.9-0.7l0.2,1.9c-0.3,0-0.3,0-0.8,0.1c-1.4,0.3-2.9,0.4-4.3,0.4c-2.5,0-4.1-0.5-4.9-1.7c-0.4-0.6-0.6-1.3-0.6-2
			c0.1-1.5,0.8-2.9,1.9-4L577.6,384.6z M574.7,378.2c1.2,0.3,2.4,0.4,3.6,0.3c1.9,0.1,3.9-0.1,5.8-0.6l0.1,1.8
			c-0.1,0-0.5,0.1-1.4,0.2c-1.5,0.2-3,0.3-4.5,0.3c-0.9,0-1.9,0-2.8-0.1h-0.4h-0.3L574.7,378.2z"/>
		<path class="st3" d="M590.6,388c1.7,1.3,3.1,2.8,4.4,4.5l-1.4,1.4c-1.2-1.8-2.6-3.3-4.3-4.7L590.6,388z"/>
		<path class="st3" d="M613.7,379.9v-2c0-0.7,0-1.4-0.1-2.1h2c-0.1,0.7-0.1,1.3-0.1,2v2.1h1.7c0.8,0,1.7,0,2.5-0.1v1.9
			c-0.8-0.1-1.7-0.1-2.5-0.1h-1.8c0,1.3,0,2.6-0.2,3.8c-0.1,2.3-1.2,4.4-3,5.8c-1.1,0.9-2.5,1.6-3.9,2.1c-0.3-0.6-0.7-1.1-1.1-1.6
			c1.5-0.3,2.9-1,4-2c1.4-1.3,2-2.7,2.2-5.2c0-0.6,0.1-1.3,0.1-2.9h-6.1v3c0,0.7,0,1.4,0.1,2.1h-2c0.1-0.7,0.1-1.4,0.1-2.1v-3H604
			c-0.8,0-1.7,0-2.5,0.1v-1.9c0.8,0.1,1.7,0.2,2.5,0.1h1.6v-2.2c0-0.7,0-1.3-0.1-2h2c-0.1,0.6-0.1,1.3-0.1,1.9v2.2L613.7,379.9z"/>
		<path class="st3" d="M629.2,383c-0.1,0.2-0.1,0.3-0.2,0.6c-0.6,2.9-1.9,5.7-3.8,8c-0.5-0.4-1.1-0.8-1.7-1c1.4-1.5,2.5-3.3,3.1-5.3
			c0.3-0.9,0.6-1.8,0.7-2.8L629.2,383z M631.9,377.7c0-0.7,0-1.4-0.1-2.1h2.1c-0.1,0.7-0.1,1.5-0.1,2.2v1.3h5.1c0.9,0,1.7,0,2.6-0.1
			v1.9c-0.8-0.1-1.7-0.1-2.6-0.1h-5.1V391c0,0.8,0,1.6,0.1,2.4h-2.1c0.1-0.8,0.2-1.6,0.1-2.4v-10.3h-5c-0.8,0-1.7,0-2.5,0.1v-1.9
			c0.8,0.1,1.7,0.2,2.5,0.1h5V377.7z M638.2,382.5c0.2,0.8,0.5,1.6,0.8,2.4c0.7,2.1,1.8,4,3.2,5.7c-0.6,0.3-1.2,0.7-1.6,1.1
			c-1.4-1.9-2.5-4-3.2-6.3c-0.2-0.5-0.2-0.7-0.4-1.3c0-0.1-0.1-0.3-0.2-0.5s-0.1-0.4-0.2-0.6L638.2,382.5z M638.5,375
			c0.7,0.9,1.3,1.8,1.8,2.9l-1.3,0.5c-0.4-1-1-2-1.7-2.8L638.5,375z M640.7,374.1c0.7,0.9,1.3,1.8,1.8,2.8l-1.3,0.5
			c-0.4-1-1-2-1.7-2.8L640.7,374.1z"/>
		<path class="st3" d="M647.5,390.3c2.1-0.2,4.2-0.7,6.2-1.6c4-1.8,7.1-5.2,8.5-9.4c0.4,0.6,0.9,1.1,1.6,1.5
			c-1.3,3.3-3.6,6.1-6.5,8.1c-2.4,1.6-5.1,2.6-7.9,3.2c-0.4,0.1-0.9,0.2-1.3,0.3L647.5,390.3z M649,377.3c1.9,1.1,3.6,2.5,5.2,4
			l-1.3,1.6c-1.5-1.6-3.2-3-5.1-4.2L649,377.3z"/>
		<path class="st3" d="M679.7,384.4c-0.9,0-1.7,0-2.6,0.1v-1.9c0.9,0.1,1.8,0.2,2.6,0.1h4v-4.2h-2.8c-0.9,0-1.7,0-2.6,0.1v-1.9
			c0.9,0.1,1.8,0.2,2.6,0.1h9.4c0.9,0,1.7,0,2.6-0.1v1.9c-0.9-0.1-1.7-0.1-2.6-0.1h-4.8v4.2h6.1c0.9,0,1.7,0,2.6-0.1v1.8
			c-0.9-0.1-1.7-0.1-2.6-0.1h-6.2v3.9c0,1.4,0.1,1.8,0.7,2c0.8,0.2,1.7,0.3,2.5,0.3c0.6,0,1.8-0.1,3-0.2c0.6,0,1.2-0.2,1.8-0.3v1.9
			h-0.3h-0.8c-1.6,0.1-2.8,0.2-4.1,0.2c-3.8,0-4.8-0.6-4.8-3.4v-4.5L679.7,384.4z"/>
		<path class="st3" d="M699.2,383.3c1,0.1,1.9,0.1,2.9,0.1H714c0.9,0,1.9,0,2.8-0.1v2.1c-1-0.1-1.9-0.1-2.9-0.1h-11.8
			c-1,0-2,0-2.9,0.1L699.2,383.3L699.2,383.3z"/>
		<path class="st3" d="M735.3,379c0.6,0.1,1.3,0,1.8-0.1l1,1c-0.2,0.4-0.2,0.4-0.5,2.3c-0.9,5.6-4.1,9.2-10.2,11.2
			c-0.3-0.7-0.6-1.3-1.2-1.8c1.6-0.4,3.2-1,4.6-2c3-2,4.5-4.8,4.9-9h-11.2v2.8c0,0.7,0,1.4,0.1,1.8h-2c0.1-0.6,0.1-1.2,0.1-1.8v-2.7
			c0-0.7,0-1.3-0.1-1.8c0.7,0.1,1.3,0.1,2,0.1h4.4v-2c0-0.5,0-1.1-0.1-1.6h2.1c-0.1,0.5-0.1,1.1-0.1,1.6v1.8L735.3,379z M736.1,375
			c0.7,0.8,1.4,1.8,1.9,2.8l-1.2,0.6c-0.5-1-1.1-2-1.9-2.8L736.1,375z M738.3,374.1c0.7,0.8,1.4,1.8,1.9,2.8l-1.2,0.6
			c-0.5-1-1.1-2-1.9-2.8L738.3,374.1z"/>
		<path class="st3" d="M749.6,378c0.5-0.9,0.8-1.8,1-2.8l2,0.3c-0.2,0.3-0.4,0.7-0.5,1.1c-0.2,0.5-0.4,1-0.6,1.4
			c0.2,0,0.2,0,1.3-0.1c1.9-0.1,3.8-0.3,5.7-0.7l0.1,1.7c-0.4,0-0.4,0-1.6,0.2c-1.5,0.2-4.2,0.4-6.2,0.4c-0.5,0.9-1,1.8-1.7,2.7
			c-0.2,0.3-0.4,0.5-0.7,0.8c-0.1,0.1-0.2,0.1-0.2,0.2l0,0v0.1c0.1-0.1,0.2-0.2,0.3-0.2c0.2-0.2,0.5-0.4,0.7-0.5
			c0.9-0.6,1.9-0.9,2.9-0.9c1.4-0.1,2.7,0.9,2.8,2.3c1.6-0.6,2.5-1,3.5-1.3c0.5-0.1,1-0.3,1.5-0.6l0.8,1.7c-1.9,0.4-3.8,1-5.6,1.8
			c0,0.7,0,0.8,0,1.2c0,0.2,0,0.7,0,1.1v0.9c0,0.3,0,0.6,0,0.9h-1.7c0.1-0.9,0.1-1.9,0.1-2.8v-0.6c-0.9,0.4-1.7,0.8-2.5,1.4
			c-0.7,0.4-1.2,1.2-1.2,2c0,1.3,1.2,1.9,4.2,1.9c1.9,0,3.9-0.2,5.7-0.8l0.2,1.9c-0.3,0-0.6,0-0.9,0.1c-1.7,0.3-3.5,0.4-5.2,0.4
			c-1.5,0.1-3-0.2-4.3-0.8c-0.9-0.5-1.5-1.5-1.4-2.5c0-1.2,0.7-2.3,2.2-3.4c1-0.7,2-1.2,3.1-1.7c-0.1-1-0.6-1.5-1.6-1.5
			c-1.7,0.2-3.3,1-4.6,2.2c-0.7,0.5-1.2,1.1-1.7,1.8l-1.4-1.4c1.9-1.7,3.4-3.6,4.6-5.8l0.2-0.3h-0.4c-0.4,0-2.5,0-3-0.1h-0.4
			c-0.1,0-0.3,0-0.4,0V378c1.5,0.2,3,0.3,4.5,0.2L749.6,378z"/>
		<path class="st3" d="M771.2,379.8c-1.6,1.2-3.3,2.3-5.2,3.1c-0.3-0.5-0.6-1-1-1.4c3.6-1.3,6.7-3.5,9-6.5h1.7
			c1.3,1.7,2.9,3.1,4.7,4.2c1.4,0.9,2.9,1.7,4.6,2.2c-0.4,0.4-0.7,0.9-1,1.5c-1.8-0.8-3.6-1.8-5.2-3v1.4c-0.6-0.1-1.2-0.1-1.8-0.1
			h-4c-0.6,0-1.2,0-1.8,0.1V379.8z M780.4,386.8c0.5,0,1,0,1.5-0.1c-0.1,0.6-0.1,1.1-0.1,1.7v3.8c0,0.6,0,1.2,0.1,1.8h-1.7v-1h-10.6
			v0.9h-1.7c0.1-0.6,0.1-1.2,0.1-1.8v-3.8c0-0.5,0-1.1-0.1-1.6c0.5,0.1,1,0.1,1.6,0.1h6.1l3.2-2.7H770c-0.7,0-1.3,0-2,0.1v-1.6
			c0.6,0.1,1.2,0.1,1.8,0.1h9c0.6,0,1.1,0,1.7-0.1l1,1l-0.3,0.2c-0.2,0.1-0.4,0.3-0.6,0.5l-2.9,2.5L780.4,386.8z M769.6,391.6h10.6
			v-3.3h-10.6V391.6z M777,379.8c0.5,0,1.1,0,1.6-0.1c-1.4-1-2.6-2.1-3.8-3.5c-1,1.3-2.2,2.4-3.6,3.5c0.6,0.1,1.1,0.1,1.7,0.1H777z"
			/>
		<path class="st3" d="M788.8,378.3c0.9,0.2,1.8,0.2,2.7,0.2c0.3,0,0.6,0,1.2,0c0-0.8,0-1.4,0-1.5c0-0.5,0-0.9-0.1-1.4h1.9
			c-0.2,0.9-0.3,1.9-0.2,2.8c1.3-0.1,2.6-0.3,3.8-0.7l0.1,1.7c-0.2,0-0.4,0.1-0.6,0.1c-1.1,0.2-2.2,0.3-3.3,0.4c0,1.5,0,2.4,0,2.6
			c0.7,0.5,1,1.3,0.9,2.1c0,0.7-0.2,1.3-0.4,1.9c-0.1,0.2-0.2,0.4-0.7,1.2c-0.5,0.6-0.8,1.4-0.8,2.2c0,0.5,0.3,0.9,0.8,1
			c1,0.3,2,0.4,3,0.4c1.5,0,2.9-0.2,4.3-0.6c0.7-0.2,1.2-0.9,1.2-1.7c-0.1-1.4-0.5-2.8-1.2-4c0.6,0.2,1.3,0.3,2,0.4
			c0.6,1.2,0.9,2.5,0.9,3.9c0.1,1.1-0.5,2.1-1.4,2.6s-1.9,0.8-3,0.9c-1,0.1-1.9,0.2-2.9,0.2c-3.8,0-5.5-0.9-5.5-2.8
			c0-0.8,0.3-1.6,0.8-2.2l0,0c-0.3,0.2-0.6,0.3-1,0.3c-1.4-0.1-2.5-1.3-2.4-2.8v-0.1c0-1.9,1.4-3.4,3.3-3.5h0.1c0.1,0,0.3,0,0.4,0
			c0-0.2,0-0.2,0-1c0-0.2,0-0.4,0-1h-1.6c-0.7,0-1.1,0-1.7,0c-0.1,0-0.3,0-0.4,0h-0.3L788.8,378.3z M792.2,383.3c-1,0.1-1.8,1-1.8,2
			s0.5,1.6,1.3,1.6c1.1-0.1,1.9-1,1.8-2.1c0.1-0.7-0.3-1.3-1-1.4C792.5,383.3,792.4,383.3,792.2,383.3L792.2,383.3z M801.4,377.3
			c1.8,1.2,3.4,2.7,4.8,4.4l-1.4,1.2c-1.3-1.8-2.9-3.4-4.7-4.6L801.4,377.3z"/>
		<path class="st3" d="M818.8,382.4h-3.6c-0.7,0-1.4,0-2.1,0.1v-1.7c0.7,0.1,1.4,0.1,2.1,0.1h8.5c0.7,0,1.4,0,2.1-0.1v1.7
			c-0.7-0.1-1.4-0.1-2.1-0.1h-3.4v3.2h4c0.7,0,1.4,0,2-0.1v1.7c-0.7-0.1-1.4-0.1-2-0.1h-4v4.4c1.1,0.2,2.3,0.2,3.4,0.2
			c1.6,0,3-0.1,4.9-0.2c-0.2,0.5-0.4,1.1-0.5,1.7c-1.6,0.1-2.1,0.1-4.1,0.1c-5.2,0-8-1.2-9.6-4c-0.7,1.7-1.8,3.3-3.1,4.6
			c-0.3-0.5-0.8-0.9-1.3-1.2c1.2-1,2.1-2.3,2.8-3.7c0.7-1.5,1.2-3.1,1.3-4.8V384l1.7,0.3c-0.1,0.3-0.1,0.3-0.3,1.1
			c0,0.3-0.3,1.4-0.6,2.1c0.7,1.6,2.1,2.8,3.7,3.4L818.8,382.4z M818.5,376.2c0-0.4,0-0.9-0.2-1.3h1.9c-0.1,0.4-0.1,0.9-0.1,1.3v1h6
			c0.8,0,1.5,0,2.2-0.1c-0.1,0.5-0.1,1-0.1,1.5v1.4c0,0.5,0,1,0.1,1.5h-1.6v-2.9h-14.4v2.9h-1.7c0.1-0.5,0.1-1,0.1-1.6v-1.4
			c0-0.5,0-1-0.1-1.5c0.7,0.1,1.3,0.1,2.2,0.1h5.7L818.5,376.2z"/>
		<path class="st3" d="M834.2,377c0-0.6,0-1.3-0.1-1.9h1.7c-0.1,0.7-0.1,1.3-0.1,2v0.4h3.6V377c0-0.6,0-1.3-0.1-1.9h1.7
			c-0.1,0.7-0.1,1.3-0.1,2v0.4c0.6,0,1.1,0,1.7-0.1v1.6c-0.6-0.1-1.1-0.1-1.7-0.1v8.7c0.5,0,1,0,1.6-0.1v1.5c-0.5,0-1.1-0.1-1.9-0.1
			h-6.7c-0.6,0-1.1,0-1.7,0.1v-1.6c0.6,0.1,1.1,0.1,1.7,0.1h0.5v-8.7c-0.6,0-1.2,0-1.8,0.1v-1.6c0.6,0.1,1.2,0.2,1.7,0.1h0.1
			L834.2,377z M836.7,390.2c-0.8,1.5-1.9,2.7-3.3,3.7c-0.3-0.5-0.7-0.9-1.2-1.2c1.3-0.8,2.4-1.9,3.1-3.3L836.7,390.2z M839.4,380.7
			v-2h-3.6v2H839.4z M839.4,384v-2h-3.6v2H839.4z M839.4,387.5v-2.2h-3.6v2.2H839.4z M839.3,389.5c0.5,0.8,1.2,1.6,2,2.2
			c-0.4,0.3-0.8,0.7-1.1,1.1c-0.8-0.7-1.5-1.5-2.1-2.5L839.3,389.5z M844.7,387.2c0,2.5-0.9,4.8-2.4,6.8c-0.3-0.5-0.8-0.9-1.3-1.2
			c1.1-1.2,1.8-2.8,2-4.5c0.3-3.3,0.5-6.7,0.4-10c0-0.8,0-1.7-0.1-2.5c0.7,0.1,1.4,0.1,2.1,0.1h3c0.7,0,1.4,0,2.1-0.1
			c-0.1,0.7-0.1,1.4-0.1,2.1V392c0,1.4-0.5,1.8-2.4,1.8c-0.5,0-1.1,0-1.6-0.1c-0.1-0.6-0.2-1.2-0.4-1.7c0.7,0.2,1.5,0.2,2.2,0.2
			c0.5,0,0.7-0.1,0.7-0.5v-4.6L844.7,387.2z M844.9,382.2c0,1.2-0.1,2.5-0.1,3.6h4v-3.6H844.9z M848.8,377.4h-3.9v3.4h3.9V377.4z"/>
		<path class="st3" d="M858,391.6c0,0.8,0,1.6,0.1,2.5h-1.8c0.1-0.9,0.1-1.7,0.1-2.6v-6.7c0-1.2,0-1.5,0.1-2.5c-0.5,1-1.1,2-1.8,2.9
			c-0.2-0.6-0.5-1.1-0.9-1.5c1.5-1.8,2.7-3.8,3.4-6c0.4-1,0.7-2,0.8-3l1.6,0.5c-0.1,0.3-0.2,0.7-0.4,1.2c-0.4,1.2-0.8,2.3-1.3,3.4
			L858,391.6z M861.9,377.4c-0.7,0-1.3,0-2,0.1v-1.6c0.7,0.1,1.4,0.1,2.2,0.1h9.3c0.7,0,1.5,0,2.2-0.1v1.7c-0.7-0.1-1.3-0.1-2-0.1
			H867v1.9h3.5c0.6,0,1.3,0,1.9-0.1c-0.1,0.7-0.1,1.5-0.1,2.2v3.6c0,0.7,0,1.5,0.1,2.2c-0.6-0.1-1.2-0.1-1.7-0.1h-4.1
			c-0.2,1.1-0.6,2.1-1.2,3c2.6,1.3,5.5,1.9,8.4,1.9c-0.3,0.5-0.5,1.1-0.6,1.7c-3.1,0-6.1-0.9-8.7-2.4c-1.4,1.2-3.1,2.1-4.9,2.6
			c-0.2-0.5-0.4-1-0.7-1.4c1.6-0.3,3.1-1,4.3-2c-0.3-0.2-0.6-0.4-0.8-0.6l-0.7-0.6c-0.2-0.2-0.4-0.4-0.7-0.6l1.3-0.9
			c0.6,0.6,1.2,1.2,1.9,1.6c0.4-0.7,0.7-1.4,0.9-2.2h-3.3c-0.5,0-1,0-1.5,0.1c0.1-0.7,0.1-1.4,0.1-2.1v-3.8c0-0.7,0-1.4-0.1-2.1
			c0.6,0.1,1.3,0.1,1.9,0.1h3.3v-1.9L861.9,377.4z M861.8,380.6v1.8h3.6c0-0.7,0-0.8,0-1.8H861.8z M861.8,383.7v2h3.4
			c0.1-0.7,0.1-1.3,0.2-2H861.8z M866.9,383.7c0,0.9-0.1,1.4-0.1,2h4.1v-2H866.9z M867,380.6c0,0.7,0,0.9,0,1.8h3.8v-1.8H867z"/>
		<path class="st3" d="M883.3,378c0.5-0.9,0.8-1.8,0.9-2.8l2,0.3c-0.2,0.3-0.4,0.7-0.5,1.1c-0.2,0.5-0.4,1-0.6,1.4
			c0.2,0,0.2,0,1.3-0.1c1.9-0.1,3.8-0.3,5.7-0.7l0.1,1.7c-0.4,0-0.4,0-1.6,0.2c-1.5,0.2-4.2,0.4-6.2,0.4c-0.5,0.9-1,1.8-1.7,2.7
			c-0.2,0.3-0.4,0.5-0.7,0.8c-0.1,0.1-0.2,0.1-0.2,0.2l0,0v0.1c0.1-0.1,0.2-0.2,0.3-0.2c0.2-0.2,0.5-0.4,0.7-0.5
			c0.9-0.6,1.9-0.9,2.9-0.9c1.4-0.1,2.7,0.9,2.8,2.3c1.7-0.6,2.5-1,3.5-1.3c0.5-0.1,1-0.3,1.5-0.6l0.8,1.7c-1.9,0.4-3.8,1-5.6,1.8
			c0,0.7,0,0.8,0,1.2c0,0.2,0,0.7,0,1.1v0.9c0,0.3,0,0.6,0,0.9H887c0.1-0.9,0.1-1.9,0.1-2.8v-0.6c-0.9,0.4-1.7,0.8-2.5,1.4
			c-0.7,0.4-1.2,1.2-1.2,2c0,1.3,1.2,1.9,4.2,1.9c1.9,0,3.9-0.2,5.7-0.8l0.2,1.9c-0.3,0-0.6,0-0.9,0.1c-1.7,0.3-3.5,0.4-5.2,0.4
			c-1.5,0.1-3-0.2-4.3-0.8c-0.9-0.5-1.5-1.5-1.4-2.5c0-1.2,0.7-2.3,2.2-3.4c1-0.7,2-1.2,3.1-1.7c-0.1-1-0.6-1.5-1.6-1.5
			c-1.7,0.2-3.3,1-4.6,2.2c-0.7,0.5-1.2,1.1-1.7,1.8l-1.4-1.4c1.9-1.7,3.4-3.6,4.6-5.8c0.1-0.1,0.1-0.2,0.2-0.3h-0.4
			c-0.4,0-2.5,0-2.9-0.1c-0.1,0-0.3,0-0.4,0c-0.1,0-0.3,0-0.4,0V378c1.5,0.2,3,0.3,4.5,0.2L883.3,378z"/>
		<path class="st3" d="M367.9,424.1c-0.3,0-0.5,0.1-0.8,0.1c-1.9,0.3-3.8,0.5-5.7,0.5c-1.7,0.1-3.4-0.2-5-0.7
			c-1.5-0.4-2.5-1.7-2.5-3.3c0-1.4,0.8-2.7,2.5-4.2l1.3,1c-1.4,1.1-2,2.1-2,3s0.6,1.6,1.7,1.9c1.2,0.3,2.5,0.4,3.8,0.4
			c2.2,0.1,4.3-0.2,6.4-0.8L367.9,424.1z M355.3,409.5c1.9,0.4,3.8,0.6,5.6,0.5c1.9,0.1,3.7-0.1,5.5-0.4l0.1,1.7
			c-1.9,0.9-3.7,2-5.4,3.3l-1.3-1c1.4-0.9,1.8-1.1,2.6-1.6l0.5-0.3c0.1-0.1,0.3-0.1,0.4-0.2c-1,0.2-2.1,0.2-3.1,0.2
			c-1.5,0-3-0.1-4.5-0.3c-0.4,0-0.4,0-0.7-0.1L355.3,409.5z M365.7,413c0.8,0.8,1.5,1.8,2,2.8l-1.2,0.7c-0.5-1-1.2-1.9-2-2.8
			L365.7,413z M367.7,411.9c0.8,0.8,1.5,1.7,2,2.7l-1.2,0.7c-0.5-1-1.2-1.9-2-2.7L367.7,411.9z"/>
		<path class="st3" d="M378.2,410.3c-1.4,0.3-1.9,0.4-3.4,0.7c-0.1-0.5-0.4-1-0.7-1.4c2.2-0.2,4.4-0.7,6.5-1.5
			c0.6-0.2,1.1-0.4,1.6-0.7l1.1,1.3l-0.9,0.3c-1,0.3-1.6,0.5-2.6,0.8v3.1h1.9c0.6,0,1.2,0,1.8-0.1v1.6c-0.6-0.1-1.2-0.1-1.8-0.1
			h-1.9c0.8,1.7,2,3.3,3.5,4.5c-0.4,0.4-0.7,0.9-0.9,1.4c-1.2-1.1-2.2-2.5-2.9-4c0.1,0.8,0.1,2.1,0.1,3.4v4.2c0,0.9,0,1.7,0.1,2.6
			h-1.8c0.1-0.9,0.2-1.7,0.1-2.6v-4c0-1.2,0-2.2,0.1-3.4c-0.8,2.3-2.1,4.4-3.8,6.2c-0.2-0.5-0.6-1-1-1.5c1.1-1,2-2.1,2.7-3.4
			c0.6-1.1,1.2-2.2,1.6-3.4h-1.8c-0.7,0-1.3,0-2,0.1v-1.7c0.7,0.1,1.3,0.2,2,0.1h2.1L378.2,410.3z M386.7,408.7
			c-0.1,0.8-0.2,1.6-0.1,2.5v8.1c0,0.8,0,1.7,0.1,2.5h-1.8c0.1-0.8,0.1-1.6,0.1-2.5v-8.1c0-0.8,0-1.7-0.1-2.5H386.7z M391.9,407.5
			c-0.1,0.9-0.2,1.8-0.1,2.7V424c0,1.6-0.6,2-2.9,2c-0.4,0-1,0-2-0.1c-0.1-0.6-0.3-1.1-0.5-1.7l0.6,0.1c0.7,0.1,1.4,0.1,2.2,0.1
			c0.8,0,1-0.1,1-0.6v-13.6c0-0.9,0-1.8-0.1-2.7L391.9,407.5z"/>
		<path class="st3" d="M406.3,423.5c0,0.8,0,1.6,0.1,2.4h-1.8c0.1-0.8,0.1-1.6,0.1-2.3v-3.9h-5.5c-0.1,2.4-0.9,4.8-2.2,6.8
			c-0.4-0.4-0.9-0.8-1.5-1.1c1.9-2.6,2.3-4.9,2.3-14.7c0-1.1,0-1.8-0.1-2.5c0.6,0.1,1.2,0.1,2.3,0.1h11.5c0.8,0,1.5,0,2.3-0.1
			c-0.1,0.7-0.1,1.4-0.1,2.1v14c0,1.5-0.5,1.8-2.7,1.8c-0.7,0-1.6,0-2.5-0.1c-0.1-0.5-0.2-1.1-0.4-1.6c1,0.1,1.9,0.2,2.9,0.2
			s1.1-0.1,1.1-0.6v-4.5h-5.9v4H406.3z M399.4,414.7c0,0.6,0,1.1,0,1.4c0,1.1,0,1.1-0.1,2.1h5.4v-3.5H399.4z M404.8,409.8h-5.3v2.4
			v1h5.3V409.8z M412.2,413.3v-3.5h-5.9v3.4L412.2,413.3z M406.3,418.1h5.9v-3.5h-5.9V418.1z"/>
		<path class="st3" d="M430.9,422.4c2.1-1.1,3.4-3.3,3.3-5.6c0.1-2.2-1.1-4.2-3.1-5.1c-0.7-0.4-1.5-0.6-2.4-0.6
			c-0.3,2.9-1,5.7-2.1,8.4c-1.2,2.8-2.5,4-4,4c-2.1,0-3.7-2.3-3.7-5.3c0-2.2,0.8-4.3,2.3-5.9c1.8-1.9,4.3-2.9,6.9-2.8
			c4.8,0,8,3,8,7.4c0.1,3.1-1.7,6-4.6,7.3c-1.1,0.5-2.3,0.9-3.5,1.1c-0.2-0.6-0.5-1.2-0.9-1.7C428.4,423.4,429.7,423,430.9,422.4z
			 M423.9,412.1c-2.1,1.3-3.3,3.6-3.3,6.1c0,1.9,0.8,3.4,1.9,3.4c0.8,0,1.6-1,2.5-3c1-2.4,1.6-5,1.9-7.6
			C425.8,411.2,424.8,411.5,423.9,412.1L423.9,412.1z"/>
		<path class="st3" d="M451.6,412.6c-0.4,0.1-0.8,0.1-1.2,0.2c-1,0.2-2,0.4-3.1,0.5v3.4c1.4-0.5,3-0.7,4.5-0.7
			c1.3,0,2.6,0.3,3.8,0.9c1.3,0.8,2.2,2.3,2.2,3.9c0.1,2.4-1.9,4.4-4.3,4.5c-0.1,0-0.1,0-0.2,0c-1.5,0.1-2.9-0.9-3.3-2.4
			c-0.2-0.8-0.3-1.6-0.3-2.5c0.6-0.1,1.1-0.4,1.7-0.7c0,0.4,0,0.6,0,0.8c0,0.7,0.1,1.4,0.2,2c0.3,0.7,1,1.1,1.8,1.1
			c1.5,0,2.6-1.2,2.6-2.6c0-0.1,0-0.1,0-0.2c0-2-1.7-3.3-4.3-3.3c-1.5,0-3,0.3-4.4,0.8v4.5c0,0.5,0,1-0.1,1.5
			c-0.2,0.7-0.9,1.1-1.6,1.1c-1.3,0-2.6-0.5-3.6-1.4c-0.6-0.5-1-1.3-1-2.1c0.1-1.2,0.7-2.2,1.7-2.9c0.9-0.7,1.9-1.3,3-1.8v-3.8h-0.9
			c-0.4,0-0.8,0-1.2,0h-1.2c-0.2,0-0.4,0-0.5,0s-0.3,0-0.4,0v-1.7c0.7,0.1,1.5,0.2,2.3,0.2c0.5,0,0.5,0,1.9-0.1V410
			c0-0.7,0-1.4-0.1-2.1h1.9c-0.1,0.7-0.1,1.3-0.1,2v1.8c1.4-0.1,2.8-0.4,4.2-0.9V412.6z M445.7,418.9c-2,1-3.1,2.1-3.1,3
			c0,0.4,0.3,0.8,0.8,1.2c0.5,0.3,1.1,0.5,1.8,0.6c0.4,0,0.5-0.2,0.5-1L445.7,418.9L445.7,418.9z M457.3,414.9
			c-1.2-1.6-2.6-3.1-4.3-4.2l1.4-1c1.6,1.1,3.1,2.5,4.2,4.1L457.3,414.9z"/>
		<path class="st3" d="M465.7,421.7c0-0.5,0-0.8,0-1.2c-1,0.3-1.5,0.5-2.8,0.8c-0.2-0.5-0.4-1-0.8-1.5c3-0.5,5.8-1.4,8.5-2.9
			c-0.9-0.6-1.8-1.4-2.6-2.2c-1.2,1.1-2.5,2-4,2.7c-0.3-0.5-0.6-0.9-1-1.2c2.1-0.9,4-2.3,5.5-4c0.4-0.4,0.7-0.9,1-1.5l1.6,0.5
			c-0.1,0.1-0.2,0.2-0.3,0.4c-0.1,0.1-0.2,0.3-0.6,0.7h4.4c0.6,0,1.3,0,1.9-0.1l1,0.9c-0.1,0.1-0.2,0.2-0.4,0.4
			c-1.2,1.2-2.5,2.3-3.9,3.3c2.6,1.4,5.4,2.3,8.3,2.6c-0.3,0.5-0.6,1.1-0.7,1.6c-1.3-0.3-1.7-0.4-2.8-0.7c0,0.4,0,0.7,0,1.2v2.9
			c0,0.6,0,1.2,0.1,1.9h-1.8v-0.8h-9v0.8h-1.7c0.1-0.6,0.1-1.2,0.1-1.9L465.7,421.7z M470.7,408.8c0-0.5,0-1-0.1-1.5h1.9
			c-0.1,0.5-0.1,1-0.1,1.5v0.5h5.8c0.8,0,1.6,0,2.4-0.1c-0.1,0.5-0.1,1-0.1,1.5v1.4c0,0.5,0,1,0.1,1.5H479v-2.8h-14.5v2.8h-1.6
			c0.1-0.5,0.1-1,0.1-1.5v-1.4c0-0.5,0-1-0.1-1.5c0.8,0.1,1.5,0.1,2.3,0.1h5.6L470.7,408.8L470.7,408.8z M476.1,420.1h0.7
			c-1.7-0.5-3.4-1.3-5-2.3c-1.5,0.9-3.2,1.7-4.8,2.3H476.1z M467.3,424.2h9v-2.8h-9V424.2z M469,413.8c0.9,0.9,1.8,1.7,2.9,2.4
			c1.1-0.7,2.1-1.6,3.1-2.5h-5.8L469,413.8z"/>
		<path class="st3" d="M492.5,417.5c-0.6,0-1.2,0-1.8,0.1v-1.4c-0.3,0.4-0.6,0.8-0.8,1.3c-0.5-0.9-0.9-1.8-1.3-2.7
			c0.1,1.7,0.1,2.6,0.1,3.3v6.1c0,0.8,0,1.7,0.1,2.5H487c0.1-0.8,0.1-1.7,0.1-2.5v-5.5c0-0.7,0.1-2.2,0.1-3.4
			c-0.3,1.3-0.7,2.5-1.3,3.7c-0.4,0.8-0.8,1.5-1.3,2.2c-0.2-0.6-0.5-1.2-0.9-1.7c0.8-1,1.4-2,1.9-3.2c0.5-1.1,0.9-2.3,1.2-3.5h-1
			c-0.5,0-1,0-1.4,0.1v-1.6c0.5,0.1,1,0.1,1.4,0.1h1.2v-1.9c0-0.7,0-1.5-0.1-2.2h1.8c-0.1,0.7-0.1,1.4-0.1,2.2v1.9h0.7
			c0.4,0,0.9,0,1.3-0.1v1.5c-0.4,0-0.9-0.1-1.3-0.1h-0.6c0.4,1.2,1.1,2.3,1.9,3.3c0.6,0.1,1.3,0.1,1.9,0.1h3.1v-1.7h-2.3
			c-0.6,0-1.3,0-1.9,0.1V413c0.6,0.1,1.2,0.1,1.8,0.1h2.3v-1.7H493c-0.6,0-1.3,0-1.9,0.1V410c0.6,0.1,1.3,0.1,1.9,0.1h0.9
			c-0.3-0.8-0.8-1.6-1.3-2.2l1.4-0.5c0.6,0.9,1.1,1.8,1.4,2.8h2.2c0.6-0.9,1.1-1.8,1.4-2.8l1.6,0.5c-0.5,0.9-1,1.8-1.3,2.3h1.6
			c0.7,0,1.3,0,2-0.1v1.6c-0.7-0.1-1.3-0.1-2-0.1h-3.7v1.6h3c0.7,0,1.3,0,2-0.1v1.5c-0.7-0.1-1.3-0.1-2-0.1h-3v1.7h3.9
			c0.7,0,1.3,0,2-0.1v1.6c-0.7-0.1-1.3-0.1-2-0.1h-3.7c0.4,1.1,0.9,2.1,1.6,3c0.9-0.8,1.6-1.6,2.2-2.6l1.3,0.9
			c-0.8,1-1.6,1.9-2.6,2.8c1.1,1.2,2.4,2.1,3.9,2.8c-0.4,0.4-0.7,0.9-1,1.5c-1.1-0.6-2.1-1.4-2.9-2.3c-1.1-1.2-2-2.5-2.6-4
			c0.1,0.9,0.1,1.5,0.1,1.9v3.7c0,1.2-0.5,1.5-2.2,1.5c-0.6,0-1.1,0-1.7-0.1c0-0.5-0.2-1.1-0.4-1.5c0.7,0.1,1.3,0.2,2,0.2
			c0.6,0,0.8-0.1,0.8-0.5v-2.7c-1.4,1-2.9,2-4.4,2.7c-0.3,0.2-0.6,0.4-0.9,0.6l-0.7-1.6c0.6-0.2,1.3-0.4,1.8-0.7
			c1.5-0.7,2.9-1.5,4.2-2.5v-2.9h-3.4V417.5z M492.1,417.9c0.7,0.8,1.4,1.6,2,2.5l-1.2,0.8c-0.5-0.9-1.2-1.8-2-2.5L492.1,417.9z"/>
		<path class="st3" d="M508.8,408.6c0.6,0.1,1.2,0.1,1.9,0.1h1.5c0.6,0,1.2,0,1.9-0.1c-0.1,1.2-0.2,2.3-0.2,3.5v10.4
			c0,0.8,0,1.7,0.2,2.5h-2.3c0.1-0.8,0.2-1.7,0.2-2.5v-12h-1.1c-0.6,0-1.3,0-1.9,0.1L508.8,408.6z"/>
		<path class="st3" d="M531.3,412.3c-0.4-1.4-1.7-2.4-3.1-2.3c-1.6,0-3,1-3.5,2.5c-0.6,1.4-0.9,2.8-0.9,4.3c0.3-0.5,0.6-1,1.1-1.3
			c1-0.8,2.2-1.2,3.4-1.2c3.3,0,5.4,2.1,5.4,5.3c0.1,2.9-2.1,5.4-5,5.5c-0.2,0-0.4,0-0.6,0c-1.5,0.1-2.9-0.4-4-1.4
			c-1.4-1.3-2.2-3.7-2.2-6.7c-0.1-2.3,0.5-4.5,1.6-6.4c1.1-1.5,2.9-2.4,4.7-2.4c1.4-0.1,2.8,0.4,3.8,1.4c0.5,0.6,1,1.3,1.3,2
			L531.3,412.3z M524.2,419.7c0,2.1,1.6,3.8,3.7,3.8c0.1,0,0.1,0,0.2,0c1.3,0,2.5-0.6,3.2-1.6c0.4-0.7,0.5-1.4,0.5-2.1
			c0.2-1.9-1.2-3.5-3-3.7c-0.2,0-0.4,0-0.6,0c-2.1-0.1-3.8,1.4-4,3.5C524.2,419.6,524.2,419.7,524.2,419.7L524.2,419.7z"/>
		<path class="st3" d="M539.2,408.6c0.6,0.1,1.2,0.1,1.9,0.1h1.5c0.6,0,1.3,0,1.9-0.1c-0.1,1.2-0.2,2.3-0.2,3.5v10.4
			c0,0.8,0,1.7,0.2,2.5h-2.3c0.1-0.8,0.2-1.7,0.2-2.5v-12h-1.1c-0.6,0-1.3,0-1.9,0.1L539.2,408.6z"/>
		<path class="st3" d="M558.6,412.8c1.1,0.6,2.1,1.4,3,2.2c1.5-1.3,2.8-2.7,3.9-4.2h-6.2c-1.6,1.9-3.6,3.4-5.7,4.6
			c-0.3-0.5-0.6-0.9-1-1.2c1.9-1,3.6-2.3,5.1-3.8c1-1,1.8-2.1,2.4-3.4l1.7,0.6c-0.6,0.8-0.8,1.1-1.3,1.8h4.6c0.6,0,1.3,0,1.9-0.1
			l0.9,1c-0.3,0.3-0.5,0.6-0.7,0.9c-1.9,2.5-4.1,4.7-6.7,6.5h7.5c0.5,0,1.1,0,1.6-0.1c-0.1,0.6-0.1,1.2-0.1,1.8v5.2
			c0,0.6,0,1.3,0.1,1.9h-1.8v-1.1h-8.5v1.2h-1.7c0.1-0.6,0.1-1.3,0.1-1.9v-5c-1.4,0.9-2.9,1.6-4.5,2.3c-0.2-0.6-0.6-1.1-1-1.5
			c2.9-1,5.7-2.5,8.1-4.4c-0.9-0.9-1.9-1.7-2.9-2.3L558.6,412.8z M559.3,423.9h8.6v-4.7h-8.6V423.9z"/>
		<path class="st3" d="M577.8,422.2c0.3-1.3,0.7-2.6,1.2-3.9l1.3,0.6c-0.9,1.9-1.5,3.9-1.8,5.9c0,0.1,0,0.3,0,0.4l-1.8,0.1
			c0-0.3-0.1-0.5-0.1-0.9c-0.4-2-0.6-4-0.5-6c0-2.8,0.3-5.6,0.9-8.3c0.1-0.6,0.2-1.2,0.3-1.8l2,0.3c-0.5,1.4-0.8,2.8-1,4.2
			c-0.3,2.1-0.5,4.3-0.5,6.4c0,0.4,0,1.4,0,2S577.7,421.8,577.8,422.2L577.8,422.2z M584.7,417.2c-0.9,0.8-1.5,1.9-1.6,3.1
			c0,1.4,1.3,2.1,3.8,2.1c1.7,0,3.3-0.2,4.9-0.7l0.2,1.9c-0.3,0-0.3,0-0.8,0.1c-1.4,0.3-2.9,0.4-4.3,0.4c-2.5,0-4.1-0.5-4.9-1.7
			c-0.4-0.6-0.6-1.3-0.6-2c0.1-1.5,0.8-2.9,1.9-4L584.7,417.2z M581.8,410.7c1.2,0.2,2.4,0.4,3.6,0.3c1.9,0.1,3.9-0.1,5.8-0.6
			l0.1,1.8l-1.4,0.2c-1.5,0.2-3,0.3-4.5,0.3c-0.9,0-1.9-0.1-2.8-0.1h-0.4h-0.3L581.8,410.7z"/>
		<path class="st3" d="M608.9,412.4v-2c0-0.7,0-1.4-0.1-2.1h2c-0.1,0.7-0.1,1.3-0.1,2v2.1h1.7c0.9,0,1.7,0,2.6-0.1v1.9
			c-0.8-0.1-1.7-0.1-2.5-0.1h-1.7c0,1.3,0,2.6-0.2,3.8c-0.1,2.3-1.2,4.4-3,5.8c-1.1,0.9-2.5,1.6-3.9,2.1c-0.3-0.6-0.6-1.1-1.1-1.6
			c1.5-0.3,2.8-1,4-2c1.4-1.3,2-2.7,2.2-5.2c0-0.6,0.1-1.3,0.1-2.9h-6.1v3c0,0.7,0,1.4,0.1,2.1h-2c0.1-0.7,0.1-1.4,0.1-2.1v-3h-1.6
			c-0.8,0-1.7,0-2.5,0.1v-1.9c0.8,0.1,1.7,0.2,2.5,0.1h1.6v-2.2c0-0.7,0-1.3-0.1-2h2c-0.1,0.6-0.1,1.3-0.1,1.9v2.2L608.9,412.4z"/>
		<path class="st3" d="M620.3,422.9c2.1-0.2,4.2-0.7,6.2-1.6c4-1.8,7.1-5.2,8.5-9.4c0.4,0.6,0.9,1.1,1.6,1.5
			c-1.3,3.3-3.6,6.1-6.5,8.1c-2.4,1.6-5.1,2.6-7.9,3.2c-0.4,0.1-0.9,0.2-1.3,0.3L620.3,422.9z M621.8,409.8c1.9,1.1,3.6,2.5,5.2,4
			l-1.3,1.6c-1.5-1.6-3.2-3-5.1-4.2L621.8,409.8z"/>
		<path class="st3" d="M654.9,410.1h0.5c0-0.1,0-0.2,0-0.2c0-1.2,1-2.2,2.2-2.2s2.2,1,2.2,2.2s-1,2.2-2.2,2.2c-0.1,0-0.3,0-0.4,0
			c-0.6,2.4-1.6,4.7-2.9,6.7c-1.4,2-3.2,3.6-5.2,4.9c-1.2,0.8-2.6,1.4-3.9,1.9c-0.3-0.7-0.7-1.3-1.3-1.8c1.7-0.5,3.3-1.2,4.7-2.2
			c3.4-2.3,5.4-5.3,6.6-9.8h-10.4c-0.9,0-1.7,0-2.6,0.1v-2c0.9,0.1,1.7,0.2,2.6,0.1L654.9,410.1L654.9,410.1z M656.3,409.8
			c0,0.7,0.6,1.3,1.3,1.3l0,0c0.7,0.1,1.3-0.5,1.4-1.2s-0.5-1.3-1.2-1.4c-0.1,0-0.2,0-0.2,0C656.9,408.5,656.3,409.1,656.3,409.8
			L656.3,409.8L656.3,409.8z"/>
		<path class="st3" d="M669.2,408.9c-0.1,0.6-0.1,1.2-0.1,1.9c-0.2,5.8-0.3,7.4-1.1,9.5c-0.8,2-2,3.8-3.6,5.3
			c-0.4-0.6-0.9-1.1-1.5-1.4c1.6-1.2,2.8-2.9,3.5-4.8s0.9-4.5,0.9-8.9c0-0.6,0-1.1-0.1-1.7L669.2,408.9z M674.5,408.6
			c-0.1,0.7-0.2,1.5-0.2,2.2l-0.1,12.2c1.4-0.5,2.7-1.3,3.7-2.4c1.1-1.2,1.9-2.6,2.4-4.1c0.4,0.6,0.9,1,1.4,1.5
			c-0.9,2.2-2.4,4.1-4.3,5.5c-0.9,0.6-1.9,1.1-3,1.5c-0.2,0.1-0.5,0.2-0.7,0.2s-0.3,0.1-0.5,0.2l-1-1.1c0.1-0.5,0.2-1.1,0.2-1.7
			l0.1-11.9v-0.5c0-0.6,0-1.2-0.1-1.7L674.5,408.6z"/>
		<path class="st3" d="M685,411c0.6,0.1,1.1,0.1,1.7,0.1h3.5c0.6,0,1.1,0,1.7-0.1v1.6c-0.5-0.1-1-0.1-1.5-0.1h-3.6
			c-0.6,0-1.1,0-1.7,0.1V411H685z M685.5,426.5c0.1-0.6,0.1-1.4,0.1-2v-3c0-0.6,0-1.1-0.1-1.7c0.5,0.1,0.9,0.1,1.4,0.1h3
			c0.7,0,1.1,0,1.3,0c-0.1,0.5-0.1,1.1-0.1,1.6v3.4c0,0.7,0,1,0,1.4h-1.3v-0.9H687v1.2L685.5,426.5z M685.6,414
			c0.5,0.1,0.9,0.1,1.4,0.1h2.8c0.5,0,0.9,0,1.4-0.1v1.5c-0.5-0.1-0.9-0.1-1.4-0.1H687c-0.5,0-0.9,0-1.4,0.1V414z M685.6,416.9
			c0.5,0.1,0.9,0.1,1.4,0.1h2.8c0.5,0,0.9,0,1.4-0.1v1.5c-0.5-0.1-0.9-0.1-1.4-0.1H687c-0.5,0-0.9,0-1.4,0.1V416.9z M685.6,408.1
			c0.5,0.1,1.1,0.1,1.6,0.1h2.5c0.5,0,1.1,0,1.6-0.1v1.6c-0.5-0.1-1.1-0.1-1.6-0.1h-2.5c-0.5,0-1.1,0-1.6,0.1V408.1z M687,424h2.8
			v-2.8H687V424z M703.3,424.5c0.1,0.5-0.2,1.1-0.6,1.4c-0.5,0.3-1.2,0.4-1.8,0.3c-0.5,0-1,0-2-0.1c0-0.5-0.1-1.1-0.3-1.6
			c0.8,0.1,1.6,0.2,2.4,0.2c0.7,0,0.8-0.1,0.8-0.6v-14.7h-7.6v2.4c0.1,3.5-0.1,7-0.5,10.5c-0.2,1.4-0.6,2.7-1.2,4
			c-0.4-0.4-0.8-0.8-1.3-1c0.6-1.2,1-2.6,1.1-3.9c0.3-3.3,0.5-6.7,0.4-10c0-1.1,0-2.3-0.1-3.4c0.7,0.1,1.4,0.1,2.1,0.1h6.6
			c0.7,0,1.4,0,2.1-0.1c-0.1,0.7-0.1,1.4-0.1,2.2L703.3,424.5L703.3,424.5z M696.3,413.1c-0.5,0-1,0-1.4,0.1v-1.4
			c0.5,0.1,0.9,0.1,1.4,0.1h0.9v-0.2c0-0.5,0-1-0.1-1.6h1.6c-0.1,0.5-0.1,1.1-0.1,1.6v0.2h1c0.5,0,1,0,1.5-0.1v1.4
			c-0.5-0.1-1-0.1-1.5-0.1h-1v2h1.2c0.5,0,1,0,1.5-0.1v1.5c-0.5-0.1-1-0.1-1.4-0.1H696c-0.5,0-0.9,0-1.4,0.1V415
			c0.4,0.1,0.9,0.1,1.4,0.1h1.2v-2H696.3z M699,417.8c0.5,0,1,0,1.5-0.1c-0.1,0.4-0.1,0.9-0.1,1.3v2.7c0,0.4,0,0.9,0.1,1.3
			c-0.5,0-1-0.1-1.5-0.1h-2.5v1.5h-1.4c0.1-0.5,0.1-1.1,0.1-1.6V419c0-0.5,0-0.9-0.1-1.4c0.5,0.1,1,0.1,1.4,0.1L699,417.8z
			 M696.5,421.8h2.6v-2.7h-2.6V421.8z"/>
		<path class="st3" d="M715.5,409c0-0.6,0-1.1-0.1-1.7h1.8c-0.1,0.5-0.2,1.1-0.1,1.6v0.4h6.3c0.7,0,1.5,0,2.2-0.1v1.7
			c-0.7-0.1-1.5-0.1-2.2-0.1h-4.9c2.2,2.2,4.9,3.7,7.9,4.3c-0.4,0.5-0.7,1-1,1.6c-1.1-0.4-2.1-0.8-3.1-1.3c0,0.4-0.1,1.3-0.1,2.1
			v6.8h1.4c0.7,0,1.5,0,2.2-0.1v1.7c-0.8-0.1-1.5-0.1-2.3-0.1h-14.1c-0.8,0-1.6,0-2.3,0.1v-1.7c0.7,0.1,1.5,0.1,2.2,0.1h1.3v-7
			c0-0.9,0-1.4-0.1-2c-0.9,0.5-1.9,1-2.9,1.3c-0.3-0.5-0.6-1-1-1.4c2.8-0.9,5.4-2.4,7.4-4.5h-4.5c-0.7,0-1.5,0-2.2,0.1v-1.7
			c0.8,0.1,1.5,0.1,2.3,0.1h5.9L715.5,409z M715.5,412.5c0-0.4,0-0.8,0-1.3c-1.3,1.6-2.9,3-4.8,4c0.5,0,1.3,0,2,0h7.2
			c0.8,0,1.1,0,1.9,0c-1.9-1-3.6-2.3-4.9-4c0,0.1,0,0.5,0.1,1.3v0.9c0,0.5,0,0.9,0.1,1.4h-1.7c0.1-0.5,0.1-0.9,0.1-1.4L715.5,412.5z
			 M712.2,418.3h8.5v-1.6h-8.5V418.3z M712.2,421.3h8.5v-1.6h-8.5V421.3z M712.2,424.3h8.5v-1.7h-8.5V424.3z"/>
		<path class="st3" d="M735.6,410.6c0.5-0.9,0.8-1.8,1-2.8l2,0.3c-0.2,0.3-0.4,0.7-0.5,1.1c-0.2,0.5-0.5,0.9-0.7,1.4
			c0.1,0,0.1,0,1.3-0.1c1.9-0.1,3.8-0.3,5.7-0.7l0.1,1.7c-0.4,0-0.4,0-1.6,0.2c-1.5,0.2-4.1,0.4-6.2,0.4c-0.5,0.9-1,1.8-1.7,2.7
			c-0.2,0.3-0.4,0.5-0.7,0.8c-0.1,0.1-0.2,0.1-0.2,0.2l0,0c0,0,0,0,0,0.1c0.1-0.1,0.2-0.1,0.3-0.2c0.2-0.2,0.5-0.4,0.7-0.5
			c0.9-0.6,1.9-0.9,2.9-0.9c1.4-0.1,2.7,0.9,2.8,2.3c1.6-0.6,2.5-1,3.5-1.3c0.5-0.1,1-0.3,1.5-0.6l0.8,1.7c-1.9,0.4-3.8,1-5.6,1.8
			c0,0.7,0,0.8,0,1.2c0,0.2,0,0.7,0,1.1v0.9c0,0.3,0,0.6,0,0.9h-1.7c0.1-0.4,0.1-1.7,0.1-2.8v-0.7c-0.9,0.4-1.7,0.8-2.5,1.4
			c-0.7,0.4-1.2,1.2-1.2,2c0,1.3,1.2,1.9,4.2,1.9c1.9,0,3.9-0.3,5.7-0.9l0.2,1.9c-0.3,0-0.6,0-0.9,0.1c-1.7,0.3-3.5,0.4-5.2,0.4
			c-1.5,0.1-3-0.2-4.3-0.8c-0.9-0.5-1.5-1.5-1.4-2.5c0-1.2,0.7-2.3,2.2-3.4c1-0.7,2-1.2,3.1-1.7c-0.1-1-0.6-1.5-1.6-1.5
			c-1.7,0.2-3.3,1-4.6,2.2c-0.7,0.5-1.2,1.1-1.7,1.8l-1.4-1.4c1.9-1.6,3.4-3.6,4.6-5.8c0.1-0.1,0.1-0.2,0.2-0.3h-0.4
			c-0.4,0-2.5,0-2.9-0.1H731c-0.1,0-0.3,0-0.4,0v-1.7c1.5,0.2,3,0.3,4.5,0.2L735.6,410.6z"/>
		<path class="st3" d="M754.3,419.5c0-0.8,0-1.4,0.1-2.5c-0.7,0.8-1.4,1.6-2.3,2.2c-0.2-0.5-0.5-1.1-0.9-1.5c1.6-1.1,3-2.4,4.2-4
			c0.4-0.6,0.8-1.2,1-1.8l1.5,0.9c-0.2,0.3-0.3,0.4-0.7,0.9c-0.4,0.6-0.9,1.2-1.3,1.8v8.5c0,0.9,0,1.7,0.1,2.6h-1.9
			c0.1-0.9,0.2-1.7,0.1-2.6L754.3,419.5z M757.5,408.3c-0.1,0.1-0.2,0.3-0.3,0.4c-1.3,1.8-3,3.3-4.8,4.6c-0.3-0.5-0.6-0.9-1.1-1.3
			c1.1-0.7,2.2-1.5,3.1-2.4c0.7-0.7,1.2-1.4,1.7-2.3L757.5,408.3z M760.5,415.4c-0.8,0-1.6,0-2.4,0.1v-1.7c0.8,0.1,1.6,0.1,2.4,0.1
			h7.3c0.8,0,1.6,0,2.4-0.1v1.8c-0.8-0.1-1.6-0.1-2.4-0.1h-1.1v9c0,1.5-0.6,1.9-2.6,1.9c-0.8,0-1.6,0-2.5-0.1
			c-0.1-0.6-0.2-1.2-0.4-1.7c1,0.2,1.9,0.2,2.9,0.2c0.7,0,0.9-0.1,0.9-0.5v-8.8L760.5,415.4z M759,408.5c0.7,0.1,1.5,0.1,2.2,0.1
			h5.8c0.8,0,1.5,0,2.2-0.1v1.7c-0.7-0.1-1.5-0.1-2.2-0.1h-5.9c-0.8,0-1.5,0-2.2,0.1v-1.7H759z"/>
		<path class="st3" d="M775.6,416.1c0.7-0.1,1.3-0.2,2-0.4c2.1-0.6,4.3-0.9,6.5-0.9s3.8,0.7,4.6,2c0.5,0.8,0.7,1.6,0.7,2.5
			c0,2.5-1.9,4.6-5,5.6c-1.4,0.5-2.9,0.7-4.4,0.8c-0.1-0.6-0.3-1.2-0.7-1.7h0.3c1.4,0,2.8-0.2,4.2-0.6c2.4-0.8,3.8-2.3,3.8-4.1
			s-1.3-2.8-3.7-2.8c-1.9,0.1-3.7,0.3-5.6,0.8c-0.8,0.1-1.6,0.4-2.3,0.7L775.6,416.1z"/>
		<path class="st3" d="M796.6,411.4c0.9,0.1,1.8,0.2,2.7,0.2c0.3,0,0.6,0,1.2,0c0.2-1.2,0.4-2.4,0.5-3.5v-0.3l2,0.2
			c-0.1,0.5-0.1,0.5-0.4,2c-0.1,0.7-0.2,0.9-0.3,1.5c1.3-0.1,2.5-0.3,3.8-0.7l0.1,1.7l-0.6,0.1c-1.2,0.2-2.3,0.4-3.5,0.5
			c-0.3,1.6-0.8,3.9-1.4,5.8c-0.7,2.2-1.5,4.4-2.4,6.6l-1.8-0.8c1.9-3.6,3.2-7.5,3.9-11.5h-1.8h-1.3h-0.5v-1.8H796.6z M806.3,419.3
			c-0.4,0.4-0.7,0.8-0.9,1.2c-0.2,0.4-0.3,0.7-0.3,1.1c0,1.2,1.3,1.8,3.5,1.8c1.6,0,3.2-0.3,4.7-0.8l0.2,1.9l-1,0.2
			c-1.3,0.2-2.5,0.4-3.8,0.4c-3.5,0-5.4-1.1-5.4-3.3c0-1,0.3-1.7,1.5-3.2L806.3,419.3z M812.7,415.9c-0.8-0.1-1.7-0.2-2.5-0.2
			c-1.8,0-3.6,0.2-5.3,0.7l-0.2-1.7c1.9-0.5,3.8-0.7,5.8-0.7c0.4,0,0.7,0,2.2,0.1V415.9z"/>
		<path class="st3" d="M817.4,416.5c0.5,0,0.8,0.1,1.4,0.1h0.4c0.6-0.8,0.7-0.9,1.3-1.7c-0.9-1.2-1.9-2.2-3-3.2l0.9-1.2l0.8,0.8
			c0.9-1.2,1.5-2.6,1.9-4l1.5,0.6c-0.2,0.2-0.3,0.5-0.4,0.7c-0.6,1.3-1.3,2.5-2.1,3.6c0.6,0.6,0.6,0.6,1.2,1.4
			c0.8-1.1,1.5-2.3,2-3.6l1.4,0.8c-0.3,0.5-0.3,0.5-1.4,2.2c-0.7,1.1-1.7,2.5-2.5,3.5c1.4-0.1,1.7-0.1,3-0.2
			c-0.2-0.6-0.5-1.1-0.8-1.7l1.2-0.5c0.7,1.3,1.2,2.6,1.6,3.9l-1.3,0.5c-0.1-0.5-0.2-0.7-0.3-1c-0.9,0.1-1,0.1-1.8,0.2v6.7
			c0,0.7,0,1.4,0.1,2.1h-1.7c0.1-0.7,0.1-1.4,0.1-2.1v-6.5l-2,0.1c-0.4,0-0.9,0-1.3,0.1L817.4,416.5z M820,419.5
			c-0.1,2-0.5,4.1-1.1,6l-1.4-0.6c0.7-1.8,1.1-3.7,1.1-5.6L820,419.5z M824.5,419.1c0.4,1.6,0.7,3.2,0.9,4.8l-1.3,0.3
			c-0.1-1.6-0.3-3.2-0.7-4.8L824.5,419.1z M827.5,411.9c-0.7,0-1.5,0-2.2,0.1v-1.7c0.7,0.1,1.5,0.1,2.2,0.1h2.4V409
			c0-0.6,0-1.1-0.1-1.7h1.8c-0.1,0.6-0.1,1.1-0.1,1.7v1.3h2.8c0.7,0,1.5,0,2.2-0.1v1.7c-0.7-0.1-1.5-0.1-2.2-0.1h-2.8v3h2.3
			c0.7,0,1.5,0,2.2-0.1v1.7c-0.7-0.1-1.4-0.1-2.2-0.1h-5.7c-0.7,0-1.4,0-2.1,0.1v-1.7c0.7,0.1,1.4,0.1,2.2,0.1h1.8v-3L827.5,411.9z
			 M827.9,426.5h-1.6c0.1-0.7,0.1-1.3,0.1-2v-4.2c0-0.6,0-1.3-0.1-1.9c0.6,0.1,1.1,0.1,1.7,0.1h5.7c0.6,0,1.1,0,1.7-0.1
			c-0.1,0.7-0.1,1.3-0.1,2v4.1c0,0.7,0,1.4,0.1,2.1h-1.7v-1.1H828L827.9,426.5z M827.9,423.9h5.8v-4.1h-5.8V423.9z"/>
		<path class="st3" d="M844.5,416.4c-0.8,0-1.7,0-2.5,0.1c0.1-0.8,0.1-1.6,0.1-2.3v-3.8c0-0.8,0-1.5-0.1-2.3
			c0.8,0.1,1.6,0.1,2.4,0.1h9.5c0.8,0,1.7,0,2.5-0.1c-0.1,0.8-0.1,1.6,0,2.4v3.7c0,0.8,0,1.5,0,2.3c-0.8-0.1-1.7-0.1-2.5-0.1h-4.2
			v1.7h6.6c0.8,0,1.5,0,2.3-0.1v1.7c-0.7-0.1-1.5-0.1-2.2-0.1h-5.6c0.9,1,1.9,1.8,3,2.5c1.6,1,3.3,1.7,5.1,2.2
			c-0.4,0.5-0.7,1-0.9,1.6c-1.8-0.6-3.5-1.5-5.1-2.5c-1.2-0.9-2.3-1.9-3.2-3c0.1,1,0.1,1.2,0.1,1.6v2.3c0,0.8,0,1.5,0.2,2.3h-2
			c0.1-0.8,0.2-1.5,0.2-2.3v-2.2c0-0.4,0-0.9,0.1-1.6c-2.1,2.5-4.7,4.4-7.8,5.6c-0.3-0.5-0.6-1-1-1.5c1.5-0.5,3-1.2,4.3-2
			c1.2-0.8,2.3-1.7,3.3-2.9H842c-0.7,0-1.5,0-2.2,0.1V418c0.7,0.1,1.4,0.1,2.2,0.1h6.2v-1.7H844.5z M843.6,409.6v2h4.6v-2H843.6z
			 M843.6,413v2.1h4.6V413H843.6z M849.7,411.7h5v-2h-5V411.7z M849.7,415h5v-2h-5V415z"/>
		<path class="st3" d="M868.3,423.1c0,1.8-1.4,3.3-3.3,3.3c-1.8,0-3.3-1.4-3.3-3.3c0-1.8,1.4-3.3,3.3-3.3l0,0
			C866.8,419.8,868.3,421.3,868.3,423.1L868.3,423.1z M863.1,423.1c0,1.1,0.9,1.9,1.9,1.9s1.9-0.9,1.9-1.9l0,0
			c0-1.1-0.9-1.9-1.9-1.9S863.1,422,863.1,423.1z"/>
	</g>
</g>
</svg>
