<svg id="sec03_03_ttl" data-name="sec03_03_ttl" xmlns="http://www.w3.org/2000/svg" width="442" height="106" viewBox="0 0 442.849 106.59">
  <defs>
    <style>
      .cls-1 {
        fill: #9d1b5b;
      }
    </style>
  </defs>
  <path id="USER_S_VOICE" data-name="USER’S VOICE" class="cls-1" d="M1130.84,4847.55v0.28H1129v8.98q0,0.93.09,1.83a4.893,4.893,0,0,0,.42,1.59,2.812,2.812,0,0,0,.98,1.13,3.213,3.213,0,0,0,1.75.43,5.807,5.807,0,0,0,1.81-.25,3.763,3.763,0,0,0,1.21-.66,3.034,3.034,0,0,0,.74-0.92,4.23,4.23,0,0,0,.38-1.02,4.946,4.946,0,0,0,.14-0.96c0.02-.3.02-0.55,0.02-0.75v-9.4h-1.82v-0.28h4v0.28h-1.86v9.38c0,0.21,0,.48-0.02.81a4.383,4.383,0,0,1-.16,1.03,4.817,4.817,0,0,1-.42,1.08,2.974,2.974,0,0,1-.82.97,4.451,4.451,0,0,1-1.36.7,6.5,6.5,0,0,1-2.02.27,9.519,9.519,0,0,1-3.12-.43,4.559,4.559,0,0,1-1.81-1.12,3.519,3.519,0,0,1-.83-1.57,8.232,8.232,0,0,1-.2-1.78v-9.34h-1.86v-0.28h6.6Zm8.68,9.8c0.03,0.16.08,0.37,0.14,0.63a7.685,7.685,0,0,0,.29.84,8.167,8.167,0,0,0,.48.92,4.832,4.832,0,0,0,.71.87,4.663,4.663,0,0,0,.89.7,4.289,4.289,0,0,0,.82.35,3.447,3.447,0,0,0,.74.12c0.24,0,.45.01,0.65,0.01a3.969,3.969,0,0,0,1.74-.33,3.024,3.024,0,0,0,1.07-.81,2.873,2.873,0,0,0,.55-1.01,3.235,3.235,0,0,0,.16-0.93,1.961,1.961,0,0,0-.35-1.22,2.7,2.7,0,0,0-.93-0.8,5.687,5.687,0,0,0-1.32-.54c-0.49-.15-1-0.3-1.52-0.45s-1.02-.34-1.52-0.54a5.469,5.469,0,0,1-1.32-.8,3.872,3.872,0,0,1-.93-1.21,4.153,4.153,0,0,1-.35-1.8,3.448,3.448,0,0,1,.36-1.54,4.234,4.234,0,0,1,1-1.31,5.072,5.072,0,0,1,1.53-.92,5.131,5.131,0,0,1,1.93-.35,4.984,4.984,0,0,1,1.16.12,8.121,8.121,0,0,1,.88.25,6.938,6.938,0,0,1,.67.25,1.427,1.427,0,0,0,.53.12,0.535,0.535,0,0,0,.37-0.09,0.95,0.95,0,0,0,.19-0.33h0.32v3.8h-0.26q-0.24-.7-0.51-1.38a4.894,4.894,0,0,0-.69-1.23,3.061,3.061,0,0,0-1.06-.89,3.357,3.357,0,0,0-1.62-.34,4.093,4.093,0,0,0-1.41.22,3.213,3.213,0,0,0-1.03.58,2.542,2.542,0,0,0-.64.8,2.059,2.059,0,0,0-.22.9,1.85,1.85,0,0,0,.37,1.16,3.352,3.352,0,0,0,.97.79,7.522,7.522,0,0,0,1.37.57c0.52,0.16,1.04.32,1.58,0.5s1.07,0.36,1.58.57a5.115,5.115,0,0,1,1.37.79,3.626,3.626,0,0,1,.97,1.16,3.423,3.423,0,0,1,.37,1.68,4.414,4.414,0,0,1-.4,1.86,4.584,4.584,0,0,1-1.13,1.54,5.391,5.391,0,0,1-1.74,1.05,6.176,6.176,0,0,1-2.25.39,6.409,6.409,0,0,1-1.23-.12c-0.4-.08-0.78-0.17-1.14-0.25s-0.66-.17-0.94-0.25a2.351,2.351,0,0,0-.61-0.12,0.7,0.7,0,0,0-.4.09,0.81,0.81,0,0,0-.22.37h-0.32v-4.44h0.3Zm24.1-9.8v3.42h-0.26a5.806,5.806,0,0,0-.34-0.87,4.036,4.036,0,0,0-.67-1.03,3.524,3.524,0,0,0-1.11-.87,3.368,3.368,0,0,0-1.66-.37h-3.18v6.18h1.12a3.265,3.265,0,0,0,1.25-.21,2.188,2.188,0,0,0,.85-0.6,3.127,3.127,0,0,0,.56-0.94,6.846,6.846,0,0,0,.36-1.23h0.26v6.22h-0.26a9.708,9.708,0,0,0-.33-1.12,2.989,2.989,0,0,0-.51-0.95,2.177,2.177,0,0,0-.79-0.65,2.538,2.538,0,0,0-1.17-.24h-1.34v7.22h3.28a4.346,4.346,0,0,0,1.66-.31,4.166,4.166,0,0,0,1.31-.87,5,5,0,0,0,.95-1.31,6.711,6.711,0,0,0,.58-1.61h0.26v4.38h-12.78v-0.28h1.84v-13.68h-1.84v-0.28h11.96Zm8,6.46a3.46,3.46,0,0,0,1.42-.24,1.754,1.754,0,0,0,.78-0.65,2.462,2.462,0,0,0,.33-0.93,7.451,7.451,0,0,0,.07-1.06,8.169,8.169,0,0,0-.12-1.51,2.662,2.662,0,0,0-.4-1.04,1.611,1.611,0,0,0-.77-0.61,4.193,4.193,0,0,0-1.69-.18c-0.15.01-.29,0.02-0.44,0.04v6.18h0.82Zm-5.56-6.18v-0.28h3.02c0.56,0,1.11-.01,1.66-0.03s1.1-.03,1.66-0.03a8.844,8.844,0,0,1,1.65.16,5.163,5.163,0,0,1,1.59.55,3.439,3.439,0,0,1,1.19,1.05,2.807,2.807,0,0,1,.47,1.66,2.521,2.521,0,0,1-.36,1.37,2.949,2.949,0,0,1-.93.93,4.694,4.694,0,0,1-1.27.55,8.735,8.735,0,0,1-1.38.25v0.1c0.65,0.12,1.24.24,1.75,0.36a4.214,4.214,0,0,1,1.33.54,2.549,2.549,0,0,1,.89,1,4.43,4.43,0,0,1,.41,1.72c0.07,0.84.12,1.51,0.16,2.02a7.63,7.63,0,0,0,.17,1.18,0.98,0.98,0,0,0,.3.56,0.949,0.949,0,0,0,.55.14,0.964,0.964,0,0,0,.66-0.23c0.17-.16.33-0.3,0.46-0.43l0.2,0.18c-0.13.13-.26,0.25-0.39,0.37a1.975,1.975,0,0,1-.44.29,2.748,2.748,0,0,1-.61.19,5.48,5.48,0,0,1-.9.07,3.56,3.56,0,0,1-1.72-.35,2.5,2.5,0,0,1-.92-0.87,3.01,3.01,0,0,1-.37-1.13c-0.05-.41-0.08-0.79-0.09-1.15-0.03-.55-0.06-1.08-0.11-1.59a4.59,4.59,0,0,0-.33-1.37,2.165,2.165,0,0,0-.78-0.96,2.541,2.541,0,0,0-1.46-.36h-1.32v7.22h1.84v0.28h-6.58v-0.28h1.84v-13.68h-1.84Zm16.78,4.15a1.753,1.753,0,0,0,.58-1.29,1.094,1.094,0,0,0-.1-0.52,0.966,0.966,0,0,0-.2-0.3,1.085,1.085,0,0,1-.4.16,3.27,3.27,0,0,1-.44.04,1.647,1.647,0,0,1-.45-0.08,1.411,1.411,0,0,1-.45-0.25,1.52,1.52,0,0,1-.34-0.44,1.45,1.45,0,0,1-.14-0.65,1.419,1.419,0,0,1,.14-0.65,1.2,1.2,0,0,1,.36-0.44,1.342,1.342,0,0,1,.49-0.25,1.666,1.666,0,0,1,.53-0.08,1.641,1.641,0,0,1,1.3.62,2.592,2.592,0,0,1,.54,1.76,3.18,3.18,0,0,1-.28,1.38,4.333,4.333,0,0,1-.71,1.07,6.5,6.5,0,0,1-.93.82c-0.33.23-.64,0.43-0.92,0.61l-0.14-.26A13.2,13.2,0,0,0,1182.84,4851.98Zm4.08,5.37c0.03,0.16.07,0.37,0.14,0.63a6.023,6.023,0,0,0,.29.84,8.167,8.167,0,0,0,.48.92,4.44,4.44,0,0,0,.71.87,4.374,4.374,0,0,0,.89.7,4.289,4.289,0,0,0,.82.35,3.447,3.447,0,0,0,.74.12c0.23,0,.45.01,0.65,0.01a3.969,3.969,0,0,0,1.74-.33,3.117,3.117,0,0,0,1.07-.81,3.043,3.043,0,0,0,.55-1.01,3.235,3.235,0,0,0,.16-0.93,2.026,2.026,0,0,0-.35-1.22,2.7,2.7,0,0,0-.93-0.8,6.073,6.073,0,0,0-1.32-.54c-0.49-.15-1-0.3-1.52-0.45s-1.03-.34-1.52-0.54a5.469,5.469,0,0,1-1.32-.8,3.6,3.6,0,0,1-.93-1.21,4.153,4.153,0,0,1-.35-1.8,3.448,3.448,0,0,1,.36-1.54,4.086,4.086,0,0,1,1-1.31,5.2,5.2,0,0,1,3.46-1.27,4.984,4.984,0,0,1,1.16.12,8.834,8.834,0,0,1,.88.25c0.25,0.08.48,0.17,0.67,0.25a1.386,1.386,0,0,0,.53.12,0.535,0.535,0,0,0,.37-0.09,1.142,1.142,0,0,0,.19-0.33h0.32v3.8h-0.26q-0.24-.7-0.51-1.38a4.894,4.894,0,0,0-.69-1.23,3.061,3.061,0,0,0-1.06-.89,3.411,3.411,0,0,0-1.62-.34,4.093,4.093,0,0,0-1.41.22,3.109,3.109,0,0,0-1.03.58,2.542,2.542,0,0,0-.64.8,1.93,1.93,0,0,0-.22.9,1.792,1.792,0,0,0,.37,1.16,3.352,3.352,0,0,0,.97.79,7.522,7.522,0,0,0,1.37.57c0.51,0.16,1.04.32,1.58,0.5s1.07,0.36,1.58.57a5.275,5.275,0,0,1,1.37.79,3.758,3.758,0,0,1,.97,1.16,3.423,3.423,0,0,1,.37,1.68,4.414,4.414,0,0,1-.4,1.86,4.723,4.723,0,0,1-1.13,1.54,5.615,5.615,0,0,1-1.74,1.05,6.176,6.176,0,0,1-2.25.39,6.409,6.409,0,0,1-1.23-.12c-0.41-.08-0.79-0.17-1.14-0.25s-0.67-.17-0.94-0.25a2.428,2.428,0,0,0-.61-0.12,0.674,0.674,0,0,0-.4.09,0.81,0.81,0,0,0-.22.37h-0.32v-4.44h0.3Zm23.3-9.8v0.28h-1.92l4.14,10.84,4.22-10.84h-1.8v-0.28h3.82v0.28h-1.72l-5.64,14.5h-0.58l-5.52-14.5h-1.68v-0.28h6.68Zm11.24,10.61a6.1,6.1,0,0,0,.75,2.18,2.766,2.766,0,0,0,1.32,1.13,5.3,5.3,0,0,0,1.93.32,4.255,4.255,0,0,0,2.32-.55,3.422,3.422,0,0,0,1.26-1.52,7.271,7.271,0,0,0,.53-2.3c0.07-.89.11-1.85,0.11-2.89q0-1.41-.09-2.67a6.769,6.769,0,0,0-.51-2.24,3.432,3.432,0,0,0-1.27-1.54,4.188,4.188,0,0,0-2.35-.57,4.105,4.105,0,0,0-2.24.53,3.339,3.339,0,0,0-1.28,1.49,7.315,7.315,0,0,0-.58,2.28,28.465,28.465,0,0,0-.14,2.9A20.655,20.655,0,0,0,1221.46,4858.16Zm-2.81-6.53a7.908,7.908,0,0,1,1.77-2.36,7.749,7.749,0,0,1,2.42-1.51,6.963,6.963,0,0,1,2.62-.53,7.726,7.726,0,0,1,5.13,2,7.307,7.307,0,0,1,1.7,2.33,7.148,7.148,0,0,1,.65,3.09,6.791,6.791,0,0,1-.61,2.85,7.856,7.856,0,0,1-1.64,2.37,7.938,7.938,0,0,1-2.38,1.61,7.1,7.1,0,0,1-2.85.59,7.275,7.275,0,0,1-2.84-.57,7.721,7.721,0,0,1-2.39-1.56,7.585,7.585,0,0,1-1.65-2.33,6.894,6.894,0,0,1-.62-2.9A6.771,6.771,0,0,1,1218.65,4851.63Zm22.49-4.08v0.28h-1.84v13.68h1.84v0.28h-6.58v-0.28h1.84v-13.68h-1.84v-0.28h6.58Zm13.66,4.08c-0.15-.44-0.32-0.91-0.53-1.39a5.47,5.47,0,0,0-.8-1.34,3.855,3.855,0,0,0-1.22-1,3.816,3.816,0,0,0-1.81-.39,4.231,4.231,0,0,0-2.3.54,3.4,3.4,0,0,0-1.27,1.5,7.064,7.064,0,0,0-.55,2.29q-0.12,1.32-.12,2.91a20.442,20.442,0,0,0,.24,3.44,6.052,6.052,0,0,0,.75,2.16,2.8,2.8,0,0,0,1.32,1.12,5.3,5.3,0,0,0,1.93.32,3.645,3.645,0,0,0,1.63-.36,4.493,4.493,0,0,0,1.29-.95,5.825,5.825,0,0,0,.94-1.35,7.091,7.091,0,0,0,.56-1.58h0.32v4.24h-0.32a0.743,0.743,0,0,0-.24-0.33,0.771,0.771,0,0,0-.42-0.09,2.077,2.077,0,0,0-.62.11q-0.375.105-.87,0.24c-0.33.08-.68,0.16-1.07,0.24a6.834,6.834,0,0,1-1.22.11,7.25,7.25,0,0,1-2.82-.57,7.721,7.721,0,0,1-2.39-1.56,7.585,7.585,0,0,1-1.65-2.33,6.894,6.894,0,0,1-.62-2.9,6.771,6.771,0,0,1,.69-3.08,7.908,7.908,0,0,1,1.77-2.36,7.7,7.7,0,0,1,2.41-1.51,6.914,6.914,0,0,1,2.61-.53,5.58,5.58,0,0,1,1.19.12c0.37,0.08.71,0.16,1.02,0.25s0.6,0.17.85,0.25a2.2,2.2,0,0,0,.64.12,1.064,1.064,0,0,0,.42-0.07,0.51,0.51,0,0,0,.2-0.35h0.32v4.08h-0.26Zm14.26-4.08v3.42h-0.26a7.154,7.154,0,0,0-.34-0.87,4.036,4.036,0,0,0-.67-1.03,3.766,3.766,0,0,0-1.11-.87,3.4,3.4,0,0,0-1.66-.37h-3.18v6.18h1.12a3.3,3.3,0,0,0,1.25-.21,2.264,2.264,0,0,0,.85-0.6,3.347,3.347,0,0,0,.56-0.94,6.846,6.846,0,0,0,.36-1.23h0.26v6.22h-0.26a9.708,9.708,0,0,0-.33-1.12,3.446,3.446,0,0,0-.51-0.95,2.263,2.263,0,0,0-.79-0.65,2.538,2.538,0,0,0-1.17-.24h-1.34v7.22h3.28a4.383,4.383,0,0,0,1.66-.31,4.282,4.282,0,0,0,1.31-.87,5,5,0,0,0,.95-1.31,7.17,7.17,0,0,0,.58-1.61h0.26v4.38H1257.1v-0.28h1.84v-13.68h-1.84v-0.28h11.96Z" transform="translate(-827.531 -4846.72)"/>
  <path id="私たちがシャンプーを_卒業して手に入れたもの" data-name="私たちがシャンプーを 卒業して手に入れたもの" class="cls-1" d="M864.122,4903.55c0-4.36-5.418-11.72-9.044-12.88l-0.119.12a28.076,28.076,0,0,1,4.263,8.72,83.659,83.659,0,0,1-11.116,1.2c5.459-15.28,6.056-17,8.008-24.16,1.474-.92,1.634-1,1.634-1.36a0.777,0.777,0,0,0-.6-0.56l-5.1-1.88a11.728,11.728,0,0,1,.119,1.8c0,4.68-3.107,19.64-5.3,26.24-0.438,0-1.912.08-2.231,0.08a17.507,17.507,0,0,1-2.47-.2l1.833,4.24a0.753,0.753,0,0,0,.637.52,0.763,0.763,0,0,0,.6-0.24c0.079-.16.438-0.68,0.6-1.04,0.518-.12,1.116-0.28,6.494-1.64,0.359-.08,5.937-1.92,7.052-2.28l0.638,3.64c0.119,0.6.4,2.32,2.071,2.32C863.684,4906.19,864.122,4904.75,864.122,4903.55Zm-15.378-19.64a0.754,0.754,0,0,0-.4-0.6l-2.231-2a1.416,1.416,0,0,0-.757-0.44,0.838,0.838,0,0,0-.6.52l-1.514,2h-2.789c0-1-.04-5.88-0.04-7,2.112-.52,3.466-0.92,4.781-1.28,0.2,0.04,1.076.28,1.275,0.28a0.4,0.4,0,0,0,.478-0.4,0.768,0.768,0,0,0-.2-0.48l-2.988-3.2a7.29,7.29,0,0,1-3.307,2.32,62.407,62.407,0,0,1-10.6,3.48v0.36a37.655,37.655,0,0,0,7.65-.48v6.4h-2.67c-0.438,0-3.267-.04-5.657-0.24l0.637,1.44a24.305,24.305,0,0,1,4.3-.24h3.227a68.974,68.974,0,0,1-9.2,16.88l0.2,0.28c3.586-2.44,6.933-6.64,9.124-10.08,0,1.24,0,2.72-.04,4.76,0,1.52-.319,9.36-0.319,9.68a1.506,1.506,0,0,0,1.514,1.84c0.239,0,2.032-.04,2.032-2.4,0-.6-0.159-15.2-0.159-16.8a9.615,9.615,0,0,1,2.589,4.6c0.319,1,.678,2.32,1.992,2.32a2.075,2.075,0,0,0,1.793-2.16c0-2.12-2.43-4.6-6.414-5.56v-3.36h7.689A0.489,0.489,0,0,0,848.744,4883.91Zm55.1,2.88c0-1.68-2.869-3.84-7.092-3.84-0.438,0-3.944,0-6.055,1.88,3.027-.2,6.693.2,6.693,1.24a1.06,1.06,0,0,1-.518.76c-1.076.84-3.068,2.4-3.307,2.6l0.159,0.2a20.1,20.1,0,0,1,5.459-1.88c0.518,0,3.147.36,3.426,0.36A1.2,1.2,0,0,0,903.839,4886.79Zm-0.4,16.36a2.67,2.67,0,0,0-2.311-2.24,7.357,7.357,0,0,0-1.2.16,31.312,31.312,0,0,1-4.3.4c-3.626,0-5.538-.44-6.773-1.84a5.547,5.547,0,0,1-1.395-4.12,4.941,4.941,0,0,0-1.115,3.4c0,2.16,1.115,4.12,4.741,5.16a29.4,29.4,0,0,0,7.092.84C899.217,4904.91,903.441,4904.91,903.441,4903.15Zm-11.634-23.56a1.788,1.788,0,0,0-1.992-1.68c-0.558,0-.717.08-2.072,0.96a14.15,14.15,0,0,1-2.589,1.32,9.948,9.948,0,0,1,1.155-2.36,3.4,3.4,0,0,0,.877-1.96c0-1.64-2.789-3.36-4.741-3.36a2.32,2.32,0,0,0-2.032.88c0.6,0.12,2.828,1.08,2.828,2.52a22.676,22.676,0,0,1-1.075,5.28,24.193,24.193,0,0,1-6.016.96,9.08,9.08,0,0,1-3.785-.8,4.03,4.03,0,0,0,4.3,3.24,24.754,24.754,0,0,0,4.621-.6,73.643,73.643,0,0,1-7.012,15.4c-1.315,2.2-1.434,2.48-1.434,3.28a1.835,1.835,0,0,0,1.554,2c0.916,0,1.275-.36,2.47-2.88,1.434-3,5.06-12.36,7.131-18.48a57.026,57.026,0,0,0,6.136-2.16C890.731,4880.91,891.807,4880.43,891.807,4879.59Zm49.916,17.2c0-5.56-5.338-7.52-8.127-7.52a20.683,20.683,0,0,0-6.893,1.56,41.168,41.168,0,0,1-4.581,1.72,53.167,53.167,0,0,1,1.553-9.56,52.392,52.392,0,0,0,9.243-2.96,1.14,1.14,0,0,0,.917-0.96c0-.96-1.873-1.64-2.948-1.64a2.679,2.679,0,0,0-1.554.56,19.926,19.926,0,0,1-4.941,2.04c0.718-2.76.757-2.88,1.2-3.64,0.637-1.08.677-1.2,0.677-1.64,0-1.52-4.183-2.84-5.378-2.84a3.321,3.321,0,0,0-2.311.84c3.067,0.8,3.386,2.28,3.386,3.44,0,0.4-.319,3.04-0.518,4.56a19.173,19.173,0,0,1-4.422.6,7.471,7.471,0,0,1-4.183-1c-0.04,2.76,2.749,3.4,4.741,3.4a24.739,24.739,0,0,0,3.506-.32,87.14,87.14,0,0,1-1.554,9.04,22.309,22.309,0,0,0-.916,2.76c0,1.16,1.354,3.24,2.35,3.24a1.243,1.243,0,0,0,1-.52c0.12-.16.717-1.04,0.877-1.24,2.51-3.2,6.613-6.28,10.6-6.28s4.941,2.8,4.941,4.92c0,7.44-8.965,9.72-15.14,10.4v0.28c1,0.08,2.191.2,4.024,0.2C938.456,4906.23,941.723,4900.71,941.723,4896.79Zm46.689-19.8c0-2.88-4.542-2.96-5.379-2.96a12.068,12.068,0,0,0-2.749.32,7.461,7.461,0,0,1,1.634.52,17.717,17.717,0,0,1,2.948,1.76c1.713,1.48,1.913,1.68,2.47,1.68A1.141,1.141,0,0,0,988.412,4876.99Zm-3.546,3.12c0-2.44-4.223-3.24-8.048-2.96a10.274,10.274,0,0,1,4.343,2.68c1.235,1.12,1.793,1.64,2.43,1.64A1.306,1.306,0,0,0,984.866,4880.11Zm2.271,11.64c0-5.4-6.335-9.64-11.394-10.12,5.179,3.08,7.171,7.16,7.171,7.8,0,0.88-3.147,1.48-4.821,1.6v0.36a10.576,10.576,0,0,1,5.7,1.76,3.728,3.728,0,0,0,2.032,1.04C986.818,4894.19,987.137,4892.95,987.137,4891.75Zm-13.426-2.64c0-4.56-1.076-7.04-5.3-7.04a11.423,11.423,0,0,0-1.275.08,25.2,25.2,0,0,1,2.072-4,4.879,4.879,0,0,0,.757-2,1.031,1.031,0,0,0-.439-0.8c-1.872-1.84-3.027-2.28-4.143-2.28a5.128,5.128,0,0,0-2.39.72c0.478,0.28,2.788,1.52,2.788,3,0,1.44-1.075,4.44-1.633,5.92-0.677.16-3.865,0.96-4.582,1.12a14.373,14.373,0,0,1-3.346.6,3.435,3.435,0,0,1-2.829-2.04,3.313,3.313,0,0,0-.757,1.96c0,1.6,1.793,3.8,3.466,3.8a3.048,3.048,0,0,0,1.753-.76c0.677-.48,3.586-1.72,5.419-2.56-3.666,8.48-5.459,10.84-8.447,14.84a4.26,4.26,0,0,0-1.155,2.8,1.717,1.717,0,0,0,1.594,2,1.389,1.389,0,0,0,.956-0.4,19.974,19.974,0,0,0,2.669-4.48c4.343-8.6,4.821-9.52,7.49-15.64a9.055,9.055,0,0,1,1.873-.2c2.669,0,2.669,2.84,2.669,4.16a27.636,27.636,0,0,1-2.789,11.56,1.843,1.843,0,0,1-1.554,1.16c-1,0-3.187-1.52-4.7-2.6l-0.159.16c0.159,0.32,1.394,2.52,2.111,3.76a3.215,3.215,0,0,1,.4,1.24c0.159,1.92.239,2.52,1.514,2.52,1.474,0,3.426-1.92,4.183-2.76C972.157,4900.43,973.711,4892.39,973.711,4889.11Zm36.809-10.48c0-1.84-2.51-4.28-7.65-4.28a19.607,19.607,0,0,0-2.79.24c1.91,0.56,3.23,1.36,5.9,3.6,2.31,1.96,2.55,2.16,3.14,2.16C1010.44,4880.35,1010.52,4878.91,1010.52,4878.63Zm14.42,2.56-0.24-.12c-4.5,6.16-17.89,18.4-21.03,18.4-0.64,0-2.67-1.56-3.15-2.08a2.42,2.42,0,0,0-.16.96c0,3.24,3.19,5.56,3.98,5.56a1.393,1.393,0,0,0,1-.48,13.448,13.448,0,0,1,1.23-1.28c1.68-1.28,3.55-2.68,5.02-3.84C1016.85,4894.11,1022.91,4887.11,1024.94,4881.19Zm-17.41,6.48c0-1.64-1.91-3.8-6.93-3.8a26.867,26.867,0,0,0-4.264.32c2.59,0.84,4.1,1.6,7.654,4.16,1.43,1.04,1.59,1.12,2.11,1.12C1007.49,4889.47,1007.53,4887.91,1007.53,4887.67Zm41.03,6.44a58.191,58.191,0,0,0,4.43-4.36,8.264,8.264,0,0,1,2.47-2.2c0.99-.32,1.39-0.32,1.39-0.88,0-.36-0.24-0.52-2.15-2.04a5.482,5.482,0,0,0-1.4-.96,7.212,7.212,0,0,0-1.15.88c-0.84.76-2.27,1.08-8.89,2.72a26.336,26.336,0,0,1-.67-4.48c0-.2.12-1.04,0.12-1.24,0-.88-2.79-1.28-3.47-1.28a3.64,3.64,0,0,0-3.15,1.68c3.11-.08,3.35-0.08,4.94,5.88-0.24.08-1.59,0.4-1.87,0.48-4.18,1.16-4.34,1.2-4.98,1.2-1.07,0-1.91-1.04-2.59-1.88a4.06,4.06,0,0,0-.2,1.16c0,1.88,2.39,4.08,3.23,4.08a6.832,6.832,0,0,0,1.47-1,30.826,30.826,0,0,1,5.46-2.16c2.43,9.24,2.55,9.8,2.91,13,0.16,1.32,1.23,3.2,2.55,3.2a1.156,1.156,0,0,0,1.04-1.4,6.088,6.088,0,0,0-.44-1.92,130.357,130.357,0,0,1-3.95-13.56c3.99-1.36,4.23-1.44,8.37-2.64a55.532,55.532,0,0,1-3.71,7.52Zm29.76-12.8c0-4.44-7.45-5-8.8-5a15.631,15.631,0,0,0-1.96.12,20.263,20.263,0,0,1,6.66,4.88c1.35,1.36,1.87,1.92,2.55,1.92A1.8,1.8,0,0,0,1078.32,4881.31Zm15.86-1.64-0.16-.08a85.106,85.106,0,0,1-12.47,11.88c-1.44,1.12-8.09,6-9.21,6-0.67,0-1.87-.56-3.14-2.72a8.466,8.466,0,0,0-.28,1.88c0,1.96,2.83,5.6,4.26,5.6a1.094,1.094,0,0,0,.56-0.16c0.24-.12,1.15-1.2,1.39-1.4,1.36-1.24,3.75-2.96,5.22-4.12C1089.56,4889.35,1093.54,4882.23,1094.18,4879.67Zm13.1,25.2c3.59-.48,8.21-3.36,11.2-6.04,1.91-1.68,5.53-5.24,8.88-14.24,0.48-1.28.52-1.4,0.92-1.64,1.39-.84,1.55-0.96,1.55-1.4s-0.2-.64-1.67-2.24c-1.4-1.52-1.56-1.68-1.88-1.68a12.141,12.141,0,0,0-1.63.96c-1.55.56-15.54,1.8-16.45,1.8a3.155,3.155,0,0,1-2.23-.68,7.745,7.745,0,0,1-2-2.28,3.854,3.854,0,0,0-.51,1.96c0,2.92,3.22,4.84,3.62,4.84a3.07,3.07,0,0,0,1.12-.48c1.75-1.04,10.32-2.32,16.73-2.68a44.671,44.671,0,0,1-6.14,13.24,42.594,42.594,0,0,1-11.51,10.32v0.24Zm25.18-32.56a3.8,3.8,0,1,0,3.78,3.8A3.788,3.788,0,0,0,1132.46,4872.31Zm0,1.64a2.16,2.16,0,1,1-2.15,2.16A2.168,2.168,0,0,1,1132.46,4873.95Zm42.94,15.72c0-2.12-4.66-2.48-4.74-2.48a5.152,5.152,0,0,0-1.59.4c-1.36.48-15.18,0.52-17.49,0.52-4.74,0-5.7-.48-7.09-3.28a5.507,5.507,0,0,0-.64,2.24c0,1.6,2.23,4.76,3.71,4.76a5.327,5.327,0,0,0,1.35-.28c1.83-.52,7.93-0.64,10.24-0.64,0.68,0,10.4.08,11.15,0.12,0.8,0.08,1.8.12,2.43,0.12C1174.65,4891.15,1175.4,4890.35,1175.4,4889.67Zm40.6-2.76c0-2.24-3.07-3.68-5.14-3.68a3,3,0,0,0-1.04.2c1.12,0.68,1.36.84,1.36,1.44,0,0.48-.2.84-1.16,1.32-3.51,1.72-5.98,3.16-6.97,3.76a4.468,4.468,0,0,0-4.54-3.6,14.293,14.293,0,0,0-4.47.84c0.04-.08.2-0.4,0.32-0.6,0.4-.68,3.31-4.64,3.95-5.52a45.922,45.922,0,0,0,8.32-1.84,1.4,1.4,0,0,0,1.2-1.28c0-.96-1.12-1.56-2.11-1.56a2.572,2.572,0,0,0-.88.16c-0.36.12-3.03,1.08-4.54,1.64a16.869,16.869,0,0,1,1.95-2.48,2.224,2.224,0,0,0,.76-1.44c0-.96-1.99-2.56-3.87-2.56a4.2,4.2,0,0,0-3.02,1.36c1.51,0,2.98.84,2.98,1.56,0,0.6-1.67,3.52-2.11,4.32a31.35,31.35,0,0,1-4.3.44,5.1,5.1,0,0,1-4.22-1.64,2.265,2.265,0,0,0-.12.72c0,0.56.48,3.24,4.22,3.24a22.032,22.032,0,0,0,2.99-.28,30.443,30.443,0,0,1-6.73,8.48,4.054,4.054,0,0,0-.84,2.8c0,1.28.32,1.76,1.35,1.76,0.68,0,1.2-.24,2.83-3.2,0.8-1.4,2.43-3.68,4.82-3.68,2.47,0,2.91,2.04,3.19,4.16-1.99,1.32-7.09,4.92-7.09,8.84,0,4.96,8.25,5.12,10.8,5.12a53.032,53.032,0,0,0,6.05-.4,1.712,1.712,0,0,0,1.36-1.56,2.16,2.16,0,0,0-2.47-2,9.518,9.518,0,0,0-1.44.12,35.43,35.43,0,0,1-6.13.64c-1.16,0-6.34,0-6.34-3.04,0-2.24,3.63-4.96,5.42-6.08,0.04,0.52.04,0.68,0.04,2.24,0,1.72.04,4.28,1.79,4.28,1.56,0,1.56-2.44,1.56-3.72a26.654,26.654,0,0,0-.32-4.36,44.713,44.713,0,0,1,10.59-3.32C1215.6,4888.15,1216,4887.95,1216,4886.91Zm-353.591,34.72a0.788,0.788,0,0,0-.4-0.6l-2.391-2.08a1.485,1.485,0,0,0-.757-0.48,0.843,0.843,0,0,0-.637.56l-1.594,2.08h-8.725v-2.44c0.877-.6,1.195-0.8,1.195-1.28,0-.4-0.318-0.48-0.717-0.56l-4.98-1.16a13.791,13.791,0,0,1,1.076,5.44h-9.164c-0.438,0-3.266-.04-5.657-0.24l0.638,1.44a24.291,24.291,0,0,1,4.3-.24h27.212A0.488,0.488,0,0,0,862.409,4921.63Zm-4.024,13.08a3.923,3.923,0,0,0-2.032-3.08c-1.195-.76-2.111-1-5.3-1.8,1.434-1.92,2.231-3.12,2.908-4.12,0.916-.36,1.235-0.48,1.235-0.96a0.863,0.863,0,0,0-.6-0.72l-3.944-1.84a6.249,6.249,0,0,1-.358,2.48c-0.279,1.12-3.785,8.44-8.168,12.48l0.2,0.2a22.54,22.54,0,0,0,8.407-7.08,13.748,13.748,0,0,1,2.749,3.2c1.315,2.28,1.793,3.12,3.028,3.12A1.843,1.843,0,0,0,858.385,4934.71Zm-13.546-2.04c0-.64-0.438-2.04-2.47-2.92a16.812,16.812,0,0,0-3.426-.84,25.488,25.488,0,0,0,1.474-3.08c0.159-.08.837-0.36,1-0.48a0.678,0.678,0,0,0,.359-0.56,0.857,0.857,0,0,0-.518-0.72l-3.944-1.84c0,4.44-3.945,11.8-6.176,15.16l0.12,0.16a24.541,24.541,0,0,0,7.45-8.16,9.28,9.28,0,0,1,1.713,2.48c0.877,1.8,1.315,2.72,2.59,2.72A1.9,1.9,0,0,0,844.839,4932.67Zm19.2,8.64a0.789,0.789,0,0,0-.4-0.6l-2.669-2.32a1.34,1.34,0,0,0-.8-0.48,1.209,1.209,0,0,0-.6.52l-2.111,2.36h-9.482c-0.04-.2,0-1.04,0-1.2,0.956-.92,1.076-1,1.076-1.28a0.9,0.9,0,0,0-.877-0.72l-4.1-.84a11.176,11.176,0,0,1,.6,4.04h-10.6c-0.438,0-3.267-.04-5.7-0.24l0.677,1.44a24.305,24.305,0,0,1,4.3-.24H844.64c-0.04,5.28-.04,5.76-0.079,7.32,0,0.32-.12,1.96-0.12,2.32a1.456,1.456,0,0,0,1.594,1.44,2.031,2.031,0,0,0,2.111-2.12c0-1.28-.2-7.56-0.2-8.96h15.5A0.506,0.506,0,0,0,864.043,4941.31Zm17.565-19.32c0-2.76-3.745-3.92-6.1-4.4l-0.159.28a8.027,8.027,0,0,1,2.271,3.04c0.836,1.96,1.235,2.88,2.35,2.88A1.683,1.683,0,0,0,881.608,4921.99Zm24.821,2.8a1.2,1.2,0,0,0-.478-0.68l-2.391-1.92a1.661,1.661,0,0,0-.837-0.48,1.6,1.6,0,0,0-.637.56l-2.032,2h-5.578c0.16-.16,2.67-2.48,4.343-4.24,0.359-.08,1.2-0.24,1.2-0.76a0.818,0.818,0,0,0-.6-0.6l-3.865-1.96a19.049,19.049,0,0,1-2.151,7.56h-1.435c0-.2.16-4.8,0.16-5.32,0.6-.24,1.354-0.6,1.354-1.12,0-.4-0.318-0.48-0.717-0.6l-4.5-1.2c0.438,1.32.8,2.48,0.8,8.24h-2.51a52.94,52.94,0,0,1,.12-5.4c0.438-.12,1.314-0.44,1.314-0.96a0.635,0.635,0,0,0-.557-0.56l-4.463-1.36a37.808,37.808,0,0,1,.638,8.28h-7.57c-0.438,0-3.267-.04-5.657-0.24l0.637,1.48a19.95,19.95,0,0,1,4.3-.28h4.462a12.215,12.215,0,0,1,1.952,3.96c0.439,1.24.678,1.48,1.076,1.68h-4.024c-0.438,0-3.267,0-5.7-.24l0.677,1.48a23.077,23.077,0,0,1,4.3-.28h8.446v3.12h-6.374c-0.439,0-3.267-.04-5.7-0.24l0.677,1.48a19.944,19.944,0,0,1,4.3-.28h7.091v3.52h-9.6c-0.439,0-3.267,0-5.658-.24l0.638,1.48a23.069,23.069,0,0,1,4.3-.28h6.972c-3.427,4.48-6.494,7.72-12.471,10.8l0.04,0.24a26.589,26.589,0,0,0,15.777-10.16c-0.04,1.44-.279,9.56-0.279,10.16s0,1.36,1.395,1.36c0.6,0,2.271-.28,2.271-1.68,0-.24-0.04-0.52-0.04-0.68-0.08-1.32-.159-2.2-0.279-10.04h0.08c1.275,2.32,4.98,8.68,12.31,11.24a8.192,8.192,0,0,1,3.785-3.8v-0.16a24.39,24.39,0,0,1-15.418-7.28h14.422a0.48,0.48,0,0,0,.6-0.4,1.024,1.024,0,0,0-.4-0.64l-2.47-2.28a1.571,1.571,0,0,0-.717-0.44,1.155,1.155,0,0,0-.677.52l-2.191,2.28h-9.323v-3.52h10.08a0.488,0.488,0,0,0,.6-0.44,0.869,0.869,0,0,0-.438-0.64l-2.311-1.56a2.609,2.609,0,0,0-.836-0.48,1.666,1.666,0,0,0-.678.56l-1.514,1.6h-4.9c-0.04-.52-0.04-2.76-0.04-3.12h12.51c0.279,0,.6-0.04.6-0.4a0.882,0.882,0,0,0-.4-0.64l-2.111-1.96a1.019,1.019,0,0,0-.717-0.4,1,1,0,0,0-.638.48l-1.713,1.96h-6.454a22.471,22.471,0,0,0,3.864-3.16c0.359,0,1.395.04,1.395-.52a0.912,0.912,0,0,0-.518-0.64l-2.152-1.32h12.63A0.483,0.483,0,0,0,906.429,4924.79Zm-14.821.44a14.048,14.048,0,0,1-1.992,5.64h-5.3a1.662,1.662,0,0,0,1.036-1.6c0-1.6-1.156-2.84-4.462-4.04h10.717Zm55.015,15.28-0.239-.24c-3.227,3-12.948,7.44-18.087,7.44-4.223,0-4.223-2.16-4.223-5.56,0-.36,0-11.28,1.593-18.96a19.681,19.681,0,0,0,.558-2.32c0-1.08-2.351-3.12-4.661-3.12a4.861,4.861,0,0,0-3.427,1.32c3.227,0.88,3.626,1.32,3.626,4.08,0,2.68-.478,15.76-0.478,16.92,0,6.36,1,10.4,7.37,10.4C931.8,4950.47,941.723,4949.59,946.623,4940.51Zm38.6-18c0-1.24-1.833-2.44-3.705-2.44a10.364,10.364,0,0,0-3.108.8c-0.877.28-19.283,4.72-20.6,4.72-1.354,0-2.31-.56-3.147-2.36a3.932,3.932,0,0,0,2.231,6.32c0.6,0,.8-0.12,2.789-1.04,3.546-1.6,10.8-4.48,12.908-4.28-4.382,3.68-8.048,7.56-8.048,13.72a10.159,10.159,0,0,0,6.136,9.76,19.78,19.78,0,0,0,7.012,1.96c0.757,0,2.032,0,2.032-1.56a2.383,2.383,0,0,0-1.355-2.04c-0.677-.44-4.582-1.16-5.458-1.4-5.458-1.64-6.295-5.72-6.295-7.64,0-5.92,4.462-11.16,8.646-12.44a28.933,28.933,0,0,1,7.131-.6C984.03,4923.99,985.225,4923.99,985.225,4922.51Zm42.905,15.32a0.949,0.949,0,0,0-.4-0.6l-3.15-2.72a1.216,1.216,0,0,0-.75-0.48,0.887,0.887,0,0,0-.6.52l-2.11,2.76h-9.68c0-1.56-.04-4.96-0.04-7.84h12.9a0.527,0.527,0,0,0,.64-0.44,0.949,0.949,0,0,0-.4-0.6l-2.87-2.48a1.444,1.444,0,0,0-.75-0.44,0.9,0.9,0,0,0-.64.52l-1.79,2.48h-7.09v-7.24c4.14-.68,7.41-1.56,9.24-2.04,0.64,0.12,1.59.24,1.63,0.24a0.563,0.563,0,0,0,.56-0.52,0.793,0.793,0,0,0-.24-0.52l-3.94-3.04c-0.4.52-.76,0.96-3.07,1.8-6.61,2.32-17.332,4.16-21.037,4.76l0.12,0.4a85.64,85.64,0,0,0,13.427-.6v6.76h-7.29c-0.44,0-3.269-.04-5.659-0.24l0.637,1.48a19.945,19.945,0,0,1,4.3-.28h8.01v7.84H997.969c-0.438,0-3.267-.04-5.7-0.24l0.677,1.44a24.305,24.305,0,0,1,4.3-.24h10.838c0,0.56.04,7.36,0.04,7.72-0.12,1.92-.44,2-1.28,2s-4.9-.2-5.81-0.2v0.28c4.7,2.04,5.02,3.16,5.34,4.44a6.3,6.3,0,0,0,3.98-1.72c1.04-.96,1.2-2.04,1.2-4.04,0-1.2-.12-7.16-0.12-8.48h16.05A0.527,0.527,0,0,0,1028.13,4937.83Zm37.56-13.72c0-1.84-3.26-2.4-5.02-2.4-3.82,0-9.4,1.2-10.75,4.4,1.03-.4,4.54-1.84,6.97-1.84,0.32,0,1.59,0,1.59.56,0,0.32-2.91,3-3.42,3.6l0.28,0.24a19.529,19.529,0,0,1,7.84-2.88C1065.18,4925.47,1065.69,4924.95,1065.69,4924.11Zm1.96,20.92c0-.64-0.52-2-3.35-2-0.76,0-4.46.28-5.3,0.28-7.37,0-8.01-2.56-8.68-5.4a3.03,3.03,0,0,0-.56,2.08c0,5.04,3.86,6.76,13.46,6.76C1065.45,4946.75,1067.65,4946.75,1067.65,4945.03Zm-22-11.96h-0.27a81.579,81.579,0,0,0-3.51,8.52,1.088,1.088,0,0,1-.6.8c-0.72,0-1.39-3.16-1.39-5.72,0-4.72,1.39-7.88,3.06-11.68a5.7,5.7,0,0,0,.56-2c0-1.48-2.99-3.92-4.42-3.92a1.886,1.886,0,0,0-1.04.32,5.6,5.6,0,0,1,1.56,3.84,18.707,18.707,0,0,1-.28,2.68c-1.24,6.6-1.59,9.88-1.59,12.44,0,7,2.23,11.84,4.58,11.84,1.11,0,1.27-.8,1.27-2.04,0-.4-0.24-2.28-0.24-2.72a34.1,34.1,0,0,1,.8-5.24C1044.34,4939.19,1045.45,4934.19,1045.65,4933.07Zm26.41,18.84c11.72-3.72,16.42-11.56,18.97-18.28a31.009,31.009,0,0,0,13.5,17.84,6.281,6.281,0,0,1,4.63-3.52v-0.32c-8.81-2.2-18.69-12.8-18.37-25.56,1.08-.32,3.94-1.36,3.94-2.12a1.115,1.115,0,0,0-.55-0.68l-2.51-1.88a1.374,1.374,0,0,0-.8-0.4,1.252,1.252,0,0,0-.68.44l-1.47,1.48h-2.35c-0.48,0-3.27-.04-5.7-0.28l0.64,1.48a23.2,23.2,0,0,1,4.34-.28h3.82a54.656,54.656,0,0,0,.24,6.92l-1.19-.12c0.28,5.16-4.46,18.4-16.58,24.92Zm78.33-11a19.968,19.968,0,0,1-8.61,3.16c-1.39,0-2.11-.48-2.11-2.56,0-.96.4-3.72,0.84-6.52,0.39-2.8.79-5.64,0.79-6.68a4.249,4.249,0,0,0-4.34-4.64c-3.55,0-9.04,5.6-12.07,9.52,0-.16.04-0.44,0.04-0.64a11.552,11.552,0,0,1,1.19-2.32c1.28-1.96,1.44-2.16,1.44-2.36,0-.6-1.72-1.64-1.91-1.72a11.532,11.532,0,0,1,1.27-3.56,3.63,3.63,0,0,0,.52-1.64c0-1.48-2.99-3.04-4.38-3.04a3.746,3.746,0,0,0-2.71,1.48c1.87,0.28,3.26.48,3.26,3.08,0,0.8-.31,4.04-0.39,5.04a25.853,25.853,0,0,1-4.67,1.48c-0.95,0-1.51-.44-2.59-1.44a3.042,3.042,0,0,0-.39,1.4c0,1.4,1.11,3.52,2.39,3.52a2.493,2.493,0,0,0,1.43-.6,36.755,36.755,0,0,1,3.63-2.28c-0.12,1.28-.12,1.44-0.2,2.76a39.171,39.171,0,0,1-5.38,9.96c-1.08,1.12-1.79,1.92-1.79,3.24,0,0.52.16,2.08,1.35,2.08,0.88,0,1.16-.6,1.83-2.04,0.36-.76,2.31-4.64,3.87-7.32,0.04,1,.2,6.08.2,6.32s0,0.48-.16.48a15.328,15.328,0,0,1-1.68-1.12l-0.2.12a14.185,14.185,0,0,1,1.44,4.68c0.28,1.44.6,2,1.51,2,1.36,0,1.72-2.52,1.72-3.36,0-.08-0.24-3.08-0.24-3.28,0-.16-0.4-7.12-0.4-9.24,2.75-3.68,8.72-9.32,11.15-9.32,1.92,0,1.92,2,1.92,2.6a51.281,51.281,0,0,1-.52,5.48c-0.92,6.16-1.04,6.84-1.04,8.52,0,5,3.79,5.44,5.18,5.44,3.07,0,5.58-1.68,9.05-6.4Zm37.48-9.12c0-1.68-2.87-3.84-7.09-3.84-0.44,0-3.94,0-6.05,1.88,3.02-.2,6.69.2,6.69,1.24a1.058,1.058,0,0,1-.52.76c-1.08.84-3.07,2.4-3.31,2.6l0.16,0.2a20.225,20.225,0,0,1,5.46-1.88c0.52,0,3.15.36,3.43,0.36A1.2,1.2,0,0,0,1187.87,4931.79Zm-0.4,16.36a2.664,2.664,0,0,0-2.31-2.24,7.348,7.348,0,0,0-1.19.16,31.4,31.4,0,0,1-4.3.4c-3.63,0-5.54-.44-6.78-1.84a5.564,5.564,0,0,1-1.39-4.12,4.925,4.925,0,0,0-1.12,3.4c0,2.16,1.12,4.12,4.74,5.16a29.451,29.451,0,0,0,7.1.84C1183.25,4949.91,1187.47,4949.91,1187.47,4948.15Zm-11.63-23.56a1.789,1.789,0,0,0-1.99-1.68c-0.56,0-.72.08-2.07,0.96a14.214,14.214,0,0,1-2.59,1.32,9.888,9.888,0,0,1,1.15-2.36,3.391,3.391,0,0,0,.88-1.96c0-1.64-2.79-3.36-4.74-3.36a2.3,2.3,0,0,0-2.03.88c0.59,0.12,2.82,1.08,2.82,2.52a22.427,22.427,0,0,1-1.07,5.28,24.144,24.144,0,0,1-6.02.96,9.041,9.041,0,0,1-3.78-.8,4.026,4.026,0,0,0,4.3,3.24,24.624,24.624,0,0,0,4.62-.6,73.324,73.324,0,0,1-7.01,15.4c-1.31,2.2-1.43,2.48-1.43,3.28a1.829,1.829,0,0,0,1.55,2c0.92,0,1.28-.36,2.47-2.88,1.43-3,5.06-12.36,7.13-18.48a56.836,56.836,0,0,0,6.14-2.16C1174.76,4925.91,1175.84,4925.43,1175.84,4924.59Zm47.81,18.92c0-7.76-9.25-11.36-10.36-11.8l-0.12.2c3.3,2.04,6.81,7.64,6.81,11.68,0,4.36-3.67,5.92-6.65,5.92-6.02,0-6.02-4.68-6.02-6.2a17.678,17.678,0,0,1,.2-2.64,12.813,12.813,0,0,0,3.94.68c0.72,0,2.51,0,2.51-1a3.814,3.814,0,0,0-1.95-2.24,27.509,27.509,0,0,0-4.02-.32c0.52-2.96,1.23-6.04,1.43-6.92,1.24,0.04,2.67.08,2.67-1.24,0-.76-0.92-1.6-1.83-2.08a30.1,30.1,0,0,1,1.91-5.36,7.939,7.939,0,0,0,.72-2.32c0-1.68-3.11-3.24-4.98-3.24a2.453,2.453,0,0,0-2.19.88c1.63,0.6,3.02,1.12,3.02,3.56a52.033,52.033,0,0,1-.71,5.8c-3.51-.72-5.06-1.04-8.01-3.68,0.12,3.2,2.19,4.16,4.86,5.32a0.642,0.642,0,0,1,.52.64,6.211,6.211,0,0,1-1.52,1.72c-2.71,2.6-3.34,3.44-3.34,4.8,0,1.64,1.35,2.92,5.06,4.36a16.908,16.908,0,0,0-.56,4.12c0,4.72,2.59,7.72,8.61,7.72C1216.08,4951.87,1223.65,4950.91,1223.65,4943.51Zm-16.38-12.64-1.23,6.68c-1.36-.36-3.87-1.12-3.87-2.72C1202.17,4933.59,1203.84,4931.27,1207.27,4930.87Zm44.02,17.64c9.04-.8,16.22-6.08,16.22-14.4,0-7.92-6.7-12.64-14.87-12.64-9.68,0-17.09,7-17.09,15.6a6.563,6.563,0,0,0,1.8,4.64,7.082,7.082,0,0,1,1.59,1.68c1.23,1.76,1.67,2.36,2.55,2.36,1.12,0,2.47-.28,6.61-8.12,2.19-4.12,5.14-10.64,5.14-11.2,0-.6-0.75-2.28-3.42-3.44a15.087,15.087,0,0,1,2.51-.2c7.88,0,11.47,5.16,11.47,10.72,0,9.8-9.6,13.6-12.51,14.72v0.28Zm-2.99-25.28a3.361,3.361,0,0,1,1.36,2.52c0,2.4-3.55,9.64-4.82,12.08-0.84,1.56-2.39,4.52-3.67,4.52-1.47,0-2.67-3.44-2.67-6C1238.5,4931.19,1242.88,4924.47,1248.3,4923.23Z" transform="translate(-827.531 -4846.72)"/>
</svg>
