<svg id="sec01_ttl_02" data-name="sec01_ttl_02" xmlns="http://www.w3.org/2000/svg" viewBox="0 0 250.35 98.42" width="250" height="98">
	<defs>
		<style>
			.cls-1{fill:#ffffff;}
		</style>
	</defs>
	<path class="cls-1" d="M95.23,61.94H78.63c0,3.71,0,3.81.11,5.36s.61,7.42.61,8.65c0,3.3-3.81,4.85-6,4.85-3.4,0-3.3-2-3.09-6.19H51.74c.2,9.9.2,11.86-.73,14.43-2.57,7.32-9.68,8.87-12,9.38-1.55-6.49-5-9.79-12.89-13.19l.11-.52c2.37.21,9,.93,13.09.93.51,0,2.88,0,3.4-1.24s.51-2,.72-9.79H24.12A58.89,58.89,0,0,0,13,75.34l-1.65-3.82c6.18.62,13.5.62,14.63.62H43.39l.2-10.2H12.88c-6.28,0-8.55.2-11.13.72L0,58.85c6.29.51,13.6.61,14.74.61H43.59V49.36H22.88c-6.29,0-8.55.21-11.13.73L10,46.27c6.28.52,13.6.62,14.73.62H43.59V37H25.35c.11,1.85.31,6-5.56,6-2,0-3.4-1-3.4-2.89,0-.31.1-1,.1-1.55.21-2.68.51-5.66.51-7.62,0-8.87-.3-10.41-.82-13.09L26,22.36H43.49V14.53H16.18a60.16,60.16,0,0,0-11.13.72L3.3,11.44c6.28.62,13.6.62,14.74.62H43.39A46.47,46.47,0,0,0,41.33,0L53.69,3.92c.83.2,1.86.51,1.86,1.34,0,1.23-2.58,2.26-3.92,2.88,0,.62-.1,3.4-.1,3.92H74.72L79.15,6.6c.41-.62,1-1.34,1.54-1.34s1.34.72,2,1.13L90,11.85a2.14,2.14,0,0,1,1,1.65c0,.93-.93,1-1.65,1H51.43c0,1.24-.21,6.8-.21,7.83H69.05l2.68-2.47c.51-.41,1.23-1.13,1.54-1.13a3.39,3.39,0,0,1,1.65.92l4.85,3.71a1.84,1.84,0,0,1,.92,1.45c0,.92-1.75,2-2.68,2.47,0,2.47.21,8.45,0,9.79-.3,2.68-3.19,4.33-5.56,4.33-3,0-2.89-2.37-2.89-4.43H51.12c0,1.54.1,8.45.1,9.89h18l3.41-3.71c.72-.82,1.13-1,1.54-1s.52,0,1.65.93l5,3.91a1.78,1.78,0,0,1,.82,1.34c0,.83-1,1.55-2.88,2.89,0,1.34,0,5.57-.11,8.24h2.89l4.64-5.66c.82-.93,1.13-1.24,1.65-1.24a3.29,3.29,0,0,1,1.85,1.13l6.08,5.57c.72.72,1,.93,1,1.54C96.77,61.83,95.84,61.94,95.23,61.94ZM43.49,24.84H25.35v9.68H43.59Zm26.18,0H51.12v9.68H69.67Zm.72,24.52H51.22l.21,10.1h19Zm0,12.58h-19l.31,10.2H70.39Z"/>
	<path class="cls-1" d="M205.39,22.88a21.2,21.2,0,0,1-3.5-.52c-2.58,1-13.6,5.88-15.87,6.81l-.62-.52c1.75-2.58,4.54-7,5.26-9.38H134.49C134.28,30.51,129,36.79,123,36.79a4.8,4.8,0,0,1-5-4.74c0-3.09,1.44-3.92,6.28-7,.93-.51,6-4.33,8.35-13.5h.83c.82,3.71.82,4.13,1,5.26h24.22c0-6.91-.11-6.91-2.27-14l12.47,2.68c.93.21,2.16.62,2.16,2,0,1.65-1.85,2.47-3.71,3.3,0,1.75,0,3.61.11,6.08H191l5.46-5.15a1.94,1.94,0,0,1,1.24-.62,2,2,0,0,1,1.44.62l7.73,8.14a2.67,2.67,0,0,1,.72,1.54C207.56,22.47,206.32,22.88,205.39,22.88Zm-3.5,73c-16.8-1.23-29.68-13.91-38.13-28.75h-.52c-3.5,9.17-14.73,24.84-44.21,28.44v-.82c13.19-4.64,29.89-12.78,35.25-27.62h-23.4a63.35,63.35,0,0,0-11.13.62L118.1,64c6.29.51,13.51.62,14.64.62H155.1a76.1,76.1,0,0,0,2.27-11.54H145.62a62.82,62.82,0,0,0-11.13.61L132.74,50c6.29.52,13.6.62,14.74.62h10.1A107,107,0,0,0,158.19,39h-13.5c-6.28,0-8.55.2-11.13.72l-1.65-3.82c6.29.52,13.51.62,14.64.62h11.64c0-2-.2-11.13-1.85-15.56l12.26,3c.72.21,1.86.62,1.86,1.75,0,1.44-2.17,2.17-3.2,2.37-.1,1.24-.2,5.67-.31,8.45h13.3L184.06,32c1-1.14,1.14-1.24,1.65-1.24s1.44.72,1.86,1l5.15,4.43c.72.62,1.13,1,1.13,1.65,0,.93-.82,1.14-1.54,1.14H166.85c0,1.85-.21,10-.31,11.64h10.62l4.12-4.43c1-1.13,1.24-1.34,1.65-1.34.62,0,1.13.52,1.85,1.13l4.95,4.33c.93.83,1.24,1,1.24,1.65,0,.93-.93,1.14-1.65,1.14h-23a60.81,60.81,0,0,1-2.27,11.54h28.24l4.22-4.85c1.14-1.23,1.14-1.23,1.55-1.23s.72,0,2,1l6.18,4.84a2.23,2.23,0,0,1,1,1.55c0,.92-.93,1.13-1.55,1.13H166.23c11.65,13.5,24.84,17.93,45,17v.61C208,86.26,203.54,88.22,201.89,95.84Z"/>
	<path class="cls-1" d="M237.84,93.61A12.55,12.55,0,1,1,250.35,81.1,12.41,12.41,0,0,1,237.84,93.61Zm0-22a9.42,9.42,0,1,0,9.46,9.46A9.32,9.32,0,0,0,237.84,71.64Z"/>
</svg>