<svg xmlns="http://www.w3.org/2000/svg" width="626" height="38" viewBox="0 0 626.096 38.8">
  <defs>
    <style>
      .cls-1 {
        fill: #9d1b5b;
      }
    </style>
  </defs>
  <path id="sec05_01_ttl" data-name="sec05_01_ttl" class="cls-1" d="M744.819,11674.9a2.382,2.382,0,0,0-1.724-2.3,0.756,0.756,0,0,1-.361-0.7,3.994,3.994,0,0,1,1.874-2.6l-0.641-.6c-1,.8-3.793,3.2-3.787,6.2A2.32,2.32,0,0,0,744.819,11674.9Zm-6.079,0a2.382,2.382,0,0,0-1.724-2.3,0.756,0.756,0,0,1-.361-0.7,3.994,3.994,0,0,1,1.874-2.6l-0.641-.6c-1,.8-3.793,3.3-3.787,6.2a2.3,2.3,0,0,0,2.324,2.3A2.351,2.351,0,0,0,738.74,11674.9Zm35.678-1.1c0-2.2-2.406-3.5-5.366-3.6l-0.039.2a9.089,9.089,0,0,1,2.045,2.9c0.6,1.3.924,2.1,1.924,2.1A1.484,1.484,0,0,0,774.418,11673.8Zm7.5,29.3a2.718,2.718,0,0,0-.6-1.2,1.914,1.914,0,0,1-.843-1.8c0-.9.23-5.3,0.228-6.3h-0.24c-0.279.8-1.114,3-1.871,4.6-0.438.9-.8,1.5-1.477,1.5-1.68,0-4.164-2.4-5.889-5.1a39.685,39.685,0,0,0,4.741-9.4c1.2-.3,1.719-0.5,1.718-1a0.866,0.866,0,0,0-.561-0.6l-4.083-2.3a4.571,4.571,0,0,1,.162,1.3c0,1.5-.989,5.5-3.381,9.4-0.844-1.9-2.21-5-2.988-14.4h13.958c0.32,0,.6-0.1.6-0.4a1.069,1.069,0,0,0-.4-0.7l-2.484-2.1a1.464,1.464,0,0,0-.72-0.4,1.2,1.2,0,0,0-.6.4l-1.876,2.2-8.518.1c-0.165-2.4-.208-4-0.211-5.5,1.039-.4,1.319-0.7,1.318-1.1a0.708,0.708,0,0,0-.761-0.6l-4.282-1.1a10.648,10.648,0,0,1,.928,4.1c0.041,0.6.247,3.5,0.288,4.2H753.428l-4-2.2a50.217,50.217,0,0,1,1.182,11.1c0.016,8.8-1.651,15.2-4.084,18.6l0.24,0.2c6.389-5.2,6.571-14.6,6.643-18.9h5.479c0.043,1.6.088,4-.107,6.9-0.234,3-.433,3.7-1.752,3.7-0.76,0-2.8-.2-3.641-0.3v0.3a13.777,13.777,0,0,1,1.923,1.5,5.142,5.142,0,0,1,1.164,2.5c4.438-.9,4.751-4.6,4.947-6.6,0.118-1,.188-5.9.306-7,0.879-.6,1.118-0.9,1.118-1.2a1.067,1.067,0,0,0-.4-0.6l-1.562-1.2a1.589,1.589,0,0,0-.881-0.4,0.859,0.859,0,0,0-.679.5l-0.718.9-5.159.1c0.036-2,.036-2.2-0.213-7h10.918a65.317,65.317,0,0,0,1.337,9.2,29.363,29.363,0,0,0,2.655,7.7,26.053,26.053,0,0,1-12.62,9.4l0.04,0.3a22.193,22.193,0,0,0,13.984-7.4c3.93,5.6,8.692,7.3,10.332,7.3C781.036,11704.3,781.914,11703.7,781.913,11703.1ZM826.6,11684l-0.04-.4c-6.12-.5-12.769-5.6-14.7-10.7,0.719-.1,2.558-0.5,2.557-1.3a0.762,0.762,0,0,0-.321-0.6l-1.483-1.4a1.373,1.373,0,0,0-.681-0.4,0.815,0.815,0,0,0-.719.4l-1.277,1.3h-2a40.028,40.028,0,0,1-4.359-.2l0.522,1.4a18.335,18.335,0,0,1,3.359-.2l3.2-.1c3.017,9.1,7.784,13.4,12.067,15.2A6.521,6.521,0,0,1,826.6,11684Zm-24.015-10.3a0.96,0.96,0,0,0-.522-0.7l-3.443-2.3a12.9,12.9,0,0,1-.635,2.6c-0.915,2.7-4.064,8.3-9.651,14.6l0.2,0.3a34.6,34.6,0,0,0,12.372-13.6C801.542,11674.4,802.582,11674.1,802.581,11673.7Zm14.1,12.1a0.977,0.977,0,0,0-.362-0.6l-1.6-1.8a1.277,1.277,0,0,0-.56-0.3,1.311,1.311,0,0,0-.719.4l-1.078,1H801.042c-1.2,0-3.64,0-6.12-.2l0.763,1.6a22.255,22.255,0,0,1,4.719-.4h1.159c-0.382,9.3-4.489,15.3-12.6,19.1l0.081,0.3c12.593-2.3,15.252-13.2,15.48-19.4l8.079-.1a82.7,82.7,0,0,1-.578,11.6c-0.593,3.6-1.352,4-3.272,4a21.393,21.393,0,0,1-4.641-.6l-0.039.3a5.5,5.5,0,0,1,3.008,4.4c7.2-.7,7.992-3.6,8.364-18C816.562,11686.3,816.682,11686.2,816.682,11685.8Zm51.057-11c-0.006-3.1-5.045-3.2-5.765-3.2a13.005,13.005,0,0,0-2.479.3,13.929,13.929,0,0,1,4.723,2.1c0.4,0.3,2.163,1.9,2.683,1.9A0.937,0.937,0,0,0,867.739,11674.8Zm-3.674,3c0-2.3-4.285-3.2-6.405-3.2a7.387,7.387,0,0,0-1.6.1,15,15,0,0,1,5,3,5.065,5.065,0,0,0,1.922,1.3A1.1,1.1,0,0,0,864.065,11677.8Zm1.982,11.3c-0.011-5.4-7.058-10-11.138-10.2,5.646,3.5,7.493,7.4,7.494,7.8,0,1.4-4.4,1.8-5,1.8v0.3a19.33,19.33,0,0,1,5.441,1.4,15.78,15.78,0,0,0,2.2,1C866.051,11691.2,866.047,11689.4,866.047,11689.1Zm-13.4-2.5c-0.006-3.2-.213-6.9-4.892-6.9a14.651,14.651,0,0,0-2.159.2c0.756-1.7,1.433-3.1,2.31-4.7a3.7,3.7,0,0,0,.6-1.7c0-1-2.445-2.8-4.565-2.8a4.059,4.059,0,0,0-2,.6c0.56,0.2,2.922,1.3,2.925,2.9,0,1.4-1.191,4.7-1.788,6.3-1.319.3-7.235,1.9-8.195,1.9a3.18,3.18,0,0,1-2.723-2,2.966,2.966,0,0,0-.477,1.6,3.972,3.972,0,0,0,3.326,3.6,3.045,3.045,0,0,0,1.679-.7,44.306,44.306,0,0,1,5.634-2.6c-3.663,8.9-5.816,12-8.409,15.7a3.7,3.7,0,0,0-.876,2.2c0,1,.484,1.9,1.284,1.9,0.88,0,1.757-1.5,2.275-2.5a196.925,196.925,0,0,0,8.324-18,11.352,11.352,0,0,1,2.639-.4c2.679,0,2.684,2.8,2.687,4.3a26.373,26.373,0,0,1-2.776,12,1.925,1.925,0,0,1-1.558,1.2c-0.72,0-1.48-.3-4.964-2.7l-0.12.1c2.607,3.8,2.688,4.1,2.971,5.8,0.121,0.7.282,1.3,1.2,1.3,1.16,0,2.8-1.3,3.875-2.5C851.066,11698.1,852.653,11691.3,852.644,11686.6Zm52.134-12.9a0.98,0.98,0,0,0-.361-0.6l-1.282-1.1a0.9,0.9,0,0,0-.641-0.4,0.737,0.737,0,0,0-.519.4l-0.878.9h-2.88l0-2a6.479,6.479,0,0,1,.8-0.7,0.628,0.628,0,0,0,.159-0.5c0-.2-0.081-0.3-0.481-0.5l-3.481-.9a14.928,14.928,0,0,1,.529,4.6h-2.8l0-2a5.514,5.514,0,0,0,.639-0.6,0.543,0.543,0,0,0,.359-0.5,0.712,0.712,0,0,0-.6-0.5l-3.441-1a14.381,14.381,0,0,1,.609,4.6h-2.6l-3-1.6a49.474,49.474,0,0,1,.294,7.4c0,0.9,0,2.9-.113,3.8a1.728,1.728,0,0,0-.039.4,1.079,1.079,0,0,0,1.041,1,1.5,1.5,0,0,0,1.678-1.4h13.517c-0.039.5-.078,1,0.8,1,0.28,0,1.759-.2,1.757-1.4,0-.1-0.247-3.5-0.248-4.2l-0.006-3.1A2.318,2.318,0,0,0,904.778,11673.7Zm-8.912,3.5h-2.92l-0.006-3.3,2.84-.1Zm0.008,4.4h-2.919l-0.007-3.5h2.92Zm5.391-4.4h-3.039l-0.007-3.4h3.04Zm-10.59,4.4h-2.919l-0.007-3.5h2.92Zm10.6,0h-3.039l-0.007-3.5h3.04Zm-10.606-4.4h-2.92l-0.006-3.3h2.8Zm19.644,24.6-0.041-.3a18.545,18.545,0,0,1-12.2-3.8c0.639-.2,2.838-0.9,4.356-1.5,0.76,0.1,1.64,0,1.639-.5a0.548,0.548,0,0,0-.241-0.4l-2.563-1.9,5.159-.1c0.28,0,.6,0,0.6-0.4a0.889,0.889,0,0,0-.4-0.6l-1.762-1.5a1.4,1.4,0,0,0-.721-0.5,1.34,1.34,0,0,0-.679.5l-1.517,1.6H885.417c0.155-2.6.154-3.3,0.148-6.2l22.556-.1c0.28,0,.6,0,0.6-0.4a0.806,0.806,0,0,0-.4-0.6l-1.883-1.7a1.575,1.575,0,0,0-.721-0.5,1.094,1.094,0,0,0-.679.5l-1.516,1.8H886.163l-3.6-1.8a22.079,22.079,0,0,1,.41,5.1c0.013,7-.9,12.5-4.648,16.5l0.161,0.2c6.15-4.4,6.66-9.6,6.856-11.8H888.7l0.015,7.7a13.559,13.559,0,0,1-2.719.3c-0.68,0-1.24-.1-1.72-0.1l1.767,3.6a0.667,0.667,0,0,0,.48.4,1.183,1.183,0,0,0,.8-0.9c0.6-.3,1.038-0.5,5.074-2.3,2.637-1.2,4.395-2.2,5.035-2.5a18.545,18.545,0,0,0,8.849,5.5A5.361,5.361,0,0,1,910.311,11701.8Zm-9.335-8.4a17.836,17.836,0,0,1-3.352,3.9,13.168,13.168,0,0,1-3.207-3.9h6.559Zm-3.868,5.8a47.956,47.956,0,0,1-5.876,1.4l-0.014-7.2h2.519A16.656,16.656,0,0,0,897.108,11699.2Zm-15.367-26c-0.006-2.8-4.007-3.7-6.007-4.1l-0.08.2a19.2,19.2,0,0,1,2.487,3.5c0.883,1.7,1.123,2.2,2.043,2.2A1.7,1.7,0,0,0,881.741,11673.2Zm21.307,16.2a0.824,0.824,0,0,0-.4-0.6l-1.762-1.4a1.224,1.224,0,0,0-.761-0.5,1.292,1.292,0,0,0-.639.5l-1.237,1.5h-4.559c-0.6,0-3.4,0-6.16-.2l0.8,1.6a34.5,34.5,0,0,1,4.719-.5h9.4C902.689,11689.8,903.049,11689.8,903.048,11689.4Zm-24.689-7.1c-0.006-2.9-5.086-3.3-6.286-3.4l-0.079.2a16,16,0,0,1,3.126,3.5c0.8,1.1,1,1.3,1.722,1.3A1.525,1.525,0,0,0,878.359,11682.3Zm3.073-3.1-0.32-.1c-0.677,1.5-3.822,9.1-4.658,10.8-1.514,3.1-1.753,3.5-3.953,3.5v0.3c2.281,0.8,2.286,3.8,2.288,4.6,0,0.6-.233,3.5-0.233,3.9,0,1.9,1.285,2.3,1.8,2.3,0.76,0,1.759-.7,1.756-2.3,0-.9-0.89-5.3-0.892-6.3a8.074,8.074,0,0,1,.356-2.1c0.238-.8,1.43-5,1.708-5.9C879.607,11686.6,881.035,11680.5,881.432,11679.2Zm67.177,11c-0.009-4.6-5.3-12-9.781-12-0.32,0-.4.1-0.68,0.1,4.964,2.5,7.055,8.4,7.057,9.6a1.128,1.128,0,0,1-.877,1.1c-0.28,0-3,.3-3.559.4v0.2c1,0.2,3.161.6,4.243,1.6,1.562,1.5,1.723,1.6,2.2,1.6C947.854,11692.8,948.612,11691.6,948.609,11690.2Zm-16.408-5.9-0.321-.1c-1.714,2.7-4.665,6.9-6.46,9.6a1.4,1.4,0,0,1-.958.7c-1.08.1-3.485-2.9-3.5-7.8a33.178,33.178,0,0,1,.509-5.5,6.027,6.027,0,0,0,.158-1.4c0-2.6-3.008-4.3-5.048-4.4a12.665,12.665,0,0,1,1.406,3.2,62.046,62.046,0,0,1,.654,7.4c0.7,11.4,6.385,13.4,7.784,13.4a1.19,1.19,0,0,0,1.238-1.4c0-.3-0.324-1.8-0.324-2.1a3.011,3.011,0,0,1,.079-0.6C927.5,11694.9,931.643,11685.5,932.2,11684.3Zm34.186,13.5a5.78,5.78,0,1,0-5.787,5.9A5.839,5.839,0,0,0,966.387,11697.8Zm-1.159,0a4.623,4.623,0,1,1-9.239,0,4.625,4.625,0,0,1,4.59-4.7A4.68,4.68,0,0,1,965.228,11697.8Zm10.227-27.3a2.362,2.362,0,0,0-2.324-2.3,2.341,2.341,0,0,0-.591,4.6,0.759,0.759,0,0,1,.362.7,4,4,0,0,1-1.875,2.6l0.641,0.6C972.666,11675.9,975.461,11673.5,975.455,11670.5Zm-6.079,0a2.362,2.362,0,0,0-2.324-2.3,2.341,2.341,0,0,0-.591,4.6,0.759,0.759,0,0,1,.362.7,4,4,0,0,1-1.875,2.6l0.641,0.7C966.587,11675.9,969.382,11673.5,969.376,11670.5Zm46.924,2.2c-0.01-3-5.77-3.4-6.53-3.4-0.52,0-.68.1-1.2,0.1a15.777,15.777,0,0,1,4.69,3c1.48,1.5,1.56,1.5,2,1.5A1.073,1.073,0,0,0,1016.3,11672.7Zm-3.56,3.4c0-2.8-4.76-3.6-7.28-3.8a25.753,25.753,0,0,1,4.32,3.6c1.29,1.4,1.37,1.5,1.85,1.5A1.131,1.131,0,0,0,1012.74,11676.1Zm1.58,7.4c-0.01-1.8-3.05-3.4-6.33-3.4-1.08,0-4.44.3-6.07,1.7,4.59,0.1,6.67.1,6.68,1.1a1.965,1.965,0,0,1-.8,1.1c-0.36.3-2.28,1.9-2.68,2.3l0.08,0.1c0.84-.4,4.12-1.9,5.52-1.9,0.32,0,2,.2,2.4.2A1.079,1.079,0,0,0,1014.32,11683.5Zm-0.05,16.8a2.319,2.319,0,0,0-2.12-1.8c-0.24,0-.36.1-1.2,0.2a31.319,31.319,0,0,1-5,.4c-6.6,0-7.645-2.3-7.933-6.1a5.745,5.745,0,0,0-.913,3.2c0,3,2.966,5.7,10.086,5.7a26.618,26.618,0,0,0,6.36-.6A1.108,1.108,0,0,0,1014.27,11700.3Zm-12.12-23.8a1.777,1.777,0,0,0-1.85-1.3c-0.6,0-.677.1-1.555,0.7a22.014,22.014,0,0,1-3.4,1.7c0.279-.8,2.072-4.4,2.071-4.8,0-1.1-1.726-3-3.765-3a3.915,3.915,0,0,0-2.119.6c1.962,1,2.442,1.3,2.445,2.5a24.62,24.62,0,0,1-1.23,5.5,23.147,23.147,0,0,1-6.317,1.1,10.088,10.088,0,0,1-3.6-.7,4.221,4.221,0,0,0,4.244,2.7,21.813,21.813,0,0,0,4.918-.7c-3.022,8.9-5.015,12.6-7.287,16.5-1.116,1.9-1.236,2.1-1.235,2.8a1.589,1.589,0,0,0,1.444,1.7c0.879,0,1.238-.7,1.636-1.5,2.311-4.9,4.5-10.8,7.8-20.1a37.615,37.615,0,0,0,7-2.6A1.258,1.258,0,0,0,1002.15,11676.5Zm56.38,12.7c-0.01-3.9-3.7-9.3-11.18-10.6,6.21,4.1,7.49,7.2,7.49,7.7,0,1.1-.99,1.5-5.03,1.9v0.3a26.76,26.76,0,0,1,5.52,1.4,9.17,9.17,0,0,0,2.16,1.1C1058.53,11691,1058.53,11689.5,1058.53,11689.2Zm-13.45-3.5c0-3.3-.85-6.4-4.65-6.4a12.158,12.158,0,0,0-2.2.2c0.6-1.4,1.55-3.6,1.79-4,0.92-1.6,1-1.8,1-2.3,0-1.1-2.57-2.8-4.09-2.8a5.841,5.841,0,0,0-2.31.5c2.16,1,2.84,1.4,2.84,3,0,1.4-1.19,4.5-1.83,6.1-1.96.5-5.31,1.3-5.91,1.5a10.775,10.775,0,0,1-2.32.4c-0.72,0-1.72-.2-2.72-2a2.964,2.964,0,0,0-.44,1.5c0,1.8,2.04,3.7,3.32,3.7a2.715,2.715,0,0,0,1.72-.8,23.676,23.676,0,0,1,5.56-2.4c-0.76,1.9-1.6,3.7-2.47,5.5a60.653,60.653,0,0,1-5.3,9.1c-1.36,1.7-1.64,2.1-1.64,3.3a1.57,1.57,0,0,0,1.25,1.8,1.518,1.518,0,0,0,1.23-.9c1.28-1.5,5.74-10.8,6.02-11.5,0.44-.9,2.95-6.7,3.51-8,0.6-.1,1.79-0.3,2.63-0.4,1.88,0,2.73,1,2.73,4.2,0.01,2.8-1.85,13.2-4.65,13.2-0.8,0-3.93-2.1-4.81-2.7l-0.04.2c1.13,1.6,2.77,4,2.89,5.3,0.13,1.2.21,1.7,1.21,1.7,1.24,0,2.71-1.3,3.51-2.1C1043.87,11697.4,1045.09,11688.5,1045.08,11685.7Zm50.93,6.6c0-3.1-2.33-6.9-7.81-6.9a21.3,21.3,0,0,0-10.31,3.2c-0.52.3-3,2.1-3.24,2.1-0.48,0-.52-0.6-0.52-0.9a28.036,28.036,0,0,1,.83-5.4c0.08-.4.56-2,0.56-2.4a4.825,4.825,0,0,0-.28-1.4c-0.81-2-.89-2.2-0.89-2.6,0-1.2,1.28-2.1,4.32-2.1a12.9,12.9,0,0,1,4.16.6,3.73,3.73,0,0,0,1.84.7c0.52,0,.84-0.4.83-1.3,0-2.4-2.24-3.3-3.12-3.7-3.72-1.5-4.04-1.6-5.77-3-0.03,1.5,1.37,3.2,2.49,3.9,0.96,0.7,1.08.8,1.08,1s-0.12.2-.36,0.2c-6.91,1.1-6.91,3.2-6.9,6.8a59.505,59.505,0,0,1-.71,8.4,13.823,13.823,0,0,0-.51,2.9c0,0.9.64,3.2,2.12,3.2a1.234,1.234,0,0,0,1-.7c3.19-4.8,8.31-8.1,13.06-8.1,4.8,0,5.05,4.1,5.05,5.1,0.01,3.4-2.35,5.4-5.18,6.9a28.512,28.512,0,0,1-9.39,3.3v0.2C1087.88,11702.9,1096.03,11698.9,1096.01,11692.3Zm43.01-16.8a1.111,1.111,0,0,0-.32-0.6l-2.52-2.4c-0.8,1.4-4.03,4.9-9.79,8l0.08,0.3c2.52-.5,5.48-1.5,10.91-5,0.28,0,.64.1,0.92,0.1C1138.9,11675.9,1139.02,11675.6,1139.02,11675.5Zm-12.35,4.5a0.774,0.774,0,0,0-.36-0.6l-1.44-1.3a1.809,1.809,0,0,0-.72-0.5,0.932,0.932,0,0,0-.68.6l-0.84,1.2h-8.36v-2.2h9.6a0.524,0.524,0,0,0,.6-0.4,0.675,0.675,0,0,0-.4-0.6l-1.09-.8a4.758,4.758,0,0,0-.76-0.4,1.04,1.04,0,0,0-.64.5l-0.51.7h-6.8l-0.01-1.9h9.52a0.509,0.509,0,0,0,.6-0.5,1.06,1.06,0,0,0-.4-0.6l-0.8-.7a1.575,1.575,0,0,0-.72-0.4,1.04,1.04,0,0,0-.64.5l-0.68.7h-6.88v-1.9h11.36a0.509,0.509,0,0,0,.6-0.5,1.13,1.13,0,0,0-.37-0.6l-1.28-1.1a1.2,1.2,0,0,0-.72-0.4,0.876,0.876,0,0,0-.64.5l-0.8,1.1h-7.91l-3.29-1.7c0.29,1.5.57,3.2,0.58,10.7-2.08,0-3.44-.1-4.88-0.2l0.81,1.6a24.27,24.27,0,0,1,4.72-.4h1.08c-0.32,1.2-.44,1.6-1.24,3.9-0.36,0-1.68.1-1.96,0.1a10.439,10.439,0,0,1-1.92-.1l1.61,3.3a0.718,0.718,0,0,0,.56.5c0.44,0,.52-0.4.68-0.9,1.4-.5,8.39-2.8,9.95-3.5,0.84,2,1,2.3,1.84,2.3a1.234,1.234,0,0,0,1.28-1.3c0-2.4-3.32-3.5-4.81-4l-0.19.4a6.869,6.869,0,0,1,1.6,2.1c-2.6.5-7.08,0.9-7.68,1,1.16-1.2,2.84-2.9,3.55-3.8h9.28A0.5,0.5,0,0,0,1126.67,11680Zm15.14,10.6a1.012,1.012,0,0,0-.4-0.7l-2.16-1.7a1.328,1.328,0,0,0-.76-0.5,1.04,1.04,0,0,0-.64.5l-1.52,1.8h-13.08c0.16-.2.36-0.6,0.56-0.9a2.111,2.111,0,0,0,1.56-1.1,0.617,0.617,0,0,0-.56-0.4l-3.36-1.1a10.544,10.544,0,0,1-1.08,3.6h-6.92c-0.68,0-3.44-.1-6.12-0.3l0.81,1.6a25.478,25.478,0,0,1,4.68-.4h7.07a33.879,33.879,0,0,1-11.61,12l0.16,0.2a24.549,24.549,0,0,0,11.86-8.7,14.257,14.257,0,0,0,4.21,4.4,29.09,29.09,0,0,1-11.67,5.1l0.04,0.3a26.189,26.189,0,0,0,13.51-4.1,27.621,27.621,0,0,0,12.29,3.8,6.065,6.065,0,0,1,2.79-3.5l-0.08-.2a42.051,42.051,0,0,1-4.32.2,25.94,25.94,0,0,1-9.04-1.4,45.994,45.994,0,0,0,4.15-3.7c1.04-.1,1.68-0.2,1.68-0.8a0.787,0.787,0,0,0-.32-0.5l-1.76-1.6a1.333,1.333,0,0,0-.56-0.3,1.2,1.2,0,0,0-.6.4l-0.88.8h-8.6c0.88-1.3,1.24-1.9,1.55-2.4h18.52A0.5,0.5,0,0,0,1141.81,11690.6Zm-12.27,3.7a25.734,25.734,0,0,1-3.87,3.7,14.38,14.38,0,0,1-4.85-3.7h8.72Zm8.03-24.2a0.9,0.9,0,0,0-.36-0.6l-2.68-1.7c-2.16,2.6-5.67,4.7-9.11,6.4l0.04,0.3c2.32-.4,7.04-1.4,10.67-4h0.64C1137.13,11670.5,1137.57,11670.4,1137.57,11670.1Zm3.98,11a1.47,1.47,0,0,0-.32-0.6l-2.44-2.5c-1,1.8-7.19,6.2-13.78,8.5l0.16,0.4c4.03-.5,7.95-1.5,14.7-5.6a3.465,3.465,0,0,0,1.16.2A0.465,0.465,0,0,0,1141.55,11681.1Zm42.25,5c-0.01-8.1-7.06-12.6-14.82-12.6-9.76,0-17.02,7.1-17.01,15.7a7.463,7.463,0,0,0,1.13,4.1c0.28,0.4,1.88,1.8,2.16,2.2,1.21,1.7,1.57,2.2,2.49,2.2a2.313,2.313,0,0,0,1.28-.4c2.71-2.2,6.46-10.3,9.01-15.8,1.23-2.6,1.35-2.9,1.35-3.3,0-.6-0.6-2-2.77-3.2a3.273,3.273,0,0,1,1.64-.2c6.96,0,12.41,3.9,12.42,10.7,0.01,6.1-3.98,11.7-12.53,14.8l0.04,0.3C1177.35,11699.8,1183.82,11693.8,1183.8,11686.1Zm-17.57-8.3c0,2.1-1.31,4.7-5.3,12.7-0.67,1.4-2.23,4.2-3.31,4.2-1.56,0-3.12-3-3.13-5.7-0.01-7.3,6.1-13,10.49-13.7A3.318,3.318,0,0,1,1166.23,11677.8Zm55.15-5.6a0.863,0.863,0,0,0-.41-0.6l-2.68-2.1a1.55,1.55,0,0,0-.76-0.3,0.9,0.9,0,0,0-.6.5l-1.51,2h-15.36a60.027,60.027,0,0,1-6.12-.3l0.76,1.6a29.531,29.531,0,0,1,4.72-.3l21.36-.1C1221.06,11672.6,1221.38,11672.6,1221.38,11672.2Zm4.41,27a1.6,1.6,0,0,0-.69-0.9c-0.72-.7-1-4.8-1.09-6h-0.32c-0.63,3-1.07,5.2-1.7,6.2-0.76,1.2-2.4,1.2-5.04,1.2-3.84.1-4,.1-4-1.4-0.01-2.2.01-13.3,0.01-15.9h11.91a0.5,0.5,0,0,0,.6-0.4,0.77,0.77,0,0,0-.4-0.6l-2.64-2.4a1.087,1.087,0,0,0-.76-0.4,1.159,1.159,0,0,0-.6.5l-1.76,2.4h-23.27c-0.76,0-3.52-.1-6.16-0.3l0.8,1.6a33.97,33.97,0,0,1,4.72-.3h5.44a8.283,8.283,0,0,1,.24,2.3c0.02,8.3-.93,14.3-10.48,18.8l0.04,0.2c12.63-2.7,13.18-10.9,13.52-18.6,0.84-.5,1.44-0.8,1.44-1.2a0.829,0.829,0,0,0-.6-0.6l-2.56-.9,7.52-.1,0.03,16.6c0.01,3.5,1.49,3.5,6.68,3.5,3.8,0,6.4,0,7.88-1.2A3.276,3.276,0,0,0,1225.79,11699.2Zm37.63-23.2c0-1.4-2.84-2.1-5.32-2.1-3.72,0-7.76,1.1-9.91,4a23.1,23.1,0,0,1,7.27-1.9c0.24,0,1.48,0,1.48.5a0.3,0.3,0,0,1-.11.3c-0.12.1-3.04,2.8-3.64,3.4l0.24,0.2a18.387,18.387,0,0,1,7.72-3C1262.59,11677.2,1263.42,11676.9,1263.42,11676Zm2,21.1c0-1.1-1.68-1.7-3.08-1.7-0.4,0-4.28.3-5.08,0.3-7.56,0-8.28-2.3-9.21-5.3a2.759,2.759,0,0,0-.39,1.6,5.923,5.923,0,0,0,4.05,5.5c3.48,1.1,8.84,1.1,9.8,1.1C1264.03,11698.6,1265.43,11698.4,1265.42,11697.1Zm-22.06-11.6-0.32-.1c-1.43,3.1-3.1,7.7-3.54,9.1a1.06,1.06,0,0,1-.52.8c-0.64,0-1.32-3.1-1.33-5.9a34.719,34.719,0,0,1,2.78-12.5,5.553,5.553,0,0,0,.51-1.9c0-1.6-2.6-3.8-4.04-3.8a1.342,1.342,0,0,0-.72.2,5.206,5.206,0,0,1,1.37,3.8,17.824,17.824,0,0,1-.24,2.7,100.176,100.176,0,0,0-1.54,12.4c0.02,8.1,2.63,11.8,4.27,11.8,0.96,0,1.04-.8,1.03-1.5,0-.4-0.2-2.3-0.2-2.7a47.778,47.778,0,0,1,1.38-7.7C1242.57,11688.9,1243.13,11686.6,1243.36,11685.5Zm52.76,1.1v-4.2c0.76-.7.99-1,0.99-1.3a0.834,0.834,0,0,0-.76-0.6l-3.72-1.1c0.45,1.8.49,3.1,0.58,7.2l-6.4.1-3.29-1.8a33.778,33.778,0,0,1,.17,3.6c0.01,3.3.02,11.7-.17,14.3,0,0.2-.04.6-0.04,0.7a0.776,0.776,0,0,0,.84.9,2.6,2.6,0,0,0,2.08-1.1,4.967,4.967,0,0,0,.08-1.4h17.79c-0.07,1.7-.07,2.4.93,2.4,1.2,0,2.12-.9,2.11-2.5,0-.3-0.04-1.1-0.08-1.7-0.25-6.2-.26-9-0.26-11.4,0.2-.2.68-0.7,0.8-0.8a1.011,1.011,0,0,0,.27-0.6,1.159,1.159,0,0,0-.44-0.6l-1.68-1.2a1.9,1.9,0,0,0-.72-0.4,0.986,0.986,0,0,0-.56.4l-1,1.1h-7.52Zm8.14,7.5,0.01,6.8-8.08.1c0-1.1-.05-5.8-0.05-6.8Zm-17.84-.9-0.01-5.6h6.8c0.04,3.4.08,3.8,0.09,5.6h-6.88Zm17.83-5.6,0.01,5.6h-8.12l-0.01-5.6h8.12Zm-17.82,13.4-0.01-6.8h6.88c0,1,.05,5.8.05,6.8h-6.92Zm-5.21-31.3-3.77-1.6a59.229,59.229,0,0,1,.74,11.2c0.02,5.8.03,14-5.07,22.3l0.28,0.2c6.34-6.1,7.77-12.3,7.75-23.2h22.16c0,0.2-.04,1.3-0.04,1.5a0.9,0.9,0,0,0,.96,1,1.885,1.885,0,0,0,2.12-1.7c0-.1-0.17-2.9-0.17-3.5-0.04-1.4-.08-2.8,0-3.8,0.91-.7,1.15-1,1.15-1.3a1.593,1.593,0,0,0-.52-0.7l-1.56-1.3a2.131,2.131,0,0,0-.72-0.5,1.345,1.345,0,0,0-.68.5l-0.88.9h-21.75Zm22.07,0.9,0.02,7-22.16.1c0-1.1-.05-6-0.05-7Zm33.98,31.2c0-2.1-1.6-3.5-10.58-11.6-3.24-2.9-3.52-3.2-3.52-4.2a1.9,1.9,0,0,1,.67-1.5c3.32-3.6,9.26-9.1,10.54-10.1,1.2-1,1.6-1.3,1.6-2.1a4.807,4.807,0,0,0-5.41-4.1c1.04,1.1,1.92,1.9,1.93,2.9,0,1.6-6.07,7.9-10.1,12.2-1.36,1.5-1.48,2.1-1.47,2.8a4.363,4.363,0,0,0,1.44,2.8c7.61,7.5,8.54,8.4,10.74,12,1.89,3,2.01,3.2,2.65,3.2C1336.76,11704.1,1337.28,11702.7,1337.27,11701.8Zm19.76-4.2a2.15,2.15,0,1,0,2.16,2.1A2.151,2.151,0,0,0,1357.03,11697.6Zm0.71-2.4a139.579,139.579,0,0,1,.65-16.8c0.08-.8.67-4.4,0.67-5.1a2.122,2.122,0,0,0-2.08-2.1,2.149,2.149,0,0,0-2.08,2.1c0,0.3.57,4.5,0.69,5.3a150.387,150.387,0,0,1,.71,16.6h1.44Z" transform="translate(-733.594 -11667.1)"/>
</svg>
