<?xml version="1.0" encoding="utf-8"?>
<!-- Generator: Adobe Illustrator 25.0.0, SVG Export Plug-In . SVG Version: 6.00 Build 0)  -->
<svg version="1.1" id="sec09" xmlns="http://www.w3.org/2000/svg" xmlns:xlink="http://www.w3.org/1999/xlink" x="0px" y="0px"
	 viewBox="0 0 593 156" style="enable-background:new 0 0 593 156;" xml:space="preserve" width="593" height="156">
<style type="text/css">
	.st0{fill:none;stroke:#000000;stroke-miterlimit:10;}
	.st1{fill:#221815;}
	.st2{fill:none;stroke:#231815;stroke-width:1.1185;stroke-miterlimit:10.0128;}
	.st3{fill:#231815;}
</style>
<g id="item02_1_">
	<line class="st0" x1="418.5" y1="70" x2="561.5" y2="70"/>
	<path id="txt01a" class="st1" d="M417.5,14.5c-2.7-4.3-2.7-9.7,0-14H414v14H417.5z M420.7,12.6V2.5h10.1c0.1,0,0.2,0,0.2-0.1V2.3
		c0-0.1-0.1-0.1-0.1-0.2L430,1.5c-0.1,0-0.2-0.1-0.2-0.1c-0.1,0-0.2,0.1-0.2,0.2l-0.5,0.6h-8.2l-1.3-0.7c0,0.2,0.1,0.5,0.1,0.8
		c0.1,0.8,0.1,3.5,0.1,4.3c0,2,0,4.5-0.1,6.5c0,0.1,0,0.1,0,0.2c-0.1,0.3,0.1,0.5,0.3,0.6h0.1c0.4,0,0.7-0.2,0.7-0.6
		c0-0.1,0-0.2,0-0.3h10.4c0.1,0,0.2,0,0.2-0.1v-0.1c0-0.1-0.1-0.1-0.1-0.2l-1-0.7c-0.1,0-0.2-0.1-0.2-0.1c-0.1,0-0.1,0-0.2,0.2
		l-0.6,0.6L420.7,12.6L420.7,12.6z M425.8,7.8c0.3,1.3,1.1,2.6,3.2,4.1c0.2-0.6,0.7-1,1.3-1.1v-0.1c-2.5-0.5-3.6-1.5-4.3-2.9h4.1
		c0.1,0,0.2,0,0.2-0.1V7.6c0-0.1-0.1-0.1-0.1-0.2l-0.9-0.6c-0.1-0.1-0.2-0.2-0.3-0.2c-0.1,0-0.2,0.1-0.2,0.2l-0.5,0.7h-2.6
		c0.1-0.8,0.2-1.5,0.2-2.3h3.3c0.1,0,0.2,0,0.2-0.1c0,0,0,0,0-0.1c-0.1-0.1-0.1-0.1-0.1-0.2l-0.8-0.7c-0.1,0-0.2-0.1-0.3-0.1
		c-0.1,0-0.2,0.1-0.2,0.2l-0.5,0.7h-4.3c0.3-0.4,0.5-0.8,0.6-1.3c0.2,0,0.4,0,0.5-0.2c0-0.1-0.1-0.2-0.2-0.2l-1.3-0.5
		c-0.2,1.6-0.8,3.1-1.6,4.4l0,0c0.7-0.5,1.2-1.2,1.7-1.9h1.9c0,0.8-0.1,1.5-0.2,2.3h-1.4c0,0-1.1,0-2.1-0.1l0.3,0.5
		c0.5-0.1,1.1-0.1,1.7-0.1h1.6c-0.6,1.8-1.9,3.4-3.7,4.3v0.1C423.5,11.7,425.2,10,425.8,7.8L425.8,7.8L425.8,7.8z M438.4,5.1
		c0.2-0.2,0.6-0.6,0.9-0.8c0.2,0,0.5,0,0.5-0.2c0-0.1-0.1-0.2-0.2-0.3l-1.1-0.5c0,0.6-0.1,1.2-0.3,1.8h-0.3l-1.1-0.5
		c0.1,0.7,0.2,1.3,0.1,2c0,0.3-0.1,1.9-0.1,2c0,0.2,0.1,0.4,0.2,0.4c0.1,0,0.1,0,0.2,0c0.3,0,0.6-0.2,0.6-0.4c0,0,0,0,0-0.1h2.5
		c0,0.4,0,0.6,0.3,0.6c0.3,0,0.6-0.2,0.7-0.5c0,0,0,0,0-0.1s-0.1-1.4-0.1-1.7V5.7c0.1-0.1,0.2-0.1,0.2-0.2c0.1,0,0.1-0.1,0.1-0.2
		c0-0.1-0.1-0.2-0.1-0.2L441,4.8c0-0.1-0.1-0.1-0.2-0.1s-0.2,0-0.2,0.1l-0.4,0.3H438.4L438.4,5.1z M440.3,5.4v1.2h-2.5V5.4H440.3z
		 M440.3,6.9v1.2h-2.5V6.9H440.3z M445.1,10.1c0.1,0,0.2,0,0.2-0.1s-0.1-0.2-0.1-0.3l-0.8-0.6c0-0.1-0.1-0.1-0.2-0.1s-0.1,0-0.2,0.2
		l-0.5,0.6h-4c0-0.1,0-0.3,0-0.4c0.4-0.2,0.4-0.3,0.4-0.4s-0.1-0.1-0.2-0.1l-1.3-0.4c0.2,0.4,0.2,0.9,0.2,1.3H435c0,0-1.1,0-2.2-0.1
		l0.3,0.5c0.5-0.1,1.1-0.1,1.6-0.1h2.8c-1.3,1.4-2.9,2.5-4.6,3.3v0.1c2.2-0.4,4.2-1.5,5.7-3.2c0,0.5-0.1,2.7-0.1,3.1
		c0,0.3,0.1,0.5,0.3,0.5c0.3,0,0.6-0.3,0.7-0.6c0-0.3-0.1-1.6-0.1-1.9c0-0.3,0-0.8,0-1.3l0,0c1,1.5,2.5,2.7,4.2,3.3
		c0.1-0.1,0.1-0.1,0.6-0.6c0.2-0.3,0.5-0.4,0.8-0.5v-0.1c-2,0-3.9-0.8-5.3-2.1H445.1L445.1,10.1z M437.8,2.6c0-0.3,0-0.3,0-0.6
		c0.2,0,0.3-0.1,0.4-0.3c0-0.1-0.1-0.2-0.2-0.2l0,0l-1.3-0.4c0.1,0.5,0.2,1,0.2,1.5h-1.7c-0.2,0-1.2,0-2.2-0.1l0.3,0.5
		c0.5-0.1,1.1-0.1,1.6-0.1h1.9c0,0.2-0.1,1-0.1,1.2c0,0.1,0,0.3,0.4,0.3c0.3,0,0.5-0.2,0.6-0.4V2.9h2.3c0,1.4,0,1.5,0.3,1.5
		c0.3,0,0.6-0.2,0.7-0.6l0,0c0-0.1,0-0.8,0-0.9h3.8c0.1,0,0.2,0,0.2-0.1c0-0.1-0.1-0.2-0.1-0.3l-0.7-0.6c-0.1-0.1-0.2-0.1-0.3-0.1
		c-0.1,0-0.2,0.1-0.2,0.2l-0.4,0.6h-2.2V2c0.2,0,0.3-0.1,0.4-0.3c0-0.1-0.1-0.2-0.2-0.2L440,1.1c0.2,0.5,0.3,1,0.2,1.5H437.8
		L437.8,2.6z M433.8,4.6c0.3,0.2,0.6,0.5,0.8,0.9c0.4,0.7,0.5,0.8,0.8,0.8c0.2,0,0.5-0.1,0.5-0.4V5.8C436,4.9,434.4,4.6,433.8,4.6
		L433.8,4.6z M436.5,6.8c-1,0.4-2.1,0.6-3.1,0.7c-0.1,0-0.3,0-0.4-0.1l0.6,1.3c0,0.1,0.1,0.1,0.2,0.1s0.1,0,0.2-0.1l0.1-0.3
		c0.2-0.1,1-0.6,1.2-0.7C435.4,7.6,436.3,7,436.5,6.8L436.5,6.8L436.5,6.8z M441.6,6.7c0.5,0.3,1,0.7,1.5,1.1c0.2,0.3,0.6,0.6,1,0.7
		c0.3,0,0.6-0.3,0.5-0.6c0-0.9-1.8-1.2-3-1.3V6.7L441.6,6.7z M442.9,3.9c0,0.2-0.1,0.4-0.2,0.6c-0.4,0.6-0.8,1.2-1.2,1.8h0.1
		c0.2-0.1,1.5-0.9,1.8-1.1c0.4-0.1,0.6-0.1,0.6-0.3c0-0.1-0.1-0.1-0.1-0.2L442.9,3.9z M449.3,8.8l-1.2-0.6c0.1,0.6,0.1,1.1,0.1,1.7
		c0,0.5-0.1,2.8-0.1,3.2c0,0.2,0.1,0.4,0.2,0.4h0.1c0.3,0,0.7-0.2,0.7-0.5c0-0.1,0-0.1,0-0.2c0,0,0-0.1,0-0.2h2.9c0,0.1,0,0.2,0,0.3
		c0,0.2,0.1,0.4,0.3,0.4c0,0,0,0,0.1,0c0.3,0,0.6-0.3,0.7-0.6v-0.1c0-0.2,0-1.2,0-1.4c0-0.8,0-1.2,0-1.7c0.2-0.1,0.3-0.2,0.3-0.4
		c0-0.1-0.1-0.2-0.2-0.3l-0.5-0.4c-0.1,0-0.2-0.1-0.2-0.1c-0.1,0-0.2,0.1-0.2,0.2L452,8.8L449.3,8.8L449.3,8.8z M452.1,9.2v3h-2.9
		v-3H452.1z M451,3.3c0-0.4,0-0.7,0.1-1.1c0.4-0.2,0.5-0.2,0.5-0.4c-0.1-0.1-0.2-0.2-0.3-0.2l-1.4-0.4c0.2,0.7,0.3,1.4,0.3,2.1h-0.5
		c-0.7,0-1.4-0.1-2.2-0.1l0.3,0.5c0.5-0.1,1.1-0.1,1.6-0.1h4.6c0.1,0,0.2,0,0.2-0.1c0,0,0,0,0-0.1l-0.1-0.2l-0.6-0.5
		c-0.1-0.1-0.2-0.2-0.3-0.2c-0.1,0-0.2,0.1-0.2,0.2l-0.5,0.6L451,3.3L451,3.3z M450.9,7c0.5-0.6,1.1-1.3,1.6-2
		c0.2-0.1,0.4-0.2,0.5-0.4c0-0.1-0.1-0.2-0.2-0.3l-1.2-0.5c-0.2,1.1-0.4,2.2-0.9,3.2h-1.5c-0.2,0-1.1,0-2.2-0.1l0.3,0.6
		c0.5-0.1,1.1-0.1,1.7-0.1h5.3c0.1,0,0.2-0.1,0.2-0.2c0-0.1-0.1-0.2-0.1-0.2l-0.7-0.6c-0.1,0-0.2-0.1-0.3-0.1
		c-0.1,0-0.2,0.1-0.2,0.2L452.8,7H450.9L450.9,7z M455.9,2.2l-1.2-0.6c0.1,1.1,0.1,4.4,0.1,5.8c0,1.8,0,3.2-0.1,5.3
		c0,0.1,0,0.4,0,0.6c0,0.3,0,0.7,0.4,0.7c0.4,0,0.7-0.2,0.7-0.6c0-0.1,0-0.1,0-0.2s0-0.4,0-0.6c0-2.5-0.1-9.4-0.1-10h1.9
		c-0.3,1.4-0.7,2.7-1.2,4c1.2,0.8,2,2.1,2.1,3.6c0.1,0.5-0.3,1-0.8,1c-0.1,0-0.2,0-0.3,0c-0.4,0-0.8-0.1-1.2-0.1v0.1
		c0.5,0.3,0.9,0.8,1.1,1.4c0.7-0.2,2.3-0.5,2.3-2.1c0-0.8-0.3-1.5-0.7-2.2c-0.5-0.8-1.3-1.4-2.1-1.8c0.3-0.5,1.7-2.8,2-3.4
		c0.3-0.1,0.5-0.2,0.5-0.4c0-0.1-0.1-0.2-0.2-0.2l-0.7-0.6c-0.1-0.1-0.1-0.1-0.2-0.1s-0.2,0-0.2,0.1l-0.3,0.3L455.9,2.2L455.9,2.2z
		 M448.4,4.2c0.3,0.5,0.5,1.1,0.5,1.7c0.1,0.5,0.2,0.7,0.6,0.7c0.3,0,0.6-0.3,0.6-0.7l0,0C450.1,4.9,448.9,4.4,448.4,4.2L448.4,4.2z
		 M474.3,9.4V9.2c-1.3-0.1-2.6-0.7-3.6-1.6c0-0.8,0-4.6,0-5.5c0.2,0,0.4-0.2,0.5-0.4c0-0.1-0.1-0.2-0.2-0.2L469.4,1
		c0.1,0.5,0.2,0.9,0.3,1.4s0.1,2,0.1,4.2c-0.6-0.9-1.1-1.9-1.5-2.9h-0.1c0.2,1.4,0.7,2.8,1.6,3.9c0,0.7-0.1,4.3-0.1,5.1
		c0,0.1,0,0.7,0,0.8c0,0.2,0.1,0.4,0.3,0.4h0.1c0.4,0.1,0.7-0.2,0.8-0.6l0,0c0-0.1,0-0.6,0-0.7c0-0.4-0.1-2.5-0.1-3.8
		c0.7,0.7,1.5,1.2,2.3,1.6C473.3,9.9,473.8,9.6,474.3,9.4L474.3,9.4z M467.9,4.2c0-0.1-0.1-0.2-0.2-0.3L467,3.3
		c-0.1-0.1-0.2-0.1-0.3-0.1s-0.1,0-0.2,0.2l-0.4,0.4h-2.2c0.1-0.3,0.3-0.8,0.5-1.6c0.4-0.1,0.5-0.2,0.5-0.4c0-0.1-0.1-0.2-0.2-0.2
		L463.4,1c0.1,0.2,0.1,0.3,0.1,0.5c-0.5,2.6-1.4,5.2-2.9,7.4l0.1,0.1c0.9-0.8,1.7-1.8,2.3-2.8c0.4,0.4,0.6,0.9,0.7,1.4
		c0.1,0.6,0.2,1,0.7,1c0.4,0,0.6-0.3,0.6-0.7c0-1.1-1.6-1.8-1.8-1.9c0.3-0.6,0.6-1.2,0.8-1.8h2.4c-0.6,3.9-2.1,7-5.3,9.3l0.1,0.1
		c2.9-1.1,5.2-3.5,6.3-9C467.6,4.6,467.8,4.4,467.9,4.2L467.9,4.2z M485.1,2.1c0-0.1-0.1-0.2-0.2-0.3l-0.5-0.3
		c-0.1-0.1-0.2-0.2-0.3-0.2c-0.1,0-0.2,0.1-0.3,0.2l-0.3,0.3h-4.2L478,1.2c0.1,0.6,0.2,1.3,0.2,1.9c0,0.8,0,1.8-0.1,2.1
		c-0.1,0.3,0,0.7,0,0.9c-0.1,0.2,0.1,0.4,0.3,0.5h0.1c0.3,0,0.6-0.3,0.7-0.6c0-0.1,0-0.1,0-0.2h4.5c0,0.5,0,0.7,0.3,0.7
		s0.7-0.2,0.7-0.6l0,0c0-0.4-0.1-2.3-0.1-2.7c0-0.3,0-0.5,0-0.7C484.8,2.4,484.9,2.3,485.1,2.1L485.1,2.1z M483.6,5.5h-4.5V2.2h4.5
		V5.5z M487.1,8.4c0-0.1-0.1-0.2-0.2-0.3l-0.5-0.3c-0.1-0.1-0.2-0.2-0.3-0.2s-0.2,0.1-0.2,0.2l-0.3,0.3h-2.3L482,7.5
		c0.2,0.7,0.2,1.3,0.2,2c0,0.6-0.1,3.2-0.1,3.8c0,0.2,0.1,0.4,0.3,0.4h0.1c0.2,0,0.4-0.1,0.6-0.3c0.1-0.3,0.1-0.5,0.1-0.8h2.6
		c0,0.7,0,1,0.4,1c0.3,0.1,0.6-0.1,0.6-0.4c0-0.1,0-0.1,0-0.2c0-0.1-0.1-2.1-0.1-2.2v-2C486.8,8.7,487,8.6,487.1,8.4L487.1,8.4z
		 M485.7,12.3h-2.6V8.5h2.6V12.3z M480.6,8.4c0-0.1-0.1-0.2-0.2-0.2l-0.6-0.4c-0.1-0.1-0.2-0.2-0.3-0.2c-0.1,0-0.2,0.1-0.2,0.2
		L479,8.1h-2.1l-1.2-0.7c0.1,0.8,0.2,1.5,0.1,2.3c0,1,0,1.9,0,2.5c0,0.1,0,0.8,0,0.9c0,0.2,0.1,0.5,0.3,0.5l0,0c0.7,0,0.7-0.6,0.7-1
		h2.4c-0.1,0.6,0.1,0.7,0.4,0.7c0.7,0,0.7-0.3,0.7-0.6c0-0.5-0.1-3.3-0.1-3.9C480.4,8.7,480.5,8.6,480.6,8.4L480.6,8.4z M479.3,12.2
		h-2.4V8.5h2.4V12.2z M488.9,0.5c2.7,4.3,2.7,9.7,0,14h3.5v-14H488.9z M504.7,8.6h-4.9V7.2h4.9V8.6z M504.5,6.9h-4.6l-1.3-0.6
		c0.1,0.6,0.2,1.3,0.2,1.9c0,1.1,0,2.7,0,3.9c0,0.2-0.1,1.2-0.1,1.4c-0.1,0.2,0.1,0.4,0.3,0.5h0.1c0.4,0,0.7-0.3,0.7-0.7v-0.1
		c0-0.2-0.1-2-0.1-2.3h4.9v1.4c0,0.3-0.1,0.3-0.6,0.3c-0.4,0-0.8,0-1.2-0.1v0.2c0.6,0.1,1.1,0.6,1.2,1.3c0.2-0.1,1.7-0.3,1.7-1.6
		c0-0.6-0.1-4.2-0.1-4.9c0.1-0.1,0.2-0.2,0.2-0.3l0.1-0.1c0-0.1-0.1-0.2-0.2-0.3l-0.4-0.4c-0.1,0-0.1-0.1-0.2-0.1
		c-0.1,0-0.2,0.1-0.3,0.2L504.5,6.9z M504.7,10.5h-4.9V9h4.9V10.5z M502.7,3V2c0.1-0.1,0.3-0.3,0.4-0.4c0-0.2-0.1-0.2-0.2-0.2
		L501.4,1c0.2,0.6,0.3,1.3,0.3,2h-3.5c-0.2,0-1.2,0-2.1-0.1l0.3,0.6c0.5-0.1,1.1-0.1,1.6-0.1h2.6c-0.2,0.5-0.5,1-0.9,1.7
		c-1.1,0.1-1.6,0.1-1.7,0.1c-0.5,0-1.1-0.1-1.6-0.2l0.5,1.3c0,0.1,0.1,0.2,0.2,0.3c0.2-0.1,0.3-0.2,0.3-0.4c4.6-0.5,7.7-1.2,8-1.2
		c0.4,0.3,0.7,0.6,0.9,0.9c0.2,0.3,0.5,0.6,0.9,0.7c0.3,0,0.6-0.4,0.6-0.7c0-0.9-1.7-1.7-3.8-2L503.9,4c0.5,0.2,0.9,0.5,1.2,0.8
		c-1.9,0.1-3.4,0.2-5.1,0.3c0.7-0.6,1.4-1.2,2-1.7h6.2c0.1,0,0.2-0.1,0.2-0.2S508.3,3,508.2,3l-0.8-0.8c-0.1,0-0.2-0.1-0.3-0.1
		c-0.1,0-0.2,0.1-0.2,0.2L506.3,3H502.7L502.7,3z M515.4,8.6L512.2,9C512,9,511,9.1,510,9.2l0.3,0.5c0.5-0.2,1.1-0.3,1.6-0.3
		l3.3-0.4c0,0.7,0,2.3,0,3c0,1.3,0.6,1.4,3.3,1.4c1.1,0.1,2.1,0,3.1-0.3c0.3-0.1,0.5-0.4,0.6-0.7c-0.1-0.2-0.2-0.4-0.3-0.5
		c-0.2-0.6-0.4-1.2-0.4-1.8h-0.1c-0.1,0.5-0.3,1.1-0.5,1.6c-0.2,0.6-0.3,0.8-2.8,0.8c-2,0-2.1-0.1-2.1-0.6c0-0.1,0-2.6,0.1-3
		l5.8-0.7c0.1,0,0.2,0,0.2-0.1c0-0.1-0.1-0.2-0.2-0.3l-0.8-0.6c-0.1,0-0.2-0.1-0.2-0.1c-0.1,0-0.2,0.1-0.2,0.2l-0.5,0.8l-4,0.4V5.7
		l4.6-0.6c0.1,0,0.2,0,0.2-0.1s-0.1-0.2-0.2-0.2L520,4.3c-0.1-0.1-0.2-0.2-0.3-0.2s-0.2,0.1-0.2,0.2L519.3,5l-2.9,0.3V3
		c0.7-0.1,2-0.4,3.5-0.8c0.1,0,0.4,0.1,0.5,0.1s0.2-0.1,0.3-0.2c0-0.1-0.1-0.2-0.1-0.2l-1-1c-0.3,0.4-0.5,0.4-1.9,0.9
		c-2.5,0.7-5,1.3-7.6,1.8v0.1c1.8,0,3.6-0.1,5.3-0.5v2.2l-2.3,0.3c-0.2,0-1.2,0.1-2.2,0.1l0.3,0.6c0.5-0.2,1.1-0.3,1.6-0.3l2.6-0.3
		L515.4,8.6z M529.1,2.7c0-0.6-0.7-1.4-2.3-1.6v0.2c0.4,0.3,0.8,0.7,1,1.2c0.1,0.4,0.4,0.7,0.8,0.8C528.8,3.3,529.1,3,529.1,2.7
		L529.1,2.7z M536.8,12.5L536.8,12.5l-0.6-0.1c-2.1,0.1-4.1-1-5.3-2.7h5.5c0.1,0,0.2,0,0.2-0.1c0-0.1-0.1-0.2-0.2-0.2l-0.8-0.7
		c-0.1-0.1-0.2-0.1-0.3-0.1c-0.1,0-0.2,0-0.2,0.1l-0.5,0.7h-4.1c0.1-0.4,0.1-0.7,0.2-1.1c0.2-0.1,0.3-0.2,0.3-0.4
		c0-0.1-0.2-0.2-0.3-0.2l-0.8-0.2h6.6c0.1,0,0.2,0,0.2-0.1s-0.1-0.2-0.2-0.3l-0.8-0.6c-0.1-0.1-0.2-0.2-0.3-0.2
		c-0.1,0-0.2,0.1-0.2,0.2l-0.5,0.7h-4.2V5.5h3.8c0.1,0,0.2,0,0.2-0.1V5.3l-0.1-0.2l-0.7-0.5c-0.1-0.1-0.2-0.1-0.3-0.1
		s-0.2,0.1-0.2,0.2l-0.3,0.5h-2.4V3.8h5.2c0.1,0,0.2,0,0.2-0.1c0,0,0,0,0-0.1c0-0.1-0.1-0.1-0.1-0.2l-0.7-0.6
		c-0.1-0.1-0.2-0.2-0.3-0.2c-0.1,0-0.2,0.1-0.2,0.2L534,3.5h-2.9c1.2-1,1.4-1.1,1.6-1.3c0.4-0.1,0.5-0.2,0.5-0.4
		c0-0.1-0.1-0.2-0.2-0.2l-1.4-0.8c-0.1,1-0.4,1.9-0.9,2.7h-4.2c-0.4,0-1.3-0.1-2.2-0.1l0.3,0.5c0.5-0.1,1.1-0.1,1.7-0.1h3v1.4h-2
		c-0.2,0-1.2-0.1-2.2-0.1l0.3,0.5c0.6-0.1,1.1-0.1,1.7-0.1h2.2v1.7h-3.3c-0.7,0-1.4,0-2.2-0.1l0.3,0.5c0.5-0.1,1.1-0.1,1.7-0.1h3.4
		c0,0.2,0,0.3,0,0.5c0,0.5-0.1,0.9-0.2,1.4h-3.1c-0.2,0-1.2,0-2.1-0.1l0.3,0.6c0.5-0.1,1.1-0.2,1.7-0.2h3.3c-0.6,2-2.8,3.4-4.9,3.9
		v0.1c1.4-0.1,4.9-0.5,6-4h0.2c0.4,1,1,1.9,1.9,2.6c0.9,0.7,2,1.2,3.2,1.4C535.8,13.2,536.3,12.7,536.8,12.5L536.8,12.5z M542.1,9.3
		l-0.8-0.4c1.2-0.8,2.3-1.7,3.2-2.8c1.3,1.8,3.1,3.1,5.2,3.9c0.2-0.5,0.7-0.9,1.3-1.1V8.8c-2.3-0.1-4.5-1.1-6.2-2.7
		C544.9,6,545,6,545,5.9s-0.1-0.2-0.2-0.3l-1.2-0.7c-0.1,0.3-0.2,0.6-0.3,0.8c-1.5,1.9-3.3,3.6-5.4,4.8v0.1c1-0.4,2-0.9,3-1.5
		c0,0.4,0,1.1,0,1.7c0,0.5,0,1.3-0.1,2.2c0,0.2,0,0.4,0,0.6c0,0.2,0.2,0.3,0.4,0.3l0,0c0.4,0,0.6-0.2,0.6-0.8h4.6
		c0,0.6,0.2,0.7,0.4,0.7c0.3,0,0.6-0.2,0.6-0.5c0-0.1,0-0.1,0-0.2c0-0.2-0.1-2.6-0.1-3.1c0.1-0.1,0.3-0.3,0.4-0.4
		c0-0.1,0-0.2-0.1-0.2L547.1,9c-0.1,0-0.2-0.1-0.2-0.1c-0.1,0-0.2,0-0.2,0.1l-0.4,0.3H542.1L542.1,9.3z M546.5,9.7v3.1h-4.6V9.7
		H546.5z M544.8,2.9V2.1c0.1-0.1,0.2-0.2,0.3-0.3l0.1-0.1c0-0.2-0.1-0.2-0.2-0.2l-1.5-0.4c0.2,0.6,0.3,1.2,0.2,1.8h-3.8V2.3h-0.1
		c-0.2,0.5-0.6,1-1.1,1.3c-0.3,0.1-0.6,0.4-0.7,0.8c0,0.3,0.2,0.6,0.6,0.6l0,0c0.8-0.2,1.3-1,1.3-1.8h8.6c-0.2,0.4-0.4,1-0.6,1.2
		l0.1,0.1c0.2-0.1,1.1-0.5,1.3-0.6h0.7c0.1-0.1,0.2-0.2,0.3-0.3c0-0.1,0-0.2-0.1-0.3l-0.9-0.8c-0.1-0.1-0.2-0.2-0.3-0.2
		s-0.1,0.1-0.2,0.1l-0.5,0.5H544.8L544.8,2.9z M542,3.5c-0.1,0.3-0.2,0.5-0.3,0.7c-0.8,1.1-1.8,2.2-2.9,3v0.1
		c1.4-0.5,2.7-1.4,3.8-2.5c0.5-0.1,0.7-0.1,0.7-0.3c0,0-0.1-0.1-0.1-0.2L542,3.5z M545.6,4.1c0.6,0.5,1.2,1.1,1.7,1.8
		c0.5,0.7,0.6,0.8,0.9,0.8c0.3,0,0.5-0.2,0.5-0.5V6.1C548.8,5.4,547.7,4.6,545.6,4.1L545.6,4.1L545.6,4.1z M558,9.4
		c0.4-0.4,0.8-0.8,1.1-1.2c0.2,0.9,0.6,1.8,1.2,2.5c-0.8,1.1-1.7,2-2.9,2.7c0-0.1-0.1-4.9-0.1-5.7c0-0.2,0-0.4,0-0.7
		c0.2-0.1,0.3-0.3,0.4-0.5c-0.1-0.2-0.2-0.3-0.3-0.3c0.3-0.4,0.6-0.8,0.8-1.3c0.4-0.1,0.6-0.2,0.6-0.3c0-0.1-0.1-0.2-0.2-0.2
		l-1.2-0.7c0,0.3-0.1,0.6-0.2,0.9c-0.7,1.6-1.6,3.1-2.6,4.5l0.1,0.1c0.6-0.5,1.2-1.2,1.7-1.8c0,0.9-0.1,5-0.1,6c0,0.2,0,0.5,0.3,0.5
		c0.3,0,0.5-0.2,0.7-0.4l0,0c1.3-0.4,2.5-1.2,3.4-2.2c0.8,0.9,1.9,1.6,3,2c0.3-0.5,0.8-0.9,1.4-1.1v-0.1c-1.4,0-2.8-0.5-3.9-1.4
		c0.8-1.3,1.3-2.8,1.6-4.3c0.2-0.1,0.4-0.3,0.5-0.5c0-0.1-0.1-0.2-0.1-0.2l-0.5-0.5c-0.1,0-0.2-0.1-0.3-0.1s-0.2,0.1-0.2,0.1
		l-0.5,0.5h-1.2c0.1-0.3,0.3-0.5,0.4-0.8c0.2-0.1,0.4-0.2,0.5-0.4c0-0.1-0.1-0.1-0.2-0.2L560,3.8c0,0.2,0,0.5,0,0.7
		C559.6,6.2,558.9,7.9,558,9.4L558,9.4L558,9.4z M562,6c-0.2,1.5-0.6,2.9-1.3,4.2c-0.6-0.6-1.1-1.4-1.4-2.2c0.4-0.6,0.7-1,0.7-1.1
		c0.2,0.2,0.4,0.6,0.4,0.9c0.1,0.6,0.2,0.8,0.6,0.8c0.3,0,0.5-0.2,0.5-0.5l0,0c-0.2-0.7-0.7-1.2-1.4-1.3c0.2-0.3,0.3-0.5,0.4-0.8
		H562z M559.9,3.2V2c0.2-0.1,0.3-0.2,0.4-0.4c0-0.1-0.1-0.2-0.2-0.2L558.7,1c0.2,0.7,0.3,1.5,0.3,2.2h-1.1c-0.7,0-1.4-0.1-2.2-0.1
		l0.3,0.5c0.5-0.1,1.1-0.1,1.7-0.1h6.4c0.1,0,0.2,0,0.2-0.1c0,0,0,0,0-0.1l-0.1-0.2l-0.8-0.6c-0.1-0.1-0.2-0.2-0.3-0.2
		c-0.1,0-0.2,0.1-0.2,0.2l-0.5,0.7H559.9L559.9,3.2z M553.4,1.4c0.4,0.3,0.7,0.7,0.8,1.1c0.3,0.8,0.4,0.9,0.8,0.9
		c0.3,0,0.6-0.3,0.6-0.6l0,0c-0.1-0.4-0.3-0.8-0.7-1C554.5,1.5,554,1.4,553.4,1.4L553.4,1.4z M552.1,4.6c0.4,0.3,0.8,0.8,1,1.3
		c0.3,0.6,0.4,0.7,0.7,0.7s0.5-0.3,0.5-0.6C554.3,5,552.7,4.7,552.1,4.6L552.1,4.6z M555.4,4.9c-0.3,0.8-0.9,2.3-1.5,3.4
		c-0.1,0.7-0.7,1.1-1.4,1.1v0.1c1,0.4,1,0.8,1,2.3c0,0.2-0.1,1-0.1,1.2c-0.1,0.3,0.1,0.6,0.4,0.7c0.1,0,0.1,0,0.2,0
		c0.4,0,0.7-0.3,0.7-0.7v-0.1c0-0.4-0.5-2.5-0.5-2.7c0.1-0.5,0.2-1.1,0.3-1.6C554.9,7.4,555.2,6.1,555.4,4.9L555.4,4.9z"/>
	<path id="txt01b" class="st1" d="M445.8,33.5c-0.4-0.7-1.1-1.1-1.8-1.4c-0.2,0-0.8,0.6-0.9,0.6c-0.1,0.1-2.4,0.3-2.8,0.4
		c0.1-0.3,0.4-1.5,0.5-1.8s0.2-0.5,0.3-0.8c0.2-0.2,0.3-0.4,0.4-0.6c0-0.5-1.5-1.1-2.1-1.1c-0.4,0-0.8,0.1-1.1,0.3
		c0.7,0.1,1.2,0.7,1.1,1.4c0,0.9-0.2,1.8-0.4,2.7l-1.6,0.2c-0.7,0.1-1.9,0.2-2.1,0.2c-0.7,0-1.4-0.4-1.9-1c-0.1,0.2-0.1,0.3-0.1,0.5
		c0.1,0.9,0.7,1.7,1.6,2c0.3,0,0.6-0.1,0.8-0.3c1-0.3,2-0.5,3.1-0.6c-1.5,5-3.6,7.5-5.9,9.4l0.1,0.2c4.9-2,6.3-6.8,7.2-9.8
		c2.6-0.4,2.9-0.4,3.7-0.5c0.1,2.7-0.5,5.3-1.6,7.7c-0.1,0.2-0.3,0.3-0.5,0.3c-0.8-0.2-1.6-0.6-2.3-1l-0.1,0.1
		c1.4,1.5,1.5,1.7,1.6,2.6c0,0.2,0.2,0.5,0.4,0.5c0.5-0.1,0.9-0.3,1.2-0.7c1.5-1.5,2-4.8,2.5-7.9c0-0.4,0.1-0.8,0.5-1.1
		C445.6,33.9,445.7,33.7,445.8,33.5z M459,32.4c0-1.6-2.8-2.5-5.2-2.3c1.2,0.5,2.4,1.2,3.3,2.2c0.6,0.7,0.9,0.9,1.2,0.9
		C458.7,33.2,459,32.9,459,32.4L459,32.4L459,32.4z M467.1,31.8L467.1,31.8c-2,2.2-4.1,4.2-6.5,6c-0.9,0.6-4,2.9-4.6,2.9
		c-0.7-0.1-1.2-0.6-1.5-1.3c-0.1,0.3-0.2,0.6-0.2,0.9c0,0.9,1.3,2.6,2,2.6c0.1,0,0.2,0,0.3-0.1c0.1-0.1,0.5-0.6,0.6-0.7
		c0.3-0.3,2.2-1.7,2.6-2C464.4,36.7,466.6,33.3,467.1,31.8L467.1,31.8z M484,30.5c0-0.7-1.2-0.9-1.7-0.9c-0.3,0-0.6,0.1-0.9,0.2
		c-1.2,0.4-2.5,0.6-3.7,0.6c-0.9,0.1-1.7-0.2-2.4-0.8c-0.1,0.9,0.5,1.7,1.3,1.9c0.1,0,0.2,0,0.2,0c0.1,0,2.1-0.2,3.1-0.3
		c0.8-0.1,1.5-0.1,2.3-0.1C483.5,31,484,31,484,30.5L484,30.5z M487.3,34.6c0-0.9-2-1.3-2.1-1.3c-0.2,0-1,0.3-1.2,0.3
		c-1.2,0.2-9.4,1.1-9.6,1.1c-0.8,0-1.6-0.5-1.9-1.3c-0.1,0.2-0.1,0.5-0.1,0.7c0.1,1,0.7,1.8,1.7,2.1c0.2,0,0.4-0.1,0.6-0.2
		c1.4-0.5,2.9-0.8,4.4-0.9c0.3,0.2,0.4,0.6,0.4,0.9c0,1.4-1.8,6.2-4.9,8.6l0.1,0.1c3.4-1,5.3-4.4,6.3-7.7c0-0.1,0.1-0.3,0.1-0.4
		c0.2-0.2,0.3-0.5,0.4-0.7c0-0.1-0.1-0.2-0.1-0.3c-0.1-0.1-0.7-0.5-0.9-0.6c1.4-0.1,1.8-0.2,2.5-0.2c0.5,0,1.2,0.1,2,0.1
		c0.5,0.1,2,0.3,2.1,0.3c0.3,0,0.5-0.2,0.5-0.4C487.4,34.7,487.4,34.7,487.3,34.6L487.3,34.6z M508.2,34.2c0-0.2-0.1-0.5-0.3-0.6
		c-0.5-0.3-1.1-0.6-1.7-0.7c-0.3,0.1-0.6,0.2-0.8,0.3c-0.4,0-1.7,0.1-2.5,0.1c0-1,0.1-1.9,0.2-2.9c0-0.2,0.2-0.8,0.2-1
		c0-0.6-1.6-1-2.2-1c-0.5,0-0.9,0.2-1.3,0.5c0.3,0,1.4,0.2,1.6,0.8c0.1,0.4,0.1,0.7,0.1,3.7c-1.2,0.1-2.8,0.2-4.2,0.4
		c-0.1-0.9,0-1.9,0.1-2.8c0-0.1,0.2-0.6,0.2-0.7c0-0.5-1.4-1-1.9-1c-0.4,0-0.9,0.1-1.2,0.4c0.8,0.3,1.2,0.4,1.4,0.8
		c0.2,1.1,0.3,2.3,0.3,3.4c-0.5,0-2.6,0.3-2.9,0.3c-0.8,0-1-0.2-1.7-1.2c-0.1,0.3-0.2,0.5-0.2,0.8c0,0.8,0.8,2,1.5,2
		c0.2,0,0.4-0.1,0.5-0.2c0.6-0.2,2-0.5,2.7-0.7c0,0.3,0,1.8,0,2.2c0,0.2-0.1,1.1-0.1,1.3c0,0.3,0.3,1.4,0.8,1.4
		c0.6,0,0.6-0.6,0.6-1.2c0-0.5-0.1-3.3-0.1-3.9c1.4-0.2,2.8-0.3,4.2-0.4c-0.1,4.1-0.1,7.1-3.4,10.4l0.1,0.2
		c4.4-2.8,4.6-6.3,4.6-10.6c0.8,0,1.5,0,2.3,0.1c0.4,0,2.3,0.3,2.4,0.3c0.2,0.1,0.5-0.1,0.5-0.3C508.2,34.3,508.2,34.3,508.2,34.2
		L508.2,34.2z M519,32.4c0-1.6-2.8-2.5-5.2-2.3c1.2,0.5,2.4,1.2,3.3,2.2c0.6,0.7,0.9,0.9,1.2,0.9C518.7,33.2,519,32.9,519,32.4
		L519,32.4L519,32.4z M527.1,31.8L527.1,31.8c-2,2.2-4.1,4.2-6.5,6c-0.9,0.6-4,2.9-4.6,2.9c-0.7-0.1-1.2-0.6-1.5-1.3
		c-0.1,0.3-0.2,0.6-0.2,0.9c0,0.9,1.3,2.6,2,2.6c0.1,0,0.2,0,0.3-0.1c0.1-0.1,0.5-0.6,0.6-0.7c0.3-0.3,2.2-1.7,2.6-2
		C524.4,36.7,526.6,33.3,527.1,31.8L527.1,31.8z M546.5,42.4c0-1.9-3.3-4.3-5.7-5.3c1-1.4,1.9-2.9,2.7-4.4c0.3-0.5,0.3-0.6,0.4-0.6
		c0.6-0.3,0.8-0.3,0.8-0.5c-0.4-0.7-1-1.2-1.7-1.6c-0.2,0-0.8,0.5-0.9,0.5c-0.8,0.5-5.2,0.9-5.7,0.9c-0.4,0-0.7,0-1.5-1.2
		c-0.1,0.3-0.2,0.6-0.2,0.9c0.1,0.9,0.6,1.6,1.4,2c0.4-0.1,0.7-0.3,1.1-0.5c1.7-0.5,3.4-0.8,5.2-1.1c-1.1,3.7-6,9.8-10.6,11.9v0.1
		c1.9-0.4,5.3-1.6,8.8-6.1c1.9,1.4,3.4,3.2,4.5,5.3c0.1,0.3,0.5,0.6,0.8,0.6C546.2,43.3,546.5,42.9,546.5,42.4
		C546.5,42.5,546.5,42.4,546.5,42.4L546.5,42.4z"/>
	<path id="txt01c" class="st1" d="M483.1,100c-0.3-0.6-0.7-1.1-1.3-1.4c-0.1,0-0.6,0.2-0.7,0.2c-0.6,0.1-5.9,0.7-6.6,0.7
		c-0.6,0-1.2-0.3-1.4-0.9c-0.1,0.2-0.1,0.5-0.1,0.7c0.2,0.6,0.6,1.1,1.2,1.3c0.3-0.1,0.5-0.2,0.8-0.3c2-0.4,3.9-0.7,5.9-0.8
		c0.2,0,0.2,0.1,0.2,0.1c-0.6,1-1.4,1.8-2.3,2.5c0-0.1,0-0.2,0-0.3c0-0.4-0.9-0.7-1.4-0.7c-0.2,0-0.5,0.1-0.7,0.2
		c0.7,0.3,1,0.4,1,0.8c-0.3,2.5-1.3,4.9-2.9,6.8v0.1c0.7-0.4,2.4-1.4,3.4-4.8c0.1-0.2,0.4-1.4,0.5-1.7c0.9-0.5,1.8-1.1,2.7-1.7
		c0.3-0.3,0.6-0.5,1-0.5C483,100.2,483.1,100.2,483.1,100z M496.6,101.3c-0.3-0.5-0.7-0.9-1.2-1.2c-0.1,0.1-0.2,0.1-0.2,0.2
		c-0.3,0.2-0.6,0.2-0.7,0.3c-0.3,0-1.9,0.1-2.2,0.1c0-0.4,0-0.9,0.1-1.3c0-0.1,0.2-0.6,0.2-0.6c0-0.4-1.1-0.7-1.4-0.7
		c-0.4,0-0.7,0.2-1,0.4c0.9,0.2,1,0.3,1.2,0.6c0.1,0.5,0.1,1.1,0.1,1.6c-0.7,0.1-1.5,0.2-2.2,0.2c-0.2,0-0.5,0-0.6-0.2
		c-0.3-0.2-0.6-0.3-1-0.3c-0.2,0-0.5,0-0.7,0.1c0.8,0.4,0.9,0.7,0.9,3.2c0,0.4,0.3,0.8,0.7,0.9c0.2,0,0.3-0.1,0.3-0.5
		c0-0.2-0.1-2.5-0.1-2.7c0.1,0.1,0.3,0.1,0.5,0.1c0.5,0,1.1-0.1,1.6-0.2c1.1,0,2.8-0.1,4-0.1c0.2,0,0.2,0,0.2,0.1
		c-0.2,1-0.5,2-0.9,3c-0.9,1.9-2.4,3.4-4.2,4.4v0.1c1.1-0.3,2.2-0.9,3.1-1.7c1.4-1.2,2.4-2.9,2.8-4.7c0.2-0.6,0.2-0.7,0.5-0.8
		C496.4,101.6,496.6,101.5,496.6,101.3L496.6,101.3z M509.8,104.2c0-0.3-0.2-0.7-0.4-0.9c-1-0.8-2.3-1.3-3.6-1.5
		c0-1,0.1-1.9,0.2-2.9c0.1-0.2,0.2-0.5,0.2-0.7c0-0.4-1.4-0.7-1.6-0.7c-0.3,0.1-0.6,0.2-0.9,0.3c0.5,0.1,0.9,0.3,1.1,0.7
		c0.1,0.5,0.1,3.3,0.1,3.9c0,1.5,0,3-0.2,4.5c-0.1,0.3-0.1,0.6-0.1,0.9c0,0.4,0.2,1.2,0.7,1.2c0.6,0,0.6-0.8,0.6-1.1
		c0-0.3-0.1-2-0.1-2.3c0-0.5,0-3,0-3.5c1.2,0.5,2.2,1.3,3,2.3c0.2,0.2,0.4,0.3,0.6,0.4C509.6,104.8,509.8,104.6,509.8,104.2
		C509.8,104.3,509.8,104.2,509.8,104.2L509.8,104.2z M526.1,99.1c0-0.8-1.6-1.2-2.5-1.1c0.6,0.3,1.1,0.6,1.6,1.1
		c0.4,0.4,0.4,0.4,0.6,0.4C525.9,99.5,526.1,99.3,526.1,99.1L526.1,99.1L526.1,99.1z M524.9,100.4c0-0.9-1.5-1.4-2.4-1.4
		c0.5,0.3,0.9,0.7,1.3,1.1c0.5,0.6,0.5,0.7,0.7,0.7C524.8,100.8,524.9,100.6,524.9,100.4L524.9,100.4z M525.5,105.6
		c0-2.1-2.6-4.9-4.4-5.4c1.3,1.3,2.4,2.9,3,4.7c0.4,1.1,0.4,1.4,0.9,1.4C525.3,106.2,525.5,105.9,525.5,105.6L525.5,105.6z
		 M519.1,101.1c-0.4-0.6-1-1-1.7-1.1c-0.3,0-0.6,0.1-0.7,0.1c0.5,0.1,0.8,0.5,0.9,1c0,0.6-1.3,3.5-3.9,5.9v0.1
		c1.6-0.8,2.9-2,3.9-3.5c0.2-0.3,1-1.7,1.2-2C518.9,101.5,519,101.3,519.1,101.1L519.1,101.1z M538.7,107.3c0-1.3-2.3-3-4-3.7
		c0.7-1,1.4-2,1.9-3.1c0-0.2,0.1-0.3,0.3-0.4c0.4-0.2,0.6-0.2,0.6-0.4c-0.3-0.5-0.7-0.8-1.2-1.1c-0.1,0-0.6,0.4-0.7,0.4
		c-1.3,0.3-2.7,0.5-4,0.6c-0.3,0-0.5,0-1.1-0.8c-0.1,0.2-0.1,0.4-0.1,0.6c0.1,0.6,0.4,1.1,1,1.4c0.1,0,0.6-0.3,0.8-0.3
		c1.2-0.4,2.4-0.7,3.6-0.8c-0.8,2.6-4.2,6.9-7.4,8.3v0.1c1.3-0.3,3.7-1.1,6.2-4.3c1.3,1,2.4,2.3,3.1,3.7c0.1,0.3,0.3,0.4,0.6,0.5
		C538.6,108,538.8,107.7,538.7,107.3C538.8,107.3,538.8,107.3,538.7,107.3z M554.3,101.9c0-0.9-1.6-1.5-2.5-1.5
		c0.5,0.3,1,0.8,1.4,1.3c0.4,0.6,0.4,0.7,0.7,0.7C554.1,102.4,554.3,102.1,554.3,101.9z M552.6,102.5c0-0.8-1.4-1.5-2.3-1.7
		c0.5,0.5,0.9,1,1.3,1.6c0.3,0.6,0.4,0.6,0.6,0.6C552.6,103,552.6,102.8,552.6,102.5z M553.5,99c0-0.5-0.9-0.7-1.1-0.7
		s-0.3,0-0.4,0.1c-1.7,0.4-4.4,1-6,1.4c-0.7,0.2-1.4,0.3-2.1,0.4c-0.5,0-1-0.3-1.1-0.8c-0.1,0.2-0.2,0.5-0.2,0.7
		c-0.1,0.6,0.4,1.2,1,1.3c0.3-0.1,0.6-0.2,0.9-0.4c1.6-0.7,3.3-1.2,5-1.5c-0.7,0.5-1.4,1.1-1.9,1.8c-0.7,0.9-1.1,2-1.2,3.1
		c0,3.1,3.2,4.1,4.7,4.1c0.2,0.1,0.5-0.1,0.5-0.3v-0.1c0-0.4-0.4-0.7-0.8-0.7l0,0c-1.3-0.3-3.7-0.9-3.7-3.2c0.1-1.7,1-3.3,2.4-4.2
		c0.9-0.5,1.5-0.5,3.3-0.5C553,99.5,553.5,99.5,553.5,99z M567.8,107.5c0-0.6-0.8-1-2.4-1.7c-0.2-2.1-0.2-4.2-0.2-4.3
		c1.6-0.2,2.5-0.3,2.5-0.7c-0.1-0.3-0.4-0.5-0.7-0.5c-0.4,0.1-0.9,0.2-1.3,0.3c-0.2,0-0.3,0.1-0.5,0.1c0-0.5,0-1,0.1-1.5l0.2-0.8
		c-0.2-0.5-0.7-0.8-1.2-0.8c-0.3,0-0.7,0.1-0.9,0.4c0.8,0.2,0.9,0.3,0.9,0.6c0,0.2,0.1,1.4,0.1,2.3c-0.3,0-0.9,0.1-1.6,0.1
		c-0.7,0-1.4-0.1-2-0.4c0.4,0.9,1.8,1.1,2.4,1.1c0.4,0,0.8,0,1.2-0.1c0,0.6,0.1,3.3,0.2,4c-0.5-0.1-1-0.1-1.5-0.1
		c-1.4,0-2.3,0.5-2.3,1.3c0,0.9,1,1.6,2.2,1.6c1,0.1,2-0.6,2.2-1.6c0.4,0.2,0.8,0.5,1.2,0.8c0.2,0.2,0.5,0.3,0.8,0.4
		C567.6,108,567.8,107.8,567.8,107.5z M559.4,103.3h-0.1c-0.1,0.2-1,2.7-1,2.7c0,0.1-0.1,0.2-0.2,0.3c-0.2-0.5-0.3-1.1-0.2-1.7
		c0-1.5,0.4-3,1-4.4c0.1-0.2,0.2-0.5,0.2-0.7c-0.1-0.7-0.7-1.1-1.4-1.2c-0.1,0-0.3,0-0.4,0.1c0.4,0.2,0.6,0.7,0.6,1.1
		c0,0.2-0.1,0.7-0.3,1.8c-0.3,1.3-0.4,2.6-0.4,3.9c0,1,0.3,3.5,1.3,3.5c0.2,0,0.4-0.2,0.4-0.4c0,0,0,0,0-0.1s-0.1-0.7-0.1-0.9
		c0-0.3,0-0.5,0.1-0.8C558.7,106.5,559.4,103.4,559.4,103.3z M564.5,106.4c-0.2,0.7-1,1.2-1.7,1.1c-0.9,0-1.4-0.4-1.4-0.7
		c0-0.3,0.4-0.7,1.5-0.7C563.4,106.1,564,106.2,564.5,106.4z"/>
	<path id="txt01d" class="st1" d="M507,121.8l-3.1-1.5c0.3,1.8,0.4,3.6,0.4,5.4c0,1.2,0,4.6-0.1,5.6c0,0.1,0,0.6,0,0.7
		c0,0.5,0.3,0.9,0.8,0.9c0.1,0,0.1,0,0.2,0c0.8,0,1.5-0.6,1.5-1.4c0-0.1,0-0.1,0-0.2h4.6c0.1,4.1,0.1,8.8,0.1,12.7
		c0,0.7,0.1,3.9,0.1,4.6c0,0.8-0.3,0.8-1,0.8c-1.2,0-2.3,0-3.5-0.1v0.3c1.6,0.5,2.7,1.9,3,3.5c3.5-0.6,4-2.4,4-3.8
		c0-1.8-0.2-11.1-0.3-13.2c0-3-0.1-3.9-0.1-12c0.9-0.6,1.2-1,1.2-1.3c0-0.3-0.2-0.5-0.5-0.7l-1.5-1.2c-0.2-0.2-0.4-0.3-0.6-0.3
		c-0.3,0.1-0.5,0.3-0.7,0.6l-0.6,0.6L507,121.8L507,121.8z M511.3,122.7v3.1h-4.6v-3.1H511.3z M511.3,126.7v3.7h-4.6v-3.7H511.3z
		 M495.3,121.8l-3.3-1.7c0.1,0.5,0.2,1.1,0.3,1.6c0.2,1.5,0.2,6.5,0.2,8.3c0,5.1,0,12.7-0.1,17.6c0,0.6-0.2,3.6-0.2,4.3
		c-0.1,0.5,0.2,1,0.7,1.1c0.1,0,0.2,0,0.3,0c0.8,0.1,1.6-0.5,1.7-1.4c0-0.1,0-0.2,0-0.2c0-1.4-0.1-8.4-0.1-10c0-1.5,0-8.5,0-10.1
		h4.6c-0.1,0.8-0.1,1.5,0.8,1.5c0.8,0.1,1.6-0.5,1.7-1.4l0,0c0-0.6-0.1-3.7-0.1-4.4v-3.1c0.5-0.2,0.8-0.6,1-1.1
		c-0.1-0.3-0.3-0.5-0.6-0.7l-1.2-0.9c-0.2-0.2-0.4-0.3-0.6-0.4c-0.3,0.1-0.5,0.3-0.7,0.5l-0.5,0.5L495.3,121.8L495.3,121.8z
		 M499.5,122.7v3.1h-4.6v-3.1H499.5z M499.5,126.7v3.7h-4.6v-3.7H499.5z M508.6,136.5c0.4,0,0.5-0.1,0.5-0.4c0-0.2-0.2-0.4-0.4-0.5
		l-1.3-1.2c-0.2-0.2-0.4-0.3-0.7-0.4c-0.2,0.1-0.4,0.2-0.5,0.4l-1.1,1.2h-3.7c-1.8,0-3.8-0.1-5.6-0.2l0.7,1.4c1.5-0.2,3-0.3,4.5-0.3
		v3.8c-2.6-0.1-2.9-0.1-4.2-0.2l0.7,1.4c1.5-0.2,3.1-0.3,3.5-0.3v4.3c-1.1,0-4.5-0.2-5.4-0.2l0.7,1.4c1.4-0.2,2.8-0.3,4.2-0.3h8.8
		c0.3,0,0.5-0.1,0.6-0.4c-0.1-0.2-0.2-0.4-0.4-0.6l-1.6-1.2c-0.2-0.2-0.4-0.4-0.7-0.4c-0.3,0.1-0.5,0.2-0.5,0.5l-0.8,1.2h-2.8v-4.3
		h4.4c0.2,0.1,0.5-0.1,0.5-0.3v-0.1c0-0.2-0.1-0.4-0.3-0.5l-1.2-1.2c-0.2-0.2-0.4-0.3-0.7-0.4c-0.2,0.1-0.4,0.3-0.5,0.5l-0.9,1.1
		h-1.3v-3.8H508.6L508.6,136.5z M485.8,120.8c0.9,0.7,1.6,1.7,2.1,2.7c0.7,1.2,1,1.9,1.9,1.9c0.8-0.1,1.4-0.8,1.3-1.6l0,0
		c0-2.2-3.7-3.1-5.3-3.2V120.8z M482.6,130.6c0.9,0.8,1.6,1.7,2.2,2.8c0.8,1.4,1,1.8,1.8,1.8c0.9-0.1,1.5-0.9,1.4-1.7c0,0,0,0,0-0.1
		c0-0.8-0.7-2.4-5.4-3.1V130.6z M490.6,129.4c-0.4,1.3-4.4,12.2-5,12.8c-0.6,0.5-1.4,0.8-2.2,0.8v0.2c2.6,1,2.6,2,2.6,6.4
		c0,2.1,0.5,3.2,1.7,3.2c1-0.1,1.7-1,1.6-1.9v-0.1c-0.1-1.1-0.4-2.2-0.7-3.3c-0.4-1-0.6-2.1-0.8-3.2c0-0.5,0.1-1,0.2-1.5
		c0.7-2.5,2.2-9.6,2.8-13.3L490.6,129.4z M551.2,128.9c0-1-1.7-1.8-3-1.8c0,0-9.3,0.8-10.1,0.9c0.1-1.4,0.2-2.7,0.5-4.1
		c0.1-0.3,0.3-1.3,0.3-1.4c0-1.2-2.7-2.1-3.6-2.1c-0.8,0-1.5,0.3-2.1,0.8c3,1.1,3,1.2,3.2,7c-2.3,0.2-5,0.6-8.3,1.2
		c-1.6,0.2-4.5,0.7-4.9,0.7c-1.1-0.1-2.1-0.7-2.6-1.7c-0.2,0.3-0.3,0.6-0.3,1c0,1.5,1.7,3.7,2.9,3.7c0.5,0,1.1-0.2,1.5-0.6
		c3.5-1.9,9.5-2.7,11.7-2.9c0,1.3,0.1,3.7,0.1,3.9c-0.6-0.3-1.4-0.5-2.1-0.5c-2.5,0-4.2,2.6-4.2,5.3c0,3,2.3,5.4,4.1,5.4
		c0.9-0.1,1.7-0.5,2.4-1.2c-0.5,3.9-3.3,7.8-7.3,10.3l0.2,0.2c6.6-2.3,10.1-7.4,10.1-12.8c0-2-0.5-4-1.6-5.7c0-0.6-0.1-1.3-0.1-2.2
		c0-1,0-1.8,0-2.9c1.1-0.1,2.8-0.2,4.3-0.2c0.9,0,2.1,0.1,3.4,0.2c1.2,0.1,3.1,0.5,4.3,0.5C550.6,130,551.1,129.5,551.2,128.9
		C551.1,128.9,551.1,128.9,551.2,128.9L551.2,128.9z M536.5,138.2c0,2.1-1,3.4-2.2,3.4c-1.3,0-2.9-1.7-2.9-3.7
		c0-2.1,1.4-3.3,2.4-3.3C536.4,134.6,536.5,137.4,536.5,138.2L536.5,138.2z M561.1,126.6l4.7,4.7l0.5-0.5l-4.7-4.7l4.7-4.7l-0.5-0.5
		l-4.7,4.8l-4.7-4.8l-0.5,0.5l4.7,4.7l-4.7,4.7l0.5,0.5L561.1,126.6z M565.1,124.9c-0.7,0-1.2,0.5-1.2,1.2c0,0.7,0.5,1.2,1.2,1.2
		c0.7,0,1.2-0.5,1.2-1.2C566.3,125.4,565.8,124.9,565.1,124.9L565.1,124.9z M557.2,124.9c-0.7,0-1.2,0.5-1.2,1.2
		c0,0.7,0.5,1.2,1.2,1.2c0.7,0,1.2-0.5,1.2-1.2C558.4,125.4,557.8,124.9,557.2,124.9L557.2,124.9z M561.1,120.9
		c-0.7,0-1.2,0.6-1.2,1.3s0.5,1.2,1.2,1.2c0.7,0,1.2-0.5,1.2-1.2C562.4,121.5,561.8,120.9,561.1,120.9L561.1,120.9z M561.1,128.9
		c-0.7,0-1.2,0.5-1.2,1.2s0.5,1.2,1.2,1.2c0.7,0,1.2-0.5,1.2-1.2C562.4,129.5,561.9,128.9,561.1,128.9
		C561.2,128.9,561.2,128.9,561.1,128.9L561.1,128.9z"/>
	<g>
		<circle class="st2" cx="436" cy="125.3" r="30"/>
		<g>
			<path class="st3" d="M421.6,118.2c0,0.7,0.1,1,0.4,1.4c0.5,0.6,1.3,1,2.3,1c1.7,0,2.7-0.8,2.7-2.1c0-0.7-0.3-1.2-0.8-1.5
				c-0.4-0.2-0.8-0.4-2.1-0.6c-1.1-0.2-1.6-0.4-2-0.7c-0.6-0.4-1-1.1-1-1.8c0-1.6,1.2-2.6,3.2-2.6c1.2,0,2.2,0.4,2.7,1.2
				c0.3,0.4,0.4,0.7,0.5,1.3l-0.7,0.1c-0.1-0.6-0.2-0.8-0.5-1.2c-0.4-0.5-1.2-0.8-2-0.8c-1.5,0-2.5,0.8-2.5,2c0,0.7,0.4,1.2,1.1,1.5
				c0.4,0.2,0.7,0.2,1.5,0.4c1.2,0.2,1.8,0.4,2.3,0.7c0.8,0.4,1.1,1.1,1.1,2c0,1.8-1.2,2.7-3.4,2.7c-1.4,0-2.4-0.4-3-1.3
				c-0.3-0.4-0.4-0.8-0.5-1.6L421.6,118.2z"/>
			<path class="st3" d="M432.6,119.6c0,0.6,0,0.9,0.1,1.4h-0.9c0.1-0.4,0.1-0.8,0.1-1.4v-7.7h-2.2c-0.6,0-0.9,0-1.4,0.1v-0.8
				c0.4,0.1,0.7,0.1,1.4,0.1h5c0.7,0,0.9,0,1.4-0.1v0.8c-0.4-0.1-0.7-0.1-1.4-0.1h-2.2v7.7H432.6z"/>
			<path class="st3" d="M443.5,121.1c-0.4-0.1-0.7-0.1-1.4-0.1h-3.7c-0.5,0-0.9,0-1.3,0c0.1-0.5,0.1-0.9,0.1-1.5v-6.9
				c0-0.5,0-0.9-0.1-1.4c0.4,0,0.8,0,1.3,0h3.6c0.5,0,0.9,0,1.4-0.1v0.8c-0.4-0.1-0.7-0.1-1.4-0.1h-4.1v3.6h3.5c0.5,0,0.9,0,1.4-0.1
				v0.8c-0.4-0.1-0.7-0.1-1.4-0.1h-3.5v4.2h4.2c0.5,0,0.9,0,1.4-0.1V121.1z"/>
			<path class="st3" d="M444.9,121c0.1-0.4,0.1-0.8,0.1-1.4v-7c0-0.5,0-0.9-0.1-1.4c0.4,0,0.8,0,1.3,0h2.6c1.9,0,2.9,1,2.9,2.7
				c0,1.8-1.1,2.9-3,2.9h-3.1v2.8c0,0.6,0,0.9,0.1,1.4H444.9z M448.8,116.1c1.5,0,2.3-0.8,2.3-2.2c0-1.4-0.8-2.1-2.3-2.1h-3.1v4.3
				C445.7,116.1,448.8,116.1,448.8,116.1z"/>
		</g>
		<g>
			<path class="st3" d="M433.2,143.6c-1.1,0-1.4,0-2,0.1c0.3-1.7,0.3-1.9,0.6-2.6c0.6-1.3,1.5-2.4,3-3.5c0.7-0.5,0.7-0.5,2.3-1.6
				c1.1-0.7,1.7-1.2,2-1.7c0.4-0.5,0.6-1.2,0.6-1.8c0-1.6-1.3-2.6-3.4-2.6c-1.4,0-2.4,0.4-3,1.3c-0.4,0.5-0.6,1-0.7,2l-1.1-0.3
				c0.3-1.3,0.6-1.9,1.2-2.6c0.8-0.9,2-1.4,3.6-1.4c2.7,0,4.5,1.4,4.5,3.6c0,1.3-0.6,2.4-1.9,3.3c-0.4,0.3-1.1,0.8-2.1,1.4
				c-1.5,1-2.2,1.6-2.8,2.2c-0.5,0.6-1,1.3-1.3,2c-0.2,0.3-0.2,0.6-0.3,1.2h6.4c0.8,0,1.4,0,2.1-0.1v1.1c-0.7-0.1-1.3-0.1-2.1-0.1
				h-5.6V143.6z"/>
		</g>
	</g>
</g>
<g id="item01">
	<line class="st0" x1="30.5" y1="70" x2="173.5" y2="70"/>
	<path id="txt02a" class="st1" d="M40,14.5c-2.7-4.3-2.7-9.7,0-14h-3.5v14H40z M52.3,11.6c0-1.3-2.3-3-4-3.7c0.7-1,1.3-2,1.9-3.1
		c0.2-0.4,0.2-0.4,0.3-0.4C50.9,4.2,51,4.2,51,4c-0.3-0.5-0.7-0.8-1.2-1.1c-0.2,0.1-0.5,0.2-0.6,0.4c-1.3,0.3-2.7,0.5-4,0.6
		c-0.3,0-0.5,0-1.1-0.8C44,3.3,44,3.5,44,3.7c0.1,0.6,0.4,1.1,1,1.4c0.2-0.1,0.5-0.2,0.7-0.4c1.2-0.3,2.4-0.6,3.6-0.8
		c-1.4,3.6-4.1,6.5-7.4,8.4v0.1c1.3-0.3,3.7-1.2,6.2-4.3c1.3,1,2.4,2.2,3.1,3.7c0.1,0.2,0.3,0.4,0.6,0.4s0.5-0.2,0.5-0.5
		C52.3,11.7,52.3,11.6,52.3,11.6L52.3,11.6z M66.1,5.5c-0.3-0.5-0.8-0.9-1.3-1.1c-0.2,0.1-0.5,0.3-0.7,0.5c-0.1,0-1.7,0.2-1.9,0.2
		c0-0.1,0.3-1,0.3-1.2c0.1-0.4,0.1-0.5,0.2-0.5c0.1-0.2,0.2-0.3,0.3-0.5c-0.4-0.5-0.9-0.8-1.5-0.8c-0.3,0-0.5,0.1-0.8,0.2
		c0.5,0.1,0.8,0.5,0.8,1c0,0.6-0.1,1.3-0.3,1.9L60,5.4c-0.5,0-1.3,0.1-1.5,0.1c-0.5,0-1-0.3-1.3-0.7c-0.1,0.1-0.1,0.3-0.1,0.4
		c0.1,0.6,0.5,1.2,1.1,1.4c0.2,0,0.4-0.1,0.5-0.2c0.7-0.2,1.4-0.4,2.2-0.5c-0.6,2.6-2.1,4.9-4.1,6.6v0.1c3.4-1.4,4.4-4.7,5.1-6.8
		c1.8-0.3,2.1-0.3,2.6-0.4c0.1,1.9-0.3,3.7-1.1,5.4c0,0.1-0.2,0.2-0.3,0.2c-0.6-0.1-1.1-0.4-1.6-0.7v0.1c1,1,1,1.2,1.1,1.8
		c0,0.2,0.1,0.4,0.3,0.4c0.3-0.1,0.6-0.2,0.8-0.5c1-1.1,1.4-3.4,1.8-5.5c0-0.3,0.1-0.6,0.3-0.8C65.9,5.7,66,5.6,66.1,5.5z M81.7,5.8
		l-0.1-0.1c-1.3,1.8-3.1,3.3-5.1,4.4c-0.1,0-0.1-0.1-0.1-0.2c0-0.9,0.1-4.8,0.2-5.5c0-0.1,0.2-0.7,0.2-0.8c0-0.4-1.1-0.8-1.5-0.8
		c-0.3,0-0.6,0.1-0.8,0.3c0.4,0,0.8,0.3,1,0.6c0.1,0.4,0.1,2.9,0.1,3.5c0,0.9,0,1.9-0.1,2.8c0,0.1-0.2,0.5-0.2,0.6
		c0.2,0.5,0.5,1,0.9,1.3c0.1,0,0.2-0.1,0.3-0.2c0.2-0.3,0.5-0.6,0.9-0.8C79.2,9.6,80.7,7.8,81.7,5.8L81.7,5.8z M74.1,4.4
		c-0.3-0.4-0.8-0.7-1.3-0.7c-0.3,0.1-0.7,0.2-0.9,0.4C73,4.4,73,4.4,73,5.6c0.1,2.5-0.8,4.9-2.6,6.6l0.1,0.1c1.9-1,3.2-2.9,3.4-5.1
		c0-0.3,0.1-1.8,0.2-2.1C74,4.9,74.1,4.6,74.1,4.4L74.1,4.4z M96.2,2.9c0-0.7-0.6-1.3-1.3-1.3c-0.7,0-1.3,0.6-1.3,1.3
		s0.6,1.3,1.3,1.3l0,0C95.6,4.2,96.2,3.6,96.2,2.9L96.2,2.9z M94,4.8c-0.3-0.5-0.7-1-1.2-1.3c-0.2,0.1-0.4,0.2-0.6,0.4
		c-0.7,0.2-5.8,0.6-6,0.6c-0.6,0-1.1-0.4-1.4-0.9c0,0.2,0,0.3,0,0.5c0.1,0.7,0.5,1.3,1.1,1.6c0.1,0,0.5-0.3,0.6-0.3
		c1.9-0.4,3.9-0.7,5.9-0.8c-0.4,1.7-1.1,3.3-2.2,4.7c-1.1,1.5-2.5,2.7-4,3.6V13c1.4-0.4,2.8-1.2,3.9-2.2c1.4-1.4,2.5-3.1,3.1-5
		c0-0.3,0.2-0.5,0.4-0.7C93.8,5.1,93.9,5,94,4.8L94,4.8z M95.7,2.9c0,0.4-0.4,0.8-0.8,0.8c-0.4,0-0.8-0.4-0.8-0.8
		c0-0.4,0.3-0.8,0.7-0.8h0.1C95.3,2.1,95.7,2.4,95.7,2.9L95.7,2.9L95.7,2.9z M109,5.4c0-0.1-0.1-0.2-0.2-0.3
		c-0.3-0.1-0.7-0.2-1.1-0.3c-0.1,0-0.7,0.2-0.9,0.2c-1.1,0.2-4.2,0.5-4.5,0.5c-0.2,0-0.4,0-0.6-0.1c0.2-0.2,0.9-1.5,1.2-1.8
		c0.2-0.1,0.3-0.2,0.4-0.4c-0.2-0.7-0.9-1.1-1.6-1.1c-0.2,0-0.4,0.1-0.6,0.1c0.3,0.1,0.6,0.4,0.7,0.8c-0.7,2.1-2,4.1-3.6,5.6
		l0.1,0.1c1.2-0.7,2.3-1.6,3.1-2.8c0.2,0.2,0.5,0.3,0.7,0.4c0.1,0,1.1-0.2,1.2-0.2c0.1,0,0.5-0.1,0.6-0.1c0.2,0.1,0.3,0.3,0.3,0.5
		c-0.3,2.8-1.8,5.3-4.2,6.8v0.1c0.7-0.2,1.4-0.5,2-1c1.4-1.2,2.5-2.8,3-4.6c0.1-0.3,0.2-0.6,0.3-0.9c0.1-0.1,0.2-0.2,0.3-0.4
		c-0.2-0.2-0.4-0.4-0.7-0.5c0.8-0.1,1.6-0.2,2.4-0.2h0.8C108.8,5.8,109,5.8,109,5.4L109,5.4z M122.9,4.2c-0.3-0.5-0.8-1-1.3-1.3
		c-0.1,0-0.6,0.2-0.7,0.2c-0.6,0.1-5.9,0.6-6.6,0.6c-0.6,0-1.2-0.3-1.4-0.8c-0.1,0.2-0.1,0.5-0.1,0.7c0.2,0.6,0.6,1.1,1.2,1.3
		c0.1,0,0.6-0.3,0.8-0.3c2-0.4,3.9-0.7,5.9-0.8c0.2,0,0.2,0,0.2,0.1c-0.6,0.9-1.4,1.8-2.3,2.4c0-0.1,0-0.1,0-0.2
		c0-0.4-0.9-0.7-1.4-0.7c-0.3,0-0.5,0.1-0.7,0.2c0.7,0.2,1,0.4,1,0.8c-0.3,2.5-1.3,4.8-2.9,6.7v0.1c0.7-0.4,2.4-1.3,3.4-4.7
		c0.1-0.2,0.4-1.5,0.5-1.7c0.7-0.4,1.8-1.1,2.7-1.7c0.3-0.3,0.6-0.5,1-0.5C122.8,4.5,122.9,4.5,122.9,4.2L122.9,4.2z M136.5,4.6
		c-0.3-0.7-1-1.3-1.8-1.4c-0.2,0-0.5,0.1-0.7,0.2c0.4,0.2,0.7,0.5,0.9,0.9c-0.8,3.7-3.2,6.8-6.6,8.4v0.1c0.9-0.2,1.7-0.5,2.5-1
		c2.1-1.2,3.7-3.1,4.6-5.4c0.1-0.5,0.4-1,0.7-1.4C136.4,4.8,136.5,4.8,136.5,4.6L136.5,4.6z M130,6.1c0-1.2-1.5-2.2-3.1-2.4
		c0.9,0.7,1.5,1.5,2,2.5c0.1,0.3,0.3,0.5,0.6,0.5S130,6.4,130,6.1L130,6.1z M151.2,7.5c0-0.5-1.4-0.7-1.5-0.7
		c-0.2,0-0.4,0.1-0.6,0.2c-0.6,0.1-5.2,0.1-6.2,0.1c-1.5,0-1.9,0-2.4-1c-0.1,0.2-0.2,0.4-0.2,0.6c0.1,0.7,0.5,1.3,1.1,1.6
		c0.2,0,0.4-0.1,0.5-0.2c2-0.2,4.1-0.3,6.2-0.2h1.6c0.2,0,0.3,0.1,0.5,0.1C150.5,8,151.2,8,151.2,7.5L151.2,7.5z M166.3,2.9
		c0-0.7-0.6-1.3-1.3-1.3s-1.3,0.6-1.3,1.3s0.6,1.3,1.3,1.3l0,0C165.7,4.2,166.3,3.6,166.3,2.9L166.3,2.9z M164.1,4.8
		c-0.3-0.5-0.7-1-1.2-1.3c-0.2,0.1-0.4,0.2-0.6,0.4c-0.7,0.2-5.8,0.6-6,0.6c-0.6,0-1.1-0.4-1.4-0.9c0,0.2,0,0.3,0,0.5
		c0.1,0.7,0.5,1.3,1.1,1.6c0.1,0,0.5-0.3,0.6-0.3c1.9-0.4,3.9-0.7,5.9-0.8c-0.4,1.7-1.1,3.3-2.2,4.7c-1.1,1.5-2.5,2.7-4,3.6V13
		c1.4-0.4,2.8-1.2,3.9-2.2c1.4-1.4,2.5-3.1,3.1-5c0-0.3,0.2-0.5,0.4-0.7C163.9,5.1,164,5,164.1,4.8L164.1,4.8z M165.8,2.9
		c0,0.4-0.4,0.8-0.8,0.8c-0.4,0-0.8-0.4-0.8-0.8c0-0.4,0.3-0.8,0.7-0.8h0.1C165.4,2.1,165.8,2.4,165.8,2.9L165.8,2.9L165.8,2.9z
		 M167.5,0.5c2.7,4.3,2.7,9.7,0,14h3.5v-14H167.5z"/>
	<path id="txt02b" class="st1" d="M59.6,34.2c0-0.2-0.1-0.5-0.3-0.6c-0.5-0.3-1.1-0.6-1.7-0.7c-0.3,0.1-0.6,0.2-0.8,0.3
		c-0.4,0-1.7,0.1-2.5,0.1c0-1,0.1-1.9,0.2-2.9c0-0.2,0.2-0.8,0.2-1c0-0.6-1.6-1-2.2-1c-0.5,0-0.9,0.2-1.3,0.5c0.3,0,1.4,0.2,1.6,0.8
		c0.1,0.4,0.1,0.7,0.1,3.7c-1.2,0.1-2.8,0.2-4.2,0.4c-0.1-0.9,0-1.9,0.1-2.8c0-0.1,0.2-0.6,0.2-0.7c0-0.5-1.4-1-1.9-1
		c-0.4,0-0.9,0.1-1.2,0.4c0.8,0.3,1.2,0.4,1.4,0.8c0.2,1.1,0.3,2.3,0.3,3.4c-0.5,0-2.6,0.3-2.9,0.3c-0.8,0-1-0.2-1.7-1.2
		c-0.1,0.3-0.2,0.5-0.2,0.8c0,0.8,0.8,2,1.5,2c0.2,0,0.4-0.1,0.5-0.2c0.6-0.2,2-0.5,2.7-0.7c0,0.3,0,1.8,0,2.2
		c0,0.2-0.1,1.1-0.1,1.3c0,0.3,0.3,1.4,0.8,1.4c0.6,0,0.6-0.6,0.6-1.2c0-0.5-0.1-3.3-0.1-3.9c1.4-0.2,2.8-0.3,4.2-0.4
		c-0.1,4.1-0.1,7.1-3.4,10.4l0.1,0.2c4.4-2.8,4.6-6.3,4.6-10.6c0.8,0,1.5,0,2.3,0.1c0.4,0,2.3,0.3,2.4,0.3c0.2,0.1,0.5-0.1,0.5-0.3
		C59.6,34.3,59.6,34.3,59.6,34.2z M80.5,29.8c0-1.5-2.5-1.7-3.5-1.7c0.7,0.3,1.3,0.8,1.8,1.3c0.9,0.9,1,1,1.3,1
		C80.3,30.4,80.5,30.2,80.5,29.8C80.5,29.9,80.5,29.8,80.5,29.8z M78.6,31.3c0-1.4-2.3-2-3.5-2c0.5,0.4,1,0.8,1.8,1.6
		c0.7,0.8,0.8,0.9,1.1,0.9C78.4,31.8,78.6,31.6,78.6,31.3L78.6,31.3z M78.6,40.3c0-1.5-3.2-3.7-5.1-4.1c1.2,1,2.2,2.1,3,3.4
		c1,1.6,1.1,1.7,1.4,1.7C78.4,41.2,78.7,40.8,78.6,40.3z M78.7,34.1c0-0.8-1.6-1.3-1.9-1.3c-0.1,0-0.7,0.2-0.8,0.2
		c-0.4,0.1-3.5,0.4-4.2,0.4c0-0.9,0.1-1.9,0.3-2.8c0.1-0.2,0.2-0.5,0.2-0.7c0-0.5-1.5-1.2-2.3-1.2c-0.5,0-0.9,0.2-1.3,0.5
		c1.2,0.3,1.5,0.4,1.7,1.2c0.1,0.2,0.1,1.7,0.1,3.1c-1.1,0.1-2.2,0.2-4.2,0.4h-0.4c-0.4,0-1,0-2-1.4c-0.1,0.3-0.1,0.5-0.1,0.8
		c0.1,1,0.8,1.9,1.7,2.2c0.2,0,0.4-0.1,0.6-0.2c1.4-0.6,2.9-0.9,4.4-1c0,0.8,0.1,3,0.1,3.6s0,3.1-0.1,3.5c0,0.2-0.1,0.2-0.3,0.2
		c-0.4,0-1.7-0.3-2.3-0.4v0.1c1.8,1.2,1.9,1.3,2.2,2c0.4,0.9,0.5,1,0.8,1c0.8,0,1-1.8,1-2.2c0-0.2,0-1.2-0.1-1.4
		c-0.1-1.6-0.1-4.8-0.1-6.5h2.2c1.2,0,2.1,0.1,2.6,0.1c0.6,0.1,1.1,0.2,1.7,0.3c0.2,0,0.4-0.2,0.4-0.4
		C78.8,34.2,78.7,34.1,78.7,34.1z M67.8,36.2c-0.7,1.2-1.6,2.3-2.7,3.1c-0.7,0.2-1.2,0.8-1.3,1.5c0,0.4,0.3,0.8,0.7,0.8h0.1
		C65.7,41.7,67.5,39.2,67.8,36.2L67.8,36.2z M90.5,32.4c0-1.6-2.8-2.5-5.2-2.3c1.2,0.5,2.4,1.2,3.3,2.2c0.6,0.7,0.9,0.9,1.2,0.9
		C90.2,33.2,90.5,32.9,90.5,32.4L90.5,32.4L90.5,32.4z M98.6,31.8L98.6,31.8c-2,2.2-4.1,4.2-6.5,6c-0.9,0.6-4,2.9-4.6,2.9
		c-0.7-0.1-1.2-0.6-1.5-1.3c-0.1,0.3-0.2,0.6-0.2,0.9c0,0.9,1.3,2.6,2,2.6c0.1,0,0.2,0,0.3-0.1c0.1-0.1,0.5-0.6,0.6-0.7
		c0.3-0.3,2.2-1.7,2.6-2C95.9,36.7,98.1,33.3,98.6,31.8L98.6,31.8z M119.2,35.9c0-0.8-1.7-1.1-1.8-1.1c-0.1,0-0.9,0.2-1,0.2
		c-0.2,0.1-4.4,0.5-5.2,0.6c0-0.8,0.2-1.6,0.3-2.4c0.2-0.2,0.3-0.4,0.3-0.7c-0.3-0.4-0.7-0.7-1.2-0.9c1.7-0.2,3.5-0.4,5.3-0.4
		c0.4,0,0.8,0,0.8-0.5c0-0.2-0.1-0.4-0.3-0.5c-0.4-0.2-0.9-0.3-1.4-0.4c-0.3,0-0.7,0.1-1,0.3c-2.1,0.4-4.2,0.7-6.3,0.8
		c-0.7,0.1-1.5-0.2-2-0.7c0,0.9,0.6,1.8,1.5,2.1c0.2,0,0.4,0,0.6-0.1c0.5-0.2,1-0.3,1.6-0.4c0.4,0.3,0.6,0.6,0.6,2.3
		c0,0.2,0,1.4,0,1.7l-3.6,0.5c-0.3,0-0.9,0.1-1.2,0.1c-0.8,0-1.5-0.4-1.9-1c0,0.1,0,0.3,0,0.4c0.2,1,0.9,1.9,1.9,2.2
		c0.3-0.1,0.6-0.2,0.9-0.4c1.3-0.5,2.6-0.8,4-1c0,1.4,0,2.3,0,2.9c0,3.1,0.9,3.4,4.3,3.4c0.9,0,1.7,0,2.6-0.1
		c0.6-0.1,0.8-0.3,0.8-0.6c0-0.7-1.2-0.9-1.6-0.9c-0.3,0-0.6,0.1-0.9,0.2c-0.8,0.2-1.6,0.2-2.4,0.2c-1.5,0-1.6-0.7-1.6-2
		c0-1.6,0-2,0.1-3.3c2.4-0.2,3.8-0.2,4.1-0.2c1,0,1.6,0.1,2,0.1c0.4,0.1,0.8,0.1,1.2,0.1C119,36.4,119.2,36.1,119.2,35.9L119.2,35.9
		z M138.8,36.5c0-0.8-2-1-2.1-1s-0.7,0.2-0.8,0.2c-0.9,0.2-7.4,0.2-8.8,0.2c-2.1,0-2.7,0-3.4-1.5c-0.2,0.3-0.2,0.7-0.2,1
		c0.1,1,0.7,1.8,1.6,2.2c0.1,0,0.7-0.2,0.8-0.2c0.9-0.3,2.7-0.4,8.8-0.4c0.8,0,1.5,0,2.3,0.1h0.7C137.8,37.1,138.8,37.1,138.8,36.5
		L138.8,36.5z M160.2,30.3c0-1.4-2.1-1.8-3.4-1.9c0.9,0.6,1.7,1.3,2.3,2.1c0.1,0.3,0.3,0.5,0.6,0.5
		C160.1,30.9,160.3,30.7,160.2,30.3L160.2,30.3L160.2,30.3z M158.7,31.9c0-1.4-2.1-1.9-3.4-2.1c0.8,0.6,1.4,1.3,2,2
		c0.5,0.7,0.6,0.7,0.9,0.7c0.3,0,0.5-0.2,0.5-0.5V31.9L158.7,31.9z M157.9,33.9c-0.4-0.7-1-1.2-1.6-1.6c-0.3,0.1-0.5,0.3-0.8,0.5
		c-0.2,0.1-0.4,0.1-0.7,0.1c-1.4,0.1-2.2,0.2-3.1,0.2c0-0.7,0-1.3,0.2-2c0.1-0.2,0.2-0.5,0.2-0.7c0-0.5-1.6-0.9-2.1-0.9
		s-1,0.3-1.3,0.6c1.8,0.3,1.8,0.3,1.8,3.1c-0.7,0-2.1,0.2-3.1,0.2c-0.4,0-0.8-0.1-1.1-0.3c-0.4-0.2-0.8-0.4-1.2-0.4
		c-0.4,0-0.6,0.1-0.9,0.1c1.3,0.6,1.3,1.4,1.3,3.9c0,0.1,0,0.7,0,0.9c0.1,0.6,0.4,1,1,1.2c0.5,0,0.5-0.5,0.5-1
		c0-0.2-0.1-3.1-0.1-3.7c0.2,0.1,0.4,0.2,0.6,0.2s1.3-0.2,1.5-0.2c2.8-0.2,6-0.3,6.4-0.3c0.2,0,0.3,0,0.3,0.3
		c-0.2,1.5-0.7,3-1.5,4.4c-1.4,2.6-3.4,4.7-5.9,6.2l0.1,0.1c6.2-1.8,7.8-7.1,8.5-9.6c0.1-0.4,0.3-0.7,0.7-0.8
		C157.7,34.3,157.8,34.1,157.9,33.9L157.9,33.9z"/>
	<path id="txt02c" class="st1" d="M104.8,98.7c-0.3-0.7-1-1.2-1.7-1.3c-0.2,0-0.4,0-0.6,0.1c0.6,0.4,0.7,0.5,0.7,0.8
		c0,0.6-3.7,4.9-6.9,7l0.1,0.1c1.8-0.8,3.5-1.9,4.9-3.2c0.1,0,0.2,0.1,0.2,0.2c0.1,0.2,0.1,1.8,0.1,2.2c0,0.8-0.1,1.7-0.2,2.5
		c0,0.2-0.2,0.7-0.2,0.8c0,0.5,0.3,0.9,0.7,1.1c0.4,0,0.4-0.6,0.4-0.9c0-0.5-0.1-3.3-0.1-3.9c0-0.3,0-1.4,0-1.5
		c0.1-0.2,0.1-0.3,0.2-0.5c-0.2-0.3-0.4-0.5-0.7-0.6c0.3-0.3,1.9-2,2-2.1c0.1-0.2,0.3-0.3,0.5-0.4C104.6,99,104.7,98.9,104.8,98.7z
		 M115,100.4c0-1.2-2-1.8-3.7-1.7c0.9,0.4,1.6,0.9,2.3,1.6c0.2,0.3,0.5,0.6,0.9,0.7C114.8,101,115,100.7,115,100.4L115,100.4z
		 M120.7,100L120.7,100c-1.4,1.5-2.9,2.9-4.5,4.2c-0.6,0.4-2.8,2-3.2,2c-0.5-0.1-0.9-0.4-1-0.9c-0.1,0.2-0.1,0.4-0.1,0.6
		c0.1,0.8,0.6,1.6,1.4,1.9c0.1,0,0.2-0.1,0.2-0.1c0.1-0.2,0.3-0.4,0.4-0.5c0.6-0.5,1.2-1,1.8-1.4C118.8,103.4,120.3,101,120.7,100z
		 M135.6,99.1c0-0.8-1.6-1.2-2.5-1.1c0.6,0.3,1.1,0.6,1.6,1.1c0.1,0.2,0.3,0.4,0.6,0.4C135.4,99.5,135.6,99.3,135.6,99.1L135.6,99.1
		L135.6,99.1z M134.4,100.4c0-0.9-1.5-1.4-2.4-1.4c0.5,0.3,0.9,0.7,1.3,1.1c0.5,0.6,0.5,0.7,0.7,0.7
		C134.3,100.8,134.4,100.6,134.4,100.4L134.4,100.4z M135,105.6c0-2.1-2.6-4.9-4.4-5.4c1.3,1.3,2.4,2.9,3,4.7
		c0.4,1.1,0.4,1.4,0.9,1.4C134.8,106.2,135,105.9,135,105.6L135,105.6z M128.6,101.1c-0.4-0.6-1-1-1.7-1.1c-0.3,0-0.6,0.1-0.7,0.1
		c0.5,0.1,0.8,0.5,0.9,1c0,0.6-1.3,3.5-3.9,5.9v0.1c1.6-0.8,2.9-2,3.9-3.5c0.2-0.3,1-1.7,1.2-2C128.4,101.5,128.5,101.3,128.6,101.1
		L128.6,101.1z M148.3,107.3c0-1.3-2.3-3-4-3.7c0.7-1,1.3-2,1.9-3.1c0-0.2,0.1-0.3,0.3-0.4c0.4-0.2,0.5-0.2,0.5-0.4
		c-0.3-0.5-0.7-0.8-1.2-1.1c-0.1,0-0.5,0.4-0.6,0.4c-1.3,0.3-2.7,0.5-4,0.6c-0.3,0-0.5,0-1.1-0.8c-0.1,0.2-0.1,0.4-0.1,0.6
		c0.1,0.6,0.4,1.1,1,1.4c0.1,0,0.6-0.3,0.8-0.3c1.2-0.4,2.4-0.7,3.6-0.8c-0.8,2.6-4.2,6.9-7.4,8.3v0.1c1.3-0.3,3.7-1.1,6.2-4.3
		c1.3,1,2.4,2.3,3.1,3.7c0.1,0.3,0.3,0.4,0.6,0.5C148.1,108,148.3,107.7,148.3,107.3L148.3,107.3L148.3,107.3z M163.8,101.9
		c0-0.9-1.6-1.5-2.5-1.5c0.6,0.3,1,0.8,1.4,1.3c0.4,0.6,0.4,0.7,0.7,0.7C163.6,102.4,163.8,102.1,163.8,101.9L163.8,101.9z
		 M162.1,102.5c0-0.8-1.4-1.5-2.3-1.7c0.5,0.5,0.9,1,1.3,1.6c0.3,0.6,0.4,0.6,0.6,0.6C162.1,103,162.1,102.8,162.1,102.5
		L162.1,102.5z M163,99c0-0.5-0.9-0.7-1.1-0.7c-0.2,0-0.3,0-0.4,0.1c-1.7,0.4-4.4,1-6,1.4c-0.7,0.2-1.4,0.3-2.1,0.4
		c-0.5,0-1-0.3-1.1-0.8c-0.1,0.2-0.2,0.5-0.2,0.7c-0.1,0.6,0.4,1.2,1,1.3c0.3-0.1,0.6-0.2,0.9-0.4c1.6-0.7,3.3-1.2,5-1.5
		c-0.7,0.5-1.4,1.1-1.9,1.8c-0.7,0.9-1.1,2-1.1,3.1c0,3.1,3.2,4.1,4.7,4.1c0.2,0.1,0.5-0.1,0.5-0.3v-0.1c0-0.4-0.4-0.7-0.8-0.7l0,0
		c-1.3-0.3-3.7-0.9-3.7-3.2c0.1-1.7,1-3.3,2.4-4.2c0.9-0.5,1.5-0.5,3.3-0.5C162.5,99.5,163,99.5,163,99L163,99z M177.3,107.5
		c0-0.6-0.8-1-2.4-1.7c-0.2-2.1-0.2-4.2-0.2-4.3c1.6-0.2,2.5-0.3,2.5-0.7c-0.1-0.3-0.4-0.5-0.7-0.5c-0.4,0.1-0.9,0.2-1.3,0.3
		c-0.2,0-0.3,0.1-0.5,0.1c0-0.5,0-1,0.1-1.5l0.2-0.8c-0.2-0.5-0.7-0.8-1.2-0.8c-0.3,0-0.7,0.1-0.9,0.4c0.8,0.2,0.9,0.3,1,0.6
		c0,0.2,0.1,1.4,0.1,2.3c-0.3,0-0.9,0.1-1.6,0.1c-0.7,0-1.4-0.1-2-0.4c0.4,0.9,1.8,1.1,2.4,1.1c0.4,0,0.8,0,1.2-0.1
		c0,0.6,0.1,3.3,0.2,4c-0.5-0.1-1-0.1-1.5-0.1c-1.4,0-2.3,0.5-2.3,1.3c0,0.9,1,1.6,2.2,1.6c1,0.1,2-0.6,2.3-1.6
		c0.4,0.2,0.8,0.5,1.2,0.8c0.2,0.2,0.5,0.3,0.8,0.4C177.1,108,177.3,107.8,177.3,107.5L177.3,107.5L177.3,107.5z M168.9,103.3h-0.1
		c-0.1,0.2-1,2.7-1,2.7c0,0.1-0.1,0.2-0.2,0.3c-0.2-0.5-0.3-1.1-0.3-1.7c0-1.5,0.4-3,1-4.4c0.1-0.2,0.2-0.5,0.2-0.7
		c-0.1-0.7-0.7-1.1-1.4-1.2c-0.1,0-0.3,0-0.4,0.1c0.4,0.2,0.6,0.7,0.6,1.1c0,0.2-0.1,0.7-0.3,1.8c-0.3,1.3-0.4,2.6-0.4,3.9
		c0,1,0.3,3.5,1.3,3.5c0.2,0,0.4-0.2,0.4-0.4c0,0,0,0,0-0.1s-0.1-0.7-0.1-0.9c0-0.3,0-0.5,0.1-0.8
		C168.2,106.5,168.9,103.4,168.9,103.3L168.9,103.3z M174,106.4c-0.2,0.7-0.9,1.2-1.7,1.1c-0.9,0-1.4-0.4-1.4-0.7
		c0-0.3,0.4-0.7,1.5-0.7C172.9,106.1,173.5,106.2,174,106.4L174,106.4z"/>
	<path id="txt02d" class="st1" d="M139.9,149c0-0.2-0.1-0.4-0.3-0.5c-0.2-0.2-0.5-0.4-0.7-0.5c-0.4-0.5-0.9-3.8-1-4.6h-0.2
		c-1.2,5.9-1.2,5.9-4.7,5.9c-1.7,0-2.2,0-2.3-1.2c0-0.2,0-11.1,0-11.6h8.4c0.3,0,0.5,0,0.5-0.3c0-0.2-0.1-0.5-0.4-0.6l-1.9-1.7
		c-0.2-0.2-0.4-0.4-0.6-0.4c-0.3,0-0.5,0.2-0.6,0.4l-1.4,1.8H129v-6.9h8.1c0.3,0,0.5-0.1,0.5-0.4c0-0.2-0.2-0.5-0.4-0.6l-2-1.5
		c-0.2-0.2-0.4-0.4-0.7-0.4c-0.2,0-0.5,0.2-0.6,0.4l-1.2,1.6H129v-5c1.2-0.7,1.4-1,1.4-1.2c0-0.3-0.2-0.5-0.5-0.5l-4.2-1
		c0.6,1.6,0.8,2,0.8,7.7h-4.8c0.4-0.9,0.8-1.7,1.4-3c1.2-0.5,1.4-0.8,1.4-1c0-0.3-0.2-0.5-0.4-0.6l-3.6-1.4
		c-0.1,4.3-1.8,8.6-3.5,12.7l0.1,0.1c1.7-1.7,3.1-3.7,4.2-5.9h5.2c0,1,0,5.8,0,6.9h-5.4c-0.3,0-3-0.1-5.5-0.3l0.7,1.4
		c1.4-0.2,2.8-0.3,4.2-0.3h2.5v0.6c0,5.6-1.2,10.9-8.1,15.4v0.1c2.9-0.7,5.5-2.2,7.4-4.5c1.9-2.1,2.9-5.2,3.2-9.2
		c1-0.7,1.2-0.9,1.2-1.2c-0.1-0.2-0.2-0.4-0.5-0.5l-2.4-0.7h4.5v6.4c0,0.9,0,5.4,0,5.7c0,1.2,0.2,2.4,1.6,3c0.7,0.3,1.4,0.3,5,0.3
		c1.9,0,3.3-0.2,4.5-1.6C139.6,150,139.8,149.5,139.9,149z M116.3,124.8c-0.1-1.1-0.8-2-1.8-2.4c-0.8-0.4-1.8-0.6-4.4-0.9v0.3
		c1.2,0.7,2.2,1.6,3,2.8c1.1,1.7,1.2,1.8,1.8,1.8C115.7,126.3,116.3,125.6,116.3,124.8z M112.8,133c0-2.7-4.4-3-6.3-3.1v0.2
		c1.1,0.6,2,1.5,2.7,2.5c1.1,1.5,1.4,1.9,2.2,1.9C112.2,134.5,112.8,133.8,112.8,133L112.8,133z M116.8,127.8h-0.3
		c-3.1,7.2-4.9,11.4-6,12.7c-0.8,0.8-1.8,1.2-2.9,1.1v0.3c3,0.6,3,4.4,3,5.3c0,0.5-0.2,3.1-0.2,3.4c0,1.4,0.8,2,1.6,2
		c0.4,0,1.8-0.1,1.8-2.3c-0.1-1.2-0.2-2.3-0.6-3.4c-0.3-1-0.6-2.1-0.7-3.1c0-0.9,0.4-2.1,1.2-4.9
		C115.8,132.3,116.4,129.8,116.8,127.8L116.8,127.8z M164.4,125c0-1.1-1.4-2.3-3.9-3c-4.3-1.1-5.5-1.5-7.2-3c0,0.7,0.2,1.4,0.7,1.9
		c1.2,1.5,2,1.9,4.2,2.9c0.3,0,0.5,0.2,0.6,0.5c0,0.4-0.1,0.5-2,2.3l0.1,0.1c1.2-0.5,2.5-0.9,3.8-1c0.4,0,2.2,0.2,2.6,0.2
		c0.5,0.1,1-0.1,1.1-0.6C164.3,125.2,164.4,125.1,164.4,125L164.4,125z M167.3,137.7c0-2.6-0.9-7.7-6.2-7.7c-2.3,0-3.9,0.7-7.1,2.6
		c-2.3,1.3-2.5,1.3-3,1.3c-1,0-1.5-0.6-2.2-1.5c-0.1,0.3-0.1,0.7-0.1,1c0,2,1.6,3.7,3.6,3.8c0.8,0,1.2-0.5,2.7-2.3
		c1.5-1.9,3.9-3.8,5.9-3.8c3,0,3.7,4,3.7,6.4c-0.1,6.4-3.3,12.3-8.6,15.8l0.2,0.2C162.8,151.1,167.3,144.8,167.3,137.7z"/>
	<g>
		<circle class="st2" cx="55.2" cy="126" r="30"/>
		<g>
			<path class="st3" d="M40.8,118.9c0,0.7,0.1,1,0.4,1.4c0.5,0.6,1.3,1,2.3,1c1.7,0,2.7-0.8,2.7-2.1c0-0.7-0.3-1.2-0.8-1.5
				c-0.4-0.2-0.8-0.4-2.1-0.6c-1.1-0.2-1.6-0.4-2-0.7c-0.6-0.4-1-1.1-1-1.8c0-1.6,1.2-2.6,3.2-2.6c1.2,0,2.2,0.4,2.7,1.2
				c0.3,0.4,0.4,0.7,0.5,1.3l-0.7,0.1c-0.1-0.6-0.2-0.8-0.5-1.2c-0.4-0.5-1.2-0.8-2-0.8c-1.5,0-2.5,0.8-2.5,2c0,0.7,0.4,1.2,1.1,1.5
				c0.4,0.2,0.7,0.2,1.5,0.4c1.2,0.2,1.8,0.4,2.3,0.7c0.8,0.4,1.1,1.1,1.1,2c0,1.8-1.2,2.7-3.4,2.7c-1.4,0-2.4-0.4-3-1.3
				c-0.3-0.4-0.4-0.8-0.5-1.6L40.8,118.9z"/>
			<path class="st3" d="M51.8,120.3c0,0.6,0,0.9,0.1,1.4H51c0.1-0.4,0.1-0.8,0.1-1.4v-7.7h-2.2c-0.6,0-0.9,0-1.4,0.1v-0.8
				c0.4,0.1,0.7,0.1,1.4,0.1h5c0.7,0,0.9,0,1.4-0.1v0.8c-0.4-0.1-0.7-0.1-1.4-0.1h-2.2v7.7H51.8z"/>
			<path class="st3" d="M62.8,121.7c-0.4-0.1-0.7-0.1-1.4-0.1h-3.7c-0.5,0-0.9,0-1.3,0c0.1-0.5,0.1-0.9,0.1-1.5v-6.9
				c0-0.5,0-0.9-0.1-1.4c0.4,0,0.8,0,1.3,0h3.6c0.5,0,0.9,0,1.4-0.1v0.8c-0.4-0.1-0.7-0.1-1.4-0.1h-4.1v3.6h3.5c0.5,0,0.9,0,1.4-0.1
				v0.8c-0.4-0.1-0.7-0.1-1.4-0.1h-3.5v4.2h4.2c0.5,0,0.9,0,1.4-0.1V121.7z"/>
			<path class="st3" d="M64.3,121.6c0.1-0.4,0.1-0.8,0.1-1.4v-7c0-0.5,0-0.9-0.1-1.4c0.4,0,0.8,0,1.3,0h2.6c1.9,0,2.9,1,2.9,2.7
				c0,1.8-1.1,2.9-3,2.9H65v2.8c0,0.6,0,0.9,0.1,1.4H64.3z M68.1,116.8c1.5,0,2.3-0.8,2.3-2.2c0-1.4-0.8-2.1-2.3-2.1H65v4.3
				C65,116.8,68.1,116.8,68.1,116.8z"/>
		</g>
		<g>
			<path class="st3" d="M52.5,129.8c0.4,0.1,0.8,0.1,1.4,0.1h0.9c0.5,0,0.9,0,1.4-0.1C56.1,131,56,132,56,133v9.2c0,0.8,0,1.3,0.2,2
				h-1.3c0.1-0.7,0.2-1.2,0.2-2v-11.4H54c-0.6,0-1,0-1.5,0.1V129.8z"/>
		</g>
	</g>
</g>
</svg>
