<?xml version="1.0" encoding="utf-8"?>
<!-- Generator: Adobe Illustrator 25.0.0, SVG Export Plug-In . SVG Version: 6.00 Build 0)  -->
<svg version="1.1" id="sec01_ttl_02" xmlns="http://www.w3.org/2000/svg" xmlns:xlink="http://www.w3.org/1999/xlink" x="0px"
	 y="0px" viewBox="0 0 991 617" style="enable-background:new 0 0 991 617;" xml:space="preserve" width="500" height="311">
	<style type="text/css">
		.st0{opacity:0.3;}
		.st1{fill:#9D1B5B;}
		.st2{fill:#FFFFFF;}
		.st3{fill:#231815;}
		.st4{enable-background:new    ;}
	</style>
	<g class="st0">
		<path class="st1" d="M373.3,184.4l-67.9,231.4l22.5-240.5C206.2,163.9,98.4,253.4,87,375.1S165.1,604.6,286.8,616
			c121.8,11.4,229.6-78.1,240.9-199.8C537.5,310.2,471,214.8,373.3,184.4z"/>
	</g>
	<g>
		<g>
			<path class="st2" d="M710.8,386.5c-32.5,0-59.6-10.7-74.3-29.5c-8.3-10.6-16.7-29.1-9.6-57.1c10.2-40.5,42.7-62.2,88.3-84.7
				c-7.5-4.9-15.4-11-22-18.7c-14.6-17.1-19-37.7-13.1-61c5.8-23.1,21.4-44.8,43.9-60.9c22.1-15.9,48.2-24.7,73.6-24.8
				c26.6-0.2,49.4,9.3,62.4,25.9c11,14.1,14.4,32.4,9.6,51.7c-9.1,36.2-39.8,58.9-64.1,73.8c23.1,15.5,51,41.6,39,88.9
				c-6.6,26.3-23.2,50.4-46.7,68c-24.6,18.5-54.4,28.3-86.2,28.5l0,0C711.4,386.5,711.1,386.5,710.8,386.5z M746.9,232.4
				c-26.2,15-59.3,35.7-68.2,71.1c-3.9,15.3-2.3,28,4.6,36.8c6.9,8.8,19.4,13.7,35.1,13.6c31.1-0.2,69.3-20.8,78.8-58.6
				C804.3,266.5,787.4,253.4,746.9,232.4z M791.2,82.2c-21.6,0.1-55.7,14.8-63.8,46.9c-4,15.7,0.7,23.2,11.2,32.4l0.1,0.1
				c8.7,7.7,21.6,15.7,36.1,22.3c15.3-9.6,42.4-28.4,49.5-56.7c3.2-12.8,1.2-25.4-5.3-33.7C813.2,85.9,803.7,82.2,791.2,82.2
				L791.2,82.2z"/>
			<path class="st2" d="M859,371.4l-21.4-13.6l46.5-49.2c-1.7,0.3-3.5,0.4-5.2,0.4c-10.1,0.1-19.4-4.4-25.5-12.2
				c-7-9-9.2-21.3-6.1-33.9c5.7-22.7,27.5-41.4,48.5-41.6c0.1,0,0.1,0,0.2,0c10,0,19.1,4.4,25.2,12.2c6,7.6,8.5,17.7,7.1,28.2
				l41.3-43.7l21.5,13.4L944.5,281c1.7-0.3,3.4-0.4,5.2-0.4c10.1-0.1,19.4,4.3,25.5,12.1c7,9,9.3,21.3,6.1,33.9
				c-5.6,22.4-27.9,41.4-48.5,41.5c-0.1,0-0.1,0-0.2,0c-9.9,0-19.1-4.4-25.1-12.1c-6-7.6-8.5-17.7-7.2-28.3L859,371.4z M948.8,304.6
				c-5.5,0-13.8,9.2-17.2,22.4c-1.9,7.6-1.2,14.5,0.6,16.8c0.2,0.3,0.4,0.5,1.4,0.5c5.4,0,13.8-9.2,17.1-22.4
				c1.9-7.5,1.2-14.5-0.5-16.8C950,304.9,949.9,304.6,948.8,304.6L948.8,304.6L948.8,304.6z M894.8,245.6c-5.6,0.1-13.8,9-17.1,22.4
				c-1.9,7.5-1.2,14.4,0.5,16.6c0.2,0.2,0.4,0.5,1.5,0.5c6.7,0,14.3-11.7,16.9-22.2c1.9-7.6,1.3-14.7-0.5-16.8
				c-0.2-0.2-0.3-0.4-1.2-0.4C895,245.6,894.9,245.6,894.8,245.6L894.8,245.6z"/>
			<path class="st2" d="M480.1,388c-20.5,0-36.7-6.3-45.6-17.7c-6.7-8.5-8.8-19.3-6-30.4c4.4-17.4,17-27.4,34.5-27.5
				c0.1,0,0.2,0,0.3,0c12.3,0,18.9,5.1,22.3,9.4c5.8,7.4,6,17.4,4.3,24.4c-1.3,5.1-1.5,7.4-1.4,8.5c0.6,0.2,1.7,0.4,3.9,0.4
				c12.6-0.1,25.7-7.4,33.1-13.6l0.1-0.1c33.6-27.7,52-66.4,64-100.8c-19.6,16.8-41.7,29.7-70.7,29.9c-0.2,0-0.4,0-0.5,0
				c-21.9,0-39.9-8.1-52-23.5c-15.3-19.5-19.3-49.3-11.2-81.8c7.9-31.1,25.5-60,49.8-81.4c23.9-21,51.6-32.7,78-32.9
				c24.1-0.1,45.2,10,59.8,28.6c22.3,28.5,27.2,73.4,13.8,126.6c-10.8,42.8-33.6,86.5-62.4,120.1c-34.5,40.1-73.7,61.4-113.5,61.7
				l0,0C480.5,388,480.3,388,480.1,388z M580.9,84.7c-0.3,0-0.6,0-0.8,0c-17.5,0.1-33.4,10-47.2,29.4c-15.1,21.2-22.5,46.5-25,56.4
				c-6.2,24.6-5.6,44.2,1.8,53.6c4.3,5.4,11.2,8,21.2,8c26.1-0.2,52.3-20.1,77.9-59.3c4.9-34.8,4.6-51.3-1-67.2
				C601,87,594.3,84.7,580.9,84.7z"/>
		</g>
		<g>
			<path class="st1" d="M480.6,377.9c-31.6,0.2-47.4-15.8-42.4-35.6c3.6-14.5,13.7-19.9,24.9-19.9c19.9-0.1,18.3,16.4,17.1,21.3
				c-2.5,9.9-4.6,21.5,12.3,21.4c14.3-0.1,29.6-7.6,39.5-15.9c47.5-39.1,65.7-97.7,78.8-142.8c-27.3,27.8-52.5,53.9-91.9,54.2
				c-46.7,0.3-66.9-41.2-53.9-92.9c15.5-61.4,69.5-106.3,118-106.6c50.7-0.3,87,51,63.8,142.7C627.2,281.5,561,377.5,480.6,377.9z
				 M617.1,102.1c-8.7-23.9-19.8-27.5-37.2-27.4c-47.2,0.3-73,58.2-81.9,93.3c-5.6,22.3-14.5,74.3,32.7,74
				c44.6-0.3,76.8-49.1,87.5-65.7C623.4,140.9,623.9,121.5,617.1,102.1z"/>
			<path class="st1" d="M711.6,376.5c-45.9,0.3-88-23-75.1-74.2c10.5-41.7,48-61.7,100-86.4c-21.3-11.4-58.5-31.8-46.8-78.1
				c11-43.4,59.9-77.9,107.9-78.2c43.3-0.3,71.9,26.8,62.2,65.2c-10,39.7-49.8,62.2-73.6,75.9c22.9,13.9,61.3,36.3,48.6,86.7
				C822.6,335.9,773.5,376.2,711.6,376.5z M746.6,221c-27.8,15.8-67.2,38.3-77.7,80.1c-10,39.6,12.6,63,49.4,62.8
				c35.1-0.2,77.6-23.2,88.4-66.1C816.6,258.9,788,242.1,746.6,221L746.6,221z M791.1,72.2c-26,0.2-64.1,17.7-73.4,54.5
				c-5.1,20.2,1.6,31.3,14.4,42.4c10.6,9.4,26.4,18.8,43.5,26.1c14.3-8.8,49.6-30.4,58.5-65.5C840.7,102.8,829.1,72,791.1,72.2z"/>
			<path class="st1" d="M857.4,358.6l-4.2-2.7l118-124.8l4.2,2.6L857.4,358.6z M878.8,299.2c-16.1,0.1-26.5-15.2-21.8-33.6
				c4.7-18.7,23.1-33.9,38.9-34c15.6-0.1,26.4,14.9,21.7,33.6C912.8,283.8,894.4,299.1,878.8,299.2z M894.8,235.6
				c-13.7,0.1-23.6,17.2-26.8,29.9c-3.1,12.2-2.1,29.6,11.8,29.5c13.5-0.1,23.4-17.2,26.6-29.7C909.6,252.8,908.4,235.5,894.8,235.6
				L894.8,235.6z M932.7,358.1c-16,0.1-26.3-15.4-21.7-33.6c4.7-18.5,22.8-33.9,38.7-34s26.5,15,21.8,33.6S948.5,358,932.7,358.1z
				 M948.7,294.6c-13.4,0.1-23.5,16.8-26.8,29.9c-3.3,12.9-1.6,29.8,11.7,29.7s23.5-16.8,26.8-29.9
				C963.7,311.5,962.3,294.5,948.7,294.6z"/>
		</g>
	</g>
	<path class="st3" d="M916.6,66.1l1.1,1.1l-12.2,12.3l12.2,12.3l-1.1,1.1l-12.2-12.1l-12.2,12.1l-1.1-1.1l12.2-12.2l-12.2-12.3
		l1.1-1.1l12.2,12.2L916.6,66.1z M897.1,79.5c0,1.5-1.1,2.6-2.6,2.7l0,0c-1.5,0-2.6-1.2-2.7-2.7c0.1-1.5,1.3-2.6,2.8-2.5
		C896,77.1,897.1,78.2,897.1,79.5z M907,89.6c0,1.4-1.2,2.6-2.6,2.7c-1.5,0-2.6-1.3-2.6-2.7c0-1.3,1-2.4,2.3-2.6h0.1c0,0,0,0,0.1,0
		h0.1C905.8,86.9,907,88.1,907,89.6L907,89.6z M907,69.6c0,1.4-1.1,2.6-2.6,2.7l0,0c-1.5,0-2.6-1.2-2.7-2.7c0-1.5,1.2-2.6,2.7-2.6
		C905.8,66.9,907,68.1,907,69.6L907,69.6z M916.8,79.6c0,1.4-1.2,2.6-2.6,2.6c-1.4,0-2.6-1.2-2.6-2.6s1.2-2.6,2.6-2.6l0,0
		C915.7,76.9,916.8,78.1,916.8,79.6C916.9,79.5,916.9,79.5,916.8,79.6L916.8,79.6z"/>
	<g>
		<g>
			<path class="st2" d="M39.6,79.1l-4.7-8.6l4.4-2.4c6.2-3.2,11.5-7.9,15.5-13.6c3-4.7,5.3-9.7,6.8-15.1c-1.3,0.2-2.7,0.4-4.2,0.6
				l-0.2,0.7c-0.5,2.2-1.8,7.7-2.2,10l-0.1,0.5c-1.8,7.7-6,9.3-9.1,9.3c-1.8,0-5.3-0.7-7.6-5.5l-0.1-0.2c-1-2.3-1.3-4.8-0.8-7.3
				c0.2-0.8,0.5-1.6,0.9-2.3c-0.9,0.3-1.9,0.5-2.9,0.5c-4.1,0-7.9-3.5-9.9-9c-0.8-2.1-1-4.3-0.5-6.5c0.1-0.5,0.3-1,0.5-1.5l0.1-0.2
				l4-9.1l4.9,8.7c0.7,1.1,0.8,1.1,1.8,1.1c2.5-0.2,4.9-0.5,7.3-0.9c0.4-1.8,0.6-3.6,0.7-5.5v-0.1c-0.3-0.3-0.7-0.6-1.2-0.8l-8-4.3
				l7.9-4.6c1.5-0.9,3.2-1.4,5-1.4c2.7,0.1,5.3,0.8,7.7,2l8.5-5.3c1.9-1.2,4.1-1.8,6.3-1.8c3.8,0,7.6,1,10.9,2.8
				c5.6,2.9,5.2,7.3,4.8,9.1c-0.3,1.2-0.8,2.3-1.5,3.3l-0.1,0.1c0,0.1-0.1,0.2-0.2,0.2c0.8-0.3,1.7-0.4,2.6-0.4
				c2.8,0.1,5.4,1.1,7.6,2.9c4.2,3.2,4.2,6.7,3.7,8.5c-0.9,3.5-4,6-7.7,6c-0.6,0-1.2,0-1.7-0.1c-2.7-0.3-5.9-0.4-9.8-0.5
				c-1,4-2.2,7.9-3.7,11.7c-3.9,9.8-9.7,16.5-19.2,22.1c-3.9,2.4-8.2,4.3-12.6,5.5L39.6,79.1z M59.1,15.9c3,2.4,4.2,5.2,3.4,8.4
				c-0.1,0.4-0.2,0.8-0.3,1.1c0.5,0,1.2-0.1,3.1-0.4c0.2-0.7,0.3-1.4,0.5-2.2c0.4-1.6,0.7-3.3,0.9-5c-0.4-0.2-0.8-0.3-1.3-0.4
				L59.1,15.9z"/>
			<path class="st2" d="M122.2,77.1c-2,0.1-3.9-0.6-5.3-2c-1.4-1.6-2.2-3.7-2.1-5.9v-0.1c-0.2-0.5-1.2-1.9-5.1-5
				c-2.8,2.9-5.7,4.3-8.7,4.3c-2.2,0-4.3-1-5.6-2.7c-1.8-2.2-2.2-5.4-1.4-9.1c0.4-1.7,1.2-3.3,2.2-4.7l0.2-0.2
				c1.1-1.2,2.5-2.2,4.1-2.8c4.3-2.3,7.7-5.9,9.8-10.3l0.2-0.5c-3.2-2-5.2-5.2-6.2-9.9l-0.8-3.7l8.4-4.4l2.4,4.1
				c0.8,1.3,1,1.6,4.6,1.6c2.7-0.1,5.3-0.2,8-0.6c0.5-1.8,0.8-3.7,1.1-5.6c-0.3-0.2-0.7-0.3-1.1-0.4l-9.8-2.4l7.8-6.4
				c1.8-1.5,4.1-2.4,6.5-2.3c4,0.1,7.9,1,11.5,2.8c5.5,2.9,5.2,7.2,4.8,8.9c-0.1,0.3-0.2,0.6-0.2,0.9l0.1-0.1l0.4-0.2
				c1.4-0.9,3-1.4,4.6-1.5c-0.9-1.4-1.9-2.7-3.1-3.8l-3.4-3.1l5.9-7.7l3.4,1.2l0.8,0.3l4.4-6l3.2,0.7c3.5,0.6,6.8,2,9.6,4.1
				c4,3.1,5.6,6.7,4.7,10.6s-4.1,6.7-7.7,6.7c-0.6,0-1.1-0.1-1.7-0.2c-0.6,2.5-2.3,4.6-4.6,5.7c0.1,0.8,0,1.5-0.2,2.3
				c-1.3,5.5-6.6,6.2-10.2,6.7l-0.3,0.1l-3.6,0.6c3.3,1.8,6.1,4.3,8.4,7.3c1.8,2.4,4,6.1,2.8,11.4c-1.3,5.6-5.6,11.3-11.1,11.3
				c-2.9,0.1-5.5-1.9-6.3-4.7c-0.4-1.4-0.5-2.8-0.4-4.2c-0.3-6.1-1.8-11.8-4.1-15.1c-1.2,5.5-2.1,10.5-3,16.7V60
				c-0.1,0.4-0.1,0.7-0.2,1c-0.1,0.7-0.2,1.3-0.4,2C133.9,70.1,128.8,77.1,122.2,77.1z M116.2,54.7c1.2,0.4,2.2,0.6,3.3,0.9
				c1.2-4.4,2.6-9.9,3.9-15.2c-0.8,0-1.5,0.1-2.2,0.1l-0.4,1.5C119.7,46.4,118.1,50.6,116.2,54.7z"/>
			<path class="st2" d="M183.8,71.9c-3.8,0-7.5-2.8-10.2-7.9c-2.2-4-2.9-8-2-11.5c0.3-1.1,0.7-2.2,1.3-3.2l5.4-9.9L182,50
				c0.2,0.6,0.5,1.3,0.9,1.8c2.8-0.8,10.8-4.3,20.5-10.2c12.6-7.7,23.2-15.5,30.7-22.6l2.7-2.5l8.8,5l-3.2,4.5
				c-6.3,8.8-13.9,16.6-22.4,23.3c-8,6.4-16.5,12-25.5,16.9c-1.3,0.7-2.5,1.4-3.6,2.4l-0.1,0.1C189,70.6,186.5,71.8,183.8,71.9z
				 M195.9,40.9c-3.4,0-5.9-2-7.2-5.8V35c-1.6-5.2-3.7-8.2-7.7-11l-4-2.9l5.1-7.4l3.1,0.5c7.6,1.3,12.8,2.6,16.8,5.6
				c3.7,2.6,5.1,6.7,4,11.4C204.7,36.8,200.5,40.8,195.9,40.9L195.9,40.9z"/>
			<path class="st2" d="M302.4,73c-5.7,0-17.7,0-19.8-11c-0.5-2.9-0.3-6.2,0.8-11.3c-1.4,0.4-2.8,0.8-4.2,1.4c-1.4,0.7-3,1.1-4.5,1.1
				c-5.1,0-7.7-4.3-8.6-5.7c-1.9-3.1-2.8-7-2.1-9.9c0.2-1,0.6-1.9,1.1-2.7l4.8-8.4l4.1,8.8c0.1,0.4,0.3,0.7,0.6,1
				c0.4,0.1,0.7,0.2,1.1,0.1c2.2-0.1,4.4-0.3,6.5-0.6h0.2c0.6-0.1,0.7-0.1,4.5-0.6c0.2-1.1,0.6-2.5,0.8-3.8c-2.8-0.3-5.4-1.4-7.5-3.2
				c-2-1.7-3.1-3.8-4.5-6.9l-1.7-4l8-4.8l2.7,2.7c1.6,1.7,2.3,1.9,4.5,1.9c5.7,0,17.7-2.8,22-5.2c1.6-1,3.4-1.6,5.3-1.6
				c2.6,0.1,5.1,1,7.2,2.5c2.9,1.7,4.3,5,3.7,8.2c-1.1,4.8-6,6-8.9,6.7c-4.2,1-8.2,1.8-12.1,2.4c0.1,0.8,0,1.6-0.2,2.4
				c7.5-1,9.8-1.6,11.7-2.4h0.1c1.2-0.5,2.6-0.8,3.9-0.8c2.9,0,6.7,1.8,8.7,3.4c4.1,3.3,3.7,7,3.4,8.4c-0.7,2.9-3.3,6.1-8.5,6.1
				c-0.5,0-1,0-1.6-0.1c-4.1-0.2-5.4-0.3-7.6-0.3c-5.2,0.1-10.5,0.4-15.7,1c-0.6,2.1-1.2,4.2-1.6,5.9c-0.2,1-0.4,1.8-0.5,2.4
				c3.3-0.1,6.6-0.6,9.7-1.6c1.2-0.5,2.5-0.8,3.8-0.8c2.6,0.2,5.2,1.1,7.2,2.8c2.9,1.9,4.4,5.4,3.5,8.8c-0.5,1.9-2,5.3-7,6.6l0.2,0.1
				C311.5,72.7,307,73.1,302.4,73z"/>
			<path class="st2" d="M348.6,51.8c-4,0-7.3-2.9-9-7.9c-1.2-3.3-1.5-6.8-0.9-10.2c0.4-1.9,1.4-3.7,2.9-4.9l5.7-5.3l2.4,7.4
				c0.2,0.5,0.5,1.6,0.7,2c1.1,0.2,2.3,0.3,3.5,0.2c2.7,0,15.3-0.2,28.4-0.5c1.3-0.1,4.7-0.1,8.3-0.1c7.4,0,11.4,0.1,14,3
				c1.6,1.8,2.2,4.3,1.5,6.7c-0.5,2.3-2.5,6.2-9.7,7.2c-4.2,0.5-9.9,0.8-33,0.9c-2.3,0-3.1,0-5.4,0.1l-3.3,0.2
				c-0.7,0-1.3,0.1-1.9,0.3C351.5,51.4,350.1,51.7,348.6,51.8z M350.4,32.9L350.4,32.9z"/>
			<path class="st2" d="M421.1,80.3l-3.6-9.1l3.7-2.1c12.4-7.3,24.4-20.8,31.5-35c-5.9,0.6-11.8,1.5-17.6,2.8
				c-0.6,0.2-1.2,0.3-1.8,0.4l-0.4,1.9c-0.4,1.5-0.6,2.9-0.8,3.6l-0.1,0.4l-0.3,1.5c-0.2,0.9-0.3,1.6-0.4,2c-1.8,7.5-7,8.1-8.6,8.1
				c-3,0-6.7-1.9-8.3-7.3c-0.7-1.9-0.8-4-0.5-5.9c0.3-1.3,0.9-2.5,1.7-3.6c0.7-1,1-1.8,1.8-4.8c0.9-3.9,0.2-4.4-0.7-5l-8.6-5.4
				l9.6-3.5c1.1-0.5,2.4-0.7,3.6-0.7c3.1,0,6.2,1.3,9.8,4.2h0.2c1.1-0.1,2.9-0.4,6.4-0.9c0.4-1.5,0.7-3,0.9-4.5
				c-0.2-0.1-0.6-0.3-1.2-0.6l-9-4.2l8.7-4.8c1.7-1,3.7-1.6,5.6-1.5c3.4,0.1,6.7,0.8,9.8,2.1c6.6,2.8,6.3,7.3,5.9,9.1
				c-0.2,0.7-0.4,1.4-0.8,2h0.3c0.5,0,0.9-0.1,1.3-0.2c0.1,0,0.5-0.3,0.8-0.4c1.2-0.7,2.6-1.1,4-1.1c-0.5-0.6-1.1-1.2-1.7-1.8
				l-3.4-3.2l5.9-7.7l3.4,1.2l0.2,0.1l4.8-6.5l3.2,0.7c3.5,0.6,6.7,2,9.6,4.1c4,3.1,5.6,6.7,4.6,10.6s-4,6.7-7.7,6.7
				c-0.4,0-0.9,0-1.3-0.1c0,0.1,0,0.3-0.1,0.4c-0.6,3.1-2.9,5.6-6,6.5c0.1,0.8,0,1.6-0.2,2.4c-0.5,2-1.7,3.8-3.4,4.9
				c-0.5,0.4-0.7,0.6-2,2.7C463.1,50.5,457,58,448.1,65.7c-6.7,5.6-14.4,10-22.6,13L421.1,80.3z"/>
			<path class="st2" d="M14.8,152.3l-0.4-0.8c-1.3,0.2-2.6,0.3-3.8,0.3s-4.1,0-6-2.4c-1.2-1.5-1.5-3.5-1-5.4l0.1-0.2
				c4.2-15.9,4.5-17.3,5.5-21.2L7,124.1l-7-6.7l3.1-3.6c4.5-5.2,8.6-10.8,12-16.8c2.7-4.5,5.5-9.9,7.1-13.3c0.7-1.6,1.3-3.2,1.8-4.9
				l1.3-4.4l4.5,0.9c10,2.1,12.3,2.5,14,5.2c0.8,1.3,1.1,3,0.7,4.5c-0.1,0.4-0.3,0.9-0.5,1.3h4c0.5-2.2,0.8-3.8,1.2-6.2l0.8-4.7
				l6.2,0.6c7.3,0.8,8,0.9,9.5,1.4c2.6,0.8,4.2,3.3,4,6l1.8-1.7l3.3-3.1l3.4,2.9c2.4,2,4.7,4.2,6.8,6.4l0.4,0.5l0.3,0.6
				c1.7,2.6,1,6.1-1.6,7.8c-1,0.7-2.2,1-3.4,0.9h-0.9c1.1,1.4,1.5,3.2,1.1,4.9c-0.5,1.9-1.8,3.5-3.6,4.4c-1.6,7.1-2.7,11.9-3.2,14.3
				l-0.1,0.5c-0.6,2.3-2.4,4.2-4.7,4.9c-2,0.5-4.1,0.8-6.2,0.8c-2.1,0.1-4.2-0.7-5.6-2.3c-0.7-0.9-1.1-2-1.2-3.1l0,0
				c-1,2.6-2.2,5.1-3.7,7.6l0.6,0.1c4.8,1,9.6,1.5,14.5,1.5h9.6l-2.2,9.2l-2.2,1c-1.1,0.4-2.2,1.1-2.9,2.1c-0.7,0.8-1.4,1.7-1.8,2.7
				c-1.5,3.8-4.3,4.3-5.8,4.3c-2.3,0-7.5-1.4-10.3-2.5c-4.1-1.3-7.9-3.4-11.3-6c-5.7,4-11.9,6.6-21.8,9.2L14.8,152.3z M26.4,124.4
				L24,134.7c-0.1,0.3-0.2,1-0.5,2.2c2.9-1.8,5.6-3.8,8-6.2c-0.3-0.7-0.6-1.5-0.9-2.4c-0.4-1.2-0.8-2.2-1-2.7l-0.3-0.3
				C28.3,125.2,27.3,124.9,26.4,124.4z"/>
			<path class="st2" d="M71.1,154l-5.7-7.4l2.7-3.1c2.9-3.2,5.5-6.8,7.5-10.7c4-7.3,6.7-15.4,10.6-32.1c3.2-13.2,3.8-16.4,4.3-20.2
				l0.9-6.7l6.2,2.8c2.7,1.2,5.3,2.5,7.7,4.2h32.4c1.2-1,2-1.8,3.5-3l4-3.3l3.2,3c2.1,2,2.7,2.5,4.9,4.4c1.9,1.5,2.8,3.9,2.2,6.3
				c-0.5,2-1.9,3.6-3.7,4.6l-7,29.6c-1.1,5.2-1.1,5.2-2.2,9.6l-1.9,8.8c-1.2,4.6-3.6,7.2-8.1,8.9c-2.7,1.1-5.6,1.7-8.5,1.8
				c-1.8,0.1-3.6-0.7-4.7-2.1c-1.1-1.4-1.4-3.3-1-5c-0.3-0.1-0.8-0.3-1.5-0.6c-0.8,2.4-2.8,4.2-5.2,4.6c-2,0.4-4,0.5-6,0.5
				c-1.5,0-4.3,0-6.1-2.3c-1.2-1.7-1.6-3.8-1-5.8v-0.2c2.2-8.1,2.4-9,3.4-13.1l0.7-3.1h-5c-2.3,5.8-5.6,11.1-9.7,15.8
				c-3.7,4.4-8.2,8.2-13.1,11.2L71.1,154z M119.3,132.5l4.7,0.2l2-8.3h-4.8l-1.2,5.4C119.8,130.4,119.6,131.3,119.3,132.5
				L119.3,132.5z M124,112.9h4.8l1.2-4.9h-4.8L124,112.9z M101.6,112.9h4l1.2-4.9H103C102.4,109.9,102,111.5,101.6,112.9L101.6,112.9
				z M127.9,96.5h4.8l1-4.2h-4.8L127.9,96.5z M105.7,96.5h3.8l1-4.2h-3.7L105.7,96.5z M146.8,89.5L146.8,89.5z"/>
			<path class="st2" d="M177.9,150.2c-10.2,0-13.1-0.2-15.6-1.9l-0.1-0.1c-1.2-0.8-2.2-2-2.8-3.3c-2.7,2.7-6,4.4-9.2,4.4
				c-2.3,0-4.5-1-5.9-2.9c-1.8-2.5-2.3-5.6-1.5-8.6c0.4-2.1,1.6-4.1,3.3-5.4l-3.9-3.6l2.8-3.6c6.6-8.6,9.3-15,12.8-29.7
				c1.1-4.6,1.6-7.4,2.4-12.2l1-6.7l6.1,2.9c2.5,1.2,5,2.5,7.4,3.9h18.1c0.2-1.3,0.4-2.7,0.5-4.1l0.4-4.9l4.9,0.3
				c1.3,0.1,2.4,0.2,3.2,0.3l1.3,0.1c1.4,0.1,2.6,0.2,3.8,0.4l0.5-0.6l2.8,0.4c4.1,0.6,7.2,1.4,9.3,3.1l1-0.9l3.3,3.5
				c1.5,1.5,2.9,3.2,4.2,4.9l0.3,0.3l0.2,0.4c0.6,1.1,0.9,2.5,0.6,3.8l6.4,2.9h-8c-1.1,1-2.6,1.6-4.1,1.5h-0.2
				c0.6,1.2,0.7,2.6,0.4,3.9c-0.2,0.8-0.5,1.5-0.9,2.1l4.1,0.9l-6.1,14.8c-0.1,0.2-0.1,0.3-0.2,0.5c1.1,1.8,1.4,3.9,0.9,5.8
				c-0.7,3-2.8,5.5-5.6,6.8c2.1,2.4,2.9,5.6,2.1,8.6c-1.2,4.9-6.2,10.5-11.6,10.5c-1.8,0-3.5-0.8-4.7-2.1c-1.4,1.3-3.1,2.2-4.9,2.7
				c-2.2,0.5-4.4,0.7-6.7,0.6C186.9,150.1,180.3,150.2,177.9,150.2z M178.4,133.5h0.9c-0.1-0.7-0.2-1.3-0.4-1.9L178.4,133.5z
				 M194.1,123.9L194.1,123.9l0.2-0.2L194.1,123.9L194.1,123.9z"/>
			<path class="st2" d="M261.8,151.1c-1.5,0-4.3,0-6.1-2.3c-0.2-0.2-0.4-0.5-0.5-0.8c-2.1,1.6-4.7,2.5-7.4,2.6
				c-2.1,0.1-4.2-0.9-5.5-2.5c-1.3-1.7-1.7-3.8-1.2-5.9c0-0.2,0.2-0.6,0.4-1.2c0.1-0.4,0.4-1,0.5-1.6l0.1-0.3
				c1.1-2.9,2.1-5.8,2.9-8.8c0.1-0.3,0.1-0.5,0.2-0.8l-0.9-0.3l-5.3-1.8l4.5-9.5l3.8,0.8l2.4,0.4c0.6-0.9,1.5-2.2,2.6-3.7l0.3-0.5
				l0.1-0.1c-1.3-1-2.5-2.8-2.6-6c0-2.9-0.8-5.7-2.4-8.1l-2-3.2l5.2-5.7l3,0.8c1.7,0.4,3.4,1,5.1,1.6c0-0.2-0.1-0.4-0.1-0.6
				c-0.3-3.3-1.4-6.4-3.3-9.1l-1.9-3l4.8-6l3.2,0.9c3.8,1,11.4,3.1,14.1,8.1c0.9,0.2,1.9,0.3,2.8,0.3h0.6l0.2-0.8
				c0.4-1.5,0.7-3.1,0.8-4.7l0.5-4.8l4.8,0.3l3.3,0.3l1.2,0.1c3.2,0.3,5.5,0.6,7.2,1.4l0.3-2.1l4.8,0.4c8.9,0.9,9.6,0.9,11.1,1.6
				c0.8,0.4,1.6,0.9,2.2,1.6l0.4-0.4l3.3,3.3c2.3,2.3,3,3.1,5.4,5.7L325,87c1.9,2.3,1.6,5.8-0.7,7.7c-0.7,0.6-1.6,1-2.5,1.2
				c0.5,0.5,1,1.1,1.7,1.9l0.4,0.4l0.3,0.5c0.8,1.3,1,2.8,0.7,4.3c-0.6,2.4-2.7,4.1-5.1,4.2c0.7,1.2,0.9,2.7,0.5,4.1
				c-0.5,1.8-1.7,3.4-3.4,4.2l-3,12.7c-0.7,2.9-1.4,6-2.2,9.6l-0.3,1.4c-0.8,3.2-2,6.4-5.5,8.4c-3.2,1.7-6.8,2.6-10.4,2.7
				c-1.7,0.1-3.3-0.6-4.4-1.8c-1.1-1.3-1.7-3-1.4-4.8l0,0c-1.4-0.5-2.9-0.9-4.5-1.2l-5.4-1.2l0.1-0.3c-1.9,0.9-4,1.3-6.1,1.2h-0.7
				l-0.6,2.5c-0.3,1.4-0.9,2.6-1.9,3.6C268.1,150.9,264.9,151.1,261.8,151.1z"/>
			<path class="st2" d="M310.3,153l-4.5-8.4l2.9-2.6c5.7-5.3,8.4-8.4,11.6-13.1c3.6-5.2,6.5-11,8.6-17l0.1-0.2
				c0.1-0.2,0.1-0.3,0.2-0.6l-0.1-0.2c-1.2-1.5-1.5-3.5-1-5.4v-0.1c1.9-6.9,2.3-8.6,3.2-12.4c1.6-6.6,2.1-9.6,2.7-13.2l1-6.6l5.9,2.8
				c3.5,1.6,4.9,2.3,7.8,3.9h24.2c1.1-0.8,1.7-1.4,4-3.3l3.2-2.6l3.2,2.6c2.4,1.9,3.1,2.6,5.4,4.7l0.1,0.1c1.7,1.5,2.5,3.8,2,6
				c-0.5,2-1.9,3.6-3.8,4.5c-1.2,4.9-1.6,6.8-3.1,14.7v0.2c-0.2,1.1-0.7,2.1-1.4,3l-0.2,0.3l-0.3,0.3c-0.2,0.2-0.4,0.4-0.6,0.5
				c1.2,1.2,2.2,2.3,3.9,4.1c1.4,1.4,2,3.4,1.6,5.3c-0.7,2.7-3.2,4.5-5.9,4.3h-19.5l-1.6,6.6c0.8,0,1.6,0,2.5,0
				c6.8-0.1,13.7-0.5,20.5-1.3l6.4-0.7l-1.4,9.6l-2.1,1.2c-1.7,0.8-3,2.2-3.7,3.9c-0.6,1.7-1.7,4.6-5.7,5c-1.1,0.1-5.6,0.2-7.2,0.2
				c-9.8,0-15.5-0.4-19.1-1.3c-6.8-1.5-12.4-6.1-15.5-12.3c-0.7,0.8-1.4,1.6-2.1,2.3c-5.2,5.3-9.6,8.5-17.7,12.8L310.3,153z
				 M343,123.6c0.1,0.3,0.3,0.5,0.4,0.7l0.6-2.5C343.6,122.5,343.3,123.1,343,123.6L343,123.6z M364.2,113.2h1.9l1.5-1.4
				c-0.4-0.3-0.8-0.6-1.2-1.1c-0.4-0.5-0.7-1-0.9-1.5h-0.4L364.2,113.2z M348.4,97.7h18.7l1.5-6.3h-18.7L348.4,97.7z"/>
			<path class="st2" d="M385.5,152.3l-7.4-5.8l2.7-3.9c7.3-10.4,10.9-20.1,17.4-47.2c1.3-5.3,1.9-8.1,2.7-13.3l1.2-6.9l6.2,3.4
				c2.6,1.3,5.1,2.8,7.5,4.4h10v-0.1c0.3-1.3,0.5-2.7,0.6-4l0.5-4.9l4.9,0.4c8.9,0.7,9.9,0.8,11.2,1.2c1.5,0.4,2.8,1.3,3.7,2.6
				c0.8,1.3,1.1,2.8,0.7,4.2c0,0.2-0.1,0.4-0.1,0.5h2.5c1.9-1.8,3-2.8,5.2-4.9l3.2-3l3.4,2.9c2.6,2.1,5.1,4.4,7.4,6.9l0.5,0.5
				l0.4,0.7c0.8,1.3,1,2.8,0.7,4.2c-0.7,2.6-3.2,4.4-5.9,4.3h-0.8l1.9,2l0.4,0.4c1.2,1.3,1.6,3.2,1.2,4.9c-0.7,2.6-3,4.3-5.7,4.3
				h-11.2l-1.8,8.1c0.8,0.7,1.6,1.5,2.7,2.6l0.4,0.5c1.3,1.5,1.8,3.5,1.4,5.5c-0.8,3.5-3.9,4.5-6.5,5c-1.1,1-2.1,2-3.1,2.8
				c3.1,0.4,6.3,0.6,9.5,0.6h8.3l-2.3,9.6l-2.4,0.9c-2,0.8-2.7,1.2-4.8,5.2l-0.1,0.2c-1,2-3.1,3.2-5.3,3.2c-2,0-8.1-1.6-8.1-1.6
				c-4.9-1.3-9.5-3.4-13.7-6.2c-10.1,4.6-19.4,7.2-32.3,8.8l-5,0.6l-0.1-1L385.5,152.3z M407.4,125.8c-1.8,4-4,7.8-6.5,11.3
				c4.5-1.6,8.8-3.6,13-5.9c-1.1-1.8-2-3.8-2.7-5.8c-1.2,0-2.3,0.1-3.5,0.3L407.4,125.8z"/>
		</g>
		<g>
			<path class="st3" d="M115.9,40.7c-1.3,5.8-3.7,11.2-6.9,16.2c-2.8,4.2-5.7,6.5-8,6.5c-2,0-2.9-2.3-2.1-5.6c0.2-1,0.7-1.9,1.3-2.7
				c0.6-0.7,0.8-0.8,2.5-1.6c5.4-2.8,9.7-7.4,12.2-13L115.9,40.7z M110,26.8c1.9,3.2,3.8,4.1,8.9,4.1c4.1-0.1,8.1-0.5,12.1-1.1
				c1.8-7.5,2.2-9.5,2-11.2c-0.2-1.9-1.9-3.4-4.9-4.1c0.9-0.8,2.1-1.2,3.4-1.1c3.1,0.1,6.2,0.8,9.1,2.2c1.9,1,2.6,2.1,2.3,3.4
				c-0.2,0.9-0.4,1.3-1.6,2.7c-1.3,1.6-2.2,3.6-3.4,7.1c5.9-0.9,11.4-2.6,12.8-3.8c0.7-0.5,1.5-0.8,2.3-0.7c1.7,0.2,3.2,0.8,4.6,1.7
				c1.3,0.9,1.8,1.9,1.5,3c-0.4,1.7-1.7,2.3-6.1,2.9c-0.4,0.1-2.1,0.4-4.9,0.8c-5.3,0.8-10,1.4-11.8,1.7c-1,3.8-1,4-1.3,5.2
				c-1.6,6.7-2.7,12.5-3.7,19.9c-0.2,1.3-0.3,2-0.5,2.8c-1.3,5.6-5.1,10.1-8.4,10.1c-1.7,0-2.3-0.7-2.3-2.9c0.2-2.4-2.1-5.2-8.3-10.1
				l0.4-0.6c3.6,1.3,7.3,2.2,11.1,2.7c1.8-6.2,4.6-17.4,6.8-26.4c-4.7,0.4-7.4,0.7-9.6,0.7c-6.8,0-9.8-2.2-11.1-8.2L110,26.8z
				 M143.9,39.7c5.4,2.9,8.1,5,10.4,7.9c1.9,2.5,2.5,4.6,1.9,7.2c-1,4-3.8,7.4-6.2,7.4c-0.7,0.1-1.4-0.4-1.5-1.2
				c-0.2-0.7-0.2-0.7-0.2-2.8c-0.3-7.3-2.1-13.8-5-18L143.9,39.7z M153.8,10.5c2.5,0.7,4.8,1.9,6.9,3.5c2.8,2.2,3.8,4.3,3.2,6.6
				c-0.4,1.7-1.5,2.8-2.8,2.8c-1,0-1.4-0.4-2-2.1c-1.2-3.7-3.4-7-6.2-9.6L153.8,10.5z M162.7,5.7c2.8,0.5,5.4,1.6,7.7,3.2
				c2.4,1.9,3.3,3.5,2.9,5.5c-0.4,1.7-1.6,2.9-2.8,2.9c-0.8,0-1.2-0.4-1.9-1.9c-1.4-3.4-3.7-6.3-6.6-8.5L162.7,5.7z"/>
			<path class="st3" d="M41.7,72.5c6.9-3.6,12.9-8.8,17.3-15.2c4-5.9,6.6-12.5,9.3-23.5c-5,0.2-10.1,0.9-15,1.9
				c-0.1,0.4-0.2,0.7-0.2,0.8l-0.7,3.1c-0.5,2.3-1.8,7.8-2.3,10.1C50,49.9,50,50.1,50,50.1c-0.9,3.8-2.2,5.5-4.2,5.5
				c-1.2,0-2.2-0.9-3-2.7c-0.6-1.3-0.8-2.8-0.6-4.2c0.2-0.7,0.6-1.4,1-2c1.3-2,2.3-4.7,3.5-9.6c-2.9,0.5-5.7,1.4-8.3,2.7
				c-1,0.5-2,0.8-3.1,0.9c-1.8,0-4-2.4-5.1-5.7c-0.4-1.2-0.6-2.5-0.4-3.7c0.1-0.3,0.2-0.6,0.4-0.9c1.5,2.6,3.2,3.7,6.1,3.7
				c3.9-0.3,7.7-0.8,11.5-1.6c0.9-3.3,1.4-6.7,1.5-10.2c-0.2-2.2-1.2-3.6-3.8-5c0.8-0.5,1.6-0.7,2.5-0.7c2.9,0.2,5.7,1.3,8,3.1
				c1.6,1.2,2,2.2,1.7,3.4c-0.2,0.8-0.5,1.6-1,2.2c-1,2-1.8,4-2.3,6.2c2.6-0.4,4.5-0.7,7.7-1.1c0.9-0.1,0.9-0.1,5.2-0.6
				c1-0.1,1-0.1,2.1-0.2c0.3-1.1,0.8-3,1.4-5.7c1.2-5.1,1.4-7.3,0.6-8.6s-2-2.2-4.6-2.8c1.1-0.7,2.4-1.1,3.7-1c3,0,5.9,0.8,8.5,2.2
				c1.9,1,2.6,2.1,2.3,3.5c-0.2,0.6-0.4,1.2-0.8,1.7c-1.5,2.2-2.3,4.2-3.9,9.8c4.1-0.3,5.9-0.6,8.4-1.6c0.6-0.3,1.4-0.5,2.1-0.5
				c1.7,0.2,3.3,0.8,4.6,1.9c1.5,1.1,2.1,2.2,1.9,3.4c-0.3,1.3-1.5,2.2-2.8,2.2c-0.4,0-0.8,0-1.1-0.1c-4-0.4-7.9-0.5-11.9-0.5h-2.3
				C73,42,72.1,44.9,70.7,48.4C67.1,57.3,62.2,63,53.6,68c-3.6,2.2-7.5,3.9-11.5,5L41.7,72.5z"/>
			<path class="st3" d="M238.2,23.2c-6.1,8.4-13.3,15.9-21.5,22.3c-7.8,6.2-16.1,11.7-24.8,16.4c-1.7,0.9-3.2,1.9-4.6,3.2
				c-1.3,1.2-2.4,1.8-3.4,1.8c-1.9,0-4.1-2-5.8-5.3c-1.6-3-2.1-5.7-1.6-8c0.2-0.7,0.4-1.3,0.8-1.9c1.2,3.3,3,5.3,5,5.3
				c3,0,13.6-5,23.7-11.1c12.6-7.7,23.6-15.8,31.5-23.2L238.2,23.2z M184.5,19c7.8,1.3,11.8,2.5,14.6,4.7c2,1.4,2.7,3.5,2.1,6.2
				c-0.8,3.4-3.1,6-5.3,6c-1.2,0-1.8-0.6-2.4-2.5c-2-6.3-4.7-10.1-9.5-13.6L184.5,19z"/>
			<path class="st3" d="M281.3,18.7c2.6,2.7,4.6,3.5,8.1,3.5c6.6,0,19.5-3.1,24.4-5.8c0.9-0.6,1.9-1,2.9-1c1.6,0.1,3.1,0.7,4.4,1.6
				s1.8,2,1.6,3c-0.3,1.4-1.7,2.2-5.2,3c-6.9,1.7-13.8,2.8-20.9,3.4c4.1,1.9,5.4,3.3,4.9,5.3c-0.2,0.8-0.5,1.6-1,2.4
				c-0.7,1.5-1.3,3.1-1.8,4.7c14.6-1.9,18.1-2.5,21.3-3.8c0.7-0.3,1.4-0.5,2.1-0.5c2,0.3,4,1.1,5.6,2.3c1.3,1.1,1.9,2.2,1.6,3.4
				c-0.4,1.4-1.6,2.2-3.6,2.2c-0.4,0-0.7,0-1.1-0.1c-4.3-0.2-5.8-0.3-8.1-0.3c-6.5,0.1-13,0.6-19.5,1.4c-1.1,3.3-2,6.8-2.7,9.4
				c-0.8,3.3-1,5-0.8,6.2c0.3,1.6,1.7,2.4,4.6,2.4c4.1,0,8.2-0.7,12.1-2c0.6-0.3,1.3-0.5,2-0.5c1.6,0.2,3.1,0.8,4.3,1.8
				c1.3,0.7,1.9,2.2,1.6,3.6c-0.4,1.5-1.4,2.4-3.4,3c-4.1,0.6-8.2,0.9-12.4,0.9c-9.9,0-13.9-1.9-14.8-6.9c-0.4-2.2-0.2-5,0.9-9.8
				c0.1-0.4,0.4-1.7,0.9-3.9c0.5-2,0.5-2,0.8-3.3c-4.4,0.7-8.7,1.9-12.9,3.5c-0.8,0.4-1.6,0.6-2.5,0.7c-1.6,0-2.9-1-4.3-3.3
				c-1.2-2-1.9-4.6-1.5-6.2c0.1-0.5,0.3-0.9,0.6-1.4c1.3,2.9,3.1,4,6.2,4c2.4-0.1,4.8-0.3,7.2-0.7c0.8-0.1,0.8-0.1,5.6-0.7l2.6-0.3
				l0.6-2.4c1.8-7.4,1.8-8.9,0.7-10.7h-1.2c-3.2,0-5.9-0.8-7.5-2.2c-1.2-1-2-2.3-3.2-5.1L281.3,18.7z"/>
			<path class="st3" d="M347.1,36.6c1.3,1.2,2.9,1.5,6.8,1.5c2.9,0,16.1-0.2,28.6-0.5c1.2-0.1,5.9-0.1,8.1-0.1
				c7.2,0,9.4,0.3,10.3,1.3c0.5,0.6,0.6,1.4,0.4,2.2c-0.4,1.8-2.3,3-5.5,3.4c-4.2,0.5-10.5,0.7-32.3,0.9c-3.3,0-3.7,0.1-9,0.3
				c-1.1,0-2.3,0.2-3.3,0.6c-0.8,0.3-1.7,0.5-2.6,0.6c-1.7,0-3.3-1.6-4.3-4.5c-0.9-2.4-1.2-5-0.7-7.5c0.1-1,0.6-1.8,1.4-2.4
				C345.9,35.1,346.2,35.8,347.1,36.6z"/>
			<path class="st3" d="M423.7,73.3c15.4-9.1,30.1-27,36.7-44.5c-1-0.1-1.7-0.1-2.2-0.1c-5.8,0-16.9,1.5-24.5,3.3
				c-0.4,0.1-0.8,0.2-1.2,0.2c-1.2-0.1-2.3-0.6-3.2-1.4c0.1,0.6,0,1.1-0.1,1.7l-0.4,1.8l-0.9,3.7c-0.5,1.9-0.9,3.9-0.9,4.1
				c-0.3,1.7-0.5,2.8-0.7,3.4c-0.7,2.8-1.9,4.2-3.7,4.2c-1.5,0-2.9-1.4-3.6-3.8c-0.4-1-0.5-2.1-0.4-3.2c0.2-0.7,0.5-1.3,0.9-1.8
				c1.2-1.8,1.8-3.2,2.6-6.5c1.2-5.3,0.4-8.3-2.9-10.4c0.6-0.3,1.2-0.4,1.9-0.4c2.2,0,4.9,1.4,8.2,4.3c0.8,0,1.6-0.1,2.4-0.2
				c1.8-0.2,4.5-0.6,9.8-1.4c0.4-1.2,0.5-1.6,0.7-2.5c2-8.5,1.7-9.4-2.9-11.6c1-0.6,2.1-1,3.2-0.9c2.7,0.1,5.4,0.7,7.9,1.7
				c2.4,1,3.3,2.1,3,3.4c-0.2,0.7-0.6,1.3-1.1,1.8c-1.7,1.9-2.3,3.1-3.7,7.3c4-0.4,7.2-0.7,9.7-1c1.4,0,2.8-0.4,4-1.1
				c0.5-0.3,1.1-0.5,1.7-0.5c1.1,0,2.6,1,4.5,3.1s2.3,3.1,2,4.2c-0.2,0.9-0.8,1.7-1.6,2.2c-1.1,0.9-1.7,1.6-3.2,4.1
				c-6.5,11.3-12.2,18.4-20.7,25.6c-6.2,5.2-13.3,9.2-20.9,12L423.7,73.3z M466.5,11.3c2.5,0.7,4.8,1.9,6.9,3.4
				c2.8,2.2,3.8,4.3,3.2,6.6c-0.4,1.7-1.5,2.8-2.8,2.8c-1,0-1.4-0.4-2-2.1c-1.2-3.7-3.4-7-6.2-9.6L466.5,11.3z M475.2,5.6
				c2.8,0.5,5.4,1.5,7.7,3.1c2.4,1.9,3.3,3.5,2.9,5.5c-0.4,1.7-1.5,2.9-2.9,2.9c-0.8,0-1.2-0.4-1.9-1.9c-1.4-3.4-3.7-6.3-6.6-8.5
				L475.2,5.6z"/>
			<path class="st3" d="M6.9,117.1c4.7-5.4,8.9-11.3,12.5-17.5c2.7-4.5,5.6-10,7.4-13.8c0.8-1.8,1.5-3.7,2-5.6
				c10.1,2.1,11.1,2.4,10.8,3.5c-0.2,0.7-1.1,1.1-3.6,1.4c-3.7,6.2-8,12.1-12.8,17.5c4.5,0.7,5.5,1,5.2,1.9c-0.1,0.5-0.9,1-2.8,1.7
				L21.8,122L19,133.5c-0.2,0.8-1.2,5.1-2.6,11.1c-0.1,0.6-0.5,1.1-1,1.4c-1.6,0.6-3.3,0.9-5,0.8c-1.9,0-2.4-0.4-2.1-1.6
				c0,0,0-0.1,0-0.2c4.6-17.3,4.6-17.3,5.8-22.5l3.3-13.8c-3.1,3.2-6.5,6.2-10.1,8.9L6.9,117.1z M35.9,121.2c0,0.1-0.1,0.3-0.1,0.4
				c-0.5,1.9,0.7,3.9,4.1,7c2.3-3.6,4.1-7.5,5.3-11.6h-8.6l-0.3,1.4c-0.1,0.5-0.3,0.9-0.7,1.2c-0.8,0.5-2.6,0.8-5.1,0.8
				c-1.7,0-2.1-0.4-1.9-1.6c1.2-4.5,2.5-9.6,3.9-15.6c0.6-2.5,0.9-4,1.5-7.1c2.6,1.2,5.1,2.6,7.5,4.2h8.3l1.8-7.6H38
				c-1.8,0-3.5,0.1-5.3,0.4l0.1-2.5c1.8,0.4,3.6,0.6,5.5,0.7H52c1.1-4.5,1.5-6.7,2.1-10.4c8,0.9,8.8,0.9,9.8,1.3
				c0.6,0.2,0.9,0.6,0.8,1c-0.2,0.7-1.1,1.2-3.5,1.8c-0.2,0.7-0.7,2.7-1.6,6.3h9.2c2.7-2.6,3.5-3.3,6.2-5.8c2.3,1.9,4.4,4,6.5,6.1
				c0.2,0.3,0.3,0.6,0.3,0.7c-0.1,0.3-0.5,0.5-1,0.5H59.1l-1.9,7.6h8.6c1.9-1.8,2.5-2.4,4.4-4.2c2.2,1.7,2.9,2.2,4.9,3.9
				c0.8,0.7,1,1,0.9,1.4c-0.2,0.7-0.9,1.2-3.1,2.1c-2,8.6-3.2,14.1-3.8,16.7c-0.1,0.8-0.7,1.5-1.5,1.7c-1.5,0.4-3.1,0.6-4.7,0.6
				c-1.7,0-2.1-0.4-1.8-1.6l0.9-3.8h-9.5c-1.6,5.5-4.4,10.5-8,14.9c2.3,1.2,4.8,2.1,7.4,2.7c5.1,1,10.3,1.6,15.5,1.6h3.2l-0.2,0.7
				c-1.8,0.7-3.4,1.8-4.6,3.3c-1.1,1.2-2,2.6-2.6,4.1c-0.3,0.9-0.6,1.1-1.1,1.1c-2.9-0.4-5.8-1.1-8.6-2.2c-4.8-1.5-9.2-4.2-12.8-7.8
				c-6.1,5.1-12.2,7.9-23.3,10.8l-0.3-0.7c7.7-3.2,14.7-8,20.4-14.1c-1-1.5-1.7-3.2-2.3-4.9c-1.4-4-1.4-4-2-4.5L35.9,121.2z
				 M40.2,101.9L37,115.5h8.7c1.3-4.3,1.9-6.4,3.7-13.7L40.2,101.9L40.2,101.9z M56.8,101.9c-1.7,6.6-2.2,8.8-3.8,13.7h9.4l3.3-13.7
				H56.8z"/>
			<path class="st3" d="M115.1,128.6c-0.4,1.9-1.4,6.3-2.8,13.1l-0.1,0.3c-0.2,0.9-0.6,1.2-1.7,1.5c-1.6,0.3-3.2,0.4-4.8,0.4
				c-2.3,0-2.6-0.3-2.2-2c2.2-8.1,2.5-9.1,3.4-13.2l2.2-9.2H94.4c-2.2,6.4-5.6,12.4-10.1,17.5c-3.4,4-7.5,7.5-12,10.3l-0.4-0.5
				c3.2-3.5,5.9-7.4,8.1-11.6c4.2-7.8,7-16.2,11.1-33.3c3.2-13.2,3.9-16.6,4.4-20.7c2.9,1.3,5.7,2.8,8.3,4.6h35.9
				c2.2-2,2.9-2.6,5.3-4.6c2.2,2,2.8,2.6,5,4.5c0.6,0.5,0.8,0.9,0.7,1.4c-0.2,0.7-0.8,1.2-3.2,2.5l-7.6,31.7
				c-1.2,5.2-1.2,5.2-2.2,9.6s-1,4.5-1.9,8.6c-0.8,3-2.1,4.4-5.1,5.6c-2.2,0.9-4.4,1.3-6.8,1.4c-0.9,0-1-0.1-0.8-1.4
				c0.8-3.7-0.5-4.8-7.4-6.8l0.2-0.9c1.3,0.1,4.8,0.2,10.6,0.6c1.1,0,1.3-0.1,1.5-1.1l4.1-17.4h-15L115.1,128.6z M113.1,103H99
				c-2,7.6-3.1,11.7-4.1,14.9h14.6L113.1,103z M116.8,87.3h-14l-0.6,2.4l-0.9,3.5l-2,8.3h14L116.8,87.3z M132.7,117.9l3.5-14.9h-15.1
				l-3.6,14.9H132.7z M136.6,101.5l3.4-14.2h-15l-3.4,14.2H136.6z"/>
			<path class="st3" d="M161.7,125.9c0,2.1-0.2,4.1-0.7,6.1c-1.6,6.8-6.5,12.3-10.8,12.3c-2.2,0-3.3-2.3-2.6-5.3
				c0.5-2.1,1.1-2.7,3.8-3.7c2.5-1,4.7-2.5,6.5-4.5c1.2-1.5,2.2-3.1,3-4.9H161.7z M203.7,89.9c-1.2,6.7-1.4,11.1-0.8,15
				c3-3.3,5.5-7,7.4-11c8.5,2.9,8.5,2.9,8.3,3.7s-0.8,0.9-3.3,1.2c-3.1,4.3-6.6,8.2-10.5,11.8c1.4,2.7,2.3,3.8,5.5,6
				c2.5-3,2.5-3,8.7-11.4l0.7,0.1l-3.8,9.3c-0.4,0.8-0.7,1.6-0.9,2.4c-0.2,0.9-0.1,1.2,0.8,2.2c0.6,0.7,0.8,1.6,0.6,2.5
				c-0.5,2.3-2.6,3.9-4.9,3.9c-4.5,0-10-4.3-12.8-10c-2.1,1.4-4.2,2.7-6.5,3.8c-2.6,1.3-4.1,1.8-12.3,4.2l-0.3-0.7
				c7.9-4,12.3-6.9,17.4-11.7c-1.6-5.8-1.7-11.2-0.3-21.2h-24.8l-0.5,2.2c-2.1,8.8-4.6,15.8-7.1,20.4c-2.3,4.2-5.3,7.9-8.8,11.2
				c-2,1.8-4,3.4-6.1,5l-0.5-0.4c7-9.2,10.1-16.3,13.7-31.6c1.1-4.8,1.7-7.8,2.4-12.7c2.8,1.3,5.5,2.7,8.1,4.4h23.8
				c0.2-1.1,0.2-1.2,0.3-1.9c0.4-2.2,0.8-4.5,1-6.8c2.1,0.1,3.5,0.3,4.5,0.4c4.6,0.4,5.5,0.7,5.3,1.4c-0.1,0.5-0.9,0.9-2.7,1.5
				c-0.2,0.8-0.3,1.4-0.4,1.9c-0.3,1.2-0.6,2.4-0.8,3.5h8.4c-0.7-0.3-0.8-0.4-1.1-2.2c-0.4-2.2-0.8-3-2.6-5.3l0.5-0.6
				c6.3,1,8.5,2.2,7.9,4.5c-0.4,1.8-1.6,2.9-3.6,3.5h2.2l4.4-3.9c1.4,1.4,2.6,2.9,3.8,4.5c0.1,0.3,0.2,0.4,0.1,0.6s-0.3,0.4-0.7,0.4
				L203.7,89.9z M166.7,129.1c0.4-1.6,0.7-3.3,0.9-5c10.1,0.9,10.2,0.9,10,1.8c-0.1,0.7-0.7,0.9-2.9,1.7l-2.1,8.8
				c-0.3,1.4-0.2,1.7,0.4,1.9s3.2,0.3,7.9,0.3c8.7,0,9.5-0.1,10.7-1.4s3.8-5.2,6.6-9.9l0.7,0.2l-2.4,8.1c-0.1,0.1-0.1,0.2-0.1,0.4
				c-0.2,0.9-0.1,1.2,0.6,1.4c1.4,0.6,1.8,0.8,2,1.1c0.5,0.7,0.6,1.5,0.3,2.3c-0.5,1.9-2.1,3.4-4,3.8c-1.8,0.4-3.7,0.6-5.6,0.5
				c-2.9,0.1-9.5,0.2-11.8,0.2c-9.1,0-11.5-0.2-12.9-1.1c-1.4-0.9-1.5-1.9-1-4.1c0.2-0.7,0.3-1.1,0.4-1.6s0.1-0.4,1.1-4.5
				L166.7,129.1z M174.2,118.5c-0.4,1.5-1.2,1.9-4.8,1.9c-2.2,0-2.7-0.2-2.4-1.5c1.2-4.2,1.6-6,3-11.6c0.8-3.5,1.1-4.5,1.5-7.3
				c2.3,1,4.5,2.2,6.7,3.4h6.2c1.8-1.7,2.4-2.2,4.3-3.7c1.9,1.6,2.5,2.1,4.1,3.7c0.5,0.4,0.6,0.7,0.6,1s-0.6,0.8-2.1,1.6
				c-1.6,6.6-1.6,6.9-2.4,10.4c-0.3,1.4-1.4,1.8-5.2,1.8c-1.9,0-2.2-0.1-2-1.1l0.3-1.2h-7L174.2,118.5z M184.5,96.5
				c2.3-2.2,3-2.8,5.2-4.8c2.4,2.3,3.1,3,5.4,5.3c0.2,0.2,0.2,0.4,0.2,0.7c-0.1,0.2-0.4,0.4-0.7,0.4h-20.3c-1.2,0-2.4,0.1-3.6,0.3
				l0.2-2.3c1.2,0.4,2.5,0.5,3.8,0.5L184.5,96.5L184.5,96.5z M175.2,114.4h7.1l2.3-9.5h-7.1L175.2,114.4z M181.4,123.5
				c2.7,0.6,5.3,1.6,7.8,2.8c1.7,0.7,2.6,2.5,2.2,4.3c-0.7,2.6-2.9,4.5-5.5,4.7c-1,0-1.4-0.5-1.5-1.7c-0.4-3.4-1.5-6.7-3.4-9.5
				L181.4,123.5z M201.5,126c4.5,2.1,6.9,3.6,9,5.6s2.7,3.6,2.3,5.5c-0.8,3.2-4.2,6.6-6.8,6.6c-0.9,0-1.3-0.6-1.3-2
				c-0.2-7.2-1.1-10.8-3.8-15.3L201.5,126z"/>
			<path class="st3" d="M308.1,101.1c2.5-2.3,3.3-3,5.8-5.2c2.5,2.4,3.2,3.1,5.5,5.6c0.2,0.4,0.2,0.5,0.2,0.7
				c-0.1,0.3-0.4,0.4-0.9,0.4h-23.5l-1.6,6.6h11.5c2.2-1.8,2.8-2.3,4.8-4c1.6,1.3,3.1,2.6,4.6,4.1c0.5,0.5,0.6,0.8,0.5,1.2
				c-0.1,0.6-0.8,1-2.9,2l-3.5,14.9c-0.8,3.3-1.6,6.9-2.5,11.1c-0.7,2.9-1.5,4.2-3.2,5.2c-2.4,1.3-5.1,1.9-7.9,2
				c-0.9,0-1-0.2-0.9-1.1c0.3-2.2,0-3-1.3-4s-3.1-1.6-7.1-2.5l0.3-0.8l11.5,0.3c1.2,0,1.5-0.1,1.8-1.4l6-25.3h-12.1l-4.6,19.4h3.3
				l2.6-10.8c0.3-1.4,0.6-2.9,0.7-4.3c7.2,0.7,7.8,0.9,7.6,1.7c-0.1,0.5-0.6,0.9-2.4,1.4c-2.6,10.9-2.7,11.3-3.3,14.9
				c0,0.1,0,0.1,0,0.2c-0.3,1.1-1.3,1.4-4.6,1.4c-1.4,0-1.6-0.1-1.4-0.9l0.5-2h-12.9l-1,4.2c-0.4,1.5-1,1.8-4.4,1.8
				c-1.7,0-1.9-0.1-1.7-1.1c1.4-5.1,1.9-7.2,3.1-12c1.3-5.4,1.6-7,2-9.6c1.7,0.2,2.9,0.4,3.7,0.4c3.3,0.3,4.1,0.6,4,1.2
				s-0.6,0.9-2.4,1.5l-2.9,12h3.2l4.5-19.3h-11.9l-7.9,33.2c-0.1,0.5-0.3,0.9-0.6,1.3c-0.6,0.6-2.1,0.9-4.7,0.9
				c-2.2,0-2.5-0.2-2.2-1.4v-0.1c1.8-6.9,4.2-16.6,7.4-30c1.1-4.5,1.3-5.6,2-9.3c2.4,1.2,4.8,2.5,7.1,4h11.2l1.6-6.6h-20l-11,21.5
				c-0.6,1.1-1,2.2-1.4,3.3c-0.2,1.3-0.2,2.5,0,3.8c0.4,2.3,0.3,4.7-0.2,7c-1,4-4.8,7.4-8.5,7.4c-1.4,0-2.2-0.9-1.9-2.2
				c0-0.2,0.5-1.4,0.8-2.4c1.2-3.1,2.2-6.2,3-9.4c1.1-4.6,0.6-5.4-4-7l0.4-0.9c1.5,0.4,3,0.6,4.6,0.7c1.3,0,1.3-0.1,5.8-6.4
				c4.8-6.8,10.6-15.7,15.5-23.5l0.8,0.4l-3.3,6.4h10.7l2.3-9.6h-4.8c-1.5,0-3,0.1-4.5,0.4l0.2-2.6c1.6,0.4,3.2,0.6,4.9,0.7h4.6
				l1.1-4.6c0.4-1.7,0.7-3.5,0.9-5.3c2,0.1,3.5,0.3,4.4,0.4c5,0.5,6.1,0.8,6,1.7c-0.2,0.6-0.8,0.9-3.4,1.7l-1.5,6.1h9.2l1.2-5
				c0.4-1.6,0.7-3.2,0.9-4.8c8.2,0.8,8.8,0.9,9.6,1.2c0.5,0.2,0.7,0.5,0.6,0.9c-0.1,0.6-0.9,1-3.3,1.7l-1.4,6h2.7
				c2.5-2.2,3.4-3,5.8-5c2.3,2.4,3,3.1,5.2,5.6c0.2,0.3,0.3,0.4,0.2,0.6s-0.4,0.4-0.8,0.4h-13.5l-2.3,9.6L308.1,101.1z M252.3,97.6
				c8.2,2.2,11.2,4.5,10.4,7.7c-0.6,2.7-4.1,6-6.2,6c-1.1,0-1.6-0.7-1.7-2.5c0-3.7-1.1-7.4-3.1-10.5L252.3,97.6z M260.1,81.4
				c9,2.4,12.1,4.8,11.2,8.5c-0.6,2.7-3.8,5.6-6.1,5.6c-1,0-1.4-0.6-1.6-2.4c-0.4-3.9-1.7-7.7-4-11L260.1,81.4z M299.1,91.5h-9.2
				l-2.3,9.6h9.3L299.1,91.5z"/>
			<path class="st3" d="M353.7,135.8c2.9,0.4,5.8,0.5,8.7,0.5c7-0.1,14-0.5,21-1.4l-0.1,0.8c-2.7,1.4-4.8,3.7-5.9,6.5
				c-0.6,1.7-0.7,1.7-1.5,1.8s-4.8,0.1-6.8,0.1c-9.2,0-14.8-0.4-17.9-1.1c-6.5-1.6-10.8-5.6-13.5-12.4c-0.7-1.9-1.2-3.9-1.3-5.9
				c-2.2,3.5-4.8,6.8-7.7,9.8c-4.8,4.9-8.8,7.8-16.4,11.8l-0.4-0.6c6-5.5,9-8.9,12.4-14c3.9-5.7,7-11.9,9.2-18.4
				c0.3-0.9,0.5-1.8,0.7-2.7c2.1,0.5,3.9,1,5,1.2c4.6,1.1,5.9,1.6,5.7,2.4c-0.2,0.6-1,1-3.4,1.4c-1.9,3.7-2.7,5.1-4.2,7.5
				c0.6,1.9,1.5,3.7,2.7,5.3c1.6,2.3,3.7,4.1,6.1,5.4l7-29.6h-11.5l-0.4,1.9c-0.4,1.7-1.5,2.1-5.7,2.1c-2.8,0-3.1-0.2-2.8-1.5
				c1.9-7,2.3-8.8,3.2-12.5c1.5-6.3,2.1-9.6,2.7-13.6c3.8,1.7,4.9,2.3,8.6,4.3h27.2c2.2-1.8,2.2-1.8,5.5-4.5c2.3,1.9,3,2.5,5.2,4.5
				c0.6,0.6,0.8,0.9,0.7,1.3c-0.2,0.7-0.9,1.2-3.3,2.2c-1.6,6.8-1.9,8.1-3.7,17.2c-0.1,0.4-0.2,0.9-0.5,1.2c-0.7,0.7-2.7,1-5.8,1
				c-2.4,0-2.6-0.1-2.4-1.2l0.6-2.4h-9.6l-3.3,14h10.1c3.9-3.5,3.9-3.5,7-6.3c2.3,2.1,4.5,4.3,6.6,6.6c0.3,0.3,0.4,0.5,0.3,0.7
				s-0.4,0.4-1,0.4h-23.4L353.7,135.8z M342.1,102.7h29l3.9-16.3h-29L342.1,102.7z"/>
			<path class="st3" d="M420.2,99.6l0.5-2.1c0.4-1.6,0.6-3,1-5.6c8.5,0.7,8.8,0.7,9.5,1.1c0.2,0.2,0.3,0.4,0.3,0.7
				c-0.1,0.5-0.9,0.9-2.8,1.5l-1,4.4h11.5l0.6-2.7c0.4-1.6,0.7-3.3,0.8-5c2.2,0.2,3.8,0.3,4.9,0.4c3.9,0.3,5.1,0.7,4.9,1.4
				c-0.2,0.7-0.9,0.9-2.6,1.6l-1.1,4.4h3.4c2.6-2.6,3.4-3.2,5.9-5.6c2.8,2.5,3.6,3.3,6.1,5.9c0.3,0.4,0.4,0.5,0.3,0.7
				c-0.2,0.3-0.5,0.4-0.8,0.4h-15.3l-2.8,12.4c-0.1,0.5-0.5,0.9-0.9,1.2c-1.5,0.5-3.1,0.7-4.7,0.6c-2,0-2.4-0.3-2.2-1.5l0.5-2h-11.3
				l-0.6,2.4c-0.1,0.6-0.6,1.1-1.1,1.2c-1.6,0.4-3.2,0.6-4.9,0.5c-1.7,0-2.1-0.3-1.8-1.6c1.2-4.3,1.2-4.6,3.4-13.2h-9.8
				c-2.2,8.6-2.2,8.6-3.2,12.1c-4.6,15-10.9,24.5-21.3,32.7l-0.5-0.4c7.7-10.9,11.5-20.9,18.1-49c1.3-5.5,1.9-8.4,2.8-13.6
				c2.9,1.5,5.7,3.2,8.4,5h15.5l0.9-4c0.4-1.5,0.6-3.1,0.8-4.7c9,0.7,9.4,0.8,10.3,1.1c0.7,0.1,1,0.5,0.9,0.9c-0.1,0.7-1,1.1-3.4,2
				l-1.1,4.8h13.8c2.8-2.7,3.7-3.6,6.6-6.2c2.5,2,4.9,4.2,7.1,6.6c0.2,0.4,0.3,0.5,0.3,0.7s-0.5,0.4-1,0.4h-51.7
				c-1.5,4.5-1.5,4.5-3,10.1L420.2,99.6L420.2,99.6z M454.9,137.1c-3.5,1.4-4.9,2.9-7.4,7.5c-0.4,0.6-0.6,0.8-1,0.8
				c-2.3-0.3-4.6-0.8-6.8-1.4c-5.3-1.4-10.2-3.8-14.4-7.2c-10.7,5.2-19.8,7.9-33.5,9.6l-0.1-1c12.7-3.6,20.8-7.1,29.5-12.5
				c-3.1-3.5-5.2-7.8-6.2-12.3h-2.9c-1.7,0-3.5,0.1-5.2,0.4l0.1-2.5c1.8,0.5,3.7,0.7,5.6,0.7h24.6c1.8-1.3,3.4-2.6,5.1-3.8
				c2.6,2.2,3.4,2.9,5.6,5.1c0.4,0.6,0.6,0.9,0.5,1.3c-0.2,0.7-1.2,1.1-3.9,1.4c-3.8,3.8-8.1,7.2-12.8,10.1c7,2.1,14.2,3.1,21.4,3.1
				h2L454.9,137.1z M416.3,120.5c1.9,4,5.1,7.4,9,9.6c4.2-2.7,8.1-5.9,11.5-9.6C436.8,120.5,416.3,120.5,416.3,120.5z M425.2,110.2
				h11.5l2.2-9.1h-11.5L425.2,110.2z"/>
		</g>
	</g>
	<g>
		<path class="st3" d="M452.8,424.6l0.7,0.7l-7.5,7.5l7.5,7.5l-0.7,0.7l-7.5-7.4l-7.4,7.4l-0.7-0.7l7.5-7.5l-7.5-7.5l0.7-0.7l7.4,7.5
			L452.8,424.6z M441,432.8c0,0.9-0.7,1.6-1.6,1.6s-1.6-0.7-1.6-1.6s0.7-1.6,1.6-1.6C440.2,431.2,441,431.9,441,432.8z M447,438.9
			c0,0.9-0.7,1.6-1.6,1.6c-0.8,0-1.6-0.8-1.6-1.6c0-0.8,0.8-1.6,1.5-1.6c0,0,0,0,0.1,0l0,0l0,0C446.2,437.3,447,438,447,438.9z
			 M447,426.7c0,0.9-0.7,1.6-1.6,1.6s-1.6-0.7-1.6-1.6s0.7-1.6,1.6-1.6S447,425.8,447,426.7z M453,432.8c0,0.9-0.7,1.6-1.6,1.6
			s-1.6-0.7-1.6-1.6s0.7-1.6,1.6-1.6S453,431.9,453,432.8z"/>
		<path class="st3" d="M458.5,440.8c-1.4,0-1.7,0-2.4,0.1c0.2-1.6,0.3-1.9,0.6-2.7c0.5-1.4,1.4-2.6,2.8-3.8c0.7-0.6,1.2-1,3.3-2.4
			c2-1.3,2.7-2.2,2.7-3.5c0-1.5-1.3-2.5-3.3-2.5c-1.4,0-2.4,0.4-3,1.3c-0.4,0.5-0.5,1.1-0.7,2.1l-2.1-0.3c0.3-1.5,0.7-2.3,1.4-3.1
			c1-1.1,2.5-1.7,4.4-1.7c3.3,0,5.4,1.7,5.4,4.2c0,1-0.4,2-1,2.7c-0.7,0.8-1.2,1.3-3.6,2.9c-2.8,1.8-3.8,3-4.4,4.9h6.5
			c1.1,0,2,0,2.7-0.1v2c-0.9-0.1-1.6-0.1-2.8-0.1H458.5z"/>
		<path class="st3" d="M472.1,439.5c-0.6-0.6-1-1.3-1.3-2c-0.5-1.5-0.8-3.1-0.8-4.8c0-2.2,0.5-4.5,1.2-5.7c1-1.8,2.7-2.7,4.9-2.7
			c1.6,0,3,0.5,4,1.6c0.6,0.6,1,1.3,1.3,2c0.5,1.5,0.8,3.1,0.8,4.9c0,2.5-0.6,4.8-1.5,6.1c-1.1,1.5-2.6,2.3-4.7,2.3
			C474.5,441,473.1,440.5,472.1,439.5z M473.5,427.1c-0.4,0.5-0.8,1-0.9,1.6c-0.4,1.2-0.6,2.6-0.6,4.1c0,1.9,0.4,3.9,1,4.8
			c0.7,1.2,1.8,1.8,3.1,1.8c1,0,1.9-0.3,2.5-1c0.4-0.5,0.8-1,1-1.7c0.4-1.3,0.6-2.6,0.6-4.1c0-1.8-0.4-3.8-0.9-4.8
			c-0.7-1.3-1.7-1.9-3.2-1.9C475,426,474.2,426.3,473.5,427.1z"/>
		<path class="st3" d="M486.8,440.8c-1.4,0-1.7,0-2.4,0.1c0.2-1.6,0.3-1.9,0.6-2.7c0.5-1.4,1.4-2.6,2.8-3.8c0.7-0.6,1.2-1,3.3-2.4
			c2-1.3,2.7-2.2,2.7-3.5c0-1.5-1.3-2.5-3.3-2.5c-1.4,0-2.4,0.4-3,1.3c-0.4,0.5-0.5,1.1-0.7,2.1l-2.1-0.3c0.3-1.5,0.7-2.3,1.4-3.1
			c1-1.1,2.5-1.7,4.4-1.7c3.3,0,5.4,1.7,5.4,4.2c0,1-0.4,2-1,2.7c-0.7,0.8-1.2,1.3-3.6,2.9c-2.8,1.8-3.8,3-4.4,4.9h6.5
			c1.1,0,2,0,2.7-0.1v2c-0.9-0.1-1.6-0.1-2.8-0.1H486.8z"/>
		<path class="st3" d="M502.2,439.5c-0.6-0.6-1-1.3-1.3-2c-0.5-1.5-0.8-3.1-0.8-4.8c0-2.2,0.5-4.5,1.2-5.7c1-1.8,2.7-2.7,4.9-2.7
			c1.6,0,3,0.5,4,1.6c0.6,0.6,1,1.3,1.3,2c0.5,1.5,0.8,3.1,0.8,4.9c0,2.5-0.6,4.8-1.5,6.1c-1.1,1.5-2.6,2.3-4.7,2.3
			C504.5,441,503.2,440.5,502.2,439.5z M503.6,427.1c-0.4,0.5-0.8,1-0.9,1.6c-0.4,1.2-0.6,2.6-0.6,4.1c0,1.9,0.4,3.9,1,4.8
			c0.7,1.2,1.8,1.8,3.1,1.8c1,0,1.9-0.3,2.5-1c0.4-0.5,0.8-1,1-1.7c0.4-1.3,0.6-2.6,0.6-4.1c0-1.8-0.4-3.8-0.9-4.8
			c-0.7-1.3-1.7-1.9-3.2-1.9C505.1,426,504.3,426.3,503.6,427.1z"/>
		<path class="st3" d="M523,431.5c0-0.5,0-0.8-0.1-1.2c0.4,0,0.9,0.1,1.5,0.1h4.6v-3.2h-4.8c-1.1,1.8-2.1,3-3.5,4.3
			c-0.4-0.6-0.6-0.9-1.2-1.3c2.1-1.8,3.2-3.3,4.2-5.5c0.3-0.6,0.4-1.1,0.5-1.5l1.8,0.4c-0.1,0.2-0.1,0.3-0.3,0.6
			c-0.1,0.3-0.1,0.3-0.5,1c-0.2,0.4-0.2,0.4-0.3,0.6h10.2c0.9,0,1.4,0,2-0.1v1.7c-0.6-0.1-1-0.1-2-0.1h-4.6v3.2h3.7
			c0.9,0,1.4,0,2-0.1v1.6c-0.5-0.1-1.1-0.1-1.9-0.1h-3.7v3.9h5.2c0.9,0,1.6,0,2.2-0.1v1.8c-0.7-0.1-1.3-0.1-2.2-0.1h-5.2v3.2
			c0,0.9,0,1.5,0.1,2h-1.9c0.1-0.6,0.1-1,0.1-2.1v-3.2h-7.4c-0.9,0-1.5,0-2.2,0.1v-1.8c0.6,0.1,1.3,0.1,2.2,0.1h1.4v-4.2H523z
			 M529,435.6v-3.9h-4.4v3.9H529z"/>
		<path class="st3" d="M547.3,436.7c0.3,1,0.6,1.5,1.2,1.9c0.7,0.5,1.6,0.8,2.7,0.8c2.3,0,3.8-1.2,3.8-3.1c0-2-1.4-3.1-4.1-3.1
			c-0.6,0-1.2,0-1.8,0.1v-1.9c0.5,0.1,1,0.1,1.7,0.1c1.3,0,2.3-0.3,3-0.9c0.5-0.5,0.8-1.2,0.8-2c0-1.6-1.2-2.6-3.2-2.6
			c-1.3,0-2.1,0.4-2.7,1.1c-0.3,0.4-0.4,0.7-0.7,1.4l-2.1-0.4c0.4-1.1,0.7-1.6,1.2-2.2c1-1,2.5-1.5,4.3-1.5c3.1,0,5.2,1.7,5.2,4.2
			c0,1.3-0.5,2.4-1.5,3.1c-0.5,0.4-1,0.5-2,0.8c1.4,0.2,2.3,0.5,3,1.3c0.7,0.7,1,1.7,1,2.9c0,1.2-0.4,2.3-1.2,3
			c-1.1,1-2.7,1.6-4.7,1.6c-2.2,0-3.9-0.6-4.9-1.8c-0.5-0.6-0.7-1-1.1-2.1L547.3,436.7z"/>
		<path class="st3" d="M569.3,435.5c-0.2,1.1-0.4,2.1-0.8,3c-0.5,1.4-1.2,2.5-2.4,3.8c-0.4-0.5-0.8-0.9-1.4-1.3
			c1.3-1.3,1.9-2.3,2.4-4c0.6-2,0.8-4.5,0.8-9.4c0-1.8,0-2.7-0.1-3.5c0.8,0.1,1.3,0.1,2.3,0.1h8.1c1,0,1.5,0,2.2-0.1
			c-0.1,0.6-0.1,1.1-0.1,2.2V440c0,0.9-0.2,1.4-0.6,1.7c-0.4,0.2-0.9,0.3-2.1,0.3c-0.6,0-1.3,0-2.3-0.1c-0.1-0.7-0.2-1-0.4-1.7
			c1.1,0.2,2,0.2,2.9,0.2c0.7,0,0.9-0.1,0.9-0.6v-4.3H569.3z M578.9,433.9v-3.5h-9.2c0,0.9-0.1,1.8-0.2,3.5H578.9z M578.9,428.9v-3.2
			h-9.2v3.2H578.9z"/>
		<path class="st3" d="M585.6,436.4c1.8,1.4,2.9,2.5,4.4,4.5l-1.4,1.4c-1.4-2-2.6-3.3-4.3-4.6L585.6,436.4z"/>
		<path class="st3" d="M606.7,428.3v-2c0-1.5,0-1.6-0.1-2.1h2c-0.1,0.5-0.1,0.5-0.1,2c0,0.4,0,0.4,0,2.1h1.7c1.3,0,1.8,0,2.5-0.1v1.9
			c-0.7-0.1-1.3-0.1-2.5-0.1h-1.7c0,2.5-0.1,3-0.2,3.8c-0.3,2.6-1.2,4.3-3,5.8c-1,0.9-2,1.4-3.9,2.1c-0.3-0.7-0.5-0.9-1.1-1.6
			c1.9-0.5,2.9-1.1,4-2c1.4-1.3,2-2.7,2.2-5.2c0-0.6,0.1-1.3,0.1-2.9h-6.1v3c0,1,0,1.6,0.1,2.1h-2c0.1-0.5,0.1-1.2,0.1-2.1v-3h-1.6
			c-1.2,0-1.7,0-2.5,0.1v-1.9c0.8,0.1,1.2,0.1,2.5,0.1h1.6v-2.2c0-0.8,0-1.5-0.1-2h2c-0.1,0.5-0.1,1.1-0.1,1.9v2.2h6.2V428.3z"/>
		<path class="st3" d="M619.7,431.4l-0.2,0.6c-0.9,3.4-1.9,5.7-3.7,8c-0.7-0.5-0.9-0.7-1.7-1c1.4-1.4,2.2-2.9,3-5.3
			c0.4-1.2,0.6-2,0.7-2.8L619.7,431.4z M622.4,426.1c0-1.1,0-1.6-0.1-2.2h2.1c-0.1,0.6-0.1,1.1-0.1,2.2v1.3h5.1c1.3,0,1.9,0,2.6-0.1
			v1.9c-0.8-0.1-1.3-0.1-2.5-0.1h-5.1v10.2c0,1.3,0,1.7,0.1,2.4h-2.1c0.1-0.6,0.1-1.2,0.1-2.4v-10.2h-5c-1.2,0-1.7,0-2.5,0.1v-1.9
			c0.7,0.1,1.3,0.1,2.5,0.1h5L622.4,426.1L622.4,426.1z M628.7,430.9c0.1,0.7,0.3,1.2,0.8,2.4c0.9,2.5,1.8,4,3.2,5.6
			c-0.7,0.4-1,0.5-1.6,1.1c-1.4-2-2.2-3.6-3.2-6.3c-0.2-0.6-0.4-1.2-0.6-1.8c-0.1-0.3-0.1-0.4-0.2-0.6L628.7,430.9z M629,423.1
			c1,1.2,1.5,1.9,2.2,3.3L630,427c-0.7-1.3-1.3-2.4-2.2-3.3L629,423.1z M631.7,422.3c1,1.2,1.4,1.8,2.2,3.2l-1.2,0.7
			c-0.6-1.2-1.2-2.2-2.2-3.3L631.7,422.3z"/>
		<path class="st3" d="M635,438.7c1.7-0.1,4.2-0.7,6.2-1.6c4-1.8,6.8-4.8,8.5-9.3c0.6,0.7,0.8,1,1.6,1.4c-1.7,3.7-3.7,6.2-6.5,8.1
			c-2.1,1.5-4.5,2.4-7.9,3.1c-0.7,0.1-0.8,0.2-1.3,0.3L635,438.7z M636.4,425.7c2.3,1.5,3.6,2.5,5.2,4l-1.3,1.6
			c-1.6-1.7-3.3-3-5.1-4.2L636.4,425.7z"/>
		<path class="st3" d="M663,432.8c-1.3,0-1.9,0-2.6,0.1V431c0.8,0.1,1.3,0.1,2.6,0.1h4V427h-2.8c-1.3,0-1.8,0-2.6,0.1v-1.9
			c0.7,0.1,1.2,0.1,2.6,0.1h9.4c1.3,0,1.8,0,2.6-0.1v1.9c-0.7-0.1-1.3-0.1-2.6-0.1h-4.8v4.2h6.1c1.3,0,1.8,0,2.6-0.1v1.9
			c-0.7-0.1-1.4-0.1-2.6-0.1h-6.2v3.9c0,1.4,0.1,1.8,0.7,2c0.5,0.2,1.3,0.3,2.5,0.3c0.6,0,1.8-0.1,3-0.2c0.8-0.1,1.2-0.1,1.8-0.3v1.9
			c-0.1,0-0.2,0-0.3,0c-0.2,0-0.4,0-0.8,0c-1.6,0.1-2.8,0.2-4.1,0.2c-3.8,0-4.7-0.7-4.7-3.4v-4.5H663z"/>
		<path class="st3" d="M680.7,431.7c0.7,0.1,1.4,0.1,2.9,0.1h11.8c1.7,0,2.1,0,2.8-0.1v2.1c-0.8-0.1-1.4-0.1-2.9-0.1h-11.8
			c-1.7,0-2.2,0-2.9,0.1v-2.1H680.7z"/>
		<path class="st3" d="M714.5,427.4c1.3,0,1.4,0,1.8-0.1l1,0.9c-0.2,0.3-0.2,0.3-0.5,2.2c-0.9,5.6-4.1,9.2-10.1,11.2
			c-0.3-0.8-0.5-1-1.2-1.7c2-0.5,3.2-1,4.6-2c2.9-2,4.5-4.8,4.9-8.9h-11v2.8c0,0.7,0,1.4,0.1,1.8h-2c0.1-0.5,0.1-1.1,0.1-1.8v-2.7
			c0-0.7,0-1.2-0.1-1.8c0.7,0.1,1.1,0.1,2,0.1h4.3v-1.8c0-0.8,0-1.1-0.1-1.6h2.1c-0.1,0.4-0.1,0.9-0.1,1.6v1.8H714.5z M715.1,423
			c1,1.2,1.5,1.9,2.2,3.3L716,427c-0.7-1.3-1.3-2.4-2.2-3.3L715.1,423z M717.8,422.3c1,1.2,1.4,1.8,2.2,3.2l-1.2,0.7
			c-0.6-1.2-1.2-2.2-2.2-3.3L717.8,422.3z"/>
		<path class="st3" d="M726.4,426.4c0.7-1.5,0.9-2.1,0.9-2.8l2,0.3c-0.2,0.3-0.2,0.3-0.5,1.1c-0.3,0.7-0.5,1.2-0.6,1.4
			c0.1,0,0.1,0,1.3-0.1c2.6-0.1,4.6-0.4,5.7-0.7l0.1,1.7c-0.4,0-0.4,0-1.6,0.2c-1.4,0.2-4.1,0.4-6.2,0.4c-0.6,1.1-1,1.8-1.7,2.7
			c-0.2,0.3-0.6,0.7-0.7,0.8c-0.1,0.1-0.2,0.1-0.2,0.2l0,0v0.1c0.1-0.1,0.2-0.2,0.3-0.2c0.4-0.3,0.5-0.4,0.7-0.5
			c0.9-0.6,1.9-0.9,2.9-0.9c1.6,0,2.5,0.8,2.8,2.3c1.6-0.6,2.5-0.9,3.5-1.3c1.1-0.4,1.1-0.4,1.5-0.6l0.8,1.7
			c-1.1,0.2-2.8,0.7-5.6,1.8c0,0.7,0,0.8,0,1.2c0,0.2,0,0.7,0,1.1s0,0.7,0,0.9c0,0.4,0,0.5,0,0.9h-1.7c0.1-0.4,0.1-1.7,0.1-2.8
			c0-0.3,0-0.4,0-0.7c-1.3,0.6-2,1-2.5,1.4c-0.9,0.7-1.2,1.3-1.2,2c0,1.3,1.2,1.9,4.2,1.9c2.1,0,4.5-0.3,5.7-0.8l0.2,1.9
			c-0.3,0-0.4,0-0.9,0.1c-1.6,0.3-3.5,0.4-5.2,0.4c-2,0-3.3-0.3-4.3-0.8c-0.9-0.5-1.4-1.4-1.4-2.5c0-1.2,0.7-2.3,2.2-3.4
			c0.8-0.6,1.7-1,3.1-1.7c-0.1-1-0.6-1.5-1.6-1.5c-1.3,0-2.9,0.8-4.6,2.2c-0.8,0.7-1.3,1.2-1.7,1.8l-1.4-1.4c1.4-1.1,3.2-3.3,4.6-5.8
			c0.1-0.1,0.1-0.1,0.2-0.3c-0.1,0-0.3,0-0.4,0c-0.4,0-2.5,0-2.9-0.1c-0.2,0-0.3,0-0.4,0c-0.1,0-0.2,0-0.4,0v-1.7
			c0.9,0.2,2.2,0.3,4.5,0.3h0.4V426.4z"/>
		<path class="st3" d="M745.7,428.2c-1.8,1.3-3.3,2.2-5.2,3.1c-0.4-0.7-0.5-0.9-1-1.4c3.8-1.5,6.9-3.8,8.9-6.5h1.7
			c1.4,1.7,2.6,2.8,4.7,4.2c1.6,1,2.9,1.6,4.5,2.2c-0.4,0.5-0.7,0.9-1,1.5c-2-0.9-3.4-1.7-5.2-3v1.4c-0.5-0.1-1-0.1-1.8-0.1h-3.9
			c-0.8,0-1.3,0-1.8,0.1L745.7,428.2L745.7,428.2z M754.8,435.2c0.7,0,1.1,0,1.5-0.1c-0.1,0.5-0.1,1-0.1,1.7v3.8c0,0.6,0,1.2,0.1,1.8
			h-1.7v-0.9h-10.5v0.9h-1.7c0.1-0.6,0.1-1.2,0.1-1.8v-3.8c0-0.6,0-1.1-0.1-1.6c0.5,0.1,0.9,0.1,1.6,0.1h6.1l3.2-2.7h-8.8
			c-0.8,0-1.4,0-2,0.1V431c0.5,0.1,1,0.1,1.8,0.1h8.9c0.9,0,1.3,0,1.7-0.1l1,1c-0.1,0.1-0.1,0.1-0.3,0.2c0,0,0,0-0.6,0.5l-2.9,2.5
			H754.8z M744.1,440h10.5v-3.3h-10.5V440z M751.4,428.2c0.7,0,1.2,0,1.6-0.1c-1.6-1.1-2.5-2.1-3.7-3.4c-1.3,1.6-2.2,2.4-3.5,3.4
			c0.5,0.1,0.9,0.1,1.7,0.1H751.4z"/>
		<path class="st3" d="M761.4,426.7c0.6,0.1,1.2,0.2,2.7,0.2c0.3,0,0.6,0,1.2,0c0-0.8,0-1.4,0-1.6c0-0.7,0-0.9-0.1-1.4h1.9
			c-0.1,0.6-0.1,0.6-0.2,2.8c1.5-0.1,3-0.4,3.8-0.7l0.1,1.7c-0.2,0-0.3,0-0.6,0.1c-1.2,0.2-2.3,0.4-3.3,0.4c0,1.5,0,2.4,0,2.6
			c0.7,0.5,0.9,1.2,0.9,2.1c0,0.7-0.1,1.3-0.4,1.9c-0.1,0.3-0.2,0.4-0.7,1.2c-0.6,0.9-0.8,1.6-0.8,2.2c0,0.5,0.3,0.8,0.8,1
			c0.6,0.2,1.6,0.4,3,0.4c1.7,0,3.5-0.3,4.3-0.6c0.8-0.4,1.2-0.8,1.2-1.7c0-1-0.5-2.7-1.2-3.9c0.8,0.2,1.1,0.3,2,0.4
			c0.6,1.5,0.9,2.8,0.9,3.8c0,1.2-0.5,2.1-1.4,2.6c-0.8,0.5-1.6,0.7-3,0.9c-0.9,0.1-1.9,0.2-2.9,0.2c-3.8,0-5.5-0.8-5.5-2.8
			c0-0.8,0.2-1.4,0.8-2.2l0,0c-0.3,0.2-0.6,0.3-1,0.3c-1.4,0-2.4-1.2-2.4-2.9c0-2,1.5-3.5,3.4-3.5c0.1,0,0.2,0,0.4,0c0-0.3,0-0.3,0-1
			c0-0.2,0-0.4,0-1c-0.8,0-0.8,0-1.6,0c-0.7,0-1.1,0-1.6,0c-0.2,0-0.3,0-0.4,0c-0.1,0-0.2,0-0.3,0L761.4,426.7L761.4,426.7z
			 M764.8,431.7c-0.9,0-1.8,0.9-1.8,2c0,1,0.5,1.6,1.3,1.6c1,0,1.8-0.9,1.8-2.1C766.2,432.2,765.8,431.8,764.8,431.7L764.8,431.7z
			 M773.9,425.8c2,1.3,3.3,2.6,4.8,4.4l-1.4,1.2c-1.1-1.7-3-3.5-4.7-4.6L773.9,425.8z"/>
		<path class="st3" d="M789.4,430.8h-3.5c-0.9,0-1.5,0-2.1,0.1v-1.7c0.5,0.1,1.2,0.1,2.1,0.1h8.5c0.9,0,1.5,0,2.1-0.1v1.7
			c-0.6-0.1-1.2-0.1-2.1-0.1H791v3.2h4c0.9,0,1.5,0,2-0.1v1.7c-0.6-0.1-1.2-0.1-2-0.1h-4v4.4c1,0.1,2,0.2,3.4,0.2
			c1.6,0,3-0.1,4.9-0.2c-0.3,0.6-0.4,1-0.5,1.7c-1.6,0.1-2.1,0.1-4.1,0.1c-5.1,0-8-1.2-9.6-4c-0.8,1.9-1.6,3-3.1,4.6
			c-0.4-0.5-0.6-0.7-1.3-1.2c1.4-1.3,2.1-2.2,2.8-3.7c0.7-1.4,1.3-3.7,1.3-4.8v-0.1l1.7,0.3c-0.1,0.3-0.1,0.3-0.3,1.1
			c0,0.3-0.3,1.3-0.6,2.1c0.9,1.8,1.9,2.7,3.7,3.4L789.4,430.8L789.4,430.8z M789,424.6c0-0.5,0-0.8-0.1-1.3h1.9
			c-0.1,0.4-0.1,0.8-0.1,1.3v0.9h6c0.8,0,1.4,0,2.2-0.1c-0.1,0.5-0.1,0.9-0.1,1.4v1.4c0,0.6,0,1.1,0.1,1.5h-1.6v-2.9h-14.4v2.9h-1.7
			c0.1-0.5,0.1-0.9,0.1-1.6V427c0-0.5,0-1.1-0.1-1.4c0.7,0.1,1.3,0.1,2.2,0.1h5.6L789,424.6L789,424.6z"/>
		<path class="st3" d="M803.6,425.4c0-0.8,0-1.4-0.1-1.9h1.7c-0.1,0.5-0.1,1.1-0.1,2v0.4h3.6v-0.4c0-0.9,0-1.4-0.1-1.9h1.7
			c-0.1,0.5-0.1,1.1-0.1,2v0.4c0.7,0,1.3,0,1.7-0.1v1.6c-0.4-0.1-0.9-0.1-1.7-0.1v8.7c0.7,0,1.2,0,1.6-0.1v1.5c-0.5,0-1-0.1-1.9-0.1
			h-6.7c-0.8,0-1.2,0-1.7,0.1v-1.6c0.4,0.1,0.8,0.1,1.7,0.1h0.5v-8.7c-1,0-1.4,0-1.8,0.1v-1.6c0.4,0.1,0.9,0.1,1.7,0.1h0.1v-0.5
			H803.6z M806,438.6c-1.1,1.7-1.7,2.4-3.3,3.7c-0.3-0.5-0.6-0.8-1.2-1.2c1.6-1.1,2.3-1.8,3.1-3.3L806,438.6z M808.7,429.1v-2H805v2
			H808.7z M808.7,432.4v-2H805v2H808.7z M808.7,435.9v-2.2H805v2.2H808.7z M808.6,437.8c0.7,1,1,1.4,2,2.2c-0.5,0.4-0.7,0.6-1.1,1.1
			c-0.9-0.8-1.4-1.4-2.1-2.5L808.6,437.8z M814,435.6c-0.2,3-0.9,4.8-2.4,6.8c-0.5-0.6-0.7-0.8-1.3-1.2c1.2-1.3,1.7-2.5,2-4.5
			c0.3-1.7,0.4-5.2,0.4-10c0-1.4,0-1.9-0.1-2.5c0.6,0.1,1.1,0.1,2.1,0.1h2.9c1,0,1.4,0,2.1-0.1c-0.1,0.5-0.1,1.1-0.1,2.1v14.1
			c0,1.4-0.5,1.8-2.4,1.8c-0.4,0-0.6,0-1.6-0.1c-0.1-0.7-0.1-1-0.4-1.7c0.9,0.2,1.6,0.3,2.2,0.3c0.5,0,0.7-0.1,0.7-0.5v-4.6
			L814,435.6L814,435.6z M814.2,430.6c0,1.2-0.1,2.5-0.1,3.6h4v-3.6H814.2z M818.1,425.8h-3.9v2.8c0,0.3,0,0.4,0,0.6h3.9V425.8z"/>
		<path class="st3" d="M826,440c0,1,0,1.7,0.1,2.5h-1.8c0.1-0.7,0.1-1.5,0.1-2.6v-6.7c0-1.2,0-1.5,0.1-2.5c-0.5,1.1-1,1.8-1.8,2.8
			c-0.3-0.8-0.4-0.9-0.9-1.5c1.4-1.6,2.5-3.5,3.4-5.9c0.5-1.3,0.7-2,0.8-3l1.6,0.5c-0.1,0.3-0.3,0.7-0.4,1.2
			c-0.3,0.9-0.7,2.1-1.3,3.4V440H826z M829.9,425.8c-0.9,0-1.4,0-2,0.1v-1.6c0.6,0.1,1.3,0.1,2.1,0.1h9.2c0.8,0,1.6,0,2.2-0.1v1.6
			c-0.5-0.1-1.2-0.1-2-0.1H835v1.9h3.5c0.8,0,1.3,0,1.9-0.1c-0.1,0.6-0.1,1.1-0.1,2.2v3.6c0,1.1,0,1.6,0.1,2.2
			c-0.5-0.1-1-0.1-1.7-0.1h-4.1c-0.3,1.2-0.6,2.1-1.2,3c2.2,1.2,5.1,1.8,8.4,1.8c-0.3,0.5-0.4,0.9-0.6,1.7c-3.8-0.3-6.2-0.9-8.7-2.4
			c-1.2,1.1-2.7,1.9-4.8,2.6c-0.2-0.5-0.4-0.9-0.7-1.4c2-0.5,3.1-1,4.3-2c-0.4-0.3-0.5-0.4-0.8-0.7c-0.1-0.1-0.1-0.1-0.7-0.6
			c-0.2-0.2-0.3-0.3-0.7-0.6l1.3-0.9c0.5,0.5,1.1,1.1,1.9,1.6c0.4-0.7,0.7-1.2,0.9-2.2h-3.3c-0.6,0-1,0-1.5,0.1
			c0.1-0.6,0.1-1.1,0.1-2.1v-3.8c0-0.9,0-1.4-0.1-2.1c0.5,0.1,1.1,0.1,1.9,0.1h3.3v-1.9L829.9,425.8L829.9,425.8z M829.8,429v1.8h3.6
			c0-0.7,0-0.8,0-1.8H829.8z M829.8,432.1v2h3.4c0.1-0.7,0.1-1.1,0.1-2H829.8z M834.9,432.1c0,0.9-0.1,1.4-0.1,2h4.1v-2H834.9z
			 M835,429c0,0.7,0,0.9,0,1.8h3.8V429H835z"/>
		<path class="st3" d="M849.3,426.4c0.7-1.5,0.9-2.1,0.9-2.8l2,0.3c-0.2,0.3-0.2,0.3-0.5,1.1c-0.3,0.7-0.5,1.2-0.6,1.4
			c0.1,0,0.1,0,1.3-0.1c2.6-0.1,4.6-0.4,5.7-0.7l0.1,1.7c-0.4,0-0.4,0-1.6,0.2c-1.4,0.2-4.1,0.4-6.2,0.4c-0.6,1.1-1,1.8-1.7,2.7
			c-0.2,0.3-0.6,0.7-0.7,0.8c-0.1,0.1-0.2,0.1-0.2,0.2l0,0v0.1c0.1-0.1,0.2-0.2,0.3-0.2c0.4-0.3,0.5-0.4,0.7-0.5
			c0.9-0.6,1.9-0.9,2.9-0.9c1.6,0,2.5,0.8,2.8,2.3c1.6-0.6,2.5-0.9,3.5-1.3c1.1-0.4,1.1-0.4,1.5-0.6l0.8,1.7
			c-1.1,0.2-2.8,0.7-5.6,1.8c0,0.7,0,0.8,0,1.2c0,0.2,0,0.7,0,1.1s0,0.7,0,0.9c0,0.4,0,0.5,0,0.9H853c0.1-0.4,0.1-1.7,0.1-2.8
			c0-0.3,0-0.4,0-0.7c-1.3,0.6-2,1-2.5,1.4c-0.9,0.7-1.2,1.3-1.2,2c0,1.3,1.2,1.9,4.2,1.9c2.1,0,4.5-0.3,5.7-0.8l0.2,1.9
			c-0.3,0-0.4,0-0.9,0.1c-1.6,0.3-3.5,0.4-5.2,0.4c-2,0-3.3-0.3-4.3-0.8c-0.9-0.5-1.4-1.4-1.4-2.5c0-1.2,0.7-2.3,2.2-3.4
			c0.8-0.6,1.7-1,3.1-1.7c-0.1-1-0.6-1.5-1.6-1.5c-1.3,0-2.9,0.8-4.6,2.2c-0.8,0.7-1.3,1.2-1.7,1.8l-1.4-1.4c1.4-1.1,3.2-3.3,4.6-5.8
			c0.1-0.1,0.1-0.1,0.2-0.3c-0.1,0-0.3,0-0.4,0c-0.4,0-2.5,0-2.9-0.1c-0.2,0-0.3,0-0.4,0c-0.1,0-0.2,0-0.4,0v-1.7
			c0.9,0.2,2.2,0.3,4.5,0.3h0.4V426.4z"/>
		<path class="st3" d="M877.5,440c-0.3,0-0.4,0-0.8,0.1c-2,0.3-3.9,0.5-5.6,0.5c-2.1,0-3.9-0.3-5-0.7c-1.6-0.7-2.5-1.7-2.5-3.3
			c0-1.4,0.8-2.7,2.5-4.2l1.3,1c-1.3,1.1-2,2.1-2,3s0.6,1.6,1.7,1.9c0.8,0.2,2.1,0.4,3.8,0.4c2.6,0,5.1-0.3,6.3-0.8L877.5,440z
			 M864.9,425.4c1.4,0.3,3.2,0.5,5.6,0.5c2.6,0,4.3-0.1,5.5-0.4l0.1,1.7c-1.3,0.5-3.3,1.7-5.4,3.3l-1.3-1c1.4-0.9,1.7-1.1,2.6-1.6
			c0.2-0.1,0.3-0.1,0.5-0.3l0.4-0.2c-1.2,0.2-2,0.2-3.1,0.2c-1.4,0-3.2-0.1-4.4-0.3c-0.4,0-0.4,0-0.7-0.1L864.9,425.4z M875.5,429.2
			c1,1.2,1.5,1.9,2.2,3.3l-1.2,0.7c-0.7-1.3-1.3-2.4-2.2-3.3L875.5,429.2z M877.9,428.1c1,1.2,1.4,1.8,2.2,3.2l-1.2,0.7
			c-0.6-1.2-1.2-2.2-2.2-3.3L877.9,428.1z"/>
		<path class="st3" d="M885.8,426.2c-1.4,0.3-1.9,0.4-3.4,0.7c-0.2-0.6-0.3-0.9-0.7-1.4c2.5-0.3,4.1-0.7,6.4-1.4
			c0.9-0.3,1.2-0.5,1.6-0.7l1.1,1.3c-0.2,0.1-0.2,0.1-0.9,0.3c-0.9,0.3-1.6,0.5-2.6,0.8v3.1h1.9c0.8,0,1.3,0,1.8-0.1v1.6
			c-0.5-0.1-1-0.1-1.8-0.1h-1.8c0.8,1.7,1.7,2.8,3.5,4.5c-0.4,0.5-0.6,0.8-0.9,1.4c-1.5-1.6-2.1-2.4-2.8-4c0.1,0.8,0.1,2.1,0.1,3.4
			v4.2c0,1.3,0,2,0.1,2.6h-1.8c0.1-0.8,0.1-1.4,0.1-2.6v-4c0-1.2,0-2.2,0.1-3.3c-1,2.7-2,4.3-3.8,6.2c-0.3-0.7-0.6-1.1-0.9-1.5
			c1.1-1.1,1.8-2,2.7-3.3c0.6-1.1,1.3-2.4,1.6-3.4h-1.8c-0.8,0-1.4,0-2,0.1v-1.7c0.5,0.1,1,0.1,2,0.1h2.1v-2.8H885.8z M894.3,424.6
			c-0.1,0.7-0.1,1.2-0.1,2.5v8c0,1.4,0,1.8,0.1,2.5h-1.8c0.1-0.6,0.1-1,0.1-2.4v-8.1c0-1.2,0-1.8-0.1-2.5H894.3z M899.5,423.4
			c-0.1,0.8-0.1,1.5-0.1,2.7v13.7c0,1.6-0.6,2-2.9,2c-0.4,0-1,0-2-0.1c-0.1-0.7-0.2-1-0.5-1.7c0.3,0,0.5,0.1,0.6,0.1
			c0.7,0.1,1.5,0.1,2.2,0.1c0.8,0,1-0.1,1-0.6V426c0-1.2,0-2-0.1-2.7h1.8V423.4z"/>
		<path class="st3" d="M912.4,439.3c0,1.1,0,1.8,0.1,2.4h-1.8c0.1-0.6,0.1-1.2,0.1-2.3v-3.8h-5.5c-0.3,3-0.8,4.6-2.2,6.8
			c-0.6-0.5-0.8-0.7-1.4-1.1c1.9-2.6,2.3-4.9,2.3-14.6c0-1.1,0-1.7-0.1-2.5c0.6,0.1,1.2,0.1,2.3,0.1h11.4c1.1,0,1.7,0,2.3-0.1
			c-0.1,0.6-0.1,1.1-0.1,2.1v14c0,1.4-0.5,1.8-2.7,1.8c-0.7,0-1.6,0-2.5-0.1c-0.1-0.6-0.1-0.9-0.4-1.6c1.2,0.1,2.1,0.2,2.9,0.2
			c1,0,1.1-0.1,1.1-0.6v-4.5h-5.9v3.8H912.4z M905.5,430.5c0,0.6,0,1.1,0,1.4c0,1.1,0,1.1-0.1,2.1h5.4v-3.4h-5.3V430.5z M910.9,425.7
			h-5.3v2.4v1h5.3V425.7z M918.3,429.1v-3.4h-5.9v3.4H918.3z M912.4,434h5.9v-3.4h-5.9V434z"/>
		<path class="st3" d="M935.1,438.2c2.1-1.1,3.3-3.2,3.3-5.6c0-2.3-1.1-4.1-3.1-5.1c-0.7-0.4-1.3-0.5-2.4-0.6
			c-0.4,3.1-1.1,6.2-2.1,8.4c-1.2,2.8-2.5,4-4,4c-2.1,0-3.7-2.2-3.7-5.3c0-2.2,0.8-4.3,2.2-5.9c1.7-1.9,4.1-2.8,6.9-2.8
			c4.8,0,7.9,2.9,7.9,7.4c0,3.3-1.7,5.9-4.6,7.3c-1,0.5-1.9,0.8-3.5,1.1c-0.3-0.8-0.4-1.1-0.9-1.7C933,439.1,934.1,438.8,935.1,438.2
			z M928.1,428c-2,1.3-3.3,3.6-3.3,6.1c0,1.9,0.8,3.4,1.9,3.4c0.8,0,1.6-1,2.5-2.9c0.8-2,1.6-5,1.9-7.6
			C929.9,427.1,929.1,427.4,928.1,428z"/>
		<path class="st3" d="M447.6,460.5c-0.4,0.1-0.5,0.1-1.2,0.2c-1.3,0.3-2.1,0.4-3.1,0.5v3.4c1.7-0.5,3-0.7,4.5-0.7s2.8,0.3,3.8,0.9
			c1.4,0.9,2.2,2.3,2.2,3.8c0,2.5-1.9,4.5-4.4,4.5c-1.7,0-2.9-0.8-3.3-2.4c-0.2-0.7-0.3-1.3-0.3-2.5c0.8-0.2,1-0.3,1.7-0.7
			c0,0.4,0,0.6,0,0.8c0,0.8,0.1,1.6,0.3,2c0.3,0.7,0.9,1.1,1.8,1.1c1.5,0,2.6-1.2,2.6-2.8c0-2-1.7-3.3-4.3-3.3
			c-1.3,0-2.6,0.2-4.3,0.8v4.4c0,0.9,0,1.2-0.1,1.5c-0.2,0.7-0.8,1-1.6,1c-1.2,0-2.6-0.5-3.6-1.4c-0.7-0.6-1-1.3-1-2.1
			c0-0.9,0.6-1.9,1.7-2.9c0.8-0.7,1.6-1.2,3-1.7v-3.8c-0.2,0-0.2,0-0.8,0c-0.3,0-0.7,0-1.2,0c-0.3,0-0.9,0-1.2,0c-0.2,0-0.4,0-0.5,0
			s-0.2,0-0.4,0v-1.7c0.6,0.1,1.2,0.2,2.3,0.2c0.5,0,0.5,0,1.9-0.1v-1.9c0-0.9,0-1.5-0.1-2.1h1.9c-0.1,0.6-0.1,1-0.1,2v1.8
			c1.5-0.1,3.1-0.5,4.2-0.9L447.6,460.5z M441.7,466.7c-2,1-3,2.1-3,3c0,0.4,0.3,0.8,0.8,1.2c0.5,0.3,1.2,0.6,1.7,0.6
			c0.4,0,0.5-0.2,0.5-1V466.7z M453.3,462.7c-1.1-1.6-2.6-3.1-4.2-4.2l1.3-1c1.9,1.4,3,2.4,4.2,4.1L453.3,462.7z"/>
		<path class="st3" d="M460.1,469.5c0-0.5,0-0.8,0-1.2c-1,0.3-1.5,0.4-2.8,0.8c-0.2-0.6-0.4-1-0.8-1.5c3.1-0.5,5.8-1.4,8.4-2.9
			c-1-0.7-1.7-1.3-2.6-2.2c-1.2,1.1-2,1.6-3.9,2.7c-0.4-0.6-0.5-0.8-1-1.2c2.5-1.2,3.9-2.2,5.5-3.9c0.5-0.6,0.8-1,1-1.5l1.6,0.5
			c-0.1,0.1-0.1,0.1-0.3,0.4c-0.1,0.1-0.2,0.3-0.6,0.7h4.4c0.9,0,1.4,0,1.9-0.1l1,0.9c-0.1,0.1-0.2,0.2-0.4,0.4
			c-1.1,1.2-2.5,2.4-3.8,3.3c2.4,1.3,4.8,2.1,8.3,2.6c-0.3,0.5-0.5,0.9-0.7,1.6c-1.3-0.3-1.7-0.4-2.8-0.7c0,0.4,0,0.7,0,1.2v2.9
			c0,0.8,0,1.3,0.1,1.8h-1.7v-0.8h-9v0.8H460c0.1-0.6,0.1-1.2,0.1-1.9V469.5z M465.1,456.7c0-0.5,0-0.9-0.1-1.5h1.9
			c-0.1,0.4-0.1,1-0.1,1.5v0.5h5.8c1,0,1.6,0,2.4-0.1c-0.1,0.4-0.1,0.8-0.1,1.5v1.4c0,0.6,0,1.1,0.1,1.5h-1.6v-2.8h-14.5v2.8h-1.6
			c0.1-0.5,0.1-0.9,0.1-1.5v-1.3c0-0.6,0-1-0.1-1.5c0.7,0.1,1.4,0.1,2.3,0.1h5.6L465.1,456.7L465.1,456.7z M470.4,467.9
			c0.3,0,0.3,0,0.7,0c-1.9-0.6-3.4-1.3-4.9-2.3c-1.4,0.9-2.7,1.5-4.8,2.3c0.2,0,0.2,0,0.5,0H470.4z M461.7,472h9v-2.8h-9V472z
			 M463.3,461.6c0.8,0.8,1.6,1.5,2.9,2.4c1.2-0.8,1.7-1.2,3.1-2.5h-5.8L463.3,461.6z"/>
		<path class="st3" d="M486.9,465.3c-0.8,0-1.3,0-1.8,0.1V464c-0.3,0.4-0.5,0.8-0.8,1.3c-0.6-0.9-0.9-1.6-1.3-2.7
			c0.1,1.7,0.1,2.6,0.1,3.3v6.1c0,1.1,0,1.9,0.1,2.5h-1.8c0.1-0.6,0.1-1.4,0.1-2.5v-5.5c0-0.7,0.1-2.2,0.1-3.4
			c-0.4,1.7-0.7,2.4-1.3,3.7c-0.4,0.9-0.7,1.3-1.3,2.2c-0.2-0.6-0.5-1-0.9-1.7c0.8-0.9,1.3-1.9,1.9-3.2c0.5-1.2,0.9-2.5,1.2-3.5h-1
			c-0.7,0-1,0-1.4,0.1v-1.6c0.4,0.1,0.7,0.1,1.4,0.1h1.2v-1.9c0-1.2,0-1.7-0.1-2.2h1.7c-0.1,0.6-0.1,1.1-0.1,2.2v1.9h0.7
			c0.6,0,0.9,0,1.3-0.1v1.5c-0.4,0-0.8-0.1-1.3-0.1h-0.7c0.3,1,1,2.3,1.9,3.3c0.5,0.1,1.1,0.1,1.9,0.1h3.1v-1.7h-2.2
			c-1,0-1.3,0-1.9,0.1v-1.5c0.5,0.1,0.9,0.1,1.8,0.1h2.3v-1.6H487c-0.9,0-1.3,0-1.9,0.1V458c0.5,0.1,1,0.1,1.9,0.1h0.9
			c-0.4-0.8-0.7-1.3-1.3-2.2l1.4-0.5c0.7,1,1,1.7,1.5,2.8h2.2c0.7-1.1,1-1.7,1.4-2.8l1.6,0.5c-0.5,0.9-1,1.8-1.3,2.3h1.6
			c0.8,0,1.4,0,2-0.1v1.6c-0.6-0.1-1.1-0.1-2-0.1h-3.7v1.6h3c0.9,0,1.4,0,2-0.1v1.5c-0.5-0.1-1-0.1-2-0.1h-3v1.7h3.9
			c0.8,0,1.4,0,2-0.1v1.6c-0.6-0.1-1.2-0.1-2-0.1h-3.8c0.5,1.2,0.8,1.9,1.6,3c0.8-0.7,1.4-1.5,2.2-2.6l1.3,0.9
			c-1,1.3-1.6,1.9-2.6,2.8c1.2,1.2,2.2,2,3.8,2.8c-0.4,0.5-0.7,0.9-1,1.5c-1.2-0.8-2.1-1.4-2.9-2.3c-1.1-1.2-1.8-2.2-2.6-4
			c0.1,0.9,0.1,1.5,0.1,1.9v3.7c0,1.2-0.5,1.5-2.2,1.5c-0.5,0-1,0-1.7-0.1c-0.1-0.7-0.2-1-0.4-1.5c0.8,0.1,1.5,0.2,2,0.2
			c0.7,0,0.8-0.1,0.8-0.5v-2.7c-2,1.4-2,1.4-4.4,2.7c-0.3,0.2-0.6,0.4-0.9,0.6l-0.7-1.6c0.6-0.2,1-0.3,1.8-0.7
			c1.5-0.7,2.2-1.1,4.2-2.5v-2.8h-2.9V465.3z M486.5,465.7c0.8,0.9,1.4,1.5,2,2.5l-1.2,0.8c-0.7-1.1-1.1-1.6-2-2.5L486.5,465.7z"/>
		<path class="st3" d="M507.3,456.4c0.6,0.1,1,0.1,1.8,0.1h1.5c0.8,0,1.2,0,1.9-0.1c-0.1,1.3-0.2,2.3-0.2,3.5v10.3c0,1,0,1.7,0.2,2.5
			h-2.3c0.1-0.8,0.2-1.5,0.2-2.5v-12h-1.1c-0.7,0-1.3,0-1.9,0.1v-1.9H507.3z"/>
		<path class="st3" d="M528.7,460.2c-0.7-1.6-1.6-2.3-3.1-2.3c-1.6,0-2.8,0.8-3.5,2.5c-0.5,1.2-0.8,2.2-0.9,4.3
			c0.4-0.7,0.6-0.9,1.1-1.3c1-0.8,2-1.2,3.4-1.2c3.3,0,5.4,2.1,5.4,5.3s-2.3,5.5-5.6,5.5c-1.6,0-3-0.5-4-1.3
			c-1.4-1.3-2.2-3.7-2.2-6.7c0-2.6,0.6-5,1.6-6.4c1.2-1.6,2.7-2.4,4.7-2.4c1.6,0,2.9,0.5,3.8,1.4c0.5,0.5,0.8,1,1.3,2L528.7,460.2z
			 M521.6,467.6c0,2.2,1.6,3.8,3.8,3.8c1.3,0,2.5-0.6,3.2-1.6c0.3-0.5,0.5-1.3,0.5-2.1c0-2.3-1.4-3.7-3.6-3.7
			C523.3,463.8,521.6,465.4,521.6,467.6z"/>
		<path class="st3" d="M535.6,456.4c0.6,0.1,1,0.1,1.8,0.1h1.5c0.8,0,1.2,0,1.9-0.1c-0.1,1.3-0.2,2.3-0.2,3.5v10.3c0,1,0,1.7,0.2,2.5
			h-2.3c0.1-0.8,0.2-1.5,0.2-2.5v-12h-1.1c-0.7,0-1.3,0-1.9,0.1v-1.9H535.6z"/>
		<path class="st3" d="M559.1,460.6c1.6,1,1.6,1,2.9,2.2c1.6-1.4,2.6-2.5,3.9-4.2h-6c-1.5,1.8-3.3,3.2-5.7,4.6
			c-0.3-0.5-0.5-0.8-1-1.2c2-1.1,3.7-2.3,5.1-3.8c1.2-1.3,1.9-2.3,2.4-3.4l1.7,0.6c-0.6,0.8-0.8,1.1-1.3,1.8h4.6c0.8,0,1.3,0,1.9-0.1
			l0.9,1c-0.2,0.3-0.3,0.4-0.7,0.9c-1.8,2.4-3.9,4.5-6.7,6.5h7.5c0.7,0,1.1,0,1.6-0.1c-0.1,0.5-0.1,1-0.1,1.8v5.2
			c0,0.7,0,1.4,0.1,1.9h-1.8v-1.2h-8.5v1.2H558c0.1-0.6,0.1-1.3,0.1-1.9v-4.9c-1.6,0.9-2.6,1.4-4.5,2.3c-0.3-0.6-0.5-0.9-1-1.5
			c3.1-1.1,5.4-2.4,8.1-4.4c-1-1-1.5-1.4-2.9-2.3L559.1,460.6z M559.8,471.7h8.5V467h-8.5V471.7z"/>
		<path class="st3" d="M576.5,470c0.2-1.2,0.5-2.2,1.2-3.8l1.3,0.6c-1,2.2-1.8,4.6-1.8,5.9c0,0.1,0,0.2,0,0.4l-1.8,0.1
			c0-0.3-0.1-0.5-0.1-0.9c-0.4-2.3-0.5-3.9-0.5-6c0-2.9,0.3-5.2,0.9-8.3c0.2-1,0.3-1.3,0.3-1.8l2,0.3c-0.4,1-0.8,2.5-1,4.2
			c-0.3,1.8-0.5,4-0.5,6.4c0,0.4,0,1.4,0,2C576.5,469.5,576.5,469.6,576.5,470L576.5,470z M583.4,465c-1.1,1.2-1.6,2.2-1.6,3.1
			c0,1.4,1.3,2.1,3.8,2.1c1.9,0,3.7-0.3,4.9-0.7l0.2,1.9c-0.3,0-0.3,0-0.8,0.1c-1.5,0.3-2.9,0.4-4.3,0.4c-2.5,0-4.1-0.5-4.9-1.7
			c-0.4-0.5-0.6-1.3-0.6-2c0-1.2,0.6-2.5,1.9-4L583.4,465z M580.5,458.6c1,0.2,1.9,0.3,3.5,0.3c2.5,0,4.5-0.2,5.8-0.6l0.1,1.8
			c-0.1,0-0.5,0.1-1.4,0.2c-1.3,0.2-2.9,0.3-4.5,0.3c-1.1,0-1.7,0-2.8-0.1c-0.1,0-0.1,0-0.4,0c-0.1,0-0.2,0-0.3,0L580.5,458.6z"/>
		<path class="st3" d="M604.9,460.3v-2c0-1.5,0-1.6-0.1-2.1h2c-0.1,0.5-0.1,0.5-0.1,2c0,0.4,0,0.4,0,2.1h1.7c1.3,0,1.8,0,2.5-0.1v1.9
			c-0.7-0.1-1.3-0.1-2.5-0.1h-1.7c0,2.5-0.1,3-0.2,3.8c-0.3,2.6-1.2,4.3-3,5.8c-1,0.9-2,1.4-3.9,2.1c-0.3-0.7-0.5-0.9-1.1-1.6
			c1.9-0.5,2.9-1.1,4-2c1.4-1.3,2-2.7,2.2-5.2c0-0.6,0.1-1.3,0.1-2.9h-6.1v3c0,1,0,1.6,0.1,2.1h-2c0.1-0.5,0.1-1.2,0.1-2.1v-3h-1.6
			c-1.2,0-1.7,0-2.5,0.1v-1.9c0.8,0.1,1.2,0.1,2.5,0.1h1.6v-2.2c0-0.8,0-1.5-0.1-2h2c-0.1,0.5-0.1,1.1-0.1,1.9v2.2h6.2V460.3z"/>
		<path class="st3" d="M613.1,470.7c1.7-0.1,4.2-0.7,6.2-1.6c4-1.8,6.8-4.8,8.5-9.3c0.6,0.7,0.8,1,1.6,1.4c-1.7,3.7-3.7,6.2-6.5,8.1
			c-2.1,1.5-4.5,2.4-7.9,3.1c-0.7,0.1-0.8,0.2-1.3,0.3L613.1,470.7z M614.6,457.7c2.3,1.5,3.6,2.5,5.2,4l-1.3,1.6
			c-1.6-1.7-3.3-3-5.1-4.2L614.6,457.7z"/>
		<path class="st3" d="M644.9,457.9c0-0.1,0-0.3,0-0.5c0-1.3,1.1-2.4,2.4-2.4s2.4,1.1,2.4,2.4s-1.1,2.4-2.4,2.4c-0.2,0-0.5,0-0.7-0.1
			l-0.1,0.4c-1.1,4-2.7,6.8-5.2,9.2c-1.9,1.8-3.8,2.9-6.6,4c-0.4-0.8-0.6-1.1-1.3-1.7c1.9-0.6,3.1-1.2,4.7-2.2
			c3.4-2.2,5.4-5.2,6.6-9.8h-10.4c-1.2,0-1.8,0-2.6,0.1v-2c0.8,0.1,1.3,0.1,2.6,0.1h10.6V457.9z M645.8,457.4c0,0.8,0.7,1.5,1.5,1.5
			s1.5-0.7,1.5-1.5s-0.7-1.5-1.5-1.5S645.8,456.6,645.8,457.4z"/>
		<path class="st3" d="M655.5,456.7c-0.1,0.5-0.1,0.5-0.1,1.8c-0.2,5.8-0.3,7.3-1.1,9.5c-0.7,2-1.7,3.5-3.6,5.3
			c-0.5-0.7-0.8-0.9-1.5-1.4c1.7-1.3,2.8-2.8,3.5-4.8c0.7-1.8,0.9-4.5,0.9-8.8c0-1,0-1.2-0.1-1.7L655.5,456.7z M660.8,456.5
			c-0.1,0.6-0.1,0.9-0.1,2.2l-0.1,12.2c1.7-0.7,2.7-1.3,3.7-2.4c1.1-1.2,1.9-2.5,2.4-4.1c0.5,0.7,0.7,0.9,1.4,1.4
			c-1.1,2.5-2.5,4.2-4.3,5.5c-0.9,0.6-1.7,1-3,1.5c-0.3,0.1-0.5,0.2-0.7,0.3c-0.3,0.1-0.3,0.1-0.5,0.2l-1-1.1
			c0.1-0.4,0.1-0.7,0.1-1.7l0.1-11.9c0-0.2,0-0.3,0-0.5c0-0.8,0-1.3-0.1-1.7L660.8,456.5z"/>
		<path class="st3" d="M669.6,458.8c0.5,0.1,0.9,0.1,1.7,0.1h3.5c0.9,0,1.2,0,1.7-0.1v1.6c-0.4-0.1-0.8-0.1-1.5-0.1h-3.6
			c-0.7,0-1.2,0-1.7,0.1v-1.6H669.6z M670.2,474.3c0.1-0.6,0.1-1.4,0.1-2v-2.9c0-0.7,0-1.1-0.1-1.7c0.4,0.1,0.6,0.1,1.4,0.1h3
			c0.7,0,1.1,0,1.3,0c0,0.3-0.1,0.7-0.1,1.6v3.3c0,0.7,0,1,0,1.4h-1.4v-0.9h-2.8v1.2h-1.4V474.3z M670.3,461.8
			c0.4,0.1,0.7,0.1,1.4,0.1h2.8c0.7,0,1,0,1.4-0.1v1.5c-0.4-0.1-0.7-0.1-1.4-0.1h-2.8c-0.7,0-1,0-1.4,0.1V461.8z M670.3,464.7
			c0.4,0.1,0.7,0.1,1.4,0.1h2.8c0.7,0,1,0,1.4-0.1v1.5c-0.4-0.1-0.8-0.1-1.4-0.1h-2.8c-0.6,0-1,0-1.4,0.1V464.7z M670.4,455.9
			c0.4,0.1,0.8,0.1,1.6,0.1h2.5c0.8,0,1.1,0,1.6-0.1v1.6c-0.5-0.1-0.9-0.1-1.6-0.1H672c-0.7,0-1.1,0-1.6,0.1V455.9z M671.7,471.8h2.8
			V469h-2.8V471.8z M687.9,472.3c0,0.7-0.2,1.2-0.6,1.4c-0.3,0.2-0.8,0.3-1.8,0.3c-0.5,0-1.1,0-2-0.1c-0.1-0.7-0.1-0.9-0.3-1.6
			c1,0.2,1.7,0.2,2.4,0.2s0.8-0.1,0.8-0.6v-14.6h-7.5v2.4c0,4.6-0.2,8.3-0.5,10.5c-0.3,1.6-0.6,2.7-1.2,4c-0.5-0.5-0.7-0.7-1.3-1
			c0.7-1.3,0.9-2.2,1.1-3.9c0.3-2.2,0.4-5.6,0.4-10c0-2,0-2.6-0.1-3.4c0.6,0.1,1.1,0.1,2.1,0.1h6.5c1.1,0,1.6,0,2.1-0.1
			c-0.1,0.6-0.1,1.1-0.1,2.2L687.9,472.3L687.9,472.3z M681,461c-0.6,0-1,0-1.4,0.1v-1.4c0.5,0.1,0.9,0.1,1.4,0.1h0.9v-0.2
			c0-0.7,0-1.1-0.1-1.6h1.6c-0.1,0.4-0.1,0.8-0.1,1.6v0.2h1c0.6,0,1,0,1.5-0.1v1.4c-0.5-0.1-0.8-0.1-1.5-0.1h-1v2h1.2
			c0.7,0,1.1,0,1.4-0.1v1.4c-0.4-0.1-0.7-0.1-1.4-0.1h-3.8c-0.6,0-0.9,0-1.4,0.1v-1.4c0.4,0.1,0.8,0.1,1.4,0.1h1.2v-2H681z
			 M683.7,465.6c0.7,0,1.1,0,1.5-0.1c0,0.4-0.1,0.7-0.1,1.3v2.7c0,0.6,0,0.9,0.1,1.3c-0.3,0-0.7-0.1-1.5-0.1h-2.5v1.4h-1.4
			c0.1-0.4,0.1-0.9,0.1-1.6v-3.7c0-0.6,0-1-0.1-1.4c0.4,0,0.8,0.1,1.4,0.1h2.5V465.6z M681.2,469.6h2.6v-2.7h-2.6V469.6z"/>
		<path class="st3" d="M699.1,456.9c0-0.7,0-1.1-0.1-1.7h1.8c-0.1,0.5-0.1,0.9-0.1,1.6v0.4h6.3c0.9,0,1.6,0,2.2-0.1v1.7
			c-0.7-0.1-1.3-0.1-2.2-0.1h-4.9c2,2.1,4.6,3.5,7.9,4.3c-0.4,0.5-0.6,0.8-0.9,1.6c-1.5-0.5-2.1-0.8-3.1-1.3c0,0.4-0.1,1.3-0.1,2.1
			v6.7h1.4c1,0,1.6,0,2.2-0.1v1.7c-0.6-0.1-1.4-0.1-2.3-0.1h-14.1c-1,0-1.7,0-2.3,0.1V472c0.6,0.1,1.2,0.1,2.2,0.1h1.3v-6.9
			c0-0.8,0-1.4-0.1-2c-1,0.6-1.7,0.9-2.9,1.3c-0.3-0.6-0.5-0.9-0.9-1.4c2.8-0.9,5.6-2.5,7.4-4.5h-4.5c-0.9,0-1.5,0-2.2,0.1V457
			c0.5,0.1,1.3,0.1,2.3,0.1h5.9v-0.2H699.1z M699.1,460.3c0-0.4,0-0.8,0-1.3c-1.3,1.6-2.7,2.8-4.8,4c0.5,0,1.3,0,2,0h7.2
			c0.8,0,1.1,0,1.9,0c-2.2-1.2-3.6-2.4-4.9-4c0,0.1,0,0.5,0.1,1.3v0.9c0,0.5,0,0.9,0.1,1.3H699c0.1-0.4,0.1-0.8,0.1-1.4V460.3z
			 M695.7,466.1h8.5v-1.6h-8.5V466.1z M695.7,469.1h8.5v-1.6h-8.5V469.1z M695.7,472.1h8.5v-1.7h-8.5V472.1z"/>
		<path class="st3" d="M717.2,458.4c0.7-1.5,0.9-2.1,0.9-2.8l2,0.3c-0.2,0.3-0.2,0.3-0.5,1.1c-0.3,0.7-0.5,1.2-0.6,1.4
			c0.1,0,0.1,0,1.3-0.1c2.6-0.1,4.6-0.4,5.7-0.7l0.1,1.7c-0.4,0-0.4,0-1.6,0.2c-1.4,0.2-4.1,0.4-6.2,0.4c-0.6,1.1-1,1.8-1.7,2.7
			c-0.2,0.3-0.6,0.7-0.7,0.8c-0.1,0.1-0.2,0.1-0.2,0.2l0,0v0.1c0.1-0.1,0.2-0.2,0.3-0.2c0.4-0.3,0.5-0.4,0.7-0.5
			c0.9-0.6,1.9-0.9,2.9-0.9c1.6,0,2.5,0.8,2.8,2.3c1.6-0.6,2.5-0.9,3.5-1.3c1.1-0.4,1.1-0.4,1.5-0.6l0.8,1.7
			c-1.1,0.2-2.8,0.7-5.6,1.8c0,0.7,0,0.8,0,1.2c0,0.2,0,0.7,0,1.1s0,0.7,0,0.9c0,0.4,0,0.5,0,0.9h-1.7c0.1-0.4,0.1-1.7,0.1-2.8
			c0-0.3,0-0.4,0-0.7c-1.3,0.6-2,1-2.5,1.4c-0.9,0.7-1.2,1.3-1.2,2c0,1.3,1.2,1.9,4.2,1.9c2.1,0,4.5-0.3,5.7-0.8l0.2,1.9
			c-0.3,0-0.4,0-0.9,0.1c-1.6,0.3-3.5,0.4-5.2,0.4c-2,0-3.3-0.3-4.3-0.8c-0.9-0.5-1.4-1.4-1.4-2.5c0-1.2,0.7-2.3,2.2-3.4
			c0.8-0.6,1.7-1,3.1-1.7c-0.1-1-0.6-1.5-1.6-1.5c-1.3,0-2.9,0.8-4.6,2.2c-0.8,0.7-1.3,1.2-1.7,1.8l-1.4-1.4c1.4-1.1,3.2-3.3,4.6-5.8
			c0.1-0.1,0.1-0.1,0.2-0.3c-0.1,0-0.3,0-0.4,0c-0.4,0-2.5,0-2.9-0.1c-0.2,0-0.3,0-0.4,0s-0.2,0-0.4,0v-1.7c0.9,0.2,2.2,0.3,4.5,0.3
			h0.4V458.4z"/>
		<path class="st3" d="M733.8,467.3c0-0.8,0-1.4,0.1-2.5c-0.7,0.9-1.3,1.5-2.3,2.2c-0.3-0.6-0.5-1-0.9-1.5c1.6-1.1,2.9-2.4,4.2-4
			c0.5-0.7,0.8-1.2,1-1.8l1.5,0.9c-0.2,0.3-0.3,0.4-0.7,0.9c-0.5,0.7-0.8,1.2-1.3,1.8v8.4c0,1.1,0,2,0.1,2.6h-1.9
			c0.1-0.6,0.1-1.5,0.1-2.6v-4.4H733.8z M737,456.2c-0.1,0.1-0.2,0.2-0.4,0.4c-1.3,1.8-2.8,3.2-4.8,4.6c-0.4-0.6-0.6-0.9-1.1-1.3
			c1.3-0.8,2.1-1.4,3.1-2.4c0.9-0.9,1.3-1.6,1.7-2.3L737,456.2z M740,463.2c-1,0-1.9,0-2.4,0.1v-1.7c0.5,0.1,1.4,0.1,2.4,0.1h7.3
			c1.1,0,1.9,0,2.4-0.1v1.7c-0.5-0.1-1.4-0.1-2.4-0.1h-1.1v9c0,1.4-0.5,1.8-2.5,1.8c-0.8,0-1.6,0-2.5-0.1c-0.1-0.7-0.2-1.1-0.4-1.7
			c1.2,0.2,2.1,0.3,2.9,0.3c0.7,0,0.9-0.1,0.9-0.5v-8.8L740,463.2L740,463.2z M738.5,456.3c0.5,0.1,1.3,0.1,2.2,0.1h5.8
			c1,0,1.6,0,2.2-0.1v1.7c-0.7-0.1-1.4-0.1-2.2-0.1h-5.9c-0.8,0-1.6,0-2.2,0.1v-1.7H738.5z"/>
		<path class="st3" d="M752.6,463.9c0.5,0,0.6-0.1,2-0.4c2.8-0.7,4.7-0.9,6.4-0.9c2.2,0,3.8,0.7,4.6,2c0.4,0.7,0.7,1.6,0.7,2.5
			c0,2.5-1.9,4.6-5,5.6c-1.3,0.4-1.7,0.5-4.4,0.8c-0.1-0.7-0.3-1-0.7-1.7c0.1,0,0.2,0,0.3,0c1.3,0,3-0.3,4.2-0.7
			c2.4-0.8,3.8-2.3,3.8-4.1c0-1.8-1.3-2.8-3.7-2.8c-1.4,0-3,0.2-5.5,0.8c-1.3,0.3-1.6,0.4-2.3,0.7L752.6,463.9z"/>
		<path class="st3" d="M770.5,459.3c0.7,0.1,1.5,0.2,2.7,0.2c0.3,0,0.6,0,1.2,0c0.3-1.7,0.5-2.9,0.5-3.5v-0.3l2,0.2
			c-0.1,0.5-0.1,0.5-0.4,2c-0.1,0.7-0.2,0.9-0.3,1.5c1.6-0.2,2.7-0.4,3.7-0.7l0.1,1.7c-0.2,0-0.2,0-0.6,0.1c-1,0.2-2.4,0.4-3.5,0.5
			c-0.3,1.6-0.8,3.9-1.4,5.8c-0.7,2.2-1.3,3.9-2.4,6.6l-1.8-0.8c1.5-2.7,3.1-7.2,3.9-11.5c-0.3,0-1.1,0-1.7,0c-0.2,0-0.7,0-1.3,0
			c-0.1,0-0.1,0-0.1,0c-0.1,0-0.1,0-0.4,0L770.5,459.3z M780.2,467.1c-0.6,0.7-0.7,0.9-0.9,1.2c-0.2,0.4-0.3,0.8-0.3,1.1
			c0,1.2,1.3,1.8,3.5,1.8c1.6,0,3.5-0.3,4.7-0.8l0.2,1.9c-0.3,0-0.3,0-1,0.2c-1.6,0.3-2.6,0.4-3.8,0.4c-3.5,0-5.4-1.1-5.4-3.3
			c0-1,0.3-1.7,1.4-3.2L780.2,467.1z M786.6,463.7c-1-0.1-1.6-0.2-2.5-0.2c-1.9,0-3.3,0.2-5.3,0.7l-0.2-1.7c2.5-0.5,3.8-0.7,5.8-0.7
			c0.4,0,0.7,0,2.2,0.1V463.7z"/>
		<path class="st3" d="M789.4,464.3c0.5,0,0.8,0.1,1.4,0.1c0.1,0,0.1,0,0.4,0c0.6-0.8,0.7-0.9,1.3-1.7c-1.1-1.4-1.8-2.1-2.9-3.2
			l0.9-1.2c0.4,0.4,0.4,0.4,0.8,0.8c1.1-1.7,1.7-3,1.9-4l1.5,0.6c-0.2,0.2-0.2,0.3-0.4,0.7c-0.7,1.5-1.2,2.3-2.1,3.6
			c0.6,0.7,0.6,0.7,1.2,1.4c1.6-2.5,1.7-2.7,2-3.6l1.4,0.8c-0.4,0.5-0.4,0.5-1.4,2.2c-0.7,1.1-1.7,2.5-2.5,3.5c1.4-0.1,1.7-0.1,3-0.2
			c-0.3-0.8-0.4-1-0.8-1.7l1.2-0.5c0.7,1.3,1.1,2.2,1.6,3.9l-1.3,0.5c-0.1-0.5-0.2-0.7-0.3-1c-0.9,0.1-1,0.1-1.8,0.2v6.7
			c0,1,0,1.5,0.1,2.1h-1.7c0.1-0.7,0.1-1.2,0.1-2.1v-6.5c-0.5,0-0.7,0-2,0.1c-0.6,0-0.9,0-1.3,0.1L789.4,464.3z M792,467.3
			c-0.3,2.9-0.5,4.2-1.1,6l-1.4-0.7c0.7-1.7,0.9-2.9,1.1-5.6L792,467.3z M796.5,466.9c0.4,1.4,0.6,2.7,0.9,4.8L796,472
			c-0.1-1.9-0.3-3.1-0.7-4.8L796.5,466.9z M799.5,459.7c-0.9,0-1.6,0-2.2,0.1v-1.7c0.6,0.1,1.2,0.1,2.2,0.1h2.4V457
			c0-0.7,0-1.1-0.1-1.7h1.8c-0.1,0.5-0.1,1-0.1,1.7v1.3h2.8c1,0,1.6,0,2.2-0.1v1.7c-0.6-0.1-1.3-0.1-2.2-0.1h-2.8v3h2.3
			c0.9,0,1.6,0,2.2-0.1v1.7c-0.6-0.1-1.3-0.1-2.1-0.1h-5.7c-0.8,0-1.5,0-2.1,0.1v-1.7c0.6,0.1,1.2,0.1,2.2,0.1h1.8v-3L799.5,459.7
			L799.5,459.7z M799.9,474.3h-1.7c0.1-0.5,0.1-1.1,0.1-2v-4.2c0-0.9,0-1.3-0.1-1.9c0.4,0.1,1,0.1,1.7,0.1h5.7c0.8,0,1.3,0,1.7-0.1
			c-0.1,0.5-0.1,1-0.1,2v4.1c0,0.8,0,1.6,0.1,2.1h-1.7v-1.2h-5.8L799.9,474.3L799.9,474.3z M799.9,471.7h5.8v-4.1h-5.8V471.7z"/>
		<path class="st3" d="M815.3,464.3c-1.2,0-1.9,0-2.5,0.1c0.1-0.7,0.1-1.1,0.1-2.3v-3.8c0-1.2,0-1.6-0.1-2.2c0.5,0.1,1.2,0.1,2.4,0.1
			h9.5c1.3,0,1.8,0,2.5-0.1c-0.1,0.6-0.1,1-0.1,2.3v3.7c0,1.3,0,1.7,0.1,2.3c-0.6-0.1-1.2-0.1-2.5-0.1h-4.2v1.7h6.5
			c1,0,1.6,0,2.2-0.1v1.7c-0.7-0.1-1.3-0.1-2.2-0.1h-5.5c0.9,1,1.8,1.8,3,2.5c1.5,0.9,3.3,1.7,5.1,2.2c-0.4,0.6-0.7,1-0.9,1.6
			c-2.1-0.8-3.7-1.6-5.1-2.5c-1.1-0.8-2-1.6-3.2-3c0.1,1,0.1,1.2,0.1,1.6v2.3c0,1.1,0,1.6,0.1,2.3h-1.8c0.1-0.7,0.1-1.2,0.1-2.3V470
			c0-0.4,0-0.9,0.1-1.6c-2,2.4-4.5,4.2-7.7,5.6c-0.3-0.6-0.6-1-1-1.5c1.5-0.5,3-1.2,4.3-2c1.4-0.9,2.3-1.7,3.3-2.9h-5.1
			c-0.9,0-1.5,0-2.2,0.1V466c0.6,0.1,1.2,0.1,2.2,0.1h6.2v-1.7h-3.7V464.3z M814.5,457.5v2h4.6v-2H814.5z M814.5,460.8v2.1h4.6v-2.1
			H814.5z M820.5,459.5h5v-2h-5V459.5z M820.5,462.9h5v-2.1h-5V462.9z"/>
		<g class="st4">
			<path class="st3" d="M840.1,470.9c0,1.8-1.4,3.3-3.3,3.3c-1.8,0-3.3-1.5-3.3-3.3c0-1.8,1.5-3.3,3.3-3.3
				C838.7,467.7,840.1,469.1,840.1,470.9z M834.9,470.9c0,1,0.9,1.9,1.9,1.9c1,0,1.9-0.9,1.9-1.9c0-1.1-0.8-1.9-1.9-1.9
				C835.8,469,834.9,469.9,834.9,470.9z"/>
		</g>
	</g>
</svg>
