<svg id="no_trush" data-name="no_trush" xmlns="http://www.w3.org/2000/svg" width="454" height="100" viewBox="0 0 454.124 100.3">
  <defs>
    <style>
      .cls-1 {
        fill: #221815;
      }
      .cls-2 {
        fill: #d7000f;
      }
    </style>
  </defs>
  <path id="txtTrush" data-name="txtTrush" class="cls-1" d="M862.056,34185.1a1.015,1.015,0,0,0-.424-0.6l-2.235-1.8a1.033,1.033,0,0,0-.732-0.4,1.088,1.088,0,0,0-.616.4l-1.349,1.9H834.275c-2.042,0-4.393-.1-6.435-0.3l0.925,1.7a32.381,32.381,0,0,1,4.97-.5H840.9a62.2,62.2,0,0,1-5.587,12.5c-2.273,3.9-4.816,7.8-8.284,10.7l0.115,0.3c2.2-1.1,5.2-2.9,9.71-9.9-0.077,9.4-.038,9.9-0.192,12.9,0,0.4-.154,2.3-0.154,2.7a0.754,0.754,0,0,0,.924.9,1.323,1.323,0,0,0,1.31-.8c0.193-.4.193-0.5,0.193-2.4H854.35c0,0.3-.077,1.5-0.077,1.8a1.071,1.071,0,0,0,1.155,1.2,1.628,1.628,0,0,0,1.156-.6,1.39,1.39,0,0,0,.386-1.2c0-.1-0.27-5.9-0.309-6.7-0.038-1.3-.192-7-0.192-8.2,1-.7,1.425-1,1.425-1.3a1.283,1.283,0,0,0-.616-0.8l-1.233-1a4.395,4.395,0,0,0-.694-0.4,1.744,1.744,0,0,0-.693.5l-0.732.9H839.168l-0.539-.4c1.58-2.9,1.926-3.7,5.047-10.7h17.763A0.491,0.491,0,0,0,862.056,34185.1Zm-7.706,26.3H838.937v-13.9H854.35v13.9Zm49.155,1.9v-0.3a15.874,15.874,0,0,1-9.4-9.7h4.508c-0.039.9-.077,1.6,0.578,1.6a2.552,2.552,0,0,0,1.04-.4,0.858,0.858,0,0,0,.578-0.9c0-.1-0.115-2.1-0.115-2.3-0.077-2.3-.077-2.5-0.077-3.1,0.693-.3.886-0.5,0.886-0.8a0.5,0.5,0,0,0-.27-0.5l-1.079-1a0.906,0.906,0,0,0-.578-0.3,0.97,0.97,0,0,0-.578.4l-0.616.7h-4.47c0-1.2.039-2.3,0-3.6h4.162a0.486,0.486,0,0,0,.578-0.4,0.729,0.729,0,0,0-.386-0.6l-1.194-1.1a1.646,1.646,0,0,0-.732-0.4,1.042,1.042,0,0,0-.54.5l-0.655,1h-0.886c-0.694,0-3.506,0-6.4-.2l0.924,1.6c0.964-.2,1.5-0.2,3.122-0.4,0.077,1.9.077,3,.077,3.6H887.9l-1.965-.7c0.154,1.4.154,4,.154,5.5,0,0.8-.077,2-0.077,2.7,0,0.6.154,0.8,0.617,0.8,1.387,0,1.348-.9,1.31-1.7h3.429c-1.387,7.6-6.2,10.9-9.9,12.1l0.077,0.3a14.181,14.181,0,0,0,7.359-3.4c3.429-2.9,4.084-6.5,4.47-9h0.269c0.925,4.4,3.2,9.4,6.975,11.6A4.514,4.514,0,0,1,903.505,34213.3Zm-4.854-10.9h-5.125a45.89,45.89,0,0,0,.347-4.8h4.778v4.8Zm-6.7-4.8a43.04,43.04,0,0,1-.424,4.8H887.9v-4.8h4.046Zm-6.4-11.2a0.727,0.727,0,0,0-.385-0.6l-1.619-1.5a2.04,2.04,0,0,0-.693-0.4,0.918,0.918,0,0,0-.617.5l-1.156,1.5H876.8c0-1.3,0-1.5.039-2.2a2.094,2.094,0,0,0,1.156-1c0-.4-0.193-0.4-0.925-0.7l-2.967-.8a10.359,10.359,0,0,1,.655,3.6c0.116,2.3.116,5.3,0.077,6.1h-2.813l-2.427-1.1a11.38,11.38,0,0,1,.231,2.7c0,6-.077,13.2-0.231,19.2,0,0.4-.116,2.6-0.116,3a0.577,0.577,0,0,0,.578.7,1.517,1.517,0,0,0,1.58-1c0.039-.1.077-2.5,0.077-2.8h9.4c-0.039,1.1-.039,1.4.732,1.4a1.568,1.568,0,0,0,1.464-1.8c0-2-.27-11.7-0.27-13.9,0-2.5.039-3.8,0.077-4.9a3.725,3.725,0,0,1,.694-0.6,0.442,0.442,0,0,0,.27-0.4,0.916,0.916,0,0,0-.578-0.7l-0.925-.6a1.736,1.736,0,0,0-.655-0.4,0.643,0.643,0,0,0-.5.4l-0.655.8h-3.93c0-.6-0.039-3.5-0.039-4.1h8.169A0.486,0.486,0,0,0,885.55,34186.4Zm-4.431,24.3h-9.4v-18.9h9.4v18.9Zm22.849-19.8v-0.3c-4.162-.7-7.321-3.9-9.44-7.6,0.154-.5-0.232-0.7-0.771-0.9l-2.35-1c-0.232,2.9-3.854,9.3-7.668,13.3l0.27,0.3c4.546-3.3,5.818-5.5,9.054-10.9,0.116-.1.848-0.3,1-0.4,2.543,5.2,3.622,6.8,7.09,9.3A4.819,4.819,0,0,1,903.968,34190.9Zm-27.858,5.1c0-1.3-1.773-2.1-2.5-2.2l-0.115.1a5.146,5.146,0,0,1,.693,1.6c0.27,1.1.347,1.5,0.963,1.5A0.972,0.972,0,0,0,876.11,34196Zm4.392,5.7a2.612,2.612,0,0,0-1.734-2.2l-0.115.1a8.174,8.174,0,0,1,.269,1.7c0.116,1,.27,1.4.771,1.4A0.869,0.869,0,0,0,880.5,34201.7Zm-0.578-6.2a0.887,0.887,0,0,0-.693-0.8l-1.734-.9a4.286,4.286,0,0,1,.115,1.1,17.651,17.651,0,0,1-1.117,5.3,19.577,19.577,0,0,0-3.16-2.9l-0.115.1c0.848,1.2,2.235,3.1,2.774,4.1a23.223,23.223,0,0,1-3.853,7.2l0.231,0.3a21.742,21.742,0,0,0,4.393-6.1,18.186,18.186,0,0,1,1.04,2.6c0.347,1.4.732,1.6,1.272,1.6a0.981,0.981,0,0,0,.809-1.2c0-1.5-2.081-4.2-2.428-4.6a48.519,48.519,0,0,0,1.773-5.3C879.693,34195.8,879.924,34195.8,879.924,34195.5Zm-5.317,6.5a2.372,2.372,0,0,0-2.158-2.3l-0.192.2a5.443,5.443,0,0,1,.5,1.8c0.193,1.1.386,1.3,0.887,1.3A0.971,0.971,0,0,0,874.607,34202Zm3.16,6.6c0-1.2-1.272-2-2.2-2.4l-0.115.2a3.078,3.078,0,0,1,.539,1.7c0.193,1,.231,1.4.925,1.4A0.853,0.853,0,0,0,877.767,34208.6Zm45.418-18.6a37.06,37.06,0,0,1,1.657-3.9,3.021,3.021,0,0,0,.462-1.2,2.94,2.94,0,0,0-2.967-2.6,4.472,4.472,0,0,0-1.618.3c1.194,0.8,1.965,1.2,1.965,2.3a34.242,34.242,0,0,1-1.464,5.8,29.833,29.833,0,0,1-6.127.9,8.764,8.764,0,0,1-3.352-.5c0.424,0.8,1.156,2,3.892,2a18.476,18.476,0,0,0,5.009-.7,95.318,95.318,0,0,1-7.09,16.5c-1.156,2.1-1.194,2.1-1.194,2.6a1.416,1.416,0,0,0,1.078,1.5c0.617,0,.81-0.5,1.233-1.3,1.966-3.8,4.162-9.8,7.784-19.8a33.908,33.908,0,0,0,6.82-2.6,1,1,0,0,0,.616-0.8c0-.6-0.77-0.9-1.464-0.9a1.791,1.791,0,0,0-1.271.4A21.29,21.29,0,0,1,923.185,34190Zm10.326-5.5a21.805,21.805,0,0,1,4.085,3.1c1.464,1.4,1.579,1.5,2,1.5a0.854,0.854,0,0,0,.732-1C940.331,34185.5,936.054,34184.5,933.511,34184.5Zm0.386,13.3c3.429-1.7,4.469-2,5.972-2,1.117,0,1.772,0,1.772-.9,0-1.8-3.236-2.8-5.664-2.8-0.231,0-3.622,0-5.394,1.4,4.932,0.1,6.358.1,6.358,0.9,0,0.7-2.235,2.6-3.121,3.3Zm-7.745,7.2a5.121,5.121,0,0,0-.617,2.5,4.554,4.554,0,0,0,1.5,3.4c2,1.6,4.971,2.1,8.053,2.1,2.235,0,6.743-.1,6.743-1.3a2.1,2.1,0,0,0-1.772-1.4,3.93,3.93,0,0,1-.887.1,32.094,32.094,0,0,1-5.587.5C927.115,34210.9,926.344,34208.2,926.152,34205Zm10.288-23.4a13.1,13.1,0,0,1,5.433,3.3,1.648,1.648,0,0,0,1.194.6,0.692,0.692,0,0,0,.732-0.8,2.214,2.214,0,0,0-.809-1.7,9.34,9.34,0,0,0-5.125-1.5A5.974,5.974,0,0,0,936.44,34181.6Zm23.995,25.9c3.005,3.9,3.2,4.6,3.2,5.3,0.038,0.6.077,1.1,0.924,1.1,1.156,0,2.736-1.6,3.237-2.2,2.813-3.1,4.123-12.3,4.123-14.6,0-1.8-.231-5.7-4.239-5.7-1.194,0-2.427.2-2.812,0.2,0.308-.6,1.7-4,2.08-4.7,0.732-1.3.732-1.3,0.732-1.7,0-.7-1.31-2.5-4.045-2.5a5.954,5.954,0,0,0-1.542.2,14.2,14.2,0,0,1,1.542.8,1.863,1.863,0,0,1,1.271,2c0,1.4-1.425,4.9-2.08,6.4-2.274.6-2.389,0.6-5.549,1.5a14.132,14.132,0,0,1-2.466.5,3.488,3.488,0,0,1-2.774-2,1.445,1.445,0,0,0-.154.6c0,2.2,1.888,3.9,3.121,3.9a2.28,2.28,0,0,0,1.425-.6,41.331,41.331,0,0,1,5.741-2.3c-0.308.7-2.2,5.2-3.583,7.9a74.639,74.639,0,0,1-3.969,6.8c-1.04,1.2-1.464,1.7-1.464,2.9,0,1,.347,1.5.886,1.5a2.266,2.266,0,0,0,1.233-1.1c1.657-2.7,3.276-6.1,4.817-9.2,0.655-1.3,3.429-7.9,4.123-9.4a17.89,17.89,0,0,1,3.275-.4c1.965,0,2.581,1.2,2.581,3.9,0,1.4-.77,8.5-3.044,12.4a2.038,2.038,0,0,1-1.733,1.2,2.428,2.428,0,0,1-1.426-.5c-0.771-.5-2.235-1.5-3.314-2.3Zm16.144-7.1c0.964,0.2,2.659.6,2.967,0.7,2.389,0.6,2.7.4,3.16,0.7a2.192,2.192,0,0,0,1.271.7c0.54,0,.694-0.5.694-1.3a8.785,8.785,0,0,0-2.158-5.7,13.1,13.1,0,0,0-8.361-5c5.818,3.9,7.629,6.8,7.629,7.7,0,1.8-2.582,1.9-5.2,2v0.2Zm27.851,13.4a25.687,25.687,0,0,0,10.98-2.2c1.89-.9,5.32-3.5,5.32-7.4,0-3.2-2.47-6.7-7.29-6.7a20.862,20.862,0,0,0-12.75,5.2,0.71,0.71,0,0,1-.46.2c-0.349,0-.5-0.4-0.5-0.9a34.4,34.4,0,0,1,.774-6.1c0.04-.3.31-1.5,0.31-1.7a9.8,9.8,0,0,0-.43-1.8,5.294,5.294,0,0,1-.384-1.8c0-2.5,3.124-2.5,4.624-2.5a14.726,14.726,0,0,1,3.43.3,3.608,3.608,0,0,0,1.66.6,0.664,0.664,0,0,0,.73-0.8,3.714,3.714,0,0,0-2.54-3.2,18.3,18.3,0,0,1-5.59-3.1c-0.08,1.9,2.23,3.5,3.04,3.9a1.047,1.047,0,0,1,.7.6,0.331,0.331,0,0,1-.35.3c-4.74.9-5.28,1-6.205,2.4-0.616,1-.616,1.3-0.616,4.3a53.907,53.907,0,0,1-.848,8.5c-0.154.8-.385,1.8-0.385,2.1,0,0.9.732,3,1.734,3,0.346,0,.462-0.2.81-0.8,1.54-2.6,7.32-7.6,13.1-7.6a5.119,5.119,0,0,1,5.24,5.3c0,3.7-3.16,6-7.09,7.7a31.637,31.637,0,0,1-7.01,2v0.2ZM805.7,34245.4a3.622,3.622,0,1,0-3.622,3.6A3.6,3.6,0,0,0,805.7,34245.4Zm-1.233,0a2.417,2.417,0,0,1-2.389,2.4,2.4,2.4,0,0,1,0-4.8A2.417,2.417,0,0,1,804.466,34245.4Zm-26.24,28.5a25.236,25.236,0,0,0,10.288-6.2c4.123-3.9,5.7-7.2,8.284-14.1,0.424-1.2.539-1.5,1.272-1.8,1.117-.7,1.233-0.7,1.233-1,0-.7-2.736-2.8-3.044-2.8-0.116,0-1.2.8-1.465,0.9-0.5.2-15.412,1.7-16.992,1.7a3.063,3.063,0,0,1-1.734-.3,7.086,7.086,0,0,1-1.965-2,3.493,3.493,0,0,0-.193,1.1,4.038,4.038,0,0,0,1.272,2.8,3.383,3.383,0,0,0,1.464,1.2,3.341,3.341,0,0,0,.732-0.3,5.668,5.668,0,0,1,1.195-.6,106.132,106.132,0,0,1,16.684-2,37.685,37.685,0,0,1-5.934,13.3,37.308,37.308,0,0,1-11.213,9.8Zm40.448-28.6c0.308,2.8,2.157,3.6,2.928,3.6,0.886,0,9.671-.9,11.482-1,2.967-.2,4.046-0.3,4.046-1.2,0-1-2.08-1.3-2.7-1.3a6.307,6.307,0,0,0-1.772.5c-1.542.6-7.476,1.2-9.4,1.2C820.986,34247.1,820.408,34246.7,818.674,34245.3Zm0.732,29.2a20.01,20.01,0,0,0,9.478-4.5c5.588-4.6,8.593-11.9,8.94-12.8,0.462-1.2.5-1.3,1.271-1.7,1.118-.5,1.233-0.5,1.233-0.9,0-.8-2.62-2.7-3.044-2.7a0.915,0.915,0,0,0-.539.3,3.6,3.6,0,0,1-1.657,1.1c-1,.2-13.871,1.2-15.3,1.2a4.834,4.834,0,0,1-4.161-2.5,4.553,4.553,0,0,0-.193,1.2c0,2.1,2.62,4.3,3.622,4.3a1.6,1.6,0,0,0,1.079-.5c1.734-1.2,12.754-2.2,15.721-2.4-0.925,5.7-6.936,15.4-16.53,19.6Zm33.589-2.7c8.9-1.9,14.526-8.8,16.915-11.8,4.393,2.9,6.974,6.3,9.518,10.5a1.34,1.34,0,0,0,1.117.8,1.269,1.269,0,0,0,1.156-1.5c0-3.8-6.281-8-11.328-10.5a44.264,44.264,0,0,0,5.433-9.2,0.786,0.786,0,0,1,.423-0.5c1.233-.4,1.465-0.5,1.465-1,0-.6-2.621-2.6-3.006-2.6a0.845,0.845,0,0,0-.539.2,7.635,7.635,0,0,1-1.542.9,67.6,67.6,0,0,1-10.673,1.6,2.227,2.227,0,0,1-1.888-1,10.775,10.775,0,0,1-.809-1.3,6.678,6.678,0,0,0-.347,1.7,2.957,2.957,0,0,0,.694,1.8c0.462,0.7,1.117,1.6,1.618,1.6a2.052,2.052,0,0,0,.925-0.4,19.733,19.733,0,0,1,4.431-1.5c1.04-.2,6.2-1.1,7.4-1.3-3.545,9.8-12.484,19.6-21.038,23.2Zm47.345,2.3a17.629,17.629,0,0,0,6.473-5c2.466-2.9,3.892-5.9,4.431-12.7,2.12-.1,4.393-0.2,6.551-0.2a22.676,22.676,0,0,1,5.7.7,3.314,3.314,0,0,0,.809.1,0.733,0.733,0,0,0,.733-0.8c0-1.2-2.89-2.1-3.892-2.1a15.185,15.185,0,0,0-2.042.5c-2.158.2-5.626,0.4-7.745,0.5a14.54,14.54,0,0,1,.462-3.3,2.233,2.233,0,0,0,.424-1.1,0.666,0.666,0,0,0-.231-0.6,9.789,9.789,0,0,0-3.006-1.4,25.511,25.511,0,0,0,3.738-1c2.659-.8,2.774-0.8,4.354-0.8a0.482,0.482,0,0,0,.54-0.5c0-.8-3.006-3-4.509-3a1.8,1.8,0,0,0-.847.2c1.117,0.6,1.194.8,1.194,1a0.49,0.49,0,0,1-.115.3c-0.5.7-9.633,4.3-14.6,4.9v0.2a54.029,54.029,0,0,0,8.67-.9,3.827,3.827,0,0,1,1.618,1.8,24.681,24.681,0,0,1,.27,4.4c-4.47.5-4.932,0.6-8.94,1.1-1.233.1-2.311,0.2-2.928,0.2-1,0-2-.3-3.545-2.4,0,0.5-.077,2.2.463,2.9,0.5,0.7,1.965,2.2,2.7,2.2a10.643,10.643,0,0,0,1.387-.5c2.158-.9,4.739-1.6,10.789-2.2-0.655,8-3.314,12.3-9.017,17.3Zm36.094-20.1a20.855,20.855,0,0,1,2.89,4.1c0.809,1.6.887,1.7,1.349,1.7a1.138,1.138,0,0,0,1.117-1.2C941.79,34257.4,939.247,34254.3,936.434,34254Zm7.36-1.6a13.394,13.394,0,0,1,2.466,4.2c0.462,1.4.578,1.8,1.233,1.8a1.153,1.153,0,0,0,1-1.4C948.5,34254.9,946.029,34253.2,943.794,34252.4Zm-3.815,21.2a19.106,19.106,0,0,0,8.824-4.9,36.98,36.98,0,0,0,7.321-11.2,3.982,3.982,0,0,1,.694-1.2,1.978,1.978,0,0,0,.77-1.3c0-.6-1.811-2.4-3.159-2.4a8.222,8.222,0,0,0-1.773.3c1.541,0.8,2.042,1.2,2.042,2,0,0.7-.308,3-3.082,7.4-5.086,8-9.44,10-11.675,10.9Zm31.086,0.8c7.629-2.1,15.644-8,20.961-19.1,0.886-1.9,1.079-2,2.35-2.7,0.81-.4.887-0.4,0.887-0.7,0-.5-0.771-1.1-2.389-2.4a0.547,0.547,0,0,0-.54-0.3,6.9,6.9,0,0,0-1.233.8c-0.886.6-5.664,1.1-7.59,1.1a5.977,5.977,0,0,1-1.388-.1,20.1,20.1,0,0,1,2.389-3.1,1.26,1.26,0,0,0,.578-1c0-.3-0.115-0.5-0.809-1-1.888-1.4-2.35-1.4-3.044-1.4a5.794,5.794,0,0,0-1.926.3c1.464,0.8,2.157,1.2,2.157,1.9,0,1.5-4.084,9-10.21,14l0.154,0.3a18.2,18.2,0,0,0,5.2-3.5,35.056,35.056,0,0,0,4.971-5.7,4.94,4.94,0,0,0,2.312.7c1.04,0,6.088-.7,7.205-0.8-3.236,8.9-11.944,18.4-20.075,22.4Zm42.915-26.5a4.57,4.57,0,0,0-.31,1.8c0,1.2,2.16,3.4,2.81,3.4,0.08,0,1.78-.7,1.89-0.7,1.77-.7,12.1-1.6,14.8-1.6a0.431,0.431,0,0,1,.54.5,7.156,7.156,0,0,1-.08.8c-0.58,5.1-1.43,10.2-2,13.6-0.66,0-7.86.4-9.33,0.5-0.77.1-4.47,0.4-5.32,0.4-1.38,0-2.46-.8-3.43-2.3a2.446,2.446,0,0,0-.38,1.2c0,1,1.81,3.7,2.77,3.7a7.847,7.847,0,0,0,1.43-.5c3.39-1.2,12.98-1.2,13.79-1.2,0.5,0,2.93.2,3.16,0.2a0.932,0.932,0,0,0,1.12-1c0-.6-0.54-0.8-1.89-1.3,0.31-2.2,1.54-8.9,2.2-11.8a1.974,1.974,0,0,1,.89-1.5c1-.7,1.11-0.8,1.11-1,0-.7-2.66-2.8-3.08-2.8a10.9,10.9,0,0,0-1.39.9c-0.65.4-14.6,1.3-16.03,1.3C1016.56,34250.5,1015.67,34250.5,1013.98,34247.9Zm19.69-3.1a16.25,16.25,0,0,1,4.24,3.3c1.23,1.3,1.38,1.5,1.73,1.5a1.019,1.019,0,0,0,.81-1.1C1040.45,34246.6,1037.44,34244.7,1033.67,34244.8Zm3.58-2.3a15.111,15.111,0,0,1,3.93,2.9c1.35,1.4,1.5,1.6,1.97,1.6a1,1,0,0,0,.77-1.2C1043.92,34243.9,1040.26,34242.4,1037.25,34242.5Zm20.07,2.7c7.39,2,8.51,2.5,12.48,5.1a5.456,5.456,0,0,0,1.81.9,0.805,0.805,0,0,0,.81-0.9,3.583,3.583,0,0,0-1.89-2.6c-3.58-2.1-10.13-2.6-11.48-2.6A12.808,12.808,0,0,0,1057.32,34245.2Zm1.04,9.6c6.28,2,8.63,3.1,10.17,4.2,1.04,0.8,1.62,1.3,2.2,1.3a0.884,0.884,0,0,0,.92-1,3.314,3.314,0,0,0-2-2.5,25.993,25.993,0,0,0-9.91-2h-1.38Zm-3.47,9.2c6.51,1.8,12.06,4,15.76,7.5,1.39,1.3,1.85,1.8,2.5,1.8a1.072,1.072,0,0,0,1.08-1.1,5.446,5.446,0,0,0-2.73-3.7A32.668,32.668,0,0,0,1054.89,34264Z" transform="translate(-773.406 -34177.8)"/>
  <path id="txtZero" data-name="0" class="cls-2" d="M1151.86,34227.8c0-26.2-10.88-49.6-29.14-49.6-18.52,0-29.14,23.6-29.14,49.6,0,26.5,10.88,49.8,29.14,49.8S1151.86,34254.3,1151.86,34227.8Zm-9.58,0c0,35.5-10.49,46.2-19.56,46.2-9.59,0-19.56-11.7-19.56-46.2,0-33.6,9.72-45.9,19.56-45.9C1131.79,34181.9,1142.28,34192.6,1142.28,34227.8Z" transform="translate(-773.406 -34177.8)"/>
  <path id="txtTon" class="cls-1" d="M1174.75,34255.4c0.04-1.7.07-6.3,0.49-7.6,0.19-.7.57-1.8,0.57-2,0-1.3-3.28-2.1-3.86-2.1a6.18,6.18,0,0,0-2.5.9c1.85,0.6,2.89.9,3.16,1.9a44.459,44.459,0,0,1,.29,6.2c0,1.4-.23,15.5-0.54,17.6-0.04.2-.34,2.1-0.34,2.2,0,0.4.32,2.9,1.63,2.9,1.15,0,1.15-1.7,1.14-3.5,0-.7-0.12-4.2-0.12-5.1-0.01-3.5.02-7,.05-10.6a27.9,27.9,0,0,1,8.53,6.2c0.85,0.8,1.23,1.2,1.73,1.2,0.54,0,.89-0.5.89-1.4a2.88,2.88,0,0,0-.93-2.2C1182.47,34257.6,1177.65,34256,1174.75,34255.4Zm26.41-8.2a19.748,19.748,0,0,1,6.21,4.1c1.2,1.2,1.51,1.5,2.2,1.5a1.276,1.276,0,0,0,1.31-1.3C1210.87,34249.1,1205.82,34247.1,1201.16,34247.2Zm25.51,3.5c-4.34,5-6.95,7.8-15.26,13.9-1.42,1-5,3.6-6.23,3.6-0.77,0-1.78-.9-2.48-2.5a3.83,3.83,0,0,0-.53,1.7c0,1.6,2.36,4.5,3.63,4.5a1.351,1.351,0,0,0,1.04-.6,8.748,8.748,0,0,1,2.46-2.3c2-1.4,3.54-2.5,5.31-3.9,4.96-4,9.42-8.6,12.3-14.3Z" transform="translate(-773.406 -34177.8)"/>
</svg>
