<svg id="sec10_01_ttl" data-name="sec10_01_ttl" xmlns="http://www.w3.org/2000/svg" viewBox="0 0 152.51 152.51" width="152" height="152">
	<defs>
		<style>
			.cls-1{fill:none;stroke:#231815;stroke-miterlimit:10;stroke-width:1.12px;}
			.cls-2{fill:#231815;}
		</style>
	</defs>
	<circle class="cls-1" cx="76.26" cy="76.26" r="75.7"/>
	<path class="cls-2" d="M39.87,58.2a5.85,5.85,0,0,0,1.06,3.45c1.15,1.54,3.25,2.43,5.85,2.43,4.21,0,6.74-2,6.74-5.39a4,4,0,0,0-2-3.75c-1-.62-2-.89-5.29-1.58a13.9,13.9,0,0,1-5.06-1.74A5.43,5.43,0,0,1,38.66,47c0-4,3.09-6.54,8-6.54,3.05,0,5.45,1,6.87,2.93a6.78,6.78,0,0,1,1.35,3.28L53,47a5.2,5.2,0,0,0-1.21-2.92A6.48,6.48,0,0,0,46.58,42c-3.68,0-6.21,2-6.21,5a4.18,4.18,0,0,0,2.69,3.82,15.74,15.74,0,0,0,3.69,1,17.54,17.54,0,0,1,5.72,1.77,5.45,5.45,0,0,1,2.79,5.13c0,4.44-3.06,6.91-8.48,6.91-3.52,0-6.12-1.09-7.56-3.16a7.76,7.76,0,0,1-1.32-4Z"/>
	<path class="cls-2" d="M67.63,61.81a16.93,16.93,0,0,0,.26,3.42h-2.2A18.17,18.17,0,0,0,66,61.81V42.35H60.46a18.88,18.88,0,0,0-3.42.23v-2a18.39,18.39,0,0,0,3.42.23H73.15a16,16,0,0,0,3.42-.23v2a18.67,18.67,0,0,0-3.42-.23H67.63Z"/>
	<path class="cls-2" d="M95.15,65.46a19.69,19.69,0,0,0-3.42-.23H82.36c-1.35,0-2.24,0-3.32.1a22.1,22.1,0,0,0,.26-3.71V44.22A22.91,22.91,0,0,0,79,40.7c1.11.07,2,.1,3.32.1h9.1a21.89,21.89,0,0,0,3.42-.23v2a18.88,18.88,0,0,0-3.42-.23H81v9.2H90a21.89,21.89,0,0,0,3.42-.23v2A19.84,19.84,0,0,0,90,53.1H81V63.69H91.73a23.28,23.28,0,0,0,3.42-.23Z"/>
	<path class="cls-2" d="M98.86,65.23a17.56,17.56,0,0,0,.26-3.42V44.22a21.72,21.72,0,0,0-.26-3.52c1.12.07,2,.1,3.32.1h6.65c4.7,0,7.39,2.47,7.39,6.81,0,4.57-2.76,7.23-7.53,7.23h-7.86v7a16.85,16.85,0,0,0,.27,3.42Zm9.8-11.93c3.75,0,5.82-2,5.82-5.59s-2-5.36-5.82-5.36h-7.83V53.3Z"/>
	<path class="cls-2" d="M69.44,85.84a18.61,18.61,0,0,0,3.6.24h2.39a23.68,23.68,0,0,0,3.6-.24c-.3,3.11-.44,5.6-.44,8.13v23.2a26.61,26.61,0,0,0,.39,5.06H75.67a26.61,26.61,0,0,0,.39-5.06V88.32H73.29a25.35,25.35,0,0,0-3.85.29Z"/>
</svg>