<svg id="sec11_a" data-name="sec11_a" xmlns="http://www.w3.org/2000/svg" viewBox="0 0 236.44 236.44" width="236" height="236">
	<defs>
		<style>
			.cls-1{fill:#231815;}
			.cls-2,.cls-3{fill:none;stroke:#231815;stroke-miterlimit:10;}
			.cls-2{stroke-width:1.14px;}
			.cls-3{stroke-width:1.38px;}
		</style>
	</defs>
	<path class="cls-1" d="M34.76,93.37h5.17V61.51H34.76v-.65h8.75c.44,0,.87,0,1.31,0l1.3-.07,1.28,0c.42,0,.85,0,1.28,0a18.31,18.31,0,0,1,4.92.63,12.9,12.9,0,0,1,3.91,1.79,8.68,8.68,0,0,1,2.58,2.8A7.21,7.21,0,0,1,61,69.57,6.6,6.6,0,0,1,60,73.3,9.19,9.19,0,0,1,57.11,76,14.4,14.4,0,0,1,53,77.77a19.83,19.83,0,0,1-4.91.6c-.44,0-1,0-1.68-.11s-1.29-.17-1.82-.26V93.37h5.17V94h-15Zm9.82-16a19.67,19.67,0,0,0,2,.28c.68.06,1.29.09,1.82.09a7,7,0,0,0,5.37-2q1.94-2,1.94-6.12a14.31,14.31,0,0,0-.47-4,5.55,5.55,0,0,0-1.47-2.53,5.41,5.41,0,0,0-2.6-1.33,17.11,17.11,0,0,0-3.84-.37c-.59,0-1.13,0-1.61,0l-1.1.09Z"/>
	<path class="cls-1" d="M85.8,93.51a6.45,6.45,0,0,1-1.45.81,5.38,5.38,0,0,1-2,.35,4.58,4.58,0,0,1-3.23-1A5.08,5.08,0,0,1,77.69,91H77.6q-.18.42-.51,1a4.2,4.2,0,0,1-1,1.21,5.64,5.64,0,0,1-1.8,1,8.72,8.72,0,0,1-2.84.39,9.15,9.15,0,0,1-3.12-.44,5.07,5.07,0,0,1-1.81-1.1,3.1,3.1,0,0,1-.86-1.46,6.09,6.09,0,0,1-.21-1.52,4.57,4.57,0,0,1,.65-2.6A4.72,4.72,0,0,1,67.8,86a11.15,11.15,0,0,1,2.33-1c.85-.25,1.71-.51,2.58-.79,1-.34,1.87-.64,2.54-.88a4.59,4.59,0,0,0,1.56-.91,2.84,2.84,0,0,0,.77-1.35,9.3,9.3,0,0,0,.21-2.22,13.35,13.35,0,0,0-.14-2,4.55,4.55,0,0,0-.51-1.51,2.41,2.41,0,0,0-1.08-1,4.54,4.54,0,0,0-1.86-.32,5.46,5.46,0,0,0-2.54.53,1.85,1.85,0,0,0-1,1.75,9,9,0,0,0,.14,1.56,7.41,7.41,0,0,1,.14,1.14,1.46,1.46,0,0,1-.46,1.1,1.91,1.91,0,0,1-1.35.44c-1,0-1.67-.19-1.91-.56a2.52,2.52,0,0,1-.38-1.44,4.32,4.32,0,0,1,.47-2A5,5,0,0,1,68.68,75,6.73,6.73,0,0,1,71,73.86a10.7,10.7,0,0,1,3.14-.42,10.52,10.52,0,0,1,3.58.53A6.14,6.14,0,0,1,80,75.42a5.17,5.17,0,0,1,1.26,2,7.57,7.57,0,0,1,.37,2.39v11.6a2.78,2.78,0,0,0,.42,1.81,1.51,1.51,0,0,0,1.21.47,3.23,3.23,0,0,0,1.07-.19A3.88,3.88,0,0,0,85.42,93Zm-8.15-10.9h-.1c-.06.4-.57.81-1.53,1.21l-3.5,1.4a5.09,5.09,0,0,0-2.28,1.7,4.58,4.58,0,0,0-.79,2.72,8.17,8.17,0,0,0,.14,1.45,3.57,3.57,0,0,0,.51,1.32,2.87,2.87,0,0,0,1.05,1,3.58,3.58,0,0,0,1.75.37,4.38,4.38,0,0,0,2.49-.65,4.31,4.31,0,0,0,1.44-1.63,6.55,6.55,0,0,0,.65-2.12,14.62,14.62,0,0,0,.17-2.07Z"/>
	<path class="cls-1" d="M87.19,93.37h3.59V74.69H87.19V74h7.5v4.71h.09a9.93,9.93,0,0,1,.61-1.59,7.23,7.23,0,0,1,1.16-1.7,6.7,6.7,0,0,1,1.8-1.37,5.34,5.34,0,0,1,2.53-.56,4.66,4.66,0,0,1,1.87.35,4.13,4.13,0,0,1,1.3.88A3.36,3.36,0,0,1,104.8,76a4.5,4.5,0,0,1,.23,1.39,2.4,2.4,0,0,1-.7,2,2.64,2.64,0,0,1-1.63.52c-1.37,0-2-.44-2-1.31a2,2,0,0,1,.09-.67l.21-.51a4.05,4.05,0,0,0,.21-.59,3.19,3.19,0,0,0,.1-.93c0-1-.55-1.49-1.63-1.49A2.92,2.92,0,0,0,98,75a5.83,5.83,0,0,0-1.56,1.63,10.47,10.47,0,0,0-1.21,2.58,11.49,11.49,0,0,0-.49,3.47V93.37h4.06V94H87.19Z"/>
	<path class="cls-1" d="M127.15,93.51a6.45,6.45,0,0,1-1.45.81,5.33,5.33,0,0,1-2,.35,4.63,4.63,0,0,1-3.24-1A5,5,0,0,1,119.05,91H119q-.18.42-.51,1a4.2,4.2,0,0,1-1,1.21,5.69,5.69,0,0,1-1.79,1,8.8,8.8,0,0,1-2.84.39,9.07,9.07,0,0,1-3.12-.44,5,5,0,0,1-1.82-1.1,3.1,3.1,0,0,1-.86-1.46,6.09,6.09,0,0,1-.21-1.52,4.66,4.66,0,0,1,.65-2.6,4.81,4.81,0,0,1,1.7-1.56,11.15,11.15,0,0,1,2.33-1c.85-.25,1.71-.51,2.58-.79,1-.34,1.87-.64,2.54-.88a4.59,4.59,0,0,0,1.56-.91,2.84,2.84,0,0,0,.77-1.35,9.3,9.3,0,0,0,.21-2.22,13.35,13.35,0,0,0-.14-2,4.33,4.33,0,0,0-.51-1.51,2.44,2.44,0,0,0-1.07-1,4.62,4.62,0,0,0-1.87-.32,5.39,5.39,0,0,0-2.53.53,1.84,1.84,0,0,0-1,1.75,9,9,0,0,0,.14,1.56,6.32,6.32,0,0,1,.14,1.14,1.46,1.46,0,0,1-.46,1.1,1.91,1.91,0,0,1-1.35.44c-1,0-1.66-.19-1.91-.56a2.52,2.52,0,0,1-.37-1.44,4.31,4.31,0,0,1,.46-2A5,5,0,0,1,110,75a6.73,6.73,0,0,1,2.29-1.14,12.2,12.2,0,0,1,6.73.11,6.18,6.18,0,0,1,2.32,1.45,5.17,5.17,0,0,1,1.26,2,7.57,7.57,0,0,1,.37,2.39v11.6a2.78,2.78,0,0,0,.42,1.81,1.53,1.53,0,0,0,1.21.47,3.23,3.23,0,0,0,1.07-.19,4.08,4.08,0,0,0,1.08-.55ZM119,82.61h-.09c-.07.4-.58.81-1.54,1.21l-3.49,1.4a5,5,0,0,0-2.28,1.7,4.52,4.52,0,0,0-.8,2.72,8.17,8.17,0,0,0,.14,1.45,3.76,3.76,0,0,0,.52,1.32,2.77,2.77,0,0,0,1,1,3.58,3.58,0,0,0,1.75.37,4.38,4.38,0,0,0,2.49-.65,4.23,4.23,0,0,0,1.44-1.63,6.81,6.81,0,0,0,.66-2.12,16.13,16.13,0,0,0,.16-2.07Z"/>
	<path class="cls-1" d="M128.59,93.37h3.59V61.1h-3.59v-.66h7.59V77.77h.09a6.86,6.86,0,0,1,2.24-3.08,6.52,6.52,0,0,1,4.14-1.25,8.45,8.45,0,0,1,3.78.86,10.63,10.63,0,0,1,3.12,2.28,10.87,10.87,0,0,1,2.14,3.33,10.3,10.3,0,0,1,.79,4,10.46,10.46,0,0,1-.81,4.08,11.39,11.39,0,0,1-2.22,3.42,10.78,10.78,0,0,1-3.23,2.38,8.89,8.89,0,0,1-3.89.88,6.15,6.15,0,0,1-2.68-.53,6.57,6.57,0,0,1-1.81-1.28,5.64,5.64,0,0,1-1.1-1.54,14.24,14.24,0,0,1-.56-1.35h-.09v4h-7.5Zm19.23-10a28,28,0,0,0-.23-3.85,10.23,10.23,0,0,0-.81-2.91,4.36,4.36,0,0,0-1.63-1.86,5,5,0,0,0-2.68-.65,6,6,0,0,0-2.84.6,5.61,5.61,0,0,0-1.82,1.54,5.79,5.79,0,0,0-.81,1.4,8.17,8.17,0,0,0-.49,1.77,18.11,18.11,0,0,0-.26,2.35c0,.88-.07,1.93-.07,3.14a23.2,23.2,0,0,0,.23,3.17,9.83,9.83,0,0,0,.89,3,5.66,5.66,0,0,0,1.84,2.16,6.39,6.39,0,0,0,6.17.09A4.55,4.55,0,0,0,147,91.13a11.2,11.2,0,0,0,.69-3.37C147.78,86.44,147.82,85,147.82,83.36Z"/>
	<path class="cls-1" d="M161.7,82.47c0,.31,0,.63,0,1s0,.73,0,1.23a30.12,30.12,0,0,0,.19,3.21,9.52,9.52,0,0,0,.82,3,5.43,5.43,0,0,0,1.86,2.23,5.49,5.49,0,0,0,3.28.89,8.08,8.08,0,0,0,3.38-.61A6.21,6.21,0,0,0,173.27,92a6.3,6.3,0,0,0,1.14-1.75c.25-.59.44-1.07.56-1.44l.7.14a12.89,12.89,0,0,1-.53,1.46,6.85,6.85,0,0,1-1.26,1.91A7.6,7.6,0,0,1,171.55,94a8.64,8.64,0,0,1-3.8.72,12.25,12.25,0,0,1-4.3-.74A9.88,9.88,0,0,1,160,91.78a9.76,9.76,0,0,1-2.23-3.32,11.25,11.25,0,0,1-.79-4.31,10.15,10.15,0,0,1,.81-4,11.21,11.21,0,0,1,5.57-5.83,9.32,9.32,0,0,1,6.89-.44,8.16,8.16,0,0,1,4.91,4.29,9.43,9.43,0,0,1,.86,4.28Zm9.59-.65a7.67,7.67,0,0,0,.1-1.21V79.44a9,9,0,0,0-.31-2.6,4.23,4.23,0,0,0-.83-1.63,3.05,3.05,0,0,0-1.31-.87,5.19,5.19,0,0,0-1.65-.25,4.9,4.9,0,0,0-2.61.63,4.59,4.59,0,0,0-1.63,1.7,9,9,0,0,0-.91,2.46,19.49,19.49,0,0,0-.39,2.94Z"/>
	<path class="cls-1" d="M179.35,93.37h3.59V74.69h-3.59V74h7.5v5h.09c.19-.4.46-.91.82-1.53a7.94,7.94,0,0,1,1.46-1.82A8,8,0,0,1,195,73.53,8,8,0,0,1,200,75a5.64,5.64,0,0,1,1.93,4.75v13.6h3.58V94H194.3v-.65h3.58v-15a4.83,4.83,0,0,0-.86-3,3.09,3.09,0,0,0-2.67-1.17,6.53,6.53,0,0,0-2.85.65,7.45,7.45,0,0,0-2.37,1.82,8.71,8.71,0,0,0-1.61,2.75,9.82,9.82,0,0,0-.58,3.44V93.37h3.59V94H179.35Z"/>
	<path class="cls-1" d="M63.34,178.79h4.48V151.15H63.34v-.57H86.46v7H86a21.12,21.12,0,0,0-1.14-2.77,7.85,7.85,0,0,0-1.45-2,5.42,5.42,0,0,0-2-1.23,8.74,8.74,0,0,0-2.83-.4H71.87v13.09h2.62a9.24,9.24,0,0,0,2.27-.24,3.34,3.34,0,0,0,1.59-.91,5.26,5.26,0,0,0,1.14-1.82,23,23,0,0,0,.91-3h.44v12.57H80.4c-.19-.78-.39-1.53-.59-2.26a6.71,6.71,0,0,0-.85-1.94,4,4,0,0,0-1.45-1.36,5,5,0,0,0-2.37-.5H71.87v14h4.48v.57h-13Z"/>
	<path class="cls-1" d="M90.3,178.79h4.49V151.15H90.3v-.57H98l1,0c.32,0,.65,0,1-.06l1,0,1,0a30.46,30.46,0,0,1,4.2.26,7,7,0,0,1,3.4,1.52,6.22,6.22,0,0,1,2,2.46,6.66,6.66,0,0,1,.59,2.59,7.77,7.77,0,0,1-.22,1.56,5.3,5.3,0,0,1-1,1.94,7.16,7.16,0,0,1-2.16,1.82,9.79,9.79,0,0,1-3.76,1.11v.08c.43,0,1,.15,1.76.3a10.58,10.58,0,0,1,2.27.75,8.53,8.53,0,0,1,2.12,1.39,4.78,4.78,0,0,1,1.37,2.25,10,10,0,0,1,.35,1.84c.06.68.12,1.39.16,2.12s.08,1.43.12,2.1a10.1,10.1,0,0,0,.22,1.7,6.27,6.27,0,0,0,.77,1.9,1.85,1.85,0,0,0,1.7.85,3.14,3.14,0,0,0,1.09-.21,2.79,2.79,0,0,0,1-.64l.36.44c-.13.11-.29.22-.46.35a3.78,3.78,0,0,1-.67.34,5,5,0,0,1-1,.26,8.34,8.34,0,0,1-1.43.1,7.67,7.67,0,0,1-2.69-.4,4,4,0,0,1-1.72-1.19,5.11,5.11,0,0,1-1-1.94,15.63,15.63,0,0,1-.43-2.69l-.28-3.68a7.66,7.66,0,0,0-.81-3.15,4.23,4.23,0,0,0-3.31-2.29c-.62-.06-1.16-.1-1.62-.1h-4v14.59h4.49v.57h-13Zm8.53-15.15h3.72a7,7,0,0,0,2.06-.29,3.57,3.57,0,0,0,1.6-1,4.86,4.86,0,0,0,1-1.92,11,11,0,0,0,.36-3.07,8.73,8.73,0,0,0-.54-3.37,4.6,4.6,0,0,0-1.42-1.92,4.51,4.51,0,0,0-1.94-.85,11,11,0,0,0-2.12-.21l-1.48,0a10.19,10.19,0,0,0-1.27.11Z"/>
	<path class="cls-1" d="M119.48,178.79H124V151.15h-4.49v-.57h23.13v7h-.45A21.17,21.17,0,0,0,141,154.8a7.64,7.64,0,0,0-1.46-2,5.26,5.26,0,0,0-2-1.23,8.69,8.69,0,0,0-2.83-.4H128v12.49h2.63a9.11,9.11,0,0,0,2.26-.25,3.38,3.38,0,0,0,1.6-.91,5.29,5.29,0,0,0,1.13-1.81,21.3,21.3,0,0,0,.91-3H137v12.58h-.45c-.19-.79-.38-1.54-.58-2.27a7.13,7.13,0,0,0-.85-1.94,4,4,0,0,0-1.46-1.35,4.77,4.77,0,0,0-2.36-.51H128v14.59h7.64a6.63,6.63,0,0,0,3.7-.95,8.43,8.43,0,0,0,2.41-2.26,9.46,9.46,0,0,0,1.37-2.73,13.86,13.86,0,0,0,.57-2.34h.44v8.85H119.48Z"/>
	<path class="cls-1" d="M147.94,178.79h4.49V151.15h-4.49v-.57h23.12v7h-.44a21.17,21.17,0,0,0-1.13-2.77,7.87,7.87,0,0,0-1.46-2,5.34,5.34,0,0,0-2-1.23,8.69,8.69,0,0,0-2.83-.4h-6.71v12.49h2.63a9.11,9.11,0,0,0,2.26-.25,3.38,3.38,0,0,0,1.6-.91,5.45,5.45,0,0,0,1.13-1.81,22.74,22.74,0,0,0,.91-3h.45v12.58H165c-.19-.79-.38-1.54-.59-2.27a7.11,7.11,0,0,0-.84-1.94,4,4,0,0,0-1.46-1.35,4.8,4.8,0,0,0-2.36-.51h-3.28v14.59h7.64a6.65,6.65,0,0,0,3.7-.95,8.57,8.57,0,0,0,2.41-2.26,9.72,9.72,0,0,0,1.37-2.73,14.9,14.9,0,0,0,.57-2.34h.44v8.85H147.94Z"/>
	<circle class="cls-2" cx="118.22" cy="118.22" r="117.65"/>
	<line class="cls-3" x1="28.4" y1="118.22" x2="206.64" y2="118.22"/>
</svg>