<?xml version="1.0" encoding="utf-8"?>
<!-- Generator: Adobe Illustrator 25.0.0, SVG Export Plug-In . SVG Version: 6.00 Build 0)  -->
<svg version="1.1" id="sec14_d02" xmlns="http://www.w3.org/2000/svg" xmlns:xlink="http://www.w3.org/1999/xlink" x="0px"
	 y="0px" viewBox="0 0 259.1 63" style="enable-background:new 0 0 259.1 63;" xml:space="preserve" width="259" height="63">
	<style type="text/css">
		.st0{fill-rule:evenodd;clip-rule:evenodd;fill:#221815;}
		.st1{fill-rule:evenodd;clip-rule:evenodd;fill:#D7000F;}
	</style>
	<path id="txt_x5F_main" class="st0" d="M22.3,23.2c0-0.1-0.1-0.2-0.2-0.3l-1.4-1.2c-0.1-0.1-0.3-0.2-0.5-0.2c-0.1,0-0.1,0-0.4,0.3
		l-1,1.1h-6c0-2.2,0-2.4,0-4.4v-0.9h6.5c0.2,0,0.4,0,0.4-0.2c0-0.2-0.1-0.3-0.2-0.4l-1.3-1c-0.1-0.2-0.3-0.3-0.5-0.3
		c-0.1,0.1-0.3,0.2-0.3,0.3l-0.8,1h-3.8v-4.6h7.6c0.2,0,0.3-0.1,0.4-0.3c0,0,0,0,0,0c0-0.2-0.1-0.3-0.2-0.4l-1.4-1.1
		c-0.1-0.1-0.3-0.2-0.4-0.2c-0.1,0-0.1,0-0.4,0.3l-0.9,1.1H7.6c0.4-0.6,0.7-1,1.2-1.8c0.2,0,1.2,0,1.2-0.5c0-0.2-0.1-0.3-0.2-0.4
		L7.6,8C7.5,9.2,7,10.3,6.4,11.2C5,13.8,3.2,16.1,1,18l0.1,0.1c2.5-1.4,4.5-3.3,6.1-5.7h4.4V17h-4l-1.9-1.1c0.1,0.5,0.2,1.2,0.2,1.8
		c0,0.3,0,1,0,3.8v1.4h-1c-1.3,0-2.7-0.1-4-0.2l0.6,1.1c1-0.2,2.1-0.3,3.1-0.3h7c0,1,0,1.2,0,1.5c0,0.2-0.1,4.6-0.1,4.6
		c0,0.6,0,0.9,0.5,0.9c0.6,0,1.1-0.4,1.1-1c0-0.1,0-0.1,0-0.2c0-0.4-0.1-2.7-0.1-3.2c0-0.6,0-0.8,0-2.6h9.1
		C22.1,23.5,22.3,23.4,22.3,23.2C22.3,23.2,22.3,23.2,22.3,23.2z M11.6,17.6c0,1.1,0,4.1,0,5.3H7.1v-5.3H11.6z M48.8,10.4
		c0-0.1-0.1-0.2-0.2-0.3l-1-0.9C47.5,9.1,47.4,9,47.3,9c-0.2,0.1-0.3,0.2-0.4,0.3l-0.5,0.6h-4.5l-1.6-0.8c0.2,1.7,0.3,3.3,0.2,5
		c0,0.5,0,2,0,2.4c0,0,0,0.4,0,0.5c0,0.2,0.1,0.5,0.3,0.5c0,0,0,0,0.1,0c0.3,0,0.6-0.2,0.7-0.4c0.1-0.1,0.1-0.3,0.1-0.5h5
		c0,0.4,0,4.7,0,5.6c0,1.2,0,3.8,0,5.1c0,0.7-0.3,0.7-0.8,0.7c-0.4,0-2.4-0.1-2.9-0.1v0.2c0.7,0.2,1.4,0.5,1.9,1
		c0.4,0.3,0.6,0.7,0.6,1.1c0.6-0.1,1.1-0.3,1.6-0.6c1-0.7,1-1.2,1-3.3c0-0.9-0.1-5.4-0.1-6.4c0-2.8,0-5.8,0-8.8
		C48.7,10.7,48.8,10.6,48.8,10.4L48.8,10.4z M46.6,12.9h-5v-2.4h5V12.9z M46.6,16h-5v-2.5h5V16z M43.3,19.2c0-0.1-0.1-0.2-0.2-0.3
		l-0.8-0.7c-0.1,0-0.2-0.1-0.3-0.1c-0.1,0-0.1,0-0.4,0.3l-0.3,0.4h-4.8L34.7,18c0.2,0.8,0.2,1.5,0.2,2.3c0,1.2,0,4.2-0.1,5.3
		c0,0.2-0.1,1.1-0.1,1.3c0,0.2,0.1,0.4,0.3,0.5c0.1,0,0.1,0,0.2,0c0.1,0,1.1,0,1-1.5h5c0,0.3-0.1,1.2,0.5,1.2c0.6-0.1,1-0.5,0.9-1.1
		c0-0.2-0.1-1.3-0.1-1.5c-0.1-1.7-0.1-3.7,0-4.6C42.8,19.8,43.1,19.5,43.3,19.2L43.3,19.2z M41.2,22h-5v-2.6h5.1L41.2,22L41.2,22z
		 M41.2,25.3h-5v-2.8h5.1L41.2,25.3L41.2,25.3z M38.1,10.3c0-0.1-0.1-0.2-0.2-0.3l-1.1-0.7c-0.1,0-0.2-0.1-0.3-0.1
		c-0.1,0-0.2,0.1-0.3,0.2l-0.4,0.5h-3.9L30,9c0.1,0.6,0.2,1.1,0.2,1.7c0,0.4,0,5.9,0,6.8c0,3.8,0,9.1-0.2,11L30,29.3
		c0,0.3,0.1,0.6,0.4,0.6c0.1,0,0.1,0,0.2,0c1.1,0,1.1-1.2,1.1-1.6c0-0.3-0.1-1.8-0.1-2.1c0-1.5,0-8.3,0-9.6H36
		c-0.1,0.3,0,0.5,0.3,0.7c0.1,0,0.1,0,0.2,0c0.5,0,1-0.5,1-1c0-0.2-0.1-2.3-0.1-2.5v-2.7C38,10.6,38.1,10.5,38.1,10.3L38.1,10.3z
		 M36,12.9h-4.5v-2.4H36V12.9z M36,16h-4.5v-2.5H36V16z M76.7,14.9c0-0.1-0.1-0.2-0.1-0.3l-1.2-1c-0.1-0.1-0.2-0.1-0.3-0.2
		c-0.1,0-0.2,0.1-0.3,0.2l-0.6,0.6h-6.5c0.8-1.6,1.2-2.6,1.6-3.7c0.1-0.1,0.8-0.4,0.8-0.5c0,0,0.1-0.1,0.1-0.3c0-0.1-0.1-0.2-0.2-0.3
		l-2.4-0.9c0.1,0.3,0.1,0.5,0.1,0.8c0,1.9-1.5,6.4-2.7,8.9l0.2,0.1c0.9-1.1,1.6-2.2,2.2-3.5h7c0,0.6,0,1.3,0,2.3c0,1.8,0,7-1.3,9.7
		c-0.5,1.1-0.9,1.3-1.6,1.3c-0.5,0-2.6-0.4-3.1-0.4l0,0c2,1.3,2.2,1.9,2.3,2.5c1.6-0.1,3-1.1,3.6-2.6c1.4-2.9,1.4-8.6,1.4-12
		c0.2-0.1,0.3-0.2,0.7-0.4C76.6,15.1,76.7,15,76.7,14.9L76.7,14.9z M70.6,21.8c0-1.3-1.3-2-3.1-2.9l-0.1,0.2c0.6,0.6,1,1.4,1.3,2.2
		c0.4,1.1,0.5,1.6,1.2,1.6C70.3,22.8,70.6,22.4,70.6,21.8C70.6,21.8,70.6,21.8,70.6,21.8L70.6,21.8z M62.6,9.5c0-0.1-0.1-0.2-0.2-0.3
		l-2.1-1c0,0.2,0,0.3,0,0.5c0,1.4-1.2,3.6-1.8,4.9c-0.6-0.3-1.2-0.5-1.9-0.7V13c0.7,0.6,1.2,1.3,1.5,2.1c0.5,1.2,0.7,1.5,1.1,1.5
		c0.5-0.1,0.9-0.6,0.8-1.1c-0.1-0.8-0.6-1.4-1.3-1.8c2-2.4,2.2-2.7,2.8-3.6C62.4,10,62.6,9.9,62.6,9.5L62.6,9.5z M65.5,25.2
		c0-0.7-0.9-2-3.1-3h0c0.7,0.8,1.1,1.7,1.3,2.7c0.3,1.1,0.4,1.4,0.9,1.4C65.1,26.2,65.6,25.8,65.5,25.2L65.5,25.2L65.5,25.2z
		 M65.8,20c0-1.2-2-2.3-3-2.8l-0.1,0.1c0.4,0.5,0.7,1,1,1.5l-3.8,0.3c1.5-1.7,3-3.5,4.4-5.4c0.9-0.1,1-0.3,1-0.5s-0.1-0.3-0.2-0.3
		l-2-1c0,2.1-3,6.4-3.7,7.2c-0.7,0.1-1.5,0.1-2.2,0.1c-0.6,0-1.1,0-1.6-0.2l0.5,1.8c0,0.2,0.2,0.4,0.4,0.4c0.3-0.2,0.4-0.4,0.5-0.7
		c0.5-0.1,0.8-0.2,3.3-0.6c0,1,0,5.4-0.1,8.1c0,0.2-0.1,1.2-0.1,1.4c0,0.4,0.1,0.8,0.5,0.8c0.5-0.1,0.9-0.5,1-1
		c0-0.2-0.1-1.6-0.1-1.9c0-1.3,0-1.9,0-7.7c0.9-0.1,1.7-0.3,2.5-0.5c0.1,0.2,0.2,0.4,0.3,0.8c0,0.5,0.4,0.9,0.9,1
		C65.5,20.9,65.8,20.5,65.8,20C65.8,20.1,65.8,20,65.8,20L65.8,20z M59.5,22.8c0-0.1-0.2-0.2-0.3-0.2l-1.8-0.7
		c-0.2,2.4-0.8,4.7-1.9,6.8h0.1c1.4-1.6,2.4-3.4,3-5.4C59.3,23.1,59.5,23,59.5,22.8L59.5,22.8z M197.4,16.7c0-1.6,0.1-3.2,0.3-4.8
		c0.1-0.4,0.4-1.1,0.4-1.2c0-0.9-2-1.3-2.4-1.3c-0.6,0-1.1,0.2-1.6,0.5c1.2,0.4,1.8,0.6,2,1.2c0.1,1.3,0.2,2.6,0.2,3.9
		c0,0.9-0.2,9.7-0.4,11c0,0.1-0.2,1.3-0.2,1.4c0,0.2,0.2,1.8,1,1.8c0.7,0,0.7-1.1,0.7-2.2c0-0.5-0.1-2.7-0.1-3.2c0-2.2,0-4.4,0-6.6
		c2,0.9,3.8,2.2,5.3,3.8c0.2,0.4,0.6,0.7,1.1,0.8c0.3,0,0.5-0.3,0.5-0.9c0-0.5-0.2-1-0.6-1.4C202.2,18.1,199.2,17.1,197.4,16.7
		L197.4,16.7z M213,11.6c1.4,0.6,2.7,1.5,3.9,2.6c0.7,0.7,0.9,0.9,1.4,0.9c0.4,0,0.8-0.3,0.8-0.7c0,0,0,0,0-0.1
		C219,12.8,215.9,11.6,213,11.6L213,11.6z M228.9,13.8c-2.8,3.3-6,6.2-9.6,8.7c-0.9,0.6-3.1,2.2-3.9,2.2c-0.7-0.2-1.3-0.8-1.5-1.5
		c-0.2,0.3-0.3,0.6-0.3,1c0,1,1.5,2.8,2.3,2.8c0.3,0,0.5-0.1,0.7-0.3c0.4-0.6,0.9-1.1,1.5-1.5c1.2-0.9,2.2-1.5,3.3-2.4
		c3.2-2.4,5.8-5.4,7.7-8.9L228.9,13.8z M248.3,28c5.4-0.5,8.9-4.5,8.9-8.9c0-4.9-4.3-7.5-8.8-7.5c-6.2,0-10.2,4.6-10.2,9.4
		c0,1.7,0.3,2.5,1.2,3.3c0.2,0.2,0.4,0.4,0.7,0.6c0.7,1,0.8,1.3,1.4,1.3c0.1,0,0.3-0.1,0.4-0.1c0.5-0.4,1-0.9,1.4-1.5
		c1.4-2.1,1.6-2.7,4.6-8.8c0.3-0.5,0.5-1,0.6-1.5c-0.1-0.7-0.5-1.4-1.2-1.8c0.3-0.1,0.6-0.1,0.9-0.1c3.5,0,7.5,2.2,7.5,6.4
		c0,1.3-0.3,6.5-7.5,8.9L248.3,28z M243.5,22.3c-0.4,0.8-0.8,1.5-1.4,2.1c-0.1,0.1-0.3,0.2-0.5,0.2c-0.9,0-2.1-1.6-2.1-3.4
		c0-4.8,4.1-8.3,6.8-8.5c0.4,0.4,0.7,0.9,0.7,1.5c-0.2,1.5-0.7,2.9-1.4,4.2L243.5,22.3z M22.2,43.1c0-1.2-1.1-2.2-2.3-2.2
		c-1.2,0-2.2,1.1-2.2,2.3c0,1.2,1,2.2,2.3,2.2C21.1,45.4,22.1,44.4,22.2,43.1C22.1,43.2,22.1,43.1,22.2,43.1L22.2,43.1z M21.4,43.1
		c0,0.8-0.7,1.5-1.5,1.5c-0.8,0-1.5-0.7-1.5-1.5s0.7-1.5,1.5-1.5C20.7,41.6,21.4,42.3,21.4,43.1L21.4,43.1z M5,60.9
		c2.4-0.8,4.6-2.1,6.4-3.8c2.6-2.5,3.6-4.6,5.2-8.9c0.1-0.5,0.4-0.9,0.8-1.1c0.7-0.4,0.8-0.4,0.8-0.6c0-0.5-1.7-1.8-1.9-1.8
		c-0.3,0.2-0.6,0.4-0.9,0.6c-0.3,0.1-9.6,1-10.6,1c-0.4,0-0.7,0-1.1-0.1c-0.5-0.4-0.9-0.8-1.2-1.3c-0.1,0.2-0.1,0.5-0.1,0.7
		c0,0.7,0.3,1.3,0.8,1.8c0.2,0.3,0.6,0.5,0.9,0.7c0.2,0,0.3-0.1,0.5-0.2c0.2-0.1,0.4-0.2,0.7-0.4c3.4-0.6,6.9-1,10.4-1.2
		c-0.7,3-1.9,5.8-3.7,8.3c-1.9,2.5-4.3,4.6-7,6.2L5,60.9z M28.3,43c0.2,1.8,1.3,2.3,1.8,2.3c0.6,0,6-0.6,7.2-0.6
		c1.9-0.1,2.5-0.2,2.5-0.8s-1.3-0.8-1.7-0.8c-0.4,0.1-0.8,0.2-1.1,0.4c-1.9,0.4-3.9,0.6-5.9,0.7C30.1,44.3,29,43.9,28.3,43L28.3,43z
		 M28.8,61.3c2.2-0.4,4.2-1.4,5.9-2.8c2.4-2.2,4.3-5,5.6-8c0.1-0.5,0.4-0.9,0.8-1.1c0.7-0.3,0.8-0.3,0.8-0.6
		c-0.5-0.7-1.1-1.3-1.9-1.6c-0.1,0-0.3,0.1-0.3,0.2c-0.3,0.3-0.6,0.5-1,0.6c-0.6,0.2-8.7,0.8-9.6,0.8c-1.1,0-2.1-0.6-2.6-1.5
		c-0.1,0.2-0.1,0.5-0.1,0.7c0.2,1.3,1.1,2.3,2.3,2.7c0.3-0.1,0.5-0.2,0.7-0.4c1.1-0.7,8-1.3,9.8-1.5c-0.6,3.6-4.3,9.7-10.3,12.3
		L28.8,61.3z M47.9,59.6c5.6-1.2,9.1-5.5,10.6-7.4c2.5,1.7,4.5,4,5.9,6.6c0.1,0.3,0.4,0.5,0.7,0.5c0.4,0,0.8-0.4,0.7-0.9c0,0,0,0,0,0
		c0-2.4-3.9-5.1-7.1-6.6c1.4-1.8,2.5-3.7,3.4-5.8c0-0.1,0.1-0.2,0.3-0.3c0.8-0.2,0.9-0.3,0.9-0.6c-0.5-0.7-1.1-1.3-1.9-1.6
		c-0.1,0-0.2,0-0.3,0.1c-0.3,0.2-0.6,0.5-1,0.6c-2.2,0.5-4.4,0.8-6.7,1c-0.5,0-0.9-0.3-1.2-0.7c-0.2-0.2-0.4-0.5-0.5-0.8
		c-0.1,0.4-0.2,0.7-0.2,1.1c0,0.4,0.2,0.9,0.4,1.2c0.2,0.4,0.6,0.7,1,0.9c0.2,0,0.4-0.1,0.6-0.2c0.9-0.4,1.8-0.7,2.8-0.9
		c0.7-0.2,3.9-0.7,4.6-0.9c-2.2,6.1-7.8,12.3-13.1,14.5L47.9,59.6z M75.5,61c1.6-0.7,3-1.8,4-3.1c1.5-1.8,2.4-3.7,2.8-7.9
		c1.3-0.1,2.7-0.1,4.1-0.1c1.2,0,2.4,0.1,3.6,0.4c0.2,0,0.3,0,0.5,0.1c0.3,0,0.5-0.2,0.5-0.5c0-0.8-1.8-1.3-2.4-1.3
		c-0.2,0-1.1,0.2-1.3,0.2c-1.3,0.2-3.5,0.3-4.8,0.4c0-0.7,0.1-1.4,0.3-2.1c0.2-0.2,0.3-0.4,0.3-0.7c0-0.1-0.1-0.3-0.1-0.4
		c-0.6-0.4-1.2-0.6-1.9-0.8c0.4-0.1,1.2-0.3,2.3-0.6C84.1,44.2,85,44,86,44c0.1,0,0.3,0,0.3-0.2c0-0.5-1.9-1.9-2.8-1.9
		c-0.2,0-0.4,0-0.5,0.1c0.7,0.3,0.7,0.5,0.7,0.6c0,0.1,0,0.1-0.1,0.2c-0.3,0.5-6,2.7-9.1,3V46c1.8,0,3.6-0.2,5.4-0.6
		c0.5,0.3,0.8,0.7,1,1.2c0.1,0.9,0.2,1.8,0.2,2.7c-2.8,0.3-3.1,0.4-5.6,0.7c-0.6,0.1-1.2,0.1-1.8,0.1c-0.6,0-1.3-0.2-2.2-1.5
		c-0.1,0.6,0,1.2,0.3,1.8c0.4,0.6,1,1.1,1.7,1.4c0.1,0,0.7-0.3,0.9-0.3c1.3-0.6,3-1,6.7-1.4c-0.4,5-2.1,7.7-5.6,10.8L75.5,61z
		 M95.7,48.5c0.7,0.8,1.3,1.7,1.8,2.6c0.5,0.9,0.6,1,0.8,1c0.4,0,0.7-0.3,0.7-0.7c0,0,0,0,0-0.1C99,50.6,97.4,48.7,95.7,48.5
		L95.7,48.5z M100.3,47.5c0.7,0.8,1.2,1.6,1.5,2.6c0.3,0.9,0.4,1.1,0.8,1.1c0.4,0,0.7-0.3,0.6-0.7c0,0,0-0.1,0-0.1
		C103.2,49,101.6,48,100.3,47.5L100.3,47.5z M97.9,60.8c2.1-0.6,4-1.7,5.5-3.2c2-2,3.5-4.4,4.6-7c0.1-0.2,0.3-0.5,0.4-0.7
		c0.3-0.2,0.4-0.5,0.5-0.8c-0.4-0.8-1.1-1.4-2-1.5c-0.4,0-0.8,0.1-1.1,0.2c1,0.5,1.3,0.8,1.3,1.2c0,0.5-0.2,1.9-1.9,4.7
		c-3.2,5-5.9,6.2-7.3,6.8L97.9,60.8z M114.9,61.2c4.8-1.3,9.8-5,13.1-11.9c0.2-0.8,0.8-1.4,1.5-1.7c0.5-0.3,0.6-0.3,0.6-0.4
		c0-0.3-0.5-0.7-1.5-1.5c-0.1-0.1-0.2-0.2-0.3-0.2c-0.3,0.1-0.5,0.3-0.8,0.5c-1.5,0.4-3.1,0.7-4.7,0.7c-0.3,0-0.6,0-0.9-0.1
		c0.4-0.7,0.9-1.3,1.5-1.9c0.2-0.1,0.3-0.4,0.4-0.6c0-0.3-0.2-0.6-0.5-0.7c-1.2-0.8-1.5-0.8-1.9-0.8c-0.4,0-0.8,0-1.2,0.2
		c0.9,0.4,1.3,0.7,1.3,1.2c0,0.9-2.6,5.5-6.4,8.7l0.1,0.1c1.2-0.5,2.3-1.2,3.2-2.1c1.2-1.1,2.2-2.3,3.1-3.6c0.4,0.3,0.9,0.4,1.4,0.4
		c0.6,0,3.8-0.4,4.5-0.5c-2.4,6-6.9,11-12.5,14.1L114.9,61.2z M142.1,57.2c0.8,0.9,1.5,1.9,2,3c0.2,0.9,0.2,1,0.6,1
		c0.4-0.1,0.9-0.2,1.2-0.5c2.6-1.9,3.3-7.5,3.3-9.8c0-1.3,0-3.8-2.8-3.8c-0.6,0-1.2,0.1-1.8,0.2c0.4-1.1,0.9-2.2,1.5-3.3
		c0.2-0.2,0.2-0.5,0.3-0.8c0-0.9-1.8-1.5-2.7-1.5c-0.3,0-0.7,0.1-0.9,0.3c0.2,0.1,1.9,0.5,1.9,1.6c-0.2,1.4-0.6,2.7-1.2,4
		c-1.3,0.4-2.9,0.8-4,1.1c-0.3,0.2-0.7,0.3-1.1,0.3c-0.6,0-1-0.3-1.6-1.3c-0.1,0.2-0.1,0.4-0.1,0.6c-0.3,0.9,0.3,1.9,1.2,2.2
		c0.6,0.2,1.2,0.1,1.7-0.3c1.1-0.7,2.3-1.2,3.5-1.6c-1.2,3.2-2.7,6.3-4.5,9.2c-0.8,1.3-0.8,1.4-0.8,1.7c-0.1,0.4,0.2,0.9,0.6,1.1
		c0.2,0,0.4-0.1,0.5-0.3c1.6-2.2,3.5-7.1,5.5-12c0.7-0.2,1.4-0.4,2.1-0.4c1.6,0,1.6,1.6,1.6,2.7c0,2.6-0.6,5.2-1.7,7.5
		c-0.2,0.4-0.5,0.7-1,0.7c-0.6,0-0.9-0.2-3.1-1.7L142.1,57.2z M153.3,42.2c1.2,0.4,2.3,0.9,3.3,1.5c0.4,0.4,0.8,0.8,1.3,1
		c0.2,0,0.4-0.3,0.4-0.5c0-1.7-2.6-2.1-3.7-2.1C154.1,42.1,153.8,42.2,153.3,42.2L153.3,42.2z M152.2,52.5c0.5,0.1,2.9,0.5,3.5,0.7
		c0.1,0,0.9,0.5,1,0.5c0.4,0,0.5-0.6,0.5-1.1c0-3-4.4-6.2-6.5-6.2c3.3,2.1,4.7,4.4,4.7,4.8c0,0.3-0.3,0.6-0.6,0.7
		c-0.8,0.3-1.7,0.4-2.5,0.5L152.2,52.5L152.2,52.5z M151.3,44.1c1.1,0.4,2.2,1,3.1,1.7c0.3,0.4,0.7,0.7,1.1,0.9
		c0.3,0,0.5-0.3,0.5-0.6c0-1.4-2.8-2.1-3.9-2.1C151.8,44,151.6,44,151.3,44.1L151.3,44.1z M183.7,52.4c0-0.2-0.1-0.3-0.2-0.4
		l-1.1-0.9c-0.1-0.1-0.3-0.2-0.4-0.2c-0.2,0.1-0.3,0.2-0.4,0.3L181,52h-1.6c0-0.3,0-2.3,0-2.7c0-0.2,0-0.4,0-0.9
		c0.2-0.1,0.3-0.2,0.5-0.2c0.2,0,0.3-0.2,0.3-0.3c0-0.1-0.1-0.3-0.2-0.4l-0.8-0.8c-0.1,0-0.2-0.1-0.3-0.1c-0.1,0-0.2,0-0.3,0.1
		l-0.7,0.6h-5.7l-1.5-0.9c0.1,0.9,0.1,1.2-0.4,5.6c-1.1,0-2.2-0.1-3.3-0.2l0.6,1.1c0.9-0.2,1.7-0.2,2.6-0.3c-0.1,0.8-0.6,4.5-0.8,5.4
		c0,0.1-0.3,1.4-0.3,1.5c0,0.3,0.2,0.5,0.5,0.5c0,0,0,0,0.1,0c0.4,0,0.7-0.2,0.9-0.5c0.1-0.4,0.2-0.7,0.2-1.1h6.8
		c-0.3,1.9-0.9,2.1-1.7,2.1c-0.7,0-1.5-0.1-2.2-0.3l0,0.1c0.9,0.4,1.6,1.1,1.8,2.1c2.7-0.4,3.1-2.1,3.4-4h4.1c0.1,0,0.4,0,0.4-0.2
		c0-0.2-0.1-0.3-0.2-0.4l-1.1-0.9c-0.1-0.2-0.2-0.3-0.4-0.3c-0.1,0-0.1,0-0.4,0.3l-0.8,0.9H179c0.2-1.7,0.3-4,0.3-5.2h3.9
		C183.4,52.6,183.6,52.6,183.7,52.4L183.7,52.4z M178.2,47.9c0,0.6,0,1-0.1,4.1h-2.6c0.1-0.6,0.3-3.5,0.4-4.1H178.2z M174.5,47.9
		l-0.3,4.1h-2.6c0.1-0.6,0.4-3.5,0.5-4.1H174.5L174.5,47.9z M178.1,52.6c0,1.7-0.1,3.5-0.3,5.2h-2.9c0.2-1.6,0.3-2,0.6-5.2H178.1
		L178.1,52.6z M174.1,52.6c-0.3,3-0.3,3.3-0.6,5.2h-2.6l0.6-5.2H174.1L174.1,52.6z M182.1,44.3c0-0.2-0.1-0.3-0.2-0.4l-1.1-0.9
		c-0.1-0.1-0.3-0.1-0.5-0.2c-0.2,0-0.3,0.1-0.4,0.3l-0.7,0.8h-7.3c0.3-0.6,0.6-1.1,0.9-1.7c0.8-0.2,0.8-0.2,0.8-0.4
		c0-0.2-0.1-0.3-0.3-0.4l-1.9-1c0,0.5,0,1.1-0.2,1.6c-0.7,2.4-1.9,4.6-3.4,6.6l0.1,0.1c1.4-1.2,2.6-2.6,3.5-4.2h10.1
		C181.9,44.5,182.1,44.5,182.1,44.3L182.1,44.3z M166.9,43.6c-0.1-0.7-0.4-1.3-0.9-1.7c-0.7-0.5-1.4-0.9-2.2-1.1l-0.1,0.1
		c0.5,0.5,0.8,1.1,1.1,1.7c0.7,1.6,0.8,1.8,1.4,1.8c0.4,0,0.7-0.3,0.8-0.7C166.8,43.7,166.8,43.6,166.9,43.6L166.9,43.6z M164.9,49.3
		c0-1.4-1.7-1.9-3.1-2.3l-0.1,0.2c0.6,0.5,1,1.1,1.4,1.8c0.5,0.9,0.6,1.2,1.1,1.2C164.6,50.1,164.9,49.8,164.9,49.3L164.9,49.3z
		 M167.8,46.2h-0.4c-0.9,3-2.2,5.9-3.7,8.7c-0.3,0.5-1,0.7-1.5,0.5l0,0.2c1,0.5,1.6,1.6,1.4,2.7c0,0.4-0.2,2-0.2,2.4
		c-0.1,0.6,0.3,1.2,0.9,1.3c0,0,0.1,0,0.1,0c0.6,0,1-0.5,0.9-1.1c0,0,0-0.1,0-0.1c0-0.6-0.1-1.1-0.3-1.6c-0.3-0.6-0.4-1.2-0.4-1.9
		c0-0.7,0.2-1.4,0.5-2.1C165.7,53.7,166,52.3,167.8,46.2L167.8,46.2z M193.6,51.3c-1.1,2.6-1.5,3.6-2.2,5.9c0,0.2-0.1,0.3-0.3,0.4
		c-0.3,0-0.7-1.5-0.7-3.5c0.1-2.7,0.6-5.4,1.4-8c0.2-0.4,0.3-0.9,0.4-1.3c0-0.9-1.3-2.4-2.4-2.2c0.5,0.6,0.8,1.4,0.8,2.2
		c0,0.6-0.1,1.2-0.1,1.8l-0.8,5.2c-0.1,0.8-0.2,1.5-0.2,2.3c-0.1,2.1,0.3,4.3,1.3,6.2c0.2,0.4,0.6,0.7,1,0.8c0.4,0,0.5-0.3,0.5-0.6
		c0-0.1-0.1-1.5-0.1-1.7c0.1-0.9,0.2-1.9,0.5-2.8c0.2-0.6,1-3.8,1.2-4.6L193.6,51.3z M200.2,47.9c1.4-0.9,2.9-1.5,4.5-1.8
		c0.9-0.2,1.2-0.3,1.2-0.7c0-0.7-2-1.1-3.4-1.1c-2,0-3.9,0.8-5.4,2.1c1.5-0.6,3.1-0.9,4.7-1c0.3,0,0.5,0,0.8,0.1c0,0.3-2,1.8-2.5,2.3
		L200.2,47.9z M196.7,54.4c-0.1,0.2-0.1,0.5-0.1,0.7c0,1.2,0.6,2.3,1.7,2.8c1.5,0.9,5.4,1,6.5,1c1.5,0,2.3,0,2.3-0.6
		s-1.3-0.9-1.7-0.9H205c-0.8,0.2-1.7,0.2-2.5,0.2c-1.4,0-2.7-0.2-4-0.7C197.4,56.4,197.1,55.6,196.7,54.4L196.7,54.4z M233.4,44.5
		c0-0.2-0.1-0.3-0.3-0.4l-1.1-1c-0.1-0.1-0.3-0.2-0.5-0.3c-0.2,0.1-0.3,0.2-0.4,0.3l-1,1.1h-4.6c0-0.3,0-1.5,0-1.7
		c0.8-0.5,0.8-0.6,0.8-0.8c-0.1-0.2-0.2-0.3-0.4-0.3l-2.1-0.5c0.3,1.1,0.4,2.2,0.4,3.3h-2c-1.2,0-2.8-0.1-4-0.2l0.6,1.1
		c1-0.2,2.1-0.3,3.1-0.3h1.7c-0.2,1.2-0.5,2.4-0.9,3.5c-0.6,0.1-1.2,0.1-1.8,0.1c-0.6,0-1.3,0-1.9-0.2l0.9,1.9
		c0.1,0.3,0.2,0.3,0.3,0.3c0.3-0.1,0.5-0.3,0.6-0.5c3.4-0.7,3.9-0.9,8.6-1.9c0.3,0.3,0.6,0.7,0.8,1.1c0.5,0.7,0.6,0.8,1,0.8
		c0.4,0,0.7-0.2,0.7-0.6c0-0.1,0-0.1,0-0.2c0-1.6-3.4-2.7-4.3-2.9v0.2c0.6,0.4,1.1,0.8,1.6,1.3c-4.4,0.5-4.6,0.5-6.3,0.6
		c1.2-1.6,1.3-1.7,2.7-3.5h7.4C233.2,44.8,233.3,44.7,233.4,44.5C233.3,44.5,233.3,44.5,233.4,44.5L233.4,44.5z M234.2,59.9
		c0,0,0-0.1-0.1-0.2c-0.2-0.1-0.3-0.2-0.4-0.3c-0.2-1.1-0.4-2.1-0.4-3.2h-0.1c-0.1,0.9-0.3,1.8-0.6,2.7c-0.2,0.5-0.4,1.3-2.2,1.3
		c-0.9,0-1.4-0.1-1.4-0.7v-3.4c0-1.5,0.1-3.5,0.1-4.1c0.2-0.2,0.6-0.5,0.7-0.6c0.1,0,0.1-0.1,0.1-0.2c0-0.2-0.2-0.2-0.3-0.2l-1.8-0.6
		c0.1,0.5,0.1,1.1,0.1,1.6c0,1.1,0,3.9,0,4.7c0,1.3-0.1,2.6-0.1,3.2c0,1.4,1,1.5,3.2,1.5c1.1,0.1,2.1-0.2,3-0.8
		C234.1,60.4,234.2,60.2,234.2,59.9L234.2,59.9z M217,43.6c0-1.4-1.9-2-3.3-2.4v0.1c0.7,0.6,1.2,1.4,1.5,2.2c0.1,0.5,0.5,0.9,1,1
		C216.6,44.5,217,44.1,217,43.6L217,43.6z M225.9,51.3c0-0.1-0.1-0.1-0.4-0.2l-1.6-0.5c0.2,0.9,0.3,1.8,0.2,2.7c0,1.8-0.2,5.4-0.2,7
		c0,0.1,0,0.6,0,0.7c0,0.2,0,0.4,0.4,0.4c0.5,0,0.9-0.3,1-0.7c0-0.1,0-0.6,0-0.7c0-2.2-0.1-4.4-0.1-6.5c0-0.4,0-0.8,0.1-1.4
		C225.5,51.9,225.7,51.6,225.9,51.3L225.9,51.3z M215.4,49.7c0-1.2-1.7-2.1-3.2-2.1v0.1c0.7,0.5,1.2,1.2,1.6,1.9c0.3,0.6,0.5,1,0.9,1
		C215.1,50.6,215.5,50.2,215.4,49.7C215.4,49.7,215.4,49.7,215.4,49.7L215.4,49.7z M222.4,51.9c0-0.2-0.1-0.4-0.3-0.4l-1.9-0.4
		c0.1,0.5,0.2,1,0.2,1.5c0,5.4-2.2,7.7-4.2,9.3l0.1,0.1c3.8-1.7,5.1-4.1,5.5-9.4C222.3,52.2,222.4,52.1,222.4,51.9L222.4,51.9z
		 M218.4,46.4l-0.2-0.1c-0.4,1.2-2.8,7.7-3.1,8.2c-0.5,1-0.9,1.5-1.9,1.5h-0.5v0.1c1,0.3,1.6,1.3,1.5,2.3c0,0.3-0.2,2-0.2,2
		c-0.1,0.5,0.3,1,0.8,1.1c0,0,0,0,0.1,0c0.6,0,1.1-0.6,1.1-1.2c0-0.6-0.2-1.2-0.4-1.7c-0.1-0.4-0.2-0.7-0.2-1.1c0.1-1,0.3-2,0.7-3
		C217,51.8,218,48.6,218.4,46.4L218.4,46.4z M258.6,52.6c0-0.2-0.1-0.2-0.4-0.3l-2.2-0.7c0.3,0.8,0.4,1.2,0.4,4.1c0,0.8,0,1.3,0,3.3
		h-6.8v-0.1l0-8.6v-0.5h5.4c0,0.7,0,0.8,0.4,0.8c0.5,0.1,1-0.2,1.1-0.7c0,0,0-0.1,0-0.1c0-0.8-0.1-4.7-0.1-5.6
		c0.4-0.1,0.7-0.3,0.9-0.7c-0.1-0.2-0.2-0.3-0.4-0.3l-2.2-0.8c0.2,1,0.4,1.6,0.3,6.8h-5.4c0-5.3,0-5.9,0-6.8c0.4-0.1,0.7-0.4,0.8-0.8
		c-0.1-0.2-0.2-0.3-0.4-0.3l-2.4-0.8c0.3,1,0.5,2,0.5,3c0,0.8,0.1,4.8,0.1,5.7H243c-0.1-3-0.1-3.4-0.1-4.4c0-0.3,0-0.6,0-0.9
		c0.4-0.1,0.7-0.3,0.8-0.7c0-0.2-0.2-0.2-0.3-0.3l-2.1-0.7c0.3,1,0.4,2,0.3,3c0,0.5,0,1.1,0,1.6s0,3,0,3.6c0,0.3,0.4,0.3,0.5,0.3
		c0.5,0.1,0.9-0.3,1-0.8c0,0,0-0.1,0-0.1h5.2c0,3,0,6.2,0,9.2h-6.7c-0.1-2.4-0.1-2.8-0.1-3.8c0-0.8,0-1.3,0-1.9
		c0.4-0.2,0.7-0.4,0.8-0.8c-0.1-0.2-0.2-0.3-0.4-0.3l-2.1-0.7c0.3,1,0.4,2,0.3,3c0,1.9,0,3.7-0.1,5.6c0,0.1-0.1,0.9-0.1,1.1
		c0,0.6,0.3,0.6,0.5,0.6c0.5,0,1-0.3,1.1-0.8c0-0.3,0-0.8,0-1.4h14.9c0,1.6,0,1.8,0.5,1.8c0.5,0,1-0.4,1-0.9c0-0.2,0-1.1,0-1.3
		c0-0.7-0.1-4.3-0.1-5.9C258.2,53.2,258.5,53,258.6,52.6L258.6,52.6z"/>
	<path id="txt_x5F_num" class="st1" d="M100.1,22c0-4.3-3.6-6.3-5.7-7.5c1.7-1.1,4.4-3,4.4-6.4c0-3.3-2.9-5.6-6.4-5.6
		c-3.9,0-7.2,2.9-7.2,6.6c0,4,3.4,5.7,5.4,6.7c-3.7,2.1-6.4,3.8-6.4,7.3c0,4.4,3.9,6.4,7.6,6.4C97,29.5,100.1,26.1,100.1,22L100.1,22
		z M96.8,8.5c0,3-2.4,4.8-3.4,5.5c-1.5-0.6-2.8-1.3-4.1-2.2c-1.3-0.8-2-2.1-2-3.6c0-2.6,2.1-4.6,4.7-4.6c0.1,0,0.1,0,0.2,0
		c2.6,0,4.7,2.1,4.7,4.7C96.8,8.4,96.8,8.4,96.8,8.5L96.8,8.5z M98.1,22.8c0,3.1-2.4,5.6-5.5,5.6c-0.1,0-0.2,0-0.3,0
		c-2.8,0.1-5.2-2-5.3-4.8c0-0.2,0-0.4,0-0.6c0-3.5,2.7-5.4,4.7-6.8C95.4,18.1,98.1,19.5,98.1,22.8L98.1,22.8z M122.6,16
		c0-7.2-3-13.5-7.9-13.5c-5,0-7.9,6.4-7.9,13.5c0,7.2,3,13.5,7.9,13.5S122.6,23.2,122.6,16L122.6,16z M120,16
		c0,9.6-2.8,12.5-5.3,12.5c-2.6,0-5.3-3.2-5.3-12.5c0-9.2,2.6-12.5,5.3-12.5C117.2,3.5,120,6.4,120,16L120,16z M145.1,16
		c0-7.2-3-13.5-7.9-13.5c-5,0-7.9,6.4-7.9,13.5c0,7.2,3,13.5,7.9,13.5S145.1,23.2,145.1,16L145.1,16z M142.5,16
		c0,9.6-2.8,12.5-5.3,12.5c-2.6,0-5.3-3.2-5.3-12.5c0-9.2,2.6-12.5,5.3-12.5C139.7,3.5,142.5,6.4,142.5,16L142.5,16z M184.4,3.3
		c0-0.2-0.2-0.4-0.4-0.5l-2.3-1.9c-0.2-0.2-0.4-0.3-0.6-0.4c-0.1,0-0.2,0-0.5,0.4l-1.8,1.9h-20c-0.7,0-3.2,0-5.8-0.2l0.8,1.5
		c1.5-0.2,3-0.4,4.5-0.4h6.2c0.2,0.6,0.2,1.3,0.2,1.9c0,0.9-0.5,11.5-3.9,16.9c-2,3.4-4.9,6.1-8.4,7.8l0.2,0.4
		c11-3.4,12.8-14.1,13.4-18.1h10.8c0.3,4.2-0.1,8.5-1.1,12.6c-0.2,1.4-1.4,2.4-2.8,2.3c-2-0.1-4.1-0.4-6.1-0.8l-0.1,0.2
		c3.5,1.7,4.1,2.3,4.5,4c4.9-0.5,6-3.4,6.4-4.5c0.7-1.8,1.4-6.4,1.4-12.8c0.9-0.6,1.2-0.8,1.2-1.1c0-0.3-0.1-0.5-0.4-0.7l-1.7-1.3
		c-0.1-0.1-0.2-0.1-0.4-0.1c-0.2,0-0.4,0.1-0.6,0.3l-1.1,1.1h-9.7c0.3-1.9,0.5-3.9,0.6-5.8c1.1-0.7,1.3-0.7,1.3-1.2
		c-0.1-0.2-0.2-0.4-0.4-0.5l-0.9-0.6h17.1C184.1,3.7,184.4,3.6,184.4,3.3L184.4,3.3z"/>
</svg>
