<?xml version="1.0" encoding="utf-8"?>
<!-- Generator: Adobe Illustrator 25.0.0, SVG Export Plug-In . SVG Version: 6.00 Build 0)  -->
<svg version="1.1" id="three_points" xmlns="http://www.w3.org/2000/svg" xmlns:xlink="http://www.w3.org/1999/xlink" x="0px"
	 y="0px" viewBox="0 0 616 155" style="enable-background:new 0 0 616 155;" xml:space="preserve" width="616" height="155">
	<style type="text/css">
		.st0{fill:#9D1A5B;enable-background:new    ;}
		.st1{fill-rule:evenodd;clip-rule:evenodd;fill:#FFFFFF;}
		.st2{fill:none;stroke:#C9517C;stroke-width:4;stroke-miterlimit:10;}
	</style>
	<g>
		<circle class="st0" cx="77.5" cy="77.5" r="77.5"/>
		<path id="point01" class="st1" d="M43.2,71.4c0-1.9-3.2-2-4.2-2c0.8,0.4,1.5,0.9,2,1.5c1,1.2,1.1,1.3,1.5,1.3
			C43,72.2,43.3,71.8,43.2,71.4C43.2,71.4,43.2,71.4,43.2,71.4z M41.1,73.1c0-1.8-3-2.3-4.1-2.3c0.9,0.6,1.7,1.4,2.4,2.2
			c0.2,0.4,0.6,0.7,1.1,0.8C40.8,73.8,41.1,73.5,41.1,73.1C41.1,73.1,41.1,73.1,41.1,73.1L41.1,73.1z M41.2,83.3
			c0-2.2-4.2-4.5-6.1-4.8c1.3,1.1,2.5,2.4,3.3,4c1.2,1.9,1.4,2.2,1.8,2.2C40.8,84.5,41.2,83.9,41.2,83.3L41.2,83.3z M41.2,76.3
			c0-1-1.7-1.7-2.3-1.7c-0.2,0-0.5,0.1-0.7,0.2c-1.5,0.3-3.1,0.5-4.6,0.6c0-1,0.1-2,0.3-3c0.1-0.3,0.2-0.6,0.3-0.9
			c0-0.7-1.7-1.6-2.8-1.6c-0.6,0-1.1,0.2-1.6,0.7c1.2,0.4,1.6,0.6,1.9,1.1c0.3,0.5,0.3,1,0.4,3.9c-0.6,0.1-4.9,0.5-5.2,0.5
			c-1.2,0-2.2-1.5-2.3-1.8c-0.1,0.4-0.1,0.7-0.2,1.1c0,1,1.2,2.8,2.2,2.8c0.3,0,0.5-0.1,0.7-0.3c1.5-0.5,3.1-0.9,4.7-1
			c0,1.8,0,2.7,0,3.8c0,1.4,0,2.7-0.2,4.1c0,0.1-0.1,0.2-0.7,0.2c-0.7,0-1.4-0.1-2.1-0.3v0.1c1.5,1.2,1.8,1.4,2.3,2.4
			c0.6,1.2,0.6,1.3,1.1,1.3c0.5-0.1,0.9-0.5,0.9-1c0.2-0.7,0.3-1.4,0.3-2.1c0,0-0.1-1.8-0.2-2c-0.1-1.4-0.1-5.8-0.1-6.7
			c0.4,0,0.9-0.1,1.8-0.1c1.5,0,3,0.1,3.3,0.1c0.3,0,1.7,0.2,2,0.2C40.9,76.9,41.2,76.9,41.2,76.3L41.2,76.3z M28.8,78.5
			c-0.8,1.5-2,2.7-3.3,3.7c-0.8,0.4-1.3,1.1-1.5,1.9c0,0.6,0.4,1,1,1.1C26.6,85.2,28.4,82.5,28.8,78.5L28.8,78.5z M57.7,71.2
			c0-0.6-1.7-1.3-2.8-1.3c-0.6,0-1.3,0.2-1.7,0.7c2.1,0.4,2.2,0.5,2.2,3.8c0,2.3-0.1,4.7-0.5,7c-0.6,2.9-2.4,5.5-4.9,7l0.1,0.2
			c1.7-0.3,3.3-1.2,4.4-2.5c2.4-2.6,2.7-5.6,2.8-9.9c0-0.9,0-2.4,0.1-3.3C57.4,72.6,57.7,71.5,57.7,71.2z M49.7,72.4
			c0-0.7-2.2-1.4-2.8-1.4c-0.5,0.1-1,0.3-1.4,0.6c1.9,0.5,1.9,0.9,1.9,2.6c0,1.2,0,2.8-0.1,3.5c0,0.4-0.2,1.3-0.2,1.5
			c-0.1,0.9,0.4,1.7,1.3,2c0.8,0,0.8-1.6,0.8-1.9c0-0.5-0.1-3.1-0.1-3.7c-0.1-0.9,0-1.8,0.4-2.6C49.7,72.8,49.7,72.6,49.7,72.4
			L49.7,72.4z M70.6,83.9c0.1-0.6,0.8-3.6,1-4.3c0.3-1.1,0.3-1.2,0.5-1.3c0.6-0.4,0.6-0.4,0.6-0.6c-0.4-0.7-1.1-1.3-1.9-1.7
			c-0.3,0.2-0.6,0.3-0.8,0.5c-1.5,0.4-3,0.6-4.5,0.7c-0.7,0-1.3-0.4-1.7-1c-0.1,0.2-0.1,0.4-0.1,0.6c0.1,0.9,0.7,1.7,1.5,2
			c0.1,0,1.3-0.4,1.6-0.5c1.1-0.3,2.2-0.5,3.4-0.7c-0.2,2.1-0.5,4.3-1,6.4c-0.5,0.1-2.8,0.3-3.3,0.3c-0.5,0.1-3,0.4-3.4,0.4
			c-0.8-0.1-1.6-0.5-2-1.2c0,0.2-0.1,0.5-0.1,0.7c0.1,1.1,0.9,2,1.9,2.3c0.1,0,0.7-0.3,0.9-0.3c2.5-0.8,5.2-1.2,7.8-1.2
			c1.3-0.1,2.6,0.1,3.9,0.4c0.3,0.1,0.6,0.2,1,0.2c0.3,0,0.6-0.2,0.6-0.5c0,0,0,0,0-0.1c0-0.8-1.5-1.6-1.9-1.6c-0.1,0-0.9,0.2-1,0.2
			C73.3,83.9,71.2,83.9,70.6,83.9L70.6,83.9z M97.2,79.2c0-1.2-2.7-1.4-2.7-1.4c-0.3,0-0.6,0.1-0.9,0.2c-0.8,0.3-8.7,0.3-10.1,0.3
			c-2.7,0-3.3-0.3-4.1-1.9c-0.2,0.4-0.3,0.9-0.4,1.3c0,0.9,1.3,2.8,2.1,2.8c0.3,0,0.5-0.1,0.8-0.2c1.9-0.3,3.9-0.4,5.9-0.4
			c0.4,0,6,0.1,6.4,0.1c0.5,0.1,1,0.1,1.4,0.1C96.8,80.1,97.2,79.7,97.2,79.2L97.2,79.2z M115.5,85c0-1.2-0.4-2.6-2.8-4.9
			c-1-1.1-2.2-2-3.5-2.6c1.3,1.3,2.3,2.9,3.1,4.5c-4.2,0.6-4.7,0.7-9,1.2c1.5-2.2,2.9-4.5,4.1-6.8c0.4-0.9,0.8-1.7,1.3-2.6
			c0.4-0.2,0.6-0.6,0.6-1c0-1.1-1.8-2.4-2.8-2.4c-0.5,0-1.1,0.2-1.6,0.4c1.3,0.6,1.8,0.9,1.8,1.8c0,1.5-3.3,8.9-4.1,10.7
			c-0.3,0-0.5,0.1-0.8,0.1c-0.8,0.1-1.5-0.3-2-1c0,0.2,0,0.4,0,0.6c0,1.3,1.3,3.2,1.9,3.2c0.2,0,0.4-0.2,0.5-0.3
			c0.3-0.3,0.6-0.5,1.1-0.6c3.1-0.7,6.2-1.6,9.2-2.7c0,0.1,0.8,2.3,0.9,2.6c0.3,0.7,0.5,1.4,1.2,1.4C115.1,86.4,115.5,85.8,115.5,85
			L115.5,85z M121.3,70.2l3.4,3.4l0.3-0.3l-3.4-3.4l3.4-3.4l-0.3-0.3l-3.4,3.4l-3.4-3.4l-0.3,0.3l3.4,3.4l-3.4,3.4l0.3,0.3
			L121.3,70.2z M124.2,69c-0.5,0-0.9,0.4-0.9,0.9c0,0.5,0.4,0.9,0.9,0.9c0.5,0,0.9-0.4,0.9-0.9C125.1,69.4,124.7,69,124.2,69
			L124.2,69z M118.4,69c-0.5,0-0.9,0.4-0.9,0.9c0,0.5,0.4,0.9,0.9,0.9c0.5,0,0.9-0.4,0.9-0.9C119.3,69.4,118.9,69,118.4,69L118.4,69z
			 M121.3,66.2c-0.5,0-0.9,0.4-0.9,0.9c0,0.5,0.4,0.9,0.9,0.9c0.5,0,0.9-0.4,0.9-0.9C122.2,66.6,121.8,66.2,121.3,66.2L121.3,66.2z
			 M121.3,71.9c-0.5,0-0.9,0.4-0.9,0.9c0,0.5,0.4,0.9,0.9,0.9c0.5,0,0.9-0.4,0.9-0.9c0,0,0,0,0,0C122.2,72.3,121.8,71.9,121.3,71.9
			L121.3,71.9z M127.5,73.9h3.5v-0.3h-0.5c-0.4,0-0.7-0.2-0.7-0.6c0,0,0,0,0,0v-6.8c0-0.1,0-0.1-0.1-0.1c0,0-0.3,0.1-0.3,0.1
			c-0.6,0.3-1.3,0.4-1.9,0.4v0.3h0.8c0.3,0,0.5,0.3,0.5,0.5v5.4c0,0.3-0.2,0.6-0.5,0.7c0,0,0,0-0.1,0h-0.6L127.5,73.9L127.5,73.9z"/>
	</g>
	<g>
		<circle class="st0" cx="308" cy="77.5" r="77.5"/>
		<path id="point02" class="st1" d="M263.1,72.4c0-0.7,0-2.2,0-2.7c0.3-0.2,0.6-0.5,0.8-0.8c0-0.2-0.2-0.3-0.4-0.3
			l-2.8-0.8c0.3,0.8,0.5,1.6,0.5,2.4c0.1,0.7,0.1,1.5,0.1,2.2h-4.4c-0.2,0-1.8,0-3.2-0.1l0.4,0.9c0.8-0.1,1.6-0.2,2.4-0.2h13.9
			c0.1,0,0.3,0,0.3-0.2c0,0,0,0,0-0.1c0-0.1-0.1-0.2-0.2-0.3l-1.8-1.5c-0.1-0.1-0.2-0.2-0.4-0.2c-0.2,0-0.3,0.2-0.3,0.3l-0.9,1.4
			H263.1z M262.8,86.6c1.1-1.7,2.2-3.9,4.3-10.1c0.8-0.3,0.9-0.4,0.9-0.7c0-0.1-0.1-0.2-0.2-0.3l-2.7-1.4c0,0.3,0,0.4,0,0.5
			c-0.4,4.1-1.4,8-2.9,11.9h-6.7c-0.2,0-1.8,0-3.2-0.1l0.4,0.8c0.8-0.1,1.6-0.2,2.4-0.1h16.8c0.2,0,0.3-0.1,0.3-0.2c0,0,0,0,0,0
			c0-0.2-0.1-0.3-0.2-0.3l-1.8-1.5c-0.1-0.1-0.3-0.2-0.4-0.2c-0.2,0-0.3,0.1-0.4,0.3l-1.2,1.5L262.8,86.6L262.8,86.6z M256.6,74.7
			c0.8,1.9,1.3,3.8,1.5,5.9c0.2,3.6,0.2,4.3,1.3,4.3c0.8-0.1,1.3-0.9,1.2-1.7c0,0,0,0,0,0C260.6,80.4,258.8,76.2,256.6,74.7
			L256.6,74.7z M289.7,82.6c0-2.5-2.1-4.4-4.5-4.4c-1.3,0.1-2.6,0.4-3.8,0.9c-0.8,0.4-1.7,0.7-2.6,1c0.1-1.9,0.4-3.8,0.9-5.6
			c1.8-0.4,3.5-1,5.2-1.7c0.3-0.1,0.5-0.3,0.5-0.6c0-0.6-1-1-1.6-1c-0.3,0-0.6,0.1-0.9,0.3c-0.9,0.5-1.8,0.9-2.8,1.2
			c0.1-0.7,0.3-1.5,0.7-2.1c0.2-0.3,0.4-0.6,0.4-1c0-0.9-2.3-1.7-3-1.7c-0.5,0-0.9,0.2-1.3,0.5c1.7,0.5,1.9,1.3,1.9,2
			c0,0.2-0.2,1.8-0.3,2.7c-0.8,0.2-1.6,0.3-2.5,0.3c-0.8,0.1-1.6-0.2-2.3-0.6c0,1.6,1.5,2,2.6,2c0.7,0,1.3-0.1,2-0.2
			c-0.3,2.3-0.6,4.2-0.9,5.3c-0.2,0.5-0.4,1.1-0.5,1.6c0,0.7,0.8,1.9,1.3,1.9c0.2,0,0.4-0.1,0.6-0.3c0.1-0.1,0.4-0.6,0.5-0.7
			c1.4-1.9,3.7-3.7,5.9-3.7c1.4-0.1,2.7,1,2.8,2.4c0,0.2,0,0.3,0,0.5c0,4.3-5,5.7-8.4,6.1V88c0.7,0.1,1.5,0.1,2.2,0.1
			C287.9,88.1,289.7,84.9,289.7,82.6L289.7,82.6z M311.7,86.9c0-0.1-0.1-0.3-0.2-0.3l-1.8-1.6c-0.1-0.1-0.2-0.2-0.4-0.3
			c-0.2,0-0.3,0.2-0.3,0.3l-1.2,1.6h-6.3c0-0.5,0-9.2,0-10.1h7.2c0.2,0,0.3-0.1,0.3-0.2c0,0,0,0,0,0c0-0.1-0.1-0.3-0.2-0.3l-1.7-1.6
			c-0.1-0.1-0.2-0.2-0.4-0.2c-0.1,0-0.2,0-0.3,0.3l-1.1,1.6h-3.8v-3.1c0-1.5,0-1.9,0.1-2.6c0.6-0.5,0.7-0.6,0.7-0.8
			c0-0.2-0.1-0.4-0.3-0.4c0,0,0,0,0,0l-2.8-0.9c0.2,0.6,0.3,1.1,0.3,1.7c0.1,1.4,0.2,10.6,0.2,12.9c0,2.1,0,3.1,0,3.9h-4.8
			c-0.2,0-1.8,0-3.2-0.1l0.4,0.9c0.8-0.1,1.6-0.2,2.4-0.2h17C311.5,87.2,311.7,87.1,311.7,86.9C311.7,86.9,311.7,86.9,311.7,86.9
			L311.7,86.9z M334.4,71c0-1.7-2.5-1.7-3-1.7c-0.5,0-1,0.1-1.5,0.2c0.3,0.1,0.6,0.2,0.9,0.3c0.6,0.3,1.1,0.6,1.6,1
			c1,0.9,1.1,1,1.4,1C334.2,71.8,334.4,71.4,334.4,71C334.4,71.1,334.4,71,334.4,71L334.4,71z M332.4,72.8c0-1.4-2.3-1.9-4.5-1.7
			c0.9,0.3,1.8,0.8,2.4,1.6c0.3,0.5,0.8,0.8,1.3,1C332.1,73.6,332.4,73.3,332.4,72.8C332.4,72.9,332.4,72.9,332.4,72.8L332.4,72.8z
			 M333.7,79.7c0-3.2-3.5-5.6-6.4-5.9c2.9,1.8,4,4.2,4,4.6c0,0.5-1.8,0.9-2.7,0.9v0.2c1.1,0,2.2,0.4,3.2,1c0.3,0.3,0.7,0.5,1.1,0.6
			C333.5,81.1,333.7,80.4,333.7,79.7L333.7,79.7z M326.2,78.1c0-2.7-0.6-4.1-3-4.1c-0.2,0-0.5,0-0.7,0.1c0.3-0.8,0.7-1.6,1.2-2.3
			c0.2-0.4,0.4-0.8,0.4-1.2c0-0.2-0.1-0.4-0.2-0.5c-1-1.1-1.7-1.3-2.3-1.3c-0.5,0-0.9,0.2-1.3,0.4c0.3,0.2,1.6,0.9,1.6,1.8
			c-0.2,1.2-0.5,2.3-0.9,3.5c-0.4,0.1-2.2,0.6-2.6,0.7c-0.6,0.2-1.2,0.3-1.9,0.3c-0.7-0.1-1.3-0.5-1.6-1.2c-0.3,0.3-0.4,0.7-0.4,1.2
			c0.1,1.1,0.9,2,1.9,2.2c0.4,0,0.7-0.2,1-0.4c0.4-0.3,2-1,3-1.5c-1.1,3.1-2.7,6-4.7,8.7c-0.4,0.4-0.6,1-0.6,1.6
			c-0.1,0.5,0.2,1,0.8,1.2c0,0,0.1,0,0.1,0c0.2,0,0.4-0.1,0.5-0.2c0.6-0.8,1.1-1.7,1.5-2.6c2.4-5,2.7-5.6,4.2-9.2
			c0.3-0.1,0.7-0.1,1-0.1c1.5,0,1.5,1.7,1.5,2.4c0,2.3-0.6,4.6-1.6,6.8c-0.1,0.4-0.5,0.6-0.9,0.7c-1-0.3-1.9-0.8-2.6-1.5l-0.1,0.1
			c0.1,0.2,0.8,1.5,1.2,2.2c0.1,0.2,0.2,0.5,0.2,0.7c0.1,1.1,0.1,1.5,0.8,1.5c0.8,0,1.9-1.1,2.3-1.6C325.3,84.7,326.2,80,326.2,78.1
			L326.2,78.1z M347.7,77.6c0-2.2-0.3-7.1-3.2-7.1c-2.3,0-3.9,4-5,7.7c0,0.1-0.1,0.2-0.2,0.2c-0.1-0.5-0.2-1-0.2-1.5
			c0-2.1,0.4-4.1,1.3-6c0.2-0.3,0.3-0.7,0.3-1c-0.2-1-1-1.7-2-1.8c-0.4,0-0.9,0.2-1.3,0.3c0.8,0.4,1.2,1.2,1.2,2.1
			c0,0.4-0.4,2.7-0.4,3.2c-0.2,1.6-0.4,3.2-0.4,4.8c0,2.8,0.9,4.5,1.8,4.5c0.4,0,0.7-0.3,0.7-0.7c0-0.1,0-0.1,0-0.2
			c0-0.3-0.2-2-0.2-2.4c0.1-1.9,0.6-3.8,1.5-5.5c0.8-1.7,1.4-2.5,2.2-2.5c1.7,0,1.8,3.9,1.8,5.5c0,2.9-0.4,8.3-5,11.8l0.1,0.1
			c1.4-0.5,2.7-1.3,3.7-2.4C346.7,84.5,347.7,82,347.7,77.6L347.7,77.6z M354,69.4l3.4,3.4l0.3-0.3l-3.4-3.4l3.4-3.4l-0.3-0.3
			l-3.4,3.4l-3.4-3.4l-0.3,0.3l3.4,3.4l-3.4,3.4l0.3,0.3L354,69.4z M356.8,68.2c-0.5,0-0.9,0.4-0.8,0.9s0.4,0.9,0.9,0.8
			c0.5,0,0.8-0.4,0.8-0.9C357.7,68.6,357.3,68.2,356.8,68.2C356.9,68.2,356.8,68.2,356.8,68.2L356.8,68.2z M351.1,68.2
			c-0.5,0-0.9,0.4-0.8,0.9s0.4,0.9,0.9,0.8c0.5,0,0.8-0.4,0.8-0.9C352,68.6,351.6,68.2,351.1,68.2L351.1,68.2z M354,65.4
			c-0.5,0-0.9,0.4-0.9,0.9c0,0.5,0.4,0.9,0.9,0.9c0.5,0,0.9-0.4,0.9-0.9C354.8,65.8,354.5,65.4,354,65.4L354,65.4z M354,71.1
			c-0.5,0-0.9,0.4-0.9,0.9c0,0.5,0.4,0.9,0.9,0.9c0.5,0,0.9-0.4,0.9-0.9c0,0,0,0,0,0C354.8,71.5,354.4,71.1,354,71.1L354,71.1z
			 M360.2,73.1h3.5v-0.3h-0.5c-0.4,0-0.7-0.3-0.7-0.6c0,0,0,0,0,0v-6.8c0-0.1,0-0.1-0.1-0.1c0,0-0.3,0.1-0.3,0.1
			c-0.6,0.3-1.3,0.4-1.9,0.4v0.3h0.8c0.3,0,0.5,0.3,0.5,0.5c0,0,0,0,0,0v5.5c0,0.3-0.2,0.6-0.5,0.7c0,0,0,0-0.1,0h-0.6V73.1
			L360.2,73.1z"/>
	</g>
	<g>
		<circle class="st0" cx="538.5" cy="77.5" r="77.5"/>
		<path id="point03" class="st1" d="M517.7,74.9c-0.5-0.9-1.2-1.5-2.1-2c-0.4,0.2-0.9,0.4-1.3,0.7c-2.8,0.4-5.7,0.7-8.5,0.8
			c-1.3,0-2.5-0.6-3.3-1.6c0,0.2-0.1,0.4-0.1,0.7c0,0.5,0.1,0.9,0.4,1.3c0.1,0.2,1,1.8,2,1.8c0.4-0.1,0.8-0.2,1.2-0.4
			c2.7-0.6,5.4-1,8.2-1.1c0.2,0,0.4,0.1,0.4,0.3s-0.4,4.4-0.9,7.9c-2,0.2-7.1,0.7-8.1,0.7c-1.2-0.2-2.2-0.7-3.1-1.6
			c-0.1,0.2-0.1,0.5-0.1,0.8c0,1.2,1.5,2.9,2.2,2.9c0.4-0.1,0.9-0.2,1.3-0.4c1.9-0.5,3.9-0.8,5.9-0.8c0.4,0,2.6,0.1,3,0.1
			c0.8,0,1.6,0,1.6-0.7c-0.1-0.6-0.6-1-1.1-1.1c0.8-4.8,0.9-5.4,1.2-6.7c0-0.4,0.3-0.7,0.6-0.9C517.5,75.4,517.7,75.2,517.7,74.9z
			 M531.7,73.2c0-1.1-1.5-2.5-4.5-2.5c-0.6,0-1.1,0.1-1.7,0.1c1.3,0.4,2.5,1.1,3.5,2.1c1.4,1.1,1.5,1.3,1.9,1.3
			C531.3,74.2,531.7,73.7,531.7,73.2C531.7,73.2,531.7,73.2,531.7,73.2z M540.2,74.7l-0.2-0.1c-2.7,3.6-10.6,10.8-12.5,10.8
			c-0.7-0.3-1.3-0.7-1.9-1.2c-0.1,0.2-0.1,0.4-0.1,0.6c0.1,1.5,1,2.7,2.4,3.2c0.2,0,0.4-0.1,0.6-0.3c0.2-0.3,0.5-0.5,0.7-0.8
			c1-0.8,2.1-1.6,3-2.2C535.4,82.3,539,78.2,540.2,74.7L540.2,74.7z M529.9,78.5c0-1-1.1-2.2-4.1-2.2c-0.8,0-1.7,0.1-2.5,0.2
			c1.6,0.5,3.2,1.3,4.5,2.4c0.3,0.4,0.8,0.6,1.2,0.7C529.6,79.5,529.9,79.1,529.9,78.5C529.9,78.5,529.9,78.5,529.9,78.5L529.9,78.5z
			 M548.1,79.5c0-1.2-0.9-2.1-2.1-2.1c-1.2,0-2.1,0.9-2.1,2.1c0,1.2,0.9,2.1,2.1,2.1S548.1,80.6,548.1,79.5L548.1,79.5L548.1,79.5z
			 M557.2,71.6l-2-1c0.1,0.6,0.1,1.7,0.1,2.8c0,0.9,0,2.2-0.1,3.2c0,0.1,0,0.4,0,0.6c0,0.5,0.1,0.8,0.6,0.8c0.5,0.1,0.9-0.2,1-0.6
			c0-0.1,0-0.2,0-0.3h5.9c0,0.5,0,0.8,0.6,0.8c0.5,0.1,1-0.3,1-0.8c0-0.1,0-0.1,0-0.2c0-0.6,0-3.4,0-4.1c0.3-0.1,0.4-0.4,0.5-0.7
			c0-0.1-0.1-0.2-0.2-0.3l-1-0.8c-0.1-0.1-0.2-0.1-0.3-0.2c-0.1,0-0.2,0.1-0.3,0.2l-0.7,0.5h-0.8c0-0.3,0-0.7,0.1-1
			c0.3-0.1,0.5-0.3,0.6-0.6c0-0.2-0.1-0.3-0.4-0.3l-1.8-0.5c0.1,0.8,0.2,1.6,0.2,2.4h-0.9c0-0.7,0.1-0.9,0.1-1.2
			c0.4-0.3,0.4-0.3,0.4-0.4c0-0.2-0.1-0.3-0.3-0.3l-1.9-0.6c0.2,0.8,0.2,1.7,0.2,2.6H557.2L557.2,71.6z M560.4,72.2V74h-0.9v-1.8
			H560.4z M560.4,74.5v1.9h-0.9v-1.9H560.4z M558,72.2V74h-1v-1.8H558z M558,74.5v1.9h-1v-1.9H558z M561.9,76.5v-1.9h1v1.9H561.9z
			 M561.9,74v-1.8h1V74H561.9z M571.7,82.9c-0.1,0.4,0.2,0.7,0.6,0.8c0,0,0.1,0,0.1,0c0.6,0,1.2-0.5,1.2-1.2c0,0,0-0.1,0-0.1
			c0-0.1-0.1-2.3-0.1-2.8c0-0.7,0-1.1,0-1.7c0.3-0.1,0.6-0.4,0.7-0.7c0-0.2-0.2-0.4-0.3-0.5l-1-0.7c-0.1-0.1-0.2-0.1-0.4-0.2
			c-0.1,0-0.2,0.1-0.3,0.2l-0.8,0.7h-2.2c0.5-0.5,1-1,1.5-1.6c1.2-1.5,1.4-1.7,1.6-1.9c0.3,0,0.6-0.2,0.8-0.6c0-0.1-0.1-0.3-0.2-0.3
			l-1.2-0.9c-0.1-0.1-0.2-0.2-0.4-0.2c-0.1,0-0.2,0.1-0.3,0.2l-0.8,0.8h-1.7c0.2-0.5,0.4-0.9,0.7-1.6c0.6-0.2,0.7-0.2,0.7-0.5
			c0-0.2-0.1-0.3-0.3-0.4l-2.4-1.1c0,0.6,0,1.2-0.2,1.8c-0.6,2.4-1.4,4.8-2.6,7l0.1,0.1c0.3-0.3,0.7-0.7,0.9-1c0,0.5,0.1,3.3,0.1,4.4
			c0,0.8-0.1,4.3-0.1,5c0,2.8,0.1,3.3,3.9,3.3c2.9,0,3.5-0.2,4.1-0.5c0.5-0.2,0.8-0.5,1-1c-0.1-0.3-0.3-0.6-0.5-0.8
			c-0.2-0.3-0.4-0.6-0.4-0.9c-0.1-0.4-0.2-0.7-0.4-2.2H573c-0.3,3.6-0.6,3.6-3.2,3.6c-2.2,0-2.4,0-2.4-0.8c0-0.3,0-1.8,0-2.1
			c0-0.3,0.1-1.8,0.1-2.2L571.7,82.9L571.7,82.9z M568.7,77.5v4.9h-1.2v-4.9H568.7z M567.6,77l-1.4-0.7c0.8-1,1.5-2.1,2-3.3h1.9
			c-0.4,1.4-0.9,2.7-1.4,4H567.6L567.6,77z M571.7,77.5v4.9h-1.2v-4.9H571.7z M562.1,84.1v0.1c0,0.4,0.2,0.7,0.6,0.7c0,0,0.1,0,0.1,0
			c0.5,0,1-0.3,1.2-0.8v-2.4c0.2-0.1,0.4-0.3,0.5-0.5c0-0.1-0.1-0.3-0.2-0.3l-0.9-0.8c-0.1-0.1-0.2-0.2-0.3-0.2
			c-0.1,0.1-0.2,0.1-0.3,0.2l-0.7,0.6h-4.3l-2.3-1.1c0.1,0.6,0.2,1.2,0.1,1.9c0,0.5,0,2,0,2.5c0,0.1-0.1,0.4-0.1,0.5
			c0,0.4,0.4,0.7,0.8,0.6c0,0,0.1,0,0.1,0c0.2,0,0.5-0.1,0.7-0.3c0.2,0.3,0.2,0.7,0.2,1c-0.1,0.5,0.1,1,0.5,1.3
			c-0.9,0.1-1.8,0.2-2.7,0.2c-0.6,0.1-1.2,0-1.7-0.2l1.1,2.4c0,0.2,0.2,0.3,0.4,0.4c0.2,0,0.3-0.2,0.4-0.6c3.5-0.6,6.9-1.6,10.1-2.9
			v-0.2c-1.6,0.3-3.6,0.5-5,0.7c0.7-0.3,1.3-0.7,1.9-1.1c0.6-0.1,0.7-0.2,0.7-0.3c0-0.2-0.2-0.3-0.3-0.4l-1.9-1.1L562.1,84.1
			L562.1,84.1z M557.4,83.5v-2.1h4.7v2.1H557.4z M560.5,84.1c0,1.1-0.3,2.1-0.9,3.1c-0.1,0-0.7,0.1-0.8,0.1c0.2-0.2,0.3-0.5,0.3-0.8
			c0-0.6-0.2-1.3-1.9-1.8c0.1-0.2,0.1-0.4,0.1-0.5v-0.1H560.5z M557,78.8c-0.3,0-1.9,0-3.4-0.1l0.4,0.9c0.8-0.1,1.7-0.2,2.6-0.2h8.4
			c0.1,0,0.3,0,0.3-0.2c0,0,0,0,0,0c0-0.2-0.1-0.3-0.2-0.4l-0.8-0.7c-0.1-0.1-0.3-0.2-0.4-0.2c-0.2,0-0.3,0.1-0.4,0.2l-0.7,0.7
			L557,78.8L557,78.8z"/>
	</g>
	<g>
		<line class="st2" x1="167.8" y1="54.3" x2="217.7" y2="100.8"/>
		<line class="st2" x1="217.7" y1="54.3" x2="167.8" y2="100.8"/>
	</g>
	<g>
		<line class="st2" x1="398.3" y1="54.3" x2="448.2" y2="100.7"/>
		<line class="st2" x1="448.2" y1="54.3" x2="398.3" y2="100.7"/>
	</g>
</svg>
