<svg id="itemPont" data-name="itemPont" xmlns="http://www.w3.org/2000/svg" viewBox="0 0 745.92 69.27" width="746" height="69">
	<defs>
		<style>
			.cls-1,.cls-3,.cls-4{fill:none;stroke:#9d1b5b;stroke-miterlimit:10;}
			.cls-1{stroke-width:1.17px;}
			.cls-2{fill:#9d1b5b;}
			.cls-3{stroke-width:4.78px;}
			.cls-4{stroke-width:1.3px;}
		</style>
	</defs>
	<rect class="cls-1" x="426.13" y="0.65" width="319.2" height="67.97"/>
	<path class="cls-2" d="M516.73,34.78a5.65,5.65,0,0,1,2.06,4.5c0,3.73-3.06,6.41-7.07,6.41-3.28,0-6-1.86-6-4.29a1.75,1.75,0,0,1,1.73-1.94A1.49,1.49,0,0,1,508.9,41a2.5,2.5,0,0,1-.19,1,2.2,2.2,0,0,0-.09.7c0,1.15,1.31,2,2.74,2,2.33,0,4.7-2.3,4.7-5.37s-2.31-5.56-4.74-5.56c-.18,0-1,.12-1.21.12a.59.59,0,0,1-.67-.63.69.69,0,0,1,.7-.7c.18,0,1.09.18,1.31.18,2.55,0,4.16-2.28,4.16-4.74s-1.43-4.55-3.83-4.55a2.27,2.27,0,0,0-2.46,2,2.49,2.49,0,0,0,.09.46,3,3,0,0,1,.09.73A1.61,1.61,0,0,1,508,28.29a1.57,1.57,0,0,1-1.51-1.67c0-1.67,1.94-4.25,5.83-4.25,3.73,0,6.07,2.43,6.07,5.1a5.29,5.29,0,0,1-1.12,3.09,7.31,7.31,0,0,1-3.86,2.59A8,8,0,0,1,516.73,34.78Z"/>
	<path class="cls-2" d="M530.76,45.69a6.14,6.14,0,0,1-5-3.28c-1.28-2.1-1.86-5.83-1.86-8.66,0-6.47,2.77-11.38,6.84-11.38,3.12,0,6.83,3.37,6.83,11.66C537.59,41.47,534.46,45.69,530.76,45.69Zm-3.4-18.25a27.18,27.18,0,0,0-.7,6.59c0,6.77,1.61,10.62,4.1,10.62,2.09,0,3-2.79,3.37-3.94a28.39,28.39,0,0,0,.73-6.68c0-6.93-1.67-10.63-4.1-10.63C528.6,23.4,527.66,26.37,527.36,27.44Z"/>
	<path class="cls-2" d="M558.18,24.7c-.06,1.7-.06,2.71-.06,4.44,0,5.34.15,12.69.27,14.51,0,.18.06,1,.06,1.16,0,1.12-1.18,1.45-1.73,1.45s-.79-.33-.79-.91c0,0,0-.45.06-1.21H544.75c0,.88.07,2.21-1.67,2.21a.72.72,0,0,1-.82-.82c0-.21.1-1.76.16-2.64.12-2.34.21-10.87.21-13,0-6.47-.15-7.2-.49-8.54l3.07,1.58h10.36l.94-.91c.24-.24.39-.36.6-.36a1,1,0,0,1,.58.33L559,23.19c.21.21.36.39.36.57C559.36,24.13,559,24.34,558.18,24.7Zm-2.16-1h-11.3v9.2H556Zm0,9.93h-11.3v9.81H556Z"/>
	<path class="cls-2" d="M578.67,23.49V27c0,.49.12,2.82.12,3.16a1.34,1.34,0,0,1-1.48,1.18c-.82,0-.73-.73-.67-1.09h-5.19v7.62c0,1.09.12,6.38.12,7.56,0,.79-.31,1.7-1.55,1.7-.67,0-.88-.39-.88-.79,0-.18.09-1,.09-1.15.24-3.43.24-5.31.24-18.61,0-4.35,0-4.44-.33-6.08L572,21.79h4.37l.79-.73c.19-.15.31-.3.43-.3a.82.82,0,0,1,.36.18l1.58,1.15a.47.47,0,0,1,.21.4C579.7,22.7,579.52,22.88,578.67,23.49Zm-2-1h-5.22v3h5.22Zm0,3.76h-5.22v3.19h5.22Zm8.41,8.5c0,1.43,0,3.74.09,5.56,0,.27.12,1.52.12,1.76a1.35,1.35,0,0,1-1.52,1.4c-.39,0-.79-.09-.63-1.52h-5.93c.07.73.19,2-1.42,2-.67,0-.7-.52-.7-.85s.06-1,.09-1.31c.12-1.73.12-5,.12-5.25a28.75,28.75,0,0,0-.21-4.29l2.22,1.1h5.76l.52-.67a.75.75,0,0,1,.58-.39.91.91,0,0,1,.48.24l1.1.94c.15.12.27.24.27.39S585.75,34.36,585.08,34.78Zm-1.94-.69h-5.93v3.19h5.93Zm0,3.91h-5.93v3.25h5.93Zm8.65-14.42c0,3,.06,16,.06,18.61s0,3.47-1.21,4.32a6.81,6.81,0,0,1-2.31,1c-.25-1.06-.52-2.22-3.28-3.28l.06-.21c.52,0,3.28.18,3.58.18s.85,0,1-.37a25.89,25.89,0,0,0,.13-3.31c0-1.64,0-8.86,0-10.32h-5.74c0,.85-.61,1.25-1.43,1.25a.65.65,0,0,1-.7-.73c0-1.34.09-7.11.09-8.26,0-.52-.06-1.07-.15-1.95l2.52,1.28h5.13l.73-.82c.12-.12.37-.34.55-.34a.72.72,0,0,1,.48.22l1.46,1.24a.63.63,0,0,1,.24.43C593,22.76,592.76,23,591.79,23.58Zm-2-1.06h-5.77v3h5.77Zm0,3.76h-5.77v3.19h5.77Z"/>
	<path class="cls-2" d="M623.16,46.11c-2,.06-9.3-.06-11.09-.24-5.16-.52-6.86-2.67-8-4.4-.58.69-3.34,3.49-3.86,4.09-.06.19-.15.58-.18.67-.15.34-.31.37-.4.37s-.27-.09-.45-.37l-1.58-2.55a4.25,4.25,0,0,0,1.85-.36,23.29,23.29,0,0,0,3-1.31c.06-.94,0-8,0-8.41h-1.13a21.82,21.82,0,0,0-3.58.27l-.61-1.18c1.89.15,3.8.18,4.89.18l1-.91c.28-.27.37-.33.46-.33a.86.86,0,0,1,.45.21l1.34,1.09a.61.61,0,0,1,.27.4.55.55,0,0,1-.27.39l-.76.55v5.37c0,4.07,5.25,4.32,10.2,4.32a38.75,38.75,0,0,0,10.24-1l.09.19A4.8,4.8,0,0,0,623.16,46.11Zm-19-20c-.88,0-1-.39-1.43-1.7a9.88,9.88,0,0,0-2.1-3.8l.13-.18c1.73.49,4.67,2.28,4.67,4.22A1.3,1.3,0,0,1,604.15,26.1Zm18,15.67a17.86,17.86,0,0,1-5.86-4.22,13.12,13.12,0,0,1-7.86,4.92l-.06-.18a16.05,16.05,0,0,0,6.8-6.14,18.81,18.81,0,0,1-3.1-7.89h-1.15v.51c0,3.25-1.1,9.23-5.1,12.88l-.19-.06c2.8-4.56,3.28-10.42,3.28-14.46a30.31,30.31,0,0,0-.63-6.74l2.79,1.31h8.17l1.27-1.34c.31-.3.4-.39.55-.39s.27.09.61.36l1.64,1.31a.68.68,0,0,1,.3.45c0,.31-.27.34-.45.34H611l-.06,5.1h6.86l1.19-.85c.18-.12.3-.21.39-.21a1.12,1.12,0,0,1,.49.24l1.51,1.21c.09.09.28.28.28.43,0,.36-.61.6-1.37.94a30.1,30.1,0,0,1-3,6.89,14,14,0,0,0,7.78,3v.21A4.9,4.9,0,0,0,622.15,41.77Zm-9.53-13.51a14.33,14.33,0,0,0,3.28,6.59,30.78,30.78,0,0,0,2.37-6.59Z"/>
	<path class="cls-2" d="M638.37,36.39c0,1.34.15,7.29.15,8.51,0,.48,0,1.33-1.4,1.33-.7,0-.94-.3-.82-1.67H631c0,1,0,2.19-1.4,2.19-.85,0-.85-.73-.85-1.06s.06-1.61.06-1.89c.06-1.42.09-3.31.09-5.43a21.44,21.44,0,0,0-.27-4.92L631.32,35H636l.73-.82c.18-.18.33-.34.48-.34a1.36,1.36,0,0,1,.61.34L639,35c.21.15.33.27.33.48S639,36,638.37,36.39Zm-2-.69H631v8.13h5.31Zm11.54-13c0,.43-.06.88-.06,1.58,0,.88.18,4.89.18,5.71a1.38,1.38,0,0,1-1.48,1.36c-.73,0-.82-.48-.76-1.39H636c0,.54,0,1.55-1.4,1.55-.88,0-.88-.58-.88-.91,0-.58.06-1.49.09-2.07s.12-2.73.12-4.49a21.35,21.35,0,0,0-.33-4.19l2.73,1.39h9.14l.7-.79a.84.84,0,0,1,.58-.36c.18,0,.33.09.67.33l1.15.82a.67.67,0,0,1,.33.49C648.87,22,648.48,22.34,647.87,22.73ZM645.78,22H636v7.26h9.81Zm6.59,14.33,0,4.35c0,.18.15,4.61.15,4.76a1.23,1.23,0,0,1-1.4,1.37c-.91,0-.94-.58-.91-2.19h-5.68a4.31,4.31,0,0,1-.15,1.79,1.38,1.38,0,0,1-1.21.58c-1,0-1-.58-1-.91,0-1.27.25-6.92.25-8.08a13.3,13.3,0,0,0-.43-4.52l2.8,1.49h5l.76-.82c.24-.25.36-.37.54-.37a1.15,1.15,0,0,1,.64.34l1.12.85a.67.67,0,0,1,.34.48C653.28,35.7,652.85,36,652.37,36.33Zm-2.13-.63h-5.68v8.19h5.68Z"/>
	<path class="cls-2" d="M663.72,27.22c.15.1.37.25.37.4,0,.39-.31.58-.73.88,0,5.47,0,10.93,0,16.37,0,1.09,0,2.36-1.58,2.36-.79,0-.94-.39-.94-.82s.27-3.82.3-4.55c.18-4,.18-7.29.21-13.06-.42.67-2.91,4.38-4.79,5.68l-.19-.15c3.13-4.07,6.38-12.72,6.38-14.3a4.65,4.65,0,0,0-.06-.61L665.57,21a.69.69,0,0,1,.43.58c0,.39-.37.51-1.15.79a27.92,27.92,0,0,1-2.13,4.28Zm4.65,8.05a20.64,20.64,0,0,0-3.55.27l-.61-1.21c1.55.12,3.09.21,4.67.21H673a20.82,20.82,0,0,0-.39-4.67l2.82.6c.15,0,.4.12.4.37s-.21.42-.82.94c0,.82,0,1.55,0,2.76h5.31l1.22-1.39c.3-.37.33-.4.48-.4s.15,0,.58.33l1.91,1.4a.57.57,0,0,1,.3.46c0,.27-.24.33-.45.33h-8.93c1.34,2.86,5.38,6.47,9.84,7.62v.18a6,6,0,0,0-2.7,2.16,21.63,21.63,0,0,1-7.53-10h0c0,1.85.09,4.74.12,5.59s.21,4.19.21,4.89c0,.51,0,1.58-1.61,1.58-.7,0-.94-.37-.94-1,0,0,.21-4.76.21-5.31,0-1.61.06-2.73.06-4.16a22.11,22.11,0,0,1-9.38,8.2l0-.21a35,35,0,0,0,8.08-9.57Zm10.08-13.85.64-.69c.12-.13.21-.28.45-.28a1.09,1.09,0,0,1,.58.28l1.21.91c.19.15.4.36.4.54s-.28.55-1,.91c0,2,0,3.41,0,3.77s.15,2.49.15,2.7c0,.79-.37,1.4-1.49,1.4-.76,0-.73-.7-.7-1.4h-8.56c0,.91-.43,1.67-1.4,1.67-.67,0-.85-.48-.85-1,0-.24.21-5.07.21-6a20.65,20.65,0,0,0-.27-4.28l2.58,1.48Zm-8.38.73v6.68h8.62V22.15Z"/>
	<path class="cls-2" d="M698.06,26.68h-6.8a21.82,21.82,0,0,0-3.58.27l-.61-1.21c2,.18,4.1.21,4.68.21H695l.88-1.19c.15-.21.3-.39.48-.39a1,1,0,0,1,.52.3l1.28,1.19c.3.27.33.39.33.48C698.52,26.62,698.28,26.68,698.06,26.68Zm-1.48,3.85h-4.13a18.82,18.82,0,0,0-3.59.31l-.6-1.22c2.09.18,4.25.18,4.67.18H694l.64-1c.12-.18.31-.39.46-.39a.89.89,0,0,1,.54.33l1.13,1c.09.1.3.31.3.49S696.82,30.53,696.58,30.53Zm.06,3.95h-4.22a21.44,21.44,0,0,0-3.56.27l-.6-1.21c2.06.18,4.22.21,4.64.21H694l.78-1c.25-.27.34-.36.49-.36s.4.21.55.33l.94.91c.18.18.33.34.33.49C697.12,34.45,696.85,34.48,696.64,34.48Zm-.22-12.14h-3.61a22.91,22.91,0,0,0-3.58.3l-.61-1.22c1.76.16,3.55.19,5.1.19l.7-1c.09-.12.27-.39.49-.39a1.2,1.2,0,0,1,.57.33l1.13,1a.62.62,0,0,1,.27.48C696.88,22.3,696.7,22.34,696.42,22.34Zm.67,16.24a5.49,5.49,0,0,1-.64.61c0,.94.22,5.28.22,6a1.26,1.26,0,0,1-1.34,1.4c-.88,0-.85-.67-.79-1.86h-3.43c0,.61.06,1.1.06,1.22a1.49,1.49,0,0,1-1.49,1.55c-.79,0-.79-.67-.79-.94s.06-1.28.06-1.49c0-1.49.07-2.7.07-3.8a25.13,25.13,0,0,0-.25-4.64l2.43,1.15h2.89l.76-.94a.56.56,0,0,1,.42-.24,1.21,1.21,0,0,1,.49.21l1.33.94a.44.44,0,0,1,.28.4C697.37,38.28,697.21,38.46,697.09,38.58Zm-2.55-.09h-3.46V44h3.46Zm20.19,6.77H701.56a21,21,0,0,0-3.56.27l-.6-1.18c.82.06,1.24.09,2.42.15,0-2.4,0-12.14-.15-13.84a10.42,10.42,0,0,0-.27-2l2.61.85c.4.12.61.24.61.52s-.52.67-.76.88v13.6H705V23.37H703.1a21.23,21.23,0,0,0-3.58.27l-.61-1.21c2.43.18,4.22.21,4.68.21h6.59l1-1.43c.15-.21.31-.36.49-.36a1,1,0,0,1,.51.3l1.58,1.43c.15.15.31.24.31.45s-.28.34-.46.34h-6.56v9.47h2.49l1.13-1.3c.18-.19.33-.4.48-.4a1.07,1.07,0,0,1,.55.31l1.58,1.33a.62.62,0,0,1,.3.46c0,.3-.3.33-.45.33h-6.08v11h3.8L712.21,43c.19-.18.34-.39.46-.39a.94.94,0,0,1,.55.3l1.67,1.52c.15.15.3.27.3.46S714.89,45.26,714.73,45.26Z"/>
	<path class="cls-3" d="M450.43,25.08a18,18,0,1,1,.66,18.66"/>
	<polygon class="cls-2" points="458.98 43.21 448.15 33.87 445.48 47.92 458.98 43.21"/>
	<path class="cls-2" d="M61.87,45c-4.34,0-5.44-3-5.8-4l.15,0a5.44,5.44,0,0,0,4.68,2.28c2.28,0,4.83-1.15,4.83-4.19,0-3.46-3.37-3.89-4.44-3.89a14.8,14.8,0,0,0-7.8,2.55c.06.91.33,5,.33,5.86,0,2-1.12,3.34-1.7,3.34-.33,0-.57-.33-1.21-1.24a17.35,17.35,0,0,0-2.8-2.73c-1.12,1.54-1.24,1.73-1.61,1.73a2.49,2.49,0,0,1-2.3-2.55,4.25,4.25,0,0,1,.09-1c.73.7.91.88,1.3.88.22,0,.31-.06.79-.42,3.25-2.43,3.83-2.88,5.53-4-.06-3.92-.06-4.37,0-5.95a9.45,9.45,0,0,1-3,.61A2.87,2.87,0,0,1,46,29.8a3.6,3.6,0,0,0,2.49.82,10.85,10.85,0,0,0,3.43-.79c0-.55.06-2.1.06-2.61A13.73,13.73,0,0,0,51.76,24c-.21-.52-.37-.58-1.85-1.4a3,3,0,0,1,1.73-.52c1,0,3,.79,3,1.8,0,.21-.45,1.58-.48,1.7a22.56,22.56,0,0,0-.61,3.61,9.94,9.94,0,0,0,2.07-1.09,1.85,1.85,0,0,1,1.42-.58c.76,0,1.34.43,1.34.88,0,.64-.18.73-2,1.46-1.27.51-2.15.88-3,1.18-.09,1.52-.12,2.61-.12,3,0,.61,0,.79.09,2.52a17.91,17.91,0,0,1,8.71-2.73c2.83,0,6,1.51,6,5.25C68.16,42.46,65.45,45,61.87,45ZM52,40.49c0-.73,0-1.25,0-1.7a18.25,18.25,0,0,0-3.67,3.88,14.34,14.34,0,0,0,3.15,1.16c.58,0,.58-.19.58-1.89C52,41.76,52,40.73,52,40.49Zm15.67-9c-.4,0-.52,0-1.55-.52a1.44,1.44,0,0,0-.61-.09,10.92,10.92,0,0,0-2.76.49v-.12c2.55-1.77,2.55-1.92,2.55-2.28,0-.64-1.12-1.73-4.28-2.61A4.74,4.74,0,0,1,63,26c3.65,0,5.44,2.58,5.44,4.47C68.46,30.74,68.46,31.5,67.64,31.5Z"/>
	<path class="cls-2" d="M94.78,33.72l1.61-1.83c.19-.21.28-.36.49-.36s.33.18.52.33l2.18,2c.15.15.31.27.31.45s-.28.34-.46.34H77.57A22.25,22.25,0,0,0,74,34.9l-.57-1.4c2.27.22,4.46.22,4.64.22Z"/>
	<path class="cls-2" d="M130.74,45.38a5.3,5.3,0,0,0-3.44,2.12,20,20,0,0,1-7.77-10.2c-1-2.7-2.06-6.38-2.22-13.82l-.33.06c-.3,10.33-2.31,20-13.15,23.87l-.12-.24A24.11,24.11,0,0,0,112,37.88c2.19-4.53,2.67-11,2.67-14.37a6.31,6.31,0,0,0-.27-2.31l3.67.95c.52.12.61.18.61.42,0,.49-.49.67-.79.76.21,5.28,1.82,11.66,4.65,15.7a16.4,16.4,0,0,0,8.23,6.1Z"/>
	<path class="cls-2" d="M154.93,39.58c-.21,0-.36-.07-1.64-.79a17.57,17.57,0,0,0-7.07-1.73c-3.16,0-5.89,1.27-5.89,3.79,0,3.37,4.43,3.8,7.89,3.8a9.55,9.55,0,0,1,2.89.15A1.43,1.43,0,0,1,152.17,46c0,.88-1.09,1-1.64,1a27.08,27.08,0,0,1-6.22-.69c-1.55-.4-4.89-1.58-4.89-4.92a5,5,0,0,1,2.64-4.28A11.12,11.12,0,0,1,147.77,36a20.58,20.58,0,0,1,5.13.58,1.55,1.55,0,0,0,.33.06c.13,0,.22,0,.22-.18,0-.64-3.53-5-5.68-7A20.92,20.92,0,0,1,140.88,31c-1.13,0-3.38-.6-3.83-2.79a6.13,6.13,0,0,0,3.46,1.09,17.51,17.51,0,0,0,5.71-1.12c-1.88-1.49-2.52-1.91-3.19-2.37-1.15-.76-1.15-1.43-1.15-1.73,0-.94.85-2.1,1.76-2.1a6,6,0,0,1,2.46,1.07c-.21,0-1.25.09-1.4.15a.69.69,0,0,0-.42.67c0,.7,1.51,2.09,3.37,3.79,1-.39,3.7-1.49,3.7-2.21,0-.37-.36-.58-1-1l0-.12a9,9,0,0,0,1.58.22c.27,0,1.39-.34,1.64-.34a1.05,1.05,0,0,1,1.12,1,1.32,1.32,0,0,1-.45.94A15.36,15.36,0,0,1,149.1,29a74.67,74.67,0,0,1,5.74,5.92,4.24,4.24,0,0,1,1.43,2.43C156.27,38.36,155.54,39.58,154.93,39.58Z"/>
	<path class="cls-2" d="M185.42,26.91a41.51,41.51,0,0,1-6.86,1.52c-.09,1.19-.12,3.16-.09,4.4.6-.15,3.25-1,3.79-1.21a1.91,1.91,0,0,1,.55-.09c.55,0,1.73.33,1.73,1.09,0,.46-.33.61-.64.73a54,54,0,0,1-5.4,1.22,37.55,37.55,0,0,0,.66,6.61c2.86.52,6.38,2.16,6.38,3.8,0,.4-.21,1.12-.94,1.12-.36,0-.45-.06-1.49-.79a18,18,0,0,0-3.82-2c-.22,2.85-2.34,3.89-5.2,3.89-3.12,0-5.28-1.64-5.28-3.22,0-2.46,3.58-3.22,6.59-3.22a14.21,14.21,0,0,1,1.76.09,58.76,58.76,0,0,1-.39-6,41.23,41.23,0,0,1-4.32.27c-1.7,0-3.12-.3-3.12-1.46a2.14,2.14,0,0,1,2-1.7,1.87,1.87,0,0,0-.52,1.07c0,.51.61.54,1.55.54a30.32,30.32,0,0,0,4.41-.36c0-1.52,0-2.07.09-4.53a40.26,40.26,0,0,1-5.44.43c-2.52,0-3.73-.73-4.49-2.4a9.24,9.24,0,0,0,4.22.88,45.87,45.87,0,0,0,5.77-.61c0-.42.06-2.36.06-2.58,0-1.36-.31-1.7-2.34-2.46a2.26,2.26,0,0,1,1.79-.69c1.43,0,3.16,1,3.16,2a4.26,4.26,0,0,1-.43,1.61,8.69,8.69,0,0,0-.36,1.76c1.4-.33,3.16-.94,4.74-1.49a1.94,1.94,0,0,1,.6-.12c.61,0,1.86.55,1.86,1.21A.74.74,0,0,1,185.42,26.91Zm-11.3,15.37c-2.24,0-4.25.61-4.25,1.76,0,.61.94,1.46,3.34,1.46a5.9,5.9,0,0,0,3-.73,2.25,2.25,0,0,0,1-2.13A8.29,8.29,0,0,0,174.12,42.28Z"/>
	<path class="cls-2" d="M201.27,46V45h1.88c1.7,0,2.4-.55,2.4-1.85V26.64c0-1-1.12-1.12-1.64-1.12H201.3V24.7h.61a14.54,14.54,0,0,0,5.58-1.28,1.28,1.28,0,0,1,.49-.18c.27,0,.36.18.36.42v19.5c0,1.37.79,1.85,2.4,1.85h1.89v1Z"/>
	<path class="cls-2" d="M247.3,31.59a1.69,1.69,0,0,0-1,.55,33,33,0,0,1-5.41,4.31l-.18-.15a27.81,27.81,0,0,0,3.86-5.89l-6.83,2.15c-.34.09-1.83.58-2.13.67-.09,2.43-.12,4.22-.12,5.16,0,3.49,0,4.47,3.7,4.47a26.12,26.12,0,0,0,5.11-.64,3.48,3.48,0,0,1,.85-.12,5.16,5.16,0,0,1,2.15.54.92.92,0,0,1,.27.67c0,.55-.33.79-1,1a26.42,26.42,0,0,1-5.4.4c-3.1,0-6.47,0-7.2-3-.36-1.4-.27-6.1-.21-7.92a27.47,27.47,0,0,0-5.25,2.09,1.64,1.64,0,0,1-.79.27,3.63,3.63,0,0,1-2.59-3,5.32,5.32,0,0,1,.25-1.49c1.12,1.55,1.43,2,2.55,2a28,28,0,0,0,5.86-1.36c0-1.22.15-6.47-.27-7.23-.16-.27-.61-.91-2.34-1.3A4.31,4.31,0,0,1,233.3,23c1.22,0,3.31.69,3.31,1.55a12,12,0,0,1-.3,1.3,36.13,36.13,0,0,0-.64,5.92c.91-.27,8.2-2.37,8.56-2.61l1-.76a.67.67,0,0,1,.42-.18c.49,0,3.13,1.91,3.13,2.64C248.76,31.38,248.67,31.41,247.3,31.59Z"/>
	<path class="cls-2" d="M258.87,35.69c-.67,0-1-.7-1.31-1.46A13.37,13.37,0,0,0,255.35,31c2,.31,4.4,1.95,4.4,3.62C259.75,35.17,259.45,35.69,258.87,35.69Zm12.51-3.07c-.18.21-1.43,2.89-1.7,3.4-4.37,8.23-9.78,9.66-11.9,10.24l-.06-.31c9.1-4.25,11.72-14,11.72-14.39,0-.73-1.22-1.43-1.61-1.64a5.37,5.37,0,0,1,1.33-.21,3.94,3.94,0,0,1,2.86,2C272,31.89,272,32,271.38,32.62Zm-7.29,1.76c-.64,0-.73-.27-1.24-1.67A12.27,12.27,0,0,0,261,29.59c2.06.6,4,2.3,4,3.61C265,33.84,264.67,34.38,264.09,34.38Z"/>
	<path class="cls-2" d="M293.94,37.88c-.46,0-.85-.4-1.34-.92-2.79-3.09-4.37-4.19-6.46-5,0,1.19-.07,6.47,0,7.57,0,.78.18,4.28.18,5s0,2.42-1.19,2.42c-1,0-1.42-1.76-1.42-2.55a13.77,13.77,0,0,1,.21-2,87.09,87.09,0,0,0,.39-9.78c0-1.3,0-7.35-.27-8.32-.18-.67-.85-1-2.43-1.52a4.31,4.31,0,0,1,2-.73c.45,0,3.43.64,3.43,1.61a13.77,13.77,0,0,1-.43,1.52,39.24,39.24,0,0,0-.42,6.14A16.7,16.7,0,0,1,294,34.57a2.74,2.74,0,0,1,.91,2C294.91,37.6,294.3,37.88,293.94,37.88Z"/>
	<path class="cls-2" d="M310.64,24.42c-1,1.95-3,5.41-3.86,6.71,3.86,2.74,4.32,4.83,4.32,6.38,0,2.55-1.89,3.86-4.19,4.16a3.9,3.9,0,0,0-1.67-3l0-.15c1.18.15,1.79.25,2.18.25.79,0,1.46-.22,1.46-1.61a7.64,7.64,0,0,0-2.76-5.77,47.48,47.48,0,0,0,2.21-8.08h-4.07c-.06,4.74.09,15.46.09,16.15,0,1.43.1,6,.1,6.47s0,1.79-1.49,1.79c-.76,0-.88-.45-.88-1.3s.21-6.05.21-7c0-1.21,0-7.5,0-8.71,0-.73,0-1.49,0-2.22,0-5.07,0-5.59-.33-7.26l2.58,1.37h3.55l.82-.61c.21-.15.39-.3.49-.3a.86.86,0,0,1,.51.27L311.37,23a.87.87,0,0,1,.33.54C311.7,23.94,311.34,24.15,310.64,24.42ZM325.7,47.53a17.89,17.89,0,0,1-8.26-13.72h-2.31v9.53c.79-.21,4.19-1.12,4.86-1.37l.12.28a67.88,67.88,0,0,1-9.65,4.58c-.22.4-.43.73-.67.73s-.3-.18-.4-.36l-1.48-2.67a7.72,7.72,0,0,0,1.15.09,23.34,23.34,0,0,0,4.16-.79c0-3.13,0-14.06-.06-16.4a32.2,32.2,0,0,0-.39-6l2.76,1.49h6.83l.76-.61c.24-.18.42-.34.55-.34a.87.87,0,0,1,.51.28l1.16.91c.27.21.39.33.39.55s-.39.51-1.12.85c0,3.64,0,5,.06,6.92,0,.36.09,1.88.09,2.18a1.22,1.22,0,0,1-1.4,1.25c-.94,0-.85-.73-.82-1.12H317.9a12.84,12.84,0,0,0,1.88,4.85,19.89,19.89,0,0,0,4.52-3.76l1.89,1.58a.7.7,0,0,1,.33.55c0,.27-.36.36-.55.36s-.42,0-.73,0a41.68,41.68,0,0,1-5.22,1.7c.82,1.24,3.92,5.16,8.38,6v.21A5,5,0,0,0,325.7,47.53Zm-3.1-23.87h-7.47v4.22h7.47Zm0,4.95h-7.47v4.47h7.47Z"/>
	<path class="cls-2" d="M345.65,45.83a12,12,0,0,1-4.31,2.67l-.06-.15c5.25-3.79,6.8-9.65,6.8-15.09,0-2-.12-7.53-2.4-7.53-1.22,0-2.06,1.24-2.34,1.64a21.62,21.62,0,0,0-3.22,10.05c0,.33.22,1.88.22,2.19a.75.75,0,0,1-.73.85c-1.79,0-2.34-3.56-2.34-6.29a65.06,65.06,0,0,1,1.06-8.77,7.65,7.65,0,0,0,.12-1.16,3.15,3.15,0,0,0-1.76-2.76,5.89,5.89,0,0,1,1.37-.21,2.63,2.63,0,0,1,2.67,2.18,3.57,3.57,0,0,1-.36,1.34,21.6,21.6,0,0,0-1.7,8.14c0,.45,0,2.18.3,2.18s.24-.15.27-.3c.7-2.49,3.31-10.26,6.9-10.26,3.79,0,4.19,5.95,4.19,9C350.33,39.12,349.05,42.73,345.65,45.83Z"/>
	<rect class="cls-4" x="0.65" y="0.65" width="393.77" height="67.97"/>
</svg>