<?xml version="1.0" encoding="UTF-8"?>
<svg id="_レイヤー_2" data-name="レイヤー 2" xmlns="http://www.w3.org/2000/svg" viewBox="0 0 451.3 162.37">
  <defs>
    <style>
      .cls-1 {
        fill: #231815;
      }

      .cls-2 {
        fill: #fff;
      }

      .cls-3 {
        fill: #7a3240;
      }
    </style>
  </defs>
  <g id="design">
    <g>
      <g>
        <path d="M117.54,2.21c2.92,4.17,6.9,6.68,11.33,8.29-.48.61-.9,1.56-1.09,2.34-.13.53-.21.72-.45.72-.13,0-.34-.08-.64-.25-2.02-.95-3.9-2.11-5.57-3.45v2.14c0,.28-.03.31-.29.31-.16,0-.8-.06-2.86-.06h-3.69c-2.04,0-2.68.06-2.84.06-.29,0-.32-.03-.32-.31v-2.23c-1.64,1.36-3.42,2.56-5.33,3.62-.29.17-.48.25-.61.25-.19,0-.29-.19-.48-.67-.29-.75-.69-1.45-1.22-1.92,4.83-2.17,8.04-5.12,10.24-8.46.45-.7.8-1.31.98-1.98,1.03.17,2.04.36,2.84.61.32.06.48.17.48.39,0,.17-.08.31-.27.42l-.21.17ZM111.68,17.25h-3.78c-.28,0-.31-.03-.78-.33v-2.17c.47-.28.5-.31.78-.31.17,0,1.08.06,3.78-.19h10.01c.47.25.78.22.97.13.17-.06.31-.11.42-.11.28,0,.53.08,1.25.78.92.89.97,1.11.97,1.28,0,.28-.08.39-.36.61-.31.25-.53.61-.92,1.34-1.03,1.97-3.28,5.37-5.42,8.09-.11.14-.19.22-.33.22-.22,0-.58-.17-1.39-.5-1.06-.42-1.42-.56-1.42-.75,0-.06.06-.14.17-.25,2.14-2.28,4.2-5.4,5.4-7.84h-9.35ZM111.51,10.25c.17-.71.83-.68,2.98-1h6.76c-1.92-1.21-3.59-2.9-4.95-4.77-1.39,1.92-3.03,3.59-4.84,5.77h.06Z"/>
        <path d="M136.94,12.35c3.42-1.14,6.12-1.7,8.12-1.7,3.78,0,6.34,2.48,6.34,5.95,0,2.84-1.33,4.81-3.98,6.23-1.45.81-3.39,1.59-5.76,1.84-.5.08-.72-.03-.92-.39-.31-.56-.81-1.17-1.7-1.84,3.25-.5,4.78-.97,6.7-1.92,1.59-.83,2.5-2.14,2.5-4.14s-1.22-3.06-3.45-3.06c-1.92,0-4.84.95-7.87,2.17-.7.31-1.25.64-1.56.86-.22.19-.39.28-.56.28-.25,0-.45-.17-.72-.5-.64-.81-1.06-1.78-1.5-2.7,1.39-.22,2.75-.58,4.34-1.08Z"/>
        <path d="M162.62,3.56c.33.14.47.28.47.53,0,.11-.06.25-.17.39-.17.28-.33.75-.58,1.92-.92,4.56-1.47,8.76-1.47,10.93,0,.61,0,2.03.03,3,.61-1.34,1.14-2.45,1.89-4.14.22.72.56,1.42.83,1.86.17.25.22.36.22.5s-.06.25-.17.47c-.31.78-.97,2.34-1.47,3.73-.11.42-.19.81-.19,1.22,0,.14,0,.28.03.58,0,.22-.06.33-.33.42-.56.22-1.61.45-1.95.5-.39.03-.53-.14-.58-.33-.78-2.25-1.08-4.76-1.08-8.35,0-2.59.64-7.51,1.11-10.32.31-1.92.36-2.81.36-3.81,1.2.25,2.17.5,3.06.89ZM172.12,6.79c-2,.14-3.67.31-5.7.56-.08-1-.14-1.72-.17-2.56,0-.25.17-.31.47-.33,2.34-.25,5.26-.45,7.01-.53,1.14-.06,2.53-.11,3.06-.11.47,0,.53.17.56.47.06.64.06,1.2,0,1.86-.03.28-.11.39-.31.39-.58.03-1.17.06-1.95.08-.03,1.2-.06,2.56-.08,3.81,1.28-.14,2.67-.33,3.7-.58.25-.06.31.03.33.25.14.67.19,1.47.25,2.34,0,.19-.11.25-.31.31-1.17.28-2.67.45-3.92.61.03,1.89.08,3.48.19,5.09,1.61.58,3.56,1.7,4.73,2.64.22.17.22.31.11.56-.25.61-.7,1.47-1.14,2.17-.08.14-.17.22-.25.22s-.17-.08-.31-.19c-1.14-1.03-2.03-1.64-3.2-2.31-.36,2.42-1.84,3.56-4.84,3.56s-4.98-1.53-4.98-3.76,1.95-3.87,4.65-3.87c.75,0,1.56.06,2.25.19-.06-1.42-.08-2.36-.11-3.98-2.25.14-3.75.06-5.31-.11-.25-.03-.33-.11-.36-.33-.08-.72-.17-1.78-.17-2.53,1.81.22,3.76.22,5.79.11v-4.03ZM169.94,19.89c-1.17,0-1.92.53-1.92,1.28,0,.83.75,1.25,1.98,1.25.89,0,1.64-.25,2-.7.22-.31.33-.75.33-1.45-.86-.28-1.53-.39-2.39-.39ZM183.24,2.98c0,1.67-1.34,2.98-3,2.98s-3-1.31-3-2.98,1.33-2.98,3-2.98,3,1.31,3,2.98ZM178.59,2.98c0,.95.7,1.64,1.64,1.64s1.64-.7,1.64-1.64-.7-1.64-1.64-1.64-1.64.7-1.64,1.64Z"/>
        <path d="M190.78,5.84c.25.11.45.31.45.5,0,.17-.08.45-.22.78-.11.33-.25,1.53-.25,2.73,0,1.78.06,3.78.5,6.34.39,2.2,1.11,4.09,2.28,4.09.89,0,1.59-.97,2.67-3.87.61.97,1.22,1.61,1.78,2.14.33.31.33.64.19,1.03-1.06,2.84-2.78,4.34-4.73,4.34-2.17,0-4.45-2.56-5.2-7.26-.44-2.64-.67-5.54-.67-8.09,0-1.53-.06-2.36-.33-3.64,1.34.17,2.7.5,3.53.92ZM203.69,7.59c.11-.06.22-.11.31-.11.11,0,.19.06.31.17,2.53,2.2,4.76,6.04,5.45,9.51.08.36-.08.47-.31.61-.72.47-1.42.86-2.17,1.11-.33.11-.53.03-.58-.31-.95-3.98-2.36-6.87-5.2-9.71,1.06-.67,1.75-1.06,2.2-1.28Z"/>
        <path d="M218.02,12.25s-3.42.05-3.59.05c-.28,0-.31-.03-.31-.29v-1.53c0-.26.03-.29.31-.29.17,0,1.02.05,3.53.05h7.15v-1h-3.9c-2.69,0-3.63.06-3.79.06-.28,0-.3-.03-.3-.31v-1.5c0-.28.03-.31.3-.31.17,0,1.1.06,3.79.06h3.9v-2h-5.08c-2.59,0-3.46.05-3.62.05-.27,0-.3-.03-.3-.29v-1.53c0-.26.03-.29.3-.29.16,0,1.03.05,3.62.05h1.49c-.31-.5-.74-1.08-1.23-1.63-.2-.24-.23-.29.17-.39l1.81-.47c.32-.08.37-.13.57.11.69.71,1.32,1.55,1.83,2.39h4.15c.29-.42.52-.89.83-1.45.2-.37.32-.71.46-1.21.92.16,1.81.34,2.64.58.26.08.4.13.4.32,0,.16-.14.29-.32.37s-.37.34-.52.55c-.17.29-.37.55-.57.84h2.18c2.72,0,3.67-.05,3.84-.05.31,0,.34.03.34.29v1.53c0,.26-.03.29-.34.29-.17,0-1.12-.05-3.84-.05h-5.82v2h4.04c2.62,0,3.53-.06,3.69-.06.24,0,.27.03.27.31v1.5c0,.28-.03.31-.27.31-.16,0-1.07-.06-3.69-.06h-4.04v1h10.59c.25.21.41.52.41.52v1.64s-.16.31-.41.31c-.17,0-1.03-.06-3.48.53h-12.52c-.11-.12-.39,1-.39,1h9.69c2.43,0,3.67-.05,3.83-.05.3,0,.3.03.3.32,0,.16-.03.97-.03,3.59v2.75c0,4.15.03,4.93.03,5.07,0,.3,0,.32-.3.32h-2.47c-.23,0-.26-.03-.26-.32v-.68h-9v.93s-.65.31-.93.07h-2.11c-.28.23-.31.21-.31-.07,0-.14.06-1.11.35-5.48v-2.92c-1.4,2.23-2.85,4.26-4.8,6.04-.33.28-.5.45-.67.45-.14,0-.28-.17-.56-.53-.42-.56-.95-1.06-1.47-1.42,2.98-2.39,5.34-5.81,6.34-10.06h-1.95ZM223.12,16.25v1h10v-1h-10ZM233.12,20.25v-1h-10v1h10ZM233.12,23.25v-1h-10v1h10Z"/>
        <path d="M248.06,15.72c.25.14.28.28.14.5-.42.64-.72,1.56-.72,2.11,0,1.75,1.81,2.61,6.59,2.61,2.7,0,5.26-.31,7.54-.81.39-.08.53,0,.58.25.14.53.39,2.03.44,2.73.03.25-.14.36-.47.42-2.59.47-4.76.67-8.29.67-6.23,0-9.43-2-9.43-5.62,0-1.14.42-2.34,1.47-3.98.72.36,1.42.72,2.14,1.11ZM254.35,4.81c2.03,0,4.12-.14,5.9-.25.28-.03.39.08.42.31.08.64.14,1.42.14,2.36,0,.39-.14.56-.47.58-2.64.39-4.56,1.31-6.82,2.75-.22.17-.47.25-.7.25-.19,0-.39-.06-.58-.17-.56-.36-1.14-.67-1.95-.89,1.45-.95,2.67-1.72,3.64-2.31-.61.08-1.47.08-2.28.08-1.06,0-3.31-.19-4.87-.47-.25-.06-.36-.17-.36-.5,0-.67.06-1.47.11-2.48,2.11.5,4.78.72,7.82.72Z"/>
        <path d="M280.2,5.81c.25-.08.36-.08.42.22.14.7.22,1.53.25,2.25,0,.25-.11.31-.33.33-1.5.31-2.86.5-4.59.75-1.78,4.7-3.42,8.54-5.42,11.93-.11.19-.19.28-.31.28-.08,0-.19-.06-.33-.14-.64-.39-1.45-.97-1.92-1.42-.14-.11-.19-.19-.19-.31,0-.08.03-.19.14-.33,2.09-3.45,3.56-6.37,4.81-9.71-1.06.06-1.92.06-2.78.06-.61,0-.83,0-1.53-.03-.28,0-.33-.08-.39-.45-.14-.53-.22-1.45-.28-2.36,1.14.08,1.78.11,2.59.11,1.08,0,1.92-.03,3.2-.14.33-1.17.53-2.11.72-3.12.17-.97.17-1.39.17-2.25,1.2.17,2.39.33,3.25.58.28.06.44.22.44.42,0,.22-.08.36-.25.53-.17.22-.28.47-.44,1.03-.19.67-.42,1.53-.67,2.36,1.08-.11,2.36-.36,3.45-.61ZM280.98,13.27c-.03-.75-.06-1.2-.22-1.98,1.36.14,2.09.25,3.03.53.25.06.39.19.39.45,0,.06-.06.25-.17.58-.11.33-.14.67-.11,1.14,0,1.64.08,2.84.31,4.73,2,.81,3.37,1.42,5.01,2.59.28.19.31.31.17.58-.42.86-.81,1.56-1.28,2.25-.08.14-.17.19-.25.19s-.17-.06-.28-.17c-1.22-1.06-2.25-1.67-3.39-2.34,0,2.78-2,4.06-5.17,4.06s-5.12-1.56-5.12-3.95,2-4.06,5.15-4.06c.53,0,1.31.03,2.2.17-.17-1.78-.22-3.48-.25-4.78ZM279,20.28c-1.39,0-2.48.56-2.48,1.61,0,.89.78,1.34,2.36,1.34,1.5,0,2.42-.81,2.42-1.97,0-.25,0-.39-.03-.56-.67-.22-1.42-.42-2.28-.42ZM284.18,6.9c.17-.28.31-.31.58-.19,1.64.45,3.84,1.56,5.45,2.61.17.11.25.19.25.31,0,.08-.03.19-.11.33-.28.61-.78,1.47-1.17,2.06-.08.14-.17.19-.25.19s-.14-.03-.25-.11c-1.64-1.11-3.64-2.34-5.76-3.03.47-.83.89-1.67,1.25-2.17Z"/>
        <path d="M300.48,2.81c.47.11.67.25.67.53,0,.31-.17.64-.28.92-.14.39-.25,1.25-.39,3.39-.28,4.28-.42,7.12-.42,10.77,0,2.81.33,3.45,2.56,3.45,2.48,0,6.34-1.5,9.74-5.12.11,1.06.36,1.98.64,2.64.14.31.22.5.22.67,0,.25-.11.47-.56.86-3,2.75-6.93,4.17-10.54,4.17s-5.23-1.42-5.23-5.67c0-4.67.25-8.68.39-12.02.06-1.64.14-3.42-.28-5.09,1.28.14,2.61.28,3.48.5Z"/>
        <path d="M325.13,5.2c.14-.83.28-1.92.28-3.09,1.45.31,2.23.5,3.34.92.28.08.44.31.44.56,0,.14-.06.28-.19.42-.28.36-.42.67-.56,1.06-.36,1.14-.64,2.17-1,3.34.75-.08,1.59-.11,2.23-.11,2.59,0,3.98,1.81,3.98,5.37,0,3-.56,6.7-1.5,8.71-.81,1.78-2.14,2.61-3.76,2.61-1.33,0-2.28-.14-2.89-.42-.33-.14-.5-.36-.5-.78-.08-.89-.14-1.67-.53-2.59,1.25.58,2.34.72,3.2.72.92,0,1.34-.33,1.78-1.47.58-1.56,1.08-4.2,1.08-6.93,0-1.95-.36-2.56-1.59-2.56-.67,0-1.53.08-2.34.19-1.84,5.34-3.42,9.18-5.59,13.07-.17.36-.39.42-.72.25-.5-.25-1.59-.92-1.92-1.22-.14-.14-.22-.25-.22-.42,0-.08.03-.19.11-.31,2.23-3.87,3.67-6.82,5.09-10.9-1.08.17-1.98.33-2.73.47-.72.14-1.17.31-1.53.45-.39.14-.72.08-.89-.36-.25-.64-.56-1.64-.86-2.87,1.22,0,2.45-.08,3.67-.19,1.17-.11,2.2-.25,3.28-.42.44-1.59.64-2.56.83-3.5ZM336.15,7.07c.19-.11.33-.06.53.14,1.89,1.78,3.59,4.09,4.62,6.76.11.25.08.39-.11.56-.47.45-1.53,1.11-2.09,1.39-.28.14-.56.11-.64-.22-1.11-2.92-2.56-5.31-4.56-7.2.7-.47,1.5-1.03,2.25-1.42ZM336.9,3.17c.14-.11.25-.08.42.06.86.67,1.86,1.78,2.64,2.98.11.17.11.31-.08.45l-1.17.86c-.19.14-.33.11-.47-.08-.83-1.28-1.72-2.34-2.81-3.23l1.47-1.03ZM339.37,1.36c.17-.11.25-.08.42.06,1.03.78,2.03,1.89,2.64,2.87.11.17.14.33-.08.5l-1.11.86c-.22.17-.36.08-.47-.08-.75-1.2-1.64-2.25-2.78-3.2l1.39-1Z"/>
        <path d="M355.12,12.13v6.68s.23.31-.05.44h-2.14c-.28-.14-.81-.44-.81-.44v-1.56h-2v2.84c-.36.28-.67.16-.67.16h-2.09c-.27,0-.3-.03-.3-.31,0-.2.05-1.26.05-7v-4.06c0-4.09-.05-5.18-.05-5.38,0-.28.03-.31.3-.31.19,0,.72.06,2.44.06h2.63c1.74,0,2.28-.06,2.44-.06.27,0,.3.03.3.31,0,.17-.05,1.2-.05,4.43v4.2ZM350.12,6.25v8h3V6.25h-3ZM362.12,5.32c0-1.98-.03-2.84-.22-4.2,1.06.03,2.18.08,3.11.19.27.03.44.14.44.28,0,.19-.08.39-.14.58-.14.39-.19,1.03-.19,3.06v5.01h2.2c2.5,0,3.35-.06,3.5-.06.27,0,.29.03.29.32v2.48c0,.29-.03.32-.29.32-.16,0-1.01-.06-3.5-.06h-2.2v7.99c0,3.06.05,4.58.05,4.72,0,.27-.03.29-.3.29h-2.48c-.3,0-.33-.03-.33-.29,0-.16.05-1.66.05-4.69v-8.01h-1.81c-2.75,0-3.69.06-3.86.06-.29,0-.32-.03-.32-.32v-2.48c0-.29.03-.32.32-.32.18,0,1.11.06,3.86.06h1.81v-4.92Z"/>
        <path d="M378.94,9.6c2.34-.78,4.26-1.39,6.37-1.39,3.73,0,5.87,2.53,5.87,6.62,0,2.73-.97,4.95-2.25,6.65-1.31,1.78-3.17,3.25-5.37,4.42-.19.08-.33.14-.47.14-.25,0-.42-.11-.67-.36-.61-.58-1.36-1.11-2.31-1.47,3.06-1.45,4.95-3,6.12-4.65.81-1.14,1.53-2.67,1.53-4.92s-.97-3.5-2.59-3.5-2.78.42-4.37,1.2c-1.64.81-2.03,1.08-2.36,1.34-.22.17-.39.28-.61.28-.36,0-.61-.36-.78-.61-.39-.58-.97-1.81-1.42-2.92,1.14-.11,1.81-.33,3.31-.81ZM389.09,3.2c.31.06.42.28.36.5-.11.58-.42,1.92-.61,2.45-.08.28-.17.42-.39.39-3.03-.5-5.2-1.03-8.07-2.14-.14-.06-.28-.19-.19-.56.19-1.03.5-1.78.83-2.61,2.59,1.03,5.2,1.56,8.07,1.97Z"/>
      </g>
      <g>
        <path class="cls-1" d="M415.93,3.24c.07.68-.45.83-.82,1.2-1.18.78-2.32,1.79-3.18,2.89-3.34,4.05-6.52,8.27-9.28,12.75-.86,1.46-1.48,1.32-.64-.34,2.64-5.94,6.47-10.78,10.78-15.56,0,0,.89-1.19.89-1.19.38-.37.55-.92,1.23-.84.56.08.98.54,1.03,1.08h0Z"/>
        <path class="cls-1" d="M413.02,17.56c.13.52-.14.49-.42.68-1.73.54-2.79,2.05-4.09,3.19-1.33,1.13-2.53,2.41-3.81,3.6-.6.63-1.16.37-.57-.45.99-1.5,2.05-2.97,3.33-4.23.98-1.24,2.42-1.91,3.45-3.09.24-.32.44-.68.75-.94.49-.39,1.32.78,1.36,1.23h0Z"/>
      </g>
    </g>
    <g>
      <path d="M166.12,135.63c-4.96.93-9.31,1.79-13.66,2.68-1.54.37-1.95.45-2.56.65-.28.12-.57.33-.89.33-.28,0-.61-.24-.77-.61-.53-1.1-.98-2.52-1.5-4.39,2.07-.08,3.29-.24,6.46-.69,5-.73,13.94-2.07,24.43-3.46.61-.08.81.16.85.45.2.93.41,2.44.45,3.58,0,.49-.24.61-.77.61-1.91.12-3.21.33-4.96.89-6.91,2.36-10.37,7.11-10.37,11.99,0,5.24,3.74,8.09,10.81,8.54.65,0,.89.16.89.61,0,1.06-.16,2.48-.45,3.5-.12.61-.28.85-.77.85-7.15,0-15-4.11-15-12.56,0-5.77,2.89-9.67,7.8-12.89v-.08ZM173.82,140.02c.2-.16.37-.12.61.08,1.26.98,2.72,2.6,3.86,4.35.16.24.16.45-.12.65l-1.71,1.26c-.28.2-.49.16-.69-.12-1.22-1.87-2.52-3.41-4.11-4.72l2.15-1.5ZM177.44,137.37c.24-.16.37-.12.61.08,1.5,1.14,2.97,2.76,3.86,4.19.16.24.2.49-.12.73l-1.63,1.26c-.33.24-.53.12-.69-.12-1.1-1.75-2.4-3.29-4.07-4.67l2.03-1.46Z"/>
      <path d="M199.87,130.38c-.37-.89-.73-1.71-1.42-2.6,1.63-.28,3.29-.45,4.92-.45.57,0,.89.33.89.73,0,.24-.08.53-.08.77,0,.37.08.77.16,1.22.28,1.06.41,1.42.65,2.11,3.17-.61,5.41-1.22,8.29-2.15.37-.16.57-.12.69.2.24.77.53,1.91.69,2.72.08.41-.2.65-.49.73-2.72.85-5.2,1.46-7.97,2.07.37,1.02.89,2.28,1.42,3.41,3.29-.69,5.45-1.38,7.4-2.11.41-.2.61-.12.73.24.37.93.53,1.71.73,2.68.08.37.08.57-.33.73-2.03.77-4.59,1.5-6.87,1.99,1.75,2.93,3.33,5.2,5.33,7.03.41.37.41.53.2.98-.45.93-1.02,1.75-1.67,2.52-.24.28-.41.41-.65.41-.16,0-.33-.08-.57-.24-.65-.53-1.46-.89-2.4-1.3-2.07-.89-4.76-1.3-7.64-1.3-3.82,0-6.06,1.18-6.06,3.09,0,2.64,3.46,3.5,9.67,3.5,1.5,0,3.01-.16,4.47-.24.41,0,.53.2.49.53-.16,1.02-.45,2.6-.81,3.7-.12.41-.28.57-.85.61-.93.08-1.91.12-2.93.12-9.35,0-14.31-2.64-14.31-7.64,0-4.35,3.74-7.07,10.08-7.07,2.97,0,5.37.33,6.99,1.02-.94-1.1-2.28-3.05-3.37-4.8-4.19.65-8.17,1.14-11.14,1.22-.45,0-.61-.16-.73-.57-.24-.81-.61-2.2-.73-3.33,4.06-.08,7.32-.41,10.93-1.02-.41-.85-1.02-2.24-1.54-3.37-3.74.57-6.75.93-9.88.98-.49,0-.73-.16-.81-.57-.12-.45-.41-1.95-.65-3.25,3.98.04,7.24-.28,10.12-.65-.33-.93-.57-1.63-.98-2.64Z"/>
      <path d="M239.09,146.23c-2.8.08-5.57.08-8.37-.16-.45,0-.61-.16-.65-.69-.16-.89-.24-2.52-.24-3.46,3.01.37,6.1.45,9.15.33-.04-1.54-.04-3.13-.08-4.67-3.9.12-6.83.12-9.71-.2-.45,0-.65-.16-.69-.57-.12-1.02-.2-1.99-.28-3.66,3.54.41,7.07.41,10.65.41,0-1.5-.04-2.56-.08-3.94-.08-.93-.16-1.67-.49-2.72,2.15.12,3.9.37,5.12.73.49.16.73.73.45,1.22-.28.57-.57,1.26-.61,1.95-.04.81-.04,1.38-.08,2.6,3.78-.28,6.5-.73,8.9-1.22.49-.12.65,0,.69.49.16,1.14.2,2.24.2,2.97,0,.53-.12.61-.45.65-2.89.49-5.49.81-9.39,1.06,0,1.63.04,3.13.04,4.59,3.09-.2,5.04-.61,7.97-1.06.49-.12.61-.04.65.33.04.77.12,2.11.12,3.33,0,.41-.16.53-.61.57-2.68.45-4.55.73-7.97.98.08,1.87.16,3.86.28,5.73,3.9,1.1,7.24,2.56,10.77,4.92.41.37.41.49.28.98-.28.77-1.14,2.28-1.79,3.01-.16.24-.33.33-.53.33-.12,0-.28-.04-.45-.2-2.48-1.95-5-3.37-8.09-4.63-.04,4.39-2.68,6.18-8.25,6.18s-8.29-2.32-8.29-5.69,3.21-5.77,8.13-5.77c1.02,0,1.99,0,3.9.16-.08-1.79-.16-3.46-.2-4.84ZM235.15,154.45c-2.97,0-4.39.85-4.39,2.15,0,1.06,1.22,1.83,4.02,1.83,1.63,0,3.13-.49,3.7-1.22.33-.45.45-1.14.45-2.28-1.18-.28-2.64-.49-3.78-.49Z"/>
      <path d="M271.45,128.67c.69.16.98.37.98.77,0,.45-.24.93-.41,1.34-.2.57-.37,1.83-.57,4.96-.41,6.26-.61,10.41-.61,15.73,0,4.11.49,5.04,3.74,5.04,3.62,0,9.27-2.2,14.23-7.48.16,1.54.53,2.89.93,3.86.2.45.33.73.33.98,0,.37-.16.69-.81,1.26-4.39,4.02-10.12,6.1-15.41,6.1s-7.64-2.07-7.64-8.29c0-6.83.37-12.68.57-17.56.08-2.4.2-5-.41-7.44,1.87.2,3.82.41,5.08.73Z"/>
      <path d="M318.64,133.23c.45-.12.61.08.65.41.12.89.24,2.07.28,2.93.04.53-.08.65-.61.77-2.52.69-4.59,1.14-7.07,1.54-2.76,9.02-4.84,15.24-7.44,21.99-.2.57-.45.53-.89.41-.41-.16-2.4-1.02-3.25-1.5-.33-.2-.45-.53-.33-.81,3.09-7.11,5.04-12.48,7.03-19.27-2.36.24-5.2.45-7.11.45-.61,0-.77-.12-.85-.65-.16-.85-.37-2.24-.57-3.7.85.12,1.34.12,3.01.12,2.03,0,4.23-.12,6.58-.41.41-1.63.73-3.41,1.02-5.08.16-1.22.24-2.44.24-3.74,2.15.33,3.82.61,5.12,1.14.33.12.45.41.45.65,0,.16,0,.37-.2.65-.33.57-.65.98-.85,1.63-.41,1.46-.69,2.85-.98,3.86,1.58-.28,3.78-.81,5.77-1.38ZM317.05,152.66c.41,0,.57.16.61.57.33,2.97,2.32,3.82,6.22,3.82,2.28,0,5.2-.37,6.83-.57.33-.04.45.04.49.37.16,1.06.33,2.44.33,3.54.04.49,0,.61-.65.65-1.38.2-4.02.45-5.53.45-5.33,0-8.09-.73-9.92-2.64-1.3-1.3-1.75-3.21-1.83-5.57,1.26-.33,2.93-.61,3.46-.61ZM316.61,141.89c0-.57.12-.69.73-.81,2.56-.53,5.57-.93,7.93-.93,1.59,0,3.33.16,4.76.41.57.08.69.12.69.61.08,1.02.08,2.15.04,3.25,0,.69-.2.85-.77.73-1.42-.28-3.29-.49-5.04-.49-2.44,0-5.53.41-8.17.93-.08-1.42-.16-2.89-.16-3.7Z"/>
      <path d="M348.64,156.93l-.76,5.43-5.72-.8.76-5.43,5.72.8ZM348.43,152.91l-4.07-.57,2.24-24.11,6.28.88-4.46,23.8Z"/>
    </g>
    <g>
      <rect class="cls-2" x="64.12" y="45.25" width="382" height="61"/>
      <g>
        <path d="M95.12,92.25v-7h46v7h-46ZM101.12,64.25v-7h33v7h-33Z"/>
        <path d="M152.8,77.83c-1.04-3.5-2.64-6.75-4.66-9.87l5.64-2.15c2.08,3.25,3.68,6.44,4.72,9.87l-5.7,2.15ZM184.68,66.85c-.55.31-.61.55-1.23,2.94-4.6,18.83-16.99,26-22.87,29.44l-4.91-4.35c11.9-5.89,20.24-14.29,22.57-31.64l6.01,1.84c.8.25,1.23.67,1.23,1.1,0,.37-.12.43-.8.67ZM164.08,74.83c-1.04-3.68-2.45-6.81-4.35-9.93l5.46-2.09c2.27,3.62,3.5,7.42,4.17,9.93l-5.27,2.09Z"/>
        <path d="M221.56,84.02c-4.39-4.23-10.32-9.2-17.44-12.27v26.49h-7v-48.57l7.12,1.29c.18.06,1.42.25,1.42.98,0,.37-1.54,1.35-1.54,1.66v16.13l2.79-4.54c3.03,1.35,4.98,2.15,10.08,5.58,4.69,3.19,6.88,5.21,9.25,7.36l-4.69,5.89Z"/>
        <path d="M273.27,95.82c-5.49-6.76-9.78-11.1-14.72-15.09-4.83,5.37-9.29,9.96-20.64,15.51l-5.31-5.49c3.92-1.69,11.59-4.89,19.25-13.03,6.52-6.94,8.87-13.03,10.26-16.47h-22.99v-7h26.01c1.15,0,2.05-.6,3.14-1.33l4.65,5.13c-1.21.84-2.53,1.87-3.26,3.62-2.05,4.83-3.2,7.6-7,13.52,5.85,4.41,11.04,9.53,15.99,14.91l-5.37,5.73Z"/>
        <path d="M327.15,96.25c-2.48,3.31-5.73,4.14-12.92,4.2l-3.63-8.21c4.14.57,5.47.7,6.49.7,2.23,0,3.12-.51,4.01-1.78,2.48-3.31,4.14-13.49,4.39-22.91h-13.05c-.7,3.25-2.16,10.05-6.11,17.05-5.35,9.42-11.71,13.43-15.21,15.65l-6.43-5.09c3.5-1.97,9.74-5.54,14.7-13.75,3.44-5.73,4.58-10.95,5.16-13.87h-17.44v-7h18.45c.19-2.67.51-6.17.32-12.6l7.51.64c1.72.13,1.78.45,1.78.83,0,.32-.06.38-.7.95-.57.57-.57.64-.57,1.53,0,2.67-.06,4.2-.45,8.65h19.98c-.38,20.3-3.82,31.63-6.3,35Z"/>
        <path d="M338.12,78.25v-8h44v8h-44Z"/>
        <path d="M416.56,84.02c-4.39-4.23-10.32-9.2-17.44-12.27v26.49h-7v-48.57l7.12,1.29c.18.06,1.42.25,1.42.98,0,.37-1.54,1.35-1.54,1.66v16.13l2.79-4.54c3.03,1.35,4.98,2.15,10.08,5.58,4.69,3.19,6.88,5.21,9.25,7.36l-4.69,5.89Z"/>
      </g>
      <g>
        <path class="cls-3" d="M425.66,56.66c-.7.19-1.25-.18-1.58-.68-1.74-2.57-.01-6.27,2.56-7.47.74-.25,1.69-.51,2.31.07.71.68,1.11,1.62,1.18,2.52.11,1.79-.66,3.47-2.13,4.51-.71.55-1.95.79-2.83.6-1.58-.31-1.37-2.4-.48-3.35,1.35-1.53,4.17-1.67,5.18.25.16.27.24.61.14.9-.6,2.39-1.85,4.54-3.45,6.39-1.29,1.25-2.68,2.41-4.32,3.15-.52.28-1.12.42-1.81.25.31-.71.74-1.02,1.18-1.34,3.06-2.03,5.23-5.42,5.93-9,0,0,.14.9.14.9-.09-.12-.33-.06-.56.02-.19.07-.35.2-.36.24,0,.04.01,0,.02.06l-1.16-1.22c.73.11,1.24-.46,1.62-1.05.35-.61.49-1.55,0-2.05,0,0,.87.35.87.35-1.41,0-1.69,1.86-1.08,2.79.27.4.25.06.07.88-.21.9-.35,2.02-1.41,2.28h0Z"/>
        <path class="cls-3" d="M435.98,54.34c-1.25-.17-1.18-1.59-.91-2.43.43-1.31,1.8-2.27,3.21-2.12,1.27.16,1.89,1.62,1.54,2.7-.52,1.85-2.84,1.8-3.7.53-1.03-1.14-.55-3.28.66-4.07.84-.58,1.94-1.26,2.82-.57.53.44,1.23,1.04,1.59,2.07.32.86.14,1.78-.04,2.55-.59,2.67-2.11,5.13-4.16,6.89-.77.64-1.53,1.28-2.43,1.7-2.02.63-.6-1,.05-1.51,2.33-2.15,4.02-5.15,4.22-8.32-.06-.6-.28-.66-.92-1.17,0,0,1.29.22,1.29.22-.59.21-.97.54-1,.61-.02-.07-.04.06-.02.1,0,.02-.01,0-.09-.02-.1-.01-.12-.06-.38.04-.22.12-.27.26-.28.29-.11.37.49.72.84.69.14.04.43.46.47.18.02-.06-.15-.19-.58.09.43.6.29,1.44-.31,1.87-.6.43-1.44.29-1.87-.31h0Z"/>
      </g>
      <g>
        <path class="cls-3" d="M88.03,55.6c.85-.21,1.18.13,1.37.58.91,1.62.45,4.09-1.2,5.11-2.46,1.68-5-.16-5.21-2.85-.71-4.34,4.47-5.37,5.82-1.32,1.23,4.21-4.66,5.66-6.12,1.77-1.22-4.15,1.87-7.78,4.86-10.11.44-.37.86-.75,1.85-.53.19,1-.19,1.39-.52,1.82-1.48,2.02-3.57,5.08-2.76,7.42-.44-.55-1.24.35-1.1.78,0-.02-.04-.09-.01-.09.02-.02.03.03.32.11.32.09.8-.03,1.03-.3.24-.28.17-.36.15-.3-.02.06-.04.19-.04.33,0,.33.2.65.12.47-.07-.08-.25-.21-.5-.25-.42-.01-.73-.04-1.03.14-.11.1-.19.26-.29.36-.06.07-.09.08-.13.03-.08-.04-.06-.15.43-.8.71-1.04,1.69-2.14,2.94-2.38h0Z"/>
        <path class="cls-3" d="M79.99,56.66c.94.75.41,1.2.24,1.67-.74,1.37-2.15,2.19-3.22,3.25-1.19,1.11-2.92-.04-3.09-1.39-.15-1.11.14-1.95.98-2.7,1.6-1.32,3.79-.21,3.23,1.95-.72,2.51-4.61,2.62-5.4.14-.72-2.31,1.39-4.5,3.78-4.12,1.99.38,1.72,2.32.85,3.69-1.05,2.17-4.31,2.66-5.22-.01-.37-1.41.31-2.78.78-3.79,1.48-2.91,3.69-5.3,6.21-7.29.62-.49,1.37-.87,2.35-.77-.5,1.73-1.77,2.33-2.7,3.66-1.5,2.02-3.57,4.86-3.58,7.22-.06-.4-.62-.7-.98-.5-.14.08-.02-.01.04-.2.08-.18.15-.43.19-.66l1.47,2.22c.28.04.27.06.34-.12.21-.46-.44-1.26-.92-1.07-.33.12-.66.77-.49,1.18,0,0,1.42,1.26,1.42,1.26.88.07,1.2-.82.49-1.34,0,0-2.05.18-2.05.18.76-.66.7-1.78.84-2.68.13-.27-.16-.59.97-.62,1.2-.11,2.56.04,3.47.83h0Z"/>
      </g>
      <path class="cls-3" d="M56.22,114.68c.17-.05.38-.18.71-.28.38-.1.73-.04.9-.06.33-.04.95-.33,1.59-.27.37.02.48-.2.89-.31.33-.11.75-.06,1.02-.07.33-.05.7-.08,1.03-.14.86-.17,1.72-.39,2.58-.53,0,0,.34-.11.34-.11.08-.02.17-.05.28-.07.29-.1.97.02,1.12.08.12.04.15.01,0,0-.16,0-.16.02-.08-.02.12-.09.7-.32.96-.32.13-.01.24-.01.34,0,.41.02.5.02.49,0,.1,0,.32-.15.95-.21.42-.01.66.08.81.11.14.04.2.04.1.03-.03,0-.07,0-.11,0h.1s.2-.04.2-.04l.39-.05.19-.02s-.06,0-.05,0l.3-.12c.19-.06.46-.17.88-.15.36.02.56.09.67.11.11.03.13.01-.01.01-.06,0,.07-.01.17-.04.11-.02.26-.06.46-.1.38-.06-.04.02.05,0,.02,0,.14-.08.36-.18.11-.05.26-.11.46-.15.38-.13,1.16.09,1.35.2.08.04.09,0-.22-.01-.31.03-.36.11-.29.06.07-.03.21-.15.52-.29.14-.07.44-.15.64-.15.17-.01.32,0,.44.01.23.03.37.06.43.07.03,0,.03,0,0,0,0,0-.06,0-.03,0h.1s.39,0,.39,0h.35c-.21.03-.2.06-.11.01.1-.05.26-.16.62-.27.17-.05.43-.1.68-.08.23.02.4.07.52.11.28.11.53.17.22.12-.17,0-.12,0-.09,0l.31-.06.25-.05.15-.02s.17-.02.08,0c-.17.03-.15.05-.05,0,.1-.04.28-.16.63-.26.43-.11.75-.05.95-.02l.33.06s-.01,0-.07,0c.21-.03.54-.07.75-.1h.1s.18-.02.18-.02c.35,0,.47.02.72.03-.08.01-.09.03,0-.01.1-.03.26-.11.55-.18.4-.08.42-.04.57-.05h.61c.16-.05.73-.22.94-.21,0,0,.79-.01.79-.01.48-.03.81.04.89.03l.68-.04h.2s.13-.05.31-.1c.59-.22,1.23-.05,1.82-.17.62-.12,1.33-.02,1.96-.09,0,0,.2-.01.2-.01.12,0,.23-.02.36,0,.34.03.53.11.65.14.11.04.15.03.03.03-.03.02.27-.05.62-.11.31-.04.12,0,.2-.02l.38-.13c.15-.05.37-.1.56-.11.3-.04.52-.12.91-.14.39,0,.52.05.8.09-.03,0-.05.02.05-.01.09-.03.23-.09.46-.15.31-.1.81-.06,1.14,0,.11,0,.04.01.22,0l.76-.02s.29-.08.73-.16c.07-.01.32-.03.48,0,.16.03.28.07.37.1l.3.13s-.02,0-.09,0c-.06,0-.01,0,0,0,.12-.02.4-.13.59-.16.08-.02.31-.04.24-.03-.01,0,.06-.01.18-.06.26-.1.74-.25,1.1-.14.15.04.26.08.35.12l.28.14s-.26,0-.26.03c-.01.01.07-.04.21-.13.13-.08.35-.26.78-.3.37-.02.59.09.73.13.14.06.23.09.22.08-.19.02-.07.03.29-.15.15-.08.53-.16.76-.12.34.03.41.09.65.13.22-.02.57-.06.78-.09.09-.01.08,0,.09,0,.25-.03.56-.35,1.31-.19.23.07.36.15.45.19.1.04.08.03,0,.03.01.03.23-.12.7-.23.6-.08.77.06,1.06.06.58-.02,1.18-.06,1.76-.12.28-.03.62-.14.94-.15.38-.03.57-.16,1.14-.09.37.08.51.14.59.12.15-.01.4-.14.81-.18,1,0,.55.36,1.38-.02.37-.17.92-.05,1.28-.08.21-.04.44-.18.73-.23.22-.03.29-.02.44-.03.28,0,.48-.05.86-.02.33.04.49.09.68.06.36-.09,1.16-.14,1.59-.12.22,0,.43-.07.74-.12.25-.08.73.05.96.16.11.03.12.04.18.03.26-.06.43-.23.77-.27.38-.05.82.09,1.14,0,.46-.15,1.16-.17,1.63-.19.71.05.82.09,1.5-.1,1.24-.14,2.87.13,3.8-.09,0,0,.33-.2.33-.2.13-.08.38-.17.6-.13.38.07.61.23.71.22l.75-.06c.18-.02.13,0,.23-.05l.33-.2c.07-.04.15-.08.26-.11.24-.08.58,0,.77.05.39.13.58-.08.98-.16.3-.07.61,0,.9.04.11.02.26-.01.4.01.35.06.56.16.68.14.74-.19,1.59-.11,2.35-.21.73-.06,1.28-.11,1.94-.25.31-.04.87-.03,1.08-.11,0,0,.36-.15.36-.15.4-.17.94-.03,1.28-.06,1.19-.11,2.31-.08,3.5-.13.26-.05.42-.2.74-.24.31-.06.66.08.9.13.3.03.65-.2,1.06-.19,0,0,.79-.02.79-.02.78.03.75.18,1.48-.07.34-.09.71-.02.92,0,.35.06.68-.15,1.08-.18.35-.05.86-.27,1.25-.18,0,0,.38.05.38.05.1.01.16,0,.32-.02.28-.03.46-.08.83-.1.42.05.65.19.75.17.17-.01.8-.14,1.05-.17.59-.2,1.1-.17,1.66-.19.45,0,.67.19,1.07.07.23-.06.62-.14.85-.12,0,0,1.55-.06,1.55-.06.14,0,.38-.13.75-.2.54-.07.76.18,1.03.12.26-.12.52-.36.9-.35.26,0,.57.07.78.07.23-.02.36-.14.64-.2.45-.12.88.03,1.26-.02,1.07-.12,2.14.02,3.14-.02.32,0,.34-.01.66-.11.56-.09,1.14-.32,1.76-.25.66.12.79-.12,1.54-.11.6.1,1.12.1,1.52.12.14,0,.75-.17,1.03-.19,0,0,.37-.1.37-.1.14-.04.38-.08.55-.07.58.06.97.02,1.52-.05.26-.05.66.06.89.08.07,0,.09,0,.2-.02l.37-.08c.1-.03.29-.05.41-.06.12,0,.36-.16.84-.21l.78-.1h.1s.16-.01.16-.01c.17,0,.46.05.63.08.34.02.67-.16,1.16-.13.47.03.53.23.9.1.49-.2,1.28-.15,1.79-.16.85.11.53.03,1.43-.14.19,0,.32-.08.72-.16.44-.08.86.05,1,.06.06.03.39-.04.64-.06.14-.02.24-.04.41-.05.44,0,1.41.06,1.72.01,1.07-.48,2.28-.33,3.42-.42.31-.05.81.15,1,.25.03.01.04.01.02,0-.01,0-.03,0-.06,0,.31-.06.86-.18,1.25-.15.42,0,.98,0,1.38-.02-.07,0-.1.02-.1.02l.24-.15c.13-.08.41-.25.8-.25.56.03.81.17.83.14-.06.02.14-.05.52-.15.1-.02.22-.04.34-.05h.2c.18-.02.43-.03.59-.04.3-.04.79.08.97.1-.09,0-.05.01.04-.04.23-.18,1.01-.33,1.27-.23.28.04.31.09.59.06.98-.08,2.53-.12,3.29-.07.33-.15.5-.3,1.03-.31.37,0,.67.14.83.16,0,0-.06,0-.01,0,.15,0,.35,0,.47.03.31.07.52.03.27.07l.26-.14c.14-.11.64-.24.82-.22.43,0,.68.06.78.05l.75-.07c.17-.02.17-.01.28-.03l.39-.07c.41-.09.94,0,1.37,0,.53.03.67.19,1.07.14.23,0,.68-.02.42.01.24-.13.41-.23.7-.31.27-.1,1.1.02,1.17,0-.08.03.14-.07.63-.19.07-.02.24-.03.33-.03.36-.02.77-.09,1.12-.05.31.02.4.08.64.06.21-.01.58-.04.79-.05.43-.03.72.12,1.03.1.29,0,.64.08.92.03.41-.08,1.14-.09,1.57-.07,0,0,.78-.06.78-.06.16,0,.22-.07.54-.15.26-.09.72-.06,1-.06.47.03.68-.08,1.17-.11.42-.02.79.13.97.18-.06-.01-.17.01-.09,0,.75-.3,1.71-.31,2.6-.41.44-.02.67-.07,1.15-.05.32.02.77.27.91.35.02,0,.02,0-.06-.02-.06-.02-.24-.03-.31,0-.16.05-.09.04,0-.03.06-.08.7-.38,1.01-.35.37-.03.72.13,1.06.1,0,0,.66-.02.66-.02.01.02.28-.14.89-.2.6.03,1.94-.07,2.55-.11.3-.05.88.12,1.02.19.1.04.13.03-.02.02-.09,0-.04,0,.05-.02.16-.08.91-.2,1.05-.18.3-.01.61-.07.92-.04.33.03.44.08.7.07.78.06.91.06,1.52.02.19-.01.11,0,.21-.02.43-.14,1.17-.17,1.61-.03.07.02.16,0,0,.02-.14.03-.11.04,0-.03.11-.05.29-.17.66-.25.46-.11.97.06,1.36.24.03-.02-.29-.03-.23-.02.01.02.36-.18.98-.21,1.28.13,2.21-.15,3.32,0,.23.02.03.03.33-.03.42-.15,1.17-.12,1.57,0,.11-.02.68-.06.85-.08,0,.02.36-.15.93-.18.32,0,.85-.08,1.21-.01.27.04.42.12.64.19,0,0-.05,0-.11,0h.2c.83-.02.84-.12,1.56-.18.24-.01.65-.04.9-.05.47-.02.76.17,1.06.13,0,0,.67-.03.67-.03.01.02.28-.12.88-.17.39.01,1.19.02,1.58.02,0,0,.19,0,.19,0-.05,0-.07,0-.06,0,.42-.13.56-.26,1.19-.22.4.06.58.18.7.23.11.06.17.06.02.03-.19-.01-.15.02-.09-.01.14-.05.63-.21.89-.19.23-.02.9.09.86.07.05.01.33-.12.88-.15.35,0,1.16-.08,1.5.06,0,0,.32.09.32.09.01,0,0,0-.05,0-.24.03-.09.02.13-.09.17-.07.46-.2.9-.17.39.04.59.15.72.2.12.06.19.07.09.05-.03,0-.18,0-.24.02-.06.02-.06.02-.05.02.04-.02.15-.1.38-.21.12-.06.27-.12.49-.16.43-.11,1.08.19,1.28.34.08.06.13.04-.11,0-.32,0-.38.09-.32.05.17-.15.8-.5,1.18-.45,0,0,.1,0,.1,0h.39s.2,0,.2,0h.1s.22,0,.29.02c.43.08.59.22.72.28.11.07.18.08.04.04-.03,0-.1-.01-.14-.01.43,0,.93.02,1.36-.06.13-.02.41-.04.5-.03l.76.02c-.15.02-.12.03-.02-.02.1-.04.26-.14.57-.22.79-.13,1.11.12,1.23.1.07,0-.04,0-.05,0,0,0,.09-.03.25-.09.15-.05.42-.14.75-.13.29,0,.49.07.62.1.32.07.08.05.35.03.98-.2,2.54-.07,3.34.09,0,0,.72-.03.72-.03h.16s0,0,.03-.01l.36-.09c.72-.14,1.46-.05,2.18-.03.11,0,.03,0,.04,0,.14-.03.24-.09.51-.16.2-.07.64-.07.86,0,.46.15.56.18.41.16.02.02.28-.11.82-.17.64,0,.92.2.97.18-.06,0,.21,0,.23,0,0,0,.39,0,.39,0h.2c.05,0,.04,0,0,0-.08.02.04-.01.2-.09.15-.06.38-.17.76-.17.39.02.59.14.73.19.13.06.22.1.18.08-.1-.02-.12,0-.04-.01l.39-.12c.16-.04.33-.06.51-.07.14,0,.45-.11.9-.1.82.07,1.04.09,1.6.15.12.02.29-.02.62-.06.4-.05.6,0,.88,0l.44.02c.23.01.4.05.52.08.29.05.19.06.44.02.11-.02.26-.06.45-.08h.15s.09-.02.09-.02c.02,0,.05,0,.09-.01,1.33-.29,2.36-.06,3.38.08.05-.01.16-.08.33-.15.14-.07.39-.14.58-.14.3,0,.63.08.88.08,1.33-.17,3.03.14,4.32.15.36,0,.71.07.95.08-.04,0-.06.01-.04,0,.04-.01.14-.07.29-.15.13-.07.43-.21.76-.17.28.03.45.12.57.16.12.05.2.08.19.07-.04,0-.05.02.04-.02.14-.07.53-.24.79-.24.31-.03.87.2.98.16,0,0,.79-.01.79-.01.13.01.35-.06.72-.11.72-.03,1.19-.03,1.83-.04.33-.05.83.19,1.01.27-.05,0-.04.01.05-.03.09-.04.21-.11.41-.19.17-.08.51-.09.7-.04.24.05.36.1.54.13.02,0,.03,0,.16,0,.37.03.62.11.75.11.01.03.21-.08.62-.2.35-.11.83.08,1.08.2,0,0,.07.02.07.02,0,0,0,0,0,0h.1s.39.03.39.03l.38.02s.12-.01.23-.05c.12-.03.27-.09.47-.12.23-.03.42,0,.57.03.3.07.5.11.52.09.12-.01.44-.24.91-.23.33.01.58.07.78.07h.78c.16.02.19.02.31,0l.39-.07c.58-.11.98.18,1.5,0,.23-.1.75-.13,1.01-.04.31.07.37.09.68.06.26-.01.52-.04.78-.04l.8-.02c.33.02.58.08.78.09.38,0,.69.17.83.19.04.01.17.01.31.02l.39.02c.4.02.73.02,1.12.02.01,0,.1-.03.21-.1.11-.06.24-.15.46-.21.27-.06.42,0,.58.02l.37.09c.14.03.23.01.37.04.31.06.58.14.64.12.08,0,.28-.19.7-.31.1-.02.18-.02.28-.01.45.03,1.03.02,1.45.16.26.04.57.06.79.14.12.03.22.05.28.05-.02,0,.06-.01.15-.08.1-.06.21-.15.39-.23.34-.21,1.01.1,1.31.09,0,0,.79.05.79.05.37.01.63.13.81.14h.75s.19,0,.19,0c.13-.01.25-.08.42-.15.35-.2.94-.03,1.31,0,0,0,.38.02.38.02.26.02.51,0,.85.06.7.23.76-.03,1.5-.06,1.43.31,2.38,0,3.89-.07.66-.05,1.3-.05,1.96-.08,0,0,.2,0,.2,0,.08,0,.2.01.28.03.34.09.52.22.67.19.52-.02,1.05-.05,1.57-.1.15-.01.21,0,.32-.03l.39-.09c.14-.03.34-.05.52-.01.29.05.45.18.7.18,0,0,.39,0,.39,0l.79-.02c.45-.08,1.11.07,1.56.08.52,0,1.05-.03,1.57-.08.65.04.93.16,1.56.1.14,0,.27,0,.32-.02.22-.05.55-.21.82-.2.37-.03.82-.1,1.18-.09.27.01.48-.04.87.03.32.08.48.15.65.12.61-.17,1.84-.11,2.44.06.46.03,1.14-.07,1.6.09.11.03.22.04.26.04-.03,0,.05-.02.15-.09.1-.06.22-.16.43-.24.07-.04.29-.06.35-.06,0,0,.2,0,.2,0h.39c.13.01.25,0,.48.03.37.08.59.18.65.16.09,0,.31-.13.72-.2.54-.05.85.22.98.24-.04.02.38,0,.6,0h.2c.07,0,.14,0,.12,0,.01,0,.1-.03.22-.09.12-.05.28-.14.54-.17,0,0,.46-.02.46-.02.26,0,.52-.03.79-.01h.39s.2.02.2.02h.16c.07.01.13.02.19.04.43.13.65.24.57.19.03,0,.25-.11.7-.19.51-.05.81.09.97.09h.67c.26.01.52,0,.79-.02l.38-.02s.06-.02.17-.05c.11-.03.28-.1.52-.13.29-.03.45,0,.61.02.16.02.28.04.36.05.04,0,.07,0,.1,0h.2s.73-.03.73-.03c.15-.01.42-.09.85-.1.47.01.74.1.83.09.03,0,.02,0,.13-.03.09-.02.23-.06.44-.1.39-.11,1,.08,1.27.2.06.03.06-.03-.19,0-.17.04-.1.03,0-.04.11-.06.26-.2.66-.31.55-.1.76.01.97.06.19.06.3.1.33.1.01,0,0,0-.05-.01-.03,0,0,0,.01,0l.32-.07c.08-.02.18-.03.3-.05.11,0,.24-.03.48,0,.39.07.57.18.7.23.11.06.17.05.02.01-.15-.01,0-.01.04-.02l.2-.02.39-.04c.34-.03.64-.03.98-.05.05,0,.06,0-.02,0h-.09c-.08.03,0,0,.15-.08.14-.06.45-.21.9-.21.62-.01,1.34.05,1.96.05,0,0,.39-.01.39-.01.15,0,.18-.03.57.01.56.1.7.16.61.12.55.02.82.11.84.09,0,0,.02,0-.03,0-.05,0-.21.03-.19.02.04-.01.18-.09.46-.18.14-.04.34-.09.59-.1h.24s.39-.02.39-.02h.2s.1-.01.1-.01c.26-.02.88.14.95.18.11.04.12.02-.04,0-.08,0-.02,0,.08-.02.11-.02.27-.05.52-.07.45-.03.72.03,1.1.08.03,0,.04,0,.03,0h.17s.39.03.39.03h.2s.1.02.1.02c.04,0-.1,0-.12,0-.18.03-.15.04-.02-.02.13-.05.37-.18.86-.22l.92-.03c.35-.01.64-.05.98-.07-.02,0,.2,0,.32.02.14.02.25.05.35.08.38.13.54.24.6.27.08.05-.04-.06-.39-.08-.17,0-.16.02-.06-.01.11-.04.66-.18.96-.16,0,0,.1,0,.1,0h.2s.39.04.39.04h.22c.23.02.41.06.54.09.28.07.43.13.46.14-.07-.03-.34-.03-.44,0-.29.07-.25.1-.13.02.14-.06.33-.24.94-.35.71-.09,1.08.11,1.29.19.45.2.22.06-.06.05.1,0,.27.01.37.03l.45.07c.07.01.1,0,0,0-.05,0,0,0,.16-.04.15-.03.39-.09.76-.09-.2,0-.28.04-.19,0,.09-.03.27-.11.66-.18.51-.07.71,0,.91,0l.37.05s.04,0,.03,0h.17s.95.06.95.06c.36.05.57.13.68.16.11.04.12.02-.03.02-.17,0-.21.03-.11,0,.09-.02.27-.08.6-.12.28-.05.88.02,1.14.13.25.09.37.15.35.15l-.15-.02c-.08-.01-.33,0-.39.03-.17.06-.1.05.06-.02.17-.06.45-.24,1.09-.25.64.03.94.25,1.1.33.16.1.22.13.08.08-.03,0-.09-.02-.16-.03-.09-.01-.16,0-.13,0,.25.04.53-.06,1.16.04.23.04.39.09.48.12.05.02.09.02.1.04.02,0-.03,0-.1.01-.21.04-.18.07-.07.03.12-.03.32-.14.75-.2.08-.01.27-.01.32-.01h.1s.2.02.2.02l.39.03c.7.08,1.34.17,2.03.23.32.06.5.16.62.22.3.13,0,.13.28.16h.45c.21-.02.57.05.74.16.21.14.32.2.41.32,0,0,0,.01-.02.02,0,0,.03.01.05.02.17.06.47.02.81.1.37.06.4.64.04.73-.22.07-.43.19-.81.28-.21.06-.49,0-.67-.06-.17-.06-.29-.1-.35-.09-.03,0-.03.02,0,.04.04.01-.02.02-.04.04-.07.03-.17.07-.32.12-.23.14-1.03.09-1.26-.01-.13-.03-.19-.02-.13.01.04,0,.02.01-.03.02l-.1.02-.2.03c-.73.12-1.53.19-2.27.29-.02,0,.1,0,.12,0,.17-.02.12-.02,0,.06-.13.06-.34.2-.81.27-.14.01-.25.01-.3.01h-.19s-.3-.04-.3-.04c-.16-.02-.26-.03-.29-.02.03.02-.11.05-.48.1-.09.01-.2.02-.32.03-.03,0-.16,0-.32-.01-.28-.01-.93-.3-.97-.33-.07-.04-.02.06.36.08.37,0,.41-.08.34-.03-.08.04-.24.16-.67.28-.39.12-.97.07-1.31-.05-.3-.11-.56-.18-.24-.1.12.02.19.01.22,0,.07,0,0,0-.17.06-.28.15-1.41.13-1.69-.03-.14-.05-.18-.05-.08-.03,0,0,.09,0,.07,0h-.1s-.2,0-.2,0h-.39s-.22-.02-.22-.02c-.14,0-.26-.02-.36-.03l-.41-.07c-.07-.02-.12,0,.12-.02.13-.03.06-.02-.1.04-.15.05-.49.17-.96.16.11,0,.09-.01-.02.01-.11.02-.31.07-.62.09-.37.02-.6-.02-.79-.05l-1.03-.19c-.32-.11-.46-.2-.5-.21-.03-.03.09.09.53.04.35-.07.31-.11.22-.05-.12.05-.3.21-.85.34-.34.09-.9.03-1.21-.09,0,0-.29-.1-.29-.1.01,0,.06.01.16.02h-.17s-.39-.05-.39-.05l-.2-.02h-.1s.1-.01.1-.01c.1-.01.05-.01-.1.03-.15.04-.4.12-.83.12-.62-.01-.98-.23-1.13-.31-.17-.1-.23-.12-.1-.07.04.01.09.02.16.04.06.01.21.01.13.01h-.2c-.41.02-.77.03-1.18.02,0,0-.2,0-.2,0h-.1c-.06,0-.05,0,.04,0,.22-.03.22-.06.1-.01-.12.04-.33.15-.77.21-.08.01-.29.02-.32.01h-.1c-.52-.07-1.08-.09-1.58-.2-.09-.01-.05-.02-.05-.02-.02,0-.11,0-.26.03-.29.1-1.31,0-1.5-.15-.26-.09-.08-.04,0-.05,0,0-.1,0-.1,0h-.2s-.39-.02-.39-.02c-.05,0-.17,0-.15,0,.29-.03.28-.08-.08.06-.26.1-.69.18-.99.13-.62-.09-1.59-.28-1.64-.34.13,0-.11,0-.22-.01-.69,0-1.29-.12-1.96-.17,0,0-.39-.03-.39-.03.19,0,.24-.06.14-.02-.59.32-1.39.22-2.06.22,0,0-.39,0-.39,0h-.2c-.08,0-.06.02-.35-.01-.41-.07-.59-.2-.72-.26-.11-.07-.17-.07-.03-.05.11.01.11,0,.08,0-.01,0-.05,0-.09,0l-.45.06c-.11,0-.22.02-.38,0-.3,0-.7-.17-.86-.24-.03-.03-.09.01.2-.03.14-.05.07-.04-.04.03-.13.06-.29.2-.72.29-.7.07-.82-.09-1.24-.27,0,0,.02,0,.08,0,.02,0,0,0-.03,0-.1-.01-.47.12-.99.08-.43-.05-.66-.14-.73-.14-.1-.02-.34.02-.72.04-.46,0-.65-.03-1.04-.04-.21,0-.55-.07-.71-.11-.09-.02-.19-.03-.17-.03-.27.02-.46.14-.85.13,0,0-.41,0-.41,0-.39,0-.79-.03-1.18-.07,0,0-.2-.02-.2-.02-.24.01-.89-.19-.89-.17-.07-.02-.33.12-.83.14-.69-.06-.81-.3-.95-.3-.57-.07-1.13-.11-1.7-.12,0,0-.09.02-.2.06-.12.04-.28.12-.53.15-.16.01-.21,0-.27,0h-.2s-.39-.02-.39-.02h-.23c-.14-.02-.25-.05-.34-.09-.35-.15-.5-.24-.5-.22-.11-.01-.36.14-.8.17-.47-.01-.72-.19-.87-.21-.21-.03-.73-.05-.93-.07-.29.1-.4.3-.84.34-.23,0-.38-.04-.52-.08-.44-.18-.85-.04-1.52-.11-.34-.06-.52-.14-.71-.14l-.78-.06c-.18-.01-.41.06-.74.09-.37.04-.71-.11-.89-.16-.13-.04-.45-.02-.7-.03-.5,0-.95.02-1.45.11-.23.1-.65.16-.88.14-.44.06-1.15-.06-1.56-.1-.52.05-1.05.07-1.57.07-.27.02-.62-.06-.83-.09-.51-.03-1.37.04-1.91.04-.44.03-.68-.27-1.08-.18,0,0-.38.09-.38.09-.14.04-.35.04-.46.04-.69.04-1.83.21-2.41-.12-.05-.01-.06-.01-.11-.01h-.2s-.39.02-.39.02c-1.72-.06-3.75.51-5.5.13-.15-.02-.37.08-.69.15-.37.07-.68-.05-.9-.08-.28-.04-.79-.04-1.12-.06-.4.01-.65-.19-1.01-.05-.22.12-.6.25-.89.21-.39.05-1.23-.06-1.56-.13,0,0-.78-.04-.78-.04-.42.01-.68-.14-.97-.15-.09.03-.18.09-.32.19-.12.07-.29.19-.57.2-.28,0-.59-.12-.81-.15-.36.01-.76-.17-1.12-.15,0,0-.71-.03-.71-.03-.09,0-.29.21-.73.32-.47.04-.69-.09-.9-.11-.12-.01-.29,0-.41-.04,0,0-.4-.1-.4-.1-.1-.03-.21-.03-.2-.02-.25.09-.39.27-.76.33-.76.02-1.34.03-2.1-.03-.84-.24-1.48-.24-2.25-.19-.5.02-1.15.16-1.66,0-.26-.05-.27-.04-.54.04-.44.23-1.2,0-1.62.06,0,0-.38.07-.38.07-.14.03-.37.04-.47.04h-.8c-.33,0-.59-.05-.79-.05-.07-.02-.21.08-.59.2-.62.15-.86-.09-1.24-.07-.25.05-.48.18-.82.19-.21,0-.59-.02-.8-.03-.32.02-.66-.12-.94-.23-.09-.02-.02-.01-.07,0-.11,0-.36.22-.88.24-.6-.04-.61-.1-1.04-.11-.22-.02-.51-.13-.68-.14.03,0,.02,0,0,0-.05.02-.15.08-.3.15-.14.07-.39.18-.7.15-.31-.03-.65-.23-.77-.25,0,0-.1,0-.1,0h-.2s-1.51.07-1.51.07c-.15.01-.44.12-.84.13l-.79.03c-.28.05-.76-.14-.96-.14-.36.14-.55.3-1.03.26-.33-.03-.58-.19-.73-.22.06,0,.11-.02.01.03-.22.11-.48.3-.82.32-.36.02-.77-.08-1.01-.06,0,0-.79,0-.79,0-.39,0-.67-.07-.83-.07l-1.52-.05c-.35-.03-.82.05-1.18.08-.31,0-.62-.06-.88-.06.03,0,.08-.02.02.01-.2.15-.86.37-1.13.29-.86-.12-2.18-.27-2.88-.02-.11.03-.31.04-.45.06-.34.06-.5.13-.9.13-.28,0-.6-.09-.79-.11-.3,0-.83-.05-1.03-.01-.18.02-.54.11-.94.09-.54-.04-1.2-.08-1.53-.11-.08,0-.28.05-.66.11h-.15c-.07.02-.11.02-.08.02-.4.12-.65.27-1.21.18-.3-.07-.45-.15-.55-.2-.1-.05-.14-.04-.02-.02.12,0,.1-.02.01.03-.09.04-.24.12-.5.2-.21.06-.42.06-.61.06,0,0-.39,0-.39,0h-.2c-.19.05-1.15-.21-.93-.16.01-.02-.21.09-.71.18-.11.02-.31.02-.45,0-.22-.01-.54-.17-.65-.18-.04,0,.13,0,.08,0-.23.1-.72.25-.97.22-.54,0-1.22-.04-1.74.02-.49.18-1.06.19-1.58.22-.07,0-.11.01-.26,0-.48-.03-.72-.12-.74-.1-.36.01-.73-.06-.83-.06-.29.01-.74.01-1,.03-.38.05-.51.11-.96.1-.29-.02-.6-.11-.73-.13.07,0,.08-.01-.01.02-.26.15-1.02.27-1.32.16-.39-.11-.58-.1-.31-.11-.2.08-.41.25-.93.3,0,0-.81-.01-.81-.01-.16,0-.15,0-.28.01-.4.08-.88.09-1.29.09,0,0-.2,0-.2,0h-.1c-.35.04-.9-.22-1.01-.3-.1-.06-.17-.06,0-.03,0,0,.17,0,.09,0h-.1c-.12,0-.46,0-.59.01,0,0-.1,0-.1,0-.01,0-.12,0-.01,0,.13-.01.19-.05.2-.05-.38.23-.5.45-1.28.46-.5-.06-.69-.23-.83-.3-.12-.08-.21-.11-.11-.07.04.02.21.04.3.02.09-.02.12-.03.12-.03-.24.15-.4.25-.71.35-.37.15-1.08-.03-1.29-.15-.11-.05-.15-.04-.03-.03.17,0,.21-.03.14,0-.21.09-.62.29-.98.28-.29.02-.77-.13-.91-.17,0,0,.02,0,.05,0h-.08s-.79.03-.79.03c.02-.02-.19.06-.66.14-.57.05-.99-.05-1.06-.04-.42.12-.52.23-1.15.2-.41-.06-.59-.17-.72-.22-.11-.06-.17-.06-.04-.03.2.02.19-.02.13.01-.7.35-1.87.2-2.66.22.07-.03-.15.07-.66.16-.17.01-.96.07-1.1.07-.31.02-.7-.09-.91-.13-.23.03-.7.03-1.03.1-.19.07-.82.12-.98.12-.33.02-.8.07-1.09-.01-.27-.07-.46-.15-.49-.15,0,0,.16,0,.04,0l-.78.04s-.1.04-.6.16c-.58.06-1.44.2-1.99.03-.1-.02-.1-.01-.07-.02,0,0-.08.01-.2.04-.41.14-1.12.11-1.53.03-.74.06-1.95.11-2.65.04.09-.03-.04.03-.55.16-.33.14-1.16-.07-1.41-.24.03.01.21.03.28,0,.11-.03.05-.02-.07.04-.13.06-.33.19-.73.25-.42.04-.6-.02-.78-.04l-.29-.06s.04,0-.05,0c-.69.18-1.99.2-2.56.11-.17.03-.71-.07-.93-.08-.2.01-.75.05-.83.05-.25.06-.53.18-.97.19-.46-.02-.82-.18-.91-.23.02,0,.05,0,.09,0-.65.03-1.98.13-2.62.1.19-.05-.72.23-.96.19-.54.03-1.19.04-1.68-.09.01,0,.11,0,.14-.02.15-.05.08-.04-.02.03-.12.06-.28.2-.7.31-.49.13-1.04-.09-1.42-.33-.07.01.41.05.12.04-.81.04-1.55.1-2.42.21-.08,0-.08,0-.05,0,.03,0,.02,0,0,0-.39.13-.72.27-1.23.2-.29-.05-.45-.12-.55-.15-.1-.04-.1-.02,0-.02-.3.03-.88.14-1.18.1,0,0-.39,0-.39,0h-.18c-.66.27-1.77.26-2.55.24-.57.04-1.14.15-1.71.05-.35,0-.81-.07-1.03-.12-.18.01-.6.03-.78.04-.31.03-.63-.03-.92-.08,0,0-.05,0-.05,0h-.2s-.65.05-.65.05c-.02-.02-.28.14-.89.2-.48,0-.72-.07-.88-.06.04,0,.07,0,.09-.01.04-.01.04-.02.02,0-.05.02-.17.09-.39.19-.11.05-.26.1-.45.13-.13.02-.18.01-.19.01h-.1c-.23,0-.65,0-.87,0-.31-.02-.5-.09-.63-.12-.12-.04-.19-.05-.14-.04.09,0-.11,0-.18,0l-.26-.02-.34-.03c-.08,0-.1,0-.2.01l-.38.06c-.7.09-1.58.13-2.11.04-.06,0,.1-.01.09-.02.02,0,.01,0-.02.01-.07.03-.2.12-.44.22-.19.09-.61.14-.84.1-.25-.03-.37-.06-.53-.08,0,0-.02,0-.02,0-.02,0-.15,0-.21,0-.29-.03-.47-.1-.59-.13-.12-.04-.17-.04-.11-.04.1,0,.12-.03.03.01-.08.03-.22.12-.47.2-.17.07-.46.08-.63.07-1.25-.09-2.45.04-3.71,0,0,0-.39-.08-.39-.08-.09-.02-.08,0-.02-.02.01,0-.08.03-.22.09-.14.06-.35.17-.71.19-.28,0-.48-.04-.62-.07-.33-.07-.17-.05-.55-.05h-.39s-.2.02-.2.02c-.23,0-.4.19-1.06.18-.51-.06-.74-.18-.71-.15.12,0,.15-.05.06,0-.08.04-.2.14-.44.24-.17.08-.44.13-.68.12,0,0-.39,0-.39,0h-.79c-.67-.08-1.26.29-1.9-.01,0,0-.32-.15-.32-.15-.02,0,0,0,.04,0,.05,0,.03,0-.01,0h-.1s-.79.02-.79.02l-49.77,2.73c-.26-.06-.25-.02-.5.07-.19.12-.66.18-.89.16-.78,0-1.59.07-2.36.04,0,0-.78.06-.78.06-.32.03-.61-.03-.82-.03-.18-.02-.29.06-.61.18-.39.13-.62.08-.88.11-.29.02-.47.02-.72.09-1.4.27-2.58.12-3.96.36-.41.03-.69-.13-.86-.14-.06,0-.03,0-.13,0-.09,0-.17,0-.25-.01l-.39-.06c-.22-.03-.31,0-.6.11-.23.12-.74.14-.98.04-.13-.04-.24-.06-.32-.07-.17,0-.31.16-.51.26-.12.09-.44.14-.52.14l-.81.06c-.44-.04-.66-.23-.79-.23-.03-.04-.2.08-.49.25-.12.09-.44.14-.52.14l-.39.03c-.77.07-1.58-.05-2.35,0-.25.01-.56.01-.75.04-.2.03-.46.15-.81.17-.34.01-.6-.05-.79-.04l-.77.05c-.27,0-.4.06-.71.14-.41.12-.86,0-1.21.03-.05,0-.14.04-.26.1-.12.05-.25.13-.45.17-.36.09-.67-.09-.95-.16-.08-.02-.07-.01-.21,0-.21.04-.5.14-.81.15l-.79.02c-.21.01-.44.09-.75.13-.34.06-.7-.02-.88-.03-.14-.01-.46.03-.71.05-.47,0-.62.2-1.1.29-.21.03-.33.02-.48.02-.29,0-.49-.02-.58.04-.15.05-.47.3-.98.27-.4-.05-.64-.15-.67-.12-.12,0-.35.12-.71.2-.45.09-.82-.07-.96-.08-.05-.02-.31.04-.57.1l-.22.04-.19.03c-.22.05-.51.15-.79.18,0,0-.4.06-.4.06-.26.04-.52.08-.78.1l-.39.04-.2.02c-.1,0-.21.01-.3,0-.35-.03-.59-.06-.6-.04-.05,0-.27.18-.79.29-.34.05-.62-.06-.76-.11-.15-.06-.26-.11-.28-.11.16,0,.03,0-.28.16-.12.07-.48.14-.59.15,0,0-.39.06-.39.06l-.39.06c-.26.03-.49-.02-.63-.05-.15-.03-.25-.05-.27-.05-.03,0,.08-.01,0,.02-.06.03-.17.1-.36.18-.35.22-1.07.13-1.36-.02-.1-.04-.14-.02-.03-.02.17-.02.15-.05.07.02-.08.06-.2.17-.45.29-.13.06-.32.13-.53.14-.21,0-.38-.03-.49-.07-.24-.08-.37-.15-.44-.17-.04-.01-.05-.01-.02,0,0,.01.16,0,.13,0,.01,0-.05.02-.17.07-.12.05-.29.13-.56.18-.21.03-.11.02-.15.03l-.1.03c-.1.03-.24.09-.44.15-.33.15-1.05-.02-1.3-.15-.03,0-.04,0,0,0,.03.01.15,0,.09,0-.08,0-.32.13-.8.2l-.81.06c-.08,0-.42.03-.56.01l-.37-.03s-.06,0-.06,0c0,0,.03,0,.01,0l-.28.11c-.24.15-1.02.2-1.29.12-.29-.03-.1-.02-.38.03-.15.06-.82.16-.65.14l-.36.15c-.16.08-.62.14-.57.13-.16.02-.37.13-.92.17-.38,0-.6-.08-.74-.11-.14-.04-.2-.04-.12-.03h.07s-.1.01-.1.01l-.2.02-.39.04c-.96.01-1.88.24-2.79.23-.25.1-.76.25-1.09.25,0,0-.39.04-.39.04-.15.01-.21.03-.49.04-.45,0-.64-.03-.68-.02l-.78.04c-.1,0-.05,0-.06,0l-.07.02c-.13.05-.6.19-.82.2,0,0-.2,0-.2,0l-.39.02c-.11,0-.35.02-.21,0,.03,0-.05.02-.2.08-.19.14-1.06.26-1.35.19-.14-.01-.23-.01-.25-.01l-.31.04-.39.06-.22.03c-.18.01-.34,0-.46-.01-.47-.1-.62-.06-.28-.1.1-.03.05-.02-.09.05-.13.06-.35.2-.78.27l-.16.02c-.2.04-.33.08-.6.12-.1.01-.17.04-.48.03-.24-.01-.41-.06-.53-.1l-.38-.14s.04.02.13.02c.11.01.25-.01.29-.03.1-.04.04-.02-.09.06-.14.07-.37.23-.84.3-.22.02-.29.01-.44.02h-.39s-.33.02-.33.02c-.16,0-.28-.01-.39-.03l-.35-.05s.27-.03.3-.06c.08-.04,0,0-.15.1-.15.08-.44.3-1.01.35-.57.01-.81-.14-.97-.2-.14-.07-.22-.08-.09-.05.05.02.25.01.3,0,.07-.01.09-.03.09-.02l-.35.16c-.11.05-.25.1-.45.14-.28.05-.22.03-.26.04l-.31.06c-.16.03-.29.07-.61.09-.41.01-.65-.07-.79-.1-.14-.04-.19-.04-.1-.04.16,0,.18-.03.12,0-.06.02-.2.08-.44.15-.12.03-.26.07-.44.08h-.2s-.39.04-.39.04h-.2s-.1.02-.1.02c-.28.05-.88-.1-.97-.15-.11-.04-.13-.02.04-.03.09-.03-.17.04-.59.13-.52.09-.96,0-1.07,0h-.05s.1-.03.09-.03c.01-.01-.07.02-.24.09-.17.06-.41.18-.84.19-.4,0-.63-.1-.76-.15-.13-.05-.19-.06-.1-.06.02,0,.06,0,.09,0-.04,0-.07,0-.13.01,0,0-.42.09-.42.09-.09.02-.21.03-.32.04,0,0-.2.01-.2.01l-.78.06c-1.11.11-2.22.25-3.3.06-.09-.02-.13-.02-.14-.03-.03,0-.13.02-.27.07-.22.11-.85.16-1.11.08-.42-.13-.82.02-1.54-.03-.34-.05-.52-.13-.66-.13-.18,0-.46.09-.81.1-.21,0-.38-.16-.39-.37,0-.19.13-.35.31-.38h0Z"/>
    </g>
    <g>
      <g>
        <g>
          <path d="M11.07,54.29c-.66-1.33-1.23-2.25-2.06-3.2,1.18-.41,2.39-.82,3.62-1.06.37-.07.6-.01.67.27.08.31.05.86.6,2l1.05,2.24,2.19-1.01c1.52-.71,3.4-1.57,4.75-2.35.14-.04.28.04.39.23.42.67.78,1.35,1.21,2.26.05.2-.06.32-.34.42-1.23.57-3.14,1.41-4.47,2.04l-2.35,1.11,1.66,3.4,3.88-1.79c1.9-.87,3.19-1.55,4.15-2.1.34-.18.46-.09.56.18.38.65.74,1.3,1.08,2.11.07.25-.02.49-.29.59-.81.34-2.42,1.07-4.32,1.94l-3.69,1.71,1.48,2.94c.9,1.77,1.85,3.44,2.59,4.74.07.13-.05.25-.28.41-.54.35-1.67.96-2.39,1.27-.36.13-.56.03-.65-.19-.48-.98-1.31-2.86-2.18-4.55l-1.59-3.12-3.63,1.69c-1.82.85-3.3,1.6-4.29,2.17-.28.19-.52.17-.73-.14-.5-.74-1.06-1.73-1.53-2.57,1.66-.65,3.08-1.28,5.01-2.15l3.75-1.7-1.67-3.43-2.52,1.13c-1.47.67-3.25,1.56-3.95,1.96-.26.16-.42.11-.61-.14-.42-.58-1.16-1.85-1.54-2.59,1.48-.52,2.97-1.13,4.83-1.95l2.45-1.08-.84-1.7Z"/>
          <path d="M37.91,53.76c-1.4.38-2.8.78-4.18,1.24-.25.07-.41-.07-.56-.42-.36-.66-.69-1.68-1.07-2.75,1.64-.26,3.37-.66,5.22-1.16l9.62-2.58c.48-.13,1.02-.33,1.4-.71.11-.15.21-.24.32-.27.14-.04.3,0,.47.08.82.35,1.76.85,2.34,1.23.25.14.39.32.44.51.05.17.01.39-.17.62-.35.48-.46.85-.6,1.57-1.2,6.72-3.49,11.09-8.12,15.46-.19.17-.34.3-.51.35-.2.05-.42,0-.71-.17-.94-.47-1.95-.65-3-.76,4.54-3.8,8.07-8.89,8.64-14.84l-9.55,2.59ZM38.17,47.23c-1.26.34-2.66.74-3.81,1.14-.28.08-.41-.07-.56-.51-.24-.57-.63-1.78-.86-2.65,1.75-.29,2.6-.49,4.65-1.04l5.05-1.35c1.82-.49,3.29-.97,4.36-1.32.25-.07.37.05.46.36.24.69.45,1.47.59,2.19.13.48.07.61-.35.7-.93.25-2.26.54-3.97,1l-5.55,1.49Z"/>
        </g>
        <g>
          <path d="M29.9,77.42c-.66-1.33-1.23-2.25-2.06-3.2,1.18-.41,2.39-.82,3.62-1.06.37-.07.6-.01.67.27.08.31.05.86.6,2l1.05,2.24,2.19-1.01c1.52-.71,3.4-1.57,4.75-2.35.14-.04.28.04.39.23.42.67.78,1.35,1.21,2.26.05.2-.06.32-.34.42-1.23.57-3.14,1.41-4.47,2.04l-2.35,1.11,1.66,3.4,3.88-1.79c1.9-.87,3.19-1.55,4.15-2.1.34-.18.46-.09.56.18.38.65.74,1.3,1.08,2.11.07.25-.02.49-.29.59-.81.34-2.42,1.07-4.32,1.94l-3.69,1.71,1.48,2.94c.9,1.77,1.85,3.44,2.59,4.74.07.13-.05.25-.28.41-.54.35-1.67.96-2.39,1.27-.36.13-.56.03-.65-.19-.47-.98-1.31-2.86-2.18-4.55l-1.59-3.12-3.63,1.69c-1.82.85-3.3,1.6-4.29,2.17-.28.19-.52.17-.73-.14-.5-.74-1.06-1.73-1.53-2.57,1.66-.65,3.08-1.28,5.01-2.15l3.75-1.7-1.67-3.43-2.52,1.13c-1.47.67-3.25,1.56-3.95,1.96-.26.16-.42.11-.61-.14-.43-.58-1.16-1.85-1.54-2.59,1.48-.52,2.97-1.13,4.82-1.95l2.45-1.08-.85-1.7Z"/>
          <path d="M56.75,76.9c-1.4.38-2.8.78-4.17,1.24-.25.07-.41-.07-.56-.42-.36-.66-.69-1.68-1.07-2.75,1.64-.26,3.37-.66,5.22-1.16l9.62-2.58c.48-.13,1.02-.33,1.4-.71.11-.15.21-.24.32-.27.14-.04.3,0,.47.08.82.35,1.76.85,2.34,1.23.25.14.39.32.44.51.04.17.01.39-.17.62-.35.48-.46.85-.6,1.57-1.2,6.72-3.49,11.09-8.12,15.46-.19.17-.34.3-.51.35-.2.05-.42,0-.71-.17-.94-.47-1.95-.65-3-.76,4.54-3.8,8.07-8.89,8.64-14.84l-9.55,2.59ZM57.01,70.37c-1.26.34-2.66.74-3.81,1.14-.28.07-.41-.07-.56-.51-.24-.57-.63-1.78-.86-2.65,1.76-.29,2.6-.49,4.65-1.04l5.05-1.35c1.82-.49,3.29-.97,4.36-1.32.25-.07.37.05.46.36.24.69.45,1.47.59,2.19.13.48.07.61-.35.7-.93.25-2.26.54-3.97,1l-5.55,1.49Z"/>
        </g>
      </g>
      <path class="cls-3" d="M2.11,82.17c-.04.46.08,1.16.08,1.62-.01.35-.08.66-.05.8.05.34.07.68.04,1.06,0,.11-.09.5-.07.54.14.01.23,1.94.25,2.17.04.31-.03.8.05,1.13.08.43.17.86.3,1.28.08.28.03.72.04.85.02.07.07.17.13.32.18.45.12.39.28.71.12.19.31.91.28,1.15,0,0,0,0-.01-.02l.03.08.14.35.07.18c.08.18-.01.07.17.28.18.16.41.59.5.86.15.5.64,1.01.78,1.49,0,0,.1.24.1.24l.22.31c.52.74,1.04,1.53,1.67,2.18.16.22.34.25.58.44.39.3.45.66.84.91,1.04.89,2.09,1.6,3.27,2.32,3.82,1.99,8.17,4.09,12.65,3.74.59,0,1.18.04,1.68.11.54.01.86.12,1.48-.05,1.29-.09,2.72-.26,4.01-.33.21,0,.46-.12.65-.19.5-.18.82-.07,1.1-.12.21-.04.56-.12.77-.16.06,0,.42-.14.49-.17.66-.18,1.1-.26,1.73-.33.62-.13,1.56-.6,2.18-.69,1.03-.21,2.04-.6,3.03-.94.35-.1.24-.06.56-.25.19-.16.87-.34,1.11-.34.21-.03.15-.06.38-.18.31-.24.91-.34,1.26-.47.17-.07.53-.2.7-.27.27-.19.87-.51,1.24-.57.27-.08.18-.04.45-.21.68-.45,1.59-.69,2.29-1.12.33-.24.87-.39,1.19-.45.21-.12.55-.3.76-.42.61-.45,1.39-.63,2.05-.99.35-.2.78-.26,1.14-.42,0,0,.61-.25.61-.25.04,0,.3-.34.9-.55.92-.19.78-.17,1.47-.42.09-.02.31-.19.74-.37.42-.15.7-.17.83-.21.03.02.18-.12.63-.33.57-.22.97-.12,1.03-.15-.04.02.14-.04.27-.07l.4-.11c.38-.1.38-.12.69-.24.78-.23,1.01-.11,1.74-.25,0,0,.29-.04.29-.04.05-.01.16-.06.32-.12.26-.14.86-.17,1.13-.11,1.7,0,3.54-.28,5.23.12.99.2,1.9.09,2.9.37.7.27,1.62.42,2.29.6,0,0,.75.17.75.17l.4.06c.76.18,1.32.49,1.96.7,0,0,.75.24.75.24.73.1,1.57.59,2.31.81.69.32,1.45.79,2.2.99,0,0,.74.35.74.35.28.13.16.62-.18.55-2.51-.43-4.61-2.02-6.41-3.72-.34-.45-.78-.85-1.14-1.28-.34-.78-.48-.84-.87-1.42-.4-.79-.84-1.51-1.2-2.36-.12-.47-.12-.72-.18-.83l-.21-.82s-.2-.29-.26-.96c.02-.64.13-.91.07-.82.01.05-.15-.25-.11-.96.12-.68.27-.92.21-.86l.15-.91c.1-.43.41-1.31.56-1.73.23-1.21,1.68-2.77,2.74-3.51.86-.46,2.95-1.43,1.84.64-.5,1.2-1.04,2.31-1.73,3.37-.01-.02-.05.17-.24.65-1.21,2.77-1.61,6.28-.09,9.19.19.39.2.71.24.79.26.35.6.9.86,1.27,1.15,1.43,2.63,2.65,4.38,3.26,0,0,.73.29.73.29.25.06.51.1.77.15l-.17.55-.72-.35c-.71-.19-1.53-.66-2.2-.95-.82-.22-1.39-.61-2.25-.73,0,0-.79-.23-.79-.23l-1.52-.48c-.26-.1-.41-.08-.74-.12-.47-.07-1.9-.33-2.4-.42-.58-.08-.94-.3-1.55-.28-.9-.02-1.88-.06-2.76-.21-1.41-.02-2.78.16-4.18.3,0,0-.26,0-.26,0-.27,0-.25-.04-.45.04-.64.37-1.68.38-2.35.57-.38.19-.82.33-1.19.45-.13.04-.2.09-.51.14-.47.04-.63.04-.56.05-.05,0-.29.25-.79.43-.38.12-.64.15-.72.2-.07.02-.28.19-.69.38l-.75.3c-.45.19-.85.19-.86.22.08-.05-.03.04-.43.34-.28.17-.37.18-.5.24-.41.19-.88.36-1.3.49-.09.05-.43.21-.54.27-.47.25-.89.3-1.33.63-.29.19-.7.38-1,.55-.24.16-.78.25-.96.3-.58.35-1.21.61-1.83.88-.19.09-.4.15-.59.28-.26.22-.96.46-1.3.54-.2.07-.37.23-.65.35-.46.17-.87.32-1.32.44-.37.04-.56.21-.95.39-.34.15-.64.16-.96.19-.66.39-1.13.44-1.81.66-.93.38-2.15.5-3.09.73-.67.23-1.38.48-2.14.49,0,0-.13.02-.13.02l-.2.03c-.63.05-1.03.25-1.6.33,0,0-.4.06-.4.06l-.21.03c-.27.05-.81-.03-.9.02-.26.08-.61.23-.9.21-1.24,0-2.79.11-4.03.13-.93.22-2.29-.19-3.24-.21-.17,0-.51.11-.9.03-.35-.08-.54-.18-.73-.19-.43.03-1.15-.11-1.61-.23-.19-.03-.49.04-.86-.06-.83-.37-.68-.27-1.55-.41-.36-.12-.56-.31-.74-.36-1.25-.29-2.6-.88-3.78-1.43-.67-.37-1.48-.67-2.2-.99-1.15-.77-2.29-1.43-3.44-2.21-.33-.25-1.1-.69-1.32-1.08-.16-.19-.23-.19-.53-.35-.72-.45-1.31-1.13-1.9-1.74,0,0-.57-.61-.57-.61l-.29-.31c-.34-.52-1.82-2.57-2.2-3.07,0,0-.2-.37-.2-.37l-.05-.1c-.03-.07-.06-.14-.08-.2-.04-.13-.07-.24-.08-.33-.03-.18-.05-.29-.07-.31,0,.03-.03-.05-.09-.15-.11-.15-.34-.71-.37-.76-.15-.28-.37-.74-.38-1.14-.01-.22-.01-.35-.02-.4,0-.03,0-.02,0,0-.18-.54-.31-1.11-.41-1.67-.01-.07-.03-.22-.03-.3v-.45c-.02-.4-.08-1.18-.06-1.6,0-.12,0-.35,0-.31.03-.07-.12-.46-.02-1.05.11-.52.22-.61.25-.73.06-.29.09-.53.16-.85.35-.93.56-1.51,1.07-2.3.17-.26.59-.15.6.16h0Z"/>
    </g>
  </g>
</svg>