<?xml version="1.0" encoding="UTF-8"?>
<svg id="_レイヤー_2" data-name="レイヤー 2" xmlns="http://www.w3.org/2000/svg" viewBox="0 0 341.91 91.53">
  <defs>
    <style>
      .cls-1 {
        fill: #7f0073;
      }

      .cls-2 {
        fill: #004473;
      }

      .cls-3 {
        fill: #2ca89c;
      }

      .cls-4 {
        fill: #00396d;
      }

      .cls-5 {
        fill: #006f75;
      }

      .cls-6 {
        fill: #d70065;
      }

      .cls-7 {
        fill: #030000;
      }

      .cls-8 {
        fill: #0068a9;
      }

      .cls-9 {
        fill: none;
        stroke: #000;
        stroke-miterlimit: 10;
        stroke-width: 1.01px;
      }

      .cls-10 {
        fill: #231815;
      }

      .cls-11 {
        fill: #018064;
      }

      .cls-12 {
        fill: #840880;
      }

      .cls-13 {
        fill: #017fc8;
      }

      .cls-14 {
        fill: #003680;
      }

      .cls-15 {
        fill: #6a1680;
      }

      .cls-16 {
        fill: #0081b0;
      }

      .cls-17 {
        fill: #00408a;
      }

      .cls-18 {
        fill: #0189d2;
      }

      .cls-19 {
        fill: #00307c;
      }

      .cls-20 {
        fill: #007074;
      }
    </style>
  </defs>
  <g id="design">
    <g>
      <g>
        <path class="cls-7" d="M197.99,1.89c-4.27,0-7.7,3.44-7.7,7.7s3.44,7.68,7.7,7.68,7.69-3.43,7.69-7.68-3.44-7.7-7.69-7.7"/>
        <path class="cls-7" d="M204.07,52.27c-1.28,5.76-9.14,22.24-18.77,20.16-10.9-2.37-10.81-12.41-6.83-21.06,4.2-9.17,8.68-19.53,10.76-24.46.72-1.72.92-4.63-2.53-4.51-7.54.29-13.97,15.8-13.97,15.8h-1.62c2.91-7.68,8.51-17.39,16.65-17.25,7.79.13,13.24,8.56,9.48,17.02l-10.73,24.02c-3.91,7.82.53,12.45,7.54,5.32,3.95-3.9,7.75-12.86,8.21-15.05h1.82Z"/>
        <path class="cls-7" d="M48.38,2.27c-8.72-.79-27.95,3.71-41.06,25.03-18.24,29.68,1.22,54.27,18.8,55.36,17.09,1.05,34.43-13.11,41.46-29.54,11.7-27.39-1.87-49.26-19.21-50.86M53.68,44.78c-9.94,35.23-20.26,36.56-26.35,36.16-14.83-.96-16.43-12.48-7.95-42.51C28.38,6.5,40.25,1.82,49.71,4.26c7.15,1.85,13.27,7.57,3.96,40.52"/>
        <path class="cls-7" d="M160.41,20.48l-2.37,7.85c-.11-2.59-1.49-8.02-8.04-8.65-8.15-.8-22.56,9.31-27.62,25.13-4.87,15.19,1.16,26.33,12.11,26.72,5.86.2,11.04-4.28,13.92-9.24-4.69,20.86-7.75,26.71-15.76,27.52-5.05.5-5.85-2.19-5.1-2.68,1.16-.76,4.16-1.49,4.16-4.97,0-2.99-2.56-5.37-6.05-5.37s-6.46,2.58-6.46,5.68c0,4.05,5.42,9.29,13.28,9.06,12.24-.34,20.7-5.79,24.38-17.72l14.99-53.32h-11.44ZM152.88,47.19c-6.59,21.7-15.4,23.64-19.37,22.25-3.95-1.38-3.08-10.43,1.9-26.02,4.93-15.51,8.05-22.05,14.38-22.05,5.26,0,9.44,4.86,3.09,25.83"/>
        <path class="cls-7" d="M113.2,20.28l-2.38,7.85c-.1-2.59-1.49-8.01-8.03-8.65-8.15-.8-22.56,9.31-27.63,25.13-4.87,15.2,1.16,26.34,12.13,26.71,5.85.21,11.01-4.26,13.89-9.24-4.67,20.85-7.75,26.73-15.76,27.52-5.05.51-5.86-2.19-5.09-2.68,1.16-.76,4.17-1.5,4.17-4.96,0-2.99-2.58-5.36-6.07-5.36s-6.44,2.57-6.44,5.66c0,4.07,5.4,9.29,13.26,9.07,12.27-.35,20.71-5.82,24.39-17.72l14.99-53.34h-11.43ZM105.66,47c-6.59,21.7-15.4,23.64-19.37,22.24-3.95-1.38-3.08-10.42,1.9-26.01,4.93-15.51,8.04-22.04,14.4-22.04,5.26,0,9.42,4.86,3.07,25.82"/>
      </g>
      <g>
        <line class="cls-9" x1="265.69" y1="69.63" x2="250.57" y2="54.51"/>
        <line class="cls-9" x1="244.61" y1="48.54" x2="228.6" y2="32.53"/>
        <line class="cls-9" x1="228.6" y1="69.63" x2="265.69" y2="32.53"/>
      </g>
      <g>
        <g>
          <path class="cls-10" d="M282.84,86.59h.35v-.15h-.86v.15h.35v1.29h.16v-1.29Z"/>
          <path class="cls-10" d="M283.63,86.31v.78h0c.06-.08.14-.13.26-.13.25,0,.3.18.3.39v.53h-.15v-.5c0-.15-.01-.28-.19-.28-.21,0-.22.2-.22.35v.43h-.15v-1.57h.15Z"/>
          <path class="cls-10" d="M284.68,87.46c0,.17.12.3.29.3.13,0,.22-.07.27-.18l.13.08c-.09.16-.23.25-.42.25-.26,0-.44-.2-.44-.46s.15-.49.44-.49.44.24.42.51h-.7ZM285.22,87.33c-.02-.13-.13-.24-.26-.24s-.25.11-.27.24h.53Z"/>
          <path class="cls-10" d="M287.16,87.1c.19,0,.3.15.3.32s-.1.34-.3.34-.3-.16-.3-.34.11-.32.29-.32ZM287.61,86.98h-.15v.13h0c-.07-.1-.18-.16-.3-.16-.26,0-.43.23-.43.48s.16.47.43.47c.12,0,.23-.06.31-.15h0v.1c0,.2-.05.38-.29.38-.16,0-.28-.1-.28-.27h-.15c0,.25.19.41.44.41.13,0,.26-.05.34-.16.09-.12.09-.24.09-.39v-.85Z"/>
          <path class="cls-10" d="M288.18,87.88h-.15v-1.57h.15v1.57Z"/>
          <path class="cls-10" d="M288.5,87.43c0-.26.21-.48.47-.48s.47.21.47.48-.21.47-.47.47-.47-.21-.47-.47ZM288.66,87.43c0,.19.13.33.32.33s.32-.14.32-.33-.13-.33-.32-.33-.32.15-.32.33Z"/>
          <path class="cls-10" d="M289.92,87.42c0,.17.1.34.29.34s.3-.16.3-.34-.11-.32-.3-.32c-.18,0-.29.15-.29.32ZM289.77,86.31h.16v.8h0c.07-.1.19-.16.31-.16.27,0,.43.22.43.47s-.17.47-.43.47c-.12,0-.24-.05-.31-.15h0v.12h-.16v-1.57Z"/>
          <path class="cls-10" d="M291.08,87.42c0,.17.1.34.29.34s.3-.16.3-.34-.11-.32-.3-.32c-.18,0-.29.15-.29.32ZM291.82,87.88h-.15v-.12h0c-.08.1-.18.15-.31.15-.26,0-.43-.22-.43-.47s.16-.48.43-.48c.12,0,.23.06.3.16h0v-.13h.15v.9Z"/>
          <path class="cls-10" d="M292.37,87.88h-.15v-1.57h.15v1.57Z"/>
          <path class="cls-10" d="M294.22,87.19s-.07-.09-.12-.09c-.05,0-.11.04-.11.1,0,.08.1.11.21.16.1.04.21.11.21.26,0,.17-.14.29-.3.29-.15,0-.27-.08-.32-.23l.13-.05c.04.08.09.14.19.14.08,0,.14-.05.14-.13,0-.2-.4-.13-.4-.42,0-.15.12-.25.27-.25.1,0,.2.07.24.17l-.13.07Z"/>
          <path class="cls-10" d="M294.9,87.88h-.15v-.76h-.09v-.14h.09v-.32h.15v.32h.16v.14h-.16v.76Z"/>
          <path class="cls-10" d="M295.69,87.1c.19,0,.3.15.3.32s-.1.34-.3.34-.29-.16-.29-.34.11-.32.29-.32ZM296.14,86.98h-.15v.13h0c-.07-.1-.19-.16-.31-.16-.27,0-.43.22-.43.48s.16.47.42.47c.13,0,.23-.05.31-.15h0v.12h.15v-.9Z"/>
          <path class="cls-10" d="M296.71,87.88h-.15v-.76h-.08v-.14h.08v-.36c0-.07,0-.17.04-.23.05-.08.14-.11.23-.11.03,0,.07,0,.11.02v.16s-.06-.02-.1-.02c-.12,0-.12.09-.12.24v.3h.23v.14h-.23v.76Z"/>
          <path class="cls-10" d="M297.35,87.88h-.15v-.76h-.09v-.14h.09v-.36c0-.07,0-.17.04-.23.05-.08.14-.11.23-.11.03,0,.07,0,.11.02v.16s-.06-.02-.1-.02c-.12,0-.12.09-.12.24v.3h.23v.14h-.23v.76Z"/>
          <path class="cls-10" d="M299.31,87.1c.18,0,.32.15.32.33s-.13.33-.32.33-.32-.14-.32-.33.13-.33.32-.33ZM299.31,87.9c.26,0,.47-.21.47-.47s-.21-.48-.47-.48-.47.21-.47.48.21.47.47.47Z"/>
          <path class="cls-10" d="M300.27,87.12h.23v-.14h-.23v-.3c0-.15,0-.24.12-.24.04,0,.07,0,.1.02v-.16s-.07-.02-.11-.02c-.09,0-.18.03-.23.11-.04.06-.04.16-.04.23v.36h-.09v.14h.09v.76h.15v-.76Z"/>
          <path class="cls-10" d="M302.52,86.56c.33,0,.59.27.59.6s-.26.59-.59.59-.59-.27-.59-.59.26-.6.59-.6ZM302.52,86.41c-.41,0-.75.33-.75.75s.34.74.75.74.75-.33.75-.74-.34-.75-.75-.75Z"/>
          <path class="cls-10" d="M303.76,87.09h0c.06-.08.14-.13.25-.13.25,0,.31.18.31.39v.53h-.15v-.5c0-.15-.01-.28-.19-.28-.21,0-.22.2-.22.35v.43h-.15v-.9h.15v.11Z"/>
          <path class="cls-10" d="M305.03,87.59l.28-.68.28.68.26-.61h.17l-.44.96-.28-.67-.28.67-.44-.96h.18l.26.61Z"/>
          <path class="cls-10" d="M306.38,87.42c0,.17.11.34.3.34s.3-.16.3-.34-.11-.32-.3-.32c-.17,0-.29.15-.29.32ZM307.12,87.88h-.15v-.12h0c-.08.1-.18.15-.31.15-.27,0-.43-.22-.43-.47s.16-.48.43-.48c.12,0,.23.06.31.16h0v-.13h.15v.9Z"/>
          <path class="cls-10" d="M307.67,86.98h-.15v.9h.15v-.45c0-.12.01-.33.18-.33.04,0,.06.02.09.04l.07-.14s-.08-.05-.13-.05c-.11,0-.15.05-.2.12h0v-.1Z"/>
          <path class="cls-10" d="M308.65,87.1c.19,0,.3.15.3.32s-.1.34-.3.34-.29-.16-.29-.34.11-.32.29-.32ZM308.95,87.88h.15v-1.57h-.15v.8h0c-.07-.1-.19-.16-.31-.16-.27,0-.43.22-.43.48s.17.47.43.47c.12,0,.23-.05.31-.15h0v.12Z"/>
          <path class="cls-10" d="M311.02,87.1c.19,0,.3.15.3.32s-.1.34-.3.34-.29-.16-.29-.34.11-.32.29-.32ZM310.74,86.98h-.15v1.4h.15v-.63h0c.08.1.19.15.31.15.27,0,.43-.22.43-.47s-.17-.48-.43-.48c-.12,0-.23.05-.31.16h0v-.13Z"/>
          <path class="cls-10" d="M311.96,87.08h0c.05-.07.1-.12.2-.12.06,0,.1.02.14.05l-.07.14s-.05-.04-.09-.04c-.17,0-.17.22-.17.33v.45h-.15v-.9h.15v.1Z"/>
          <path class="cls-10" d="M312.65,87.33c.02-.13.14-.24.28-.24s.24.11.26.24h-.54ZM313.35,87.46c.02-.27-.14-.51-.43-.51s-.44.22-.44.49.18.46.44.46c.18,0,.33-.09.41-.25l-.13-.08c-.06.11-.14.18-.27.18-.17,0-.29-.13-.29-.3h.7Z"/>
          <path class="cls-10" d="M314.05,87.19s-.07-.09-.12-.09-.11.04-.11.1c0,.08.1.11.2.16.11.04.21.11.21.26,0,.17-.14.29-.3.29-.15,0-.27-.08-.32-.23l.14-.05c.04.08.08.14.18.14.08,0,.14-.05.14-.13,0-.2-.41-.13-.41-.42,0-.15.12-.25.27-.25.1,0,.2.07.24.17l-.13.07Z"/>
          <path class="cls-10" d="M314.65,87.33c.02-.13.14-.24.28-.24s.24.11.26.24h-.54ZM315.34,87.46c.02-.27-.14-.51-.43-.51s-.44.22-.44.49.17.46.44.46c.18,0,.33-.09.41-.25l-.13-.08c-.06.11-.14.18-.27.18-.17,0-.29-.13-.29-.3h.7Z"/>
          <path class="cls-10" d="M315.82,87.09h0c.06-.08.14-.13.26-.13.24,0,.3.18.3.39v.53h-.15v-.5c0-.15-.01-.28-.19-.28-.21,0-.22.2-.22.35v.43h-.15v-.9h.15v.11Z"/>
          <path class="cls-10" d="M316.96,87.12h.16v-.14h-.16v-.32h-.15v.32h-.09v.14h.09v.76h.15v-.76Z"/>
          <path class="cls-10" d="M317.87,87.12c-.04-.09-.14-.17-.24-.17-.14,0-.27.11-.27.25,0,.28.41.21.41.42,0,.08-.06.13-.14.13-.1,0-.14-.06-.18-.14l-.13.05c.05.14.16.23.32.23.17,0,.3-.12.3-.29,0-.15-.1-.22-.21-.26-.1-.05-.21-.08-.21-.16,0-.06.05-.1.11-.1s.1.04.12.09l.12-.07Z"/>
          <path class="cls-10" d="M319.43,87.42c0,.17.1.34.29.34s.3-.16.3-.34-.11-.32-.3-.32c-.18,0-.29.15-.29.32ZM320.17,87.88h-.15v-.12h0c-.08.1-.18.15-.31.15-.26,0-.43-.22-.43-.47s.16-.48.43-.48c.12,0,.23.06.31.16h0v-.13h.15v.9Z"/>
          <path class="cls-10" d="M321.81,86.31v.78h0c.07-.08.14-.13.26-.13.24,0,.3.18.3.39v.53h-.15v-.5c0-.15-.01-.28-.19-.28-.21,0-.22.2-.22.35v.43h-.15v-1.57h.15Z"/>
          <path class="cls-10" d="M322.97,86.98h-.15v.9h.15v-.9ZM322.89,86.54c-.06,0-.11.04-.11.11,0,.06.05.1.11.1.06,0,.11-.05.11-.1,0-.06-.05-.11-.11-.11Z"/>
          <path class="cls-10" d="M323.77,87.1c.19,0,.3.15.3.32s-.1.34-.3.34-.3-.16-.3-.34.11-.32.29-.32ZM324.22,86.98h-.15v.13h0c-.07-.1-.18-.16-.31-.16-.26,0-.43.23-.43.48s.17.47.43.47c.12,0,.24-.06.31-.15h0v.1c0,.2-.05.38-.29.38-.17,0-.28-.1-.28-.27h-.15c0,.25.19.41.44.41.13,0,.26-.05.35-.16.09-.12.09-.24.09-.39v-.85Z"/>
          <path class="cls-10" d="M324.79,86.31v.78h0c.07-.08.15-.13.26-.13.25,0,.31.18.31.39v.53h-.15v-.5c0-.15-.01-.28-.19-.28-.21,0-.22.2-.22.35v.43h-.15v-1.57h.15Z"/>
          <path class="cls-10" d="M325.91,86.31h-.15v1.57h.15v-1.57Z"/>
          <path class="cls-10" d="M326.17,86.98h.18l.32.65.29-.65h.17l-.66,1.4h-.18l.29-.59-.41-.81Z"/>
          <path class="cls-10" d="M328.84,87.19s-.07-.09-.12-.09-.11.04-.11.1c0,.08.1.11.21.16.1.04.21.11.21.26,0,.17-.14.29-.3.29-.15,0-.27-.08-.31-.23l.14-.05c.04.08.08.14.18.14.08,0,.14-.05.14-.13,0-.2-.41-.13-.41-.42,0-.15.12-.25.27-.25.11,0,.2.07.24.17l-.13.07Z"/>
          <path class="cls-10" d="M329.44,87.33c.02-.13.14-.24.27-.24s.25.11.26.24h-.54ZM330.14,87.46c.02-.27-.14-.51-.43-.51s-.43.22-.43.49.17.46.44.46c.18,0,.33-.09.41-.25l-.13-.08c-.06.11-.14.18-.27.18-.17,0-.29-.13-.29-.3h.7Z"/>
          <path class="cls-10" d="M330.62,87.09h0c.07-.08.14-.13.26-.13.25,0,.3.18.3.39v.53h-.16v-.5c0-.15,0-.28-.19-.28-.21,0-.22.2-.22.35v.43h-.15v-.9h.15v.11Z"/>
          <path class="cls-10" d="M331.96,87.19s-.06-.09-.12-.09c-.05,0-.11.04-.11.1,0,.08.1.11.21.16.1.04.21.11.21.26,0,.17-.14.29-.3.29-.15,0-.27-.08-.32-.23l.13-.05c.04.08.09.14.19.14.08,0,.14-.05.14-.13,0-.2-.4-.13-.4-.42,0-.15.12-.25.27-.25.1,0,.2.07.24.17l-.13.07Z"/>
          <path class="cls-10" d="M332.58,86.54c-.06,0-.11.04-.11.11,0,.06.05.1.11.1s.11-.05.11-.1c0-.06-.05-.11-.11-.11ZM332.65,86.98h-.15v.9h.15v-.9Z"/>
          <path class="cls-10" d="M333.25,87.88h-.15v-.76h-.09v-.14h.09v-.32h.15v.32h.16v.14h-.16v.76Z"/>
          <path class="cls-10" d="M333.86,87.88h-.15v-.9h.15v.9ZM333.89,86.65c0,.06-.05.1-.11.1s-.11-.05-.11-.1c0-.06.05-.11.11-.11s.11.04.11.11Z"/>
          <path class="cls-10" d="M334.59,87.58l.27-.6h.17l-.44.95-.44-.95h.17l.27.6Z"/>
          <path class="cls-10" d="M335.38,87.46c0,.17.12.3.29.3.13,0,.22-.07.27-.18l.13.08c-.09.16-.23.25-.41.25-.26,0-.44-.2-.44-.46s.15-.49.43-.49.44.24.43.51h-.7ZM335.92,87.33c-.02-.13-.13-.24-.27-.24s-.25.11-.27.24h.54Z"/>
          <path class="cls-10" d="M337.68,87.88h-.15v-.9h.15v.9ZM337.71,86.65c0,.06-.05.1-.11.1-.06,0-.11-.05-.11-.1,0-.06.05-.11.11-.11.06,0,.11.04.11.11Z"/>
          <path class="cls-10" d="M338.27,87.09h0c.06-.08.14-.13.25-.13.25,0,.3.18.3.39v.53h-.15v-.5c0-.15,0-.28-.19-.28-.21,0-.22.2-.22.35v.43h-.15v-.9h.15v.11Z"/>
          <path class="cls-10" d="M339.41,87.12h.16v-.14h-.16v-.32h-.15v.32h-.09v.14h.09v.76h.15v-.76Z"/>
          <path class="cls-10" d="M339.91,87.33c.02-.13.14-.24.27-.24s.24.11.26.24h-.53ZM340.61,87.46c.01-.27-.14-.51-.43-.51s-.43.22-.43.49.17.46.44.46c.19,0,.33-.09.42-.25l-.13-.08c-.06.11-.14.18-.27.18-.17,0-.29-.13-.3-.3h.71Z"/>
          <path class="cls-10" d="M341.08,87.08h0c.05-.07.1-.12.2-.12.05,0,.09.02.14.05l-.07.14s-.05-.04-.09-.04c-.17,0-.18.22-.18.33v.45h-.15v-.9h.15v.1Z"/>
          <path class="cls-10" d="M341.51,87.35v.14h.39v-.14h-.39Z"/>
          <path class="cls-10" d="M282.61,89.65h-.15v.89h.15v-.43c0-.16.01-.36.22-.36.18,0,.19.13.19.28v.5h.15v-.53c0-.21-.06-.39-.31-.39-.11,0-.19.05-.25.13h0v-.11Z"/>
          <path class="cls-10" d="M284,89.76c.19,0,.3.15.3.33s-.1.34-.3.34-.3-.17-.3-.34.12-.33.29-.33ZM284.45,89.65h-.15v.13h0c-.08-.09-.19-.15-.31-.15-.27,0-.43.22-.43.47s.16.47.43.47c.13,0,.23-.05.31-.15h0v.12h.15v-.89Z"/>
          <path class="cls-10" d="M285.06,90.54h-.15v-.75h-.09v-.14h.09v-.32h.15v.32h.16v.14h-.16v.75Z"/>
          <path class="cls-10" d="M285.7,90.54h-.15v-.89h.15v.89ZM285.74,89.31c0,.06-.05.11-.11.11s-.11-.05-.11-.11c0-.06.05-.11.11-.11s.11.05.11.11Z"/>
          <path class="cls-10" d="M286.58,89.76c.19,0,.32.15.32.33s-.13.34-.32.34-.32-.15-.32-.34.13-.33.32-.33ZM286.58,90.57c.26,0,.47-.21.47-.47s-.21-.47-.47-.47-.47.21-.47.47.21.47.47.47Z"/>
          <path class="cls-10" d="M287.58,89.75h0c.06-.08.15-.13.26-.13.25,0,.3.18.3.39v.53h-.15v-.5c0-.15-.02-.28-.19-.28-.21,0-.22.2-.22.36v.43h-.15v-.89h.15v.11Z"/>
          <path class="cls-10" d="M288.97,89.76c.19,0,.3.15.3.33s-.1.34-.3.34-.29-.17-.29-.34.12-.33.29-.33ZM289.42,89.65h-.15v.13h0c-.08-.09-.19-.15-.31-.15-.27,0-.43.22-.43.47s.17.47.43.47c.13,0,.23-.05.31-.15h0v.12h.15v-.89Z"/>
          <path class="cls-10" d="M290.01,90.54h-.15v-1.57h.15v1.57Z"/>
          <path class="cls-10" d="M292.6,89.76c.18,0,.3.15.3.33s-.1.34-.3.34-.29-.17-.29-.34.11-.33.29-.33ZM292.16,90.54h.15v-.12h0c.08.1.19.15.31.15.26,0,.43-.23.43-.48s-.16-.47-.43-.47c-.12,0-.23.06-.31.15h0v-.8h-.15v1.57Z"/>
          <path class="cls-10" d="M293.58,89.75h0c.06-.07.1-.12.2-.12.06,0,.1.02.14.04l-.07.14s-.05-.04-.09-.04c-.17,0-.17.22-.17.33v.45h-.15v-.89h.15v.1Z"/>
          <path class="cls-10" d="M294.61,89.76c.19,0,.3.15.3.33s-.1.34-.3.34-.29-.17-.29-.34.11-.33.29-.33ZM295.05,89.65h-.15v.13h0c-.08-.09-.19-.15-.31-.15-.27,0-.43.22-.43.47s.17.47.43.47c.12,0,.23-.05.31-.15h0v.12h.15v-.89Z"/>
          <path class="cls-10" d="M295.65,89.75h0c.07-.08.14-.13.26-.13.25,0,.31.18.31.39v.53h-.15v-.5c0-.15-.01-.28-.19-.28-.21,0-.22.2-.22.36v.43h-.15v-.89h.15v.11Z"/>
          <path class="cls-10" d="M296.76,90.09c0,.18.1.34.29.34s.3-.16.3-.34-.11-.33-.3-.33c-.18,0-.29.15-.29.33ZM297.34,90.42h0c-.07.1-.18.15-.31.15-.26,0-.42-.23-.42-.47,0-.26.16-.47.43-.47.12,0,.23.06.3.15h0v-.8h.15v1.57h-.15v-.12Z"/>
          <path class="cls-10" d="M299.81,89.79h.22v-.14h-.22v-.3c0-.15,0-.24.12-.24.04,0,.07.01.1.02v-.16s-.07-.02-.11-.02c-.09,0-.18.04-.23.11-.04.07-.04.16-.04.23v.36h-.09v.14h.09v.75h.15v-.75Z"/>
          <path class="cls-10" d="M300.25,90.1c0-.26.21-.47.47-.47s.47.21.47.47-.21.47-.47.47-.47-.21-.47-.47ZM300.4,90.09c0,.19.13.34.32.34s.32-.15.32-.34-.13-.33-.32-.33-.32.15-.32.33Z"/>
          <path class="cls-10" d="M301.71,89.75h0c.05-.07.1-.12.2-.12.05,0,.09.02.14.04l-.07.14s-.05-.04-.09-.04c-.17,0-.17.22-.17.33v.45h-.15v-.89h.15v.1Z"/>
          <path class="cls-10" d="M304.74,89.91h0c-.07-.09-.16-.15-.28-.15-.19,0-.32.15-.32.33s.12.34.31.34c.13,0,.22-.06.29-.16h0v.2c-.09.06-.18.09-.28.09-.27,0-.48-.21-.48-.48s.22-.47.48-.47c.09,0,.2.04.28.09v.2Z"/>
          <path class="cls-10" d="M305.54,89.76c.19,0,.32.15.32.33s-.13.34-.32.34-.32-.15-.32-.34.13-.33.32-.33ZM305.54,90.57c.26,0,.47-.21.47-.47s-.21-.47-.47-.47-.47.21-.47.47.21.47.47.47Z"/>
          <path class="cls-10" d="M306.54,89.75h0c.06-.08.15-.13.26-.13.25,0,.3.18.3.39v.53h-.15v-.5c0-.15-.02-.28-.19-.28-.21,0-.22.2-.22.36v.43h-.15v-.89h.15v.11Z"/>
          <path class="cls-10" d="M307.72,90.54h-.15v-.75h-.1v-.14h.1v-.32h.15v.32h.16v.14h-.16v.75Z"/>
          <path class="cls-10" d="M308.26,90.13c0,.17.12.3.29.3.13,0,.21-.08.27-.19l.13.07c-.08.16-.23.25-.41.25-.27,0-.44-.21-.44-.46s.16-.48.43-.48.44.23.43.5h-.7ZM308.8,89.99c-.02-.13-.13-.23-.26-.23s-.25.11-.27.23h.53Z"/>
          <path class="cls-10" d="M309.49,89.75h0c.05-.07.12-.12.21-.12.11,0,.2.05.25.15.06-.1.16-.15.27-.15.23,0,.28.19.28.37v.55h-.15v-.52c0-.12,0-.26-.16-.26-.18,0-.2.17-.2.31v.47h-.15v-.5c0-.11-.02-.28-.16-.28-.18,0-.2.18-.2.32v.46h-.15v-.89h.15v.1Z"/>
          <path class="cls-10" d="M311.39,89.76c.19,0,.3.15.3.33s-.1.34-.3.34-.3-.17-.3-.34.12-.33.29-.33ZM311.11,89.65h-.15v1.4h.15v-.62h0c.07.09.18.15.3.15.27,0,.43-.22.43-.47s-.16-.47-.43-.47c-.12,0-.23.05-.31.15h0v-.13Z"/>
          <path class="cls-10" d="M312.62,89.76c.19,0,.32.15.32.33s-.13.34-.32.34-.32-.15-.32-.34.13-.33.32-.33ZM312.62,90.57c.26,0,.47-.21.47-.47s-.21-.47-.47-.47-.47.21-.47.47.21.47.47.47Z"/>
          <path class="cls-10" d="M313.61,89.75h0c.06-.07.1-.12.2-.12.05,0,.09.02.13.04l-.07.14s-.05-.04-.1-.04c-.16,0-.17.22-.17.33v.45h-.15v-.89h.15v.1Z"/>
          <path class="cls-10" d="M314.65,89.76c.19,0,.3.15.3.33s-.1.34-.3.34-.29-.17-.29-.34.11-.33.29-.33ZM315.09,89.65h-.15v.13h0c-.07-.09-.18-.15-.31-.15-.27,0-.43.22-.43.47s.17.47.43.47c.13,0,.23-.05.31-.15h0v.12h.15v-.89Z"/>
          <path class="cls-10" d="M315.69,89.65h-.15v.89h.15v-.45c0-.11.01-.33.18-.33.04,0,.06.02.09.04l.07-.14s-.09-.04-.14-.04c-.1,0-.14.05-.2.12h0v-.1Z"/>
          <path class="cls-10" d="M316.28,89.65h.18l.32.64.29-.64h.17l-.66,1.4h-.17l.29-.58-.41-.81Z"/>
          <path class="cls-10" d="M319.4,89.79h.23v-.14h-.23v-.3c0-.15,0-.24.13-.24.04,0,.07.01.1.02v-.16s-.08-.02-.11-.02c-.09,0-.18.04-.23.11-.04.07-.04.16-.04.23v.36h-.09v.14h.09v.75h.15v-.75Z"/>
          <path class="cls-10" d="M320.3,89.76c.19,0,.3.15.3.33s-.1.34-.3.34-.29-.17-.29-.34.11-.33.29-.33ZM320.75,89.65h-.15v.13h0c-.08-.09-.19-.15-.31-.15-.27,0-.43.22-.43.47s.17.47.43.47c.13,0,.23-.05.31-.15h0v.12h.15v-.89Z"/>
          <path class="cls-10" d="M321.56,89.85s-.07-.09-.12-.09c-.05,0-.11.04-.11.1,0,.08.1.11.2.15.1.05.21.1.21.26,0,.17-.14.29-.3.29-.15,0-.27-.09-.32-.23l.14-.06c.04.09.08.15.18.15.08,0,.14-.06.14-.14,0-.2-.4-.13-.4-.41,0-.15.12-.25.27-.25.1,0,.2.07.24.17l-.13.06Z"/>
          <path class="cls-10" d="M322.27,88.97v.78h0c.06-.08.14-.13.26-.13.25,0,.3.18.3.39v.53h-.15v-.5c0-.15,0-.28-.19-.28-.21,0-.22.2-.22.36v.43h-.15v-1.57h.15Z"/>
          <path class="cls-10" d="M323.47,89.65h-.15v.89h.15v-.89ZM323.4,89.2c-.06,0-.11.05-.11.11,0,.06.05.11.11.11s.11-.05.11-.11c0-.06-.05-.11-.11-.11Z"/>
          <path class="cls-10" d="M324.35,90.57c.26,0,.47-.21.47-.47s-.21-.47-.47-.47-.47.21-.47.47.21.47.47.47ZM324.35,89.76c.19,0,.32.15.32.33s-.13.34-.32.34-.32-.15-.32-.34.13-.33.32-.33Z"/>
          <path class="cls-10" d="M325.35,89.75h0c.06-.08.14-.13.25-.13.25,0,.31.18.31.39v.53h-.15v-.5c0-.15-.01-.28-.19-.28-.21,0-.22.2-.22.36v.43h-.15v-.89h.15v.11Z"/>
          <path class="cls-10" d="M326.23,90.01v.14h.39v-.14h-.39Z"/>
          <path class="cls-10" d="M327.08,90.54h-.15v-1.57h.15v1.57Z"/>
          <path class="cls-10" d="M327.93,89.76c.19,0,.32.15.32.33s-.13.34-.32.34-.32-.15-.32-.34.13-.33.32-.33ZM327.93,90.57c.26,0,.47-.21.47-.47s-.21-.47-.47-.47-.47.21-.47.47.21.47.47.47Z"/>
          <path class="cls-10" d="M329.07,90.25l.27-.6h.17l-.44.96-.44-.96h.18l.26.6Z"/>
          <path class="cls-10" d="M330,89.65h-.16v.89h.16v-.89ZM329.92,89.2c-.06,0-.11.05-.11.11,0,.06.05.11.11.11.06,0,.11-.05.11-.11,0-.06-.05-.11-.11-.11Z"/>
          <path class="cls-10" d="M330.64,89.75h0c.06-.08.14-.13.26-.13.25,0,.3.18.3.39v.53h-.15v-.5c0-.15-.02-.28-.19-.28-.21,0-.22.2-.22.36v.43h-.15v-.89h.15v.11Z"/>
          <path class="cls-10" d="M332.02,89.76c.19,0,.3.15.3.33s-.1.34-.3.34-.29-.17-.29-.34.12-.33.29-.33ZM332.46,89.65h-.15v.13h0c-.07-.1-.18-.15-.3-.15-.26,0-.43.22-.43.47s.17.47.43.47c.12,0,.24-.06.31-.15h0v.1c0,.21-.05.38-.29.38-.17,0-.29-.1-.29-.27h-.15c0,.25.19.41.44.41.13,0,.26-.05.35-.15.09-.12.09-.24.09-.39v-.85Z"/>
          <path class="cls-10" d="M334.67,89.65h-.18l.44.96.28-.67.28.67.44-.96h-.17l-.26.61-.28-.68-.28.68-.26-.61Z"/>
          <path class="cls-10" d="M336.64,89.76c.19,0,.32.15.32.33s-.13.34-.32.34-.32-.15-.32-.34.13-.33.32-.33ZM336.64,90.57c.26,0,.47-.21.47-.47s-.21-.47-.47-.47-.47.21-.47.47.21.47.47.47Z"/>
          <path class="cls-10" d="M337.63,89.75h0c.05-.07.13-.12.21-.12.11,0,.2.05.25.15.05-.1.16-.15.27-.15.22,0,.28.19.28.37v.55h-.15v-.52c0-.12,0-.26-.16-.26-.18,0-.2.17-.2.31v.47h-.15v-.5c0-.11-.01-.28-.16-.28-.18,0-.2.18-.2.32v.46h-.15v-.89h.15v.1Z"/>
          <path class="cls-10" d="M339.89,90.13c.01-.27-.14-.5-.42-.5s-.44.22-.44.48.17.46.44.46c.18,0,.33-.09.41-.25l-.13-.07c-.06.11-.14.19-.27.19-.17,0-.29-.13-.29-.3h.7ZM339.2,89.99c.02-.13.14-.23.27-.23s.24.11.26.23h-.54Z"/>
          <path class="cls-10" d="M340.42,89.75h0c.06-.08.14-.13.25-.13.25,0,.31.18.31.39v.53h-.15v-.5c0-.15-.01-.28-.19-.28-.21,0-.22.2-.22.36v.43h-.15v-.89h.15v.11Z"/>
          <path class="cls-10" d="M341.7,90.46c0,.06-.05.11-.11.11s-.1-.05-.1-.11c0-.06.05-.11.1-.11s.11.04.11.11Z"/>
        </g>
        <path class="cls-2" d="M304.53.65c.28.29.76.15.99.55.18.07.32.23.52.22.34.17.67.35.99.57.61.24,1.24.42,1.87.65.17.1.19.29.14.46-.45.41-.98.66-1.46.99-.67.24-1.14.95-1.84,1.13-.63.13-1.41.28-2-.04-.3-.27-.42-.61-.59-.93-.02-.55-.15-1.05-.04-1.57-.05-.44-.03-.96-.26-1.34-.03-.41-.08-.91.2-1.19.18-.13.43-.19.65-.11.35.13.45.58.83.61Z"/>
        <path class="cls-18" d="M305.54,7.51c.28.07.48.31.77.34.48.34.86.79,1.44.91.33.29.89.37.93.87-.03.18-.12.35-.3.42-.53.24-1.08-.11-1.6.14-.74.12-1.31.65-2,.87-.5.15-.96-.05-1.3-.4-.13-.02-.25-.18-.32-.29-.09-1.02.25-1.98.19-3.02.25-.29.06-.93.56-.95.03-.09.1-.17.2-.18.72.07.95.84,1.44,1.28Z"/>
        <path class="cls-4" d="M301.19.9c.33.3.35.74.53,1.11-.1.08.02.18.04.26-.03.77-.03,1.51.36,2.11.08.36.35.7.18,1.11-.15,1.98-1.07,3.85-.55,5.91.54,1.64.29,3.46.52,5.23-.15.64.08,1.28.07,1.94.13.84-.09,1.83.55,2.47l.13.79c1.18.93,2.37,2,3.39,3.15.5-.06.8-.58,1.27-.71,1.41-1.11,3.01-1.77,4.42-2.87.99-.5,1.76-1.43,2.8-1.8.52-.5,1.22-.58,1.74-1.09.82-.57,1.71-.99,2.55-1.5,1.25-.7,2.62-1.15,3.77-2.1l1.64-1.48c.99-.62,2-1.19,2.99-1.8.28-.13.71-.21.98,0,.39.04.66.46.91.71.08.11.03.26,0,.39l-.26.24c-1.13.43-2.04,1.39-3.18,1.8-.98.76-1.83,1.88-2.94,2.39-.87.29-1.56.97-2.46,1.19-.68.29-1.27.85-1.98,1.08-.77.56-1.62.92-2.4,1.44-.32.09-.54.42-.87.46-.28.33-.67.45-.99.75-.56.34-1.13.67-1.64,1.13-.27.12-.47.38-.75.47-.99.5-1.94,1.13-2.92,1.7-.47.43-1.03.61-1.51,1.01v.13c.72,1.09,1.86,1.85,2.47,2.99.4.45.6.98.99,1.42.82.98,1.73,2.09,2.71,2.94,1.06,1.05,2.15,2.19,3.36,3.08.6.71,1.38.96,2.02,1.54.69.26,1.56.16,2.27.32l.45-.06,2.83.19c.98-.35,2.01-.55,3.08-.69.59-.31,1.25-.44,1.84-.75.55-.02.92-.5,1.45-.57.26-.22.65-.13.93-.3.49-.02.98.03,1.44.19.29.12.24.41.24.67-.36,1.3-1.88,1.12-2.82,1.66-.97.34-1.94.64-2.93.91-.29.19-.67.17-.98.3-.9.31-1.84.58-2.85.57l-.23.04c-.55-.07-1.19-.24-1.72,0-.56-.06-1.11.1-1.68.02-.82-.08-1.63-.21-2.39-.45-.46-.05-.5-.72-.99-.69-1.02-1.35-2.47-2.02-3.55-3.28-.45-.24-.69-.77-1.13-1.03-.74-.75-1.42-1.66-2.26-2.39-.14-.4-.64-.67-.69-1.11-.46-.72-.87-1.47-1.6-2.01-.19-.66-.97-.97-1.26-1.57-.45-.34-.54-.86-.92-1.18-.68.15-1.25.57-1.93.73-.32.18-.72.23-.93.55-.19,1.46-.03,2.86-.22,4.33.18.39-.09.74-.04,1.15-.09,1.5-.12,2.99-.45,4.41-.02.45-.21.82-.24,1.25-.03,1.03-.19,2.27.44,3.1.23.56.23,1.18.26,1.8.16.47.03.98.08,1.48.1.78.14,1.56.12,2.35-.31.46-.3,1.08-.81,1.44-.36.13-.57-.2-.83-.39-.5-.49-.39-1.28-.4-1.92-.17-.85,0-1.92-.14-2.77.03-.89-.63-1.6-.3-2.51-.06-1.62-.04-3.47.39-5.02.2-1.85.25-3.72.35-5.59-.18-.98-.09-1.82-.08-2.83-.62-.3-1.08-.93-1.64-1.34l-.43-.66c-.49-.63-1.03-1.28-1.37-1.99-.57-.88-.9-1.9-.89-2.99.18-.25.5-.37.82-.29.46-.16.95-.37,1.46-.29.36-.16.71.06,1.07-.1.25.12.49-.04.76-.02l.03-.07c-.06-.5-.13-1.01-.1-1.51-.14-.73-.12-1.46-.26-2.19.12-.53-.13-1-.1-1.54.04-1.29-.28-2.44-.55-3.61-.07-.82-.04-1.54-.12-2.37.16-1.39.57-2.67.58-4.13-.34-1.21-.71-2.58-.38-3.88.34-.39.31-1.44,1.13-1.12l.24.17ZM300.09,22.65c-.43-.14-.82.1-1.27,0-.12.08-.34,0-.39.14.34.45.4,1.03.69,1.5.7.64.94,1.55,1.74,2.13.13,0,.23.08.35.13l.06-.41c0-1.1.26-2.29-.06-3.35l-1.12-.13ZM303.33,24.58c-.04.67-.17,1.34-.2,1.98.28-.07.5-.28.76-.39.18-.13.43-.11.56-.28-.4-.45-.72-.91-1.13-1.32Z"/>
        <g>
          <path class="cls-3" d="M295.17,66l.26.33-.02.06c-.53.46-1,.97-1.49,1.47-.22.26-.38.55-.62.81-.18.35-.5.64-.46,1.08-.13.27,0,.6-.11.9.02.14.11.32-.01.44-.05.04-.13.06-.19.03-.4-.45-.18-1.08-.27-1.64.03-.15.1-.33.04-.47.02-.29.05-.56.05-.86.02-.07.1-.03.14-.07.14-.13.35-.15.44-.34.19-.09.37-.25.4-.46.16-.05.14-.24.28-.3.32.09.41-.29.67-.34.32-.17.32-.53.61-.72.05-.07.08-.17.18-.16l.11.22Z"/>
          <path class="cls-14" d="M302.58,68.94c.14.46.23,1.02.08,1.5.02.11-.04.19-.08.28.1.37.04.73.03,1.1-.1.13,0,.29-.05.43-.07.33.11.63,0,.95.11.18.03.36.05.57.03.43.18.87.05,1.3.18.21,0,.48.09.72-.05.19.03.37-.02.56.07.24,0,.45,0,.69-.07.53.03,1.05-.06,1.58.06.18-.05.39,0,.58-.05.2.07.39,0,.58.08.16-.05.33,0,.5.03.29,0,.6-.03.87.08.15-.02.29,0,.46.08.24-.16.37-.13.58,0,.19-.02.4-.16.52-.08.01-.15-.03-.22-.04.03-.21-.02-.43-.03-.64.04-.16.05-.38-.06-.52-.06-.41,0-.88-.05-1.3.02-.16.13-.32.04-.48.17-.18-.04-.4.05-.6-.02-.29.13-.62.03-.91.05-.41-.05-.76-.01-1.16-.05-.26-.03-.53-.04-.78.13-.38.33-.92-.03-1.26-.02-.21-.05-.4-.03-.61.02-.11.06-.2.02-.32.06-.34-.13-.63.04-.93.01-.4,0-.79-.02-1.18.04-.52-.02-1.04.05-1.58.02-.25-.06-.51-.25-.68-.04-.05-.1-.15-.17-.08-.1.09-.22.14-.33.21-.27.24-.54.51-.87.61-.11.05-.13.19-.25.21-.29-.03-.62-.01-.81.22.05.42-.07.82-.11,1.2.17.24.09.58.12.86-.12.26,0,.65-.17.91-.08.39,0,.82-.11,1.2.02.33-.07.62-.04.95.05.26-.04.55-.06.81-.14.31-.13.7-.21,1.03.1.51-.12,1.05-.1,1.58.09.14,0,.31-.01.45.08.41-.1.77-.16,1.16-.09.53-.22,1.11-.15,1.65.01.23-.25.09-.35.14-.13-.05.01-.2-.04-.28-.06-.22-.07-.43-.11-.66l.1-.58c.04-.86-.04-1.78.11-2.62-.02-.2,0-.39.07-.58.05-.5.29-.97.2-1.47-.03-.12.04-.23.05-.35,0-.51.24-.92.16-1.46-.09-.19.02-.41-.03-.61.04-.49.05-.97.11-1.44.1-.24-.02-.47.07-.71.09-.34.05-.66,0-1,.05-.21-.06-.48.1-.66.2-.25.55-.15.76-.38l.57-.27c.14-.2.41-.2.6-.32.36-.03.64-.31.95-.45.19-.07.28-.27.5-.28.02-.04.08,0,.1-.03.1.04.16.19.24.27Z"/>
          <path class="cls-11" d="M296.03,68.81c.05.11.09.23.16.33-.03.17.01.35.02.52-.1.28-.1.61-.06.9.04.06.08.16.03.23-.07.48-.3.88-.46,1.32-.24.2-.41.47-.68.62-.12.1-.08.31-.27.33-.05.01-.11.03-.14.09.05.24-.23.35-.32.54-.03.15-.19.21-.19.37-.16.17-.32.33-.49.5-.35.16-.67.34-1,.56-.07.15-.2.26-.31.39,0,.08.05.16.12.2.18.06.38.06.55.15.57.05,1.08-.06,1.65.04.1-.03.19-.06.29,0,.35-.09.7-.02,1.08.02.09.04.2.06.25.15-.05.09-.1.2-.19.25-.39-.01-.71,0-1.07.09-.31-.09-.65-.03-.99-.05-.35.04-.74.09-1.11,0-.39-.06-.77-.21-1.11-.42-.18-.03-.35-.11-.45-.26-.05-.12-.15-.27-.05-.39.08-.06.18-.09.27-.1.02.02.04.05.08.04.09-.14.08-.33.23-.44.08-.28.48-.29.53-.59.21-.09.32-.35.53-.4.11-.16.32-.28.38-.47.12-.13.26-.28.44-.29.28-.21.44-.54.7-.78.16-.23.26-.49.49-.66.52-.57.71-1.3.79-2.08,0-.27.04-.56.09-.83.09-.12.15.08.2.13Z"/>
          <path class="cls-8" d="M292.42,71.56c.37.23.73.55,1.04.86.05.06.05.15.04.21-.4.05-.76-.11-1.11-.22-.32-.17-.56-.46-.89-.61-.13-.09-.32-.24-.3-.41.1-.15.3-.15.46-.14.3,0,.51.2.75.31Z"/>
          <path class="cls-8" d="M297.27,74.96c.17.07.15.27.19.42.16.17.25.38.21.64.03.2.04.41,0,.6-.13.11-.36.11-.53.05-.23-.26-.49-.54-.55-.88-.06-.04,0-.13-.04-.18-.01-.35-.07-.72.06-1.04.01-.05-.02-.11.03-.14.31-.01.52.29.63.53Z"/>
          <path class="cls-6" d="M301.6,75.55c.08.09.06.22.15.3.03.11-.02.2-.05.3-.15.17-.38.06-.58.12-.37.08-.83.15-1.19,0-.1-.05-.29.05-.32-.1.03-.16.03-.33.1-.47.19-.11.42-.19.64-.09.19,0,.33-.09.51-.08.22-.26.46.05.73,0Z"/>
          <path class="cls-17" d="M294.69,76.9c.1.33.49.53.46.9.1.46.11.91.17,1.38-.09.25.07.5-.05.75.13.34-.2.6-.07.93.09.2-.1.35-.04.54.05.21-.21.24-.25.41-.07.35.03.72-.1,1.03.04.22.07.51-.14.65-.07.04-.18.03-.25,0-.06-.02-.12-.08-.14-.15-.01-.13.09-.23.05-.35-.04-.36.16-.71.14-1.08.03-.08.07-.16.1-.25-.03-.02,0-.03,0-.05,0-.28.11-.6.02-.87.1-.24,0-.5.03-.74.13-.45.02-.87.06-1.36-.09-.3.01-.6-.12-.88-.03-.14-.09-.32-.04-.48-.02-.14-.11-.48.17-.39Z"/>
          <path class="cls-15" d="M301.72,78.03c-.02.12-.18.11-.28.17-.28.19-.66.08-.99.15-.21-.1-.44.09-.63-.07l-.33-.3c.14-.26.47-.13.67-.31.21-.09.44-.09.68-.09.12-.06.25,0,.37.01.19.1.41.23.51.44Z"/>
          <path class="cls-8" d="M294.15,79.23c.04.47-.29.79-.45,1.18-.14.15-.18.42-.41.44-.15.09-.08.29-.25.37-.03.07-.09.16-.17.18-.14-.05-.27.05-.37-.05-.28-.25-.23-.63-.16-.96.23-.56.84-.81,1.26-1.2.13-.03.22-.25.37-.18.06.09.15.11.18.21Z"/>
          <path class="cls-8" d="M296.7,79.63c.12.2.19.43.12.68-.03.19-.2.32-.18.54-.13,0-.21.13-.34.13-.03.08-.13.04-.19.04-.13-.13-.34-.13-.41-.3-.18-.23-.02-.55.04-.79.1-.16.23-.29.24-.48.04-.09.13,0,.2-.04.08-.01.16-.07.24-.03.11.07.15.19.27.26Z"/>
          <path class="cls-17" d="M304.69,82.53c.12,0,.18.08.24.17.06.14.05.28,0,.42-.12.09-.27.13-.39.22-.19-.01-.4.08-.61.01-.25.04-.49-.01-.71.12-.18.23-.48.11-.71.19-.24.09-.5.11-.74.21-.29-.03-.61.03-.89.02-.16.05-.31.13-.5.12-.28.05-.54-.13-.81-.06-.18-.07-.4-.01-.59-.05-.1-.1-.26-.07-.38-.12-.2-.07-.37-.19-.58-.23-.17-.05-.32-.07-.48-.15-.49-.12-.95-.3-1.45-.41-.14-.06-.29-.12-.41-.22,0-.19.23-.16.37-.21.12.02.24.1.37.12.29.15.73-.04.97.24.3.14.67.08.96.21.16.13.41.09.57.22.63.12,1.28.08,1.92.1.23-.02.43-.13.66-.18.26-.18.55-.28.81-.42.28-.03.51-.18.78-.23.42-.1.89-.31,1.32-.11l.27.02Z"/>
          <path class="cls-1" d="M330.23,71.42c-.15-.01-.32-.03-.47-.04-.51-.01-1.03.05-1.49.27-.15.06-.36,0-.45.19v-.78c.09.02.2,0,.29-.02.4-.14.78-.29,1.21-.34.28-.07.55,0,.84.01.08-.03.18-.05.26-.02.32,0,.77-.09.97.22.03.1-.02.19-.06.27-.11.07-.27.12-.33.25M324.14,71.9l-.05-.05c-.31-.12-.67-.1-1-.17-.27.02-.45-.2-.7-.16-.35-.13-.71-.24-1.06-.36-.05.02-.08.06-.09.09l-.03-.68c.09.06.2,0,.3.03.12.02.22.08.32.14.37.04.69.19,1.05.23.27.1.57.08.86.14.14-.09.27.12.39-.02v.81ZM324.91,71.36c.14,0,.27.04.37.12.05,0,.08-.02.11-.05.2.04.34-.14.53-.16.1-.08.23-.08.33-.14.13.05.27-.08.4.01.12-.02.27-.02.37-.1l-.06.82-.38-.06c-.12.06-.29.13-.42.04-.11.04-.19.14-.29.18-.28.1-.64.04-.92.05l-.03-.72Z"/>
          <path class="cls-19" d="M331.01,71.43c.02.26.2.6-.03.83l-.02.14c.04.33.36.6.2.94l.15.43c-.11.34.09.59.05.94.07.2-.05.47.04.67.17.16.13.35.15.55.05.2.11.44,0,.64-.04.42.5.74.17,1.16-.02.12.06.2.08.3-.1.5.06.89-.04,1.4.03.18.15.4,0,.56-.07.13-.01.28.04.39,0,.22.03.46-.02.68l.1.88c-.13.52-.2,1.08-.46,1.53-.11.23.01.67-.37.72-.48.12-.85-.28-1.28-.4-.09-.08-.23-.13-.35-.1-.11.14-.25-.04-.4-.01-.19-.04-.34.1-.51.01-.24-.12-.5-.02-.74-.13-.22,0-.42.02-.6-.11-.19-.06-.41-.04-.55-.2-.31.04-.59-.09-.84-.21-.06-.02-.1.04-.15.05-.23,0-.44-.1-.65-.15-.04-.07-.12-.09-.2-.12-.31-.26-.7-.34-1.06-.51-.11-.09-.24-.2-.39-.23-.05-.16-.16-.31-.33-.34-.21-.12-.33-.34-.58-.38-.17-.09-.39-.14-.47-.33-.1-.2-.34-.2-.49-.35-.12-.2-.39-.13-.51-.35-.22-.14-.56-.26-.6-.57-.06-.18-.06-.38-.17-.54,0-.24,0-.43-.12-.62,0-.43.01-.9.04-1.35.22-.24.1-.63.18-.93.05-.46.13-.9.1-1.37.07-.19-.07-.43.06-.61-.02-.78.04-1.57.18-2.31.12-.32.08-.67.19-.99,0-.14-.07-.24-.09-.37l-.03-.47c-.13-.19-.19-.42-.15-.66.14-.02.31-.02.43.06.18.29.1.66.22.97l.03.68c-.05.11.01.27,0,.38-.11.57-.12,1.13-.25,1.71.06.24.12.52,0,.76.04.22.02.47.03.68-.06.31.02.57-.05.88-.12.29-.06.64-.09.96-.14.29-.04.62-.08.95-.13.12-.08.32-.12.47.03.39.03.8.14,1.16.05.34.43.42.66.61.23.32.61.35.87.62.26.23.66.2.87.53.29.18.56.4.85.59.57.26,1.11.57,1.74.7.17.09.33.12.51.19.2,0,.44-.09.61.07.24-.05.42.11.68.08.23.08.51.08.75.14.29.17.61-.04.91-.01.13.01.28,0,.36.11.06-.04.12.01.19,0,.1.04.22.09.25.2.2.11.39.27.63.26.15-.09.08-.3.16-.43.29-.37.2-.88.24-1.33,0-.17-.06-.34,0-.5.03-.41-.13-.83.03-1.23,0-.16-.08-.31-.07-.48.07-.24-.01-.47.05-.72-.06-.37-.12-.74-.09-1.14-.13-.25-.19-.5-.15-.81-.04-.1.04-.22-.01-.32-.15-.25-.2-.54-.26-.83,0-.38-.12-.68-.13-1.05-.04-.19.13-.41-.05-.54l-.05-.38c-.03-.15,0-.35.02-.49-.13-.15-.2-.33-.2-.53.07-.26-.06-.49-.02-.76,0-.12.16-.23.03-.34l.78.02Z"/>
          <path class="cls-12" d="M326.87,77.34c-.06-.06-.17-.01-.26-.02-.46.1-.95-.06-1.41.04-.04.02-.11.01-.17.02l-.91.03c-.43,0-.79-.17-1.17-.3-.2-.04-.37-.14-.58-.17-.2-.12-.42-.22-.65-.29-.2-.07-.11-.29-.2-.42,0-.16.18-.26.12-.42.05-.08.15-.05.22-.06.32,0,.5.3.78.38.23.29.61.23.89.43l.51.05,1.06.02s.03,0,.05,0c.15-.06.32.01.47-.05.41.05.84.05,1.24-.02l1-.1c.14-.03.31,0,.44-.08.21-.21.55-.1.8-.21.34.03.63-.03.96.05.14.06.3-.02.43.05.08.05.13.12.16.21.03.07.02.16-.04.21-.14.15-.35.09-.51.2-.55.16-1.08.25-1.67.24-.24-.12-.65.07-.65.07l-.91.12Z"/>
          <g>
            <path class="cls-5" d="M325.03,77.39c-.06.01-.1.04-.1.12.08.14.02.29.05.46-.09.34,0,.68-.03,1.02-.11.45-.09.93-.11,1.38l-.13.15c.02.17-.06.34-.11.51-.02,0-.03-.01-.05-.02-.04-.18-.21.02-.28-.13-.15-.25-.16-.56-.17-.85,0-.17.06-.31.07-.48.1-.16.09-.43,0-.59.02-.25.12-.5.07-.75-.12-.24,0-.55-.1-.79l.91-.03Z"/>
            <path class="cls-20" d="M324.15,71.09c-.01-.37-.02-.71-.03-1.07-.02-.7,0-1.41-.08-2.1-.19-.16-.28-.38-.29-.63,0-.19-.08-.38-.01-.57-.12-.35.02-.74,0-1.12.13-.12-.01-.26.03-.41.05-.13.06-.31.21-.36.19-.03.39.08.46.27.1.33.18.69.18,1.04.1.25.11.53.15.8-.03.2.07.37.01.55.06.24.18.49.11.75,0,.21.06.44,0,.64-.11.13.02.26-.01.41.03.24-.14.4-.01.62.04.31.1.65,0,.96.02.16-.04.37.06.5l.03.72c-.03.55-.1,1.1-.08,1.66.04.44.04.82.05,1.23.07.55,0,.98.04,1.55,0,.1.07.11.15.12l-1.06-.02c.1-.07.05-.25.02-.35l.02-.82c.12-.25-.01-.56.08-.8-.06-.29.08-.56,0-.85.01-.25.07-.6-.05-.83.04-.36-.02-.7.03-1.08v-.81Z"/>
          </g>
          <g>
            <path class="cls-16" d="M327.78,77.22c-.07.35-.12.76-.11,1.09.06.24-.02.49-.04.74.11.6-.1,1.24-.16,1.84-.11.21.07.45-.06.64-.11.11-.02.22,0,.34-.12.11-.29.08-.44.04-.22-.14-.19-.4-.19-.64-.2-.16.06-.35-.04-.54.08-.24.17-.52.07-.78.12-.3,0-.63.06-.94.04-.55,0-1.12,0-1.66l.91-.12Z"/>
            <path class="cls-13" d="M327.01,71.06l.04-1.6c-.07-.2,0-.4-.03-.63.05-.67-.05-1.33-.07-1.97,0-.26,0-.57.15-.79-.03-.22.2-.33.22-.52,0,0,.14-.05.2-.09.17.06.19.25.3.37.04.11.05.23.14.32-.04.33.11.66-.01.96.1.36-.11.7-.05,1.07.04.33-.23.58-.12.9-.09.72.03,1.29.06,2l-.02.78c-.08.35-.09.72-.11,1.07.08.15-.04.28-.04.43.07.32-.05.7.06,1-.01.32.07.62.08.95-.02.4-.08.84.05,1.2l-1,.1v-.27c-.01-.34.06-.69-.01-1.03.17-.63-.07-1.27.05-1.89-.1-.22.02-.51-.04-.74.08-.24.08-.52.09-.78l.06-.82Z"/>
          </g>
        </g>
      </g>
    </g>
  </g>
</svg>