<?xml version="1.0" encoding="UTF-8"?>
<svg id="_レイヤー_2" data-name="レイヤー 2" xmlns="http://www.w3.org/2000/svg" viewBox="0 0 603 87.88">
  <defs>
    <style>
      .cls-1 {
        fill: none;
      }

      .cls-2 {
        fill: #7f0073;
      }

      .cls-3 {
        fill: #004473;
      }

      .cls-4 {
        fill: #2ca89c;
      }

      .cls-5 {
        fill: #00396d;
      }

      .cls-6 {
        fill: #006f75;
      }

      .cls-7 {
        fill: #d70065;
      }

      .cls-8 {
        fill: #0068a9;
      }

      .cls-9 {
        fill: #231815;
      }

      .cls-10 {
        fill: #018064;
      }

      .cls-11 {
        fill: #840880;
      }

      .cls-12 {
        fill: #017fc8;
      }

      .cls-13 {
        fill: #003680;
      }

      .cls-14 {
        fill: #6a1680;
      }

      .cls-15 {
        fill: #0081b0;
      }

      .cls-16 {
        fill: #00408a;
      }

      .cls-17 {
        fill: #0189d2;
      }

      .cls-18 {
        fill: #00307c;
      }

      .cls-19 {
        fill: #007074;
      }
    </style>
  </defs>
  <g id="design">
    <path class="cls-1" d="M603,87.88H0V0h603v87.88ZM.25,87.62h602.5V.25H.25v87.37Z"/>
    <polygon points="579.98 46.84 530.1 46.84 530.1 45.94 577.81 45.94 570.79 38.91 571.42 38.28 579.98 46.84"/>
    <path d="M243.52,40.87c2.12-2.37,5.76-2.58,8.13-.46.16.15.32.3.46.46.96,1.27,1.45,2.82,1.4,4.41.06,1.58-.43,3.14-1.4,4.4-2.1,2.37-5.73,2.59-8.11.49-.17-.15-.34-.32-.49-.49-.95-1.27-1.43-2.82-1.37-4.4-.07-1.58.41-3.14,1.37-4.41ZM244.73,49.32c.93,1.7,3.06,2.33,4.76,1.4.59-.32,1.08-.81,1.4-1.4.64-1.25.95-2.64.9-4.04.05-1.4-.26-2.79-.9-4.04-.93-1.7-3.06-2.33-4.76-1.4-.59.32-1.08.81-1.4,1.4-.64,1.25-.95,2.64-.9,4.04-.05,1.4.26,2.79.9,4.04Z"/>
    <path d="M261.64,48.53c0,1.35.05,1.72.23,1.99s.56.44,1.23.46v.42h-3.71v-.42c.64,0,.99-.14,1.22-.46.31-.71.43-1.5.33-2.27v-6.8c0-1.65-.12-1.8-1.38-1.87v-.41h2.98l7.03,10.08v-6.95c0-1.51-.05-2-.25-2.27s-.59-.44-1.29-.48v-.41h3.81v.45c-1.27.07-1.54.52-1.54,2.51v9.33h-.95l-7.67-11.04-.05,8.12Z"/>
    <path d="M277.4,50.99c1.35-.05,1.47-.17,1.47-1.72v-7.96c0-1.57-.1-1.67-1.47-1.72v-.42h4.5v.43c-1.38.05-1.49.15-1.49,1.72v9.57h2.38c2.03,0,2.75-.67,3.24-2.92l.52.06-.3,3.36h-8.81l-.04-.41Z"/>
    <path d="M291.76,50.98c1.37,0,1.47-.17,1.47-1.72v-7.94c0-1.57-.1-1.67-1.47-1.74v-.41h4.5v.43c-1.38.07-1.49.17-1.49,1.74v7.94c0,1.55.12,1.68,1.49,1.72v.42h-4.5v-.45Z"/>
    <path d="M304.07,48.53c0,1.35.05,1.72.24,1.99s.55.44,1.22.46v.42h-3.71v-.42c.65,0,1-.14,1.22-.46.31-.71.42-1.5.32-2.27v-6.8c0-1.65-.12-1.8-1.39-1.87v-.41h2.99l7.02,10.08v-6.95c0-1.51-.04-2-.25-2.27s-.59-.44-1.28-.48v-.41h3.75v.45c-1.26.07-1.53.52-1.53,2.51v9.33h-.96l-7.67-11.04.03,8.12Z"/>
    <path d="M319.8,50.99c.37.05.75-.04,1.06-.25.18-.21.18-.23.22-1.49v-7.94c.02-.42,0-.83-.08-1.24-.12-.36-.42-.5-1.2-.5v-.41h8.51l.27,3.02h-.49c-.41-2.03-1.03-2.55-3.19-2.55h-2.32v5.13h1.74c1.86,0,2.19-.24,2.38-1.72h.47v3.96h-.47c-.02-.49-.18-.96-.48-1.35-.57-.33-1.24-.47-1.9-.39h-1.74v5.58h2.7c2.12,0,2.7-.56,3.2-2.89h.48l-.39,3.43h-8.78v-.41Z"/>
    <path d="M345.27,48.02h.56c-.13,1.58,1.04,2.97,2.62,3.1.2.02.4.01.6-.01,1.53,0,2.44-.81,2.44-2.2s-.62-1.97-3.13-3.18c-.9-.35-1.73-.86-2.43-1.52-.5-.54-.76-1.26-.74-1.99-.03-.93.36-1.82,1.06-2.44.67-.57,1.53-.86,2.41-.81.67,0,1.34.1,1.98.29.21.04.42.07.63.08.35-.02.69-.11,1.01-.25l-.1,3.32h-.56c0-.63-.17-1.25-.47-1.8-.54-.81-1.46-1.26-2.43-1.2-.68-.06-1.35.2-1.8.71-.32.42-.5.94-.5,1.47,0,1.11.54,1.67,2.55,2.61,2.01.95,2.9,1.55,3.37,2.3.35.55.51,1.2.48,1.85.05.87-.31,1.71-.96,2.29-.76.62-1.72.94-2.7.9-.76,0-1.52-.1-2.26-.29-.19-.01-.37-.01-.56,0-.39.02-.78.07-1.16.16l.09-3.39Z"/>
    <path d="M364.36,49.26c0,.99.07,1.31.31,1.5.4.19.84.27,1.28.22v.42h-4.72v-.42c.73,0,1.13-.08,1.3-.25s.27-.52.27-1.47v-9.65c-3.02,0-3.5.42-3.92,3.17h-.54l.31-3.55h9.9l.3,3.55h-.54c-.43-2.75-.9-3.13-3.94-3.17v9.65Z"/>
    <path d="M375.92,40.87c1.05-1.29,2.64-2,4.3-1.93,1.66-.08,3.25.63,4.29,1.93.96,1.26,1.46,2.82,1.4,4.41.06,1.59-.44,3.14-1.4,4.4-1.04,1.3-2.64,2.02-4.29,1.94-1.66.07-3.25-.65-4.3-1.94-.96-1.26-1.45-2.82-1.4-4.4-.06-1.59.43-3.15,1.4-4.41ZM377.17,49.32c.93,1.7,3.06,2.33,4.76,1.4.59-.32,1.08-.81,1.4-1.4.65-1.25.96-2.64.9-4.04.06-1.4-.26-2.8-.9-4.04-.59-1.14-1.79-1.84-3.08-1.8-1.29-.04-2.48.66-3.09,1.8-.64,1.25-.95,2.64-.9,4.04-.04,1.4.27,2.79.9,4.04Z"/>
    <path d="M394.76,49.26c0,1.55.1,1.68,1.31,1.72v.42h-4.11v-.42c1.2,0,1.3-.17,1.3-1.72v-7.94c0-1.57-.08-1.68-1.3-1.74v-.41h4.67c3.09,0,4.5.96,4.5,3.02.02.68-.18,1.35-.56,1.92-.75.77-1.76,1.21-2.84,1.25v.14c.5.08.96.29,1.35.61.63.61,1.12,1.37,1.4,2.21.82,1.87.95,2.11,1.3,2.39.25.22.57.33.9.32v.38h-2.63c-.5-1.5-1.1-2.95-1.8-4.37-.41-.73-.73-1.06-1.23-1.23-.38-.14-.79-.2-1.2-.2h-1.03l-.04,3.65ZM396.17,45.09c.81.05,1.61-.13,2.32-.52.71-.52,1.1-1.38,1.03-2.26,0-1.8-1.04-2.63-3.2-2.63h-1.55v5.4h1.4Z"/>
    <path d="M407.84,50.99c.37.05.75-.04,1.06-.25.18-.21.18-.23.22-1.49v-7.94c.02-.42,0-.83-.08-1.24-.12-.36-.42-.5-1.2-.5v-.41h8.51l.27,3.02h-.49c-.41-2.03-1.03-2.55-3.19-2.55h-2.32v5.13h1.73c1.87,0,2.2-.24,2.38-1.72h.48v3.96h-.48c-.01-.49-.18-.96-.47-1.35-.58-.33-1.25-.47-1.91-.39h-1.73v5.58h2.66c2.12,0,2.7-.56,3.2-2.89h.48l-.34,3.36h-8.78v-.33Z"/>
    <g>
      <g>
        <path class="cls-9" d="M177.82,66.52h.19v-.08h-.47v.08h.19v.71h.09v-.71Z"/>
        <path class="cls-9" d="M178.25,66.36v.43h0s.08-.07.14-.07c.14,0,.17.1.17.21v.29h-.08v-.28c0-.08,0-.15-.11-.15-.11,0-.12.11-.12.19v.23h-.08v-.86h.08Z"/>
        <path class="cls-9" d="M178.83,67c0,.09.07.16.16.16.07,0,.12-.04.15-.1l.07.04c-.05.09-.13.14-.23.14-.15,0-.24-.11-.24-.25s.08-.27.24-.27.24.13.23.28h-.39ZM179.13,66.93c-.01-.07-.07-.13-.14-.13s-.14.06-.15.13h.29Z"/>
        <path class="cls-9" d="M180.19,66.8c.1,0,.17.08.17.18s-.06.19-.16.19-.16-.09-.16-.19.06-.18.16-.18ZM180.44,66.73h-.08v.07h0c-.04-.06-.1-.09-.17-.09-.14,0-.24.13-.24.26s.09.26.23.26c.07,0,.13-.03.17-.08h0v.06c0,.11-.03.21-.16.21-.09,0-.16-.06-.16-.15h-.08c0,.14.1.23.24.23.07,0,.14-.03.19-.09.05-.07.05-.13.05-.21v-.47Z"/>
        <path class="cls-9" d="M180.75,67.22h-.08v-.86h.08v.86Z"/>
        <path class="cls-9" d="M180.93,66.98c0-.14.11-.26.26-.26s.26.12.26.26-.12.26-.26.26-.26-.11-.26-.26ZM181.01,66.98c0,.1.07.18.17.18s.17-.08.17-.18-.07-.18-.17-.18-.17.08-.17.18Z"/>
        <path class="cls-9" d="M181.7,66.97c0,.1.05.19.16.19s.16-.09.16-.19-.06-.18-.17-.18c-.1,0-.16.08-.16.18ZM181.62,66.36h.09v.44h0c.04-.05.1-.09.17-.09.15,0,.24.12.24.26s-.09.26-.24.26c-.07,0-.13-.03-.17-.08h0v.07h-.09v-.86Z"/>
        <path class="cls-9" d="M182.34,66.97c0,.1.06.19.16.19s.16-.09.16-.19-.06-.18-.16-.18c-.1,0-.16.08-.16.18ZM182.75,67.22h-.08v-.07h0c-.04.05-.1.08-.17.08-.14,0-.24-.12-.24-.26s.09-.26.24-.26c.07,0,.13.03.17.09h0v-.07h.08v.49Z"/>
        <path class="cls-9" d="M183.05,67.22h-.08v-.86h.08v.86Z"/>
        <path class="cls-9" d="M184.07,66.85s-.04-.05-.07-.05c-.03,0-.06.02-.06.06,0,.04.06.06.11.09.06.02.11.06.11.14,0,.09-.07.16-.16.16-.08,0-.15-.05-.17-.13l.07-.03s.05.08.1.08c.04,0,.08-.03.08-.07,0-.11-.22-.07-.22-.23,0-.08.07-.14.15-.14.06,0,.11.04.13.09l-.07.04Z"/>
        <path class="cls-9" d="M184.44,67.22h-.09v-.42h-.05v-.08h.05v-.18h.09v.18h.09v.08h-.09v.42Z"/>
        <path class="cls-9" d="M184.88,66.8c.1,0,.16.08.16.18s-.06.19-.16.19-.16-.09-.16-.19.06-.18.16-.18ZM185.12,66.73h-.08v.07h0c-.04-.05-.1-.09-.17-.09-.15,0-.24.12-.24.26s.09.26.23.26c.07,0,.13-.03.17-.08h0v.07h.08v-.49Z"/>
        <path class="cls-9" d="M185.43,67.22h-.08v-.42h-.04v-.08h.04v-.2s0-.09.02-.13c.03-.04.08-.06.13-.06.02,0,.04,0,.06,0v.09s-.04-.01-.06-.01c-.07,0-.07.05-.07.13v.17h.13v.08h-.13v.42Z"/>
        <path class="cls-9" d="M185.79,67.22h-.08v-.42h-.05v-.08h.05v-.2s0-.09.02-.13c.03-.04.08-.06.13-.06.02,0,.04,0,.06,0v.09s-.04-.01-.06-.01c-.07,0-.07.05-.07.13v.17h.12v.08h-.12v.42Z"/>
        <path class="cls-9" d="M186.86,66.8c.1,0,.17.08.17.18s-.07.18-.17.18-.17-.08-.17-.18.07-.18.17-.18ZM186.86,67.24c.14,0,.26-.11.26-.26s-.12-.26-.26-.26-.26.12-.26.26.12.26.26.26Z"/>
        <path class="cls-9" d="M187.39,66.81h.13v-.08h-.13v-.17c0-.08,0-.13.07-.13.02,0,.04,0,.06.01v-.09s-.04,0-.06,0c-.05,0-.1.02-.13.06-.02.03-.02.09-.02.13v.2h-.05v.08h.05v.42h.08v-.42Z"/>
        <path class="cls-9" d="M188.62,66.5c.18,0,.32.15.32.33s-.14.33-.32.33-.32-.15-.32-.33.14-.33.32-.33ZM188.62,66.42c-.23,0-.41.18-.41.41s.19.41.41.41.41-.18.41-.41-.19-.41-.41-.41Z"/>
        <path class="cls-9" d="M189.3,66.79h0s.08-.07.14-.07c.14,0,.17.1.17.21v.29h-.08v-.28c0-.08,0-.15-.1-.15-.11,0-.12.11-.12.19v.23h-.08v-.49h.08v.06Z"/>
        <path class="cls-9" d="M190,67.07l.15-.37.15.37.15-.34h.1l-.24.53-.15-.37-.15.37-.24-.53h.1l.14.34Z"/>
        <path class="cls-9" d="M190.74,66.97c0,.1.06.19.16.19s.16-.09.16-.19-.06-.18-.17-.18c-.1,0-.16.08-.16.18ZM191.15,67.22h-.08v-.07h0c-.04.05-.1.08-.17.08-.15,0-.24-.12-.24-.26s.09-.26.24-.26c.07,0,.13.03.17.09h0v-.07h.08v.49Z"/>
        <path class="cls-9" d="M191.45,66.73h-.08v.49h.08v-.25c0-.06,0-.18.1-.18.02,0,.03.01.05.02l.04-.08s-.05-.03-.07-.03c-.06,0-.08.03-.11.07h0v-.05Z"/>
        <path class="cls-9" d="M191.99,66.8c.1,0,.17.08.17.18s-.06.19-.17.19-.16-.09-.16-.19.06-.18.16-.18ZM192.15,67.22h.08v-.86h-.08v.44h0c-.04-.05-.1-.09-.17-.09-.15,0-.24.12-.24.26s.09.26.24.26c.07,0,.13-.03.17-.08h0v.07Z"/>
        <path class="cls-9" d="M193.29,66.8c.1,0,.16.08.16.18s-.05.19-.16.19-.16-.09-.16-.19.06-.18.16-.18ZM193.14,66.73h-.08v.77h.08v-.35h0c.04.05.1.08.17.08.15,0,.23-.12.23-.26s-.09-.26-.23-.26c-.07,0-.13.03-.17.09h0v-.07Z"/>
        <path class="cls-9" d="M193.81,66.79h0s.05-.07.11-.07c.03,0,.05.01.08.03l-.04.08s-.03-.02-.05-.02c-.09,0-.09.12-.09.18v.25h-.08v-.49h.08v.05Z"/>
        <path class="cls-9" d="M194.19,66.93c.01-.07.08-.13.15-.13s.13.06.14.13h-.29ZM194.57,67c0-.15-.08-.28-.23-.28s-.24.12-.24.27.1.25.24.25c.1,0,.18-.05.23-.14l-.07-.04c-.03.06-.08.1-.15.1-.1,0-.16-.07-.16-.16h.39Z"/>
        <path class="cls-9" d="M194.95,66.85s-.04-.05-.07-.05-.06.02-.06.06c0,.04.05.06.11.09.06.02.11.06.11.14,0,.09-.08.16-.17.16-.08,0-.15-.05-.17-.13l.08-.03s.04.08.1.08c.04,0,.08-.03.08-.07,0-.11-.22-.07-.22-.23,0-.08.07-.14.15-.14.06,0,.11.04.13.09l-.07.04Z"/>
        <path class="cls-9" d="M195.28,66.93c.01-.07.08-.13.15-.13s.13.06.14.13h-.29ZM195.67,67c0-.15-.08-.28-.23-.28s-.24.12-.24.27.09.25.24.25c.1,0,.18-.05.23-.14l-.07-.04c-.03.06-.08.1-.15.1-.1,0-.16-.07-.16-.16h.39Z"/>
        <path class="cls-9" d="M195.93,66.79h0s.08-.07.14-.07c.13,0,.17.1.17.21v.29h-.08v-.28c0-.08,0-.15-.1-.15-.11,0-.12.11-.12.19v.23h-.08v-.49h.08v.06Z"/>
        <path class="cls-9" d="M196.56,66.81h.09v-.08h-.09v-.18h-.08v.18h-.05v.08h.05v.42h.08v-.42Z"/>
        <path class="cls-9" d="M197.05,66.81c-.02-.05-.07-.09-.13-.09-.08,0-.15.06-.15.14,0,.16.22.12.22.23,0,.04-.03.07-.08.07-.05,0-.08-.03-.1-.08l-.07.03c.03.08.09.13.17.13.09,0,.17-.07.17-.16,0-.08-.06-.12-.11-.14-.06-.03-.11-.04-.11-.09,0-.03.03-.06.06-.06s.06.02.07.05l.07-.04Z"/>
        <path class="cls-9" d="M197.91,66.97c0,.1.06.19.16.19s.16-.09.16-.19-.06-.18-.16-.18c-.1,0-.16.08-.16.18ZM198.32,67.22h-.08v-.07h0c-.04.05-.1.08-.17.08-.14,0-.24-.12-.24-.26s.09-.26.24-.26c.07,0,.13.03.17.09h0v-.07h.08v.49Z"/>
        <path class="cls-9" d="M199.22,66.36v.43h0s.08-.07.14-.07c.13,0,.17.1.17.21v.29h-.08v-.28c0-.08,0-.15-.1-.15-.11,0-.12.11-.12.19v.23h-.08v-.86h.08Z"/>
        <path class="cls-9" d="M199.85,66.73h-.08v.49h.08v-.49ZM199.81,66.49s-.06.02-.06.06c0,.03.03.06.06.06.03,0,.06-.03.06-.06,0-.04-.03-.06-.06-.06Z"/>
        <path class="cls-9" d="M200.3,66.8c.1,0,.16.08.16.18s-.06.19-.16.19-.16-.09-.16-.19.06-.18.16-.18ZM200.54,66.73h-.08v.07h0c-.04-.06-.1-.09-.17-.09-.14,0-.24.13-.24.26s.09.26.23.26c.07,0,.13-.03.17-.08h0v.06c0,.11-.03.21-.16.21-.09,0-.16-.06-.16-.15h-.08c0,.14.1.23.24.23.07,0,.14-.03.19-.09.05-.07.05-.13.05-.21v-.47Z"/>
        <path class="cls-9" d="M200.85,66.36v.43h0s.08-.07.14-.07c.14,0,.17.1.17.21v.29h-.08v-.28c0-.08,0-.15-.11-.15-.11,0-.12.11-.12.19v.23h-.08v-.86h.08Z"/>
        <path class="cls-9" d="M201.47,66.36h-.08v.86h.08v-.86Z"/>
        <path class="cls-9" d="M201.61,66.73h.1l.18.35.16-.35h.1l-.36.77h-.1l.16-.32-.23-.45Z"/>
        <path class="cls-9" d="M203.08,66.85s-.04-.05-.07-.05-.06.02-.06.06c0,.04.06.06.11.09.06.02.11.06.11.14,0,.09-.08.16-.17.16-.08,0-.15-.05-.17-.13l.07-.03s.04.08.1.08c.04,0,.08-.03.08-.07,0-.11-.22-.07-.22-.23,0-.08.07-.14.15-.14.06,0,.11.04.13.09l-.07.04Z"/>
        <path class="cls-9" d="M203.41,66.93c.01-.07.08-.13.15-.13s.13.06.14.13h-.29ZM203.79,67c0-.15-.08-.28-.23-.28s-.24.12-.24.27.09.25.24.25c.1,0,.18-.05.23-.14l-.07-.04c-.03.06-.08.1-.15.1-.1,0-.16-.07-.16-.16h.39Z"/>
        <path class="cls-9" d="M204.06,66.79h0s.08-.07.14-.07c.14,0,.17.1.17.21v.29h-.09v-.28c0-.08,0-.15-.1-.15-.11,0-.12.11-.12.19v.23h-.08v-.49h.08v.06Z"/>
        <path class="cls-9" d="M204.79,66.85s-.04-.05-.07-.05c-.03,0-.06.02-.06.06,0,.04.06.06.11.09.06.02.12.06.12.14,0,.09-.08.16-.17.16-.08,0-.15-.05-.17-.13l.07-.03s.05.08.1.08c.04,0,.08-.03.08-.07,0-.11-.22-.07-.22-.23,0-.08.07-.14.15-.14.06,0,.11.04.13.09l-.07.04Z"/>
        <path class="cls-9" d="M205.13,66.49s-.06.02-.06.06c0,.03.03.06.06.06s.06-.03.06-.06c0-.04-.03-.06-.06-.06ZM205.17,66.73h-.08v.49h.08v-.49Z"/>
        <path class="cls-9" d="M205.5,67.22h-.08v-.42h-.05v-.08h.05v-.18h.08v.18h.09v.08h-.09v.42Z"/>
        <path class="cls-9" d="M205.83,67.22h-.08v-.49h.08v.49ZM205.85,66.55s-.03.06-.06.06-.06-.03-.06-.06c0-.04.03-.06.06-.06s.06.02.06.06Z"/>
        <path class="cls-9" d="M206.24,67.06l.15-.33h.09l-.24.52-.24-.52h.09l.15.33Z"/>
        <path class="cls-9" d="M206.67,67c0,.09.06.16.16.16.07,0,.12-.04.15-.1l.07.04c-.05.09-.13.14-.23.14-.15,0-.24-.11-.24-.25s.08-.27.24-.27.24.13.23.28h-.39ZM206.97,66.93c-.01-.07-.07-.13-.15-.13s-.14.06-.15.13h.3Z"/>
        <path class="cls-9" d="M207.93,67.22h-.08v-.49h.08v.49ZM207.95,66.55s-.03.06-.06.06c-.03,0-.06-.03-.06-.06,0-.04.03-.06.06-.06.03,0,.06.02.06.06Z"/>
        <path class="cls-9" d="M208.26,66.79h0s.08-.07.14-.07c.14,0,.17.1.17.21v.29h-.08v-.28c0-.08,0-.15-.1-.15-.11,0-.12.11-.12.19v.23h-.08v-.49h.08v.06Z"/>
        <path class="cls-9" d="M208.88,66.81h.09v-.08h-.09v-.18h-.08v.18h-.05v.08h.05v.42h.08v-.42Z"/>
        <path class="cls-9" d="M209.16,66.93c.01-.07.08-.13.15-.13s.13.06.14.13h-.29ZM209.54,67c0-.15-.08-.28-.23-.28s-.24.12-.24.27.09.25.24.25c.1,0,.18-.05.23-.14l-.07-.04c-.03.06-.08.1-.15.1-.09,0-.16-.07-.16-.16h.39Z"/>
        <path class="cls-9" d="M209.8,66.79h0s.05-.07.11-.07c.03,0,.05.01.08.03l-.04.08s-.03-.02-.05-.02c-.09,0-.1.12-.1.18v.25h-.08v-.49h.08v.05Z"/>
        <path class="cls-9" d="M210.04,66.93v.08h.22v-.08h-.22Z"/>
        <path class="cls-9" d="M177.69,68.2h-.08v.49h.08v-.23c0-.09,0-.19.12-.19.1,0,.1.07.1.15v.28h.08v-.29c0-.12-.03-.21-.17-.21-.06,0-.1.03-.14.07h0v-.06Z"/>
        <path class="cls-9" d="M178.46,68.26c.1,0,.17.08.17.18s-.06.19-.16.19-.16-.09-.16-.19.06-.18.16-.18ZM178.7,68.2h-.08v.07h0c-.04-.05-.1-.08-.17-.08-.15,0-.24.12-.24.26s.09.26.23.26c.07,0,.13-.03.17-.08h0v.07h.08v-.49Z"/>
        <path class="cls-9" d="M179.04,68.69h-.08v-.41h-.05v-.08h.05v-.18h.08v.18h.09v.08h-.09v.41Z"/>
        <path class="cls-9" d="M179.39,68.69h-.08v-.49h.08v.49ZM179.41,68.01s-.03.06-.06.06-.06-.03-.06-.06c0-.03.03-.06.06-.06s.06.03.06.06Z"/>
        <path class="cls-9" d="M179.87,68.26c.1,0,.18.08.18.18s-.07.18-.18.18-.17-.08-.17-.18.07-.18.17-.18ZM179.87,68.7c.14,0,.26-.11.26-.26s-.11-.26-.26-.26-.26.12-.26.26.12.26.26.26Z"/>
        <path class="cls-9" d="M180.42,68.26h0s.08-.07.14-.07c.14,0,.17.1.17.21v.29h-.08v-.28c0-.08,0-.15-.11-.15-.11,0-.12.11-.12.19v.23h-.08v-.49h.08v.06Z"/>
        <path class="cls-9" d="M181.18,68.26c.1,0,.16.08.16.18s-.06.19-.16.19-.16-.09-.16-.19.06-.18.16-.18ZM181.43,68.2h-.08v.07h0c-.04-.05-.1-.08-.17-.08-.15,0-.23.12-.23.26s.09.26.23.26c.07,0,.13-.03.17-.08h0v.07h.08v-.49Z"/>
        <path class="cls-9" d="M181.76,68.69h-.08v-.86h.08v.86Z"/>
        <path class="cls-9" d="M183.17,68.26c.1,0,.16.08.16.18s-.06.19-.16.19-.16-.09-.16-.19.06-.18.16-.18ZM182.93,68.69h.08v-.07h0c.04.05.1.08.17.08.14,0,.24-.12.24-.26s-.09-.26-.24-.26c-.07,0-.13.03-.17.08h0v-.44h-.08v.86Z"/>
        <path class="cls-9" d="M183.71,68.25h0s.05-.07.11-.07c.03,0,.05,0,.08.02l-.04.08s-.03-.02-.05-.02c-.09,0-.09.12-.09.18v.25h-.08v-.49h.08v.05Z"/>
        <path class="cls-9" d="M184.28,68.26c.1,0,.16.08.16.18s-.06.19-.16.19-.16-.09-.16-.19.06-.18.16-.18ZM184.52,68.2h-.08v.07h0c-.04-.05-.1-.08-.17-.08-.15,0-.24.12-.24.26s.09.26.24.26c.07,0,.13-.03.17-.08h0v.07h.08v-.49Z"/>
        <path class="cls-9" d="M184.85,68.26h0s.08-.07.14-.07c.14,0,.17.1.17.21v.29h-.09v-.28c0-.08,0-.15-.1-.15-.11,0-.12.11-.12.19v.23h-.08v-.49h.08v.06Z"/>
        <path class="cls-9" d="M185.46,68.44c0,.1.06.19.16.19s.17-.09.17-.19-.06-.18-.17-.18c-.1,0-.16.08-.16.18ZM185.78,68.62h0c-.04.05-.1.08-.17.08-.14,0-.23-.12-.23-.26,0-.14.09-.26.24-.26.07,0,.13.03.17.08h0v-.44h.08v.86h-.08v-.07Z"/>
        <path class="cls-9" d="M187.14,68.28h.12v-.08h-.12v-.17c0-.08,0-.13.07-.13.02,0,.04,0,.06.01v-.09s-.04-.01-.06-.01c-.05,0-.1.02-.13.06-.02.04-.02.09-.02.13v.2h-.05v.08h.05v.41h.08v-.41Z"/>
        <path class="cls-9" d="M187.38,68.44c0-.14.12-.26.26-.26s.26.12.26.26-.12.26-.26.26-.26-.11-.26-.26ZM187.46,68.44c0,.1.07.18.18.18s.17-.08.17-.18-.07-.18-.17-.18-.18.08-.18.18Z"/>
        <path class="cls-9" d="M188.18,68.25h0s.06-.07.11-.07c.03,0,.05,0,.08.02l-.04.08s-.03-.02-.05-.02c-.09,0-.1.12-.1.18v.25h-.08v-.49h.08v.05Z"/>
        <path class="cls-9" d="M189.84,68.34h0s-.09-.08-.15-.08c-.1,0-.17.08-.17.18s.07.18.17.18c.07,0,.12-.03.16-.09h0v.11s-.1.05-.16.05c-.15,0-.26-.11-.26-.26s.12-.26.26-.26c.05,0,.11.02.15.05v.11Z"/>
        <path class="cls-9" d="M190.28,68.26c.1,0,.17.08.17.18s-.07.18-.17.18-.18-.08-.18-.18.07-.18.18-.18ZM190.28,68.7c.14,0,.26-.11.26-.26s-.11-.26-.26-.26-.26.12-.26.26.11.26.26.26Z"/>
        <path class="cls-9" d="M190.83,68.26h0s.08-.07.14-.07c.14,0,.17.1.17.21v.29h-.08v-.28c0-.08,0-.15-.11-.15-.12,0-.12.11-.12.19v.23h-.08v-.49h.08v.06Z"/>
        <path class="cls-9" d="M191.48,68.69h-.08v-.41h-.05v-.08h.05v-.18h.08v.18h.09v.08h-.09v.41Z"/>
        <path class="cls-9" d="M191.78,68.46c0,.09.07.16.16.16.07,0,.12-.04.15-.1l.07.04c-.05.09-.12.14-.23.14-.15,0-.24-.11-.24-.25s.09-.27.24-.27.24.13.23.28h-.39ZM192.07,68.39c-.01-.07-.07-.13-.14-.13s-.14.06-.15.13h.29Z"/>
        <path class="cls-9" d="M192.45,68.25h0s.07-.07.12-.07c.06,0,.11.03.14.08.03-.06.09-.08.15-.08.13,0,.15.1.15.2v.3h-.08v-.28c0-.07,0-.14-.09-.14-.1,0-.11.09-.11.17v.26h-.08v-.28c0-.06,0-.15-.09-.15-.1,0-.11.1-.11.18v.25h-.08v-.49h.08v.05Z"/>
        <path class="cls-9" d="M193.5,68.26c.1,0,.17.08.17.18s-.06.19-.16.19-.16-.09-.16-.19.07-.18.16-.18ZM193.34,68.2h-.08v.77h.08v-.34h0c.04.05.1.08.17.08.15,0,.24-.12.24-.26s-.09-.26-.24-.26c-.07,0-.13.03-.17.08h0v-.07Z"/>
        <path class="cls-9" d="M194.17,68.26c.1,0,.17.08.17.18s-.07.18-.17.18-.18-.08-.18-.18.07-.18.18-.18ZM194.17,68.7c.14,0,.26-.11.26-.26s-.11-.26-.26-.26-.26.12-.26.26.11.26.26.26Z"/>
        <path class="cls-9" d="M194.72,68.25h0s.05-.07.11-.07c.03,0,.05,0,.07.02l-.04.08s-.03-.02-.05-.02c-.09,0-.1.12-.1.18v.25h-.08v-.49h.08v.05Z"/>
        <path class="cls-9" d="M195.28,68.26c.1,0,.17.08.17.18s-.06.19-.16.19-.16-.09-.16-.19.06-.18.16-.18ZM195.53,68.2h-.08v.07h0c-.04-.05-.1-.08-.17-.08-.15,0-.24.12-.24.26s.09.26.24.26c.07,0,.13-.03.17-.08h0v.07h.08v-.49Z"/>
        <path class="cls-9" d="M195.86,68.2h-.08v.49h.08v-.25c0-.06,0-.18.1-.18.02,0,.03.01.05.02l.04-.08s-.05-.02-.08-.02c-.05,0-.08.03-.11.07h0v-.05Z"/>
        <path class="cls-9" d="M196.18,68.2h.1l.17.35.16-.35h.09l-.36.77h-.1l.16-.32-.23-.45Z"/>
        <path class="cls-9" d="M197.9,68.28h.13v-.08h-.13v-.17c0-.08,0-.13.07-.13.02,0,.04,0,.06.01v-.09s-.04-.01-.06-.01c-.05,0-.1.02-.13.06-.02.04-.02.09-.02.13v.2h-.05v.08h.05v.41h.08v-.41Z"/>
        <path class="cls-9" d="M198.39,68.26c.1,0,.16.08.16.18s-.06.19-.16.19-.16-.09-.16-.19.06-.18.16-.18ZM198.63,68.2h-.08v.07h0c-.04-.05-.1-.08-.17-.08-.15,0-.24.12-.24.26s.09.26.23.26c.07,0,.13-.03.17-.08h0v.07h.08v-.49Z"/>
        <path class="cls-9" d="M199.08,68.31s-.04-.05-.07-.05c-.03,0-.06.02-.06.06,0,.04.05.06.11.08.06.03.11.06.11.14,0,.09-.08.16-.16.16-.08,0-.15-.05-.18-.13l.08-.03s.04.08.1.08c.05,0,.08-.03.08-.08,0-.11-.22-.07-.22-.23,0-.08.07-.14.15-.14.06,0,.11.04.13.09l-.07.03Z"/>
        <path class="cls-9" d="M199.47,67.83v.43h0s.08-.07.14-.07c.14,0,.17.1.17.21v.29h-.08v-.28c0-.08,0-.15-.1-.15-.11,0-.12.11-.12.19v.23h-.08v-.86h.08Z"/>
        <path class="cls-9" d="M200.13,68.2h-.08v.49h.08v-.49ZM200.09,67.95s-.06.03-.06.06c0,.03.03.06.06.06s.06-.03.06-.06c0-.03-.03-.06-.06-.06Z"/>
        <path class="cls-9" d="M200.62,68.7c.14,0,.26-.11.26-.26s-.11-.26-.26-.26-.26.12-.26.26.11.26.26.26ZM200.62,68.26c.1,0,.18.08.18.18s-.07.18-.18.18-.17-.08-.17-.18.07-.18.17-.18Z"/>
        <path class="cls-9" d="M201.16,68.26h0s.08-.07.14-.07c.14,0,.17.1.17.21v.29h-.08v-.28c0-.08,0-.15-.1-.15-.11,0-.12.11-.12.19v.23h-.08v-.49h.08v.06Z"/>
        <path class="cls-9" d="M201.65,68.4v.08h.21v-.08h-.21Z"/>
        <path class="cls-9" d="M202.11,68.69h-.08v-.86h.08v.86Z"/>
        <path class="cls-9" d="M202.58,68.26c.1,0,.18.08.18.18s-.07.18-.18.18-.17-.08-.17-.18.07-.18.17-.18ZM202.58,68.7c.14,0,.26-.11.26-.26s-.11-.26-.26-.26-.26.12-.26.26.11.26.26.26Z"/>
        <path class="cls-9" d="M203.21,68.53l.15-.33h.1l-.24.52-.24-.52h.1l.14.33Z"/>
        <path class="cls-9" d="M203.72,68.2h-.09v.49h.09v-.49ZM203.67,67.95s-.06.03-.06.06c0,.03.03.06.06.06.03,0,.06-.03.06-.06,0-.03-.03-.06-.06-.06Z"/>
        <path class="cls-9" d="M204.07,68.26h0s.08-.07.14-.07c.14,0,.17.1.17.21v.29h-.08v-.28c0-.08,0-.15-.11-.15-.11,0-.12.11-.12.19v.23h-.08v-.49h.08v.06Z"/>
        <path class="cls-9" d="M204.83,68.26c.1,0,.16.08.16.18s-.05.19-.16.19-.16-.09-.16-.19.06-.18.16-.18ZM205.07,68.2h-.08v.07h0c-.04-.05-.1-.08-.17-.08-.14,0-.24.12-.24.26s.09.26.23.26c.07,0,.13-.03.17-.08h0v.06c0,.11-.03.21-.16.21-.09,0-.16-.06-.16-.15h-.08c0,.14.11.22.24.22.07,0,.14-.03.19-.08.05-.07.05-.13.05-.21v-.47Z"/>
        <path class="cls-9" d="M206.28,68.2h-.1l.24.53.15-.37.15.37.24-.53h-.09l-.14.33-.16-.37-.15.37-.14-.33Z"/>
        <path class="cls-9" d="M207.36,68.26c.1,0,.17.08.17.18s-.07.18-.17.18-.18-.08-.18-.18.07-.18.18-.18ZM207.36,68.7c.14,0,.26-.11.26-.26s-.12-.26-.26-.26-.26.12-.26.26.12.26.26.26Z"/>
        <path class="cls-9" d="M207.91,68.25h0s.07-.07.12-.07c.06,0,.11.03.14.08.03-.06.09-.08.15-.08.12,0,.16.1.16.2v.3h-.08v-.28c0-.07,0-.14-.09-.14-.1,0-.11.09-.11.17v.26h-.08v-.28c0-.06,0-.15-.09-.15-.1,0-.11.1-.11.18v.25h-.08v-.49h.08v.05Z"/>
        <path class="cls-9" d="M209.15,68.46c0-.15-.08-.28-.23-.28s-.24.12-.24.27.1.25.24.25c.1,0,.18-.05.23-.14l-.07-.04c-.03.06-.08.1-.15.1-.09,0-.16-.07-.16-.16h.39ZM208.77,68.39c.01-.07.08-.13.15-.13s.13.06.14.13h-.29Z"/>
        <path class="cls-9" d="M209.44,68.26h0s.08-.07.14-.07c.14,0,.17.1.17.21v.29h-.08v-.28c0-.08,0-.15-.1-.15-.11,0-.12.11-.12.19v.23h-.08v-.49h.08v.06Z"/>
        <path class="cls-9" d="M210.14,68.64s-.03.06-.06.06-.06-.03-.06-.06c0-.03.02-.06.06-.06s.06.02.06.06Z"/>
      </g>
      <path class="cls-3" d="M189.73,19.32c.16.16.42.08.54.3.1.04.18.12.29.12.19.09.37.19.55.31.34.13.68.23,1.02.36.09.06.1.16.08.25-.25.23-.54.36-.8.54-.37.13-.63.52-1.01.62-.35.07-.78.15-1.1-.02-.17-.15-.23-.34-.32-.51,0-.3-.08-.58-.02-.86-.03-.24-.02-.53-.14-.73-.01-.23-.05-.5.11-.66.1-.07.24-.11.36-.06.19.07.25.32.46.34Z"/>
      <path class="cls-17" d="M190.28,23.09c.15.04.26.17.42.19.26.18.47.43.79.5.18.16.49.2.51.48-.02.1-.06.19-.17.23-.29.13-.59-.06-.88.08-.41.06-.72.36-1.1.48-.28.08-.53-.03-.72-.22-.07,0-.14-.1-.18-.16-.05-.56.13-1.09.1-1.66.14-.16.03-.51.31-.52.01-.05.06-.09.11-.1.4.04.52.46.79.7Z"/>
      <path class="cls-5" d="M187.89,19.45c.18.17.19.41.29.61-.06.05,0,.1.02.14-.01.42-.02.83.2,1.16.04.2.19.38.1.61-.08,1.09-.59,2.11-.3,3.25.3.9.16,1.9.29,2.87-.08.35.05.7.04,1.07.07.46-.05,1.01.3,1.36l.07.43c.65.51,1.3,1.1,1.86,1.73.27-.03.44-.32.7-.39.78-.61,1.65-.97,2.42-1.58.55-.28.97-.78,1.54-.99.29-.27.67-.32.96-.6.45-.31.94-.54,1.4-.83.69-.38,1.44-.63,2.07-1.15l.9-.81c.54-.34,1.1-.65,1.64-.99.15-.07.39-.12.54,0,.21.02.36.25.5.39.05.06.01.14,0,.21l-.14.13c-.62.24-1.12.77-1.75.99-.54.42-1,1.03-1.61,1.31-.48.16-.86.53-1.35.65-.37.16-.7.47-1.09.59-.42.31-.89.5-1.32.79-.18.05-.3.23-.48.25-.15.18-.37.25-.55.41-.31.18-.62.37-.9.62-.15.06-.26.21-.41.26-.54.27-1.07.62-1.6.93-.26.24-.57.34-.83.55v.07c.4.6,1.02,1.02,1.36,1.64.22.24.33.54.54.78.45.54.95,1.15,1.49,1.61.58.58,1.18,1.21,1.85,1.69.33.39.76.53,1.11.85.38.14.86.09,1.25.18l.24-.03,1.56.1c.54-.19,1.1-.3,1.69-.38.32-.17.69-.24,1.01-.41.3,0,.5-.28.8-.31.14-.12.36-.07.51-.17.27-.01.54.02.79.1.16.06.13.23.13.37-.2.72-1.03.61-1.55.91-.53.18-1.07.35-1.61.5-.16.11-.37.09-.54.17-.49.17-1.01.32-1.57.31l-.12.02c-.3-.04-.66-.13-.94,0-.31-.03-.61.06-.92,0-.45-.05-.9-.12-1.31-.24-.25-.03-.28-.4-.55-.38-.56-.74-1.36-1.11-1.95-1.8-.25-.13-.38-.42-.62-.57-.41-.41-.78-.91-1.24-1.31-.08-.22-.35-.37-.38-.61-.25-.4-.48-.81-.88-1.1-.11-.36-.53-.53-.69-.86-.25-.18-.3-.47-.51-.65-.37.08-.69.31-1.06.4-.18.1-.39.12-.51.3-.11.8-.01,1.57-.12,2.38.1.21-.05.41-.02.63-.05.82-.07,1.64-.25,2.42,0,.24-.12.45-.13.69-.02.57-.1,1.25.24,1.7.12.31.12.65.14.99.09.26.02.54.05.81.05.43.08.86.06,1.29-.17.25-.16.59-.44.79-.2.07-.31-.11-.46-.21-.27-.27-.21-.7-.22-1.05-.09-.47,0-1.05-.08-1.52.01-.49-.35-.88-.17-1.38-.03-.89-.02-1.91.21-2.76.11-1.02.14-2.04.19-3.07-.1-.54-.05-1-.05-1.56-.34-.17-.59-.51-.9-.73l-.24-.36c-.27-.35-.56-.7-.75-1.09-.31-.48-.49-1.04-.49-1.64.1-.14.27-.2.45-.16.25-.09.52-.2.8-.16.2-.09.39.03.59-.06.14.06.27-.02.42,0l.02-.04c-.03-.27-.07-.55-.06-.83-.08-.4-.06-.8-.14-1.2.06-.29-.07-.55-.05-.85.02-.71-.15-1.34-.3-1.98-.04-.45-.02-.84-.06-1.3.09-.76.31-1.47.32-2.27-.19-.66-.39-1.42-.21-2.13.18-.22.17-.79.62-.61l.13.09ZM187.29,31.4c-.24-.08-.45.06-.7,0-.06.04-.19,0-.21.08.18.25.22.56.38.82.38.35.52.85.96,1.17.07,0,.12.05.19.07l.03-.23c0-.6.14-1.26-.03-1.84l-.61-.07ZM189.07,32.46c-.02.37-.09.73-.11,1.09.15-.04.28-.15.42-.21.1-.07.24-.06.31-.15-.22-.25-.4-.5-.62-.73Z"/>
      <g>
        <path class="cls-4" d="M184.59,55.21l.14.18v.03c-.3.25-.56.53-.83.81-.12.14-.21.3-.34.44-.1.19-.28.35-.25.6-.07.15,0,.33-.06.49,0,.08.06.18,0,.24-.03.02-.07.03-.11.02-.22-.24-.1-.59-.15-.9.02-.08.05-.18.02-.26,0-.16.03-.31.03-.47.01-.04.06-.02.08-.04.08-.07.19-.08.24-.18.1-.05.2-.14.22-.25.09-.03.08-.13.15-.16.17.05.22-.16.37-.19.17-.09.18-.29.33-.39.03-.04.04-.09.1-.09l.06.12Z"/>
        <path class="cls-13" d="M188.66,56.83c.08.25.13.56.04.82.01.06-.02.11-.04.15.06.2.02.4.02.6-.06.07,0,.16-.03.23-.04.18.06.34,0,.52.06.1.02.2.03.31.02.24.1.48.03.71.1.12,0,.26.05.4-.03.1.02.2,0,.31.04.13,0,.25,0,.38-.04.29.02.57-.04.87.03.1-.03.21,0,.32-.03.11.04.21,0,.32.05.09-.03.18,0,.27.02.16,0,.33-.01.48.04.08,0,.16,0,.25.04.13-.09.2-.07.32,0,.1-.01.22-.09.28-.05,0-.08-.02-.12-.02.01-.11-.01-.24-.02-.35.02-.09.03-.21-.03-.29-.03-.23,0-.48-.03-.71,0-.09.07-.18.02-.26.09-.1-.02-.22.03-.33-.01-.16.07-.34.02-.5.03-.22-.03-.42,0-.64-.03-.14-.02-.29-.02-.43.07-.21.18-.51-.02-.69-.01-.11-.03-.22-.02-.34.01-.06.03-.11.01-.18.03-.18-.07-.35.02-.51,0-.22,0-.43,0-.65.02-.29-.01-.57.03-.87.01-.14-.03-.28-.14-.37-.02-.03-.05-.08-.09-.05-.06.05-.12.08-.18.12-.15.13-.3.28-.48.34-.06.02-.07.1-.14.12-.16-.02-.34,0-.45.12.03.23-.04.45-.06.66.09.13.05.32.07.47-.06.15,0,.36-.09.5-.05.22,0,.45-.06.66.01.18-.04.34-.02.52.03.14-.02.3-.03.44-.08.17-.07.38-.12.57.06.28-.07.58-.05.87.05.08,0,.17,0,.25.05.23-.06.42-.09.64-.05.29-.12.61-.08.91,0,.13-.13.05-.19.08-.07-.02,0-.11-.02-.15-.03-.12-.04-.23-.06-.36l.05-.32c.02-.47-.02-.98.06-1.44-.01-.11,0-.22.04-.32.03-.27.16-.53.11-.81-.02-.07.02-.13.03-.19,0-.28.13-.5.09-.8-.05-.1.01-.23-.02-.34.02-.27.03-.53.06-.79.06-.13-.01-.26.04-.39.05-.19.03-.36,0-.55.03-.12-.03-.26.06-.36.11-.14.3-.08.42-.21l.32-.15c.08-.11.22-.11.33-.18.2-.02.35-.17.52-.25.11-.04.16-.15.27-.16.01-.02.04,0,.06-.01.05.02.09.1.13.15Z"/>
        <path class="cls-10" d="M185.06,56.76c.03.06.05.13.09.18-.01.09,0,.19.01.29-.05.15-.06.33-.03.49.02.04.04.09.02.13-.04.26-.16.48-.25.72-.13.11-.22.26-.37.34-.07.05-.04.17-.15.18-.03,0-.06.02-.08.05.03.13-.13.19-.17.3-.02.08-.11.12-.1.2-.09.1-.18.18-.27.27-.19.09-.37.19-.55.31-.04.08-.11.14-.17.21,0,.05.03.09.07.11.1.03.21.03.3.08.31.03.59-.03.91.02.05-.02.11-.03.16,0,.19-.05.39,0,.59.01.05.02.11.03.14.08-.03.05-.06.11-.1.14-.21,0-.39,0-.59.05-.17-.05-.36-.02-.54-.03-.19.02-.41.05-.61,0-.21-.03-.42-.12-.61-.23-.1-.01-.19-.06-.25-.14-.03-.06-.08-.15-.03-.22.04-.03.1-.05.15-.06.01.01.02.03.04.02.05-.08.04-.18.13-.24.05-.16.26-.16.29-.32.11-.05.17-.19.29-.22.06-.09.18-.15.21-.26.07-.07.14-.15.24-.16.15-.12.24-.3.39-.43.09-.13.14-.27.27-.36.29-.31.39-.72.43-1.14,0-.15.02-.31.05-.45.05-.06.08.04.11.07Z"/>
        <path class="cls-8" d="M183.08,58.27c.2.13.4.3.57.47.03.03.03.08.02.12-.22.03-.42-.06-.61-.12-.17-.09-.31-.25-.49-.33-.07-.05-.18-.13-.16-.22.06-.08.17-.08.25-.08.16,0,.28.11.41.17Z"/>
        <path class="cls-8" d="M185.74,60.13c.09.04.08.15.1.23.09.09.14.21.12.35.02.11.02.22,0,.33-.07.06-.2.06-.29.03-.13-.14-.27-.3-.3-.48-.03-.02,0-.07-.02-.1,0-.19-.04-.4.03-.57,0-.03,0-.06.02-.08.17,0,.28.16.34.29Z"/>
        <path class="cls-7" d="M188.12,60.46c.04.05.03.12.08.17.02.06-.01.11-.03.16-.08.09-.21.03-.32.07-.2.04-.45.08-.65,0-.05-.03-.16.03-.17-.06.02-.09.01-.18.06-.26.1-.06.23-.11.35-.05.1,0,.18-.05.28-.04.12-.14.26.03.4,0Z"/>
        <path class="cls-16" d="M184.33,61.2c.06.18.27.29.25.5.05.25.06.5.09.76-.05.14.04.28-.03.41.07.19-.11.33-.04.51.05.11-.06.19-.02.3.03.12-.12.13-.14.22-.04.19.02.4-.06.57.02.12.04.28-.08.35-.04.02-.1.02-.14,0-.03-.01-.07-.04-.08-.08,0-.07.05-.12.03-.19-.02-.2.09-.39.08-.59.02-.04.04-.09.05-.14-.02,0,0-.02,0-.03,0-.15.06-.33,0-.48.05-.13,0-.27.02-.41.07-.25.01-.48.03-.74-.05-.16,0-.33-.06-.48-.02-.08-.05-.18-.02-.26,0-.08-.06-.27.09-.21Z"/>
        <path class="cls-14" d="M188.19,61.82c-.01.07-.1.06-.15.09-.15.1-.36.04-.54.08-.12-.05-.24.05-.35-.04l-.18-.16c.08-.14.26-.07.37-.17.11-.05.24-.05.37-.05.07-.03.14,0,.2,0,.1.05.23.13.28.24Z"/>
        <path class="cls-8" d="M184.03,62.48c.02.26-.16.43-.25.65-.08.08-.1.23-.23.24-.08.05-.05.16-.13.2-.01.04-.05.09-.09.1-.07-.02-.15.02-.2-.03-.15-.14-.13-.34-.09-.52.13-.31.46-.45.69-.66.07-.02.12-.14.2-.1.03.05.09.06.1.12Z"/>
        <path class="cls-8" d="M185.43,62.7c.07.11.11.24.06.37-.02.1-.11.18-.1.29-.07,0-.11.07-.19.07-.01.04-.07.02-.1.02-.07-.07-.19-.07-.23-.17-.1-.12,0-.3.02-.43.05-.09.13-.16.13-.27.02-.05.07,0,.11-.02.04,0,.09-.04.13-.02.06.04.08.1.15.14Z"/>
        <path class="cls-16" d="M189.82,64.29c.06,0,.1.04.13.09.03.08.03.15,0,.23-.06.05-.15.07-.22.12-.1,0-.22.04-.34,0-.14.02-.27,0-.39.06-.1.13-.26.06-.39.11-.13.05-.28.06-.41.12-.16-.02-.34.02-.49.01-.09.03-.17.07-.27.07-.15.03-.3-.07-.44-.03-.1-.04-.22,0-.32-.03-.06-.06-.14-.04-.21-.07-.11-.04-.2-.1-.32-.13-.1-.03-.18-.04-.26-.08-.27-.07-.52-.16-.8-.22-.08-.03-.16-.07-.23-.12,0-.11.13-.09.2-.12.07.01.13.06.21.07.16.08.4-.02.53.13.17.08.37.04.53.11.09.07.23.05.31.12.34.06.7.04,1.05.05.13-.01.24-.07.36-.1.14-.1.3-.15.45-.23.15-.02.28-.1.43-.12.23-.05.49-.17.73-.06h.15Z"/>
        <path class="cls-2" d="M203.85,58.18c-.08,0-.18-.02-.26-.02-.28,0-.57.02-.82.15-.08.03-.2,0-.25.11v-.43s.11,0,.16-.01c.22-.08.43-.16.67-.19.16-.04.3,0,.46,0,.04-.02.1-.02.14-.01.17,0,.42-.05.53.12.02.06-.01.1-.03.15-.06.04-.15.06-.18.14M200.5,58.45l-.03-.03c-.17-.07-.37-.06-.55-.1-.15.01-.25-.11-.38-.09-.19-.07-.39-.13-.58-.2-.03.01-.04.03-.05.05l-.02-.38s.11,0,.17.02c.07,0,.12.05.18.08.21.02.38.1.58.13.15.06.31.04.47.08.08-.05.15.07.21,0v.44ZM200.92,58.16c.08,0,.15.02.2.07.02,0,.04,0,.06-.03.11.02.19-.07.29-.09.05-.04.12-.04.18-.08.07.03.15-.04.22,0,.06,0,.15,0,.2-.05l-.03.45-.21-.03c-.07.03-.16.07-.23.02-.06.02-.1.08-.16.1-.15.05-.35.02-.51.03l-.02-.39Z"/>
        <path class="cls-18" d="M204.27,58.19c.01.14.11.33-.02.45v.08c0,.18.18.33.1.52l.08.23c-.06.19.05.33.03.52.04.11-.03.26.02.37.09.09.07.19.08.3.03.11.06.24,0,.35-.02.23.28.41.09.63,0,.06.03.11.05.17-.06.28.03.49-.02.77.02.1.08.22,0,.31-.04.07,0,.15.02.22,0,.12.02.25-.01.37l.06.48c-.07.29-.11.59-.25.84-.06.13,0,.37-.2.39-.26.07-.46-.15-.7-.22-.05-.04-.12-.07-.19-.05-.06.08-.14-.02-.22,0-.1-.02-.19.05-.28,0-.13-.06-.27-.01-.41-.07-.12,0-.23.01-.33-.06-.1-.04-.22-.02-.3-.11-.17.02-.32-.05-.46-.11-.03-.01-.05.02-.08.02-.13,0-.24-.06-.36-.08-.02-.04-.07-.05-.11-.06-.17-.14-.39-.19-.58-.28-.06-.05-.13-.11-.22-.13-.02-.09-.09-.17-.18-.19-.12-.06-.18-.18-.32-.21-.09-.05-.21-.08-.26-.18-.05-.11-.18-.11-.27-.19-.06-.11-.21-.07-.28-.19-.12-.08-.31-.14-.33-.31-.03-.1-.03-.21-.09-.3,0-.13,0-.23-.07-.34,0-.24,0-.5.02-.74.12-.13.06-.35.1-.51.03-.25.07-.49.06-.75.04-.1-.04-.23.03-.34-.01-.43.02-.86.1-1.27.07-.17.05-.37.11-.55,0-.08-.04-.13-.05-.2v-.26c-.09-.1-.12-.23-.1-.36.08-.01.17-.01.24.03.1.16.05.36.12.53l.02.37c-.03.06,0,.15,0,.21-.06.31-.07.62-.14.94.03.13.07.29,0,.42.02.12.01.26.02.37-.03.17.01.31-.03.48-.06.16-.03.35-.05.53-.08.16-.02.34-.04.52-.07.06-.04.17-.07.26.02.22.02.44.08.64.03.19.24.23.36.34.12.18.34.19.48.34.14.13.36.11.48.29.16.1.31.22.47.33.31.14.61.31.95.38.09.05.18.07.28.1.11,0,.24-.05.34.04.13-.03.23.06.37.04.13.04.28.05.41.08.16.09.33-.02.5,0,.07,0,.16,0,.2.06.03-.02.07,0,.11,0,.05.02.12.05.14.11.11.06.21.15.35.14.08-.05.05-.17.09-.24.16-.21.11-.48.13-.73,0-.09-.04-.19,0-.28.01-.23-.07-.46.02-.67,0-.09-.04-.17-.04-.26.04-.13,0-.26.03-.4-.03-.2-.07-.41-.05-.63-.07-.14-.1-.28-.08-.44-.02-.05.02-.12,0-.18-.08-.14-.11-.3-.14-.46,0-.21-.07-.38-.07-.58-.02-.11.07-.23-.03-.3l-.02-.21c-.02-.08,0-.19.01-.27-.07-.08-.11-.18-.11-.29.04-.14-.03-.27,0-.42,0-.07.09-.13.02-.19h.43Z"/>
        <path class="cls-11" d="M202,61.44s-.1,0-.14,0c-.25.06-.52-.03-.78.02-.02.01-.06,0-.09.01l-.5.02c-.24,0-.44-.09-.64-.16-.11-.02-.2-.08-.32-.09-.11-.07-.23-.12-.36-.16-.11-.04-.06-.16-.11-.23,0-.09.1-.14.07-.23.03-.04.08-.03.12-.03.18,0,.27.16.43.21.13.16.34.13.49.23l.28.02h.58s.02.01.03.01c.08-.03.18,0,.26-.03.23.03.46.03.68-.01l.55-.05c.08-.02.17,0,.24-.04.12-.11.3-.05.44-.12.18.02.35-.02.53.03.08.03.17-.01.24.03.04.03.07.07.09.11.02.04.01.09-.02.11-.08.08-.19.05-.28.11-.3.09-.59.14-.92.13-.13-.07-.36.04-.36.04l-.5.07Z"/>
        <g>
          <path class="cls-6" d="M200.99,61.47s-.06.02-.06.06c.04.08.01.16.03.25-.05.19,0,.37-.02.56-.06.25-.05.51-.06.76l-.07.08c.01.09-.03.19-.06.28-.01,0-.02,0-.03-.01-.02-.1-.12.01-.16-.07-.08-.14-.09-.31-.1-.47,0-.09.04-.17.04-.26.06-.09.05-.23,0-.33.01-.14.07-.27.04-.41-.06-.13,0-.3-.05-.43l.5-.02Z"/>
          <path class="cls-19" d="M200.5,58c0-.2,0-.39-.01-.58,0-.38,0-.78-.04-1.16-.1-.09-.15-.21-.16-.35,0-.1-.05-.21,0-.31-.07-.19,0-.41,0-.62.07-.07,0-.15.01-.23.03-.07.03-.17.12-.2.1-.01.21.04.25.15.05.18.1.38.1.57.05.14.06.29.08.44-.02.11.04.2,0,.3.04.13.1.27.06.41,0,.12.04.24,0,.35-.06.07.01.14,0,.23.02.13-.08.22,0,.34.02.17.05.35,0,.53,0,.09-.02.2.03.27l.02.39c-.01.3-.06.6-.04.91.02.24.02.45.03.68.04.3,0,.54.02.85,0,.05.04.06.08.07h-.58c.05-.05.02-.15.01-.2v-.45c.08-.13,0-.31.05-.44-.03-.16.04-.31,0-.47,0-.14.04-.33-.03-.46.02-.2,0-.38.02-.59v-.44Z"/>
        </g>
        <g>
          <path class="cls-15" d="M202.5,61.37c-.04.19-.07.41-.06.6.03.13-.01.27-.02.4.06.33-.06.68-.09,1.01-.06.12.04.25-.03.35-.06.06-.01.12,0,.19-.06.06-.16.05-.24.02-.12-.07-.1-.22-.11-.35-.11-.09.03-.19-.02-.3.05-.13.09-.28.04-.43.07-.17,0-.35.03-.52.02-.3,0-.61,0-.91l.5-.07Z"/>
          <path class="cls-12" d="M202.08,57.99l.02-.88c-.04-.11,0-.22-.02-.35.03-.37-.03-.73-.04-1.08,0-.14,0-.31.08-.43-.02-.12.11-.18.12-.29,0,0,.08-.03.11-.05.09.04.11.14.17.2.02.06.03.13.08.18-.02.18.06.36,0,.53.06.2-.06.38-.03.59.02.18-.13.32-.07.49-.05.4.01.71.03,1.1v.43c-.05.19-.06.4-.07.59.05.08-.02.15-.02.24.04.18-.03.39.03.55,0,.18.04.34.05.52,0,.22-.05.46.03.66l-.55.05v-.15c0-.19.03-.38,0-.57.09-.34-.04-.7.03-1.04-.06-.12.01-.28-.02-.41.04-.13.05-.29.05-.43l.03-.45Z"/>
        </g>
      </g>
    </g>
  </g>
</svg>