<?xml version="1.0" encoding="UTF-8"?>
<svg id="_レイヤー_2" data-name="レイヤー 2" xmlns="http://www.w3.org/2000/svg" viewBox="0 0 603 87.88">
  <defs>
    <style>
      .cls-1 {
        fill: none;
      }
    </style>
  </defs>
  <g id="design">
    <path class="cls-1" d="M603,87.88H0V0h603v87.88ZM.25,87.62h602.5V.25H.25v87.37Z"/>
    <polygon points="579.98 46.07 530.1 46.07 530.1 45.17 577.81 45.17 570.79 38.14 571.42 37.51 579.98 46.07"/>
    <g>
      <g>
        <path d="M205.62,61.49h-13.4c-5.21,0-9.43-4.23-9.43-9.44v-13.4c0-5.21,4.23-9.43,9.43-9.43h13.4c5.21,0,9.43,4.23,9.43,9.44v13.39c0,5.21-4.23,9.44-9.44,9.44ZM192.22,32.23c-3.55,0-6.43,2.88-6.43,6.43v13.38c0,3.55,2.88,6.43,6.43,6.43h13.4c3.55,0,6.43-2.88,6.43-6.43v-13.4c-.01-3.55-2.89-6.42-6.44-6.42h-13.4Z"/>
        <circle cx="207.54" cy="36.74" r="2.01"/>
        <path d="M198.91,53.69c-4.61.03-8.37-3.69-8.39-8.3-.03-4.61,3.69-8.37,8.3-8.39,4.61-.03,8.37,3.69,8.39,8.3,0,.02,0,.03,0,.05,0,4.59-3.71,8.32-8.3,8.35ZM198.91,40.01c-2.95,0-5.34,2.39-5.34,5.34,0,2.95,2.39,5.34,5.34,5.34,2.95,0,5.34-2.39,5.34-5.34h0c0-2.95-2.39-5.34-5.34-5.34Z"/>
      </g>
      <g>
        <path d="M245.73,45.3v13.57h-2.05v-13.57h2.05Z"/>
        <path d="M252.59,58.87v-14.49l9.9,10.35v-9.43h2.05v14.4l-9.9-10.33v9.5h-2.05Z"/>
        <path d="M279.06,47.32l-1.66.98c-.31-.54-.61-.89-.89-1.05-.29-.19-.67-.28-1.13-.28-.57,0-1.04.16-1.42.48-.38.32-.56.71-.56,1.2,0,.66.49,1.2,1.48,1.6l1.35.55c1.1.45,1.91.99,2.42,1.63s.76,1.43.76,2.36c0,1.25-.42,2.28-1.25,3.09-.84.82-1.88,1.23-3.12,1.23-1.18,0-2.15-.35-2.92-1.05-.76-.7-1.23-1.68-1.42-2.94l2.07-.46c.09.8.26,1.35.49,1.65.42.59,1.04.88,1.85.88.64,0,1.17-.21,1.59-.64s.63-.97.63-1.63c0-.26-.04-.51-.11-.73-.07-.22-.19-.42-.34-.61-.16-.18-.36-.36-.6-.52s-.54-.31-.88-.46l-1.31-.54c-1.86-.79-2.79-1.93-2.79-3.45,0-1.02.39-1.87,1.17-2.56.78-.69,1.75-1.04,2.91-1.04,1.56,0,2.79.76,3.67,2.29Z"/>
        <path d="M289.48,47.23v11.65h-2.05v-11.65h-3.12v-1.92h8.28v1.92h-3.11Z"/>
        <path d="M305.25,55.58h-5.81l-1.51,3.3h-2.21l6.71-14.42,6.48,14.42h-2.24l-1.42-3.3ZM304.42,53.65l-2.01-4.61-2.11,4.61h4.12Z"/>
        <path d="M320.58,51.81h5.61v.45c0,1.02-.12,1.92-.36,2.71-.23.73-.63,1.41-1.19,2.04-1.26,1.42-2.86,2.13-4.81,2.13s-3.52-.69-4.88-2.06c-1.35-1.38-2.03-3.03-2.03-4.96s.69-3.64,2.07-5.01c1.38-1.38,3.05-2.07,5.03-2.07,1.06,0,2.05.22,2.97.65.88.43,1.74,1.14,2.59,2.11l-1.46,1.4c-1.11-1.48-2.47-2.22-4.07-2.22-1.44,0-2.64.5-3.61,1.49-.97.97-1.46,2.19-1.46,3.66s.54,2.76,1.63,3.74c1.01.91,2.11,1.36,3.3,1.36,1.01,0,1.91-.34,2.72-1.02.8-.69,1.25-1.51,1.34-2.46h-3.38v-1.92Z"/>
        <path d="M336.95,53.09l4.2,5.78h-2.5l-3.88-5.55h-.37v5.55h-2.05v-13.57h2.4c1.79,0,3.09.34,3.88,1.01.88.75,1.32,1.74,1.32,2.97,0,.96-.28,1.79-.83,2.48s-1.28,1.13-2.18,1.33ZM334.41,51.53h.65c1.94,0,2.91-.74,2.91-2.22,0-1.39-.94-2.08-2.83-2.08h-.73v4.31Z"/>
        <path d="M354.77,55.58h-5.81l-1.51,3.3h-2.21l6.71-14.42,6.48,14.42h-2.24l-1.42-3.3ZM353.93,53.65l-2.01-4.61-2.11,4.61h4.12Z"/>
        <path d="M363.25,58.87l2.86-14.59,4.66,10.55,4.83-10.55,2.57,14.59h-2.1l-1.31-8.19-4.02,8.82-3.9-8.82-1.46,8.2h-2.12Z"/>
      </g>
      <g>
        <path d="M288.33,23.72c.43-.67.77-1.31,1.13-2.03.27-.56.38-.86.45-1.17.4.14.88.36,1.22.54.16.09.22.18.22.25,0,.09-.07.16-.16.22-.14.09-.22.18-.32.4-.61,1.04-1.1,1.84-1.69,2.66.36.4.74.83,1.1,1.24.49-.76.95-1.51,1.4-2.3.23-.43.41-.85.54-1.22.45.2.86.41,1.19.61.14.07.2.14.2.25,0,.09-.05.16-.18.23-.18.11-.32.34-.61.79-.95,1.51-1.96,2.95-2.9,4.16.86-.05,1.76-.13,2.63-.2-.2-.43-.41-.85-.63-1.22-.07-.14-.05-.18.16-.27l.52-.22c.2-.09.23-.07.31.05.59,1.04,1.08,2.12,1.46,3.13.07.16.02.22-.2.31l-.59.23c-.22.07-.25.05-.29-.07-.09-.31-.2-.61-.31-.92-.52.07-1.08.13-1.64.18v4.92c0,1.82.04,2.41.04,2.5,0,.14-.02.16-.18.16h-1.08c-.14,0-.16-.02-.16-.16,0-.11.04-.68.04-2.5v-4.79l-1.91.14c-.38.02-.58.09-.67.14-.07.04-.16.09-.25.09s-.14-.11-.18-.27c-.07-.32-.13-.76-.2-1.21.43.04.88.05,1.26.04h.41c.38-.49.74-.97,1.08-1.48-.81-1.01-1.71-2-2.67-2.86-.07-.07-.11-.11-.11-.16s.05-.11.13-.2l.43-.63c.07-.09.11-.13.16-.13s.09.04.16.09l.68.67ZM287.79,31.83c.05-.4.09-.67.09-1.04.43.07.86.14,1.13.22.18.04.25.11.25.2,0,.07-.04.14-.09.23-.05.09-.11.29-.16.58-.2,1.13-.5,2.3-.95,3.37-.09.22-.13.31-.22.31-.07,0-.16-.07-.32-.18-.2-.14-.52-.29-.74-.36.54-1.21.85-2.27,1.01-3.31ZM292.8,30.67c.2-.05.23-.04.29.13.34.88.61,1.85.81,2.86.02.18-.02.23-.23.29l-.63.14c-.23.05-.29.07-.31-.09-.14-1.15-.4-2.07-.74-2.92-.05-.16,0-.2.22-.25l.59-.16ZM295.55,36.4c-1.76,0-2.36.04-2.47.04-.16,0-.18-.02-.18-.18v-.99c0-.16.02-.18.18-.18.09,0,.54.04,1.71.04v-10.17c0-2.12-.04-3.11-.04-3.22,0-.14.02-.16.16-.16.11,0,.61.04,2.05.04h2.65c1.46,0,1.94-.04,2.05-.04.14,0,.16.02.16.16,0,.11-.04,1.12-.04,3.22v10.17c1.1,0,1.51-.04,1.58-.04.16,0,.18.02.18.18v.99c0,.16-.02.18-.18.18-.09,0-.68-.04-2.45-.04h-5.38ZM296.18,22.91v3.04h4.23v-3.04h-4.23ZM300.41,30.39v-3.13h-4.23v3.13h4.23ZM300.41,35.12v-3.42h-4.23v3.42h4.23Z"/>
        <path d="M312.65,36.9c-.14,0-.16-.02-.16-.16,0-.11.04-.88.04-4.36v-4.23c0-2.68-.04-3.51-.04-3.6,0-.14.02-.16.16-.16.13,0,.72.04,2.48.04h1.6v-1.17c0-1.15-.02-1.71-.13-2.48.54.02.99.05,1.46.11.14.02.23.09.23.2s-.04.2-.09.36c-.07.23-.11.63-.11,1.8v1.19h2.74v-1.19c0-1.15-.02-1.73-.13-2.48.56.02,1.01.05,1.46.11.16.02.25.07.25.18,0,.13-.04.22-.09.38-.07.23-.13.61-.13,1.78v1.22h1.78c1.76,0,2.38-.04,2.48-.04.16,0,.18.02.18.16,0,.09-.04.9-.04,3.2v4.56c0,3.46.04,4.23.04,4.32,0,.14-.02.16-.18.16h-1.1c-.14,0-.16-.02-.16-.16v-.79h-11.31v.9c0,.14-.02.16-.18.16h-1.08ZM313.91,29.25h2.83v-3.53h-2.83v3.53ZM316.74,34.53v-4h-2.83v4h2.83ZM320.84,29.25v-3.53h-2.74v3.53h2.74ZM320.84,34.53v-4h-2.74v4h2.74ZM322.21,25.72v3.53h3.01v-3.53h-3.01ZM325.22,34.53v-4h-3.01v4h3.01Z"/>
      </g>
    </g>
  </g>
</svg>