<?xml version="1.0" encoding="UTF-8"?>
<svg id="_レイヤー_2" data-name="レイヤー 2" xmlns="http://www.w3.org/2000/svg" viewBox="0 0 11.75 38.4">
  <g id="design">
    <g>
      <path d="M.61,3.1c.1-1.05.93-2.4,2.06-3.1l.6.54c-1.32.93-1.74,1.5-1.9,2.52-.1.66.06,1.2.39,1.6.34.4.75.63,1.2.67.46.04.87-.06,1.21-.35.36-.28.78-.85,1.27-1.74.44-.79.83-1.4,1.14-1.79.33-.42.73-.73,1.21-.93.48-.21.98-.29,1.48-.23.79.09,1.43.44,1.89,1.04.46.6.65,1.32.56,2.14-.04.45-.17.89-.36,1.28-.19.4-.57.78-1.21,1.26l-.51-.63c.31-.2.43-.29.55-.39.46-.4.74-.92.79-1.5.06-.58-.06-.99-.3-1.26-.29-.29-.58-.45-.93-.48-.42-.04-.8.07-1.12.36-.35.3-.78.87-1.29,1.75-.5.85-.89,1.47-1.17,1.85-.3.4-.69.7-1.17.91-.5.21-1.04.29-1.62.23-.92-.1-1.65-.5-2.17-1.19s-.72-1.56-.6-2.58Z"/>
      <path d="M1.19,10.77c.57-.57,1.31-.84,2.21-.84s1.65.27,2.2.84c.57.56.84,1.25.84,2.07,0,.69-.17,1.26-.65,1.85l-.45-.45c.27-.38.38-.69.38-1.11,0-.6-.21-1-.63-1.29-.41-.27-.96-.44-1.69-.44s-1.27.17-1.68.44c-.42.29-.63.69-.63,1.29,0,.42.1.73.38,1.11l-.45.45c-.48-.58-.64-1.16-.64-1.85,0-.82.27-1.51.82-2.07Z"/>
      <path d="M5.6,20.79c.38-.58.3-.9-.1-1.33-.23-.25-.48-.39-.72-.46-.25-.06-1.12.21-1.12.21H1v-1h6-1.13c.69,1.17.94,2.08.47,2.95l-.74-.36Z"/>
      <path d="M.37,26.16c0-.79.28-1.48.84-2.04s1.33-.85,2.26-.85c.87,0,1.6.29,2.19.84.6.56.9,1.25.9,2.06s-.3,1.5-.9,2.07c-.6.56-1.33.83-2.19.83-.94,0-1.71-.29-2.28-.85s-.82-1.25-.82-2.04ZM5.89,26.16c0-.5-.18-.84-.52-1.1-.36-.25-1-.46-1.92-.46s-1.56.21-1.9.48c-.33.25-.5.6-.5,1.08s.17.84.5,1.09c.34.25.96.47,1.9.47s1.54-.21,1.92-.47c.34-.25.52-.6.52-1.09Z"/>
      <path d="M10,33.28v.35-.43H0v-1h10v1.09Z"/>
      <path d="M10,38.05v.35-.2H0v-1h10v.86Z"/>
    </g>
  </g>
</svg>