<?xml version="1.0" encoding="UTF-8"?><svg id="_イヤー_2" xmlns="http://www.w3.org/2000/svg" viewBox="0 0 203.99999 51.40947"><defs><style>.cls-1{fill:#231815;}</style></defs><g id="design"><g><g><path class="cls-1" d="M52.082,50.46997c-1.0459,.626-2.2705,.9395-3.664,.9395-1.7745,0-3.1748-.5498-4.2022-1.6504-1.0273-1.1006-1.54-2.6055-1.54-4.5147,0-1.9384,.4941-3.4404,1.4814-4.5058,.9863-1.0684,2.3779-1.5996,4.1729-1.5996,.47459,0,1.01361,.0488,1.6181,.1484,.60649,.0938,1.2784,.2402,2.0215,.4365v2.1397h-.8799l-.1377-1.2002c-.4287-.2529-.8476-.4414-1.2597-.5654-.4141-.1241-.8242-.1856-1.2266-.1856-1.2236,0-2.2012,.4922-2.9355,1.4766-.7344,.9863-1.10061,2.2959-1.10061,3.9316,0,1.5332,.40621,2.793,1.22361,3.7793,.8164,.9873,1.85841,1.4815,3.127,1.4815,1.1943,0,2.2959-.3428,3.3017-1.0274v.916Z"/><path class="cls-1" d="M63.2324,45.96117v4.3829h1.167v.7753h-3.9941v-.7753h1.1689v-10.1387h-1.1689v-.7735h4.1435c1.3184,0,2.3037,.2413,2.959,.7315,.6563,.4873,.9815,1.2217,.9815,2.2002,0,.7988-.2012,1.4668-.6075,2.0117-.4033,.543-1.0127,.9609-1.8242,1.25l3.12009,4.7188h.87011v.7753h-2.4228l-3.2002-5.1582h-1.1924Zm0-.7734h.4981c1.0058,0,1.7558-.2324,2.2578-.6934,.498-.4638,.749-1.1543,.749-2.0712,0-.8506-.22559-1.4327-.6797-1.7461-.4521-.3155-1.29589-.4717-2.5322-.4717h-.293v4.9824Z"/><path class="cls-1" d="M83.38671,51.40947c-1.67581,0-2.99611-.5459-3.96191-1.6416-.9668-1.0947-1.4473-2.5928-1.4473-4.4932,0-1.8974,.4805-3.3974,1.4434-4.4931,.96481-1.0958,2.2851-1.6426,3.96581-1.6426,1.67379,0,2.99219,.5468,3.95509,1.6426,.96289,1.0957,1.4463,2.5957,1.4463,4.4931,0,1.9004-.48341,3.3985-1.4463,4.4932-.9629,1.0957-2.2813,1.6416-3.95509,1.6416Zm0-.7725c1.10939,0,1.99609-.4863,2.65529-1.4609,.6611-.9707,.9902-2.2695,.9902-3.8975,0-1.6289-.3291-2.9287-.9902-3.9053-.6592-.9736-1.5459-1.4609-2.65529-1.4609-1.11131,0-1.999,.4873-2.66211,1.458-.6631,.9717-.9961,2.2764-.9961,3.9082,0,1.628,.333,2.9268,.9961,3.8975,.66311,.9746,1.5508,1.4609,2.66211,1.4609Z"/><path class="cls-1" d="M97.2441,50.88017v-2.2422h.8789l.0928,1.1689c.4385,.2745,.8408,.4825,1.207,.6202,.3663,.1386,.6993,.2099,.9922,.2099,.6592,0,1.2032-.2031,1.6338-.6054,.4317-.4024,.6446-.9141,.6446-1.5362,0-.5205-.1329-.9638-.4034-1.3262-.2724-.3652-.7539-.7382-1.4424-1.1279l-.8242-.4756c-.9775-.5517-1.6699-1.0781-2.0761-1.582-.4043-.5039-.6065-1.0791-.6065-1.7236,0-.8965,.3203-1.6407,.96189-2.2344,.64261-.5889,1.44631-.8867,2.41602-.8867,.53129,0,1.05469,.039,1.56449,.1181,.5107,.0791,1.0107,.2022,1.501,.3623v2.0538h-.8789l-.0938-1.1221c-.3418-.2139-.6806-.377-1.0176-.4815-.333-.1045-.665-.1572-.9834-.1572-.4941,0-.92279,.1934-1.2744,.5811-.3545,.3867-.5302,.8545-.5302,1.4004,0,.8115,.5273,1.5166,1.5869,2.1162l.8291,.4756c1.1465,.6523,1.9199,1.2197,2.3222,1.7041,.3994,.4853,.6006,1.0918,.6006,1.8251,0,.9737-.3603,1.7823-1.0879,2.4288-.7246,.6435-1.6299,.9658-2.7148,.9658-.6319,0-1.2236-.0459-1.7744-.1348-.5518-.0898-1.0586-.2197-1.5235-.3945Z"/><path class="cls-1" d="M112.6758,50.88017v-2.2422h.87689l.09381,1.1689c.4394,.2745,.8379,.4825,1.208,.6202,.36619,.1386,.69819,.2099,.9931,.2099,.6583,0,1.2012-.2031,1.6329-.6054,.4306-.4024,.6445-.9141,.6445-1.5362,0-.5205-.1357-.9638-.4024-1.3262-.2753-.3652-.7548-.7382-1.4472-1.1279l-.8203-.4756c-.9795-.5517-1.67-1.0781-2.0762-1.582-.4023-.5039-.6074-1.0791-.6074-1.7236,0-.8965,.32221-1.6407,.9629-2.2344,.6406-.5889,1.44631-.8867,2.415-.8867,.5322,0,1.0566,.039,1.5654,.1181s1.0108,.2022,1.501,.3623v2.0538h-.8779l-.0938-1.1221c-.3427-.2139-.6836-.377-1.0166-.4815-.3369-.1045-.667-.1572-.9853-.1572-.4961,0-.9229,.1934-1.27349,.5811-.35541,.3867-.53121,.8545-.53121,1.4004,0,.8115,.5293,1.5166,1.5889,2.1162l.8281,.4756c1.1455,.6523,1.9189,1.2197,2.3213,1.7041,.3994,.4853,.6006,1.0918,.6006,1.8251,0,.9737-.3623,1.7823-1.087,2.4288-.7255,.6435-1.6298,.9658-2.71771,.9658-.63189,0-1.22369-.0459-1.77249-.1348-.5527-.0898-1.0586-.2197-1.5234-.3945Z"/><path class="cls-1" d="M135.9189,51.11937h-8.042v-.7753h1.1719v-10.1387h-1.1719v-.7735h7.7012v1.9414h-.8789v-1.1679h-3.9912v4.4853h2.8154v-.9795h.7842v2.7315h-.7842v-.9795h-2.8154v4.7871h4.332v-1.2646h.8789v2.1337Z"/><path class="cls-1" d="M147.5976,40.30687h-3.3662v1.3594h-.873v-2.2344h10.1377v2.2344h-.8779v-1.3594h-3.3623v10.0372h1.1699v.7753h-3.99711v-.7753h1.16891v-10.0372Z"/></g><g><path class="cls-1" d="M95.0049,.31867c.166,.4492,5.75881,15.833,6.3037,17.3046,.0918,.254,.3115,.2881,.4336-.0253,.8086-2.0469,3.8437-10.3321,4.7617-12.8604,.2451-.6787,.9785-2.8525-.4141-3.4853-.1709-.0772-.1709-.2881,.0674-.2881h6.0391c.2471,0,.2363,.2216,.0215,.3486-1.1114,.6602-1.585,1.8555-2.4092,4.1348-.9668,2.6718-4.292,12.1015-8.0274,21.8925-.1279,.3282-.5312,.2959-.6591-.0107-.8457-2.0791-5.1621-14.1699-6.4248-17.3828-.0899-.2412-.2774-.2324-.3702,0-1.2763,3.1982-5.6377,15.4121-6.4248,17.3828-.1211,.3105-.5058,.3389-.6357,.0107-1.3311-3.4326-7.7656-20.5361-8.54491-22.621-.58298-1.5508-1.251-2.837-2.28229-3.3663-.2168-.1123-.17869-.3886,.0645-.3886h6.6992c.2051,0,.2051,.2295,.0479,.2881-1.23729,.4501-1.0889,1.9218-.49029,3.5771,.91509,2.5273,3.96979,10.7373,4.72759,12.749,.1211,.3282,.3183,.2989,.4248,.043,.4375-1.0059,6.2344-16.8447,6.4053-17.3027,.1601-.4219,.5302-.4219,.6865,0Z"/><path class="cls-1" d="M116.71871,16.70147c-.19231,0-.34761-.0742-.21581-.3955,1.3145-3.2159,3.1895-7.6719,3.6905-8.7979,.0917-.206,.1914-.2168,.2822,0,.6797,1.5781,2.165,5.5703,3.4502,8.7979,.12789,.3232-.04009,.3955-.2324,.3955h-6.97469Zm8.17,2.9795c.19039,0,.29679,.0732,.39159,.3037,.48341,1.1719,1.1298,2.8828,1.5019,3.8594,.4131,1.0849,.2959,2.1425-.7256,2.414-.205,.0557-.164,.3652,.0733,.3652h6.9541c.2383,0,.3076-.2792,.1064-.375-.8896-.414-1.5381-1.205-2.0508-2.3544-.7031-1.5899-10.3525-23.4043-10.4824-23.6866-.126-.2793-.6357-.2734-.7558,0-.1172,.2686-10.2491,23.1075-10.5069,23.6758-.54881,1.2149-1.084,2.0508-1.915,2.3799-.209,.084-.1904,.3603,.0508,.3603h6.3427c.2383,0,.293-.2763,.05469-.3603-1.03419-.3604-.96479-1.3809-.38379-2.6992,.4063-.919,.92679-2.2256,1.5342-3.5947,.1094-.2491,.2237-.2881,.418-.2881h9.39261Z"/><path class="cls-1" d="M40.0908,.79327c-1.374-.4356-2.8642-.5967-4.4336-.5967-1.5967,0-3.4072,.2383-4.9013,.7558-4.9297,1.7159-8.3077,6.1924-8.3077,12.5391,0,5.9404,3.1036,10.4678,7.4034,12.3486,1.75,.7696,3.7382,1.168,5.8056,1.168,2.1514,0,4.1846-.3398,5.9824-1.1348,4.1377-1.8242,7.2393-6.1064,7.2393-12.2734,0-6.5117-3.6289-11.1719-8.7881-12.8066Zm-4.4336,23.0761c-5.5664,0-9.2158-3.9296-9.2158-10.2832,0-6.1035,3.6221-10.291,9.2158-10.291,1.3457,0,2.5547,.1944,3.6572,.6602,3.4161,1.4414,5.57331,5.0625,5.57331,9.6308,0,6.1641-3.66211,10.2832-9.23051,10.2832Z"/><path class="cls-1" d="M70.4141,18.25027c0,.3242-.1377,.3428-.3321,.166-.2597-.2305-16.7314-18.2197-16.7314-18.2197-.293-.3184-.586-.1963-.586,.0439V21.41827c0,.9687,.0059,2.9472-.5312,3.957-.2598,.4863-.6338,.7754-1.1699,.9463-.1485,.0498-.1221,.2998,.0273,.2998h7.0752c.1904,0,.2422-.2461,.01471-.2998-.46881-.1123-1.00302-.3994-1.36631-.9668-.6718-1.0518-.59271-2.8926-.59271-3.9365V9.26587c0-.2304,.09471-.4277,.39351-.1269,.5918,.5957,16.628,18.2842,16.628,18.2842,.2998,.3251,.6298,.0791,.6298-.2393V6.16237c0-.9678-.0078-2.8877,.5274-3.9004,.27829-.5215,.6767-.8027,1.19331-.9736,.15429-.0508,.12698-.3281-.02531-.3281h-7.0508c-.1983,0-.252,.2802-.002,.3427,.4688,.1162,.9649,.3438,1.3252,1.0157,.5713,1.0595,.5733,3.0976,.5733,3.9804v11.9512Z"/><path class="cls-1" d="M140.4853,4.06477c1.3389-.3575,4.2998-.42,6.042,.373,1.61141,.7285,2.4209,2.2285,2.4209,4.0313,0,1.7265-1.0166,3.2138-2.51951,3.8769-1.27829,.5615-2.99319,.6924-4.39449,.4512-.2764-.0449-.4424,.2295-.2852,.4756,.0801,.1298,6.92869,10.833,7.5283,11.7011,.918,1.3272,1.5225,1.7989,2.9746,1.9034,.9571,.0673,3.42-.1592,3.5332-.1866,.1885-.0449,.1797-.3271,.0479-.372-.7578-.2676-1.1465-.5733-2.0146-1.752-.7725-1.0644-6.002-8.8652-6.293-9.332-.0742-.125-.0235-.2637,.0791-.2969,.5019-.1582,1.1494-.3711,1.6406-.6279,2.5635-1.3184,3.7354-3.5996,3.7354-6.2119,0-.4688,.0127-2.8301-1.7032-4.6739-1.7177-1.8486-4.3213-2.4638-7.4961-2.4638h-9.1328c-.1836,0-.207,.3095-.05271,.3545,.58111,.1816,.91602,.5263,1.18751,1.0039,.5488,.9921,.5459,3.1923,.56051,4.1591v14.625c-.01461,.9688,.00389,3.1719-.54391,4.1788-.2656,.4892-.6865,.8261-1.1953,.9814-.1797,.0596-.1231,.3584,.042,.3584h7.3496c.1592,0,.2402-.3106-.0098-.3809-.4248-.1181-.8418-.4668-1.1162-.9199-.6523-1.0976-.6045-3.5508-.6045-4.5937V4.40357c0-.1269,0-.2812,.2197-.3388Z"/><path class="cls-1" d="M174.6445,2.86747c-2.0537-1.2061-4.4912-1.8242-8.0263-1.8848-1.47949-.0263-8.3174-.0332-8.7998,.0049-.2129,.0195-.2129,.3154-.05669,.3594,.50289,.1494,.957,.5215,1.21489,1.0068,.53711,1.0117,.5244,3.1611,.53511,4.1289v14.6114c-.01071,.9814,.00879,3.0781-.53511,4.082-.2686,.4902-.58989,.8203-1.2168,1.041-.1836,.0605-.1397,.3711,.04289,.3818,.77351,.0469,7.43661,.0645,9.35351,.0635,5.1016-.0137,9.3047-1.9717,11.52249-5.7168,1.22561-2.0664,1.71002-4.4082,1.71002-7.0478,0-5.169-2.28321-8.9971-5.74421-11.0303Zm-7.5429,20.8086c-1.7247,.0097-2.83889-.3389-3.2413-.8291-.3408-.4102-.4121-.9932-.4121-2.0176V4.61157c0-.125,.002-.2959,.2051-.3515,.3018-.084,1.69041-.3223,3.3799-.2871,2.6387,.0537,5.29,.9785,7.041,3.0361,1.3799,1.626,2.2481,3.8789,2.2481,7.0508,0,6.2197-3.5801,9.5908-9.2207,9.6162Z"/><rect class="cls-1" y="11.50807" width="35.6338" height="3.5186"/><rect class="cls-1" x="169.4922" y="11.50807" width="34.5078" height="3.5186"/></g></g></g></svg>