<?xml version="1.0" encoding="UTF-8"?>
<svg id="_レイヤー_2" data-name="レイヤー 2" xmlns="http://www.w3.org/2000/svg" viewBox="0 0 181.55 48.31">
  <defs>
    <style>
      .cls-1 {
        fill: #7f0073;
      }

      .cls-2 {
        fill: #004473;
      }

      .cls-3 {
        fill: #2ca89c;
      }

      .cls-4 {
        fill: #00396d;
      }

      .cls-5 {
        fill: #006f75;
      }

      .cls-6 {
        fill: #d70065;
      }

      .cls-7 {
        fill: #030000;
      }

      .cls-8 {
        fill: #0068a9;
      }

      .cls-9 {
        fill: #231815;
      }

      .cls-10 {
        fill: #018064;
      }

      .cls-11 {
        fill: #840880;
      }

      .cls-12 {
        fill: none;
        stroke: #000;
        stroke-miterlimit: 10;
        stroke-width: .69px;
      }

      .cls-13 {
        fill: #017fc8;
      }

      .cls-14 {
        fill: #003680;
      }

      .cls-15 {
        fill: #6a1680;
      }

      .cls-16 {
        fill: #0081b0;
      }

      .cls-17 {
        fill: #00408a;
      }

      .cls-18 {
        fill: #0189d2;
      }

      .cls-19 {
        fill: #00307c;
      }

      .cls-20 {
        fill: #007074;
      }
    </style>
  </defs>
  <g id="design">
    <g>
      <g>
        <path class="cls-7" d="M100.86,2.18c-2.17,0-3.92,1.75-3.92,3.92s1.75,3.91,3.92,3.91,3.92-1.75,3.92-3.91-1.75-3.92-3.92-3.92"/>
        <path class="cls-7" d="M103.77,28.11c-.64,2.87-4.55,11.07-9.34,10.03-5.42-1.18-5.38-6.17-3.4-10.48,2.09-4.56,4.32-9.72,5.35-12.17.36-.86.46-2.31-1.26-2.24-3.75.15-6.95,7.86-6.95,7.86h-.81c1.45-3.82,4.23-8.65,8.28-8.58,3.88.06,6.59,4.26,4.72,8.47l-5.34,11.95c-1.95,3.89.26,6.2,3.75,2.65,1.96-1.94,3.86-6.4,4.08-7.49h.91Z"/>
        <path class="cls-7" d="M24.65,2.37c-4.44-.4-14.24,1.89-20.92,12.75-9.29,15.12.62,27.65,9.58,28.2,8.71.54,17.54-6.68,21.12-15.05,5.96-13.96-.95-25.1-9.79-25.91M27.34,24.03c-5.06,17.95-10.32,18.62-13.42,18.42-7.55-.49-8.37-6.36-4.05-21.66C14.46,4.53,20.5,2.14,25.33,3.39c3.64.94,6.76,3.86,2.02,20.64"/>
        <path class="cls-7" d="M81.72,12.11l-1.21,4c-.06-1.32-.76-4.08-4.09-4.41-4.15-.41-11.49,4.74-14.07,12.8-2.48,7.74.59,13.42,6.17,13.61,2.99.1,5.62-2.18,7.09-4.71-2.39,10.63-3.95,13.61-8.03,14.02-2.57.25-2.98-1.12-2.6-1.37.59-.39,2.12-.76,2.12-2.53,0-1.52-1.31-2.73-3.08-2.73s-3.29,1.32-3.29,2.89c0,2.06,2.76,4.73,6.77,4.61,6.24-.17,10.55-2.95,12.42-9.03l7.64-27.16h-5.83ZM77.88,25.26c-3.36,11.06-7.85,12.04-9.87,11.33-2.01-.7-1.57-5.31.97-13.25,2.51-7.9,4.1-11.24,7.33-11.24,2.68,0,4.81,2.48,1.58,13.16"/>
        <path class="cls-7" d="M57.67,11.11l-1.21,4c-.05-1.32-.76-4.08-4.09-4.4-4.15-.41-11.49,4.74-14.07,12.8-2.48,7.75.59,13.42,6.18,13.61,2.98.1,5.61-2.17,7.08-4.71-2.38,10.62-3.95,13.62-8.03,14.02-2.57.26-2.98-1.11-2.6-1.37.59-.38,2.13-.76,2.13-2.53,0-1.52-1.31-2.73-3.09-2.73s-3.28,1.31-3.28,2.88c0,2.07,2.75,4.74,6.75,4.62,6.25-.18,10.55-2.96,12.43-9.03l7.63-27.17h-5.82ZM53.83,25.16c-3.35,11.05-7.85,12.04-9.87,11.33-2.01-.7-1.57-5.31.97-13.25,2.51-7.9,4.09-11.23,7.34-11.23,2.68,0,4.8,2.48,1.57,13.15"/>
      </g>
      <line class="cls-12" x1="138.87" y1="36.94" x2="131.58" y2="29.65"/>
      <line class="cls-12" x1="127.21" y1="25.28" x2="119.47" y2="17.54"/>
      <line class="cls-12" x1="119.47" y1="36.94" x2="138.87" y2="17.54"/>
      <g>
        <g>
          <path class="cls-9" d="M150.55,44.11h-1v1h1v-1h-1v2h1v-2Z"/>
          <path class="cls-9" d="M150.55,45.11v.09h.3s.07-.07.13-.07c.13,0,.16.09-.43.2v.77h0v-.76c.51-.08.51-.14.41-.14-.11,0-.41.18-.41.18v.72h1v-1h-1Z"/>
          <path class="cls-9" d="M151.4,45.11c0,.09.06.15.15.15.07,0,.11-.04.14-.1l.07.04c-.04.09-.12.13-.22.13-.14,0-.23-.1-.23-.24s.08-.25.23-.25.23.12.22.26h-.36ZM151.68,45.11c-.01-.07-.07-.12-.14-.12s-.13.06-.14.12h.28Z"/>
          <path class="cls-9" d="M152.68,45.21c.1,0,.16.08.16.17s-.05.18-.16.18-.15-.09-.15-.18.06-.17.15-.17ZM153.55,45.11h-1,.28c-.04.05-.09.02-.16.02-.14,0-.22.12-.22.25s.08.24.22.24c.06,0,.12-.03.16.48h-.28v-.51s.26.2.14.2c-.08,0-.15-.05-.15.31h-.08c0-.32.1-.24.23-.24.07,0,.14-.03.18-.08.05-.06.05-.13.68-.2v-.48Z"/>
          <path class="cls-9" d="M153.55,46.11h-1v-1h1v1Z"/>
          <path class="cls-9" d="M153.38,45.39c0-.14.11-.25.24-.25s.24.11.24.25-.11.24-.24.24-.24-.11-.24-.24ZM153.46,45.38c0,.1.07.17.16.17s.17-.07.17-.17-.07-.17-.17-.17-.16.08-.16.17Z"/>
          <path class="cls-9" d="M154.11,45.38c0,.09.05.18.15.18s.15-.08.15-.18-.06-.17-.16-.17c-.09,0-.15.08-.15.17ZM154.55,45.11h0v.11h0c-.4-.05-.34-.08-.27-.08.14,0,.22.11.22.25s-.09.25-.22.25c-.06,0-.12-.03.27-.08h0v.56h0v-1Z"/>
          <path class="cls-9" d="M154.72,45.38c0,.09.05.18.15.18s.16-.08.16-.18-.06-.17-.16-.17c-.09,0-.15.08-.15.17ZM155.55,45.11h-.53c-.04.49-.09.52-.16.52-.14,0-.22-.12-.22-.24s.08-.25.22-.25c.06,0,.12.03.16.98h.53v-1h0Z"/>
          <path class="cls-9" d="M155.55,46.11h-1v-1h1v1Z"/>
          <path class="cls-9" d="M156.35,45.26s-.03-.05-.06-.05c-.03,0-.06.02-.06.05,0,.04.05.06.11.08.05.02.11.06.11.13,0,.09-.07.15-.16.15-.08,0-.14-.04-.17-.12l.07-.03s.04.07.1.07c.04,0,.07-.03.07-.07,0-.11-.21-.07-.21-.22,0-.08.06-.13.14-.13.05,0,.1.04.12.09l-.07.03Z"/>
          <path class="cls-9" d="M156.55,45.11h1v-1h-1v1h1-1Z"/>
          <path class="cls-9" d="M157.11,45.21c.1,0,.16.08.16.17s-.05.18-.15.18-.15-.09-.15-.18.06-.17.15-.17ZM157.55,45.11h-1,.71c-.04.06-.1.02-.16.02-.14,0-.22.11-.22.25s.09.24.22.24c.07,0,.12-.03.16.48h-.71v-1h1Z"/>
          <path class="cls-9" d="M157.55,46.11h-1v-1h1v1h0v-1.15s0-.09.03-.12c.03-.04.07-.06.12-.06.02,0,.85,0,.85,0v.08s-.83-.01-.85-.01c-.06,0-.06.05-.15.13v.12h1v1h-1Z"/>
          <path class="cls-9" d="M157.55,46.11h0v-1h1v1h-1v-1.15c.34-.04.34-.09.36-.12.03-.04.07-.06.12-.06.02,0-.48,0-.48,0v.08s.51-.01.48-.01c-.06,0-.06.05-.48.13v.12h0v1h0Z"/>
          <path class="cls-9" d="M158.99,45.21c.1,0,.16.08.16.17s-.07.17-.16.17-.17-.07-.17-.17.07-.17.17-.17ZM158.99,45.63c.13,0,.24-.11.24-.24s-.11-.25-.24-.25-.25.11-.25.25.11.24.25.24Z"/>
          <path class="cls-9" d="M159.55,45.11h-1v1h1v-1.12c-.06-.08-.06-.13,0-.13.02,0-1,.01-1,.01v-.08s1.02,0,1,0c-.05,0-.09.02-.12.06-.02.03.12.12.12.12v.15h0v1l-1-1v1h1v-1Z"/>
          <path class="cls-9" d="M160.66,44.94c.17,0,.31.14.31.31s-.14.31-.31.31-.31-.14-.31-.31.13-.31.31-.31ZM160.66,44.86c-.21,0-.39.17-.39.39s.18.38.39.38.39-.17.39-.38-.18-.39-.39-.39Z"/>
          <path class="cls-9" d="M160.55,45.11h.75c.03.05.07.02.13.02.13,0,.16.09.12.2v-.23h-1v.24c.96-.08.95-.14.86-.14-.11,0,.14.18.14.18l-1-.28h1-1Z"/>
          <path class="cls-9" d="M161.96,45.43l.14-.35.15.35.14-.32h.09l-.23.5-.14-.35-.14.35-.23-.5h.09l.14.32Z"/>
          <path class="cls-9" d="M162.66,45.38c0,.09.06.18.15.18s.15-.08.15-.18-.06-.17-.16-.17c-.09,0-.15.08-.15.17ZM163.55,45.11h-1,.41c-.04.49-.09.52-.16.52-.14,0-.22-.12-.22-.24s.09-.25.22-.25c.06,0,.12.03.16.98h-.41v-1h1Z"/>
          <path class="cls-9" d="M163.55,45.11h-1,1v.27c-.22-.06-.22-.17-.13-.17.02,0,.03.01.05.02l.04-.07s-.04-.02-.07-.02c-.06,0-.08.03.12.06h0v-.09Z"/>
          <path class="cls-9" d="M163.84,45.21c.1,0,.16.08.16.17s-.05.18-.16.18-.15-.09-.15-.18.06-.17.15-.17ZM163.55,46.11h0v-1h0v.11h0c.4-.05.34-.08.28-.08-.14,0-.22.11-.22.25s.09.24.22.24c.06,0,.12-.03-.28-.08h0v.56Z"/>
          <path class="cls-9" d="M165.07,45.21c.1,0,.16.08.16.17s-.05.18-.15.18-.15-.09-.15-.18.06-.17.15-.17ZM164.55,45.11h1v1h-1v-1h.37c.04.49.1.52.16.52.14,0,.22-.11.22-.24s-.09-.25-.22-.25c-.06,0-.12.03-.16.98h-.37v-1Z"/>
          <path class="cls-9" d="M164.55,45.2h1s.05-.06.1-.06c.03,0,.05.01.07.02l-.04.07s-.03-.02-.05-.02c-.09,0-.09.11-1.09.17v-.27h1-1v.09Z"/>
          <path class="cls-9" d="M165.92,45.11c.01-.07.07-.12.14-.12s.13.06.14.12h-.28ZM166.28,45.11c0-.14-.07-.26-.22-.26s-.23.11-.23.25.09.24.23.24c.09,0,.17-.05.21-.13l-.07-.04c-.03.06-.07.1-.14.1-.09,0-.15-.07-.15-.15h.37Z"/>
          <path class="cls-9" d="M166.64,45.26s-.04-.05-.06-.05-.06.02-.06.05c0,.04.05.06.11.08.05.02.11.06.11.13,0,.09-.07.15-.16.15-.08,0-.14-.04-.16-.12l.07-.03s.04.07.09.07c.04,0,.07-.03.07-.07,0-.11-.21-.07-.21-.22,0-.08.06-.13.14-.13.05,0,.1.04.12.09l-.07.03Z"/>
          <path class="cls-9" d="M166.95,45.11c.01-.07.07-.12.14-.12s.13.06.14.12h-.28ZM167.31,45.11c0-.14-.07-.26-.22-.26s-.23.11-.23.25.09.24.23.24c.1,0,.17-.05.21-.13l-.07-.04c-.03.06-.07.1-.14.1-.09,0-.15-.07-.15-.15h.37Z"/>
          <path class="cls-9" d="M167.55,45.11h.01c.03.05.07.02.13.02.12,0,.16.09.85.2v-.23h-1v.24c.23-.08.22-.14.13-.14-.11,0,.87.18.87.18l-1-.28h0Z"/>
          <path class="cls-9" d="M168.55,45.11h0v1h-1v-1h1-1v1-1,1h1v-1Z"/>
          <path class="cls-9" d="M168.62,45.23s-.07-.09-.12-.09c-.07,0-.14.05-.14.13,0,.15.21.11.21.22,0,.04-.03.07-.08.07-.05,0-.07-.03-.1-.07l-.07.03c.02.07.09.12.16.12.09,0,.16-.06.16-.15,0-.08-.05-.11-.11-.13-.05-.02-.11-.04-.11-.08,0-.03.03-.05.06-.05s.05.02.06.05l.06-.03Z"/>
          <path class="cls-9" d="M169.43,45.38c0,.09.05.18.15.18s.15-.08.15-.18-.06-.17-.16-.17c-.09,0-.15.08-.15.17ZM170.55,45.11h-1v.44h0c.14.05.09.08.02.08-.14,0-.22-.12-.22-.24s.08-.25.22-.25c.06,0,.12.03-.03.08h0v-.11h1Z"/>
          <path class="cls-9" d="M170.55,45.11v.09h.12s.07-.07.13-.07c.13,0,.16.09.74.2v.77h-1v-.76c.33-.08.33-.14.23-.14-.11,0,.77.18.77.18l-1,.72h0v-1h0Z"/>
          <path class="cls-9" d="M171.55,45.11h-1,1ZM171.23,44.92s-.06.02-.06.06c0,.03.03.05.06.05.03,0,.06-.02.06-.05,0-.03-.03-.06-.06-.06Z"/>
          <path class="cls-9" d="M171.69,45.21c.1,0,.16.08.16.17s-.05.18-.15.18-.15-.09-.15-.18.06-.17.15-.17ZM172.55,45.11h-1v.11h0c.25-.05.19-.08.13-.08-.14,0-.22.12-.22.25s.09.24.22.24c.06,0,.12-.03-.13-.08h0v.05c.29.1.26.2.14.2-.09,0-.15-.05-.15.31h-.08c0-.32.1-.24.23-.24.07,0,.14-.03.18-.08.05-.06.05-.13.68-.2v-.48Z"/>
          <path class="cls-9" d="M171.55,45.11v.09h.67s.08-.07.13-.07c.13,0,.16.09.2.2v.77h-1v-.76c.88-.08.87-.14.78-.14-.11,0,.22.18.22.18l-1,.72h1v-1h-1Z"/>
          <path class="cls-9" d="M173.55,45.11h-1v1h1v-1Z"/>
          <path class="cls-9" d="M172.93,45.11h.09l.17.37.15-.37h.09l-.34,1h-.09l.15-.54-.21-.46Z"/>
          <path class="cls-9" d="M174.32,45.26s-.04-.05-.06-.05-.06.02-.06.05c0,.04.05.06.11.08.05.02.11.06.11.13,0,.09-.07.15-.16.15-.08,0-.14-.04-.16-.12l.07-.03s.04.07.09.07c.04,0,.08-.03.08-.07,0-.11-.21-.07-.21-.22,0-.08.06-.13.14-.13.05,0,.1.04.13.09l-.07.03Z"/>
          <path class="cls-9" d="M174.63,45.11c.01-.07.07-.12.14-.12s.13.06.14.12h-.28ZM174.99,45.11c0-.14-.07-.26-.22-.26s-.23.11-.23.25.09.24.23.24c.09,0,.17-.05.21-.13l-.07-.04c-.03.06-.07.1-.14.1-.09,0-.15-.07-.15-.15h.36Z"/>
          <path class="cls-9" d="M174.55,45.11h.69c.03.05.07.02.13.02.13,0,.16.09.17.2v-.23h-1v.24c.9-.08.9-.14.81-.14-.11,0,.19.18.19.18l-1-.28h1-1Z"/>
          <path class="cls-9" d="M175.94,45.26s-.03-.05-.06-.05c-.03,0-.06.02-.06.05,0,.04.05.06.11.08.05.02.11.06.11.13,0,.09-.07.15-.16.15-.08,0-.14-.04-.16-.12l.07-.03s.04.07.1.07c.04,0,.07-.03.07-.07,0-.11-.21-.07-.21-.22,0-.08.06-.13.14-.13.05,0,.1.04.12.09l-.07.03Z"/>
          <path class="cls-9" d="M176.26,44.92s-.06.02-.06.06c0,.03.03.05.06.05s.06-.02.06-.05c0-.03-.03-.06-.06-.06ZM176.55,45.11h-1,1Z"/>
          <path class="cls-9" d="M176.55,45.11h-1,1v-1h0v1h1-1Z"/>
          <path class="cls-9" d="M177.55,45.11h-1,1ZM176.94,44.98s-.03.05-.06.05-.06-.02-.06-.05c0-.03.02-.06.06-.06s.06.02.06.06Z"/>
          <path class="cls-9" d="M177.3,45.43l.14-.31h.09l-.23.5-.23-.5h.09l.14.31Z"/>
          <path class="cls-9" d="M177.71,45.11c0,.09.06.15.15.15.07,0,.11-.04.14-.1l.07.04c-.04.09-.12.13-.21.13-.14,0-.23-.1-.23-.24s.08-.25.22-.25.23.12.22.26h-.37ZM177.99,45.11c-.01-.07-.07-.12-.14-.12s-.13.06-.14.12h.28Z"/>
          <path class="cls-9" d="M179.55,45.11h-1,1ZM178.93,44.98s-.03.05-.06.05c-.03,0-.06-.02-.06-.05,0-.03.03-.06.06-.06.03,0,.06.02.06.06Z"/>
          <path class="cls-9" d="M178.55,45.11h.67c.03.05.07.02.13.02.13,0,.16.09.2.2v-.23h-1v.24c.88-.08.87-.14.78-.14-.11,0,.22.18.22.18l-1-.28h1-1Z"/>
          <path class="cls-9" d="M180.55,45.11h-1v1h0v-1h1-1v1-1,1h1v-1Z"/>
          <path class="cls-9" d="M180.07,45.11c0-.07.07-.12.14-.12s.12.06.14.12h-.28ZM180.43,45.11c0-.14-.07-.26-.22-.26s-.22.11-.22.25.09.24.23.24c.1,0,.17-.05.22-.13l-.07-.04c-.03.06-.07.1-.14.1-.09,0-.15-.07-.15-.15h.37Z"/>
          <path class="cls-9" d="M180.55,45.11h.12s.05.02.1.02c.03,0,.05.01.07.02l-.04.07s-.03-.02-.05-.02c-.09,0-.09.11-.21.17v-.27h1-1Z"/>
          <path class="cls-9" d="M150.55,47.11h-1v-.34c.77-.08.78-.18.89-.18.09,0,.1.07.11.14v.38h-1v-.39c1.06-.11,1.03-.2.9-.2-.06,0-.1.03-.13.59h.23Z"/>
          <path class="cls-9" d="M151.04,46.6c.1,0,.16.08.16.17s-.05.18-.16.18-.15-.09-.15-.18.06-.17.15-.17ZM151.55,47.11h-1v-.51h0c.6-.05.55-.08.48-.08-.14,0-.22.11-.22.25s.09.24.22.24c.07,0,.12-.03-.48-.08h0v.18h1Z"/>
          <path class="cls-9" d="M151.55,47.11h-1,1v-1h0v1h0v-1h1v1h-1Z"/>
          <path class="cls-9" d="M152.55,47.11h-1,1ZM151.94,46.36s-.03.06-.06.06-.06-.02-.06-.06c0-.03.03-.06.06-.06s.06.03.06.06Z"/>
          <path class="cls-9" d="M152.38,46.6c.1,0,.17.08.17.17s-.07.17-.17.17-.16-.08-.16-.17.07-.17.16-.17ZM152.38,47.02c.14,0,.25-.11.25-.24s-.11-.25-.25-.25-.24.11-.24.25.11.24.24.24Z"/>
          <path class="cls-9" d="M152.55,46.59h.35s.08-.07.13-.07c.13,0,.16.09-.48.2v.39h0v-.38c.56-.08.56-.14.46-.14-.11,0-.46.18-.46.18v.34h1-1v-.52Z"/>
          <path class="cls-9" d="M153.62,46.6c.1,0,.16.08.16.17s-.05.18-.15.18-.15-.09-.15-.18.06-.17.15-.17ZM154.55,47.11h-1,.22c-.04-.56-.1-.59-.16-.59-.14,0-.22.11-.22.25s.09.24.22.24c.07,0,.12-.03.16.1h-.22,1Z"/>
          <path class="cls-9" d="M154.55,47.11h-1v-1h1v1Z"/>
          <path class="cls-9" d="M155.5,46.6c.1,0,.16.08.16.17s-.05.18-.15.18-.15-.09-.15-.18.06-.17.15-.17ZM155.55,47.11h-1,.81c.04-.13.1-.1.16-.1.14,0,.22-.12.22-.25s-.09-.24-.22-.24c-.06,0-.12.03-.16.59h-.81v-1h1v1Z"/>
          <path class="cls-9" d="M155.55,46.59h.46s.05-.06.1-.06c.03,0,.05,0,.07.02l-.04.07s-.03-.02-.05-.02c-.09,0-.09.11-.55.17v.35h1-1v-.53Z"/>
          <path class="cls-9" d="M156.55,46.6c.1,0,.16.08.16.17s-.05.18-.16.18-.15-.09-.15-.18.06-.17.15-.17ZM157.55,47.11h-1,.15c-.04-.56-.1-.59-.16-.59-.14,0-.22.11-.22.25s.09.24.22.24c.06,0,.12-.03.16.1h-.15,1Z"/>
          <path class="cls-9" d="M157.55,47.11h-.46c.03-.57.08-.59.13-.59.13,0,.16.09.32.2v.39h-1v-.38c.75-.08.75-.14.66-.14-.11,0,.34.18.34.18v.34h0Z"/>
          <path class="cls-9" d="M157.66,46.76c0,.09.05.18.15.18s.16-.08.16-.18-.06-.17-.16-.17c-.09,0-.15.08-.15.17ZM157.55,47.11h.41c-.04-.13-.1-.1-.16-.1-.14,0-.22-.12-.22-.24,0-.13.08-.25.22-.25.06,0,.12.03.16.59h-.41v-1h1v1h-1Z"/>
          <path class="cls-9" d="M159.55,46.11h-1v1h1v-.74c-.3-.08-.3-.13-.24-.13.02,0-.76.01-.76.01v-.08s.78-.01.76-.01c-.05,0-.09.02-.12.06-.02.04.36.12.36.12v-.24h0v1l-1-1v1h1v-1Z"/>
          <path class="cls-9" d="M159.48,46.77c0-.14.11-.25.25-.25s.24.11.24.25-.11.24-.24.24-.25-.11-.25-.24ZM159.56,46.77c0,.1.07.17.17.17s.16-.08.16-.17-.07-.17-.16-.17-.17.08-.17.17Z"/>
          <path class="cls-9" d="M160.55,47.11h-.31s.05-.59.1-.59c.03,0,.05,0,.07.02l-.04.07s-.02-.02-.05-.02c-.09,0-.09.11-.78.17v.35h1v-1h0v1Z"/>
          <path class="cls-9" d="M162.55,46.11h-.75c-.04.51-.08.48-.15.48-.1,0-.16.08-.16.17s.06.17.16.17c.07,0,.11-.03.15.17h-.26v-.15c.21.03.17.05.11.05-.14,0-.25-.11-.25-.25s.11-.24.25-.24c.05,0,.1.02.89.05v-.45Z"/>
          <path class="cls-9" d="M162.22,46.6c.1,0,.16.08.16.17s-.07.17-.16.17-.17-.08-.17-.17.07-.17.17-.17ZM162.22,47.02c.13,0,.24-.11.24-.24s-.11-.25-.24-.25-.24.11-.24.25.11.24.24.24Z"/>
          <path class="cls-9" d="M162.55,47.11h.19c.03-.57.08-.59.13-.59.13,0,.16.09.68.2v.39h-1v-.38c.4-.08.4-.14.3-.14-.11,0,.7.18.7.18l-1,.34h0Z"/>
          <path class="cls-9" d="M163.55,47.11h-1,1v-1h0v1h-1v-1h1v1h0Z"/>
          <path class="cls-9" d="M163.63,47.11c0,.09.06.16.15.16.07,0,.11-.04.14-.1l.07.04c-.04.08-.12.13-.21.13-.14,0-.23-.11-.23-.24s.08-.25.23-.25.23.12.22.26h-.37ZM163.92,47.11c-.01-.06-.07-.12-.14-.12s-.13.06-.14.12h.28Z"/>
          <path class="cls-9" d="M163.55,47.11h.72c.02-.57.06-.59.11-.59.06,0,.1.03.13.08.03-.05.08-.08.14-.08.12,0,.15.1-.1.19v.4h0v-.38c.17-.06.17-.14.09-.14-.09,0-.1.09.91.16v.36h-2v-.38c.91-.06.9-.14.83-.14-.09,0,.17.17.17.17l-1,.35h1-1Z"/>
          <path class="cls-9" d="M165.26,46.6c.1,0,.16.08.16.17s-.05.18-.16.18-.15-.09-.15-.18.06-.17.15-.17ZM165.55,46.11h0v1h-.43c.04-.13.09-.1.16-.1.14,0,.22-.11.22-.24s-.09-.25-.22-.25c-.06,0-.12.03-.16.59h.43v-1Z"/>
          <path class="cls-9" d="M165.9,46.6c.1,0,.16.08.16.17s-.07.17-.16.17-.17-.08-.17-.17.07-.17.17-.17ZM165.9,47.02c.13,0,.24-.11.24-.24s-.11-.25-.24-.25-.24.11-.24.25.11.24.24.24Z"/>
          <path class="cls-9" d="M166.55,47.11h-.13s.05-.59.1-.59c.03,0,.05,0,.07.02l-.04.07s-.03-.02-.05-.02c-.08,0-.09.11-.95.17v.35h1v-1h0v1Z"/>
          <path class="cls-9" d="M166.95,46.6c.1,0,.16.08.16.17s-.05.18-.15.18-.15-.09-.15-.18.06-.17.15-.17ZM167.55,47.11h-1,.55c-.04-.56-.1-.59-.16-.59-.14,0-.22.11-.22.25s.09.24.22.24c.07,0,.12-.03.16.1h-.55,1Z"/>
          <path class="cls-9" d="M167.55,47.11h-1,1v-.35s-.06-.17.03-.17c.02,0,.03.01.05.02l.04-.07s-.05-.02-.07-.02c-.05,0-.07.03-.1-.41h.06v1Z"/>
          <path class="cls-9" d="M167.8,46.11h.09l.16.75.15-.75h.09l-.34,1h-.09l.15-.16-.21-.84Z"/>
          <path class="cls-9" d="M169.55,46.11h-1v1h1v-.74c-.13-.08-.13-.13-.07-.13.02,0-.93.01-.93.01v-.08s.95-.01.93-.01c-.05,0-.09.02-.12.06-.02.04.19.12.19.12v-.24h0v1l-1-1v1h1v-1Z"/>
          <path class="cls-9" d="M169.89,46.6c.1,0,.16.08.16.17s-.05.18-.16.18-.15-.09-.15-.18.06-.17.15-.17ZM170.55,47.11h0v-.51h0c-.56-.05-.61-.08-.67-.08-.14,0-.22.11-.22.25s.09.24.22.24c.06,0,.12-.03.68-.08h0v.18h0Z"/>
          <path class="cls-9" d="M170.54,46.64s-.03-.05-.06-.05c-.03,0-.06.02-.06.05,0,.04.05.06.11.08.05.02.11.05.11.13,0,.09-.07.15-.16.15-.08,0-.14-.04-.17-.12l.07-.03s.04.08.09.08c.04,0,.07-.03.07-.07,0-.1-.21-.07-.21-.21,0-.08.06-.13.14-.13.05,0,.1.04.12.09l-.07.03Z"/>
          <path class="cls-9" d="M171.55,46.11v.47h-.64s.07-.07.13-.07c.13,0,.16.09.51.2v.39h-1v-.38c.57-.08.57-.14.47-.14-.11,0-.47.18-.47.18l1,.34h-1v-1h1Z"/>
          <path class="cls-9" d="M171.55,47.11h-1,1ZM171.49,46.3s-.06.03-.06.06c0,.03.03.06.06.06s.06-.02.06-.06c0-.03-.03-.06-.06-.06Z"/>
          <path class="cls-9" d="M171.99,47.02c.13,0,.24-.11.24-.24s-.11-.25-.24-.25-.25.11-.25.25.11.24.25.24ZM171.99,46.6c.1,0,.17.08.17.17s-.07.17-.17.17-.17-.08-.17-.17.07-.17.17-.17Z"/>
          <path class="cls-9" d="M172.55,47.11h-.04c.03-.57.07-.59.13-.59.13,0,.16.09.91.2v.39h-1v-.38c.17-.08.16-.14.07-.14-.11,0,.93.18.93.18l-1,.34h0Z"/>
          <path class="cls-9" d="M173.55,47.11h-1v-1h1v1Z"/>
          <path class="cls-9" d="M173.84,46.6c.1,0,.17.08.17.17s-.07.17-.17.17-.16-.08-.16-.17.07-.17.16-.17ZM173.84,47.02c.13,0,.24-.11.24-.24s-.11-.25-.24-.25-.24.11-.24.25.11.24.24.24Z"/>
          <path class="cls-9" d="M174.44,46.43l.14-.31h.09l-.23.5-.23-.5h.09l.14.31Z"/>
          <path class="cls-9" d="M175.55,47.11h-1,1ZM174.88,46.3s-.05.03-.05.06c0,.03.03.06.05.06.03,0,.06-.02.06-.06,0-.03-.03-.06-.06-.06Z"/>
          <path class="cls-9" d="M174.55,46.59h.7s.07-.07.13-.07c.13,0,.16.09.16.2v.39h-1v-.38c.92-.08.91-.14.82-.14-.11,0,.18.18.18.18v.34h-1v-.52Z"/>
          <path class="cls-9" d="M175.97,46.6c.1,0,.15.08.15.17s-.05.18-.15.18-.15-.09-.15-.18.06-.17.15-.17ZM176.55,46.11h-1v1h.57c-.04-.56-.09-.59-.16-.59-.14,0-.22.12-.22.25s.09.24.22.24c.06,0,.12-.03.16.1h-.57v-.12s.54.2.42.2c-.09,0-.15-.05-.15-.07h-.08c0,.06.1.14.23.14.07,0,.14-.02.18-.08.05-.06.05-.13.4-.2v-.86Z"/>
          <path class="cls-9" d="M177.34,46.11h-.09l.23.5.14-.35.14.35.23-.5h-.09l-.14.32-.15-.35-.14.35-.14-.32Z"/>
          <path class="cls-9" d="M178.37,46.6c.1,0,.16.08.16.17s-.07.17-.16.17-.17-.08-.17-.17.07-.17.17-.17ZM178.37,47.02c.14,0,.25-.11.25-.24s-.11-.25-.25-.25-.25.11-.25.25.11.24.25.24Z"/>
          <path class="cls-9" d="M178.55,47.11h.34c.03-.57.07-.59.11-.59.06,0,.11.03.13.08.03-.05.08-.08.14-.08.12,0,.15.1.28.19v.4h-1v-.38c.78-.06.78-.14.7-.14-.09,0-.1.09.3.16v.36h-1v-.38c.52-.06.51-.14.44-.14-.09,0-.44.17-.44.17v.35h1-1Z"/>
          <path class="cls-9" d="M180.06,47.11c0-.14-.07-.26-.22-.26s-.23.11-.23.25.09.24.23.24c.09,0,.17-.05.21-.13l-.07-.04c-.03.06-.07.1-.14.1-.09,0-.15-.07-.15-.16h.37ZM179.69,47.11c.01-.06.07-.12.14-.12s.13.06.14.12h-.28Z"/>
          <path class="cls-9" d="M179.55,47.11h.78c.03-.57.07-.59.13-.59.13,0,.16.09.09.2v.39h-1v-.38c.99-.08.99-.14.89-.14-.11,0,.11.18.11.18l-1,.34h1-1Z"/>
          <path class="cls-9" d="M180.99,46.96s-.03.06-.06.06-.05-.03-.05-.06c0-.03.02-.05.05-.05s.06.02.06.05Z"/>
        </g>
        <path class="cls-2" d="M161.7.34c.15.15.4.08.51.28.09.03.17.12.27.11.18.09.35.18.52.3.32.12.65.22.97.34.09.05.1.15.07.24-.24.21-.51.34-.76.51-.35.12-.59.49-.96.59-.33.07-.73.14-1.04-.02-.16-.14-.22-.32-.31-.48,0-.28-.08-.55-.02-.82-.03-.23-.02-.5-.13-.69-.01-.21-.04-.47.1-.62.09-.07.22-.1.34-.06.18.07.24.3.43.32Z"/>
        <path class="cls-18" d="M162.22,3.9c.14.03.25.16.4.18.25.17.45.41.75.47.17.15.46.19.48.45-.02.09-.06.18-.16.22-.27.12-.56-.06-.83.07-.38.06-.68.34-1.04.45-.26.08-.5-.03-.68-.21-.07,0-.13-.09-.17-.15-.05-.53.13-1.03.1-1.57.13-.15.03-.48.29-.49.01-.05.05-.09.1-.1.38.04.49.44.75.66Z"/>
        <path class="cls-4" d="M160.24.46c.17.16.18.38.27.58-.05.04,0,.1.02.14-.01.4-.02.78.19,1.1.04.19.18.36.1.58-.08,1.03-.55,2-.28,3.07.28.85.15,1.8.27,2.71-.08.33.04.66.03,1.01.07.44-.05.95.28,1.28l.07.41c.61.48,1.23,1.04,1.76,1.64.26-.03.41-.3.66-.37.73-.58,1.56-.92,2.29-1.49.52-.26.91-.74,1.45-.93.27-.26.63-.3.9-.57.43-.3.89-.51,1.32-.78.65-.36,1.36-.6,1.96-1.09l.85-.77c.51-.32,1.04-.62,1.55-.93.14-.07.37-.11.51,0,.2.02.34.24.47.37.04.06.01.14,0,.2l-.14.13c-.59.22-1.06.72-1.65.93-.51.4-.95.98-1.52,1.24-.45.15-.81.5-1.27.62-.35.15-.66.44-1.03.56-.4.29-.84.48-1.25.75-.17.05-.28.22-.45.24-.14.17-.35.24-.52.39-.29.17-.58.35-.85.59-.14.06-.24.2-.39.24-.52.26-1.01.58-1.51.88-.24.22-.54.32-.79.52v.07c.37.57.96.96,1.28,1.55.21.23.31.51.51.74.49.58,1.05,1.27,1.64,1.72.47.55,1.01,1.01,1.56,1.47.3.32.68.45,1,.74.36.14.81.08,1.18.17l.23-.03,1.47.1c.51-.18,1.04-.29,1.6-.36.3-.16.65-.23.96-.39.29,0,.48-.26.75-.3.14-.11.34-.07.48-.16.25-.01.51.02.75.1.15.06.13.21.13.35-.19.68-.97.58-1.46.86-.5.17-1.01.33-1.52.47-.15.1-.35.09-.51.16-.47.16-.96.3-1.48.3l-.12.02c-.28-.03-.62-.13-.89,0-.29-.03-.58.05-.87,0-.43-.04-.85-.11-1.24-.23-.24-.03-.26-.38-.52-.36-.53-.7-1.28-1.05-1.84-1.7-.24-.13-.36-.4-.59-.54-.38-.39-.74-.86-1.17-1.24-.07-.21-.33-.35-.36-.58-.24-.38-.45-.76-.83-1.04-.1-.34-.5-.5-.65-.82-.24-.17-.28-.45-.48-.61-.35.08-.65.3-1,.38-.17.09-.37.12-.48.28-.1.76-.01,1.48-.11,2.25.09.2-.05.38-.02.6-.05.78-.06,1.55-.23,2.29,0,.23-.11.43-.13.65-.02.54-.1,1.18.23,1.61.12.29.12.61.13.93.08.24.02.51.04.77.05.41.07.81.06,1.22-.16.24-.15.56-.42.75-.19.07-.3-.1-.43-.2-.26-.25-.2-.66-.21-1-.09-.44,0-1-.07-1.44.01-.46-.33-.83-.16-1.31-.03-.84-.02-1.8.2-2.61.1-.96.13-1.93.18-2.9-.09-.51-.05-.95-.04-1.47-.32-.16-.56-.48-.85-.69l-.22-.34c-.25-.33-.53-.66-.71-1.03-.3-.46-.47-.99-.46-1.55.09-.13.26-.19.43-.15.24-.08.49-.19.76-.15.19-.08.37.03.55-.05.13.06.25-.02.39,0l.02-.03c-.03-.26-.07-.52-.05-.79-.07-.38-.06-.76-.13-1.13.06-.28-.07-.52-.05-.8.02-.67-.14-1.27-.28-1.87-.04-.43-.02-.8-.06-1.23.08-.72.3-1.39.3-2.14-.18-.63-.37-1.34-.2-2.02.17-.2.16-.75.58-.58l.13.09ZM159.39,11.76c-.22-.07-.43.05-.66,0-.06.04-.17,0-.2.07.17.24.21.53.36.78.36.33.49.8.9,1.1.06,0,.12.04.18.07l.03-.21c0-.57.14-1.19-.03-1.74l-.58-.07ZM161.08,12.76c-.02.35-.09.69-.11,1.03.14-.04.26-.14.4-.2.09-.07.22-.06.29-.14-.21-.23-.38-.47-.58-.69Z"/>
        <g>
          <path class="cls-3" d="M156.84,34.26l.14.17v.03c-.28.24-.53.5-.79.76-.11.14-.2.29-.32.42-.09.18-.26.33-.24.56-.06.14,0,.31-.06.47,0,.07.06.17,0,.23-.03.02-.07.03-.1.02-.21-.23-.09-.56-.14-.85.02-.08.05-.17.02-.24,0-.15.02-.29.02-.44.01-.03.05-.02.07-.03.07-.06.18-.08.23-.17.1-.05.19-.13.21-.24.08-.02.07-.13.15-.16.17.05.21-.15.35-.18.16-.09.17-.27.32-.37.03-.03.04-.09.1-.08l.06.12Z"/>
          <path class="cls-14" d="M160.68,35.79c.07.24.12.53.04.78,0,.06-.02.1-.04.14.05.19.02.38.01.57-.05.07,0,.15-.02.22-.04.17.06.33,0,.49.06.09.02.19.02.3.01.22.09.45.02.68.09.11,0,.25.05.38-.03.1.02.19,0,.29.04.12,0,.23,0,.36-.03.28.02.54-.03.82.03.09-.03.2,0,.3-.02.1.04.2,0,.3.04.09-.03.17,0,.26.01.15,0,.31-.01.45.04.08,0,.15,0,.24.04.12-.08.19-.07.3,0,.1-.01.21-.08.27-.04,0-.08-.02-.11-.02.01-.11-.01-.22-.02-.33.02-.08.03-.2-.03-.27-.03-.21,0-.46-.03-.67,0-.08.07-.17.02-.25.09-.1-.02-.21.02-.31-.01-.15.07-.32.01-.47.03-.21-.03-.39,0-.6-.03-.13-.02-.28-.02-.41.07-.2.17-.48-.02-.65,0-.11-.03-.21-.02-.32.01-.06.03-.11.01-.17.03-.17-.07-.33.02-.48,0-.21,0-.41,0-.61.02-.27-.01-.54.02-.82.01-.13-.03-.26-.13-.35-.02-.02-.05-.08-.09-.04-.05.05-.11.07-.17.11-.14.13-.28.26-.45.32-.05.02-.07.1-.13.11-.15-.02-.32,0-.42.11.02.22-.03.43-.06.63.09.12.05.3.06.45-.06.14,0,.34-.09.47-.04.2,0,.42-.06.62.01.17-.04.32-.02.49.02.13-.02.29-.03.42-.07.16-.06.36-.11.54.05.27-.06.55-.05.82.05.07,0,.16,0,.23.04.21-.05.4-.08.6-.05.27-.11.58-.08.86,0,.12-.13.05-.18.07-.07-.02,0-.1-.02-.15-.03-.11-.03-.22-.06-.34l.05-.3c.02-.45-.02-.92.06-1.36,0-.1,0-.2.04-.3.03-.26.15-.5.11-.76-.02-.06.02-.12.03-.18,0-.26.13-.48.09-.76-.04-.1.01-.21-.02-.32.02-.25.03-.5.06-.75.05-.12-.01-.24.04-.37.04-.18.03-.34,0-.52.03-.11-.03-.25.05-.34.1-.13.29-.08.39-.2l.3-.14c.07-.1.21-.11.31-.17.19-.02.33-.16.5-.23.1-.03.15-.14.26-.15.01-.02.04,0,.05-.01.05.02.08.1.13.14Z"/>
          <path class="cls-10" d="M157.28,35.72c.02.06.05.12.08.17-.01.09,0,.18.01.27-.05.15-.05.32-.03.47.02.03.04.08.02.12-.04.25-.15.46-.24.68-.12.11-.21.24-.35.32-.06.05-.04.16-.14.17-.03,0-.06.02-.07.04.03.12-.12.18-.16.28-.02.08-.1.11-.1.19-.08.09-.17.17-.25.26-.18.08-.35.18-.52.29-.04.08-.1.13-.16.2,0,.04.03.08.06.11.09.03.2.03.28.08.3.02.56-.03.86.02.05-.02.1-.03.15,0,.18-.04.37,0,.56.01.05.02.1.03.13.08-.03.04-.05.1-.1.13-.2,0-.37,0-.56.05-.16-.05-.34-.02-.51-.03-.18.02-.38.05-.57,0-.2-.03-.4-.11-.57-.22-.09-.01-.18-.06-.23-.14-.02-.06-.08-.14-.03-.2.04-.03.09-.05.14-.05.01.01.02.03.04.02.05-.07.04-.17.12-.23.04-.15.25-.15.28-.31.11-.05.16-.18.28-.21.06-.08.17-.14.2-.24.06-.07.13-.14.23-.15.14-.11.23-.28.36-.4.08-.12.13-.25.25-.34.27-.29.37-.68.41-1.08,0-.14.02-.29.05-.43.05-.06.08.04.1.07Z"/>
          <path class="cls-8" d="M155.41,37.15c.19.12.38.29.54.45.03.03.03.08.02.11-.21.02-.39-.05-.58-.12-.16-.09-.29-.24-.46-.31-.07-.05-.17-.12-.15-.21.05-.08.16-.08.24-.08.15,0,.26.1.39.16Z"/>
          <path class="cls-8" d="M157.93,38.91c.09.04.08.14.1.22.08.09.13.2.11.33.02.1.02.21,0,.31-.07.06-.19.06-.28.03-.12-.13-.26-.28-.29-.46-.03-.02,0-.07-.02-.09,0-.18-.04-.38.03-.54,0-.02,0-.06.02-.07.16,0,.27.15.32.27Z"/>
          <path class="cls-6" d="M160.18,39.22s.03.11.08.16c.02.05,0,.11-.02.16-.08.09-.2.03-.3.06-.19.04-.43.08-.62,0-.05-.03-.15.03-.16-.05.02-.08.01-.17.05-.24.1-.06.22-.1.33-.05.1,0,.17-.05.27-.04.11-.13.24.03.38,0Z"/>
          <path class="cls-17" d="M156.59,39.92c.05.17.25.27.24.47.05.24.06.47.09.72-.05.13.04.26-.03.39.07.18-.1.31-.04.48.05.1-.05.18-.02.28.03.11-.11.12-.13.21-.04.18.02.37-.05.53.02.11.04.27-.07.34-.04.02-.09.02-.13,0-.03-.01-.06-.04-.07-.08,0-.07.05-.12.03-.18-.02-.19.08-.37.07-.56.02-.04.04-.08.05-.13-.02,0,0-.01,0-.03,0-.15.06-.31,0-.45.05-.13,0-.26.02-.38.07-.24.01-.45.03-.7-.05-.15,0-.31-.06-.46-.02-.07-.05-.17-.02-.25,0-.07-.06-.25.09-.2Z"/>
          <path class="cls-15" d="M160.24,40.51c-.01.06-.09.06-.14.09-.15.1-.34.04-.51.08-.11-.05-.23.05-.33-.04l-.17-.15c.07-.13.25-.07.35-.16.11-.05.23-.04.35-.05.06-.03.13,0,.19,0,.1.05.21.12.26.23Z"/>
          <path class="cls-8" d="M156.31,41.13c.02.24-.15.41-.23.61-.07.08-.09.22-.21.23-.08.05-.04.15-.13.19-.01.04-.05.08-.09.09-.07-.02-.14.02-.19-.03-.15-.13-.12-.33-.08-.5.12-.29.44-.42.66-.62.07-.02.11-.13.19-.09.03.05.08.06.09.11Z"/>
          <path class="cls-8" d="M157.63,41.34c.06.11.1.22.06.35-.02.1-.1.17-.09.28-.07,0-.11.07-.18.07-.01.04-.07.02-.1.02-.07-.06-.18-.07-.21-.16-.09-.12,0-.28.02-.41.05-.08.12-.15.13-.25.02-.04.07,0,.1-.02.04,0,.08-.04.13-.01.06.03.08.1.14.13Z"/>
          <path class="cls-17" d="M161.78,42.84c.06,0,.09.04.13.09.03.07.02.14,0,.22-.06.05-.14.07-.2.11-.1,0-.21.04-.32,0-.13.02-.25,0-.37.06-.09.12-.25.06-.37.1-.12.05-.26.06-.38.11-.15-.02-.32.02-.46.01-.09.02-.16.07-.26.06-.14.03-.28-.07-.42-.03-.1-.04-.21,0-.31-.02-.05-.05-.14-.04-.2-.06-.1-.04-.19-.1-.3-.12-.09-.03-.17-.04-.25-.08-.25-.06-.49-.16-.75-.21-.07-.03-.15-.06-.21-.11,0-.1.12-.08.19-.11.06.01.13.05.19.06.15.08.38-.02.5.12.16.07.35.04.5.11.08.07.21.04.3.11.32.06.66.04,1,.05.12-.01.22-.07.34-.09.13-.09.28-.14.42-.22.15-.02.27-.1.41-.12.22-.05.46-.16.69-.06h.14Z"/>
          <path class="cls-1" d="M174.8,37.07c-.08,0-.17-.02-.24-.02-.26,0-.54.02-.77.14-.08.03-.19,0-.23.1v-.4s.11,0,.15-.01c.21-.07.4-.15.63-.18.15-.04.29,0,.43,0,.04-.02.09-.02.14-.01.16,0,.4-.05.51.12.02.05-.01.1-.03.14-.06.04-.14.06-.17.13M171.55,37.32l-.02-.03c-.16-.06-.35-.05-.52-.09-.14.01-.23-.1-.36-.08-.18-.06-.37-.13-.55-.19-.02.01-.04.03-.05.05l-.02-.36s.1,0,.16.02c.06,0,.12.04.17.07.19.02.36.1.55.12.14.05.29.04.45.07.07-.05.14.06.2,0v.42ZM172.28,37.05c.07,0,.14.02.19.06.02,0,.04,0,.06-.02.1.02.18-.07.27-.08.05-.04.12-.04.17-.07.07.03.14-.04.21,0,.06,0,.14,0,.19-.05l-.03.43-.2-.03c-.06.03-.15.07-.22.02-.05.02-.1.07-.15.09-.14.05-.33.02-.48.03v-.37Z"/>
          <path class="cls-19" d="M175.45,37.08c.01.14.1.31-.02.43v.07c0,.17.17.31.09.49l.08.22c-.06.18.05.31.03.49.04.1-.03.25.02.35.09.08.07.18.08.29.03.1.06.23,0,.33-.02.22.26.39.09.6,0,.06.03.11.04.16-.05.26.03.46-.02.73.01.09.08.21,0,.29-.04.07,0,.14.02.2,0,.12.02.24-.01.35l.05.46c-.07.27-.1.56-.24.79-.06.12,0,.35-.19.37-.25.06-.44-.14-.66-.21-.05-.04-.12-.07-.18-.05-.06.07-.13-.02-.21,0-.1-.02-.18.05-.26,0-.12-.06-.26-.01-.38-.07-.11,0-.22.01-.31-.06-.1-.03-.21-.02-.29-.1-.16.02-.31-.04-.44-.11-.03,0-.05.02-.08.02-.12,0-.23-.05-.34-.08-.02-.04-.06-.05-.1-.06-.16-.13-.36-.18-.55-.27-.06-.05-.13-.1-.2-.12-.02-.08-.08-.16-.17-.18-.11-.06-.17-.17-.3-.2-.09-.05-.2-.07-.25-.17-.05-.1-.17-.1-.25-.18-.06-.11-.2-.07-.26-.18-.11-.07-.29-.13-.31-.3-.03-.09-.03-.2-.09-.28,0-.12,0-.22-.06-.32,0-.23,0-.47.02-.7.12-.12.05-.33.09-.48.03-.24.07-.47.05-.71.04-.1-.03-.22.03-.32-.01-.4.02-.81.09-1.2.06-.16.04-.35.1-.52,0-.07-.04-.12-.05-.19v-.24c-.08-.1-.11-.22-.09-.34.07-.01.16,0,.22.03.09.15.05.34.11.5v.35c-.01.06.02.14.02.2-.06.29-.06.59-.13.89.03.12.06.27,0,.39.02.11,0,.24.01.35-.03.16.01.3-.02.46-.06.15-.03.33-.05.5-.07.15-.02.32-.04.49-.07.06-.04.16-.06.25.02.2.02.41.07.6.03.18.22.22.34.32.12.17.32.18.45.32.14.12.34.1.45.27.15.09.29.21.44.31.29.14.58.29.9.36.09.05.17.06.27.1.1,0,.23-.05.32.04.13-.02.22.06.35.04.12.04.26.04.39.07.15.09.31-.02.47,0,.07,0,.15,0,.18.06.03-.02.06,0,.1,0,.05.02.12.05.13.1.1.06.2.14.33.13.08-.05.04-.16.09-.23.15-.19.1-.46.12-.69,0-.09-.03-.18,0-.26.01-.21-.07-.43.01-.64,0-.08-.04-.16-.04-.25.04-.12,0-.25.03-.37-.03-.19-.06-.38-.05-.59-.06-.13-.1-.26-.08-.42-.02-.05.02-.11,0-.17-.08-.13-.11-.28-.14-.43,0-.2-.06-.35-.07-.54-.02-.1.07-.21-.03-.28l-.02-.2c-.02-.08,0-.18.01-.25-.07-.08-.11-.17-.1-.27.04-.13-.03-.25,0-.4,0-.06.08-.12.02-.18h.4Z"/>
          <path class="cls-11" d="M173.29,40.15s-.09,0-.14,0c-.24.05-.49-.03-.73.02-.02.01-.06,0-.09.01l-.47.02c-.22,0-.41-.09-.61-.16-.1-.02-.19-.07-.3-.09-.11-.06-.22-.11-.34-.15-.11-.04-.06-.15-.1-.22,0-.08.1-.13.06-.22.03-.04.08-.02.12-.03.17,0,.26.16.41.2.12.15.32.12.46.22l.26.02h.55s.02.01.02.01c.08-.03.17,0,.24-.03.21.03.43.02.64-.01l.52-.05c.07-.02.16,0,.23-.04.11-.11.28-.05.41-.11.17.02.33-.02.5.02.07.03.16-.01.22.03.04.03.07.06.09.11.02.04.01.08-.02.11-.07.08-.18.05-.26.1-.28.08-.56.13-.87.12-.12-.06-.34.04-.34.04l-.47.06Z"/>
          <g>
            <path class="cls-5" d="M172.34,40.17s-.05.02-.05.06c.04.08.01.15.03.24-.05.18,0,.35-.02.53-.06.24-.05.48-.06.72l-.07.08c.01.09-.03.18-.06.26-.01,0-.02,0-.03,0-.02-.1-.11.01-.15-.07-.08-.13-.08-.29-.09-.44,0-.09.03-.16.04-.25.05-.09.05-.22,0-.31.01-.13.06-.26.03-.39-.06-.12,0-.29-.05-.41l.47-.02Z"/>
            <path class="cls-20" d="M171.55,36.9c0-.19,0-.37-.01-.55,0-.36,0-.73-.04-1.09-.1-.08-.15-.2-.15-.33,0-.1-.04-.2,0-.29-.06-.18,0-.39,0-.58.07-.06,0-.14.01-.21.03-.07.03-.16.11-.19.1-.01.2.04.24.14.05.17.09.36.09.54.05.13.06.27.08.41-.01.1.03.19,0,.29.03.12.09.25.05.39,0,.11.03.23,0,.33-.06.07.01.14,0,.21.02.13-.07.21,0,.32.02.16.05.34,0,.5,0,.09-.02.19.03.26v.37c0,.29-.04.57-.03.86.02.23.02.43.03.64.03.28,0,.51.02.81,0,.05.04.06.08.06h-.55s.02-.14.01-.19v-.43c.07-.13,0-.29.05-.41-.03-.15.04-.29,0-.44,0-.13.04-.31-.03-.43.02-.19,0-.36.02-.56v-.42Z"/>
          </g>
          <g>
            <path class="cls-16" d="M173.77,40.08c-.04.18-.06.39-.06.57.03.12-.01.26-.02.38.06.31-.05.64-.08.95-.05.11.03.23-.03.33-.06.06,0,.12,0,.18-.06.06-.15.04-.23.02-.11-.07-.1-.21-.1-.33-.1-.08.03-.18-.02-.28.04-.13.09-.27.04-.4.06-.16,0-.33.03-.49.02-.28,0-.58,0-.86l.47-.06Z"/>
            <path class="cls-13" d="M173.37,36.89l.02-.83c-.04-.1,0-.21-.02-.33.03-.35-.02-.69-.04-1.02,0-.13,0-.3.08-.41-.02-.12.1-.17.11-.27,0,0,.07-.03.11-.05.09.03.1.13.16.19.02.06.02.12.07.17-.02.17.06.34,0,.5.05.18-.06.36-.03.55.02.17-.12.3-.06.47-.05.37.01.67.03,1.04v.4c-.05.18-.05.37-.07.55.04.08-.02.14-.02.22.03.17-.03.36.03.52,0,.17.04.32.04.49,0,.21-.04.43.03.62l-.52.05v-.14c0-.18.03-.36,0-.53.09-.32-.04-.66.03-.98-.05-.12.01-.27-.02-.38.04-.12.04-.27.05-.4l.03-.43Z"/>
          </g>
        </g>
      </g>
    </g>
  </g>
</svg>