<?xml version="1.0" encoding="UTF-8"?>
<svg id="_レイヤー_2" data-name="レイヤー 2" xmlns="http://www.w3.org/2000/svg" viewBox="0 0 242.15 79.37">
  <defs>
    <style>
      .cls-1 {
        fill: #030000;
      }

      .cls-2 {
        fill: #fff;
      }

      .cls-3 {
        fill: none;
        opacity: .5;
        stroke: #000;
        stroke-miterlimit: 10;
        stroke-width: .8px;
      }
    </style>
  </defs>
  <g id="design">
    <g>
      <path d="M69.26,51.27v-6.58c-.27.31-.56.6-.85.88-.29.28-.59.55-.9.81-.11-.14-.28-.31-.49-.54-.22-.22-.39-.38-.53-.48.61-.46,1.2-1,1.75-1.61.56-.61,1.05-1.22,1.5-1.85.44-.63.79-1.22,1.04-1.76h-3.74v-1.31h2.18v-3.01h1.41v3.01h1.56l.56.53c-.28.6-.59,1.2-.93,1.79-.33.59-.7,1.16-1.1,1.72.27.2.58.42.91.65.33.23.65.45.96.65s.56.37.77.49c-.14.11-.29.28-.47.5s-.31.41-.4.55c-.25-.16-.53-.35-.85-.59-.32-.23-.64-.47-.97-.72v6.87h-1.41ZM72.27,43.59c-.08-.09-.22-.22-.43-.39-.21-.17-.36-.28-.45-.32.24-.23.5-.52.78-.88.28-.36.52-.68.71-.98l.99.66c-.11.17-.27.38-.47.62-.2.24-.4.48-.6.71-.2.23-.38.42-.53.57ZM72.9,51.12c-.15-.12-.36-.27-.63-.43-.27-.16-.49-.27-.65-.33.8-1.13,1.39-2.4,1.76-3.81.37-1.41.55-3.04.55-4.91v-5.17h7.99v4.13h-2.69v1.82h3.3v1.27h-3.3v1.9h2.4v5.34h-6.1v-5.34h2.31v-1.9h-2.6c-.11,1.55-.36,2.93-.74,4.13-.38,1.2-.92,2.3-1.61,3.3ZM75.32,42.42h2.53v-1.82h-2.52v1.44c0,.13,0,.26-.02.38ZM75.33,39.36h5.19v-1.65h-5.19v1.65ZM76.93,49.62h3.33v-2.72h-3.33v2.72Z"/>
      <path d="M87.81,51.14v-6.95c-.57.48-1.1.87-1.6,1.19-.05-.09-.14-.22-.27-.38-.14-.16-.28-.32-.42-.48-.15-.15-.27-.26-.37-.33.37-.22.8-.51,1.28-.89.48-.38.96-.8,1.45-1.26.48-.46.92-.92,1.33-1.39.4-.46.72-.9.94-1.29l1.26.83c-.28.43-.6.86-.95,1.29-.35.43-.73.85-1.12,1.26v8.4h-1.51ZM86.6,40.41c-.15-.2-.31-.42-.48-.65-.18-.23-.35-.41-.54-.54.49-.24,1-.54,1.54-.91.54-.37,1.05-.76,1.52-1.18.48-.42.87-.82,1.19-1.21l1.16.9c-.35.41-.79.84-1.32,1.31-.53.46-1.06.9-1.61,1.31-.54.41-1.03.73-1.46.97ZM90.66,51.36c-.06-.18-.15-.41-.27-.67-.13-.27-.25-.48-.37-.65.8-.15,1.58-.38,2.34-.69.75-.31,1.45-.68,2.1-1.1-.56-.53-1.01-1.12-1.38-1.75-.35.4-.71.77-1.09,1.1-.37.34-.75.64-1.12.9-.13-.16-.29-.33-.49-.52-.2-.19-.39-.34-.54-.45.48-.29.95-.67,1.42-1.11.47-.45.91-.93,1.33-1.44.41-.52.77-1.02,1.08-1.52-.62.05-1.19.08-1.71.12-.52.03-.91.06-1.18.07l-.25-1.36c.29,0,.65-.01,1.06-.03.41-.02.85-.05,1.32-.07.34-.31.74-.73,1.21-1.26-.28-.26-.61-.54-.99-.84-.37-.3-.75-.59-1.12-.86-.37-.27-.71-.48-1-.63l.9-1.07c.16.09.33.2.51.32.18.12.37.25.56.39.2-.24.41-.51.63-.81.22-.3.42-.6.61-.91.19-.31.35-.57.48-.8l1.26.7c-.25.39-.56.82-.93,1.31-.37.49-.72.91-1.05,1.28.19.15.38.3.57.45.19.15.35.29.5.42.35-.41.7-.82,1.04-1.25.34-.43.65-.82.94-1.2s.52-.7.69-.97l1.26.77c-.22.31-.48.66-.81,1.06-.32.4-.67.82-1.05,1.27-.38.44-.77.88-1.16,1.31-.4.43-.77.83-1.12,1.19.61-.06,1.21-.11,1.79-.16.58-.05,1.1-.1,1.56-.16-.16-.18-.32-.35-.48-.5-.16-.15-.31-.29-.44-.4l1-.88c.31.24.64.55,1.01.93.37.39.72.78,1.06,1.17.34.4.61.75.82,1.05-.08.05-.2.13-.37.26-.16.12-.32.25-.48.37-.15.12-.26.23-.33.31-.11-.17-.24-.35-.38-.55-.14-.2-.3-.41-.47-.62-.43.07-.99.14-1.67.22-.69.08-1.4.15-2.13.22-.1.19-.21.39-.32.59-.11.2-.23.4-.36.59h3.96l.65.53c-.66,1.2-1.51,2.27-2.55,3.21.67.41,1.39.75,2.18,1.02.78.27,1.61.45,2.48.54-.14.19-.27.43-.4.71-.13.28-.24.53-.31.73-.91-.15-1.8-.4-2.68-.76-.88-.36-1.69-.8-2.42-1.33-1.38,1-3,1.73-4.86,2.21ZM95.59,47.41c.63-.56,1.15-1.14,1.55-1.75h-3.08c.39.62.9,1.21,1.53,1.75Z"/>
      <path d="M109.53,50.56c-.06-.24-.15-.5-.28-.8-.13-.29-.27-.55-.43-.77,1.1-.05,2.06-.19,2.89-.42.83-.24,1.47-.58,1.94-1.02.46-.44.7-1,.7-1.67,0-.77-.24-1.38-.71-1.83-.47-.45-1.14-.67-2.01-.67-.93,0-1.79.14-2.57.43-.78.28-1.5.7-2.16,1.26-.43.36-.8.68-1.12.95s-.65.54-1,.8l-1.04-1.28c.58-.34,1.22-.79,1.91-1.34.7-.56,1.4-1.16,2.11-1.83.71-.66,1.37-1.33,1.97-2.01.61-.67,1.11-1.31,1.5-1.9-.34.08-.73.16-1.17.24-.44.08-.9.16-1.36.23-.46.07-.91.14-1.33.19-.43.05-.79.09-1.08.11l-.43-1.55c.32,0,.71-.01,1.17-.04.46-.03.96-.07,1.49-.13.53-.06,1.04-.12,1.55-.2.5-.08.96-.16,1.38-.25.41-.09.74-.19.98-.29l1.14.83c-.25.48-.58.99-.99,1.56-.41.56-.87,1.13-1.38,1.72-.5.58-1.03,1.15-1.57,1.71.33-.16.67-.27,1.04-.35s.7-.12,1.02-.13c.87-.03,1.63.1,2.28.41.65.31,1.15.75,1.5,1.33s.54,1.26.54,2.04c0,1.38-.57,2.46-1.7,3.24-1.13.78-2.72,1.26-4.76,1.44Z"/>
      <path d="M121.03,50.01c-.08-.44-.14-.99-.19-1.64-.05-.65-.08-1.37-.09-2.14-.02-.78-.02-1.58,0-2.41.02-.83.05-1.64.1-2.43.05-.79.12-1.53.2-2.2.08-.67.18-1.25.29-1.73l1.53.32c-.11.41-.21.93-.3,1.57-.08.64-.15,1.34-.2,2.11-.05.77-.08,1.55-.1,2.36-.02.81-.02,1.59,0,2.35.02.75.05,1.44.1,2.05.05.61.12,1.11.2,1.5l-1.53.29ZM127.71,49.01c-.77-.05-1.39-.2-1.87-.45-.48-.26-.78-.64-.92-1.15-.23-.59-.21-1.34.05-2.24l1.38.37c-.08.25-.12.48-.11.69,0,.21.05.39.13.55.18.39.73.61,1.63.68.51.03,1.08.03,1.7-.03.62-.05,1.23-.13,1.84-.23.6-.1,1.12-.22,1.55-.36-.02.11-.04.28-.06.5s-.03.44-.03.66c0,.22,0,.39,0,.52-.57.15-1.16.26-1.79.34-.63.08-1.24.13-1.84.14-.6.02-1.14.01-1.64,0ZM125.5,40.75l-.08-1.6c.42.05.93.07,1.53.09.6.01,1.23,0,1.89-.03s1.29-.09,1.89-.16c.6-.07,1.11-.16,1.53-.26l-.05,1.58c-.44.08-.96.15-1.55.21-.59.06-1.2.11-1.84.14-.63.03-1.24.05-1.82.06-.58,0-1.08,0-1.5-.03Z"/>
      <path d="M138.32,49.54c-.11-.17-.27-.4-.47-.69s-.38-.5-.55-.64c.87-.37,1.75-.85,2.62-1.43.87-.58,1.71-1.23,2.5-1.95.79-.72,1.51-1.48,2.16-2.3.65-.81,1.18-1.63,1.6-2.46-.52.03-1.11.07-1.78.11-.66.04-1.33.08-2.01.13-.67.05-1.29.08-1.86.12-.57.03-1.01.06-1.34.09l-.19-1.65c.27,0,.69,0,1.24-.02.56-.01,1.18-.03,1.86-.06.69-.03,1.37-.06,2.06-.1.69-.04,1.3-.08,1.85-.12.55-.04.95-.08,1.22-.13l1.05.68c-.28.78-.64,1.55-1.08,2.29-.44.75-.94,1.47-1.5,2.18.39.31.8.65,1.24,1.04s.88.78,1.31,1.2c.43.41.83.81,1.21,1.19.37.38.68.72.92,1.03-.19.12-.42.3-.69.54-.27.23-.48.44-.64.64-.23-.32-.51-.67-.86-1.06-.35-.39-.72-.79-1.13-1.21-.41-.41-.82-.81-1.22-1.2-.41-.39-.78-.72-1.12-1-.94,1.01-1.97,1.92-3.08,2.75-1.11.82-2.22,1.5-3.31,2.03Z"/>
      <path d="M155.75,44.88c.01-.07.01-.29,0-.68,0-.39-.01-.86-.02-1.43,0-.57-.01-1.16-.02-1.79,0-.63-.01-1.23-.03-1.79-.01-.57-.02-1.04-.03-1.43-.01-.39-.02-.61-.03-.68h1.62v.7c0,.39,0,.85,0,1.4,0,.55.01,1.13.03,1.75.01.62.02,1.21.03,1.77s.02,1.04.03,1.43c0,.39.01.64.03.74l-1.62.02ZM156.69,50.64c-.05-.11-.13-.26-.25-.43-.13-.18-.26-.35-.4-.52-.14-.17-.27-.3-.38-.39,1.76-.75,3.06-1.75,3.92-3.02.86-1.26,1.28-2.94,1.28-5.02v-1.45c0-.37,0-.78,0-1.21,0-.43-.01-.81-.02-1.15,0-.33-.01-.55-.03-.65h1.67v4.45c0,1.55-.21,2.91-.62,4.07-.41,1.16-1.05,2.17-1.9,3.03-.85.86-1.94,1.62-3.26,2.28Z"/>
      <path d="M169.99,45.02c-.03-.24-.1-.52-.21-.86-.11-.33-.23-.66-.36-.98-.13-.32-.25-.57-.37-.75l1.21-.44c.1.18.21.44.34.77.12.33.25.67.37,1.02.12.35.21.63.26.86l-1.24.37ZM170.85,50.1c-.07-.16-.18-.37-.32-.64-.15-.27-.28-.46-.41-.57,1.24-.31,2.34-.77,3.32-1.39.98-.62,1.78-1.43,2.41-2.41.63-.98,1.04-2.15,1.23-3.51l1.29.22c-.24,1.56-.71,2.89-1.41,3.98s-1.58,1.98-2.62,2.68-2.21,1.24-3.5,1.64ZM172.94,44.37c-.03-.24-.1-.52-.2-.86-.1-.33-.21-.66-.33-.99s-.24-.58-.35-.76l1.22-.41c.1.18.21.44.33.78.12.34.23.68.34,1.03.11.35.18.63.23.86l-1.24.34Z"/>
      <path d="M185.93,50.42v-13.43h1.6v5.1l.7-.99c.27.2.63.44,1.06.71.44.27.9.55,1.4.84.5.29.98.55,1.45.79.47.24.88.42,1.22.54-.09.08-.2.22-.34.41-.14.19-.26.39-.38.58-.12.19-.21.35-.26.46-.31-.15-.67-.34-1.1-.59-.43-.24-.88-.51-1.35-.79-.47-.28-.92-.56-1.33-.84-.42-.28-.77-.52-1.05-.74v7.94h-1.6Z"/>
      <path d="M209.63,51.32c-1.68-1.07-3.09-2.33-4.22-3.8-1.14-1.47-1.94-3.21-2.41-5.23-.29,1.27-.78,2.47-1.46,3.61-.68,1.14-1.51,2.17-2.48,3.09-.97.92-2.06,1.68-3.26,2.3-.1-.19-.26-.42-.47-.69-.21-.27-.39-.47-.55-.62,1.38-.67,2.56-1.48,3.52-2.45.96-.96,1.73-2.04,2.3-3.22.57-1.18.95-2.43,1.15-3.75l.97.17c-.06-.44-.1-.9-.13-1.36-.03-.46-.04-.94-.04-1.43h-4.05v-1.48h5.64c-.13,2.14.01,4.05.41,5.71.4,1.67,1.1,3.14,2.13,4.42,1.02,1.28,2.4,2.41,4.15,3.38-.11.08-.25.2-.4.37-.15.16-.3.33-.44.51-.14.18-.26.33-.35.47Z"/>
      <path d="M217.41,51.05c-.12-.22-.3-.45-.53-.7-.23-.25-.44-.45-.65-.59,1.52-.65,2.7-1.6,3.54-2.87.84-1.27,1.27-2.79,1.27-4.56,0-.8-.1-1.44-.29-1.9s-.45-.78-.77-.97-.67-.26-1.05-.23c-.43.03-.84.29-1.24.77-.4.48-.69,1.15-.89,2.01-.2.86-.23,1.87-.09,3.03-.1,0-.25.02-.46.06-.2.04-.4.08-.58.12-.18.04-.31.08-.39.11-.06-.41-.11-.92-.15-1.53-.05-.61-.08-1.27-.09-1.96-.02-.7-.03-1.39-.03-2.09s.01-1.35.03-1.95c.02-.6.06-1.09.1-1.48l1.6.15c-.07.29-.13.68-.18,1.16-.05.48-.09.99-.11,1.53-.02.54-.04,1.07-.05,1.56.24-.82.61-1.5,1.12-2.05.51-.55,1.08-.84,1.7-.86.63-.03,1.21.11,1.73.43.52.32.94.81,1.24,1.49.31.67.46,1.54.46,2.59,0,2.06-.46,3.81-1.39,5.24-.92,1.43-2.21,2.59-3.87,3.48Z"/>
      <path d="M238.5,50.51c-1.13-.14-2.13-.48-3-1.02-.87-.54-1.55-1.25-2.04-2.11-.49-.86-.74-1.82-.74-2.89,0-.57.1-1.15.29-1.76.19-.61.49-1.2.89-1.78.4-.58.9-1.09,1.5-1.53-.7.12-1.42.25-2.14.38-.73.13-1.43.26-2.1.38-.67.12-1.28.24-1.81.35-.53.11-.95.2-1.26.28l-.36-1.68c.37-.03.88-.09,1.53-.17.65-.08,1.37-.18,2.18-.31.8-.12,1.64-.26,2.5-.4.86-.14,1.69-.29,2.5-.43.8-.15,1.53-.29,2.18-.42.65-.14,1.16-.26,1.53-.36l.41,1.6c-.15.01-.34.03-.59.07-.24.03-.52.07-.82.12-.65.1-1.26.32-1.84.65-.58.33-1.1.76-1.56,1.27-.45.51-.81,1.09-1.06,1.73-.25.64-.38,1.31-.38,2.01,0,.9.23,1.65.68,2.28s1.06,1.11,1.83,1.47c.77.36,1.62.59,2.56.71-.18.2-.36.46-.53.78-.17.32-.28.58-.34.78ZM239.93,44.18c-.15-.24-.33-.49-.56-.77-.23-.27-.46-.53-.71-.78-.24-.25-.47-.45-.67-.61l.75-.61c.18.15.4.35.66.62.26.27.51.54.76.82.24.28.43.52.57.71l-.8.61ZM241.37,42.93c-.15-.23-.34-.47-.58-.74-.24-.27-.48-.52-.73-.77-.25-.24-.48-.44-.68-.6l.75-.63c.18.14.4.34.67.6.27.27.52.54.77.81.25.27.44.5.58.7l-.78.63Z"/>
      <path d="M72.39,75.28c-.02-.23-.07-.48-.14-.77-.07-.29-.14-.52-.22-.71h1.34c.23,0,.39-.04.5-.12.11-.08.16-.23.16-.46v-2.87h-6.94v-1.43h2.89v-4.13h1.56v4.13h2.48v-5.15h1.55v2.06h5.03v1.34h-5.03v1.75h6.95v1.43h-6.95v3.33c0,.56-.15.96-.45,1.22s-.77.38-1.4.38h-1.34ZM67.87,79.34c-.02-.11-.07-.27-.13-.48-.06-.2-.13-.41-.2-.6-.07-.2-.13-.34-.19-.43,1.61-.01,3.11-.2,4.5-.55,1.39-.36,2.62-.87,3.7-1.54s1.94-1.48,2.58-2.45l1.16,1.07c-.88,1.14-1.9,2.07-3.06,2.76-1.16.7-2.43,1.22-3.83,1.56-1.4.34-2.91.56-4.53.66ZM68.58,75.89c-.08-.1-.19-.22-.32-.36-.14-.14-.28-.27-.43-.4-.15-.13-.27-.22-.37-.28.4-.27.82-.63,1.26-1.07s.86-.9,1.24-1.39c.39-.48.68-.92.88-1.3l1.29.83c-.42.75-.96,1.47-1.61,2.17-.65.7-1.3,1.29-1.95,1.79ZM81.47,75.18c-.22-.23-.49-.49-.82-.79-.33-.3-.7-.6-1.09-.91s-.77-.59-1.14-.85c-.37-.26-.69-.47-.98-.63l.94-1.12c.29.16.64.37,1.03.62.39.26.79.53,1.2.83.41.3.79.59,1.14.88.35.28.63.53.83.73-.1.09-.23.22-.38.37-.15.16-.3.32-.43.48-.14.16-.23.29-.29.39Z"/>
      <path d="M94.95,78.86c-1.29.06-2.44,0-3.44-.18-1-.18-1.79-.52-2.36-1.02s-.86-1.22-.86-2.13c0-.54.16-1.01.48-1.4.32-.39.75-.7,1.28-.92.54-.22,1.15-.36,1.84-.42.69-.06,1.39-.03,2.12.09-.25-.29-.49-.61-.71-.96-.23-.35-.45-.7-.68-1.06-.73.12-1.45.24-2.18.34-.73.1-1.41.18-2.04.22-.63.05-1.18.07-1.63.07l-.34-1.39c.42.01.92,0,1.5-.04.58-.04,1.22-.1,1.9-.2.69-.09,1.38-.19,2.08-.31-.15-.29-.29-.6-.43-.9-.14-.31-.27-.61-.4-.9-.7.09-1.39.17-2.06.23-.67.06-1.25.09-1.75.09l-.31-1.38c.48.01,1.03,0,1.67-.06s1.29-.12,1.96-.2c-.29-.84-.49-1.54-.59-2.11l1.56-.19c.02.27.08.59.17.94.09.36.2.73.34,1.13.68-.11,1.32-.24,1.91-.37.59-.14,1.08-.28,1.47-.43l.39,1.36c-.37.12-.85.25-1.42.38-.57.13-1.19.25-1.86.37.12.28.26.57.4.87.14.29.29.59.43.88.86-.17,1.65-.35,2.36-.55.71-.2,1.26-.39,1.63-.57l.53,1.31c-.39.19-.92.39-1.59.58-.67.19-1.41.37-2.2.53.36.62.75,1.2,1.17,1.73.42.53.85.97,1.29,1.33l-.95,1.07c-.69-.34-1.38-.56-2.07-.65-.69-.1-1.3-.1-1.85,0-.55.1-.99.27-1.33.51-.33.24-.5.54-.5.89,0,.58.25,1.01.75,1.3.5.29,1.17.47,2.01.54.84.07,1.78.08,2.81.03-.12.2-.24.46-.33.78s-.16.57-.18.77Z"/>
      <path d="M108.77,78.85c-.16-.67-.39-1.43-.71-2.29-.31-.86-.67-1.76-1.09-2.69-.41-.93-.86-1.84-1.33-2.71-.77.35-1.48.68-2.12.99-.64.31-1.13.55-1.47.73l-.87-1.41c.41-.16.94-.38,1.61-.65.66-.28,1.37-.58,2.13-.91-.35-.61-.71-1.18-1.08-1.69-.37-.52-.73-.95-1.08-1.32l1.31-.71c.36.4.73.86,1.1,1.4.37.54.75,1.11,1.12,1.73.51-.23,1.01-.45,1.51-.67.5-.22.96-.42,1.39-.6-.19-.46-.44-.95-.73-1.45-.29-.5-.57-.88-.83-1.16l1.34-.66c.17.22.35.48.54.78.19.31.38.62.57.95.19.33.34.64.47.94l.12-.07c.7-.29,1.38-.45,2.03-.46.65-.01,1.24.1,1.77.33.53.23.94.57,1.25,1,.31.44.46.95.46,1.56,0,.79-.18,1.44-.55,1.95-.37.5-.86.87-1.48,1.1-.62.23-1.31.33-2.08.31-.77-.02-1.56-.16-2.36-.41.02-.2.02-.48,0-.82-.02-.34-.06-.61-.1-.8.5.2,1.04.35,1.62.43.58.08,1.12.08,1.63,0,.51-.09.93-.27,1.25-.55.32-.28.48-.69.48-1.22,0-.45-.15-.8-.46-1.05-.31-.24-.71-.38-1.21-.4-.5-.02-1.05.08-1.65.32-.51.22-1.15.49-1.91.82-.76.33-1.56.68-2.37,1.05.49.87.95,1.77,1.39,2.69.44.92.82,1.81,1.16,2.67.34.86.62,1.64.83,2.35-.23.05-.5.13-.83.26-.33.12-.59.25-.78.37Z"/>
      <path d="M124.08,79.02c-.1-.17-.24-.38-.41-.62-.17-.24-.37-.46-.59-.64,1.26-.36,2.22-.83,2.89-1.39.67-.57,1.1-1.24,1.29-2.02-.43.34-.9.51-1.41.51-.77,0-1.39-.23-1.86-.69s-.72-1.05-.74-1.78c-.01-.51.1-.97.32-1.37.23-.4.54-.72.95-.95.41-.23.87-.35,1.39-.35.12,0,.25,0,.37.02.12.01.24.03.35.07-.03-.26-.07-.54-.09-.82-.03-.29-.04-.59-.04-.89-.93.03-1.83.08-2.71.14-.88.06-1.69.14-2.42.22-.74.09-1.35.18-1.85.28l-.25-1.51c.45-.05,1.06-.09,1.81-.14.75-.05,1.6-.09,2.54-.14.94-.05,1.9-.1,2.89-.14v-2.57h1.51v2.52c.86-.05,1.69-.08,2.49-.1.8-.02,1.53-.04,2.18-.06.66-.02,1.2-.02,1.61,0l-.08,1.55c-.69-.07-1.59-.11-2.69-.13-1.1-.02-2.28,0-3.51.04,0,.44.01.9.04,1.37.03.47.06.92.09,1.35.49.61.73,1.42.73,2.41,0,1.39-.42,2.59-1.27,3.6s-2.02,1.75-3.53,2.25ZM125.87,73.51c.34-.01.61-.12.82-.33.21-.21.31-.48.31-.81,0-.12,0-.26-.02-.39s-.03-.28-.05-.43c-.27-.31-.61-.46-1-.46-.35,0-.65.11-.89.34-.24.23-.36.52-.35.88,0,.35.11.64.32.87.21.23.5.33.85.32Z"/>
      <path d="M147.13,78.69c-.94.05-1.84.01-2.7-.1-.86-.11-1.63-.32-2.29-.62-.67-.3-1.2-.71-1.58-1.22-.39-.51-.58-1.14-.58-1.89,0-.58.16-1.08.47-1.5s.74-.77,1.28-1.02,1.17-.42,1.88-.5c.71-.08,1.46-.06,2.25.07-.77-.94-1.38-1.96-1.84-3.06-1.08.09-2.13.16-3.15.22-1.03.06-1.9.08-2.63.07l-.24-1.55c.67.05,1.49.06,2.47.04.97-.02,1.99-.07,3.06-.14-.33-1.05-.49-2.09-.49-3.11h1.58c-.01.49.02.98.09,1.48.07.5.18,1,.33,1.5,1.1-.11,2.13-.24,3.08-.39.95-.15,1.7-.3,2.24-.46l.27,1.5c-.56.12-1.28.25-2.18.37-.9.12-1.87.24-2.9.34.36.78.81,1.52,1.35,2.21.54.69,1.16,1.3,1.88,1.82l-.95,1.1c-.52-.26-1.07-.45-1.65-.58-.58-.12-1.14-.18-1.69-.18-.55,0-1.05.07-1.49.2-.44.13-.79.33-1.05.59-.26.26-.39.59-.39.99,0,.46.16.85.49,1.16.33.31.78.55,1.35.71.57.16,1.23.27,1.97.31.74.05,1.53.04,2.35-.02-.14.22-.26.49-.38.83-.12.34-.19.61-.21.82Z"/>
      <path d="M162.22,78.81c-1.21,0-2.17-.33-2.88-.99-.71-.66-1.07-1.61-1.08-2.85,0-.19,0-.43.03-.71.02-.28.04-.59.06-.93-.73-.09-1.41-.2-2.06-.31s-1.17-.25-1.56-.38l.25-1.48c.35.15.84.28,1.48.41.63.12,1.31.23,2.02.31.04-.43.09-.88.14-1.36.05-.48.1-.95.14-1.41-.62-.09-1.22-.19-1.78-.29-.56-.1-.99-.19-1.28-.27l.25-1.5c.26.1.66.21,1.21.31.54.11,1.13.21,1.75.3.09-.74.17-1.41.23-2.02.06-.61.1-1.08.13-1.39l1.65.26c-.07.33-.14.79-.23,1.39s-.17,1.25-.26,1.96c.42.05.8.08,1.16.1.35.02.63.03.85.02l-.22,1.48c-.22,0-.49-.01-.83-.04-.34-.03-.71-.07-1.12-.11-.05.45-.09.91-.14,1.38-.05.46-.09.92-.13,1.36.48.02.92.04,1.33.04.41,0,.76,0,1.03-.03l-.15,1.48c-.66.03-1.43.02-2.31-.05-.03.56-.05,1.03-.05,1.43,0,.78.19,1.37.56,1.76s.98.59,1.82.59,1.44-.2,1.9-.59c.46-.4.69-.96.69-1.7,0-.6-.19-1.23-.56-1.9-.37-.66-.93-1.23-1.67-1.71.24-.05.49-.13.77-.25s.47-.24.6-.35c.82.59,1.43,1.26,1.84,2.01.41.75.62,1.5.62,2.24s-.18,1.44-.53,2.01c-.35.57-.84,1.01-1.46,1.33-.62.31-1.35.47-2.19.47Z"/>
      <path d="M171.3,79.27c-.01-.14-.03-.3-.07-.5-.03-.2-.07-.39-.12-.59-.05-.19-.09-.34-.14-.44h1.21c.23,0,.39-.04.49-.12.1-.08.15-.23.15-.44v-3.55c-.51.19-.97.36-1.39.51-.41.15-.7.24-.86.29l-.37-1.58c.26-.06.63-.16,1.1-.31.48-.15.98-.31,1.51-.49v-3.48h-2.4v-1.45h2.4v-3.26h1.5v3.26h1.92v1.45h-1.92v2.96c.48-.17.9-.33,1.28-.48.38-.15.65-.27.81-.35v1.46c-.15.08-.41.2-.79.37-.38.16-.81.34-1.3.54v4.69c0,.53-.14.92-.43,1.16-.29.24-.73.37-1.33.37h-1.26ZM178.17,79.37c-.08-.15-.21-.34-.4-.58-.19-.24-.36-.41-.52-.53.7-.31,1.35-.66,1.94-1.07.59-.41,1.11-.87,1.56-1.39-.61-.78-1.12-1.65-1.51-2.6-.34,1.2-.79,2.28-1.35,3.25-.56.96-1.26,1.86-2.1,2.69-.11-.14-.29-.3-.54-.48-.24-.19-.44-.32-.6-.4.79-.74,1.46-1.57,2-2.51.54-.93.97-2.02,1.28-3.25.32-1.23.54-2.64.66-4.24h-1.9v-1.39h1.99c.02-.46.04-.95.04-1.45,0-.5,0-1.01,0-1.53h1.51c0,.52,0,1.03-.02,1.53-.01.5-.03.98-.05,1.45h5.27v1.39h-5.35c-.02.31-.05.6-.08.89-.03.29-.06.57-.11.84h4.27l.44.29c-.19,1.12-.45,2.13-.77,3.03-.32.9-.73,1.7-1.22,2.41.5.48,1.04.9,1.63,1.28.59.38,1.22.72,1.89,1.01-.16.12-.34.31-.54.57s-.34.47-.43.65c-.66-.33-1.27-.69-1.84-1.08-.57-.39-1.11-.83-1.61-1.32-.46.5-.99.95-1.57,1.37-.58.41-1.24.8-1.96,1.16ZM181.62,74.63c.29-.46.54-.97.74-1.5.2-.54.35-1.12.47-1.74h-2.84c.18.62.41,1.2.69,1.74.28.54.59,1.04.94,1.5Z"/>
      <path d="M199.37,79.29v-4.05h-3.08v-1.36h3.08v-2.19h-2.55v-1.36h2.55v-2.01h-2.67v.41h-1.09v2.89h-3.37c-.14.58-.31,1.12-.51,1.63h3.88v5.78h-5.02v-3.69c-.37.52-.82,1.03-1.33,1.53-.14-.14-.32-.31-.56-.51-.24-.2-.44-.35-.6-.43,1.31-1.17,2.2-2.61,2.65-4.32h-1.55v-1.29h1.8c.08-.51.13-1.04.15-1.6h-2.65v-1.27h2.67v-1.56h-1.94v-1.31h6.36v2.87h.88v-.44h1.68c-.11-.27-.26-.57-.43-.88-.18-.32-.35-.63-.54-.93-.18-.31-.35-.56-.51-.77l1.24-.61c.16.2.34.47.54.8.2.33.39.67.58,1.01.19.35.34.65.45.93-.1.03-.25.1-.43.19-.19.09-.36.18-.52.27h1.82c.17-.31.35-.67.53-1.09.18-.42.35-.83.51-1.23.16-.4.28-.73.36-.98l1.45.43c-.09.24-.21.52-.37.86-.15.33-.31.68-.48,1.04s-.34.68-.51.98h2.01v1.31h-3.01v2.01h2.72v1.36h-2.72v2.19h3.28v1.36h-3.28v4.05h-1.48ZM192.01,77.66h2.21v-3.01h-2.21v3.01ZM192.47,70.33h1.73v-1.6h-1.61c-.01.27-.03.54-.04.81-.02.27-.04.53-.08.79ZM192.61,67.46h1.6v-1.56h-1.6v1.56Z"/>
      <path d="M211.34,78.92c-.34,0-.63-.12-.88-.37-.24-.24-.37-.54-.37-.88s.12-.63.37-.87.54-.36.88-.36.63.12.88.36.37.53.37.87-.12.63-.37.88c-.24.24-.54.37-.88.37ZM210.67,74.9c-.01-.2-.03-.52-.05-.94-.02-.42-.05-.9-.07-1.43-.02-.53-.04-1.08-.06-1.65-.02-.57-.03-1.1-.04-1.61-.01-.51-.02-.95-.03-1.31-.01-.36-.02-.61-.02-.73v-2.82h1.89v2.82c0,.12,0,.37-.02.73-.01.36-.02.8-.03,1.31s-.03,1.05-.05,1.61c-.02.57-.05,1.12-.07,1.65-.02.53-.04,1.01-.06,1.43-.02.42-.04.73-.06.94h-1.33Z"/>
    </g>
    <g>
      <rect class="cls-2" x="56.26" y="5.16" width="72.36" height="16.76"/>
      <g>
        <g>
          <path d="M65.37,8.46c.92,0,1.61.2,2.08.6.47.4.71.95.71,1.64s-.32,1.22-.95,1.61c-.55.34-1.29.52-2.22.52h-.94v3h1.04v.35h-3.11v-.35h1.05v-7.02h-1.05v-.35h3.39ZM66.38,12.11c.43-.32.63-.8.62-1.44-.02-.64-.16-1.11-.44-1.41-.28-.3-.72-.45-1.32-.45h-1.19v3.72h.96c.56,0,1.02-.14,1.37-.41Z"/>
          <path d="M77.18,9.38c.61.73.92,1.69.92,2.87s-.32,2.16-.96,2.93c-.64.77-1.44,1.15-2.4,1.15s-1.78-.39-2.47-1.18c-.67-.79-1-1.77-.99-2.93.01-1.16.35-2.11.99-2.86.65-.74,1.47-1.11,2.49-1.11s1.82.37,2.42,1.12ZM74.74,15.94c.69,0,1.22-.33,1.58-1s.54-1.55.54-2.65-.16-1.97-.47-2.59c-.37-.73-.95-1.1-1.72-1.1s-1.34.35-1.7,1.04c-.3.59-.45,1.47-.45,2.64,0,2.43.74,3.65,2.22,3.65Z"/>
          <path d="M84.35,15.83v.35h-3.2v-.35h1.05v-7.02h-1.05v-.35h3.2v.35h-1.04v7.02h1.04Z"/>
          <path d="M95.06,8.46v.35c-.43,0-.69.04-.76.11-.19.19-.29.48-.29.86l.02,6.59h-.26l-4.74-7.3v5.8c0,.39.09.67.28.85.07.07.33.11.76.11v.35h-2.48v-.35c.42,0,.66-.03.74-.1.21-.18.31-.47.31-.86v-5.8c-.02-.17-.13-.26-.34-.26h-.63v-.35h2.24l3.71,5.77v-4.45c0-.38-.1-.67-.31-.87-.08-.07-.33-.1-.74-.1v-.35h2.48Z"/>
          <path d="M104.93,8.46l.02,2.27h-.34c-.04-.63-.21-1.09-.5-1.39-.29-.3-.8-.47-1.53-.51l-.52-.02v7.02h1.05v.35h-3.11v-.35h1.04v-7.02l-.5.02c-.72.03-1.23.19-1.52.48-.29.29-.46.76-.53,1.43h-.32l.02-2.27h6.74Z"/>
        </g>
        <path d="M113.33,2.99l-.52-.23c.25-.83.72-1.5,1.41-2s1.42-.76,2.22-.76c.89,0,1.56.21,2.02.63.46.42.69.96.69,1.6,0,.42-.1.82-.3,1.19-.2.37-.5.71-.9,1.02-.17.14-.96.68-2.36,1.64.88.2,1.52.54,1.91,1.01.39.47.59,1.05.59,1.74,0,1.11-.41,2.31-1.23,3.61-.82,1.3-1.99,2.34-3.5,3.12-1.51.78-3.07,1.17-4.66,1.17-.17,0-.42,0-.76-.01l.11-.53c1.04,0,2.06-.18,3.06-.55,1-.37,1.88-.9,2.63-1.59.76-.69,1.37-1.47,1.83-2.34.46-.87.7-1.68.7-2.43,0-.62-.17-1.11-.5-1.47-.33-.36-.76-.54-1.27-.54-.34,0-.74.12-1.22.37-.67.34-1.15.66-1.45.95-.19-.18-.31-.33-.35-.47.51-.44,1.15-.9,1.93-1.37,1.13-.68,1.9-1.18,2.3-1.52.54-.45.94-.91,1.21-1.38.26-.47.39-.97.39-1.48,0-.38-.13-.7-.39-.95-.26-.25-.61-.37-1.04-.37-.46,0-.92.15-1.38.46-.47.31-.85.81-1.14,1.49Z"/>
        <polyline class="cls-3" points="120.68 3.66 126.77 3.66 126.77 16.95"/>
        <line class="cls-3" x1="54.67" y1="3.66" x2="106.9" y2="3.66"/>
        <polyline class="cls-3" points="126.77 20.15 54.67 20.15 54.67 6.86"/>
      </g>
    </g>
    <path class="cls-1" d="M.68,14.68c1.5.42,3.77.14,5.33.2,0,0,5.33-.04,5.33-.04,8.8-.04,20.58-.28,29.34-.17.89.01,1.78.04,2.68-.18.28-.07.56.1.62.38.1.37-.28.73-.65.62-.88-.26-1.77-.3-2.66-.31-8.74-.18-20.54-.05-29.33.11-1.72.03-6.33.1-8,.11-.89.02-1.78-.03-2.67.26-.28.09-.57-.06-.66-.34-.14-.39.26-.8.66-.66h0Z"/>
  </g>
</svg>