<?xml version="1.0" encoding="utf-8"?>
<!-- Generator: Adobe Illustrator 26.2.1, SVG Export Plug-In . SVG Version: 6.00 Build 0)  -->
<svg version="1.1" id="レイヤー_1" xmlns="http://www.w3.org/2000/svg" xmlns:xlink="http://www.w3.org/1999/xlink" x="0px"
	 y="0px" viewBox="0 0 906 569" style="enable-background:new 0 0 906 569;" xml:space="preserve">
<style type="text/css">
	.st0{opacity:0.3;}
	.st1{fill:#9D1B5B;}
	.st2{fill:#FFFFFF;}
	.st3{fill:#231815;}
</style>
<g class="st0">
	<path class="st1" d="M287.8,136.1l-67.9,231.5L242.3,127c-121.8-11.4-229.7,78.1-241,199.9s78.1,229.7,199.8,241
		s229.6-78.1,241-199.9C452,262,385.5,166.5,287.8,136.1z"/>
</g>
<g>
	<g>
		<path class="st2" d="M625.4,338.3c-32.6,0-59.6-10.7-74.3-29.5c-8.3-10.6-16.7-29.1-9.5-57.1c10.1-40.2,42.3-61.9,87.5-84.3
			l-9.2-4.7h3.7c-5.5-4-11-8.8-15.7-14.4c-14.6-17.1-19-37.7-13.1-61c5.8-23.1,21.4-44.8,43.9-60.9c22.1-15.9,48.2-24.7,73.7-24.8
			c0.2,0,0.4,0,0.7,0c26.3,0,48.8,9.4,61.8,25.9c11,14.1,14.4,32.4,9.5,51.7c-9.1,36.2-39.8,58.9-64.1,73.7
			c23.1,15.5,50.9,41.6,39,88.9c-6.7,26.3-23.2,50.4-46.7,68c-24.6,18.5-54.4,28.3-86.2,28.5l0,0C626,338.3,625.7,338.3,625.4,338.3
			z M661.5,184c-26.2,15-59.3,35.7-68.2,71.1c-3.9,15.3-2.3,28,4.6,36.8c6.9,8.8,19.4,13.7,35.1,13.6c31.1-0.2,69.3-20.8,78.8-58.6
			C718.9,218.3,702,205.1,661.5,184z M705.7,33.9C684.2,34,650.1,48.7,642,80.8c-4,15.7,0.7,23.2,11.2,32.4l0.1,0.1
			c8.7,7.7,21.7,15.7,36.1,22.3c14.7-9.2,42.4-28.6,49.5-56.7c3.2-12.8,1.3-25.4-5.2-33.7c-5.9-7.5-15.2-11.3-27.6-11.3
			C706,33.9,705.9,33.9,705.7,33.9L705.7,33.9z"/>
		<path class="st2" d="M394.6,339.7c-20.5,0-36.7-6.3-45.6-17.7c-6.7-8.5-8.8-19.3-6-30.4c4.4-17.4,17-27.4,34.6-27.5
			c0.1,0,0.2,0,0.3,0c12.3,0,18.9,5.1,22.3,9.4c5.8,7.4,6,17.5,4.2,24.4c-1.3,5-1.5,7.4-1.4,8.5c0.6,0.2,1.8,0.5,3.9,0.4
			c12.6-0.1,25.7-7.4,33.1-13.6l0.1-0.1c33.6-27.7,52-66.4,64-100.8c-19.6,16.8-41.7,29.7-70.7,29.9c-22.2,0.1-40.3-8-52.5-23.6
			c-15.3-19.5-19.3-49.3-11.1-81.8c7.9-31.1,25.5-60,49.8-81.4c23.9-21,51.6-32.7,78-32.9c0.2,0,0.3,0,0.5,0
			c23.8,0,44.8,10.1,59.3,28.6c22.3,28.5,27.2,73.4,13.7,126.6c-10.8,42.8-33.5,86.5-62.4,120.1c-34.5,40.1-73.7,61.4-113.5,61.7
			l0,0C395,339.7,394.8,339.7,394.6,339.7z M495.4,36.4c-0.3,0-0.5,0-0.8,0c-37.4,0.2-62.3,46.3-72.3,85.7
			c-6.2,24.6-5.6,44.1,1.8,53.6c4.3,5.4,11.2,8,21.2,8c26.1-0.2,52.3-20.1,77.9-59.3c4.9-34.8,4.6-51.3-1-67.2
			C515.6,38.6,508.9,36.4,495.4,36.4z"/>
		<path class="st2" d="M773.7,323.2l-21.5-13.4l46.6-49.3c-1.8,0.3-3.5,0.4-5.2,0.4l0,0c-0.1,0-0.1,0-0.2,0
			c-10,0-19.3-4.4-25.3-12.2c-7-9-9.2-21.3-6.1-33.9c5.7-22.7,27.5-41.4,48.5-41.6c0.1,0,0.1,0,0.2,0c10,0,19.1,4.4,25.2,12.2
			c6,7.6,8.5,17.7,7.1,28.3l41.3-43.7l21.5,13.4l-46.6,49.3c1.7-0.3,3.5-0.4,5.2-0.4c0.1,0,0.1,0,0.2,0c10,0,19.3,4.4,25.3,12.2
			c7,8.9,9.2,21.3,6,33.9c-5.6,22.4-27.9,41.4-48.5,41.5l0,0c-0.1,0-0.1,0-0.2,0c-9.9,0-19.1-4.4-25.1-12.1
			c-6-7.6-8.5-17.7-7.2-28.2L773.7,323.2z M863.5,256.3c-5.4,0-13.8,9.2-17.1,22.4c-1.9,7.6-1.2,14.5,0.6,16.8
			c0.2,0.3,0.4,0.5,1.4,0.5c5.4,0,13.8-9.2,17.1-22.4c1.9-7.5,1.2-14.6-0.5-16.8C864.7,256.6,864.6,256.3,863.5,256.3L863.5,256.3
			L863.5,256.3z M809.6,197.3c-5.6,0-13.8,9-17.1,22.4c-1.9,7.5-1.2,14.4,0.5,16.6c0.2,0.2,0.4,0.5,1.5,0.5
			c6.7,0,14.3-11.7,16.9-22.2c1.9-7.6,1.2-14.6-0.5-16.8C810.8,197.5,810.6,197.3,809.6,197.3L809.6,197.3z"/>
	</g>
	<g>
		<path class="st1" d="M395.1,329.7c-31.6,0.2-47.4-15.8-42.4-35.6c3.6-14.5,13.7-19.9,24.9-20c19.9-0.1,18.3,16.4,17.1,21.3
			c-2.5,9.9-4.5,21.5,12.3,21.4c14.3-0.1,29.6-7.6,39.5-15.9c47.5-39,65.7-97.7,78.8-142.8c-27.3,27.8-52.5,53.9-91.9,54.2
			c-46.8,0.3-66.9-41.2-53.9-92.9C395,58,449.1,13.1,497.6,12.8c50.6-0.3,87,51,63.8,142.7C541.8,233.2,475.6,329.3,395.1,329.7z
			 M531.7,53.8c-8.7-23.9-19.8-27.5-37.2-27.4c-47.2,0.3-73,58.2-81.9,93.3c-5.6,22.3-14.4,74.3,32.7,74
			c44.6-0.3,76.8-49.1,87.5-65.7C538,92.6,538.5,73.2,531.7,53.8z"/>
		<path class="st1" d="M626.2,328.3c-45.9,0.3-88-23-75-74.2c10.5-41.7,48-61.7,100-86.4c-21.3-11.4-58.5-31.8-46.8-78.1
			c10.9-43.4,59.8-77.9,107.9-78.2c43.3-0.3,71.9,26.8,62.2,65.2c-10,39.7-49.8,62.2-73.6,75.9c22.9,13.9,61.3,36.3,48.6,86.7
			C737.2,287.7,688.1,328,626.2,328.3z M661.2,172.7c-27.8,15.8-67.2,38.4-77.7,80.1c-10,39.6,12.6,63,49.4,62.8
			c35.1-0.2,77.6-23.1,88.4-66.1C731.2,210.6,702.5,193.8,661.2,172.7L661.2,172.7z M705.7,23.9c-26,0.2-64.1,17.7-73.4,54.5
			c-5.1,20.2,1.6,31.3,14.4,42.4c10.6,9.4,26.4,18.8,43.5,26.1c14.3-8.7,49.6-30.4,58.5-65.5C755.4,54.5,743.8,23.7,705.7,23.9z"/>
		<path class="st1" d="M772.1,310.4l-4.2-2.6l118-124.8l4.2,2.6L772.1,310.4z M793.5,250.9c-16.1,0.1-26.5-15.2-21.8-33.6
			c4.7-18.7,23.1-33.9,38.9-34c15.6-0.1,26.4,14.9,21.7,33.6C827.5,235.5,809.1,250.8,793.5,250.9L793.5,250.9z M809.5,187.3
			c-13.7,0.1-23.6,17.2-26.8,29.9c-3.1,12.2-2.1,29.6,11.8,29.5c13.5-0.1,23.4-17.2,26.6-29.8C824.3,204.4,823.1,187.2,809.5,187.3z
			 M847.4,309.9c-16,0.1-26.2-15.4-21.7-33.6c4.7-18.5,22.8-33.9,38.7-33.9s26.5,15,21.8,33.6C881.6,294.5,863.2,309.8,847.4,309.9z
			 M863.4,246.3c-13.4,0.1-23.5,16.8-26.8,29.9c-3.3,12.9-1.6,29.8,11.7,29.7s23.5-16.8,26.8-29.9
			C878.4,263.3,877,246.3,863.4,246.3L863.4,246.3z"/>
	</g>
</g>
<g id="man_txt">
	<g>
		<path class="st2" d="M191.8,104.7l0.6-6.2c0.3-3.3-1.1-4.2-2.3-5.1l-2.7-1.9l0.6-3h-1.9c-1.3,2.6-3.7,5.4-8.5,5.4
			c-0.4,0-0.8,0-1.1-0.1c0,0.2-0.1,0.3-0.1,0.5c-1,4-1.4,5.6-3.7,7.5l-0.4,0.3c-2.1,1.4-4.5,2.1-6.9,2.1c-2.8,0-4.9-0.9-6.3-2.7
			c-0.2-0.2-0.3-0.5-0.5-0.7c-2,1.9-4.5,3-7.3,3.2H151c-2.7,0-5.1-1.1-6.7-3.1c-1.6-2-2.1-4.7-1.5-7.5v-0.2c0.2-0.7,0.8-2.5,1.5-5
			c0.3-0.9,0.5-1.7,0.7-2.1c0.4-1.7,0.2-2.3,0.2-2.3c-0.1-0.1-0.6-0.4-0.8-0.5l-3-1.7l1.4-8.6l4.6,0.4c1.1,0.1,1.3,0,1.3,0l0,0
			c0,0,0.1,0,0.2-0.1l0.2-0.2c0.9-0.8,3.2-3.6,5.8-7c-3.2-1.8-4-5.7-4.5-8.5v-0.3c-0.2-1.4-0.8-2.9-1.7-4.1l-2-2.7l3.8-6.3L155,45
			c2.3,0.4,4.4,0.8,6.3,1.5c-0.7-1.2-1-2.6-1.3-3.8l-0.1-0.5c-0.4-1.7-1.3-3.5-2.4-4.9l-1.4-1.7l1.2-7.2l4.4,0.2
			c3.2,0.1,6.2,0.6,8.9,1.6l0.3,0.1c3.1,1.3,5.1,3.1,6.3,5.1h0.4c2.1,0.2,4,0.3,5.7,0.3c0.3-1.9,0.4-2.9,0.4-4.9l0.2-6.2l14.5,3
			c0.9,0.2,1.7,0.5,2.4,0.8l0.2-4.1l14,2.8c1.4,0.3,3.4,0.9,4.7,2.9c0.1,0.1,0.1,0.2,0.2,0.3c1.2,0.2,2.8,0.7,4.3,2.5l3.6,3.9
			c1.5,1.6,2.1,3.8,1.6,5.9v0.2c-0.4,1.4-1.3,2.8-2.9,3.6l1.1,1c1.6,1.6,2.2,3.9,1.7,5.9l-0.1,0.4c-0.7,2-2.6,4.1-6.1,4.1
			c1.7,2,1.6,4,1.2,5.5c-0.6,2.1-2,3.3-3.7,4.3c-1.6,6.5-5.3,22-5.4,22.7v0.1c-2.3,9.6-10.5,12.6-17.1,13.4L191.8,104.7z
			 M223.1,37.2L223.1,37.2L223.1,37.2z"/>
		<path class="st2" d="M212.7,104.3l-4.9-8.2l4.2-2.6c10.5-6.5,19.6-23,21.4-29.6c0.2-0.9,0.4-1.8,0.4-2.8l0.5-6.2l1.2,0.3
			c0.4-1.4,1-3.8,2-7c0.7-2.5,1.5-5.4,1.7-6.2c0.9-3.7,1.7-7.5,2.3-11.6l1-6.5l13.3,5.9l24.9-0.2l1.8-1.6c1-0.8,2.5-2.1,4.6-2.1h0.5
			l0.5,0.1c1.5,0.3,2.8,0.9,3.8,1.9l4.4,3.9c2.4,2.4,2.2,4.8,1.7,6.4c-0.6,2-2.4,3.5-4,4.6l-1.5,6.1c-0.1,0.5-0.4,2.1-0.7,3.4
			c-0.5,2.3-0.7,3.8-0.9,4.5c-0.3,1.3-1.2,3.7-3.5,5.6l3.7,3.9c2.1,2.1,2.1,4.3,1.8,5.8c-0.2,0.8-1.4,4.6-6.3,4.6l-18.9,0.1
			l-1.6,6.4c1.2,0,2.5,0.1,3.9,0.1c4.4,0,12.9-0.3,20.2-2.1l6.2-1.6V89l-2,1.5c-3.1,2.3-5.1,4.9-6.3,8l-1.1,2.8l-3,0.4
			c-3,0.4-5.7,0.5-8.2,0.5c-14.7,0.1-30.1-1.7-37.2-13.5c-4.7,5.2-11.5,10.6-22.1,14.4L212.7,104.3z M247.5,75.8
			c0.3,0.9,0.7,1.7,1.4,2.5l2-7.9c-0.3,0.2-0.6,0.4-1,0.7C249.1,72.6,248.3,74.2,247.5,75.8z M271.8,61l-1.1,4.2h2.7l1.4-1.5
			c-0.6-0.4-1-0.9-1.3-1.3c-0.3-0.4-0.6-0.9-0.8-1.3L271.8,61z M252.7,61.2c0.1,0.1,0.3,0.3,0.4,0.5l0.1-0.5H252.7z M257.2,41.7
			l-2,7.8l18.2-0.1l2-7.7H257.2z"/>
		<path class="st2" d="M292.8,104.3L285,98l3.7-3.9c5.4-5.8,8.9-15.2,9.8-17.9c2.4-6.6,4.4-13.6,6.4-21.5c1.7-6.9,3.3-13.3,3.6-19.6
			l0.3-7.3l15.4,6.8l10.4-0.1c0.5-2.7,0.3-3.6,0.2-4.3l-1.3-7.2l17.7,3.4c2.1,0.4,3.7,1.4,4.6,2.9c0.8,1.3,1,2.9,0.6,4.4
			c-0.1,0.2-0.1,0.4-0.2,0.6h4.1l3.6-3.4c1-1,2.5-2.4,4.9-2.4c2.3,0,3.7,1.2,4.3,1.8l0.3,0.3l5.6,5c0.3,0.3,2,2.1,2,4.5v0.8
			l-0.3,0.8c-0.9,2.7-3.4,4.3-6.1,4.2l1.9,1.7c1.8,1.4,2.8,3.8,2.3,6.1l-0.1,0.4c-0.6,2.1-2.6,4.4-6.3,4.4l-14.7,0.1
			c-0.6,2.5-1,4.2-1.4,5.5l4.2,4c1.7,1.5,2.5,3.8,2.1,6l-0.1,0.5l-0.2,0.4c-0.7,1.7-2.1,3.1-3.8,3.9c-1.3,0.5-2.6,1-3.8,1.3
			c-0.7,0.6-1.3,1.3-2,1.9c4.3,0.6,9,0.8,13.4,0.6l6.2-0.4l-1.5,9.2l-2.2,1.2c-2.7,1.4-6.5,3.7-8,7.2l-1.5,3.4l-3.7-0.4
			c-6.9-0.8-16.2-4.5-21.9-7.9c-9.5,4.4-20.5,7.1-33.2,8.2l-5.4,0.5v-1.1L292.8,104.3z M352,92.1c0.4,0.1,0.9,0.2,1.3,0.3
			c0-0.1,0.1-0.1,0.1-0.2C352.9,92.3,352.5,92.2,352,92.1z M315.5,78.1c-2,4-4.4,8-7.4,11.8c5.2-1.8,10.2-4,14.9-6.5
			c-0.9-1.9-1.7-3.9-2.2-6c-1.4,0.1-2.8,0.2-4.2,0.5L315.5,78.1z M320.3,65.5h0.1c0-0.3,0.1-0.7,0.2-1
			C320.5,64.8,320.4,65.2,320.3,65.5z M322.2,59c-0.1,0.4-0.2,0.9-0.4,1.3C321.9,59.9,322,59.5,322.2,59C322.2,59,322.2,59,322.2,59
			L322.2,59z M372.3,53.6v-1.1l0,0V53.6z M372.3,52.4L372.3,52.4v-3.8l0,0V52.4z M325.1,47h0.2c0.1-0.3,0.1-0.6,0.1-0.8h-0.1
			C325.3,46.4,325.2,46.7,325.1,47z"/>
	</g>
	<g>
		<path class="st3" d="M223,52.9L199.8,53l-2,7.8l11.9-0.1l2.2-2.3c0.4-0.5,1.4-1.4,2-1.4s1.1,0.6,1.4,0.8l3.4,2.8
			c0.5,0.5,0.9,0.7,0.7,1.4s-0.9,1.2-3.2,2.4c-1,4-5.9,24.5-6,25c-0.5,2.1-2.1,8.3-12.8,9.6c0.6-6-2.7-8.5-4.4-9.7l0.1-0.5
			c2.5,0.3,5,0.4,7.5,0.3c2.2,0,2.3-0.5,3.4-4.7l5.6-22l-12.3,0.1l-4.9,19.2h3.4c2.6-9.5,3-10.8,3.6-15.7l6,1.2
			c1.1,0.2,1.4,0.4,1.3,0.8c-0.2,0.7-1.3,1.3-2.1,1.7c-0.6,2.4-3.3,13.9-3.7,14.7c-0.8,1.5-2.4,2.4-4.1,2.5c-2.4,0-2-1.4-1.4-3.4
			l-12.8,0.1c-0.6,2.4-1.4,5.4-5,5.4c-1.5,0-2.1-0.6-1.7-2.2c0.8-3.1,2.3-8.2,3.1-11.4c0.9-3.1,1.5-6.2,1.8-9.4l6.2,1.3
			c1.1,0.2,1.5,0.4,1.3,1c-0.1,0.4-0.7,0.8-2.3,1.8l-3,11.8h3.1l4.9-19.2l-12,0.1c-1.2,4.9-6.4,26-7.5,30.4c-0.9,3.7-1,4-2,4.8
			c-1.2,0.8-2.6,1.3-4.1,1.3c-2.9,0-2.7-1.5-2.4-2.6c0.1-0.3,0.2-0.7,0.3-1c2.1-6.7,5.2-18.9,7.3-27.2c1-3.6,1.8-7.3,2.3-11l7.7,3.5
			l10.8-0.1l2-7.8l-13.6,0.1c-2.9-0.1-5.8,0.1-8.6,0.6l-0.1-0.1c-1.7,3.5-13,25.9-13.6,27.9s0,10.7-0.4,12.5c-0.8,2.8-3.2,4.8-6.1,5
			c-2.1,0-4-1.5-3.3-4.5c0.3-1.1,1.9-6.1,2.2-7.1c1.5-5.8-1-7.4-2.9-8.5l0.1-0.6c2.2,0.2,3.6,0,5.1-1.2C154.9,75.4,169,56,171,53
			h0.1l-0.4-1.9c4.7,0.4,10.2,0.4,11.1,0.4h2.9c0.7-2.8,1.5-6.1,2.2-9c-3.1-0.1-6.2,0.1-9.3,0.6l-0.6-2.8c4.1,0.4,7.1,0.4,10.2,0.4
			c1.3-5.6,1.3-6.6,1.4-10l8.6,1.8c1.3,0.3,1.7,0.4,1.6,1s-1.7,1.4-3,2.3l-1.3,4.8l9.7-0.1c0.8-3.3,1.2-6.7,1.4-10.1l8.4,1.7
			c1.5,0.3,1.6,0.7,1.5,1.1s-1.7,1.6-2.6,2.1l-1.3,5.1h2.4l3.6-4.2c0.4-0.4,0.9-0.7,1.5-0.9c0.5,0,0.9,0.4,1.2,0.8l3.8,4.1
			c0.3,0.3,0.5,0.8,0.4,1.2c-0.2,0.7-0.8,0.8-1.4,0.8l-12,0.1c-0.1,0.5-2,7.6-2.3,9h4.1l3.9-4.4c0.3-0.3,0.9-0.9,1.4-0.9
			s0.8,0.4,1.2,0.8L224,51c0.3,0.3,0.5,0.8,0.4,1.2C224.2,52.8,223.5,52.9,223,52.9z M159.2,62c-2.6,0-2.9-1.5-3.6-5.3
			c-0.3-2.3-1.2-4.5-2.6-6.4l0.3-0.5c3.3,0.6,5.9,1,7.6,2c3.3,1.8,3.9,4.5,3.6,6.1C163.6,60.2,161.6,61.8,159.2,62L159.2,62z
			 M168.1,45.2c-2.4,0-2.5-0.8-3.4-4.2c-0.6-2.5-1.8-4.9-3.4-6.9l0.1-0.6c2.5,0.1,5.1,0.5,7.5,1.3c4.3,1.8,4.9,4.6,4.5,6
			C172.8,43.3,170.6,45,168.1,45.2z M203.8,42.2l-9.7,0.1c-0.6,2.5-1.6,6.6-2.3,9l9.7-0.1C202.3,48.7,203.8,42.3,203.8,42.2
			L203.8,42.2z"/>
		<path class="st3" d="M283.4,96.6c-2.5,0.3-5.1,0.5-7.6,0.5c-23.4,0.1-33.3-5.6-35.6-18.9c-4.2,6.6-11,14.9-25.3,20l-0.3-0.5
			c11.8-7.3,21.6-25,23.6-32.6c0.3-1.2,0.5-2.4,0.6-3.7l9.2,2.7c0.6,0.1,1.3,0.4,1.1,1s-0.4,0.8-3.2,2.6c-1.1,2.5-2.4,5-3.8,7.4
			c0.8,3.7,2.6,8.3,9.9,11.1l7.6-30.1l-11,0.1c-0.1,0.8-0.4,1.5-0.9,2.1c-1.5,1.2-3.3,1.9-5.2,1.9c-3.2,0-2.9-1.3-2.4-3
			c0.5-2.2,3.4-12,3.9-14.1c1-3.9,1.8-8,2.4-12l8.3,3.7l27.8-0.2l2.9-2.5c0.5-0.4,1.3-1.1,1.7-1.1c0.5,0.1,1,0.3,1.4,0.7l4.3,3.8
			c0.4,0.4,0.7,0.7,0.5,1.3c-0.3,1-3,2.6-3.6,2.9l-2,8.1c-0.3,1.2-1.3,6.7-1.6,7.8c-1,3.9-4.4,4.4-6.2,4.5c-3.6,0-2.9-2.4-2.4-4.2
			l-9.6,0.1l-3.7,14.2l11.4-0.1l4.6-5c0.3-0.5,0.8-0.8,1.4-0.9c0.5,0,0.8,0.2,1.2,0.7l4.7,5c0.4,0.4,0.6,0.7,0.5,1.1
			c-0.2,0.8-0.9,0.8-1.4,0.8l-22.8,0.1l-4,15.9c3.4,0.4,6.8,0.5,10.2,0.5c4.6,0,13.6-0.3,21.4-2.3v0.4
			C287.5,89.3,284.9,92.7,283.4,96.6z M281.9,36.6l-28.6,0.1l-4.5,17.8l28.5-0.2L281.9,36.6z"/>
		<path class="st3" d="M372.3,53.6l-18.7,0.1c-0.4,1.6-1.9,8.5-2.5,10c-1.4,3.2-5,3.2-5.6,3.2c-3.1,0-2.6-1.7-2.2-3.1l-9.5,0.1
			c-0.2,1.2-1,2.3-2.1,2.9c-1.2,0.7-2.5,1.1-3.8,1.1c-1.4,0-2.9-0.5-2.3-2.6c0.2-1,2.9-9.6,3.3-11.4L318.3,54
			c-4.2,16.8-8.4,30.5-25.5,43.9l-0.5-0.4c6.3-6.8,10.1-17.4,10.9-19.7c2.6-7.3,4.7-14.6,6.5-21.9c1.7-6.9,3.4-13.8,3.7-20.6
			l9.7,4.3l15.5-0.1c1.7-6.8,1.4-8.6,1.1-10.2l10.5,2c0.5,0.1,1.5,0.4,1.3,1.1c-0.2,0.7-2.2,1.9-3.6,2.6c-0.3,0.9-0.4,1.2-1.2,4.4
			l15.5-0.1l5.1-4.8c0.7-0.7,1-1,1.4-1c0.5,0,0.7,0.3,1.3,0.8l5.4,4.8c0.2,0.2,0.5,0.7,0.5,1c-0.2,0.6-0.8,0.9-1.4,0.8l-53.1,0.3
			c-0.4,1.7-2.3,9.3-2.6,10.8h10.6c1.5-7,1.3-8.1,1.1-9.1l9.1,1.8c0.5,0.1,1.3,0.4,1.1,1.1c-0.1,0.5-0.4,0.7-1,1l-1.9,1.2l-1,3.9
			l9.6-0.1c1.3-5.3,1.5-6.1,1.5-9.2l9,1.8c0.6,0.1,1.4,0.3,1.2,1s-2,1.9-3,2.6l-1,3.8h6.5l4.9-4.7c0.7-0.7,1-1,1.5-1
			s0.8,0.4,1.3,0.9l5,4.6c0.4,0.2,0.6,0.7,0.5,1.2C373.6,53.5,372.9,53.6,372.3,53.6z M355.9,98c-7.2-0.8-17.8-5.4-22-8.7
			c-11,5.6-22.7,8-34.1,9v-0.7c10.6-2.7,20.8-6.8,30.2-12.4c-2.9-3.7-4.6-8.1-5.1-12.8c-3.1-0.1-6.2,0.1-9.2,0.6l-0.6-2.8
			c4.7,0.4,10.2,0.4,11.1,0.4l19.4-0.1l4.3-3c0.4-0.3,0.9-0.6,1.4-0.8c0.3,0,0.6,0.3,1.2,0.8l4.6,4.4c0.4,0.3,0.6,0.8,0.5,1.3
			c-0.2,0.5-0.6,0.9-1.1,1.1c-1.4,0.6-2.9,1.1-4.4,1.4c-3.4,3.4-7,6.4-11,9c5.8,2.1,16.6,3.5,25.2,3l-0.1,0.6
			C363.3,89.8,358.2,92.7,355.9,98z M327.2,72.5c1.8,3.7,4.4,6.9,7.8,9.3c3.7-2.7,7-5.8,9.9-9.4L327.2,72.5z M346,53.8l-9.6,0.1
			l-2.1,8.2l9.6-0.1L346,53.8z"/>
	</g>
</g>
<g>
	<path class="st3" d="M831.3,17.8l1.1,1.1l-12.2,12.3l12.2,12.3l-1.1,1.1l-12.2-12.1l-12.2,12.1l-1.1-1.1L818,31.3L805.8,19l1.1-1.1
		L819.1,30L831.3,17.8z M811.8,31.2c0,1.4-1.1,2.6-2.6,2.6l0,0c-1.5,0-2.6-1.2-2.7-2.6c0.1-1.5,1.3-2.6,2.8-2.5
		C810.7,28.8,811.8,29.9,811.8,31.2z M821.7,41.3c0,1.4-1.2,2.6-2.6,2.7c-1.5,0-2.7-1.2-2.7-2.7c0-1.4,1.1-2.5,2.4-2.7h0.1
		c0,0,0,0,0.1,0h0.1C820.5,38.6,821.7,39.8,821.7,41.3L821.7,41.3z M821.7,21.3c0,1.4-1.1,2.6-2.6,2.6l0,0c-1.5,0.1-2.7-1-2.8-2.5
		s1-2.7,2.5-2.8c0.1,0,0.2,0,0.3,0C820.5,18.6,821.7,19.8,821.7,21.3C821.7,21.2,821.7,21.3,821.7,21.3L821.7,21.3z M831.5,31.3
		c0,1.4-1.2,2.6-2.6,2.6c-1.4,0-2.6-1.2-2.6-2.6s1.2-2.6,2.6-2.6l0,0C830.4,28.6,831.5,29.8,831.5,31.3
		C831.6,31.2,831.6,31.2,831.5,31.3L831.5,31.3z"/>
	<path class="st3" d="M844,44.3c-1.3,0-2.7,0-4,0.1c0.1-1.5,0.4-3,1-4.5c1-2.4,2.6-4.5,4.6-6.2c1.7-1.4,3.5-2.7,5.4-3.9
		c3.3-2.2,4.4-3.7,4.4-5.8c0-2.5-2.1-4.1-5.4-4.1c-2.2,0-3.9,0.7-4.8,2.2c-0.7,1-1.1,2.2-1.2,3.4l-3.5-0.5c0.2-1.9,1-3.7,2.2-5.1
		c1.6-1.8,4.1-2.8,7.2-2.8c5.4,0,8.9,2.7,8.9,6.9c0,1.6-0.6,3.2-1.6,4.5c-1.1,1.4-2,2.1-5.9,4.7c-4.6,3-6.3,5-7.2,8.1h10.7
		c1.5,0,3-0.1,4.5-0.2v3.3c-1.5-0.1-3-0.2-4.5-0.2L844,44.3z"/>
</g>
<g>
	<path d="M405.2,379.5l0.6,0.6l-6.9,6.9l6.9,6.9l-0.6,0.6l-6.9-6.9l-6.9,6.9l-0.6-0.6l6.9-6.9l-6.9-6.9l0.6-0.6l6.9,6.9L405.2,379.5
		z M392.3,388.7c-0.9,0-1.6-0.7-1.6-1.6s0.7-1.6,1.6-1.6s1.6,0.7,1.6,1.6S393.1,388.7,392.3,388.7z M396.7,381.1
		c0-0.9,0.7-1.6,1.6-1.6s1.6,0.7,1.6,1.6c0,0.9-0.7,1.6-1.6,1.6S396.7,382,396.7,381.1z M399.8,393.1c0,0.9-0.7,1.6-1.6,1.6
		s-1.6-0.7-1.6-1.6c0-0.9,0.7-1.6,1.6-1.6S399.8,392.2,399.8,393.1z M404.2,385.5c0.9,0,1.6,0.7,1.6,1.6s-0.7,1.6-1.6,1.6
		s-1.6-0.7-1.6-1.6S403.4,385.5,404.2,385.5z"/>
	<path d="M409.7,393.9c4.5-4.5,7.1-7.2,7.1-9.6c0-1.7-0.9-2.9-2.8-2.9c-1.3,0-2.4,0.8-3.2,1.8l-1.1-1.1c1.3-1.4,2.6-2.3,4.5-2.3
		c2.8,0,4.5,1.7,4.5,4.4c0,2.8-2.6,5.6-6.1,9.3c0.8-0.1,1.7-0.1,2.5-0.1h4.3v1.7h-9.7V393.9z"/>
	<path d="M424.1,382.1c0-1,0.7-1.6,1.6-1.6s1.6,0.6,1.6,1.6c0,1-0.8,1.6-1.6,1.6S424.1,383,424.1,382.1z M424.1,392.4
		c0-1,0.7-1.6,1.6-1.6s1.6,0.6,1.6,1.6c0,0.9-0.8,1.6-1.6,1.6S424.1,393.3,424.1,392.4z"/>
	<path d="M431.8,393.9c4.5-4.5,7.1-7.2,7.1-9.6c0-1.7-0.9-2.9-2.8-2.9c-1.3,0-2.4,0.8-3.2,1.8l-1.1-1.1c1.3-1.4,2.6-2.3,4.5-2.3
		c2.8,0,4.5,1.7,4.5,4.4c0,2.8-2.6,5.6-6.1,9.3c0.8-0.1,1.7-0.1,2.5-0.1h4.3v1.7h-9.7V393.9z"/>
	<path d="M443.6,387.5c0-5,1.8-7.7,4.8-7.7s4.8,2.7,4.8,7.7c0,5-1.8,7.8-4.8,7.8S443.6,392.5,443.6,387.5z M451.3,387.5
		c0-4.4-1.2-6.2-2.9-6.2c-1.8,0-2.9,1.8-2.9,6.2c0,4.4,1.2,6.3,2.9,6.3C450.1,393.8,451.3,391.9,451.3,387.5z"/>
	<path d="M455.1,393.9c4.5-4.5,7.1-7.2,7.1-9.6c0-1.7-0.9-2.9-2.8-2.9c-1.3,0-2.4,0.8-3.2,1.8l-1.1-1.1c1.3-1.4,2.6-2.3,4.5-2.3
		c2.8,0,4.5,1.7,4.5,4.4c0,2.8-2.6,5.6-6.1,9.3c0.8-0.1,1.7-0.1,2.5-0.1h4.3v1.7h-9.7V393.9z"/>
	<path d="M466.9,387.5c0-5,1.8-7.7,4.8-7.7s4.8,2.7,4.8,7.7c0,5-1.8,7.8-4.8,7.8S466.9,392.5,466.9,387.5z M474.6,387.5
		c0-4.4-1.2-6.2-2.9-6.2c-1.8,0-2.9,1.8-2.9,6.2c0,4.4,1.2,6.3,2.9,6.3C473.5,393.8,474.6,391.9,474.6,387.5z"/>
	<path d="M497.5,391.9h-7.6v4.8h-1.6v-4.8h-9.7v-1.5h3.4v-5.6h6.3v-3.2h-5.1c-0.9,1.6-2.1,3-3.2,4.1c-0.3-0.3-0.9-0.8-1.3-1
		c2-1.7,3.7-4.4,4.7-7.2l1.6,0.4c-0.3,0.7-0.6,1.5-1,2.2h12.5v1.5h-6.6v3.2h6.2v1.5h-6.2v4.2h7.6V391.9z M488.3,390.4v-4.2h-4.7v4.2
		H488.3z"/>
	<path d="M499.1,393.2l1-1.3c0.9,0.9,2.1,1.8,3.8,1.8c1.8,0,3.1-1.1,3.1-2.8c0-1.8-1.2-3-4.8-3v-1.5c3.2,0,4.3-1.2,4.3-2.8
		c0-1.4-1-2.4-2.6-2.4c-1.2,0-2.3,0.6-3.2,1.5l-1-1.2c1.2-1.1,2.5-1.9,4.3-1.9c2.6,0,4.5,1.4,4.5,3.8c0,1.8-1.1,3-2.7,3.5v0.1
		c1.8,0.4,3.3,1.8,3.3,3.8c0,2.7-2.2,4.3-4.9,4.3C501.7,395.3,500.2,394.3,499.1,393.2z"/>
	<path d="M527.4,394.4c0,1.1-0.3,1.6-1.1,1.9c-0.8,0.3-2.2,0.3-4.4,0.3c-0.1-0.4-0.4-1.2-0.7-1.6c1.7,0.1,3.4,0,3.9,0
		c0.5,0,0.7-0.2,0.7-0.6v-4.2h-10.1c-0.5,2.4-1.6,4.7-3.6,6.5c-0.2-0.3-0.8-0.9-1.2-1.1c3.3-2.9,3.7-7.2,3.7-10.5v-6.4h12.8V394.4z
		 M525.7,388.6v-3.5h-9.6c0,1.1-0.1,2.3-0.2,3.5H525.7z M516.2,380.1v3.5h9.6v-3.5H516.2z"/>
	<path d="M542,395.7l-1-1.6c0.7-0.1,1.3-0.2,1.8-0.3c2.7-0.6,5.3-2.6,5.3-6.2c0-3.2-2-5.8-5.6-6.1c-0.3,2-0.7,4.1-1.3,6
		c-1.3,4.3-2.9,6.5-4.9,6.5c-1.9,0-3.7-2.1-3.7-5.6c0-4.6,4.1-8.5,9.2-8.5c4.9,0,8,3.5,8,7.7C549.9,392.1,547,395.1,542,395.7z
		 M536.5,392.2c1,0,2.1-1.4,3.2-5c0.5-1.7,0.9-3.7,1.2-5.7c-4,0.5-6.5,3.9-6.5,6.8C534.3,391,535.6,392.2,536.5,392.2z"/>
	<path d="M558.5,382.2c-0.5,0.9-1.1,1.8-1.8,2.8v11.7h-1.4v-10c-0.8,0.8-1.6,1.6-2.4,2.2c-0.1-0.3-0.6-1-0.9-1.4
		c1.9-1.4,3.9-3.6,5.1-5.8L558.5,382.2z M558,378c-1.2,1.8-3.2,3.7-5,5c-0.2-0.3-0.6-0.9-0.9-1.1c1.6-1.1,3.5-2.9,4.4-4.4L558,378z
		 M569.6,388.7c-0.8,1.8-2.1,3.3-3.6,4.5c1.7,1,3.6,1.7,5.7,2.1c-0.3,0.3-0.7,0.9-0.9,1.3c-2.2-0.5-4.3-1.4-6-2.6
		c-2,1.2-4.2,2.1-6.5,2.6c-0.1-0.4-0.5-1-0.8-1.3c2.1-0.4,4.2-1.2,6.1-2.2c-0.9-0.8-1.7-1.7-2.4-2.6c-0.8,0.7-1.7,1.3-2.5,1.9
		c-0.2-0.3-0.7-0.9-1-1.1c2-1.1,4-2.8,5.2-4.6c-1.8,0.1-3.5,0.1-4.8,0.1l-0.1-1.4l3.2,0c0.5-0.4,1-0.8,1.4-1.3c-1-1-2.6-2.3-4-3.2
		l0.9-1c0.4,0.3,0.8,0.5,1.2,0.8c0.9-1,2-2.2,2.6-3.2l1.4,0.7c-0.9,1.1-2,2.4-3,3.3c0.7,0.5,1.4,1.1,1.9,1.6c1.4-1.3,2.8-2.8,3.8-4
		l1.4,0.8c-1.6,1.7-3.8,3.8-5.7,5.5c1.8,0,3.7-0.1,5.6-0.1c-0.5-0.7-1-1.3-1.6-1.9l1.2-0.7c1.3,1.4,2.8,3.3,3.5,4.5l-1.3,0.8
		c-0.2-0.4-0.5-1-0.9-1.5l-5.1,0.2c-0.3,0.6-0.7,1.2-1.2,1.7h5l0.3-0.1L569.6,388.7z M562.1,389.7c0.7,1,1.6,2,2.7,2.8
		c1.1-0.8,2.1-1.8,2.7-2.9h-5.3L562.1,389.7z"/>
	<path d="M577.4,380.7c-0.4,1.9-1,5.7-1,8c0,1,0.1,1.9,0.2,2.9c0.4-0.9,0.9-2.2,1.2-3.1l0.9,0.7c-0.5,1.5-1.3,3.7-1.5,4.7
		c-0.1,0.3-0.1,0.7-0.1,0.9c0,0.2,0,0.5,0.1,0.7l-1.5,0.1c-0.4-1.5-0.8-3.9-0.8-6.7c0-3.1,0.7-6.7,0.9-8.4c0.1-0.5,0.1-1,0.1-1.5
		l1.9,0.2C577.7,379.6,577.5,380.3,577.4,380.7z M582.3,391.4c0,1,0.7,1.9,3.5,1.9c1.9,0,3.5-0.2,5.2-0.5l0,1.8
		c-1.3,0.3-3.1,0.4-5.2,0.4c-3.5,0-5.1-1.2-5.1-3.2c0-0.7,0.1-1.4,0.4-2.5l1.5,0.1C582.4,390.2,582.3,390.8,582.3,391.4z
		 M590.4,380.9v1.7c-2.2,0.3-6.3,0.3-8.6,0v-1.7C584.1,381.3,588.3,381.2,590.4,380.9z"/>
	<path d="M592.9,391.6l1.4-1.2c1.5,1.2,3.4,3.1,4.7,4.7l-1.4,1.2C596.2,394.6,594.4,392.8,592.9,391.6z"/>
	<path d="M611.2,396l-1.4-1.3c3.8-1.5,5.7-3.3,5.7-9.2v-0.9h-6v3.4c0,0.8,0.1,1.7,0.1,1.9h-1.8c0-0.2,0.1-1.1,0.1-1.9v-3.4h-2.3
		c-0.9,0-1.8,0.1-2.1,0.1v-1.8c0.2,0,1.2,0.1,2.1,0.1h2.3v-2.7c0-0.4,0-1.1-0.1-1.5h1.9c0,0.2-0.1,0.8-0.1,1.5v2.7h6v-2.6
		c0-0.8-0.1-1.5-0.1-1.7h1.9c0,0.2-0.1,0.9-0.1,1.7v2.6h2.3c0.9,0,1.6-0.1,1.9-0.1v1.8c-0.2,0-1-0.1-1.9-0.1h-2.3v0.8
		C617.2,391,616,393.9,611.2,396z"/>
	<path d="M625.1,393.1l-1.4-1c1.4-1.3,3.2-3.8,4-5.5l1.5,0.7C628.2,389.2,626.3,391.8,625.1,393.1z M633.6,380.4v2.1h5.5
		c0.5,0,1.2,0,1.7-0.1v1.7c-0.6,0-1.2,0-1.7,0h-5.6v10.2c0,1.1-0.5,1.7-1.8,1.7c-0.9,0-2.1-0.1-3-0.1l-0.1-1.7
		c0.9,0.2,1.9,0.3,2.4,0.3c0.6,0,0.8-0.3,0.8-0.8v-9.5h-5.8c-0.6,0-1.2,0-1.8,0.1v-1.8c0.6,0.1,1.1,0.1,1.8,0.1h5.8v-2.2
		c0-0.5-0.1-1.2-0.1-1.5h2C633.7,379.2,633.6,379.9,633.6,380.4z M641.5,392.1L640,393c-0.8-1.6-2.4-4.3-3.5-5.6l1.4-0.8
		C639,388,640.7,390.6,641.5,392.1z M639.8,381.3l-1.1,0.5c-0.4-0.9-1.1-2.1-1.7-2.9l1.1-0.5C638.7,379.2,639.4,380.4,639.8,381.3z
		 M642.3,380.7l-1.1,0.5c-0.5-0.9-1.1-2-1.7-2.8l1.1-0.5C641.2,378.6,641.9,379.9,642.3,380.7z"/>
	<path d="M652.8,390.7c3.2-2,5.8-5.1,7-7.7l1,1.8c-1.4,2.6-3.9,5.5-7.1,7.5c-2.1,1.3-4.7,2.6-8.3,3.3l-1.1-1.7
		C648.1,393.2,650.8,391.9,652.8,390.7z M651.5,384l-1.3,1.3c-1.1-1.1-3.7-3.3-5.2-4.4l1.2-1.3C647.7,380.7,650.4,382.8,651.5,384z"
		/>
	<path d="M670.9,380.2h10c0.7,0,1.3,0,1.7-0.1v1.7c-0.5,0-1-0.1-1.7-0.1h-5.5v4.5h7.1c0.4,0,1.3,0,1.7-0.1v1.7
		c-0.5-0.1-1.2-0.1-1.7-0.1h-7.1v4.2c0,1.1,0.7,1.7,2.7,1.7c2,0,3.7-0.1,5.5-0.3l-0.1,1.8c-1.6,0.1-3.7,0.2-5.6,0.2
		c-3.2,0-4.2-1.1-4.2-2.8v-4.7h-4.1c-0.5,0-1.4,0-2,0.1v-1.8c0.6,0,1.4,0.1,2,0.1h4.1v-4.5h-2.8c-0.7,0-1.3,0-1.9,0.1v-1.7
		C669.5,380.2,670.1,380.2,670.9,380.2z"/>
	<path d="M690.8,386.1h11.5c1,0,1.8-0.1,2.3-0.1v2.1c-0.4,0-1.3-0.1-2.2-0.1h-11.5c-1.2,0-2.3,0-2.9,0.1V386
		C688.5,386,689.6,386.1,690.8,386.1z"/>
	<path d="M716.9,380.1v2h4.7c0.8,0,1.2-0.1,1.4-0.2l1.1,0.7c-0.1,0.3-0.2,0.9-0.3,1.3c-0.3,1.7-0.9,4.3-2.1,6.3
		c-1.6,2.8-4.5,4.9-8.3,5.9l-1.4-1.6c0.7-0.1,1.5-0.3,2.2-0.6c2.1-0.7,4.4-2.2,5.7-4.2c1.2-1.8,1.8-4.3,2-6.1h-11.7v3.8
		c0,0.4,0,0.9,0.1,1.2h-1.8c0-0.4,0.1-0.9,0.1-1.3v-3.7c0-0.4,0-1.2-0.1-1.6c0.6,0.1,1.2,0.1,2,0.1h4.7v-2c0-0.4,0-0.9-0.1-1.6h2
		C716.9,379.1,716.9,379.6,716.9,380.1z M723.5,380.8l-1.1,0.5c-0.4-0.8-1.1-2.1-1.7-2.9l1.1-0.5C722.3,378.7,723,379.9,723.5,380.8
		z M726,380.1l-1.1,0.5c-0.5-0.9-1.2-2.1-1.7-2.9l1.1-0.5C724.7,378.1,725.6,379.4,726,380.1z"/>
	<path d="M734.6,380.9c2.1-0.1,4.4-0.3,6.4-0.7l0,1.6c-2.1,0.3-4.7,0.5-7,0.6c-0.5,1.1-1.2,2.3-1.9,3.3c0.8-0.5,2-0.8,2.9-0.8
		c1.4,0,2.5,0.7,2.8,1.9c1.4-0.7,2.7-1.2,3.8-1.7c0.6-0.3,1.1-0.5,1.7-0.8l0.7,1.6c-0.5,0.1-1.3,0.4-1.9,0.7
		c-1.2,0.4-2.7,1.1-4.3,1.8c0,1.2,0,3,0.1,4h-1.6c0-0.8,0.1-2.2,0.1-3.3c-2,1-3.3,2.1-3.3,3.5c0,1.6,1.6,1.9,3.8,1.9
		c1.6,0,3.9-0.2,5.7-0.5l0,1.7c-1.6,0.2-3.9,0.4-5.8,0.4c-3,0-5.4-0.7-5.4-3.2c0-2.5,2.5-4,5-5.3c-0.2-0.9-1-1.3-1.9-1.3
		c-1.3,0-2.7,0.7-3.6,1.5c-0.6,0.6-1.2,1.3-1.9,2.2l-1.4-1c2.6-2.6,4.1-4.7,4.8-6.4c-0.3,0-0.6,0-0.9,0c-0.9,0-2.3,0-3.4-0.1v-1.6
		c1.1,0.1,2.6,0.2,3.5,0.2c0.4,0,0.9,0,1.4,0c0.3-0.9,0.5-1.8,0.5-2.6l1.7,0.1C735,379.1,734.9,379.9,734.6,380.9z"/>
	<path d="M756.2,377.5c2.3,2.4,6,4.5,9.2,5.6c-0.3,0.3-0.7,0.9-0.9,1.3c-1.5-0.6-3.1-1.4-4.7-2.3v1.1h-8.1V382
		c-1.5,1-3.1,1.8-4.8,2.5c-0.2-0.4-0.6-0.9-0.9-1.2c3.5-1.3,7.1-3.6,8.8-5.8H756.2z M761.9,385.2c-0.7,1.3-1.5,2.8-2.3,4.1h2.7v7.3
		h-1.6v-0.8h-9.9v0.8h-1.5v-7.3h8.5c0.6-0.9,1.3-2.1,1.8-3.1h-10.7v-1.4h11.6l0.3-0.1L761.9,385.2z M760.6,390.7h-9.9v3.8h9.9V390.7
		z M759.5,381.8c-1.5-0.9-2.9-2-3.9-3.1c-0.9,1-2.2,2.1-3.7,3.1H759.5z"/>
	<path d="M773.6,380.4c0,0.2,0,0.5,0,0.9c1.3-0.1,2.7-0.4,4-0.8v1.6c-1.3,0.3-2.7,0.5-4,0.6c0,1.1,0,2.3,0,3.2
		c0.3,0.5,0.5,1.1,0.5,1.9c0,1.2-0.3,2.6-1.1,3.6c0,0.4,0,0.9,0,1.3c0,1.2,0.3,1.6,3.4,1.6c1.2,0,2.8-0.2,3.6-0.4
		c1.1-0.3,1.7-0.9,1.7-2.3c0-0.8,0-1.5-0.1-2.4l1.8,0.5c0,0.9,0,1.4,0,2.3c-0.1,2-0.8,2.9-2.7,3.4c-0.9,0.3-3,0.4-4.3,0.4
		c-4.2,0-4.8-1-4.8-2.6c0-0.3,0-0.7,0-1c-0.2,0-0.4,0.1-0.7,0.1c-1.2,0-2.7-0.9-2.7-3.3c0-2.2,1.4-4.1,3.4-4.1c0.2,0,0.4,0,0.6,0
		c0-0.6,0-1.3,0-2.1c-0.3,0-0.5,0-0.8,0c-0.9,0-2.1-0.1-3.3-0.2l-0.1-1.6c1.2,0.2,2.3,0.3,3.3,0.3c0.3,0,0.6,0,0.9,0
		c0-0.4,0-0.8,0-1.1c0-0.8,0-1.6-0.2-2h1.8C773.7,378.9,773.6,379.6,773.6,380.4z M772.6,388c0-1-0.5-1.6-1.2-1.6
		c-1,0-1.9,1.1-1.9,2.7c0,1.2,0.7,1.8,1.4,1.8C772.2,390.9,772.6,389.4,772.6,388z M785.3,384.4l-1.2,1.2c-1-1.3-2.9-3.1-4.1-4
		l1.1-1.1C782.3,381.4,784.4,383.2,785.3,384.4z"/>
	<path d="M797.4,394.6c1,0.2,2.2,0.3,3.4,0.3c0.8,0,4.4,0,5.4,0c-0.3,0.4-0.5,1.1-0.6,1.6h-4.9c-4.3,0-7.5-0.8-9.4-4.3
		c-0.7,1.9-1.8,3.5-3.1,4.7c-0.3-0.3-0.9-0.8-1.3-1.1c2.3-1.8,3.5-4.8,3.9-8.5l1.6,0.1c-0.1,1-0.3,1.9-0.5,2.8
		c0.8,2.2,2.1,3.4,3.9,4.1v-8.8h-5.2v-1.5h12.2v1.5h-5.4v3.5h6.2v1.4h-6.2V394.6z M789.4,384.4h-1.5v-4.5h7.9v-2.4h1.6v2.4h7.9v4.5
		h-1.6v-3.1h-14.3V384.4z"/>
	<path d="M818.2,391.6H808v-1.4h2v-8.5h-1.8v-1.4h1.8v-2.5h1.4v2.5h3.8v-2.5h1.4v2.5h1.5v1.4h-1.5v8.5h1.5V391.6z M812.4,392.4
		c-0.8,1.6-2,3.2-3.1,4.2c-0.3-0.3-0.9-0.7-1.3-0.9c1.2-0.9,2.2-2.4,2.9-3.7L812.4,392.4z M811.5,381.7v1.8h3.8v-1.8H811.5z
		 M811.5,386.8h3.8v-2.1h-3.8V386.8z M811.5,390.2h3.8v-2.1h-3.8V390.2z M815.1,392c0.8,0.9,1.8,2.2,2.2,3.1l-1.3,0.7
		c-0.4-0.8-1.3-2.2-2.2-3.2L815.1,392z M826.5,394.7c0,0.9-0.2,1.4-0.8,1.6c-0.6,0.3-1.6,0.3-3.1,0.3c-0.1-0.4-0.3-1.1-0.5-1.5
		c1.1,0,2.2,0,2.5,0c0.3,0,0.4-0.1,0.4-0.4v-5h-4.4c-0.2,2.5-0.7,5.2-2,7.2c-0.3-0.3-0.9-0.8-1.2-0.9c1.7-2.8,1.9-6.8,1.9-9.8v-7.6
		h7.3V394.7z M825,388.2v-3.5h-4.3v1.4c0,0.7,0,1.4,0,2.1H825z M820.7,380v3.3h4.3V380H820.7z"/>
	<path d="M830.2,379.6h4.6c3.1,0,5.3,1.1,5.3,3.8c0,1.5-0.8,2.9-2.2,3.3v0.1c1.8,0.4,3.1,1.6,3.1,3.7c0,3-2.4,4.5-5.8,4.5h-4.9
		V379.6z M834.4,386.2c2.6,0,3.7-1,3.7-2.5c0-1.8-1.2-2.5-3.6-2.5h-2.4v5H834.4z M834.8,393.5c2.6,0,4.2-0.9,4.2-3
		c0-1.9-1.5-2.8-4.2-2.8h-2.7v5.8H834.8z"/>
	<path d="M843.1,387.3c0-4.9,2.7-7.9,6.6-7.9s6.6,3,6.6,7.9c0,4.9-2.7,8-6.6,8S843.1,392.2,843.1,387.3z M854.3,387.3
		c0-3.9-1.8-6.2-4.6-6.2c-2.8,0-4.6,2.4-4.6,6.2c0,3.8,1.8,6.3,4.6,6.3C852.4,393.6,854.3,391.2,854.3,387.3z"/>
	<path d="M861.9,387.1l-4.2-7.5h2.1l2.1,3.9c0.4,0.7,0.7,1.4,1.2,2.2h0.1c0.4-0.9,0.7-1.5,1.1-2.2l2.1-3.9h2l-4.2,7.6l4.5,7.9h-2.1
		l-2.3-4.2c-0.4-0.8-0.8-1.6-1.3-2.5h-0.1c-0.4,0.9-0.8,1.7-1.2,2.5l-2.2,4.2h-2L861.9,387.1z"/>
	<path d="M877.9,380.9c2.1-0.1,4.4-0.3,6.4-0.7l0,1.6c-2.1,0.3-4.7,0.5-7,0.6c-0.5,1.1-1.2,2.3-1.9,3.3c0.8-0.5,2-0.8,2.9-0.8
		c1.4,0,2.5,0.7,2.8,1.9c1.4-0.7,2.7-1.2,3.8-1.7c0.6-0.3,1.1-0.5,1.7-0.8l0.7,1.6c-0.5,0.1-1.3,0.4-1.9,0.7
		c-1.2,0.4-2.7,1.1-4.3,1.8c0,1.2,0,3,0.1,4h-1.6c0-0.8,0.1-2.2,0.1-3.3c-2,1-3.3,2.1-3.3,3.5c0,1.6,1.6,1.9,3.8,1.9
		c1.6,0,3.9-0.2,5.7-0.5l0,1.7c-1.6,0.2-3.9,0.4-5.8,0.4c-3,0-5.4-0.7-5.4-3.2c0-2.5,2.5-4,5-5.3c-0.2-0.9-1-1.3-1.9-1.3
		c-1.3,0-2.7,0.7-3.6,1.5c-0.6,0.6-1.2,1.3-1.9,2.2l-1.4-1c2.6-2.6,4.1-4.7,4.8-6.4c-0.3,0-0.6,0-0.9,0c-0.9,0-2.3,0-3.4-0.1v-1.6
		c1.1,0.1,2.6,0.2,3.5,0.2c0.4,0,0.9,0,1.4,0c0.3-0.9,0.5-1.8,0.5-2.6l1.7,0.1C878.4,379.1,878.2,379.9,877.9,380.9z"/>
	<path d="M431.5,419.4c0,1.6,1.6,2.7,5,2.7c2.9,0,5.6-0.3,7.2-0.8l0,1.8c-1.5,0.4-4.2,0.7-7.2,0.7c-4.3,0-6.7-1.4-6.7-4.1
		c0-1.1,0.2-2.1,0.4-2.9l1.7,0.2C431.6,417.8,431.5,418.6,431.5,419.4z M436.6,408.8c2,0,4.2-0.1,5.7-0.3v1.7
		c-1.4,0.1-3.7,0.3-5.6,0.3c-2.1,0-3.9-0.1-5.6-0.2v-1.7C432.6,408.7,434.5,408.8,436.6,408.8z M444.6,409.1l-1.1,0.5
		c-0.4-0.9-1.1-2.1-1.7-2.9l1.1-0.5C443.4,407,444.1,408.3,444.6,409.1z M446.9,408.2l-1.2,0.5c-0.4-0.9-1.1-2.1-1.7-2.9l1.1-0.5
		C445.7,406.1,446.5,407.5,446.9,408.2z"/>
	<path d="M453.1,411.8h4v1.4h-4v1.5c0.9,0.7,3.3,2.8,3.9,3.3l-0.9,1.3c-0.6-0.7-2-2-3-3v8.3h-1.5v-9c-1.1,2.4-2.6,4.8-4,6.2
		c-0.2-0.4-0.6-1.1-0.9-1.4c1.7-1.6,3.5-4.5,4.5-7.1h-4.1v-1.4h4.4v-3.5c-1.4,0.3-2.8,0.5-4.1,0.7c-0.1-0.4-0.3-0.9-0.5-1.2
		c3.1-0.5,6.7-1.2,8.7-2l1.2,1.2c-1,0.4-2.4,0.8-3.8,1.1V411.8z M460,419.5h-1.5V408h1.5V419.5z M465.2,405.9v16.7
		c0,1.1-0.3,1.6-0.9,1.8c-0.7,0.2-1.9,0.3-3.8,0.3c-0.1-0.4-0.3-1.1-0.6-1.6c1.5,0,2.8,0,3.2,0c0.4,0,0.5-0.1,0.5-0.5v-16.7H465.2z"
		/>
	<path d="M485.6,422.6c0,1-0.3,1.5-0.9,1.7c-0.7,0.3-1.9,0.3-3.9,0.3c-0.1-0.4-0.3-1.1-0.5-1.5c1.5,0.1,2.9,0,3.3,0
		c0.4,0,0.6-0.1,0.6-0.5v-4.3h-5.6v6.2h-1.6v-6.2h-5.2c-0.3,2.3-1,4.7-2.6,6.5c-0.2-0.3-0.9-0.8-1.2-1c2.3-2.6,2.5-6.3,2.5-9.2V407
		h15.3V422.6z M476.9,416.8v-3.5h-5v1.2c0,0.7,0,1.5-0.1,2.2H476.9z M471.9,408.5v3.4h5v-3.4H471.9z M484.1,408.5h-5.6v3.4h5.6
		V408.5z M484.1,416.8v-3.5h-5.6v3.5H484.1z"/>
	<path d="M498.9,423.7l-1-1.6c0.7-0.1,1.3-0.2,1.8-0.3c2.7-0.6,5.3-2.6,5.3-6.2c0-3.2-2-5.8-5.6-6.1c-0.3,2-0.7,4.1-1.3,6
		c-1.3,4.3-2.9,6.5-4.9,6.5c-1.9,0-3.7-2.1-3.7-5.6c0-4.6,4.1-8.5,9.2-8.5c4.9,0,8,3.5,8,7.7C506.8,420.1,503.9,423.1,498.9,423.7z
		 M493.4,420.2c1,0,2.1-1.4,3.2-5c0.5-1.7,0.9-3.7,1.2-5.7c-4,0.5-6.5,3.9-6.5,6.8C491.2,419,492.4,420.2,493.4,420.2z"/>
	<path d="M516.4,407.7c0,0.5-0.1,1.3-0.1,2.3c1.5-0.2,3.1-0.5,4.3-0.8l0,1.6c-1.2,0.3-2.9,0.6-4.4,0.7c0,1,0,2,0,2.8
		c0,0.2,0,0.5,0,0.7c1.6-0.5,3.2-0.8,4.6-0.8c3.1,0,5.3,1.7,5.3,4.2c0,2.5-1.6,4.2-4.5,4.9c-0.9,0.2-1.9,0.3-2.6,0.3l-0.6-1.7
		c0.8,0,1.7,0,2.5-0.1c1.8-0.4,3.5-1.3,3.5-3.3c0-1.8-1.6-2.8-3.6-2.8c-1.6,0-3.1,0.3-4.6,0.8c0,1.8,0.1,3.7,0.1,4.6
		c0,2-0.7,2.6-1.8,2.6c-1.6,0-4.4-1.6-4.4-3.5c0-1.7,2.2-3.6,4.6-4.6c0-0.4,0-0.8,0-1.2c0-0.8,0-1.8,0-2.8c-0.6,0-1.1,0.1-1.6,0.1
		c-1.2,0-2,0-2.7-0.1l0-1.6c1.2,0.1,1.9,0.2,2.7,0.2c0.5,0,1,0,1.6-0.1c0-1.1,0-2,0-2.4c0-0.4,0-1.1-0.1-1.5h1.9
		C516.4,406.7,516.4,407.2,516.4,407.7z M514,421.9c0.5,0,0.8-0.3,0.8-1c0-0.8,0-2.2-0.1-3.7c-1.7,0.8-3,2-3,3
		C511.7,421.1,513.2,421.9,514,421.9z M527.8,411.7L527,413c-1-1-3.4-2.4-4.7-3.1l0.8-1.3C524.5,409.4,526.8,410.8,527.8,411.7z"/>
	<path d="M544.6,411.3c-1,1.6-2.5,2.9-4.1,4c2.4,1.1,5.2,1.8,8.1,2.2c-0.4,0.4-0.8,1-1,1.5c-1-0.1-1.9-0.3-2.8-0.6v6.1h-1.6v-0.7
		h-8.5v0.7h-1.5v-5.9c-1.1,0.3-2.1,0.6-3.2,0.8c-0.1-0.4-0.5-1-0.8-1.4c2.8-0.5,5.8-1.4,8.3-2.8c-1.1-0.7-2-1.5-2.8-2.5
		c-0.9,0.8-2,1.4-3.3,2.1c-0.2-0.4-0.7-0.9-1-1.1c2.9-1.3,4.9-3.1,6-4.7l1.7,0.3c-0.3,0.4-0.6,0.8-1,1.2h6.2l0.3-0.1L544.6,411.3z
		 M531.7,411.3h-1.5v-3.9h8v-1.9h1.6v1.9h8v3.9h-1.6v-2.5h-14.5V411.3z M543.9,418.3c-1.8-0.5-3.4-1.2-4.9-2c-1.4,0.8-2.9,1.4-4.4,2
		H543.9z M543.2,422.6v-3h-8.5v3H543.2z M535.8,412.1c0.8,1,1.9,1.8,3.2,2.5c1.3-0.8,2.4-1.7,3.2-2.6L535.8,412.1L535.8,412.1z"/>
	<path d="M556.6,417.7c-0.3-0.7-1-2-1.7-3v10h-1.4v-9.8c-0.7,2.3-1.6,4.5-2.6,5.9c-0.2-0.4-0.5-1-0.8-1.3c1.3-1.7,2.6-5,3.2-7.9
		h-2.8V410h2.9v-4.5h1.4v4.5h2.4v1.4H555v1.3c0.6,0.8,2.2,3.2,2.5,3.7L556.6,417.7z M562.2,420.7c-1.7,1-3.5,2-4.9,2.8l-0.7-1.3
		c1.3-0.7,3.3-1.7,5.2-2.8L562.2,420.7z M565.7,419c1,1.6,2.5,2.8,4.2,3.5c-0.3,0.3-0.8,0.9-1,1.3c-2-1-3.5-2.8-4.7-4.9v4.1
		c0,0.8-0.2,1.3-0.7,1.5s-1.5,0.3-2.8,0.3c-0.1-0.4-0.2-1-0.4-1.4c0.9,0,1.8,0,2.1,0c0.3,0,0.3-0.1,0.3-0.4v-7.9h-5.3v-1.3h5.3v-1.6
		h-4.2v-1.2h4.2v-1.5h-4.8v-1.3h2.6c-0.2-0.7-0.7-1.5-1-2.2l1.2-0.4c0.5,0.7,1,1.8,1.3,2.4l-0.4,0.1h3.7l-0.2-0.1
		c0.4-0.7,0.9-1.8,1.2-2.6l1.5,0.4c-0.4,0.8-0.9,1.6-1.3,2.2h2.8v1.3h-5v1.5h4.5v1.2h-4.5v1.6h5.3v1.3h-5.3v0.8
		c0.3,1,0.8,1.9,1.3,2.7c0.8-0.8,2-2,2.6-2.8l1.2,0.8c-0.9,1-2,2.1-2.9,2.9L565.7,419z M559.1,415.9c0.8,0.8,1.7,2,2.2,2.7l-1.1,0.8
		c-0.4-0.8-1.3-2-2.1-2.8L559.1,415.9z"/>
	<path d="M572.3,421.5h3.4v-11H573v-1.2c1.4-0.2,2.4-0.6,3.2-1.1h1.5v13.4h3.1v1.6h-8.4V421.5z"/>
	<path d="M583.2,416.2c0-6,2.7-8.3,5.7-8.3c1.6,0,2.8,0.7,3.6,1.6l-1.1,1.2c-0.6-0.7-1.5-1.2-2.5-1.2c-2.1,0-3.9,1.6-4,6.4
		c1-1.2,2.3-1.9,3.5-1.9c2.6,0,4.3,1.6,4.3,4.6c0,2.9-2,4.8-4.4,4.8C585.5,423.3,583.2,420.9,583.2,416.2z M585.1,417.3
		c0.3,2.9,1.4,4.5,3.3,4.5c1.5,0,2.6-1.3,2.6-3.3c0-1.9-0.9-3.2-2.8-3.2C587.3,415.4,586.1,415.9,585.1,417.3z"/>
	<path d="M595.6,421.5h3.4v-11h-2.7v-1.2c1.4-0.2,2.4-0.6,3.2-1.1h1.5v13.4h3.1v1.6h-8.4V421.5z"/>
	<path d="M624,424.7h-1.6v-0.9h-8.6v0.8h-1.5V418c-1.7,1-3.4,1.8-5.2,2.4c-0.2-0.4-0.6-1.1-0.9-1.4c2.7-0.8,5.4-2.2,7.8-4
		c-0.9-1.1-2.5-2.4-3.8-3.4c-0.8,0.7-1.7,1.3-2.8,1.9c-0.2-0.4-0.7-0.9-1.1-1.2c3.4-1.9,5.8-4.6,7.1-6.8l1.7,0.4
		c-0.4,0.6-0.8,1.2-1.2,1.8h5.9l0.3-0.1l1,0.5c-1.2,3.1-3.3,5.7-5.7,7.7h8.6V424.7z M612.8,409c-0.5,0.5-0.9,1-1.5,1.5
		c1.4,1,3,2.3,4,3.4c1.6-1.4,2.9-3.1,3.8-4.9H612.8z M622.4,422.4v-5.2h-8.6v5.2H622.4z"/>
	<path d="M631.4,408.7c-0.4,1.9-1,5.7-1,8c0,1,0.1,1.9,0.2,2.9c0.4-0.9,0.9-2.2,1.2-3.1l0.9,0.7c-0.5,1.5-1.3,3.7-1.5,4.7
		c-0.1,0.3-0.1,0.7-0.1,0.9c0,0.2,0,0.5,0.1,0.7l-1.5,0.1c-0.4-1.5-0.8-3.9-0.8-6.7c0-3.1,0.7-6.7,0.9-8.4c0.1-0.5,0.1-1,0.1-1.5
		l1.9,0.2C631.7,407.6,631.5,408.3,631.4,408.7z M636.3,419.4c0,1,0.7,1.9,3.5,1.9c1.9,0,3.5-0.2,5.2-0.5l0,1.8
		c-1.3,0.3-3.1,0.4-5.2,0.4c-3.5,0-5.1-1.2-5.1-3.2c0-0.7,0.1-1.4,0.4-2.5l1.5,0.1C636.4,418.2,636.3,418.8,636.3,419.4z
		 M644.4,408.9v1.7c-2.2,0.3-6.3,0.3-8.6,0v-1.7C638.1,409.3,642.3,409.2,644.4,408.9z"/>
	<path d="M655.3,424l-1.4-1.3c3.8-1.5,5.7-3.3,5.7-9.2v-0.9h-6v3.4c0,0.8,0.1,1.7,0.1,1.9h-1.8c0-0.2,0.1-1.1,0.1-1.9v-3.4h-2.3
		c-0.9,0-1.8,0.1-2.1,0.1v-1.8c0.2,0,1.2,0.1,2.1,0.1h2.3v-2.7c0-0.4,0-1.1-0.1-1.5h1.9c0,0.2-0.1,0.8-0.1,1.5v2.7h6v-2.6
		c0-0.8-0.1-1.5-0.1-1.7h1.9c0,0.2-0.1,0.9-0.1,1.7v2.6h2.3c0.9,0,1.6-0.1,1.9-0.1v1.8c-0.2,0-1-0.1-1.9-0.1h-2.3v0.8
		C661.3,419,660.1,421.9,655.3,424z"/>
	<path d="M676.6,418.7c3.2-2,5.8-5.1,7-7.7l1,1.8c-1.4,2.6-3.9,5.5-7.1,7.5c-2.1,1.3-4.7,2.6-8.3,3.3l-1.1-1.7
		C671.9,421.2,674.6,419.9,676.6,418.7z M675.4,412l-1.3,1.3c-1-1.1-3.7-3.3-5.2-4.4l1.2-1.3C671.5,408.7,674.2,410.8,675.4,412z"/>
	<path d="M701.5,405.6c1.3,0,2.4,1.1,2.4,2.4s-1.1,2.4-2.4,2.4c-0.3,0-0.5,0-0.8-0.1c0,0.1,0,0.1,0,0.2c-0.4,2.2-1.5,5.6-3.1,7.7
		c-1.9,2.5-4.4,4.4-8.3,5.6l-1.4-1.6c4.1-1,6.4-2.8,8.2-5c1.5-1.9,2.5-4.8,2.8-6.8H688c-0.8,0-1.6,0-2.1,0.1v-1.9
		c0.6,0.1,1.4,0.1,2.1,0.1h10.5c0.2,0,0.4,0,0.7,0c-0.1-0.2-0.1-0.4-0.1-0.7C699.1,406.7,700.2,405.6,701.5,405.6z M701.5,409.4
		c0.8,0,1.4-0.6,1.4-1.4c0-0.8-0.6-1.4-1.4-1.4c-0.8,0-1.4,0.6-1.4,1.4C700.1,408.7,700.7,409.4,701.5,409.4z"/>
	<path d="M707.8,417.3c0.6-1.9,0.6-6.1,0.6-8.4c0-0.6-0.1-1.1-0.1-1.5h1.9c0,0.3-0.1,0.9-0.1,1.5c0,2.3-0.1,6.8-0.7,8.9
		c-0.6,2.2-2,4.3-3.7,5.8l-1.6-1.1C705.9,421.3,707.2,419.4,707.8,417.3z M713.9,421.4v-12.6c0-0.8-0.1-1.4-0.1-1.6h1.9
		c0,0.1-0.1,0.8-0.1,1.6V421c1.9-0.9,4.5-2.8,6.1-5.2l1,1.4c-1.8,2.5-4.7,4.6-7.2,5.8c-0.3,0.2-0.6,0.4-0.7,0.5l-1.1-0.9
		C713.9,422.3,713.9,421.9,713.9,421.4z"/>
	<path d="M731.1,410.3h-6.7V409h6.7V410.3z M726.4,423.4v1h-1.3v-7h5.4v6H726.4z M730.5,413h-5.3v-1.2h5.3V413z M725.2,414.6h5.3
		v1.3h-5.3V414.6z M730.5,407.5h-5.2v-1.3h5.2V407.5z M726.4,418.7v3.5h2.8v-3.5H726.4z M742.9,422.7c0,0.9-0.2,1.4-0.8,1.7
		c-0.6,0.3-1.6,0.3-3.2,0.3c-0.1-0.4-0.3-1.1-0.5-1.5c1.1,0.1,2.2,0,2.6,0c0.3,0,0.4-0.1,0.4-0.4v-14.9h-7.9v6.1
		c0,3.3-0.2,7.9-2,10.9c-0.2-0.3-0.9-0.7-1.2-0.9c1.6-2.9,1.8-7,1.8-10.1v-7.5h10.8V422.7z M736.8,413.2v-2h-2.2v-1.2h2.2v-1.8h1.3
		v1.8h2.2v1.2h-2.2v2h2.5v1.2h-6.2v-1.2H736.8z M735.9,421.4v0.8h-1.2V416h5.4v5.4H735.9z M735.9,417.2v3h3v-3H735.9z"/>
	<path d="M757.3,409.5c1.8,1.9,4.7,3.6,7.3,4.5c-0.4,0.3-0.8,0.9-1,1.2c-2.9-1.1-6-3.2-8-5.7v4.4h-1.5v-4.4c-1.9,2.5-5,4.7-7.9,5.8
		c-0.2-0.4-0.7-0.9-1-1.2c2.6-0.9,5.4-2.7,7.2-4.7h-6.7v-1.4h8.4v-2.6h1.5v2.6h8.6v1.4H757.3z M760.8,422.8h3.5v1.4h-18.6v-1.4h3.5
		v-8.2h11.6V422.8z M750.7,415.9v1.5h8.5v-1.5H750.7z M759.2,418.6h-8.5v1.5h8.5V418.6z M750.7,422.8h8.5v-1.5h-8.5V422.8z"/>
	<path d="M774.2,408.9c2.1-0.1,4.4-0.3,6.4-0.7l0,1.6c-2.1,0.3-4.7,0.5-7,0.6c-0.5,1.1-1.2,2.3-1.9,3.3c0.8-0.5,2-0.8,2.9-0.8
		c1.4,0,2.5,0.7,2.8,1.9c1.4-0.7,2.7-1.2,3.8-1.7c0.6-0.3,1.1-0.5,1.7-0.8l0.7,1.6c-0.5,0.1-1.3,0.4-1.9,0.7
		c-1.2,0.4-2.7,1.1-4.3,1.8c0,1.2,0,3,0.1,4H776c0-0.8,0.1-2.2,0.1-3.3c-2,1-3.3,2.1-3.3,3.5c0,1.6,1.6,1.9,3.8,1.9
		c1.6,0,3.9-0.2,5.7-0.5l0,1.7c-1.6,0.2-3.9,0.4-5.8,0.4c-3,0-5.4-0.7-5.4-3.2c0-2.5,2.5-4,5-5.3c-0.2-0.9-1-1.3-1.9-1.3
		c-1.3,0-2.7,0.7-3.6,1.5c-0.6,0.6-1.2,1.3-1.9,2.2l-1.4-1c2.6-2.6,4.1-4.7,4.9-6.4c-0.3,0-0.6,0-0.9,0c-0.9,0-2.3,0-3.4-0.1v-1.6
		c1.1,0.1,2.6,0.2,3.5,0.2c0.4,0,0.9,0,1.4,0c0.3-0.9,0.5-1.8,0.5-2.6l1.7,0.1C774.7,407.1,774.6,407.9,774.2,408.9z"/>
	<path d="M792.8,410.5c-0.7,1.1-1.4,2.1-2.3,3.2v11h-1.6v-9.3c-0.8,0.8-1.6,1.6-2.4,2.2c-0.2-0.3-0.8-1-1.1-1.3
		c2.2-1.5,4.4-3.9,5.9-6.3L792.8,410.5z M791.9,406.1c-1.4,1.8-3.5,3.9-5.4,5.2c-0.2-0.3-0.7-0.9-0.9-1.2c1.7-1.2,3.8-3.1,4.8-4.6
		L791.9,406.1z M804.8,414h-3.2v8.7c0,1-0.2,1.4-0.9,1.7c-0.7,0.2-1.9,0.2-3.9,0.2c-0.1-0.4-0.3-1.1-0.5-1.5c1.5,0,2.9,0,3.3,0
		c0.4,0,0.5-0.1,0.5-0.5V414h-7v-1.5h11.8V414z M804.2,408.2H794v-1.5h10.2V408.2z"/>
	<path d="M808.8,414.2c1.5-0.5,4.9-1.7,7.4-1.7c3,0,5.1,1.8,5.1,4.7c0,4-3.9,6.1-9.6,6.4l-0.7-1.6c4.5-0.1,8.5-1.4,8.5-4.9
		c0-1.8-1.4-3.1-3.5-3.1c-2.6,0-7.2,1.9-8.5,2.5l-0.7-1.7C807.4,414.6,808.1,414.4,808.8,414.2z"/>
	<path d="M830.9,408.2c-0.1,0.4-0.2,1-0.3,1.6c1.4-0.2,2.8-0.4,4-0.8v1.7c-1.4,0.3-2.9,0.5-4.4,0.7c-0.2,0.9-0.4,1.9-0.7,2.8
		c-0.8,3-2.2,7.3-3.3,9.6l-1.8-0.6c1.3-2.2,2.8-6.4,3.5-9.4c0.2-0.7,0.4-1.5,0.5-2.2c-0.7,0-1.3,0.1-1.9,0.1c-0.9,0-1.7,0-2.4-0.1
		l-0.1-1.6c1,0.1,1.8,0.1,2.5,0.1c0.7,0,1.4,0,2.3-0.1c0.1-0.7,0.3-1.4,0.3-1.8c0.1-0.6,0.1-1.3,0.1-1.7l2,0.2
		C831.2,407,831,407.8,830.9,408.2z M833.4,419.9c0,1,0.5,2,3.5,2c1.4,0,2.8-0.1,4.1-0.4l-0.1,1.7c-1.1,0.2-2.5,0.3-4.1,0.3
		c-3.3,0-5.1-1-5.1-3.1c0-0.8,0.1-1.6,0.3-2.5l1.6,0.1C833.5,418.7,833.4,419.4,833.4,419.9z M837.1,412.8c1.2,0,2.5,0.1,3.6,0.2
		l0,1.6c-1.1-0.1-2.3-0.3-3.5-0.3c-1.3,0-2.6,0.1-3.9,0.2v-1.6C834.4,412.8,835.8,412.8,837.1,412.8z"/>
	<path d="M845.9,417.6c-0.3,2-0.8,4-1.5,5.3c-0.3-0.2-0.9-0.5-1.2-0.6c0.7-1.3,1.1-3.1,1.4-5L845.9,417.6z M849.8,412.2
		c0.9,1.3,1.8,3.1,2.1,4.3l-1.2,0.6c-0.1-0.4-0.2-0.8-0.4-1.2l-1.8,0.1v8.7H847V416c-1.3,0.1-2.4,0.1-3.4,0.2l-0.1-1.4
		c0.4,0,0.9,0,1.4,0c0.5-0.5,0.9-1.2,1.4-1.9c-0.6-0.9-1.8-2.1-2.8-3l0.8-1c0.2,0.2,0.4,0.4,0.6,0.5c0.7-1.2,1.4-2.8,1.9-3.9
		l1.4,0.5c-0.7,1.4-1.6,3.1-2.4,4.2c0.5,0.5,0.9,1,1.3,1.4c0.9-1.3,1.7-2.7,2.2-3.8l1.3,0.6c-1.2,2-2.9,4.5-4.3,6.2
		c1.1,0,2.2-0.1,3.4-0.1c-0.3-0.6-0.7-1.3-1-1.8L849.8,412.2z M850.3,417.3c0.6,1.3,1.2,2.9,1.4,4l-1.2,0.4
		c-0.2-1.1-0.8-2.8-1.3-4.1L850.3,417.3z M857.7,409.9v3.1h4.5v1.4H852V413h4.2v-3.1h-4.8v-1.4h4.8v-3h1.6v3h5v1.4H857.7z
		 M852.6,416.7h9v7.9h-1.5v-1h-6v1h-1.4V416.7z M854.1,418.1v4.1h6v-4.1H854.1z"/>
	<path d="M876.2,418c1.9,1.9,4.9,3.7,7.6,4.6c-0.4,0.3-0.8,0.9-1.1,1.3c-2.7-1.1-5.8-3.1-7.8-5.3v6.1h-1.6v-6
		c-2,2.3-5.1,4.3-7.8,5.3c-0.2-0.4-0.7-1-1-1.3c2.7-0.9,5.7-2.7,7.6-4.7h-7v-1.4h8.3v-1.8H867v-8.3h14.3v8.3h-6.4v1.8h8.3v1.4H876.2
		z M868.6,410h4.7v-2.1h-4.7V410z M873.3,413.4v-2.2h-4.7v2.2H873.3z M879.7,407.9h-4.8v2.1h4.8V407.9z M879.7,411.3h-4.8v2.2h4.8
		V411.3z"/>
	<path d="M892.1,421.1c0,1.8-1.4,3.2-3.2,3.2c-1.7,0-3.2-1.4-3.2-3.2c0-1.8,1.4-3.2,3.2-3.2C890.7,417.9,892.1,419.4,892.1,421.1z
		 M891,421.1c0-1.2-0.9-2.1-2.1-2.1c-1.2,0-2.1,1-2.1,2.1c0,1.2,1,2.1,2.1,2.1C890.1,423.3,891,422.3,891,421.1z"/>
</g>
</svg>
