<?xml version="1.0" encoding="UTF-8"?>
<svg id="_レイヤー_2" data-name="レイヤー 2" xmlns="http://www.w3.org/2000/svg" viewBox="0 0 160.99 85.53">
  <defs>
    <style>
      .cls-1 {
        fill: #030000;
      }

      .cls-2 {
        fill: #fff;
      }

      .cls-3 {
        fill: none;
        opacity: .5;
        stroke: #000;
        stroke-miterlimit: 10;
        stroke-width: .8px;
      }
    </style>
  </defs>
  <g id="design">
    <g>
      <path d="M2.02,47.7c-.06-.12-.14-.28-.26-.48-.12-.19-.25-.38-.38-.56-.14-.18-.25-.31-.34-.39.94-.33,1.82-.77,2.63-1.33.81-.56,1.52-1.19,2.14-1.9.62-.71,1.12-1.48,1.5-2.3.38-.82.62-1.66.72-2.52H1.45v-1.51h6.61v-4.42h1.63v4.42h6.63v1.51h-6.58c.1.84.35,1.67.75,2.48.4.82.91,1.58,1.53,2.3.62.71,1.33,1.35,2.13,1.91.8.56,1.66,1.01,2.58,1.33-.09.1-.21.25-.35.43s-.27.37-.4.56-.22.34-.27.47c-.99-.46-1.93-1.04-2.83-1.73-.9-.69-1.7-1.47-2.4-2.35-.7-.88-1.23-1.85-1.61-2.89-.37,1.07-.91,2.04-1.61,2.92-.7.88-1.51,1.67-2.41,2.35-.91.68-1.85,1.25-2.84,1.7Z"/>
      <path d="M20.69,47.48c-.11-.19-.27-.43-.47-.71-.2-.28-.38-.49-.54-.64,1.36-.62,2.55-1.39,3.58-2.3,1.03-.91,1.82-1.95,2.4-3.14.57-1.18.86-2.48.86-3.9v-4.27h1.62v3.82c0,1.09.19,2.13.57,3.12.38.99.9,1.91,1.56,2.75.66.84,1.4,1.58,2.24,2.21.83.63,1.71,1.14,2.63,1.51-.09.1-.2.25-.34.43-.14.19-.26.38-.38.57-.12.19-.21.35-.28.48-1.01-.5-1.95-1.12-2.82-1.85-.87-.74-1.64-1.57-2.29-2.51-.66-.93-1.18-1.95-1.56-3.03-.31,1.1-.78,2.11-1.44,3.04-.65.93-1.43,1.76-2.34,2.5-.91.74-1.9,1.37-2.98,1.9Z"/>
      <path d="M41.48,45.95c-.07-.2-.16-.43-.27-.69-.11-.26-.23-.47-.36-.65,1.1-.1,2.05-.27,2.86-.51s1.42-.56,1.85-.96c.43-.4.63-.89.61-1.47-.05-1.25-.98-1.83-2.79-1.75-.37.01-.82.06-1.34.14-.52.09-1.07.19-1.63.32-.57.13-1.1.27-1.6.41-.5.14-.91.27-1.24.4,0-.01-.03-.08-.08-.22-.06-.14-.12-.29-.19-.47-.07-.18-.13-.33-.19-.47-.06-.14-.09-.21-.1-.22.33-.07.77-.16,1.32-.28.55-.12,1.14-.24,1.76-.37.62-.12,1.22-.23,1.8-.32.58-.09,1.06-.14,1.44-.15,1.39-.06,2.43.18,3.12.71.69.53,1.05,1.27,1.1,2.22.03.86-.2,1.58-.71,2.17-.5.58-1.22,1.05-2.14,1.39-.92.35-2,.6-3.22.77Z"/>
      <path d="M52.96,46.7c-.08-.44-.14-1.01-.2-1.69-.05-.69-.08-1.45-.1-2.29-.02-.84-.02-1.7,0-2.58.01-.88.04-1.75.08-2.6.04-.85.1-1.63.17-2.34.07-.71.16-1.3.26-1.78l1.48.36c-.11.4-.21.93-.29,1.59-.08.66-.14,1.4-.18,2.21-.04.81-.06,1.64-.07,2.5,0,.86,0,1.69.03,2.51.02.82.06,1.56.12,2.22.06.66.13,1.2.22,1.62l-1.51.27ZM58.86,46.34c-.83-.02-1.48-.25-1.95-.68-.47-.43-.7-.95-.69-1.56,0-.37.12-.73.37-1.06.24-.33.6-.6,1.06-.81.46-.2,1.02-.31,1.67-.31.44,0,.87.03,1.29.1-.02-.37-.05-.78-.07-1.22-.02-.44-.05-.95-.07-1.54-.19.01-.37.02-.54.03-.17,0-.33,0-.48,0-.65,0-1.18-.11-1.61-.32-.43-.22-.77-.53-1.02-.95l1.07-.82c.29.42.82.63,1.56.63.14,0,.29,0,.46,0,.17,0,.35-.01.53-.03,0-.31,0-.63,0-.99,0-.35,0-.72,0-1.11-.52.03-1.05.06-1.57.08-.53.02-1.01.02-1.44,0l-.08-1.46c.4.03.87.05,1.42.03.55-.01,1.12-.04,1.7-.08.58-.04,1.13-.09,1.65-.16s.93-.14,1.25-.2l.17,1.45c-.19.03-.42.07-.7.1s-.57.07-.88.1v2.12c.57-.06,1.12-.12,1.67-.2.55-.08,1.03-.18,1.45-.29l.02,1.48c-.39.09-.86.18-1.42.26-.56.08-1.12.15-1.69.2.02.66.05,1.25.08,1.77.03.52.06,1.01.08,1.48.62.22,1.24.49,1.84.83.61.34,1.2.74,1.79,1.21-.09.07-.2.19-.33.37-.13.18-.25.35-.37.53-.11.18-.19.31-.24.42-.87-.77-1.76-1.37-2.65-1.8-.01.86-.32,1.48-.92,1.87-.6.39-1.41.56-2.41.53ZM58.96,44.98c.57,0,.99-.1,1.28-.29.29-.19.43-.53.43-1v-.27c-.24-.06-.48-.1-.71-.13-.24-.03-.48-.05-.71-.06-.51-.01-.9.07-1.18.25-.28.18-.42.39-.43.65,0,.24.12.44.35.6.23.16.56.25.98.25ZM65.61,35.77c-.45,0-.84-.16-1.17-.49-.33-.33-.49-.72-.49-1.17s.16-.86.49-1.18.72-.48,1.17-.48.86.16,1.18.48c.32.32.48.72.48,1.18s-.16.84-.48,1.17c-.32.33-.72.49-1.18.49ZM65.61,35.14c.29,0,.54-.1.74-.31s.3-.45.3-.73-.1-.54-.3-.74c-.2-.2-.44-.3-.74-.3s-.53.1-.73.3c-.2.2-.31.45-.31.74s.1.53.31.73c.2.2.45.31.73.31Z"/>
      <path d="M76.46,47.62c-.2-.4-.47-.85-.81-1.35-.33-.5-.7-1.03-1.1-1.58-.4-.55-.81-1.08-1.23-1.61-.42-.52-.82-1-1.21-1.44-.39-.44-.72-.8-1-1.08-.39-.39-.57-.71-.56-.99s.21-.58.6-.94c.37-.34.81-.77,1.3-1.28.49-.52.99-1.07,1.5-1.65.5-.58.97-1.16,1.39-1.73.42-.57.74-1.07.95-1.5l1.46,1c-.25.36-.58.8-1,1.31s-.88,1.03-1.37,1.57c-.49.54-.97,1.05-1.44,1.55-.46.49-.87.9-1.22,1.23-.32.28-.31.59.02.92.28.28.61.64.99,1.07.37.43.77.9,1.17,1.4.41.5.81,1.01,1.21,1.52.4.51.76.99,1.09,1.44.33.45.59.82.78,1.13-.12.06-.29.14-.49.26-.2.12-.4.25-.59.38s-.33.25-.42.34Z"/>
      <path d="M86.98,47.7v-5.76c-.52.76-1.1,1.47-1.73,2.12-.63.66-1.3,1.23-1.99,1.72-.06-.1-.15-.23-.29-.39-.14-.16-.28-.31-.42-.46-.15-.15-.27-.26-.37-.32.61-.36,1.2-.82,1.76-1.36.56-.54,1.08-1.14,1.56-1.78.48-.64.87-1.28,1.19-1.91h-3.88v-1.22h6.89v-1.04h-5.07v-1.12h5.07v-1h-6.36v-1.22h4.25c-.11-.26-.24-.53-.39-.8-.15-.27-.28-.5-.41-.68l1.43-.41c.16.23.33.52.52.89.19.37.35.7.48.99h2.5c.09-.16.2-.36.31-.59s.23-.48.34-.71c.11-.24.19-.44.25-.59l1.55.32c-.08.22-.19.47-.33.76-.14.29-.28.57-.42.82h4.23v1.22h-6.38v1h5.17v1.12h-5.17v1.04h6.94v1.22h-9.89c-.06.15-.12.29-.2.44-.07.15-.15.3-.23.46h7.87v7.24h-8.77ZM88.56,42.53h5.61v-.95h-5.61v.95ZM88.56,44.56h5.61v-.97h-5.61v.97ZM88.56,46.56h5.61v-.97h-5.61v.97Z"/>
      <path d="M105.85,47.09c-.02-.11-.07-.27-.15-.48-.08-.21-.17-.42-.26-.62-.1-.2-.2-.36-.3-.46,1.82.03,3.21-.2,4.16-.71.95-.51,1.42-1.23,1.42-2.16,0-.6-.24-1.05-.71-1.36-.47-.31-1.06-.46-1.76-.46-.51,0-1.07.09-1.67.26s-1.17.43-1.71.79-.99.82-1.35,1.39l-1.39-.63c.21-.4.4-.89.57-1.48.16-.59.3-1.21.41-1.86.11-.65.18-1.27.23-1.84.05-.58.06-1.05.03-1.43l1.63.19c.01.58-.04,1.29-.16,2.13-.12.84-.3,1.67-.55,2.49.63-.45,1.31-.8,2.02-1.05.71-.25,1.38-.37,1.99-.37.84,0,1.57.14,2.18.42.62.28,1.09.66,1.43,1.15s.5,1.06.5,1.72c0,1.26-.54,2.28-1.61,3.08-1.07.79-2.72,1.24-4.96,1.33ZM108.69,36.21c-.26-.2-.58-.42-.96-.64s-.78-.43-1.21-.63c-.42-.2-.84-.37-1.24-.51-.4-.14-.75-.24-1.05-.3l.78-1.38c.27.08.61.2,1,.36.4.16.81.33,1.25.53.44.19.85.39,1.23.59.38.2.71.38.97.55l-.78,1.43Z"/>
      <path d="M120.26,47.16v-5.1c-.46.52-.9,1.01-1.29,1.47-.4.46-.73.85-.99,1.16l-1.17-1c.46-.41.99-.92,1.59-1.55.6-.62,1.22-1.27,1.86-1.94v-2.58c-.52.11-1.04.22-1.56.33-.52.11-.94.19-1.24.25l-.32-1.48c.21-.01.5-.04.84-.08.35-.05.72-.1,1.12-.18.4-.07.79-.15,1.16-.23v-3.4h1.48v3.03s.08-.03.1-.03l.87.63-.97,1.9v.39c.57-.54,1.12-1.04,1.67-1.5.54-.45,1.06-.81,1.56-1.08.5-.27.95-.4,1.34-.4.7,0,1.23.22,1.57.65.35.43.48,1.16.4,2.19-.01.18-.04.46-.08.83s-.08.79-.12,1.24c-.04.45-.08.9-.13,1.34-.05.44-.08.83-.11,1.16-.03.33-.05.55-.06.66-.06.63.2.95.78.95.46,0,.91-.18,1.34-.53.43-.35.79-.78,1.07-1.27.04.11.12.26.23.43.11.18.22.34.34.5.12.16.22.28.31.37-.26.41-.58.77-.96,1.09-.38.32-.78.56-1.21.74-.42.18-.84.26-1.23.26-.77,0-1.35-.21-1.75-.63-.4-.42-.56-1.05-.49-1.89.01-.11.03-.34.07-.69.03-.35.07-.74.12-1.2.05-.45.09-.91.14-1.38.04-.46.08-.88.12-1.25.03-.37.06-.64.07-.81.02-.46-.03-.8-.14-1-.12-.2-.34-.31-.67-.31-.25,0-.6.15-1.05.45-.45.3-.94.7-1.48,1.2-.54.5-1.09,1.04-1.66,1.61v6.65h-1.48Z"/>
      <path d="M140.89,46.71c-1.26,0-2.18-.23-2.78-.7-.6-.46-.89-1.04-.89-1.72,0-.43.11-.8.32-1.1s.5-.54.85-.7c.35-.16.72-.24,1.1-.24.75,0,1.36.26,1.84.77.48.52.77,1.17.86,1.96.54-.18,1-.49,1.38-.93.37-.44.56-.99.56-1.67,0-.52-.12-.98-.37-1.38-.24-.4-.58-.71-1.01-.93-.43-.23-.93-.34-1.5-.34-1.48,0-2.72.43-3.71,1.28-.2.18-.48.41-.82.69-.34.28-.66.52-.95.74l-1.05-1.14c.53-.32,1.1-.73,1.72-1.22.61-.5,1.22-1.05,1.83-1.65.61-.6,1.18-1.22,1.73-1.85.54-.63,1.02-1.25,1.43-1.85-.48.11-1.02.22-1.63.33-.61.11-1.21.2-1.79.27-.58.07-1.08.12-1.49.14l-.27-1.5c.31.01.69,0,1.15-.03.46-.03.95-.07,1.46-.13.52-.06,1.02-.12,1.51-.2.49-.07.94-.16,1.33-.25.39-.09.68-.18.86-.26l1.17.8c-.26.51-.6,1.05-1.01,1.62-.41.57-.87,1.15-1.37,1.73-.5.58-1.01,1.13-1.55,1.67.26-.12.55-.23.87-.31.32-.08.62-.12.92-.12.83,0,1.55.16,2.18.49.62.33,1.11.78,1.47,1.36.36.58.54,1.25.54,2.02,0,.83-.21,1.57-.62,2.22-.41.65-.99,1.16-1.72,1.54-.73.37-1.58.56-2.54.56ZM140.6,45.27h.2c-.03-.5-.17-.91-.41-1.22-.24-.32-.54-.48-.9-.48-.24,0-.43.06-.59.18s-.23.29-.23.52c0,.28.15.52.44.7.29.18.79.28,1.48.31Z"/>
      <path d="M2.97,70.7c-.08-.44-.14-1.01-.2-1.69-.05-.69-.08-1.45-.1-2.29-.02-.84-.02-1.7,0-2.58.01-.88.04-1.75.08-2.6.04-.85.1-1.63.17-2.34.07-.71.16-1.3.26-1.78l1.48.36c-.11.4-.21.93-.29,1.59-.08.66-.14,1.4-.18,2.21-.04.81-.07,1.64-.08,2.5-.01.86,0,1.69.03,2.51.03.82.07,1.56.13,2.22.06.66.13,1.2.22,1.62l-1.51.27ZM8.88,70.34c-.83-.02-1.48-.25-1.95-.68-.47-.43-.7-.95-.69-1.56,0-.37.12-.73.37-1.06.24-.33.6-.6,1.06-.81s1.03-.31,1.68-.31c.43,0,.86.03,1.27.1-.01-.37-.03-.78-.06-1.22-.03-.44-.05-.95-.08-1.54-.18.01-.36.02-.54.03-.18,0-.34,0-.48,0-.65,0-1.18-.11-1.62-.32-.43-.22-.77-.53-1.02-.95l1.07-.82c.29.42.82.63,1.56.63.14,0,.29,0,.46,0,.17,0,.35-.01.53-.03,0-.31,0-.63,0-.99,0-.35,0-.72,0-1.11-.57.03-1.11.06-1.64.08-.53.02-.98.02-1.37,0l-.08-1.46c.32.02.71.03,1.18.03s.98-.01,1.54-.03c.56-.02,1.11-.06,1.67-.1.56-.05,1.07-.1,1.54-.15.47-.06.86-.12,1.18-.2l-.02,1.45c-.25.05-.59.09-1.03.14-.44.05-.92.09-1.44.14-.01.39-.02.75-.02,1.1v1c.57-.06,1.13-.12,1.68-.2.56-.08,1.04-.18,1.44-.29l.02,1.48c-.39.09-.86.18-1.42.26-.56.08-1.12.15-1.69.2.02.66.05,1.25.08,1.77.03.52.06,1.01.08,1.48.62.22,1.24.49,1.84.83.61.34,1.2.74,1.79,1.21-.08.07-.19.19-.32.37-.14.18-.26.35-.37.53-.11.18-.19.31-.24.42-.87-.77-1.76-1.37-2.65-1.8-.01.86-.32,1.48-.92,1.87-.6.39-1.41.56-2.41.53ZM9,68.98c.57,0,.99-.1,1.27-.29.28-.19.42-.53.42-1v-.27c-.24-.06-.48-.1-.71-.13-.24-.03-.48-.05-.71-.06-.5-.01-.89.07-1.17.25-.28.18-.43.39-.43.65-.01.24.1.44.34.6.24.16.57.25.99.25Z"/>
      <path d="M27.19,70.36c-.06-.2-.18-.46-.37-.77-.19-.31-.37-.55-.55-.71,1.02-.16,1.89-.45,2.6-.88.71-.43,1.27-.96,1.66-1.58.39-.62.6-1.3.64-2.02.03-.68-.06-1.31-.28-1.88-.22-.57-.54-1.07-.94-1.5-.41-.43-.88-.77-1.42-1.03-.54-.26-1.11-.4-1.73-.43-.08,1.1-.24,2.21-.49,3.33-.25,1.12-.59,2.16-1.01,3.13-.43.96-.93,1.77-1.52,2.41-.4.43-.8.69-1.2.76-.4.08-.82.03-1.27-.15-.43-.18-.82-.48-1.16-.89-.34-.41-.6-.91-.78-1.49-.18-.58-.25-1.2-.22-1.87.06-1,.29-1.92.71-2.75.41-.84.97-1.56,1.67-2.17.7-.61,1.51-1.07,2.41-1.38.91-.31,1.88-.44,2.91-.38.82.05,1.59.23,2.31.56.73.33,1.37.78,1.92,1.34.56.57.98,1.23,1.28,1.99.3.76.43,1.6.38,2.52-.08,1.47-.61,2.72-1.58,3.74-.98,1.02-2.3,1.72-3.98,2.11ZM21.75,67.45c.12.08.27.12.44.11.17,0,.33-.09.49-.26.44-.46.84-1.1,1.2-1.9.36-.8.65-1.71.89-2.7.24-1,.39-2.01.46-3.04-.86.16-1.63.49-2.29.99-.67.5-1.2,1.11-1.6,1.84-.4.73-.62,1.52-.66,2.38-.03.62.06,1.16.27,1.62s.48.78.8.98Z"/>
      <path d="M37.48,70.7c-.07-.07-.19-.16-.36-.27-.17-.11-.34-.22-.52-.33-.18-.11-.31-.17-.42-.2.46-.51.92-1.14,1.38-1.9.45-.75.88-1.58,1.29-2.48.41-.9.77-1.82,1.09-2.76-.61.08-1.2.16-1.78.25-.57.08-1.03.17-1.39.26-.01-.1-.04-.25-.08-.45-.04-.2-.09-.4-.14-.59-.05-.2-.09-.34-.13-.42.27-.02.62-.05,1.04-.09.42-.04.88-.09,1.38-.14.5-.06,1-.11,1.5-.15.23-.74.41-1.46.54-2.16.14-.7.23-1.36.27-1.97l1.53.27c-.05.56-.14,1.15-.27,1.78-.14.63-.3,1.28-.49,1.95.53-.03.97-.05,1.31-.05.44,0,.83.07,1.16.21.33.14.6.39.79.74.19.35.3.84.32,1.45.02.62-.06,1.41-.26,2.37-.2,1.08-.44,1.94-.71,2.58-.27.65-.6,1.11-1,1.4s-.91.43-1.52.43c-.32,0-.62-.03-.92-.1-.29-.07-.58-.19-.85-.36.01-.2.02-.46.02-.77s-.02-.56-.05-.75c.53.33,1.08.49,1.65.49.31,0,.57-.09.79-.27.22-.18.42-.51.6-.98.18-.47.35-1.14.54-2,.15-.7.23-1.26.24-1.68.01-.42-.03-.74-.13-.95-.1-.22-.23-.36-.4-.43-.17-.07-.37-.1-.59-.1-.18,0-.39,0-.63.02-.24.01-.49.03-.77.05-.35,1.05-.75,2.09-1.21,3.12-.45,1.03-.92,1.97-1.4,2.83-.48.86-.96,1.58-1.44,2.14ZM50.17,66.19c-.18-.31-.43-.66-.76-1.06-.32-.4-.67-.81-1.05-1.22-.37-.41-.74-.78-1.1-1.11-.36-.33-.67-.59-.94-.77l1.14-.99c.29.2.63.48.99.82.37.34.74.71,1.12,1.1.38.39.73.78,1.05,1.16.32.38.58.71.76.99l-1.22,1.09Z"/>
      <path d="M55.31,68.25c-.08-.07-.2-.16-.36-.26-.16-.11-.33-.21-.5-.31s-.33-.18-.45-.22c.71-.8,1.36-1.76,1.94-2.87.58-1.11,1.05-2.27,1.43-3.48-.63.1-1.23.19-1.78.26-.55.07-.98.12-1.3.14l-.22-1.48c.42-.01.96-.05,1.61-.11.66-.06,1.35-.15,2.07-.26.12-.54.22-1.08.3-1.61s.12-1.05.13-1.56l1.48.19c-.05.45-.1.91-.16,1.37s-.14.91-.23,1.35c.45-.09.88-.18,1.29-.27.41-.09.77-.18,1.07-.27l.19,1.41c-.35.09-.78.19-1.28.3-.5.11-1.04.21-1.61.3-.39,1.41-.89,2.74-1.5,4-.62,1.26-1.32,2.4-2.12,3.41ZM60.05,71.31c-.82-.02-1.45-.25-1.9-.69-.45-.44-.67-.97-.65-1.59.01-.39.13-.74.37-1.07.23-.33.57-.59,1.02-.78.45-.19.99-.28,1.62-.26.2.01.41.03.61.04s.4.04.6.08v-4.18h1.48v4.56c.67.22,1.3.49,1.9.83s1.16.71,1.68,1.12c-.16.15-.33.36-.5.63-.18.27-.3.5-.38.7-.84-.74-1.74-1.33-2.7-1.79-.02.83-.31,1.44-.85,1.84-.54.4-1.31.59-2.29.55ZM60.16,69.98c.5,0,.88-.11,1.16-.33.27-.22.41-.57.41-1.06v-.2c-.42-.09-.86-.15-1.31-.17-.45-.01-.81.07-1.07.23-.26.16-.4.38-.41.64-.01.26.09.48.3.65.21.17.52.26.93.26ZM66.31,63c-.24-.26-.57-.55-.99-.86-.42-.31-.87-.6-1.33-.88s-.86-.47-1.2-.59l.78-1.16c.26.1.56.24.9.42.34.18.69.38,1.05.6s.69.44.99.67c.31.23.56.43.75.61l-.95,1.17Z"/>
      <path d="M74,70.85c-.05-.1-.12-.25-.22-.43-.1-.19-.21-.37-.33-.56-.12-.19-.22-.33-.31-.42,2.06-.6,3.76-1.48,5.09-2.64,1.33-1.16,2.3-2.54,2.9-4.15-.52.02-1.13.05-1.84.08-.7.03-1.43.07-2.18.11-.75.04-1.48.08-2.17.11s-1.29.06-1.81.08c-.52.02-.88.05-1.1.07l-.14-1.63c.27.01.67.01,1.21,0,.53,0,1.14-.02,1.84-.03s1.4-.04,2.13-.06c.73-.02,1.43-.05,2.11-.08.67-.03,1.27-.06,1.78-.09.51-.03.88-.07,1.1-.1l.9.54c-.52,2.19-1.52,4.05-3.01,5.6-1.48,1.55-3.47,2.74-5.95,3.58ZM73.59,59.22v-1.56c.5.01,1.08.02,1.76.03.67.01,1.39.02,2.13.02s1.43,0,2.1-.02c.67-.01,1.29-.02,1.84-.03v1.56c-.57-.02-1.17-.04-1.82-.04-.65,0-1.35,0-2.12,0h-1.37c-.48,0-.94,0-1.39,0-.44,0-.82.02-1.14.04Z"/>
      <path d="M87.02,70.27c-.07-.11-.16-.25-.29-.42-.12-.16-.25-.33-.39-.49-.14-.16-.26-.29-.37-.37,1.23-.57,2.39-1.29,3.47-2.17,1.08-.88,2.04-1.85,2.89-2.92-.51-.37-1.01-.72-1.5-1.03-.49-.31-.94-.55-1.33-.72l.94-1.12c.42.18.87.42,1.35.71.48.29.97.6,1.45.94,1.05-1.54,1.81-3.11,2.28-4.71l1.51.51c-.28.88-.64,1.76-1.06,2.62-.42.86-.91,1.69-1.45,2.5.49.37.95.75,1.38,1.11.43.37.79.72,1.09,1.05-.1.09-.23.22-.39.38-.16.16-.31.33-.45.5-.14.17-.25.31-.33.41-.26-.32-.59-.66-.98-1.04s-.81-.75-1.27-1.12c-.88,1.1-1.88,2.11-2.97,3.03-1.1.92-2.28,1.7-3.55,2.34Z"/>
      <path d="M110.69,66.89c-.06-.08-.15-.18-.27-.31-.12-.13-.26-.26-.39-.38-.14-.12-.25-.21-.34-.25.79-.5,1.56-1.18,2.29-2.04-.35-.59-.65-1.27-.9-2.03-.25-.77-.44-1.63-.58-2.59h-6v.92c0,1.27-.15,2.43-.46,3.48-.31,1.05-.86,2.05-1.65,2.99-.08-.07-.19-.15-.34-.26-.15-.1-.3-.2-.46-.29-.16-.09-.29-.15-.39-.19.42-.45.77-.94,1.05-1.47.28-.53.5-1.14.64-1.83.14-.69.21-1.51.21-2.45v-2.19h7.28c-.02-.28-.04-.58-.05-.88-.01-.3-.02-.61-.02-.93h1.43c0,.63.02,1.24.05,1.8h2.09c-.18-.23-.38-.45-.6-.68-.22-.23-.4-.4-.56-.53l1-.78c.23.18.49.42.78.72.29.3.53.57.7.81l-.61.46h1.94v1.28h-4.62c.18,1.38.51,2.52.99,3.42.26-.4.5-.8.71-1.2.21-.4.39-.81.54-1.23l1.34.54c-.22.52-.47,1.04-.77,1.55-.3.51-.63,1.01-.99,1.5.23.25.47.47.74.67.27.2.55.38.86.54.09-.18.2-.42.31-.72.12-.3.21-.59.28-.86.14.08.34.17.61.28.27.11.48.18.63.21-.11.48-.24.9-.38,1.27-.14.37-.28.68-.42.94-.15.27-.36.42-.65.46s-.61-.03-.97-.19c-.35-.16-.69-.36-1.02-.6-.33-.24-.64-.53-.94-.86-.65.73-1.34,1.36-2.09,1.9ZM102.65,71.31c-.08-.09-.2-.2-.35-.31-.15-.12-.31-.23-.46-.33-.15-.1-.27-.18-.37-.22.27-.25.55-.57.84-.96s.56-.8.81-1.23c.25-.43.43-.81.54-1.14l1.31.54c-.15.37-.35.79-.6,1.26-.26.46-.54.91-.84,1.34-.31.43-.6.78-.88,1.05ZM105.17,61.33v-1.12h4.86v1.12h-4.86ZM105.25,65.63v-3.47h4.64v3.47h-4.64ZM107.58,71.38c-.59,0-1-.09-1.23-.28s-.35-.49-.35-.91v-3.38h1.45v2.74c0,.16.04.28.13.36.08.08.25.12.5.12h2.52c.29,0,.54-.04.72-.11s.33-.24.43-.48c.1-.25.18-.62.22-1.12.16.09.38.18.65.28.28.1.51.17.71.23-.09.76-.23,1.32-.42,1.68-.19.36-.45.6-.77.71-.32.11-.71.17-1.19.17h-3.37ZM106.46,64.58h2.23v-1.36h-2.23v1.36ZM109.76,69.17c-.09-.22-.22-.46-.4-.72-.18-.27-.36-.53-.56-.78-.2-.25-.39-.47-.57-.65l1.09-.75c.18.18.38.41.59.67.21.27.41.53.6.79.19.26.35.49.46.7-.08.03-.21.1-.38.2s-.34.2-.5.31-.27.18-.32.24ZM115.9,71.16c-.15-.31-.36-.67-.64-1.09-.28-.42-.56-.82-.86-1.22-.29-.39-.56-.69-.78-.91l1.17-.8c.22.22.48.51.78.89.31.38.61.78.9,1.19.29.41.53.78.71,1.1-.09.03-.22.11-.4.22-.18.11-.35.23-.52.34-.17.11-.29.2-.37.27Z"/>
    </g>
    <g>
      <rect class="cls-2" x="2" y="5.15" width="72.36" height="16.76"/>
      <g>
        <g>
          <path d="M11.1,8.45c.92,0,1.61.2,2.08.6.47.4.71.95.71,1.64s-.32,1.22-.95,1.61c-.55.34-1.29.52-2.22.52h-.94v3h1.04v.35h-3.11v-.35h1.05v-7.02h-1.05v-.35h3.39ZM12.11,12.1c.43-.32.63-.8.62-1.44-.02-.64-.16-1.11-.44-1.41-.28-.3-.72-.45-1.32-.45h-1.19v3.72h.96c.56,0,1.02-.14,1.37-.41Z"/>
          <path d="M22.92,9.37c.61.73.92,1.69.92,2.87s-.32,2.16-.96,2.93c-.64.77-1.44,1.15-2.4,1.15s-1.78-.39-2.47-1.18c-.67-.79-1-1.77-.99-2.93.01-1.16.35-2.11.99-2.86.65-.74,1.47-1.11,2.49-1.11s1.82.37,2.42,1.12ZM20.47,15.93c.69,0,1.22-.33,1.58-1,.36-.66.54-1.55.54-2.65s-.16-1.97-.47-2.59c-.37-.73-.95-1.1-1.72-1.1s-1.34.35-1.7,1.04c-.3.59-.45,1.47-.45,2.64,0,2.43.74,3.65,2.22,3.65Z"/>
          <path d="M30.08,15.82v.35h-3.2v-.35h1.05v-7.02h-1.05v-.35h3.2v.35h-1.04v7.02h1.04Z"/>
          <path d="M40.79,8.45v.35c-.43,0-.69.04-.76.11-.19.19-.29.48-.29.86l.02,6.59h-.26l-4.74-7.3v5.8c0,.39.09.67.28.85.07.07.33.11.76.11v.35h-2.48v-.35c.42,0,.66-.03.74-.1.21-.18.31-.47.31-.86v-5.8c-.02-.17-.13-.26-.34-.26h-.63v-.35h2.24l3.71,5.77v-4.45c0-.38-.1-.67-.31-.87-.08-.07-.33-.1-.74-.1v-.35h2.48Z"/>
          <path d="M50.66,8.45l.02,2.27h-.34c-.04-.63-.21-1.09-.5-1.39-.29-.3-.8-.47-1.53-.51l-.52-.02v7.02h1.05v.35h-3.11v-.35h1.04v-7.02l-.5.02c-.72.03-1.23.19-1.52.48-.29.29-.46.76-.53,1.43h-.32l.02-2.27h6.74Z"/>
        </g>
        <path d="M57.05,16.41l4.05-13.9c-1.34.98-2.74,1.77-4.19,2.37l-.05-.71c2.62-1.22,4.59-2.61,5.9-4.17h.84l-4.81,16.41h-1.74Z"/>
        <polyline class="cls-3" points="66.42 3.65 72.5 3.65 72.5 16.93"/>
        <line class="cls-3" x1=".4" y1="3.65" x2="52.63" y2="3.65"/>
        <polyline class="cls-3" points="72.5 20.13 .4 20.13 .4 6.85"/>
      </g>
    </g>
    <path class="cls-1" d="M122.61,65.05c1.14,1.06,3.29,1.86,4.64,2.63,0,0,4.76,2.41,4.76,2.41,7.84,4.01,18.4,9.22,26.13,13.34.78.42,1.56.85,2.46,1.07.28.07.45.35.38.63-.09.38-.58.52-.86.25-.66-.63-1.44-1.08-2.23-1.5-7.68-4.18-18.22-9.49-26.09-13.39-1.54-.77-5.66-2.83-7.16-3.58-.8-.4-1.57-.84-2.49-.99-.29-.05-.48-.32-.43-.6.06-.41.6-.59.89-.29h0Z"/>
  </g>
</svg>