<?xml version="1.0" encoding="UTF-8"?>
<svg id="_レイヤー_2" data-name="レイヤー 2" xmlns="http://www.w3.org/2000/svg" viewBox="0 0 244.44 77.76">
  <defs>
    <style>
      .cls-1 {
        fill: #030000;
      }

      .cls-2 {
        fill: #fff;
      }

      .cls-3 {
        fill: none;
        opacity: .5;
        stroke: #000;
        stroke-miterlimit: 10;
        stroke-width: .8px;
      }
    </style>
  </defs>
  <g id="design">
    <g>
      <path d="M53.44,46.46c-.07-.1-.18-.23-.32-.38-.15-.15-.3-.3-.45-.44-.15-.14-.28-.24-.38-.3.43-.26.85-.58,1.27-.96.41-.38.79-.78,1.13-1.21s.61-.84.82-1.23l1.33.77c-.24.45-.54.92-.92,1.39-.37.47-.77.91-1.2,1.32-.42.41-.85.76-1.27,1.05ZM57.16,48.26c-.01-.11-.05-.27-.1-.48s-.12-.41-.18-.61c-.06-.2-.13-.36-.2-.48.74-.01,1.25-.08,1.53-.22.28-.14.42-.41.42-.83v-5.18h-1.58c-.58,0-1.14,0-1.69,0-.55,0-1.02.01-1.4.02-.39,0-.63.01-.73.03v-1.5c.11.01.36.02.75.03.39,0,.85,0,1.39,0s1.1,0,1.67,0c.58,0,1.11,0,1.6,0v-3.16h1.62v3.16c.46,0,.99,0,1.58,0,.59,0,1.16-.01,1.73-.02.56,0,1.04-.01,1.44-.02.4,0,.65,0,.75,0v1.5c-.11-.01-.37-.02-.77-.03-.4,0-.87-.01-1.42-.02-.55,0-1.12,0-1.7,0h-1.61v5.47c0,.52-.09.95-.27,1.28-.18.33-.5.58-.94.74-.45.16-1.07.27-1.88.31ZM65.05,46.33c-.2-.36-.48-.77-.83-1.21-.35-.44-.72-.87-1.11-1.28-.39-.41-.76-.76-1.11-1.03l1.09-.9c.36.28.75.63,1.17,1.04s.82.82,1.19,1.25c.37.42.68.8.92,1.13-.11.06-.26.15-.43.27-.18.12-.35.26-.51.39-.16.14-.29.25-.37.34ZM64.44,38.08c-.14-.24-.31-.5-.53-.77-.22-.28-.44-.55-.68-.81-.24-.26-.45-.48-.65-.65l.78-.59c.17.16.38.38.63.65.25.28.49.56.72.85.23.29.41.53.54.72l-.82.59ZM65.94,36.89c-.14-.24-.32-.5-.54-.77-.23-.28-.46-.54-.7-.8-.24-.26-.46-.46-.66-.62l.78-.59c.17.15.38.36.64.63.25.27.5.55.75.83.24.28.43.52.55.71l-.82.61Z"/>
      <path d="M72.48,48.91c-.06-.11-.15-.26-.28-.44-.13-.18-.26-.36-.4-.53-.14-.17-.25-.29-.36-.37,1.58-.59,2.72-1.37,3.43-2.35.71-.97,1.1-2.23,1.17-3.77-.71.01-1.41.02-2.08.03-.67.01-1.29.02-1.84.03-.55.01-1.01.02-1.38.03-.37,0-.6.01-.71.03l-.07-1.53h.87c.49,0,1.1,0,1.85,0,.75,0,1.56-.01,2.43-.03.87-.01,1.75-.03,2.63-.04s1.69-.03,2.44-.04c.75-.01,1.37-.02,1.86-.03.49-.01.78-.02.88-.03l.02,1.53c-.11,0-.43,0-.94,0-.51,0-1.15.01-1.9.02-.76,0-1.58.01-2.45.03-.08,1.85-.54,3.37-1.38,4.57-.84,1.2-2.11,2.17-3.81,2.91ZM72.37,37.5l-.08-1.55h.74c.4,0,.9,0,1.48-.02.58-.01,1.2-.03,1.84-.04s1.26-.03,1.84-.04c.58-.01,1.08-.03,1.48-.04.4-.02.64-.03.72-.03l.03,1.53c-.1-.01-.35-.01-.76,0-.4,0-.89.01-1.46.03-.57.01-1.17.03-1.8.04s-1.23.03-1.81.05c-.58.02-1.07.03-1.47.04-.4.01-.65.02-.76.03ZM82.74,38.49c-.14-.24-.31-.5-.54-.78-.22-.28-.45-.56-.68-.82-.23-.26-.45-.48-.64-.65l.78-.58c.17.15.38.36.63.65.25.28.49.57.72.86.23.29.41.53.54.72l-.82.59ZM84.22,37.28c-.14-.24-.32-.5-.54-.77-.23-.28-.46-.54-.7-.8-.24-.26-.45-.46-.65-.62l.77-.59c.18.15.4.36.65.64.25.28.5.56.74.84.24.28.43.52.55.71l-.82.6Z"/>
      <path d="M91.74,48.82v-5.75c-.69.48-1.39.92-2.11,1.32-.71.4-1.41.75-2.09,1.05-.1-.19-.23-.4-.37-.63-.15-.23-.3-.4-.46-.51.73-.26,1.48-.6,2.25-1.03.78-.43,1.54-.9,2.28-1.42.74-.52,1.42-1.07,2.04-1.63.62-.57,1.12-1.13,1.5-1.68l1.07.8c-.76.96-1.69,1.88-2.79,2.75v6.73h-1.33Z"/>
      <path d="M103.86,48.86c-.05-.1-.12-.25-.22-.43-.1-.19-.21-.37-.33-.56-.12-.19-.22-.33-.31-.42,2.06-.6,3.76-1.48,5.09-2.63,1.33-1.16,2.3-2.54,2.9-4.15-.52.02-1.13.05-1.84.08-.7.03-1.43.07-2.18.11-.75.04-1.48.08-2.17.11s-1.29.06-1.81.09-.88.05-1.1.07l-.14-1.63c.27.01.67.01,1.21,0,.53,0,1.14-.02,1.84-.03.69-.02,1.4-.04,2.13-.06.73-.02,1.43-.05,2.11-.08.67-.03,1.27-.06,1.78-.09.51-.03.88-.07,1.1-.1l.9.54c-.52,2.19-1.52,4.05-3.01,5.6-1.48,1.55-3.47,2.74-5.95,3.58ZM103.45,37.23v-1.56c.5.01,1.08.02,1.76.03.67.01,1.39.02,2.13.02s1.43,0,2.1-.02c.67-.01,1.29-.02,1.84-.03v1.56c-.57-.02-1.17-.04-1.82-.04-.65,0-1.35,0-2.12,0h-1.37c-.48,0-.94,0-1.39,0-.44,0-.82.02-1.14.04Z"/>
      <path d="M123.62,48.62v-7.8c-.93.65-1.88,1.24-2.85,1.78-.97.54-1.92,1.02-2.85,1.43-.11-.19-.27-.43-.47-.71-.2-.28-.39-.5-.59-.65.95-.35,1.95-.81,2.99-1.37,1.04-.56,2.06-1.19,3.05-1.9.99-.7,1.9-1.43,2.71-2.19.82-.76,1.48-1.51,1.99-2.24l1.36.95c-.49.63-1.05,1.26-1.69,1.89-.64.62-1.32,1.22-2.05,1.8v9.01h-1.62Z"/>
      <path d="M136.58,40.26c-.12-.14-.32-.31-.59-.54-.27-.22-.56-.45-.88-.68-.32-.23-.63-.45-.93-.65-.3-.2-.55-.34-.76-.43l1.05-1.33c.2.11.46.27.76.48.3.2.61.42.93.65.32.23.61.45.88.66.27.22.48.39.63.53l-1.1,1.31ZM134.56,47.8l-.88-1.58c.8-.19,1.65-.48,2.53-.88.88-.39,1.76-.85,2.63-1.37.87-.52,1.7-1.08,2.49-1.67.79-.6,1.51-1.19,2.15-1.79.64-.6,1.16-1.18,1.57-1.73.03.12.1.3.19.52.09.22.19.44.29.65.1.21.18.37.24.47-.54.68-1.24,1.38-2.07,2.11-.84.73-1.76,1.43-2.77,2.1-1.01.67-2.06,1.29-3.15,1.84-1.09.56-2.16,1-3.21,1.34Z"/>
      <path d="M156.91,49.18c-.87,0-1.66-.09-2.35-.26-.69-.18-1.24-.45-1.64-.82-.4-.37-.6-.87-.6-1.48,0-.51.16-.98.49-1.4.33-.43.78-.82,1.35-1.18.57-.36,1.21-.69,1.91-.99v-.19c0-.51-.1-.87-.31-1.07-.21-.2-.48-.32-.81-.34-.58-.03-1.16.06-1.73.27-.58.22-1.1.57-1.58,1.07-.2.22-.45.46-.73.75-.28.28-.54.52-.77.71l-1.14-1.14c.8-.57,1.56-1.27,2.27-2.11.71-.84,1.3-1.72,1.78-2.64-.69.03-1.32.06-1.9.07-.57.01-1,.01-1.28,0l-.07-1.51c.36.03.9.05,1.61.05s1.48-.02,2.3-.07c.15-.4.26-.79.35-1.17.08-.39.13-.75.14-1.1l1.56.1c-.03.69-.17,1.38-.41,2.07.87-.06,1.69-.13,2.46-.22.77-.09,1.35-.19,1.74-.29l.1,1.46c-.32.07-.73.13-1.25.2-.52.06-1.08.12-1.7.17s-1.25.1-1.9.14c-.17.39-.38.78-.63,1.18-.25.4-.5.78-.77,1.15.27-.15.58-.26.91-.33.33-.07.65-.11.94-.11.67,0,1.2.19,1.6.56.4.37.63.96.71,1.77.67-.24,1.35-.45,2.03-.64.69-.19,1.32-.35,1.9-.48l.46,1.45c-.78.11-1.54.26-2.28.45s-1.43.39-2.07.62v2.33h-1.55v-1.75c-.67.32-1.21.65-1.62.99-.41.35-.62.68-.62,1.01,0,.43.26.74.77.93.52.19,1.25.29,2.2.29.36,0,.76-.03,1.21-.08.44-.05.89-.12,1.33-.2.45-.08.85-.18,1.22-.28-.02.1-.03.25-.03.45s0,.4.02.6.02.37.03.49v.07c-.57.15-1.18.26-1.84.33-.66.07-1.27.11-1.84.11Z"/>
      <path d="M166.51,49.67c-.02-.2-.07-.47-.14-.8-.07-.33-.14-.57-.2-.73h1.21c.23,0,.39-.04.49-.12.1-.08.15-.23.15-.44v-3.57c-.48.18-.91.34-1.3.48-.39.14-.67.23-.82.29l-.39-1.6c.27-.06.63-.15,1.08-.29s.93-.29,1.44-.46v-3.42h-2.24v-1.45h2.24v-3.31h1.48v3.31h1.77v1.45h-1.77v2.91c.41-.15.78-.28,1.1-.41.33-.12.57-.23.73-.31v1.46c-.15.08-.39.19-.71.32-.33.14-.7.29-1.12.46v4.69c0,1.02-.6,1.53-1.79,1.53h-1.21ZM171.62,41.33c-.07-.09-.17-.2-.31-.34-.14-.14-.27-.27-.42-.41s-.26-.24-.35-.31c.52-.35,1.03-.78,1.52-1.28.49-.5.95-1.03,1.37-1.59.42-.56.78-1.12,1.1-1.67.31-.55.55-1.05.71-1.5l1.41.22c.29.62.69,1.28,1.19,1.96.5.69,1.07,1.34,1.71,1.97.64.63,1.31,1.17,2,1.62-.09.08-.21.2-.35.35-.14.15-.28.31-.41.46-.13.15-.23.29-.3.4-.53-.39-1.09-.87-1.67-1.45-.58-.58-1.12-1.2-1.63-1.86-.51-.66-.94-1.29-1.28-1.89-.26.57-.61,1.18-1.05,1.83-.44.65-.94,1.28-1.5,1.89-.56.61-1.14,1.14-1.74,1.59ZM172.46,49.4v-6.12h7.14v6.12h-7.14ZM173.12,41.67v-1.41h5.76v1.41h-5.76ZM174,48.01h4.03v-3.35h-4.03v3.35Z"/>
      <path d="M189.76,46.56c-.49.28-.96.4-1.43.35s-.89-.38-1.27-.98c-.33-.54-.63-1.17-.9-1.88-.27-.71-.51-1.46-.71-2.26-.2-.8-.35-1.59-.45-2.38-.1-.79-.15-1.53-.14-2.22l1.6.02c-.02.58,0,1.2.07,1.87.07.67.18,1.34.33,2.01.15.67.33,1.3.54,1.9.21.6.44,1.12.71,1.56.19.32.39.49.59.53s.41-.02.61-.17c.28-.19.58-.46.89-.79.31-.33.56-.65.74-.94.08.2.21.44.4.7.19.26.35.46.5.61-.25.39-.57.77-.96,1.16-.39.39-.77.69-1.13.91ZM196.46,43.5c-.1-.31-.27-.7-.49-1.17-.23-.48-.49-.97-.78-1.48-.29-.51-.59-.99-.89-1.44-.3-.45-.57-.8-.81-1.06l1.26-.8c.26.29.55.67.88,1.14.32.46.64.96.96,1.49.32.53.6,1.03.84,1.5.24.48.42.88.54,1.21-.26.05-.53.13-.82.25-.28.12-.51.24-.68.37Z"/>
      <path d="M202.6,48.42c-.08-.44-.14-.99-.19-1.64-.05-.65-.08-1.37-.09-2.14-.02-.78-.02-1.58,0-2.41.02-.83.05-1.64.1-2.43.05-.79.12-1.53.2-2.2.08-.67.18-1.25.29-1.73l1.53.32c-.11.41-.21.93-.3,1.57-.08.64-.15,1.34-.2,2.11-.05.77-.08,1.55-.1,2.36-.02.81-.02,1.59,0,2.35.02.75.05,1.44.1,2.05.05.61.12,1.11.2,1.5l-1.53.29ZM209.28,47.41c-.77-.05-1.39-.2-1.87-.45-.48-.26-.78-.64-.92-1.15-.23-.59-.21-1.34.05-2.24l1.38.37c-.08.25-.12.48-.11.69,0,.21.05.39.13.55.18.39.73.61,1.63.68.51.03,1.08.03,1.7-.03.62-.05,1.23-.13,1.84-.23.6-.1,1.12-.22,1.55-.36-.02.11-.04.28-.06.5s-.03.44-.03.66c0,.22,0,.39,0,.52-.57.15-1.16.26-1.79.34-.63.08-1.24.13-1.84.14-.6.02-1.14.01-1.64,0ZM207.07,39.15l-.08-1.6c.42.05.93.07,1.53.09.6.01,1.23,0,1.89-.03s1.29-.09,1.89-.16c.6-.07,1.11-.16,1.53-.26l-.05,1.58c-.44.08-.96.15-1.55.21-.59.06-1.2.11-1.84.14-.63.03-1.24.05-1.82.06-.58,0-1.08,0-1.5-.03Z"/>
      <path d="M224.8,49.62c-.2-.4-.47-.85-.81-1.35-.33-.5-.7-1.03-1.1-1.58-.4-.55-.81-1.09-1.23-1.61-.42-.52-.82-1-1.21-1.44-.39-.44-.72-.8-1-1.08-.39-.39-.57-.71-.56-.99.01-.27.21-.58.6-.93.37-.34.81-.77,1.3-1.28.49-.52.99-1.07,1.5-1.65.5-.58.97-1.16,1.39-1.73.42-.57.74-1.07.95-1.5l1.46,1c-.25.36-.58.8-1,1.31s-.88,1.03-1.37,1.57c-.49.54-.97,1.05-1.44,1.55-.46.49-.87.9-1.22,1.23-.32.28-.31.59.02.92.28.28.61.64.99,1.07.37.43.77.9,1.17,1.4.41.5.81,1.01,1.21,1.52.4.51.76.99,1.09,1.44.33.45.59.82.78,1.13-.12.06-.29.14-.49.26-.2.12-.4.25-.59.38-.19.14-.33.25-.42.34Z"/>
      <path d="M236.25,46.56c-.49.28-.96.4-1.43.35s-.89-.38-1.27-.98c-.33-.54-.63-1.17-.9-1.88-.27-.71-.51-1.46-.71-2.26-.2-.8-.35-1.59-.45-2.38-.1-.79-.15-1.53-.14-2.22l1.6.02c-.02.58,0,1.2.07,1.87.07.67.18,1.34.33,2.01.15.67.33,1.3.54,1.9.21.6.44,1.12.71,1.56.19.32.39.49.59.53s.41-.02.61-.17c.28-.19.58-.46.89-.79.31-.33.56-.65.74-.94.08.2.21.44.4.7.19.26.35.46.5.61-.25.39-.57.77-.96,1.16-.39.39-.77.69-1.13.91ZM242.95,43.5c-.1-.31-.27-.7-.49-1.17-.23-.48-.49-.97-.78-1.48-.29-.51-.59-.99-.89-1.44-.3-.45-.57-.8-.81-1.06l1.26-.8c.26.29.55.67.88,1.14.32.46.64.96.96,1.49.32.53.6,1.03.84,1.5.24.48.42.88.54,1.21-.26.05-.53.13-.82.25-.28.12-.51.24-.68.37Z"/>
      <path d="M54.66,77.67v-6.77c-.35.69-.73,1.36-1.14,2.01-.41.65-.77,1.15-1.09,1.51-.06-.1-.15-.22-.29-.36-.14-.14-.27-.26-.42-.38s-.25-.2-.33-.25c.29-.27.6-.63.91-1.06.31-.44.62-.91.92-1.42s.57-1.02.81-1.53c.24-.51.42-.99.54-1.43h-2.53v-1.39h2.62v-1.87c-.8.18-1.55.29-2.23.34-.01-.09-.05-.22-.11-.4-.06-.18-.13-.35-.2-.53-.07-.18-.13-.31-.18-.4.38-.01.83-.05,1.34-.13.51-.07,1.04-.17,1.58-.3.54-.12,1.06-.27,1.55-.43.49-.16.89-.34,1.21-.52l.78,1.21c-.31.15-.65.29-1.03.43s-.78.26-1.22.37v2.23h2.24v1.39h-2.24v1.05c.18.25.42.54.71.86.29.32.6.63.91.91.31.28.59.51.84.68-.08.06-.19.16-.32.3-.14.14-.26.29-.37.44-.11.15-.2.27-.25.37-.22-.19-.46-.44-.72-.73-.27-.29-.53-.6-.79-.92v6.71h-1.5ZM57.71,77.05v-1.36h4.17v-1.9h-2.89v-1.29h2.89v-1.7h-3.31v-1.33h8.18v1.33h-3.3v1.7h2.81v1.29h-2.81v1.9h3.79v1.36h-9.52ZM59.1,68.12v-5.22h7.19v5.22h-7.19ZM60.61,66.76h4.17v-2.52h-4.17v2.52Z"/>
      <path d="M74.09,77.01c-.95-.03-1.67-.29-2.17-.77s-.74-1.03-.74-1.65c0-.44.14-.85.43-1.22.28-.37.69-.66,1.22-.88.53-.22,1.15-.31,1.88-.29.23,0,.45.01.67.03.22.02.44.05.65.09-.05-.71-.1-1.5-.15-2.36-.06-.86-.11-1.73-.16-2.59-.05-.87-.09-1.68-.13-2.44-.03-.76-.05-1.41-.05-1.94h1.62c-.01.42-.01.93,0,1.53.01.6.03,1.24.07,1.92.44-.03.94-.09,1.5-.17.56-.08,1.11-.18,1.64-.29.53-.11.99-.23,1.36-.36,0,.09.01.24.03.44.02.2.05.41.08.61.03.2.05.35.08.44-.37.11-.84.22-1.39.31-.56.1-1.12.18-1.69.25-.57.07-1.09.12-1.54.15.05.86.1,1.72.15,2.57.06.85.1,1.6.14,2.26.88.25,1.74.57,2.56.96s1.57.82,2.25,1.28c-.1.08-.23.21-.37.39-.15.18-.28.37-.4.55-.12.19-.2.33-.25.43-1.17-.93-2.4-1.63-3.71-2.11v.22c0,.77-.29,1.41-.86,1.91-.57.5-1.48.73-2.71.69ZM74.14,75.53c.59.03,1.06-.05,1.42-.25.36-.2.54-.5.54-.89v-.31c0-.11,0-.23-.02-.36-.26-.06-.52-.1-.78-.13-.26-.03-.52-.04-.78-.04-.6,0-1.06.1-1.37.3-.31.2-.47.43-.47.71,0,.25.12.46.36.65.24.18.61.29,1.1.32Z"/>
      <path d="M91.67,74.56c-.49.28-.96.4-1.43.35s-.89-.38-1.27-.98c-.33-.54-.63-1.17-.9-1.88-.27-.71-.51-1.46-.71-2.26-.2-.8-.35-1.59-.45-2.38-.1-.79-.15-1.53-.14-2.22l1.6.02c-.02.58,0,1.2.07,1.87.07.67.18,1.34.33,2.01.15.67.33,1.3.54,1.9.21.6.44,1.12.71,1.56.19.32.39.49.59.53s.41-.02.61-.17c.28-.19.58-.46.89-.79.31-.33.56-.65.74-.94.08.2.21.44.4.7.19.26.35.46.5.61-.25.39-.57.77-.96,1.16-.39.39-.77.69-1.13.91ZM98.37,71.5c-.1-.31-.27-.7-.49-1.17-.23-.48-.49-.97-.78-1.48-.29-.51-.59-.99-.89-1.44-.3-.45-.57-.8-.81-1.06l1.26-.8c.26.29.55.67.88,1.14.32.46.64.96.96,1.49.32.53.6,1.03.84,1.5.24.48.42.88.54,1.21-.26.05-.53.13-.82.25-.28.12-.51.24-.68.37Z"/>
      <path d="M103.81,77.49v-12.99h6.14c.02-.33.04-.68.04-1.06,0-.38,0-.78,0-1.2h1.56c0,.42,0,.82-.03,1.19-.02.37-.04.73-.06,1.07h6.15v11.37c0,.52-.15.92-.44,1.2-.29.28-.76.42-1.39.42h-1.36c-.02-.22-.07-.48-.14-.81-.07-.32-.14-.58-.21-.76h1.34c.24,0,.41-.04.51-.13s.15-.24.15-.45v-9.4h-4.81c.19.35.46.7.8,1.05.34.35.72.67,1.13.99.41.31.83.59,1.25.82.42.24.81.42,1.17.54-.08.08-.18.21-.31.39-.13.18-.25.36-.36.54-.11.18-.18.31-.21.4-.74-.32-1.46-.74-2.17-1.28-.71-.53-1.33-1.14-1.86-1.84-.35.7-.86,1.3-1.52,1.8-.66.5-1.54.94-2.63,1.31-.05-.11-.12-.26-.21-.43-.1-.17-.2-.34-.31-.5-.11-.16-.2-.29-.28-.37.84-.28,1.52-.58,2.05-.9.53-.32.94-.68,1.24-1.1.3-.41.52-.89.65-1.44h-4.37v11.54h-1.53ZM106.77,75.52c-.05-.09-.12-.22-.24-.4-.11-.18-.24-.35-.37-.51-.13-.16-.24-.28-.33-.35,1.43-.46,2.48-1.13,3.15-2,.67-.87,1.04-1.9,1.1-3.1l1.51.19c-.03.33-.08.65-.14.95-.06.31-.14.6-.23.88.28.36.65.73,1.11,1.11.46.38.96.73,1.5,1.04.54.31,1.05.55,1.54.72-.08.08-.18.21-.31.39-.13.18-.25.36-.37.54-.11.18-.19.32-.24.41-.63-.25-1.3-.63-2.01-1.14s-1.31-1.07-1.84-1.68c-.39.66-.89,1.23-1.5,1.71-.62.48-1.4.89-2.34,1.23ZM111.27,65.94h-.02v.03l.02-.03Z"/>
      <path d="M122.18,77.2c-.15-.09-.36-.2-.65-.33-.28-.13-.52-.22-.71-.26.31-.54.57-1.08.79-1.62.22-.54.4-1.12.54-1.74.14-.62.25-1.32.31-2.09.07-.77.1-1.66.1-2.67v-5.68h13.7v1.28h-12.21v4.39c0,1.38-.06,2.59-.2,3.62-.13,1.03-.33,1.96-.61,2.77-.28.82-.64,1.6-1.08,2.35ZM127.89,77.76c-.02-.22-.07-.46-.14-.74-.07-.28-.14-.5-.2-.67h1.55c.24,0,.4-.04.49-.12.09-.08.14-.23.14-.44v-1.29h-5.42v-1.19h5.42v-.7h.48c.1-.06.24-.14.42-.24s.36-.21.54-.31c.18-.11.31-.2.42-.26h-6.15v-1.12h8.69l.37.51c-.18.14-.42.31-.71.51-.29.2-.6.41-.93.63-.32.22-.62.41-.9.59-.28.18-.5.31-.65.4h5.22v1.19h-5.25v1.7c0,.54-.15.94-.45,1.19-.3.25-.76.37-1.39.37h-1.53ZM125.77,69.82v-4.86h8.84v4.86h-8.84ZM127.23,66.9h5.92v-.88h-5.92v.88ZM127.23,68.78h5.92v-.92h-5.92v.92Z"/>
      <path d="M146.17,77.66v-4.1c-.8.02-1.6.05-2.38.08-.78.03-1.5.05-2.17.07-.66.02-1.22.03-1.67.04l-.19-1.36c.32,0,.74,0,1.27,0,.53,0,1.12-.01,1.79-.02.66,0,1.36,0,2.08,0-.5-.37-1.01-.74-1.53-1.09-.52-.35-.96-.63-1.31-.83l.88-1.04c.21.14.44.28.69.44.24.16.49.32.74.49.16-.19.33-.4.5-.62s.34-.44.5-.65h-6v-1.26h6.8v-.95h-5v-1.22h5v-.92h-6v-1.24h6v-1.29h1.58v1.29h6.05v1.24h-6.05v.92h5.1v1.22h-5.1v.95h6.87v1.26h-4.81l.9.48c-.33.36-.76.8-1.28,1.31s-1.05,1-1.57,1.46c.67-.01,1.3-.03,1.9-.04.6-.02,1.13-.03,1.58-.04-.16-.16-.32-.31-.48-.45-.16-.14-.31-.27-.44-.38l.99-.87c.32.24.67.54,1.05.89.38.36.75.72,1.1,1.1.36.37.66.71.91,1.02-.15.09-.34.24-.58.46-.24.22-.41.39-.53.51-.15-.19-.31-.39-.48-.6-.18-.21-.36-.42-.55-.64-.56.03-1.23.07-2.03.11-.8.04-1.65.08-2.54.13v4.16h-1.58ZM140.64,77.37c-.03-.11-.1-.26-.2-.43s-.2-.34-.31-.5c-.11-.16-.21-.29-.3-.38.48-.14.99-.32,1.55-.55.55-.23,1.09-.49,1.61-.77.52-.28.96-.57,1.31-.85l.9,1.09c-.45.34-.95.66-1.48.96-.53.3-1.07.57-1.6.82-.53.24-1.03.45-1.5.62ZM146.46,71.84c.31-.27.63-.57.97-.91.34-.33.67-.67.99-.99.32-.33.59-.62.82-.88h-2.21c-.24.33-.5.67-.79,1.02s-.57.67-.84.97c.19.14.38.27.55.41.18.14.35.27.52.39ZM153.32,77.37c-.45-.17-.95-.38-1.49-.62-.54-.24-1.07-.52-1.61-.82-.53-.31-1.03-.62-1.48-.95l.9-1.09c.36.28.8.56,1.31.84.51.28,1.04.54,1.6.77.56.24,1.08.43,1.56.56-.08.09-.18.22-.29.38-.11.16-.22.33-.31.5s-.16.31-.2.43Z"/>
      <path d="M160.87,77.57v-7.12c-.36.66-.75,1.29-1.16,1.91-.41.62-.81,1.14-1.18,1.56-.14-.14-.34-.31-.6-.52-.27-.21-.48-.35-.64-.43.31-.29.63-.67.99-1.14.35-.46.7-.97,1.04-1.5.34-.54.65-1.07.93-1.61.28-.53.49-1,.64-1.41v-.12h-3.04v-1.36h3.04v-3.45h1.51v3.45h2.36v1.36h-2.36v.87c.17.22.38.47.63.76.25.29.51.58.79.88.28.3.54.57.8.82.25.24.47.43.64.57-.08.07-.19.18-.33.32-.14.15-.28.29-.41.44-.13.15-.22.26-.28.34-.25-.23-.54-.53-.88-.91-.33-.38-.65-.76-.96-1.15v7.45h-1.51ZM167.57,77.57c-.02-.22-.07-.48-.14-.8-.07-.32-.14-.57-.22-.75h1.41c.24,0,.41-.04.51-.12.1-.08.15-.23.15-.46v-6.09c-.59,1-1.28,1.96-2.08,2.88-.8.92-1.63,1.71-2.49,2.37-.06-.1-.16-.23-.3-.37-.14-.15-.29-.29-.44-.43-.15-.14-.28-.25-.38-.31.49-.33.99-.73,1.5-1.22.51-.48,1-1.01,1.47-1.57.47-.57.9-1.15,1.3-1.76.4-.61.73-1.19,1-1.76h-3.2v-1.39h3.62v-3.43h1.55v3.43h2.31v1.39h-2.31v8.79c0,.56-.15.96-.45,1.22s-.77.38-1.4.38h-1.41Z"/>
    </g>
    <g>
      <rect class="cls-2" x="48.76" y="5.16" width="72.36" height="16.76"/>
      <g>
        <g>
          <path d="M57.87,8.46c.92,0,1.61.2,2.08.6.47.4.71.95.71,1.64s-.32,1.22-.95,1.61c-.55.34-1.29.52-2.22.52h-.94v3h1.04v.35h-3.11v-.35h1.05v-7.02h-1.05v-.35h3.39ZM58.88,12.11c.43-.32.63-.8.62-1.44-.02-.64-.16-1.11-.44-1.41-.28-.3-.72-.45-1.32-.45h-1.19v3.72h.96c.56,0,1.02-.14,1.37-.41Z"/>
          <path d="M69.68,9.38c.61.73.92,1.69.92,2.87s-.32,2.16-.96,2.93c-.64.77-1.44,1.15-2.4,1.15s-1.78-.39-2.47-1.18c-.67-.79-1-1.77-.99-2.93.01-1.16.35-2.11.99-2.86.65-.74,1.47-1.11,2.49-1.11s1.82.37,2.42,1.12ZM67.24,15.94c.69,0,1.22-.33,1.58-1,.36-.66.54-1.55.54-2.65s-.16-1.97-.47-2.59c-.37-.73-.95-1.1-1.72-1.1s-1.34.35-1.7,1.04c-.3.59-.45,1.47-.45,2.64,0,2.43.74,3.65,2.22,3.65Z"/>
          <path d="M76.85,15.83v.35h-3.2v-.35h1.05v-7.02h-1.05v-.35h3.2v.35h-1.04v7.02h1.04Z"/>
          <path d="M87.55,8.46v.35c-.43,0-.69.04-.76.11-.19.19-.29.48-.29.86l.02,6.59h-.26l-4.74-7.3v5.8c0,.39.09.67.28.85.07.07.33.11.76.11v.35h-2.48v-.35c.42,0,.66-.03.74-.1.21-.18.31-.47.31-.86v-5.8c-.02-.17-.13-.26-.34-.26h-.63v-.35h2.24l3.71,5.77v-4.45c0-.38-.1-.67-.31-.87-.08-.07-.33-.1-.74-.1v-.35h2.48Z"/>
          <path d="M97.43,8.46l.02,2.27h-.34c-.04-.63-.21-1.09-.5-1.39-.29-.3-.8-.47-1.53-.51l-.52-.02v7.02h1.05v.35h-3.11v-.35h1.04v-7.02l-.5.02c-.72.03-1.23.19-1.52.48-.29.29-.46.76-.53,1.43h-.32l.02-2.27h6.74Z"/>
        </g>
        <path d="M109.78,14.83l-.42,1.6h-9.06l.07-.34c3.44-3.26,5.75-5.49,6.92-6.71,1.43-1.51,2.37-2.73,2.82-3.67.29-.58.43-1.26.43-2.02,0-.84-.2-1.47-.6-1.9-.4-.43-.97-.64-1.69-.64-.81,0-1.51.22-2.08.65-.58.44-1.13,1.23-1.67,2.39h-.69c.47-1.42,1.14-2.48,1.99-3.16.85-.69,1.8-1.03,2.83-1.03,1.21,0,2.16.33,2.84.99.69.66,1.03,1.52,1.03,2.57,0,.6-.09,1.14-.28,1.61-.24.62-.65,1.26-1.24,1.93s-1.89,1.89-3.88,3.66l-4.54,4.06h7.23Z"/>
        <polyline class="cls-3" points="113.18 3.66 119.26 3.66 119.26 16.95"/>
        <line class="cls-3" x1="47.16" y1="3.66" x2="99.4" y2="3.66"/>
        <polyline class="cls-3" points="119.26 20.15 47.16 20.15 47.16 6.86"/>
      </g>
    </g>
    <path class="cls-1" d="M.7,16.97c1.15.33,2.83-.07,4.01-.1,0,0,3.99-.33,3.99-.33,6.59-.51,15.39-1.33,21.94-1.93.67-.06,1.33-.12,1.97-.41.27-.12.58,0,.7.26.19.39-.2.85-.62.73-1.16-.3-2.83.05-4.01.1,0,0-3.99.33-3.99.33-3.98.31-11.98,1-15.96,1.38,0,0-3.99.36-3.99.36-1.16.18-2.89.07-3.97.59-.94.4-1.11-1.22-.09-1h0Z"/>
  </g>
</svg>