<?xml version="1.0" encoding="UTF-8"?>
<svg id="_レイヤー_2" data-name="レイヤー 2" xmlns="http://www.w3.org/2000/svg" viewBox="0 0 319.57 37.68">
  <defs>
    <style>
      .cls-1 {
        fill: #fff996;
      }

      .cls-2 {
        fill: none;
        stroke: #fff996;
        stroke-miterlimit: 10;
        stroke-width: 1.13px;
      }
    </style>
  </defs>
  <g id="design">
    <g>
      <g>
        <path class="cls-1" d="M23.33,29.59c-4.73-.79-7.68-2.33-10.54-4.06-2.43,1.9-4.92,3.62-10.43,5.47l-2.36-2.33c1.42-.33,2.88-.67,5.25-1.76,2.49-1.15,3.85-2.13,5.16-3.06-1.72-1.4-2.38-2.22-2.94-2.95-1.7,2.38-2.85,3.38-3.67,4.08l-2.39-1.86c3.04-2.24,4.81-5.23,5.92-8.37l2.87.11c.44.03.68.09.7.33,0,.16-.07.21-.19.3-.05.03-.43.18-.48.23-.05.03-.26.56-.37.83l8.53-.45,1.45,1.28c-.05.05-.19.27-.29.41-2.54,3.68-2.62,3.79-4.65,5.85,3.39,1.96,5.92,2.64,10.35,2.95l-1.9,2.99ZM18.2,37.68c-4.53-1.93-7.81-2.72-12.7-3.11l1.05-2.9c1.86.14,3.35.22,7.34,1.28,3.23.87,4.22,1.37,5.63,2.08l-1.32,2.65ZM14.67,32.05c-1.41-.97-3.46-1.85-4.97-2.32l1.81-2.31c1.22.38,3.54,1.35,5.13,2.47l-1.97,2.16ZM9.89,19.37c.97,1.07,1.66,1.74,2.66,2.6,1.41-1.43,1.91-2.32,2.25-2.85l-4.91.26Z"/>
        <path class="cls-1" d="M34.81,35.28c-2.02.11-5.07-.44-5.27-4.27-.05-.87.06-1.73.13-2.36-.78-.11-1.66-.25-2.66-.55l.23-2.31c1.27.39,1.93.52,2.85.64.17-.74.32-1.44.71-2.81-1.3-.18-1.85-.26-3.05-.51l.06-2.42c1.19.42,2.04.64,3.59.85.53-1.84.8-2.73,1.03-3.81l2.44.77c.17.05.49.14.5.37.01.25-.28.2-.61.32-.34.64-.72,1.77-.98,2.49,1.04-.01,1.52-.04,2.73-.12l-.36,2.27c-.71.06-1.35.09-3.07,0-.21.72-.42,1.48-.73,2.83.44.04.63.03,1.38,0,.94-.05,1.58-.1,2.45-.3l-.42,2.32c-.31.04-.95.13-1.97.19-.79.04-1.29,0-1.86,0-.06.52-.18,1.28-.15,1.93.03.58.19,1.3.76,1.8.63.53,1.45.55,1.99.52,1.71-.09,3.77-.93,3.64-3.44-.07-1.41-.8-2.61-1.1-3.05l1.88-1.12c.57.89,1.5,2.3,1.61,4.44.19,3.6-3.13,5.21-5.75,5.35Z"/>
      </g>
      <g>
        <path class="cls-1" d="M264.11,12.42c-1.42,1.58-2.3,3.46-2.22,5,.07,1.4,1.01,2.19,1.6,2.56,1.37.87,2.79.85,3.63.85l-.66,2.52c-1.09-.13-3.38-.43-5.12-1.99-1.03-.9-1.62-2.2-1.69-3.58-.07-1.36.36-2.75,1.17-4.11.88-1.53,1.84-2.54,2.52-3.23-2.71.37-5.68.77-7.7,1.16l-.46-2.26c4.39-.19,10.66-1.01,14.44-2.39l.12,2.36c-.95.11-3.18.37-5.62,3.11ZM268.54,15.67c-.48-.52-.92-.91-1.75-1.48l.78-1.02c.7.47,1.23.87,1.77,1.48l-.8,1.02ZM270.09,13.74c-.56-.58-1.07-1-1.77-1.46l.8-1.02c.89.58,1.32.99,1.77,1.46l-.8,1.02Z"/>
        <g>
          <g>
            <path class="cls-1" d="M77.73,34.69c-6.16-3.34-8.42-5.94-10.74-10.49-2.46,5.94-5.1,9-10.14,11.79l-3.05-2.46c6.72-3.12,9.25-7.22,10.43-13.54l-10.31.54-.17-3.21,10.67-.56c.05-1.31-.03-2.83-.05-3.27-.09-1.72-.22-3-.33-3.95h3.96c.21-.01.51,0,.52.33.01.24-.27.52-.53.77-.03.63-.05.24.03,1.73.01.27.09,2.8.1,4.2l11.17-.59.17,3.21-10.88.57c2.11,5.61,4.6,8.79,12.04,11.91l-2.91,3.01Z"/>
            <path class="cls-1" d="M105.1,32.02c-5.73-3.1-7.84-5.1-10.55-10.26-1.9,5.22-3.7,7.37-9.29,11.45l-3.03-2.73c2.84-1.55,4.36-2.58,6.13-4.61,3.88-4.49,3.98-9.27,3.82-12.45-.04-.8-.33-4.63-.43-5.88l3.33-.06c.33-.02,1.34-.07,1.36.38,0,.15-.05.27-.21.49-.05.09-.51.5-.56.63-.05.12.05,2.11.07,2.5.63,11.97,6.56,14.97,11.85,17.44l-2.49,3.11Z"/>
            <path class="cls-1" d="M125.56,27.71c-1.16,2.24-3.06,2.45-4.34,2.52-.8.04-1.73.03-2.56-.04l-.6-3.57c.66.17,1.54.4,2.7.34.89-.05,1.36-.22,1.74-.84.52-.83,1.58-4.49,1.42-7.49-.08-1.57-.46-2.51-2.6-2.4-.53.03-1.13.12-1.69.24-1.26,5.52-2.65,9.08-5.43,14.17l-3.47-1.34c2.44-3.47,3.82-6.19,5.27-11.93-1.44.43-2.64.85-4.15,1.5l-1.38-3.53c2.16-.29,4.87-.94,6.16-1.22.26-1.92.44-3.51.34-5.98l3.65.32c.24.02.84.16.86.43,0,.12-.05.21-.36.44-.52.35-.58.39-.59.69-.09,1.08-.25,2.13-.39,3.27.65-.15,1.53-.32,2.33-.36,4.04-.21,4.54,3.07,4.64,4.88.13,2.47-.13,7.1-1.57,9.91ZM130.63,21.69l-2.18-2.95c1.27-.19,1.95-.28,1.91-.99-.05-.92-1.87-3.81-3.6-5.59l2.37-1.91c4.11,3.96,5.04,7.42,5.09,8.49.09,1.69-1.72,2.5-3.6,2.96Z"/>
            <path class="cls-1" d="M153.48,29.02l-2.5-2.88c1-.23,2.79-.68,4.66-2.6.91-.91,2.24-2.74,2.13-4.76-.15-2.85-2.53-4.52-4.94-4.39-2.02.11-4.43,1.36-6.59,3.83l.11,2.71c.18,4.01.46,6.53.63,8.64l-3.52.48c0-3.28,0-4.44-.09-7.89-.88,1.39-1.37,2.22-2.22,3.75l-3.03-2.02c1.34-1.74,1.73-2.33,5.03-7.56l-.05-2.02c-2.3.98-3,1.29-3.93,1.79l-.74-3.83c1.12-.27,2.29-.57,4.55-1.25-.08-2.14-.14-3.72-.34-5.26l3.19.13c.27.02.81.05.82.31,0,.15-.48.59-.56.71-.17.19-.18,1.77-.05,3.04l.9-.38,1.93,1.51c-.77,1.2-1.09,1.87-1.34,2.33.83-.58,2.87-2.03,5.58-2.17,3.45-.18,7.8,2.15,8.07,7.29.38,7.16-5.6,9.62-7.73,10.48Z"/>
            <path class="cls-1" d="M171.7,26.42c-.95.05-1.72-.42-2.25-.87-2.19-1.91-3.32-5.34-3.61-10.98-.2-3.8.12-5.76.49-7.77l3.32.72c.21.05.69.17.71.53.02.33-.33.46-.83.67-.24,1.65-.39,3.39-.22,6.66.3,5.79,1.79,6.79,2.38,6.76,1.07-.06,2.12-3.27,2.61-4.73l2.58,2.07c-1.45,3.59-2.77,6.82-5.18,6.95ZM186.49,20.34c-1.19-6.14-3.33-9.54-5-11.83l2.98-1.65c1.53,1.95,4.37,5.55,5.54,12.37l-3.52,1.11Z"/>
            <path class="cls-1" d="M200.22,24.93c-.95.05-1.72-.42-2.25-.87-2.19-1.91-3.32-5.34-3.61-10.98-.2-3.8.12-5.76.49-7.77l3.31.72c.21.05.69.17.71.53.02.33-.33.46-.83.67-.24,1.65-.39,3.39-.22,6.66.3,5.79,1.79,6.79,2.38,6.76,1.07-.06,2.12-3.27,2.61-4.73l2.58,2.07c-1.45,3.59-2.77,6.82-5.18,6.95ZM215.01,18.85c-1.19-6.14-3.33-9.54-5-11.83l2.98-1.65c1.53,1.95,4.37,5.55,5.54,12.37l-3.52,1.11Z"/>
            <path class="cls-1" d="M238.76.2c3-.16,6.3,1.87,6.51,5.95.38,7.22-6.71,15.76-10.72,20.55-4.36-4.24-12.43-12.1-12.81-19.23-.23-4.34,2.99-6.53,5.85-6.68,3.69-.19,5.05,2.51,5.81,4.02.6-1.61,1.68-4.41,5.36-4.6Z"/>
          </g>
          <polyline class="cls-2" points="52.04 8.53 45.74 8.86 47.04 33.58"/>
          <polyline class="cls-2" points="244 26.66 250.3 26.33 249 1.61"/>
        </g>
      </g>
      <g>
        <path class="cls-1" d="M283,8.39c-.28.06-.31.09-.35.16-.78,1.19-1.04,1.61-1.92,2.74.35.17.47.26.48.48s-.08.29-.22.4c-.09.1-.21.2-.2.37l.52,9.86-2.82.15-.43-8.16c-.75.78-1.1,1.06-1.44,1.32l-2.27-1.58c2.33-1.73,5.1-5.26,6.23-7.52l2.41,1.22c.17.06.23.23.23.3,0,.14-.08.24-.23.28ZM281.73,3.82c-.31.02-.33.04-.56.29-1.97,2.29-3.79,3.7-4.52,4.32l-2.28-1.82c1.15-.88,3.02-2.37,5.09-4.94l2.48,1.57c.1.07.25.2.26.3.01.26-.27.28-.46.29ZM292.23,10.16l.5,9.62c.08,1.56-.99,2.16-2.47,2.24l-2.11.11-1.35-2.9c.77.1,1.91.24,2.34.21.38-.02.71-.23.68-.8l-.44-8.33-6,.31-.14-2.61,12.1-.63.14,2.61-3.25.17ZM283.98,4.74l-.14-2.61,10.22-.54.14,2.61-10.22.54Z"/>
        <path class="cls-1" d="M309.32,2.5c-.29.04-.35.11-.94.77-.48.55-2.68,2.9-5.02,5.32-1.5,1.57-1.61,1.69-1.59,2.15.02.36.18.61.45.82,3.22,2.37,5.65,4.33,8.51,7.57l-2.34,2.43c-3.04-4.06-5.5-6.04-8.72-8.54-1.07-.81-1.28-1.61-1.31-2.04-.06-1.05.76-1.98,1.51-2.77,3.24-3.26,5.1-5.26,7.25-8.2l2.29,1.58c.05.05.52.38.54.62.01.19-.06.2-.61.3Z"/>
        <path class="cls-1" d="M317.66,16.85l-.43,3.53-3.51-.43.43-3.53,3.5.43ZM319.57,1.28l-.65,5.31-1.95,8.52-1.73-.21.17-8.74.65-5.31,3.51.43Z"/>
      </g>
    </g>
  </g>
</svg>