<?xml version="1.0" encoding="UTF-8"?>
<svg id="_レイヤー_2" data-name="レイヤー 2" xmlns="http://www.w3.org/2000/svg" viewBox="0 0 133.94 61.42">
  <defs>
    <style>
      .cls-1 {
        fill: #fff996;
      }
    </style>
  </defs>
  <g id="design">
    <g>
      <g>
        <path class="cls-1" d="M13.35,46.51c.17-.27.32-.47.47-.62.15-.14.27-.37.37-.7.11-.14.24-.21.36-.22.17-.21.39-.42.66-.63.27-.21.39-.42.38-.61.06,0,.08-.17.05-.48.12-.14.19-.18.23-.12.04.06.05.06.05,0l.91-.56c-.01-.13,0-.21.03-.24.03-.03.04-.08.04-.15,0-.06.08-.17.26-.31l.19-.02c.06,0,.09-.02.09-.06,0-.03.03-.05.09-.06.07.12.15.21.21.27.07.06.05.16-.07.29.02.19.08.22.2.08l.09-.1c.13-.01.2.05.21.17l.39.06c-.24.91-.37,1.47-.38,1.66-.02.19.04.35.18.46l.1.09-.09.1c.01.13-.05.2-.17.21l-.15.49c-.13.01-.16.05-.09.1v.09c.07,0,.11.02.11.09,0,.06-.02.1-.09.1-.06.07-.16.19-.3.36-.15.17-.25.23-.32.17-.16.33-.17.56-.04.67.13-.01.11.12-.06.39l.45.73c.31-.09.47-.04.49.15.02.19.09.34.23.46,0,.06.07.06.19-.02l.38-.03.02.19c.14.12.3.16.49.15.07.12.08.22.03.28.07.12.24.17.49.15.13-.01.22.01.29.07.01.13.14.18.4.16l.95-.08c.13-.01.24,0,.34.02.1.02.21,0,.33-.08l.19-.02c.06,0,.16,0,.29.02.13.02.32-.01.57-.1l.95-.08c.2.11.49.09.85-.07.37-.16.56-.18.57-.05l.18-.11c.06-.07.08-.13.08-.2l.57-.05-.04-.47c.06,0,.11-.04.13-.11.03-.07.05-.04.06.09.19-.02.29.07.31.26.06,0,.1.02.1.09,0,.06.07.09.2.08.11-.14.23-.29.34-.46.11-.17.27-.2.47-.09l.38-.03c-.01-.13.01-.19.08-.2-.06,0-.1-.02-.1-.09.04-.26.13-.3.28-.12l.28-.02.07-.29.38-.03c.26.04.45.04.57,0,.12-.04.25,0,.39.11-.02-.25-.07-.44-.14-.56l-.38.03v-.09c-.01-.06.01-.13.07-.2.13-.01.22-.03.28-.07.06-.04.12-.06.19-.06,0-.06.03-.06.1,0,.13-.01.2.05.21.17l.21.17c.07.06.17.1.3.12.13.02.2.06.2.13,0,.06-.04.13-.13.2-.09.07-.07.13.06.19,0,.06-.12.11-.37.13-.23.34-.35.56-.37.65-.02.1-.06.18-.12.25-.12.14-.27.25-.45.33-.36.29-.7.41-1.02.38-.13-.05-.26,0-.37.13l-.07.29c-.12.07-.31.12-.56.14l-1.33.12h-.1s-.55.25-.55.25c-.37.16-.62.25-.74.26l-1.49.51c-.13-.05-.48-.05-1.05,0-.06,0-.07-.03,0-.09-.01-.13-.05-.19-.11-.18-.06,0-.11.06-.13.15-.02.1-.1.18-.22.26-.11.2-.26.28-.46.23-.21-.17-.59-.24-1.16-.19-.13.01-.27,0-.43-.01-.16-.02-.31-.02-.43-.01l-.77-.03c-.13.01-.34-.02-.63-.09-.29-.07-.51-.16-.65-.28-.38.03-.65-.1-.8-.41l-.02-.19c-.19.02-.3.01-.34-.02-.04-.03-.08-.04-.15-.03-.26-.04-.44-.22-.52-.53l-.43-.54.16-.4c-.14-.11-.2-.11-.19.02,0,.06-.06.1-.18.11-.06,0-.12.04-.18.11-.06.07-.15.11-.28.12l-.38.03c.13.05.21.24.24.55l-.26.31c0,.06.04.12.11.18-.06.07-.12.11-.18.11-.19.02-.32,0-.39-.06l.11.18v.09c.01.06-.02.1-.08.1l-.18.11v-.09c-.01-.06-.05-.12-.12-.18v-.09s.08-.1.08-.1c0-.06-.02-.09-.06-.09-.03,0-.05-.03-.06-.09-.01-.13-.06-.25-.13-.37h-.1c-.06.01-.09.08-.08.21.01.13-.02.19-.08.2l-.19.02c-.06.07-.05.13.02.19l.21.17c.02.19,0,.32-.06.39h-.1c-.13.02-.18.09-.17.21.01.13-.05.2-.17.21l-.28.03-.17.21c-.06,0-.11.04-.13.11-.03.07,0,.1.06.09.07.06.13.08.2.08.06,0,.1.02.1.09l-.27.21c-.06,0-.08.17-.05.48v.09c-.15.33-.36.51-.61.53l-.18.11v-.09s-.12-.18-.12-.18l-.08.2c0,.06.02.11.06.14.03.03.05.08.06.14.17.43.02.61-.43.52-.06,0-.13,0-.19-.03-.07-.03-.13-.04-.19-.03v.09c.02.13-.04.16-.17.11v.09s-.09,0-.09,0c.01.13.03.2.07.23.03.03.05.08.06.14l.02.19h-.09c-.12.15-.21.22-.27.22-.06,0-.15.08-.27.21l-.38.03-.32.7c-.22.4-.35.41-.38.03-.06,0-.09.04-.09.1-.06.07-.08.17-.07.29l.02.19-.29.02c-.07-.12-.12-.15-.15-.08-.03.07-.07.1-.13.11.01.13.05.23.12.32.07.09.08.17.02.24l-.08.2c-.12.08-.23.13-.32.17-.09.04-.2.13-.31.27l.02.28c-.19.02-.28.06-.28.12-.19.02-.21.21-.05.58.02.19-.01.26-.08.2-.13.01-.2.03-.23.07-.03.04-.08.05-.14.06-.13.01-.22,0-.29-.02-.07-.03-.13-.04-.19-.03-.21-.17-.3-.13-.28.12l.02.19-.08.2c-.06,0-.09.04-.09.1-.12.14-.27.21-.46.23l-.69.83c-.06,0-.08.04-.04.1.04.06.02.09-.04.1-.24.15-.44.26-.59.34-.15.08-.37,0-.64-.23h-.1s0-.09,0-.09c-.01-.13-.14-.11-.38.03l-.2-.08c-.14-.11-.26-.2-.36-.26-.1-.05-.22-.14-.36-.26-.14-.11-.15-.21-.02-.28.12-.07.11-.17-.02-.28-.07-.12-.18-.18-.3-.17-.19.02-.32,0-.39-.06l.09-.1c-.07-.06-.11-.12-.11-.18v-.09s-.1,0-.1,0l-.19.02c-.33-.1-.51-.34-.54-.72l-.02-.19-.21-.17c-.13-.05-.21-.17-.22-.36,0-.06.02-.13.08-.2.12-.07.18-.14.17-.21,0-.06.02-.13.08-.2-.08-.18-.09-.31-.03-.38,0-.06,0-.1.04-.1.03,0,.04-.07.03-.19l-.02-.19h-.09c-.06.08-.09.08-.09.02l-.04-.47.4-.9.35-.32c-.01-.13,0-.22.02-.29.03-.07,0-.16-.07-.28v-.09c-.02-.13-.12-.21-.32-.26-.2-.05-.24-.14-.12-.28l.32-.7c.17-.21.26-.34.25-.4v-.09c-.02-.13,0-.17.03-.15.03.03.08,0,.14-.06.13-.01.12-.07-.02-.19,0-.06-.06-.12-.16-.18-.1-.05-.15-.11-.16-.18l.09-.1.09-.1.1.09c0,.06.04.09.1.09l.2.08c0,.06.02.09.06.09.03,0,.04-.04.04-.1v-.09c.18-.08.27-.15.26-.21-.09-.25-.26-.46-.53-.62h-.09c-.07-.11-.05-.37.08-.76.12-.39.19-.62.18-.69-.02-.19,0-.35.05-.48.05-.13.1-.3.15-.49-.01-.13.14-.2.46-.23.07.06.12.07.15.03.03-.03.08,0,.15.13-.01-.13.1-.26.35-.41-.01-.13-.05-.19-.11-.18-.13-.05-.23-.11-.3-.17-.07-.06-.14-.08-.2-.08.05-.13.13-.2.22-.21.1,0,.2-.05.32-.12-.01-.13.05-.13.19-.02,0,.06.04.12.11.18-.05.13.01.16.2.08h.09c0-.07-.04-.13-.11-.19-.14-.11-.21-.24-.22-.36-.01-.13-.09-.25-.22-.36-.26-.04-.41-.28-.45-.73h.09c.06-.01.15-.08.27-.22.25-.08.42-.26.53-.52.06-.07.12-.11.18-.11l-.04-.47.65-.25c.06,0,.09-.04.09-.1.13.05.24.06.34.02.09-.04.21,0,.35.11l.39.06c.14.18.26.28.36.3.1.02.09.1-.03.24.04.51.04.86,0,1.05-.06,0-.05.13.03.38.01.13-.01.26-.06.39-.05.13-.07.26-.06.39.01.13-.01.23-.07.29-.12.07-.16.4-.11.97l-.57.05.02.19c.02.19.06.31.13.37.07.06.14.15.21.27,0,.06-.02.1-.09.1l-.4-.16c-.2-.11-.42-.03-.65.25.2.05.42.06.67.04,0,.06-.03.35-.12.87-.08.52-.06.83.08.95.07.06.06.12-.03.19-.09.07-.13.17-.12.3l-.27.21h-.1c-.2-.04-.22.03-.08.21.07.06.07.09,0,.09h-.1s.03.39.03.39c.07.06.11.18.13.37.02.25,0,.42-.05.48-.06.07-.07.26-.04.58.02.25,0,.45-.04.58-.18.14-.4.23-.65.25h-.09c.07.07.11.16.12.28l.43.54c-.12.14-.15.27-.11.39.04.12.04.25-.01.38-.05.2-.05.34-.01.43.04.09,0,.21-.11.34-.06.07-.08.14-.08.2v.09c.02.13.04.21.08.23.03.03.05.08.06.14-.12.14-.14.27-.06.39.07.12.09.28.04.47.01.13.04.24.08.33.04.09.04.24,0,.43l.02.19.18-.11c.1-.26.22-.43.34-.51.12-.07.21-.18.26-.31-.01-.13,0-.29.05-.48.06-.07.12-.11.18-.11.19-.02.28-.06.28-.12-.02-.25.09-.39.35-.41l.28-.02.09-.1c-.03-.32.02-.48.15-.49.05-.13.07-.32.05-.58.1-.26.25-.4.44-.42-.02-.19,0-.29.07-.29l.34-.51c.19-.02.37-.19.53-.52,0-.06.08-.2.25-.4-.01-.13,0-.14.04-.05.04.09.09.14.15.13.18-.08.25-.37.21-.88-.01-.13,0-.13.05,0,.04.12.13.18.25.17.25-.02.41-.1.46-.23-.02-.25.09-.42.34-.51l-.02-.19c-.01-.13.01-.22.07-.29l.09-.1h.1c-.02-.26,0-.39.06-.4v-.09s.08-.1.08-.1l.38-.03c.13-.01.22-.08.27-.21-.01-.13.04-.21.17-.25.12-.04.21-.13.26-.26,0-.06.05-.1.18-.11.13-.01.24-.21.33-.6.1-.33.18-.49.24-.5l.44-.42c.05-.13.13-.27.25-.4.12-.14.23-.31.34-.51.12-.07.18-.16.17-.25s.02-.15.08-.15l.27-.21c-.01-.13,0-.16.04-.1.04.06.12.12.25.17v-.09s.09,0,.09,0c-.15-.3-.02-.54.42-.71h.1s0-.1,0-.1l-.19.02.09-.1h.1s-.02-.29-.02-.29Z"/>
        <path class="cls-1" d="M34.47,56.05c-.06.07-.15.11-.28.12-.06,0-.22.08-.46.23-.05.13-.07.26-.06.39.01.13-.05.16-.18.11-.24.15-.43.2-.56.14-.12.14-.27.21-.46.23-.12.14-.25.2-.42.18-.16-.02-.31-.02-.43-.01-.14-.11-.33-.1-.57.05-.11.2-.2.3-.26.31-.18.14-.34.16-.48.04l-.1-.09c-.07-.12-.21-.17-.4-.16.02.25-.03.35-.16.3l-.29.03c-.31.16-.47.14-.48-.05-.13.01-.24-.01-.34-.07-.1-.05-.21-.01-.32.12-.13.01-.2-.08-.22-.27-.13-.05-.23-.09-.3-.12-.06-.03-.16-.03-.29-.02l-.2-.08-.1-.09-.44-.63c-.14-.11-.18-.25-.13-.42.05-.16.07-.31.06-.44-.07-.76-.04-1.49.09-2.21.05-.13.1-.33.14-.59.04-.26.05-.51.03-.77l.22-.78c.18-.14.31-.31.39-.51.08-.2.17-.4.28-.6-.02-.25.06-.39.25-.4.24-.15.32-.35.23-.59-.02-.19,0-.32.06-.39.18-.08.31-.27.38-.56.07-.29.16-.51.28-.65l.75-1.21v-.09s.08-.1.08-.1c.05-.2.13-.36.24-.5.12-.14.23-.31.34-.51.52.15.87-.09,1.04-.71.17-.62.31-1,.43-1.14.11-.14.26-.29.44-.47.18-.17.32-.33.44-.47.24-.21.46-.26.66-.15.13-.01.19-.05.18-.11.12-.07.18-.17.16-.3-.01-.13-.02-.25-.03-.38.06,0,.12-.03.19-.06.06-.04.12-.06.19-.06.13.05.23.14.31.26.07.12.21.24.41.35.25-.02.45,0,.58.05.06-.07.15-.08.28-.02.01.13.07.23.17.32s.19.19.27.31c.01.13.11.18.3.17.06,0,.1.06.11.18.06-.07.08-.13.08-.2.24-.15.33-.22.27-.21,0-.06.02-.1.09-.1l.1.09c.03.38.27.55.71.51.06,0,.11.05.16.18.04.12.03.16-.04.1v.09c-.11.14-.19.24-.25.31-.06.07-.11.17-.16.3.06-.07.15-.11.28-.12.32-.03.58.05.78.22.14.18.27.23.4.16.13-.01.2.05.21.17-.05.13-.06.39-.03.77.08.18.12.45.12.8,0,.35-.02.7-.05,1.06-.03.35-.1.66-.21.93-.11.26-.19.4-.25.4-.06.07-.05.13.02.19l-.23.69v.09c.02.13.05.25.09.38.04.12.13.18.25.17.19-.02.38.01.58.09.2.08.39.08.57,0l.92-.37c.43-.16,1.07-.3,1.93-.41.85-.11,1.49-.24,1.93-.41.43-.23.98-.44,1.67-.62.18-.08.4-.19.64-.34.24-.15.49-.27.73-.35l.57-.05c.56-.18,1.14-.4,1.76-.68.61-.28.98-.48,1.09-.62.05-.13.09-.18.13-.15.03.03.08-.02.13-.15l1.11-.38.92-.46.28-.02c.2.11.42.03.65-.25.12-.07.27-.17.45-.28.18-.11.37-.18.56-.19.13-.01.24-.12.35-.32.21-.53.51-.75.9-.65,0-.06.15-.11.47-.14.03-.39.18-.53.44-.42.06,0,.24-.04.52-.09.28-.06.5-.06.67-.01.16.05.19.21.09.47-.11.26-.48.71-1.13,1.34-.11.2-.3.22-.57.05-.06,0-.09.1-.07.29v.09s-.08.1-.08.1c-.06.07-.12.11-.18.11-.06,0-.1.15-.1.44,0,.29-.05.4-.11.34-.06,0-.09-.09-.07-.28.01-.19-.01-.29-.07-.28l.05.57c-.06,0-.15-.05-.25-.17-.11-.12-.15-.11-.14.01.07.12.07.25-.01.38-.08.14-.12.27-.11.39,0,.06-.12.04-.39-.06l-.1-.09-.18.11c-.06,0-.13-.07-.21-.22-.08-.15-.21-.19-.39-.11-.05.13-.07.29-.05.48.02.19,0,.32-.06.39l.02.19c-.27-.1-.49-.15-.68-.13-.19.02-.38,0-.58-.05-.06,0-.09.07-.08.2.02.25-.06.39-.25.4l-.18.11c-.17.21-.57.4-1.19.58l-.02-.19h-.09s-.09.11-.09.11c.02.19-.04.23-.18.11-.3.28-.66.5-1.09.67-.18.08-.34.16-.46.23-.12.14-.25.12-.39-.06,0-.06-.25,0-.75.21-.49.2-.77.31-.83.31-.25.02-.51.01-.77-.03h-.09s.02.2.02.2h.09s.11.17.11.17l.02.19c-.06,0-.09.02-.09.06,0,.03-.03.05-.09.06-.25.02-.42,0-.48-.05-.06,0-.1-.02-.1-.09,0-.06,0-.03,0,.09.02.19,0,.29-.07.29-.25.09-.42.12-.52.09-.1-.02-.21.03-.32.17-.12.07-.2.1-.23.07-.04-.03-.11,0-.23.07l-1.43.03c-.12.14-.22.18-.32.12-.1-.05-.17.02-.22.21l-.38.03c-.13-.05-.38-.01-.76.11s-.59.23-.64.3c-.06.07-.24.18-.54.33-.13.01-.25,0-.38-.01-.13-.02-.25.04-.37.18-.18.08-.41.1-.67.06l-.75.16c-.06,0-.09.04-.09.1,0,.06-.02.1-.09.1-.06.07-.09.02-.11-.13-.01-.16-.05-.23-.12-.23-.18.14-.43.23-.74.26,0,.06-.02.13-.08.2-.06.07-.02.16.12.28-.83,0-1.16.09-.98.23.17.14.26.25.27.31.01.13-.01.23-.07.29l-.19.02c-.72.57-1.13.95-1.24,1.11-.11.17-.22.39-.33.65.01.13-.11.17-.37.13h-.09ZM29.63,52.07c-.23.28-.38.38-.45.33l.02.19c.02.25,0,.45-.05.58l-.09.1c-.12.14-.17.27-.16.4.15.24.14.53-.02.86-.06,0-.06.07.02.19-.1.33-.08.61.08.85.13-.01.18-.08.17-.21l.19-.02.1.09c0,.06.04.09.1.09l-.17.21c.02.25.1.37.22.36.18-.14.36-.24.55-.29.19-.05.37-.18.54-.38l.09-.1c.24-.15.5-.25.79-.31.28-.06.44-.24.48-.57.24-.21.46-.42.66-.63.2-.21.39-.42.57-.62l.69-.83.02.19c.04-.26.06-.45.05-.58-.01-.13.08-.23.26-.31.18-.08.27-.15.27-.21.17-.27.2-.42.1-.44-.1-.02-.06-.11.12-.25l.07-.29-.1-.09v.09c-.11.14-.15.16-.13.06.02-.1-.03-.14-.15-.13-.34-.29-.52-.46-.52-.53-.1-.37-.21-.62-.35-.73-.32-.03-.59-.14-.79-.31-.21-.17-.38-.35-.52-.53,0-.06-.04-.09-.1-.09-.06,0-.13-.05-.21-.17.06,0,.09-.1.07-.29l-.11-.18.02.19.02.28c.03.38-.07.61-.32.7-.14.59-.32.86-.55.81-.23-.04-.4,0-.51.14-.03.45-.11.74-.26.88-.15.14-.27.41-.36.8-.13-.05-.19.05-.17.3.02.25-.03.39-.16.4ZM36.05,46.73c-.03-.32-.12-.64-.28-.98-.16-.34-.29-.75-.4-1.26l-.21-.17c-.06,0-.1-.02-.1-.09-.25.02-.37.13-.35.32-.06.07-.11.15-.17.25-.06.1-.12.15-.18.16-.14-.11-.31.08-.52.57-.21.5-.38.75-.51.76-.02-.19-.05-.22-.1-.09-.05.13-.01.26.13.37.14.12.25.31.34.59.09.28.21.57.36.88.03.32.14.47.33.45.46.22.67.36.61.43.01.13.15.31.43.54.06,0,.15-.12.26-.36.11-.23.22-.39.34-.46-.02-.19-.03-.48-.03-.86,0-.38.01-.73.05-1.06ZM57.78,44.64c.17-.21.17-.3-.02-.28l.02.28Z"/>
        <path class="cls-1" d="M62.49,24.13l-.09-1.04.19-.02c.12-.07.15-.16.07-.25-.07-.09-.05-.14.08-.15.06-.07.1-.12.13-.15.03-.03,0-.14-.08-.33l.23-.59c.2.05.32,0,.37-.13l-.16-.75.13-.68c.14.12.24.17.3.17.21.17.31.23.3.16l-.02-.28v-.09c.05,0,.14-.08.26-.21.06-.07.08-.13.08-.2l-.38.03-.02-.19c.05-.13.2-.21.46-.23v.09s.02.09.02.09l.02.19h.09c-.01-.13,0-.26.06-.4l.29-.02c.13.05.19.05.19-.02l-.02-.19c.13-.01.2-.08.22-.21.02-.13-.04-.22-.17-.27-.06,0-.1-.02-.1-.09-.14-.11-.21-.2-.21-.27l.19-.02c.06-.07.25-.08.57-.05-.02-.19-.01-.32.01-.38.03-.06.03-.16.02-.29h.09c.25-.03.37-.02.34.01-.03.04-.04.12-.03.24-.05.2-.04.29.03.28l.17-.21h.09c-.04-.45-.14-.82-.29-1.13l.06-.39c0-.06.09-.07.28-.03.19-.02.27-.04.23-.07-.04-.03,0-.08.13-.15l.18-.11c-.09-.25-.07-.39.06-.44.12-.04.25-.04.38.01.13.05.26.11.4.16.13.05.19.02.18-.11.26.04.51.05.77.03l.38-.03.03.38c.2.11.27.23.22.36-.05.13-.14.27-.25.4l-.06.39c.01.13,0,.29,0,.48-.02.19-.09.29-.21.31-.18.14-.26.31-.24.5-.25.09-.37.19-.35.32l.02.19c-.14-.11-.2-.05-.17.21l-.18.11.19-.02.3.17h-.09c-.18.15-.52.25-1.03.29l.3.16c-.17.27-.16.4.03.38-.25.09-.26.28-.04.58.21.17.15.27-.17.3l-.19.02h-.1s.02.2.02.2l.14.47c-.05.13-.12.14-.19.02-.19.02-.27,0-.24-.03.03-.03-.02-.05-.15-.04v.09s.02.19.02.19c.02.19,0,.29-.07.29-.13.01-.13.11-.02.29.11.18.14.31.08.38l-.19.02c-.19.02-.28.09-.27.21.13-.01.19.02.2.08.21.24.26.39.14.47h-.1c-.06.01-.12.05-.18.12v.09c.14.05.18.1.12.13-.06.04-.12.06-.19.06,0,.06-.09.1-.28.12-.19.02-.25.09-.17.21l-.08.2c-.05.13-.11.26-.16.4-.05.13-.04.26.03.38.1.44.03.67-.23.69-.19.02-.29.11-.31.27-.02.16-.06.24-.12.25l-.18.11c.15.31.01.54-.42.71,0,.06-.02.1-.09.1h-.09c-.12.08-.18.17-.17.26s-.02.15-.08.15l.21.27c.27.23.2.43-.23.59-.05.13-.07.33-.05.58v.09s-.25.31-.25.31c-.25.02-.34.08-.27.17.07.09.07.14.01.14,0,.06-.01.21-.06.44-.04.23-.03.37.04.43,0,.06-.02.1-.09.1v.09s-.09,0-.09,0c.01.13.05.19.11.18h.1c-.12.13-.19.22-.22.25-.03.04-.07.12-.12.25h-.1s-.38.04-.38.04l.05.57c.03.38-.02.54-.15.49l-.73.45-.09.1.4.16v.09c-.11.14-.16.27-.15.4-.05.13-.08.23-.07.29-.18.08-.31.12-.37.13-.06,0-.09.04-.09.1.14.18.19.32.13.42-.06.1-.11.22-.16.35l-.09.1-.18.11c.21.17.31.32.33.45.03.38.02.57-.04.58l-.53.52c.01.13.03.22.07.28.04.06.03.16-.02.29-.06.07-.18.08-.38.03l-.04-.47h-.09c0,.07-.02.14-.08.21.07.12.07.2-.03.24-.09.04-.14.09-.13.15-.06,0-.09.04-.09.1v.09s.22.27.22.27c.06,0,.08-.17.05-.48l.11.18c.11.5.13.79.08.85-.06,0-.1-.02-.1-.09l-.09.1c-.05.13-.16.21-.32.22-.16.01-.29.12-.4.32l.02.28c.01.13,0,.26-.01.38-.02.13-.01.38.02.76l.1.09c-.12.07-.18.46-.19,1.16-.17.27-.38.42-.63.44.2.11.26.2.17.27-.09.07-.2.11-.32.12h-.1s-.02-.18-.02-.18c-.05.13-.05.2.02.19l.07.85c-.16.33-.37.51-.62.53-.05.13-.06.23-.02.29.04.06.06.15.07.28,0,.06-.02.16-.07.29-.05.13-.08.23-.07.29v.09s.3.07.3.07h.09s0,.09,0,.09c-.19-.05-.28.06-.26.31.01.13-.02.19-.08.2l-.77-.03-.19.02c0,.7.1,1.11.3,1.22l.11.18c-.05.13-.05.21.02.24.07.03.04.08-.08.15.06,0,.1.02.1.09.01.13-.04.23-.17.3-.05.13-.1.17-.13.11-.04-.06-.09-.09-.15-.08l.02.19c.01.13,0,.29-.05.48-.05.2-.04.32.03.38l.1.09c.08.25.09.33.02.24-.07-.09-.09.02-.07.34.07.12.12.25.13.37l-.06.39c-.11.26-.19.4-.25.4.04.44.13.72.26.84.02.25.01.49-.03.72-.04.23,0,.43.15.61.01.13.04.16.1.09.06-.07.09-.04.1.09l.23.46.31.26c.07.06.17.11.3.17,0,.06.04.09.1.09.07.06.13.08.2.08.32-.03.62,0,.91.06s.57.09.82.07l1.67-.62c.25-.08.46-.02.64.18.18.21.29.21.34.02l.12-.87.47-.04c.24-.21.55-.24.95-.08.25-.02.47-.14.64-.34l.08-.2,1.06.1h.09c-.01-.13-.02-.23-.02-.29,0-.06.04-.29.13-.68.46.22.74.22.82.02.08-.2.15-.33.2-.4l.48-.04.28-.02.45-.33c.19-.02.21.03.06.14-.15.11-.17.13-.04.05.76-.07,1.29-.24,1.58-.52.12-.14.25-.21.41-.23.16-.01.3-.06.42-.13.13-.01.22-.03.28-.07.06-.04.15-.06.28-.07-.16-.37-.19-.57-.1-.61.09-.04.3-.07.61-.1h.1c.16-.34.37-.49.63-.45.22-.4.46-.61.71-.64l.73-.45.29.07c-.01-.13.04-.23.17-.3.12-.07.27-.25.43-.52h.09s.18-.12.18-.12l1.13-.19c-.06-.7.21-.94.8-.74-.14-.18-.17-.27-.07-.28.09,0,.23-.05.42-.13l.19-.02c.06,0,.11-.02.14-.06.03-.03.07-.05.14-.06.19.05.31.05.34.02.03-.03.07-.05.14-.06h.09c.13-.02.18-.12.17-.31v-.09s.1.18.1.18l.69-.92c.11-.2.29-.36.53-.48.24-.12.51-.32.81-.6l.19-.02c.08.25.12.28.1.09,0-.06.18-.11.56-.14.13-.01.22-.08.27-.21.05-.13.14-.2.27-.21v-.09s.09,0,.09,0v.09c.06-.07.16-.14.28-.21.17-.21.26-.28.27-.21l.28-.02c0-.06.02-.13.08-.2,0-.06,0-.1.04-.1.03,0,.05-.04.04-.1l.65-.25-.12-.28c.2.05.4.08.63.09.22.01.3-.04.23-.16-.03-.38.27-.6.9-.65,0-.06.12-.04.39.06l-.02-.28-.02-.19v-.09s1.77-.44,1.77-.44c0-.06.02-.1.09-.1l.4.16.22.27-.25.4c.21.17.31.29.32.35-.05.2-.17.24-.37.13-.13.01-.24.15-.35.41l-.26.31c-.33-.1-.49-.13-.49-.1,0,.03-.05.21-.15.54l.1.09-.08.2-.66.06c-.14-.11-.22-.16-.25-.12-.03.04-.1.18-.2.45l-.19.02c.03.32-.02.48-.15.49l-.59-.14-.29.02.03.38-.19.02-.85,1.22-.16.4-.02-.28-.47.04c-.05.13-.11.23-.17.3-.06.07-.08.17-.07.29-.24.15-.4.23-.46.23l-.29.02-.02-.28c-.06.07-.1.1-.13.11-.03,0-.08.04-.13.11-.06.07-.12.11-.18.11l.02.28.03.38h.09s.1.08.1.08l-.19.02c-.13.01-.16-.02-.1-.09l-.57.05c-.06,0-.06.04,0,.09.07.06.04.06-.1,0l-.55.24c.02.25-.04.32-.17.21l.02.28c-.17.27-.38.42-.63.44l-.35.32c-.06.07-.28.09-.66.06-.13.01-.2.08-.22.21-.02.13-.16.14-.43.04l-.18.11c-.04.26-.15.49-.32.7-.12.07-.21.11-.28.12-.07-.06-.09.04-.07.29-.19.02-.33.06-.42.13-.09.07-.17.05-.25-.07l-.12-.28-.54.43c.07.06.17.14.31.26.14.12.01.16-.37.13,0,.06-.06.04-.2-.08l-.21-.17-.1-.09c-.14-.11-.21-.24-.22-.36l.17.85-.28.02c-.12.14-.24.21-.36.22l-.02-.19-.19.02c-.06,0-.12.04-.18.11.07.06.13.08.2.08.07.06.11.12.11.18-.12.14-.2.23-.26.26-.06.04-.12.09-.18.16l-.09.1-.02-.19c-.02-.19-.06-.28-.12-.28l-.42.71-.36.22h-.09c.01.14-.02.19-.08.16-.07-.03-.06.02.01.14.08.25.13.36.12.32,0-.03-.07-.04-.19-.03-.06,0-.13-.02-.2-.08l-.28.02c-.06,0-.12.04-.18.11h-.1s.22.37.22.37c-.06.07-.12.07-.19.02-.13.01-.2-.11-.22-.36-.13.01-.25.07-.37.18-.12.11-.14.19-.07.25l-.29.03-.27.21c-.14-.12-.39-.12-.77-.03l-.11-.18h-.1s.02.2.02.2l-.26.31c-.05.13-.11.23-.17.3,0,.06,0,.11-.03.15-.03.04-.04.08-.04.15v.09c-.27-.23-.42-.3-.44-.2-.02.1-.12-.1-.29-.6h-.09s.11,1.24.11,1.24l-.19.02c0-.06-.16-.05-.47.04.02.19-.04.29-.16.3l-.29.02-.03-.38c-.06.07-.08.14-.08.2-.06.07-.12.07-.19.02-.06,0-.18.08-.36.22-.18.14-.26.28-.25.4l-.18.11v.09c-.18.08-.36.13-.55.14-.12.07-.26.12-.42.13-.16.01-.27.02-.33.03l-1.04.09c-.24.15-.33.22-.27.21h-.1s-.76.07-.76.07l.6.33-.48-.05h-.1s-.07.3-.07.3c-.31.16-.52.25-.64.3-.12.04-.25.07-.38.08-.13.01-.29.01-.48,0-.19-.01-.36-.08-.5-.2-.13.01-.23.07-.32.17-.09.1-.19.16-.32.17-.06,0-.09.04-.09.1-.06.07-.08.14-.08.2,0,.06-.02.13-.08.2,0,.06-.03.08-.09.06-.07-.03-.14-.13-.22-.32.01.13,0,.19-.03.19-.03,0-.04.04-.04.1v.09c-.18.02-.32.01-.42-.01-.1-.02-.22-.16-.37-.4l.03.38c-.34-.29-.52-.53-.54-.72,0-.06-.04-.12-.11-.18h-.09c-.13.02-.22.06-.28.13-.06.07-.06.04,0-.09-.13.01-.23-.08-.31-.26,0-.06-.07-.1-.2-.13-.13-.02-.23-.03-.29-.02.02.25,0,.29-.09.1l-.41-.35-.85.07-.26-.74c0-.06-.06-.17-.17-.32-.11-.15-.23-.22-.35-.21,0-.06.02-.15.07-.25.05-.1,0-.27-.14-.51l-.2-.08.08-.2c.11-.14.12-.23.02-.29-.1-.05-.19-.14-.26-.26.06,0,.12-.04.18-.11.06-.07.06-.36.02-.86h-.09c.01.14,0,.22-.03.25-.03.04-.04.12-.03.24-.13.01-.2-.05-.21-.17l-.02-.28c-.06,0-.07-.03,0-.09l-.19.02c0-.06-.03-.12-.06-.19-.04-.06-.06-.12-.06-.19.11-.2.19-.34.25-.4.13-.01.19-.05.18-.11l-.33-.54-.02-.19c0-.06.02-.1.09-.1-.03-.32-.01-.51.05-.58l-.02-.29c-.14-.11-.18-.22-.12-.32.05-.1.11-.15.18-.16l.05-.48c.25-.02.25-.08-.02-.19-.14-.11-.17-.43-.08-.95-.08-.12,0-.41.21-.88v-.09c-.01-.06,0-.13.02-.19.03-.06.03-.16.02-.29-.04-.44,0-.77.11-.97l.08-.2c-.06,0-.07-.03,0-.09l-.1-.09c.02-.45.14-.65.33-.6l-.03-.38-.2-.08c.1-.26.15-.48.14-.63-.01-.16.2-.26.64-.3v-.09c-.01-.06,0-.11.03-.15.03-.03.04-.11.03-.24l-.06-.66c-.01-.13.05-.2.17-.21h.09s.17-.31.17-.31l.04-.58c.13-.01.18-.11.16-.3-.01-.13,0-.17.04-.15.03.03.05-.02.04-.15l-.05-.57h.09c.12-.08.17-.25.15-.5.06-.07.1-.15.12-.25.02-.1.09-.21.21-.35.07.12.12.15.15.08.03-.07-.03-.12-.16-.18l-.21-.17c.19-.02.34-.06.47-.14.06,0,.07-.05.04-.15-.04-.09-.03-.17.03-.24.09.31.17.46.23.46.13-.01.15-.14.06-.39l-.06-.66c-.21-.17-.21-.27-.02-.28l-.02-.19c.12-.07.23-.12.32-.12.09,0,.17-.08.22-.21-.16-.3-.25-.65-.28-1.03,0-.06.12-.11.37-.13-.07-.12-.1-.23-.08-.33.02-.1.03-.24.01-.43l.76-.07c.14-.59.27-.92.39-.99-.21-.24-.22-.36-.03-.38-.14-.18-.19-.29-.12-.32.06-.04.09-.09.08-.15l.85-.07-.06-.66c-.06,0-.09.06-.08.15,0,.09-.05.15-.18.16l-.02-.28c0-.06.06-.36.21-.88v-.09c.12-.01.2,0,.23.03.03.03.11,0,.23-.07l.37-.13c.06,0,.09-.02.09-.06,0-.03-.04-.04-.1-.04l-.47-1.01c0-.06.02-.1.09-.1.06,0,.09-.04.09-.1.2.11.33.16.4.16v-.09s.11-.78.11-.78l.12-.78c-.09-.31-.09-.63.01-.96.1-.33.42-.61.98-.85.13-.01.19-.19.19-.54,0-.35-.06-.52-.19-.51l.75-1.31ZM78.66,48.26v.09s.11.09.11.09c.06,0,.09-.04.09-.1l-.2-.08ZM83.25,44.89l-.08.2.17-.21h-.1Z"/>
        <path class="cls-1" d="M115.51,51.69c-.13.01-.13-.05-.02-.19-.07-.12-.09-.28-.04-.47.05-.2.06-.36.05-.48l-.08-.95v-.09s.09,0,.09,0l.18-.11c-.03-.38-.03-.7.01-.96h-.09s.09-.09.09-.09c.06,0,.07.03,0,.09.07.06.14.08.2.08.05-.13.07-.32.04-.58-.08-.25-.22-.36-.41-.35l-.19.02c-.06,0-.1-.02-.1-.09l-.02-.19.63-.44c.06-.07.13-.12.23-.16.09-.04.13-.15.11-.34l-.22-.36c-.15-.24-.17-.53-.07-.85l.08-.2c.06,0,.09-.04.09-.1l.08-.2c.05-.13,0-.32-.14-.56-.08-.18-.06-.31.06-.39.05-.13.12-.25.21-.35.09-.1.09-.21.02-.34l.35-.32c-.03-.32.02-.54.13-.68l-.05-.57h.09s-.11-.19-.11-.19v-.09c.16-.21.28-.33.34-.37.06-.04.21-.1.46-.18h.09c.06-.01.09-.03.09-.06,0-.03-.04-.04-.1-.04-.08-.18-.07-.41.04-.67.18-.14.17-.27-.03-.38.06-.07.05-.1,0-.09,0-.06-.02-.09-.06-.09-.03,0-.05-.06-.06-.19v-.09c.1-.2.15-.4.13-.59s-.04-.41-.06-.66v-.09s.2.17.2.17h.1c.13-.02.22-.09.27-.22.05-.13.04-.23-.02-.28-.14-.11-.18-.27-.14-.47.05-.13.09-.23.12-.3.03-.07.03-.19.01-.38-.02-.25.04-.26.19-.02l.02.19c0,.06.04.12.11.18l.38-.03.09-.1-.02-.19c-.08-.12-.13-.24-.18-.37-.04-.12-.2-.24-.46-.34l-.03-.38c.36-.29.52-.59.5-.9,0-.06.02-.11.08-.15.06-.04.09-.09.08-.15.06-.07.08-.13.08-.2l.48-.04c-.21-.24-.23-.49-.07-.76.11-.2.26-.31.45-.33v-.09c-.14-.05-.21-.17-.23-.36-.03-.32.02-.51.14-.59.13-.01.18-.17.15-.49l-.02-.28c-.02-.19.07-.32.25-.4v-.09c-.22-.24-.33-.42-.34-.54.04-.26.28-.41.73-.45.06,0,.28-.09.65-.25l-.02-.19-.22-.36c-.06,0-.1-.05-.11-.18l.09-.1c.16-.33.2-.59.12-.78l-.09.1c-.13.01-.19-.01-.2-.08.11-.2.16-.38.14-.54-.01-.16.07-.28.26-.36l.14-.59c.05-.13.07-.32.04-.58-.01-.13.04-.26.16-.4.12-.14.17-.27.16-.4-.01-.13.01-.22.07-.29.06-.07.14-.2.25-.4.06,0,.09-.07.08-.2-.01-.13.03-.21.12-.25.09-.04.2-.1.32-.17-.02-.19-.02-.36,0-.53.02-.16.02-.34,0-.53,0-.06.02-.1.09-.1.06,0,.12-.04.18-.11.07.06.1.06.09,0v-.09c-.02-.13,0-.22.06-.29l.65-1.3c.11-.14.24-.18.37-.13.15.24.25.33.31.26.11-.14.17-.27.16-.4-.01-.13-.05-.15-.1-.09-.18.14-.27.15-.29.02-.14-.11-.22-.3-.24-.55l.23-.59c.12-.14.2-.21.27-.21l.17-.3c.17-.21.21-.46.12-.78-.02-.25.03-.39.16-.4.06,0,.09-.04.09-.1-.09-.25.02-.48.32-.7l.46-.23c.12-.14.17-.27.16-.4.05-.13.06-.21.03-.24-.04-.03-.02-.08.04-.15.11-.2.17-.38.19-.54.02-.16.08-.31.2-.45,0-.06.09-.1.28-.12.31-.09.52-.2.64-.34.11-.14.22-.34.33-.6-.01-.13-.05-.19-.11-.18l-.19.02-.09.1h-.1s-.02-.28-.02-.28l.79-1.89c.1-.33.18-.49.24-.5.12-.07.2-.07.24.03.04.09.12.13.25.12.07.12.16.05.27-.21-.01-.13-.08-.18-.21-.17h-.1s-.11-.17-.11-.17l-.1-.09.53-.52c.12-.14.17-.3.15-.49-.09-.25-.05-.54.11-.87.06,0,.09-.04.09-.1-.02-.19.03-.35.15-.49.11-.14.23-.27.35-.41.12-.14.23-.24.35-.32.18-.08.24-.18.17-.3l-.07-.76c.1-.26.22-.56.35-.89.13-.33.24-.69.34-1.08-.01-.13.05-.2.17-.21.12-.14.21-.29.3-.46.08-.17.18-.32.29-.46-.02-.25.12-.42.43-.52.13-.01.18-.14.16-.4-.01-.13-.02-.24-.03-.33,0-.09.04-.21.16-.35.1-.33.08-.52-.05-.57l-.04-.47h.1c.39.09.69.28.91.58.15.31.32.59.51.86.18.27.26.6.23.98.15.31.2.62.13.95-.07.33-.15.68-.24,1.07.01.13,0,.21-.03.24-.03.04-.04.12-.03.24-.12.07-.17.21-.16.4.02.19-.01.4-.09.63-.08.23-.17.45-.28.65-.05.13-.06.24-.02.34.04.09.06.17.07.23.02.19,0,.32-.06.39-.3.22-.45.36-.44.42-.06.07-.05.2.03.38.06,0,.1.06.11.18-.06,0-.12.04-.18.11-.42.36-.6.76-.57,1.2.02.19-.04.26-.17.21h-.1c-.05.14-.04.3.04.48.08.18.13.37.15.56.07.06,0,.1-.18.11l-.27.21.02.28c.02.25-.03.39-.16.4-.24.15-.35.35-.33.6.03.32-.02.54-.13.68h.1c0,.06,0,.09-.04.09-.03,0-.05-.03-.06-.09l-.19.02c-.13.01-.22.08-.27.21-.05.13-.04.23.02.28.14.18.19.35.14.51-.05.16-.06.37-.04.63-.04.26-.19.4-.44.42.08.18,0,.35-.24.5l-.73.35c-.12.07-.15.12-.08.15.06.03.13.04.19.03.08.18.1.41.06.66l-.19,1.07c.01.13-.01.23-.07.29-.18.08-.3.2-.35.37-.05.16-.13.35-.24.55.02.25,0,.48-.08.68-.08.2-.14.46-.17.78.01.13-.01.23-.07.29-.03.39-.2.62-.51.71l.02.19.03.38c-.3.22-.45.36-.44.42.14.12.18.27.14.47-.05.2-.1.33-.16.4l.04.47c-.1.33-.24.53-.43.61-.05.13-.07.29-.05.48h-.09c-.31.16-.39.33-.24.51.08.18.03.38-.14.59-.3.22-.54.33-.73.35-.06.07-.04.23.04.47.13.05.2.14.21.27-.22.4-.32.7-.31.89l-.26.31c.14.12.21.24.22.36,0,.06,0,.1-.04.1-.03,0-.04.04-.04.1,0-.06-.04-.09-.1-.09l-.04-.47h-.1c.01.14,0,.23-.02.3-.03.07-.03.16-.02.29.02.25-.04.58-.2.97-.06.07-.08.17-.07.29.01.13.04.27.09.42.04.16,0,.27-.11.34-.19.02-.34.08-.46.18-.12.11-.24.23-.35.37-.12.14-.13.36-.04.67l.03.38c-.11.26-.25.4-.44.42l-.2-.08c.07.12.14.18.21.17.06,0,.1.02.1.09.06,0,.1.06.11.18.15.24.13.37-.06.39-.06.07-.15.11-.28.12l-.17.3c-.06,0-.09.04-.09.1.08.18.11.34.09.47-.02.13.04.25.18.37l.02.28-1.05,1.14.02.19c.13-.01.21,0,.24.03.03.03.08.04.15.03.01.13-.01.23-.07.29.02.19-.1.33-.35.41-.13.01-.18.11-.17.3,0,.06-.04.23-.15.49-.06.07-.13.3-.23.69.07.06.07.12.02.19.01.13-.02.19-.08.2-.06,0-.12.07-.17.21-.05.2-.04.32.03.38.21.24.23.4.04.47,0,.06-.05.16-.17.3.02.25-.04.47-.18.64-.14.17-.24.36-.29.55.02.19,0,.4-.04.63-.04.23-.09.44-.14.63l.02.28c-.1.26-.18.48-.23.64-.05.16-.06.37-.04.63.02.25-.03.39-.16.4-.43.17-.6.28-.5.33.1.06.27.04.52-.05l.1.09v.09c-.27.47-.54.72-.79.74,0,.06.04.09.1.09.14.12.21.21.21.27.02.25-.09.45-.33.6l-.28.02.02.19c0,.06.07.09.2.08.25-.02.26.11.03.38-.37.1-.55.3-.52.62l.02.28.17-.21c.13-.01.19.02.2.08.06,0,.13.02.2.08-.06.07-.12.11-.18.11v.09c-.11.14-.19.27-.24.4-.05.13-.14.24-.26.31,0,.06-.09.1-.28.12l-.57.05c-.07-.06-.09.04-.07.29.02.19.12.28.31.26.13-.01.22.01.29.07.13.05.19.02.18-.11.11-.2.2-.24.28-.12l.05.57c-.11.2-.26.31-.45.33-.13.01-.18.11-.17.3-.05.13-.06.23-.02.29.04.06.06.15.07.28,0,.06-.1.36-.31.89-.21.53-1.1.93-2.67,1.19l-.02-.19c0-.06.07-.07.24-.02.16.05.27,0,.32-.12.06-.07.09-.2.11-.39.02-.19-.1-.28-.36-.26-.21-.17-.25-.3-.13-.37l.19-.02c.17-.21.13-.36-.14-.47-.27-.17-.41-.35-.43-.54-.02-.25-.07-.41-.14-.47Z"/>
      </g>
      <path class="cls-1" d="M97.16,47.18c-.08.08-.17.15-.25.22l.33-.26c-.25.19-.53.35-.82.47l.39-.17c-.29.12-.6.2-.91.25l.44-.06c-.32.04-.63.05-.95,0l.44.06h-.05c.24.91.49,1.83.73,2.75.17-.17.36-.33.55-.48l-.33.26c.41-.32.86-.58,1.34-.78l-.39.17c.35-.14.7-.25,1.07-.33.39-.08.79-.42.99-.76s.29-.87.17-1.27-.38-.78-.76-.99c-.41-.21-.82-.26-1.27-.17-.69.15-1.37.42-1.99.75s-1.2.78-1.7,1.27c-.42.41-.58,1.04-.42,1.61.08.28.22.52.42.73.21.2.45.35.73.42.42.06.82.12,1.24.08s.83-.09,1.23-.22c.8-.25,1.5-.66,2.11-1.23.3-.28.48-.76.48-1.17s-.18-.89-.48-1.17-.73-.5-1.17-.48-.83.18-1.17.48h0Z"/>
    </g>
  </g>
</svg>