<svg xmlns="http://www.w3.org/2000/svg" width="704" height="38" viewBox="0 0 704.31 38.44">
  <defs>
    <style>
      .cls-1 {
        fill: #9d1b5b;
      }
    </style>
  </defs>
  <path id="sec03_01_ttl" data-name="sec03_01_ttl" class="cls-1" d="M728.343,3010.15c0-3.2-5.618-3.36-7.251-3.4a12.5,12.5,0,0,1,3.546,2.6c1.713,1.96,1.912,2.2,2.629,2.2A1.178,1.178,0,0,0,728.343,3010.15Zm-3.666,2.96c0-3.08-5.219-3.96-7.131-3.92a22.989,22.989,0,0,1,4.1,3.8c0.677,0.76,1.2,1.36,1.872,1.36A1.152,1.152,0,0,0,724.677,3013.11Zm0.08,17.47c0-3.72-7.331-7.68-10.558-8.16,1.076,0.84,2.909,2.28,5.777,6.76,2.112,3.32,2.391,3.68,3.187,3.68C723.881,3032.86,724.757,3031.86,724.757,3030.58Zm0.08-11.96c0-1.72-2.869-2.83-3.984-2.83a3.273,3.273,0,0,0-1.235.28,65.5,65.5,0,0,1-8.048.95,39.608,39.608,0,0,1,.518-5.19,5.33,5.33,0,0,0,.478-1.52c0-1.16-2.948-2.8-4.94-2.8a3.819,3.819,0,0,0-2.71,1.12c2.032,0.72,2.71.96,3.228,1.88,0.478,0.84.478,1.72,0.637,6.71-1.116.12-8.526,0.8-9,.8-2.072,0-3.745-2.55-4.024-2.99a9.043,9.043,0,0,0-.279,1.83c0,1.76,2.072,4.76,3.825,4.76a2.231,2.231,0,0,0,1.275-.48c1.075-.72,6.693-1.56,8.247-1.76,0.08,3,.08,4.6.08,6.56a51.8,51.8,0,0,1-.279,6.92c-0.08.16-.12,0.32-1.156,0.32a19.592,19.592,0,0,1-3.705-.52v0.24c2.669,2,3.187,2.4,4.064,4.12,1,2,1.115,2.2,1.872,2.2,0.837,0,1.275-.56,1.634-1.64a10.422,10.422,0,0,0,.6-3.56c0-.08-0.239-3.04-0.278-3.44-0.2-2.4-.2-10-0.12-11.44,0.637-.04,1.633-0.12,3.147-0.12,2.63,0,5.18.16,5.817,0.24,0.478,0.04,2.909.4,3.426,0.4C724.279,3019.66,724.837,3019.66,724.837,3018.62Zm-21.514,3.8a20.369,20.369,0,0,1-5.777,6.32c-1.155.8-2.55,1.72-2.55,3.32a1.784,1.784,0,0,0,1.713,1.8C699.379,3033.86,702.606,3029.18,703.323,3022.42Zm57.844-12.55c0-.96-2.908-2.16-4.9-2.16a4.38,4.38,0,0,0-3.028,1.16c3.665,0.76,3.864.88,3.864,6.44a72.244,72.244,0,0,1-.876,11.99c-0.678,3.32-3.227,9.12-8.486,12.04l0.119,0.28c3.466-.4,6.215-2.84,7.61-4.32,4.183-4.48,4.7-9.52,4.86-16.92,0.04-1.56-.079-4.07.12-5.63C760.49,3012.31,761.167,3010.31,761.167,3009.87Zm-13.9,2.12c0-1.12-3.745-2.4-4.861-2.4a5.174,5.174,0,0,0-2.51.96c3.347,0.8,3.347,1.6,3.347,4.52,0,2.03-.04,4.75-0.16,6.03-0.079.76-.279,2.16-0.279,2.52,0,2.16,1.435,3.4,2.192,3.4,1.474,0,1.474-2.68,1.474-3.28,0-.92-0.16-5.32-0.16-6.32,0-2.91.279-3.71,0.638-4.51A1.964,1.964,0,0,0,747.263,3011.99Zm50.155,19.67c0.239-1.04,1.434-6.16,1.713-7.32,0.438-1.8.478-2.04,0.876-2.28,1-.64,1.116-0.68,1.116-1.04,0-.64-2.55-2.92-3.227-2.92a16.745,16.745,0,0,0-1.475.92c-1.474.64-7.211,1.2-7.888,1.2a3.153,3.153,0,0,1-2.869-1.72,2.6,2.6,0,0,0-.2,1.08c0,1.68,1.873,3.44,2.59,3.44,0.119,0,2.311-.76,2.789-0.88a45.314,45.314,0,0,1,5.9-1.2,108.256,108.256,0,0,1-1.713,10.92c-0.8.08-4.861,0.44-5.777,0.52-0.916.12-5.259,0.68-5.856,0.68-1.793,0-2.909-1.44-3.467-2.12a10.573,10.573,0,0,0-.119,1.16c0,2.56,2.749,4,3.347,4a13.617,13.617,0,0,0,1.513-.52,44.107,44.107,0,0,1,13.586-2c4.462,0,6.016.48,6.733,0.68a5.7,5.7,0,0,0,1.713.44,0.951,0.951,0,0,0,1.076-.92c0-1.32-2.669-2.72-3.307-2.72-0.159,0-1.553.28-1.753,0.32C802.2,3031.5,798.493,3031.66,797.418,3031.66Zm53.9-8.04c0-2.12-4.661-2.48-4.741-2.48a5.162,5.162,0,0,0-1.593.4c-1.355.48-15.18,0.52-17.49,0.52-4.741,0-5.7-.48-7.092-3.28a5.523,5.523,0,0,0-.637,2.24c0,1.6,2.231,4.76,3.705,4.76a5.252,5.252,0,0,0,1.354-.28c1.833-.52,7.929-0.64,10.239-0.64,0.678,0,10.4.08,11.156,0.12,0.8,0.08,1.793.12,2.43,0.12C850.56,3025.1,851.317,3024.3,851.317,3023.62Zm38.92,9.76c0-2.04-.717-4.44-4.82-8.44-3.028-3-4.821-3.84-6.1-4.36a29.511,29.511,0,0,1,5.339,7.72c-7.251,1.08-8.088,1.16-15.578,2.04a98.573,98.573,0,0,0,7.092-11.68,34.537,34.537,0,0,1,2.191-4.39c0.956-.88,1.115-1.04,1.115-1.68,0-1.8-3.067-4.08-4.94-4.08a10.209,10.209,0,0,0-2.789.64c2.231,0.96,3.108,1.56,3.108,3.08,0,2.56-5.7,15.23-7.172,18.23a11.154,11.154,0,0,1-1.354.08c-1.713,0-2.112-.32-3.466-1.64a6.379,6.379,0,0,0-.08,1c0,2.2,2.311,5.44,3.387,5.44a1.242,1.242,0,0,0,.956-0.6,2.6,2.6,0,0,1,1.832-.96c8.247-2.12,12.59-3.2,16.056-4.64,0.08,0.2,1.474,4,1.594,4.36,0.438,1.24.836,2.36,2.072,2.36C889.6,3035.86,890.237,3034.86,890.237,3033.38ZM911.088,3017l7.524,7.58,0.743-.74-7.547-7.56,7.547-7.55-0.743-.75-7.524,7.58-7.525-7.58-0.743.75,7.548,7.55-7.548,7.56,0.743,0.74Zm6.317-2.65a1.935,1.935,0,1,0,1.95,1.93A1.939,1.939,0,0,0,917.405,3014.35Zm-12.634,0a1.935,1.935,0,1,0,1.927,1.93A1.944,1.944,0,0,0,904.771,3014.35Zm6.317-6.37a1.945,1.945,0,1,0,1.927,1.96A1.946,1.946,0,0,0,911.088,3007.98Zm0,12.71a1.945,1.945,0,1,0,1.927,1.93A1.939,1.939,0,0,0,911.088,3020.69Zm50.3-.91c0-2.48-4.064-4.19-7.012-4.35a11.11,11.11,0,0,1,3.466,3.51c0.916,1.72,1.275,2.32,2.151,2.32A1.421,1.421,0,0,0,961.392,3019.78Zm-4.662,1.76c0-2.88-4.143-4.08-6.494-4.76a26.184,26.184,0,0,1,3.068,4.16c0.757,1.56,1.076,2.16,2.112,2.16A1.379,1.379,0,0,0,956.73,3021.54Zm2.63-9.99c0-1.2-1.873-2.4-3.745-2.4a10.211,10.211,0,0,0-3.068.8c-0.877.28-19.323,4.68-20.6,4.68-1.394,0-2.35-.56-3.187-2.36a4.073,4.073,0,0,0-.876,2.52,3.631,3.631,0,0,0,3.147,3.79c0.558,0,.8-0.08,2.789-1,3.426-1.59,10.757-4.51,12.908-4.31-4.382,3.71-8.048,7.55-8.048,13.71a10.168,10.168,0,0,0,6.136,9.8,20.14,20.14,0,0,0,7.012,1.92c0.757,0,1.992,0,1.992-1.52a2.319,2.319,0,0,0-1.355-2.08,53.57,53.57,0,0,0-5.418-1.4c-5.458-1.68-6.295-5.68-6.295-7.6,0-5.96,4.462-11.19,8.606-12.47a27.43,27.43,0,0,1,7.171-.6C958.125,3013.03,959.36,3013.03,959.36,3011.55Zm42.27,12.91c0-6.52-5.781-7.95-8.291-7.95-3.306,0-7.41,1.11-13.306,5.99,0-.2.039-0.44,0.039-0.6a20.615,20.615,0,0,1,2.391-3.4,5.714,5.714,0,0,0,1.514-2.39c0-.92-3.068-1.48-3.148-1.48a8.8,8.8,0,0,1,1.156-2.96,5.9,5.9,0,0,0,.956-2.24c0-1.16-2.51-2.84-4.462-2.84a4.3,4.3,0,0,0-2.112.6c0.678,0.44,1.873,1.16,2.072,1.32a2.629,2.629,0,0,1,.558,1.92c0,0.56-.319,4.56-0.359,5.4-0.916.44-3.546,1.63-4.86,1.63a3.145,3.145,0,0,1-2.909-1.63,1.856,1.856,0,0,0-.279,1.15c0,1.88,1.235,3.8,2.829,3.8,0.558,0,.717-0.12,2.191-1.2,0.12-.08,2.47-1.56,2.869-1.48-0.04.28-.12,1.72-0.16,2a36.173,36.173,0,0,1-5.9,9.68c-1.594,1.76-2.032,2.24-2.032,3.44,0,0.52.12,1.76,1.315,1.76,0.837,0,1.434-1.2,1.912-2.12a28.936,28.936,0,0,1,4.542-7v1.92c0,0.64.12,3.8,0.12,4.52a0.4,0.4,0,0,1-.279.48,7.873,7.873,0,0,1-1.634-.96l-0.119.04c0.159,0.64,1.075,3.72,1.155,4.44,0.159,1.84.239,2.76,1.355,2.76,1.673,0,1.912-3.8,1.912-4.6,0-.12-0.637-6.48-0.677-7.72-0.04-1.32-.04-2.2,0-2.72,4.661-4.24,9.163-5.8,12.111-5.8,2.152,0,6.1,1.56,6.1,5.84,0,4.56-3.944,9.8-13.426,11.76v0.28C992.144,3036.62,1001.63,3033.34,1001.63,3024.46Zm43.66,1.48c0-3.52-2.51-6.96-5.78-8.6a21.452,21.452,0,0,0-5.54-1.79c5.62,3.71,7.05,7.03,7.05,7.47a0.8,0.8,0,0,1-.31.72c-0.2.12-3.67,0.88-4.39,1.08v0.28c0.52,0.08,4.03.48,5.66,1.72,1.35,1,1.51,1.12,1.99,1.12C1044.65,3027.94,1045.29,3027.26,1045.29,3025.94Zm-13.47-3.04c0-5.24-1.87-6.83-4.98-6.83-0.64,0-1.23.08-1.51,0.08,0.36-.88.91-2.12,1.27-2.76,1.32-2.2,1.44-2.44,1.44-3.12,0-1.08-3.15-3.12-4.35-3.12a6.133,6.133,0,0,0-2.55.76c1.72,0.92,2.75,1.44,2.75,3.16a20.254,20.254,0,0,1-1.51,5.64c-0.84.19-4.82,1.15-5.74,1.35a11.551,11.551,0,0,1-2.47.32c-0.8,0-1.63-.12-2.51-1.87a3.16,3.16,0,0,0-.72,1.95c0,1.8,2.2,3.72,3.35,3.72a3.993,3.993,0,0,0,2.03-.84,43.035,43.035,0,0,1,5.22-2.6,61.965,61.965,0,0,1-7.77,14.08c-1.55,2-1.79,2.28-1.79,3.44,0,1.36.8,2.04,1.51,2.04,1.16,0,1.8-1.16,2.87-3.08,2.47-4.56,5.82-11.8,8.21-17.28a9.4,9.4,0,0,1,1.75-.16c1.32,0,2.83.08,2.83,4.24,0,1.72-.76,7.88-3.11,11.68a1.42,1.42,0,0,1-1.27.76c-0.72,0-4.34-2.32-4.66-2.52v0.12c0.56,0.92.95,1.6,1.75,3.08a4.7,4.7,0,0,1,.8,2.24c0,1.24.04,2.08,1.31,2.08a5.726,5.726,0,0,0,3.71-2.04C1030.59,3034.34,1031.82,3026.1,1031.82,3022.9Zm50.36,6.16c0-3.48-2.36-7.44-9.21-7.44a18.6,18.6,0,0,0-9.04,2.48c0.91-1.68,1.67-2.48,8.4-9.87a13.675,13.675,0,0,1,1.48-1.4c1.31-.96,1.59-1.16,1.59-2.08,0-.84-1.51-2.92-3.11-2.92a3.645,3.645,0,0,0-1.39.4c-0.24.12-5.14,1.68-7.33,1.68-1.16,0-1.71,0-3.11-2.04a4.06,4.06,0,0,0-.56,2.08,3.916,3.916,0,0,0,3.31,3.68,11.879,11.879,0,0,0,1.71-.84,25.448,25.448,0,0,1,5.58-2.4,0.283,0.283,0,0,1,.32.28c0,0.68-1.43,2.68-2.03,3.48-4.18,5.67-8.53,11.39-10.88,13.71-2.19,2.2-2.71,2.76-2.71,3.96a1.831,1.831,0,0,0,1.76,2.04c0.79,0,1.03-.4,2.07-2,3.07-4.8,7.37-8.92,13.26-8.92,4.15,0,6.26,2.92,6.26,5.84,0,3.28-2.51,6.24-4.86,6.72-0.72-2.16-2.71-5.32-6.34-5.32-1.79,0-4.7.88-4.7,3.68,0,3.52,4.31,4.92,8.05,4.92C1078.43,3038.78,1082.18,3033.26,1082.18,3029.06Zm-11.28,7.36a3.581,3.581,0,0,1-1.35.24c-1.12,0-5.22-.92-5.22-3.08a1.832,1.832,0,0,1,1.79-1.68C1067.19,3031.9,1069.82,3033.1,1070.9,3036.42Zm40.83-4.44a122.548,122.548,0,0,1,1.2-17.31c0.08-.6.64-3.08,0.64-3.6a2.475,2.475,0,1,0-4.95,0c0,0.56.56,3.08,0.64,3.6a126.866,126.866,0,0,1,1.2,17.31h1.27Zm-0.64,2.28a2.48,2.48,0,1,0,2.48,2.48A2.49,2.49,0,0,0,1111.09,3034.26Zm59.48-24.47a0.949,0.949,0,0,0-.4-0.6l-2.78-2.48a1.317,1.317,0,0,0-.72-0.4,1.018,1.018,0,0,0-.64.48l-2.03,2.48h-22.99c-1.91,0-3.78-.08-5.7-0.24l0.68,1.48a18.686,18.686,0,0,1,4.3-.28h8.13a56.383,56.383,0,0,1-6.85,15.11,53.814,53.814,0,0,1-7.57,9.4l0.12,0.28c4.26-1.88,7.93-5.84,10.2-8.88,0,3.84-.36,9.96-0.36,13.8a1.3,1.3,0,0,0,1.51,1.56c0.6,0,1.99-.32,2.19-1.44,0.04-.24,0-1.36,0-1.68h14.15c-0.08,1.88-.12,2.64,1.35,2.64a2.134,2.134,0,0,0,2.43-2.32c0-.2-0.04-0.8-0.12-1.6-0.12-1.64-.2-3.48-0.2-5.72,0-.72.04-6.12,0.04-7.28,0.84-.64,1.4-1.08,1.4-1.52a0.677,0.677,0,0,0-.28-0.48l-2.47-1.96a1.089,1.089,0,0,0-.64-0.32,0.786,0.786,0,0,0-.52.36l-1.23,1.6h-13.63l-0.51-.32a52.719,52.719,0,0,0,4.98-11.23h17.53A0.514,0.514,0,0,0,1170.57,3009.79Zm-8.76,27.63h-14.15v-14.68h14.15v14.68Zm51.59,0.6v-0.24c-3.75-.88-8.41-5.12-9.96-9.24h3.9c-0.08,1.6-.08,1.96.76,1.96,1.99,0,2.31-.96,2.31-1.8,0-.04-0.16-2.92-0.16-3.48,0-.72.04-1.16,0.08-1.64a1.411,1.411,0,0,0,.96-1.12,1.784,1.784,0,0,0-.56-0.8l-1.32-1.16a1.439,1.439,0,0,0-.91-0.52,1.455,1.455,0,0,0-.64.56l-0.92,1.12h-3.46c0.04-.52.04-3.12,0.08-3.72h3.86c0.28,0,.6-0.04.6-0.44a0.815,0.815,0,0,0-.4-0.6l-1.79-1.55a1.547,1.547,0,0,0-.72-0.4,0.7,0.7,0,0,0-.56.48l-0.83,1.55h-0.92c-0.44,0-3.23-.04-5.66-0.23l0.64,1.47a15.293,15.293,0,0,1,2.71-.24l-0.04,3.68h-2.59l-3.55-1.56c0.04,0.96.12,2.72,0.12,5.64,0,0.6-.12,3.48-0.12,4.12,0,0.36,0,.84,1,0.84,2.31,0,2.15-1.64,2.07-2.16h2.63c-1.19,6.36-6.21,10.6-9.84,12.4v0.24a15.924,15.924,0,0,0,12.71-12c0.6,2.76,2.87,8.4,6.77,11.8A7.284,7.284,0,0,1,1213.4,3038.02Zm-6.06-10.44h-4.18a32.65,32.65,0,0,0,.32-4.96h3.86v4.96Zm-6.93-4.96a32.831,32.831,0,0,1-.28,4.96h-2.75v-4.96h3.03Zm13.35-7.19-0.08-.28a19.489,19.489,0,0,1-9.85-7.08,0.727,0.727,0,0,0,.4-0.68,1.069,1.069,0,0,0-.79-0.84l-3.39-1.4a9.57,9.57,0,0,1-1.31,4.36,66.435,66.435,0,0,1-6.06,9.87c-0.04-1.28-.04-1.44-0.04-2.04a2.271,2.271,0,0,0,.84-1.15,1.183,1.183,0,0,0-.52-0.84l-1.44-1a1.257,1.257,0,0,0-.55-0.32,1.009,1.009,0,0,0-.6.4l-1.04,1.2h-3.14c0-.6.04-3.64,0.04-4.36h7.49a0.477,0.477,0,0,0,.59-0.4,0.892,0.892,0,0,0-.4-0.64l-2.03-1.88a1.235,1.235,0,0,0-.71-0.44,0.744,0.744,0,0,0-.56.52l-1.04,1.88h-3.34v-1.96c0.95-.64,1.07-0.72,1.07-1.12,0-.48-0.32-0.6-1.07-0.8l-3.91-1.08c0.96,2.72.96,3.48,0.96,10.28h-1.95l-3.83-1.8a24.18,24.18,0,0,1,.4,4.11c0,3.08-.04,6.24-0.12,17.56,0,0.68-.16,3.76-0.16,4.36,0,0.8.12,1.32,1.39,1.32,1.84,0,1.84-1.12,1.84-1.56,0-.16-0.08-2.28-0.12-2.6h9.08c-0.04,1.52-.04,1.92,1,1.92,0.52,0,1.99-.44,2.03-1.56,0-.84-0.04-4.96-0.04-5.92,0-1.4-.12-10.12-0.12-12.04l0.2,0.12c4.9-3.87,6.97-5.95,9.96-11.27h0.36c0.87,2.84,3.98,8.2,7.01,10.15A8.157,8.157,0,0,1,1213.76,3015.43Zm-23.95,20.63h-9.08v-19.47h9.08v9.79a5.02,5.02,0,0,0-2.43-2.28c0.56-1.48.8-2.16,1.16-3.2a1.213,1.213,0,0,0,.79-0.76,1.31,1.31,0,0,0-.79-0.92l-2.47-1.28a5.471,5.471,0,0,1,.08,1.12,29.9,29.9,0,0,1-1.12,5.48,16.486,16.486,0,0,0-3.59-2.6l-0.11.2a33.082,33.082,0,0,1,3.18,4.12,29.711,29.711,0,0,1-3.74,7.6l0.2,0.2a15.749,15.749,0,0,0,2.75-2.92c0.39,0.52.43,0.76,0.63,2.16,0.24,1.8.88,1.88,1.32,1.88a1.209,1.209,0,0,0,1.31-1.36c0-.2,0-2.16-3.07-2.96,0.76-1.08,1.2-1.88,1.6-2.56a16.923,16.923,0,0,1,.64,2.2c0.31,1.48.87,2.4,1.83,2.4,0.64,0,1.19-.48,1.19-1.6,0-1.52-.79-2.88-2.67-5.16a16.511,16.511,0,0,0,.76-1.76,6.188,6.188,0,0,1,.44,1.88c0.24,1.48.28,2.08,1.12,2.08a1.066,1.066,0,0,0,.99-1v8.72Zm-4.5-15.08c0-1.68-1.95-2.32-3.43-2.84l-0.08.16a8.145,8.145,0,0,1,.68,2.12c0.12,0.8.36,2.08,1.51,2.08A1.383,1.383,0,0,0,1185.31,3020.98Zm-1.4,6.32c0-1.88-2.35-2.8-2.9-2.96l-0.12.12a4.284,4.284,0,0,1,.51,2.6c0.04,1.44.64,1.56,1.12,1.56A1.218,1.218,0,0,0,1183.91,3027.3Zm57.25,0.96a1.1,1.1,0,0,0,1.2,1.36c0.24,0,2.19,0,2.19-1.64,0-.32-0.08-2-0.12-2.36-0.04-1.92-.04-3.36,0-4.48a2.477,2.477,0,0,0,.91-0.92,0.794,0.794,0,0,0-.35-0.48l-1.8-1.64a1.477,1.477,0,0,0-.59-0.4,0.8,0.8,0,0,0-.6.44l-1.32,1.56h-2.31c-0.44,0-3.22-.04-5.66-0.24l0.64,1.48a19.991,19.991,0,0,1,4.31-.28h3.5v6.64h-3.82l-4.55-2.36a22.285,22.285,0,0,1,.64,5.88c0,0.72-.12,4.32-0.12,5.12,0,1.04,0,3.44,1.95,4.36,1.24,0.6,6.94.56,8.61,0.56,1.87,0,7.05-.04,8.53-0.64a3.256,3.256,0,0,0,2.31-2.76c0-.4-0.08-0.52-0.92-0.88-1.07-.44-1.23-2.76-1.39-5.16h-0.24a21.075,21.075,0,0,1-1.44,4.48c-0.51,1.04-1.11,1.8-4.22,1.8-1.12,0-6.45-.04-7.69-0.04-2.03,0-2.23-.76-2.27-2.08-0.04-1.04.04-6.16,0.04-7.32h4.58Zm-4.38-15.07c1.03-1.48,1.79-2.84,2.79-4.56,0.99-.36,1.27-0.48,1.27-0.96a0.773,0.773,0,0,0-.44-0.56l-4.1-2.24a15.9,15.9,0,0,1-1.51,6.28,44.379,44.379,0,0,1-6.02,10.15l0.16,0.12c4.7-3.88,6.29-6.03,7.17-7.27h11.71c0.04,3.99-.04,8.19-0.19,10.95-0.32,5.24-1.2,5.24-2.36,5.24a30.887,30.887,0,0,1-3.26-.36v0.16a5.709,5.709,0,0,1,2.87,4.32c5.73-.32,6.29-5.36,6.29-18.75,0.96-.68,1.32-1,1.32-1.52a1.082,1.082,0,0,0-.44-0.76l-1.91-1.6a1.273,1.273,0,0,0-.8-0.4,1.317,1.317,0,0,0-.72.4l-1.51,1.36h-10.32Zm-14.86-7.16c1.43,0.76,2.63,2.84,3.15,4.32a1.919,1.919,0,0,0,1.75,1.48,2.022,2.022,0,0,0,1.87-2.08c0-1.84-2.23-3.92-6.77-3.92v0.2Zm-3.75,9.6a10.217,10.217,0,0,1,3.15,3.99c0.56,1.28,1.08,1.48,1.83,1.48a1.732,1.732,0,0,0,1.8-1.84c0-3.03-3.83-3.51-6.78-3.91v0.28Zm11.76-3.6c-0.96,1.84-5.26,11.19-6.34,13.27-2.31,4.44-2.51,4.84-5.26,5.04v0.2c3.51,1.68,3.51,2.16,3.51,8.32a2.226,2.226,0,1,0,4.42.16,14.637,14.637,0,0,0-1.07-3.76,10.779,10.779,0,0,1-.68-3.2c0-.92.16-1.32,1.31-5,1.76-5.64,2.71-8.96,4.31-15.03h-0.2Zm48.32,25.43c9.04-.8,16.21-6.08,16.21-14.4,0-7.91-6.69-12.63-14.86-12.63-9.68,0-17.09,6.99-17.09,15.59a6.6,6.6,0,0,0,1.79,4.64,6.941,6.941,0,0,1,1.6,1.68c1.23,1.76,1.67,2.36,2.55,2.36,1.11,0,2.47-.28,6.61-8.12,2.19-4.12,5.14-10.63,5.14-11.19,0-.6-0.76-2.28-3.43-3.44a15.3,15.3,0,0,1,2.51-.2c7.89,0,11.48,5.15,11.48,10.71,0,9.8-9.6,13.6-12.51,14.72v0.28Zm-2.99-25.27a3.333,3.333,0,0,1,1.35,2.52c0,2.39-3.54,9.63-4.82,12.07-0.83,1.56-2.39,4.52-3.66,4.52-1.48,0-2.67-3.44-2.67-6C1265.46,3020.14,1269.84,3013.43,1275.26,3012.19Zm62.11,0.2a1.051,1.051,0,0,0-.28-0.6l-2.99-3.16a0.79,0.79,0,0,0-.56-0.24,0.774,0.774,0,0,0-.48.24l-2.11,2h-9.12c-0.04-.96-0.04-1.68-0.04-2.36,0.72-.32,1.43-0.64,1.43-1.28a0.85,0.85,0,0,0-.83-0.76l-4.82-1.04a12.678,12.678,0,0,1,.87,5.44h-9.36c-0.08-.44-0.08-0.6-0.4-2.04h-0.32c-0.91,3.56-2.86,5.04-3.22,5.24-1.88,1.2-2.43,1.52-2.43,2.72a1.854,1.854,0,0,0,1.95,1.83c2.35,0,4.38-2.43,4.46-6.79h21.71a18.671,18.671,0,0,1-2.03,3.64l0.24,0.2c0.88-.36,5.14-2.24,6.14-2.64a8.241,8.241,0,0,0,1.35.2A0.732,0.732,0,0,0,1337.37,3012.39Zm1.43,24.59v-0.24c-7.81.36-12.91-1.36-17.41-6.6h15.26a0.508,0.508,0,0,0,.6-0.44,0.86,0.86,0,0,0-.4-0.6l-2.39-1.88a1,1,0,0,0-.76-0.4c-0.16,0-.16,0-0.6.48l-1.63,1.88h-10.92a23.386,23.386,0,0,0,.88-4.48h8.89a0.522,0.522,0,0,0,.63-0.44,0.886,0.886,0,0,0-.47-0.64l-1.92-1.68a1.314,1.314,0,0,0-.71-0.44,1.03,1.03,0,0,0-.64.52l-1.6,1.72h-4.1c0.04-.64.12-3.8,0.12-4.52h9.84a0.49,0.49,0,0,0,.6-0.44,0.9,0.9,0,0,0-.44-0.64l-1.99-1.71a1.6,1.6,0,0,0-.72-0.4,0.833,0.833,0,0,0-.64.48l-1.47,1.75h-5.14c0.04-1.08.08-2.79,0.12-3.27,0.4-.08,1.23-0.36,1.23-0.92a0.794,0.794,0,0,0-.71-0.68l-4.74-1.16a23.648,23.648,0,0,1,.71,6.03h-4.5c-0.44,0-3.23-.04-5.66-0.24l0.64,1.48a19.941,19.941,0,0,1,4.3-.28h5.22a40.9,40.9,0,0,1-.24,4.52h-3.9c-0.44,0-3.27-.04-5.7-0.24l0.68,1.44a23.983,23.983,0,0,1,4.3-.24h4.55a29.7,29.7,0,0,1-.88,4.48h-8.65c-0.44,0-3.22-.04-5.65-0.24l0.63,1.44a24.433,24.433,0,0,1,4.31-.24h9.04c-2.07,5.76-8.53,8.92-13.63,10.72v0.32c11.4-1.4,15.74-7.48,17.1-11.04h0.2c3.26,5.76,8.24,10.68,14.74,11.16A5.5,5.5,0,0,1,1338.8,3036.98Zm23.18-22.35c0.12-3.12.16-3.48,0.16-6.16,0.68-.6,1.4-1.04,1.4-1.44a1.061,1.061,0,0,0-.92-0.72l-5.3-1.76a27.681,27.681,0,0,1,1.12,10.08h-8.05a53.688,53.688,0,0,1-5.66-.24l0.64,1.48a22.314,22.314,0,0,1,4.3-.28h8.73c-0.48,8.43-2.67,13.07-4.98,16.31-1.79,2.52-5.98,7.16-10.04,8.88l0.2,0.36c7.25-1.36,12.79-7.76,14.86-11.52,2.59-4.64,3.23-9.68,3.5-14.03h10.56c0.12,1.19.16,2.51,0.16,3.67,0,4.76-.83,14.16-1.55,15.72-0.88,2-2.35,2.12-4.11,2.12a38.491,38.491,0,0,1-6.21-1l-0.16.32c1.04,0.52,4.14,2,4.78,5.24,2.99-.2,6.97-0.44,9.04-5.96,1.24-3.24,1.48-9.44,1.64-18.64,0.8-.67,1.55-1.11,1.55-1.51a1.378,1.378,0,0,0-.6-0.8l-2.15-1.8a1.294,1.294,0,0,0-.67-0.32,1.014,1.014,0,0,0-.72.4l-1.44,1.6h-10.08Zm36.33,19.75a5.875,5.875,0,1,0-5.89,5.92A5.872,5.872,0,0,0,1398.31,3034.38Zm-1.43,0a4.44,4.44,0,1,1-4.46-4.48A4.4,4.4,0,0,1,1396.88,3034.38Z" transform="translate(-694.5 -3003.75)"/>
</svg>
