<?xml version="1.0" encoding="utf-8"?>
<!-- Generator: Adobe Illustrator 25.0.0, SVG Export Plug-In . SVG Version: 6.00 Build 0)  -->
<svg version="1.1" id="sec03_01_b_02" xmlns="http://www.w3.org/2000/svg" xmlns:xlink="http://www.w3.org/1999/xlink" x="0px"
	 y="0px" viewBox="0 0 151 151" style="enable-background:new 0 0 151 151;" xml:space="preserve" width="151" height="151">
<style type="text/css">
	.st0{fill-rule:evenodd;clip-rule:evenodd;fill:#9D1A5B;}
	.st1{fill-rule:evenodd;clip-rule:evenodd;fill:#FFFFFF;}
</style>
<circle class="st0" cx="75.5" cy="75.5" r="75.5"/>
<path id="不快臭に_サヨナラ" class="st1" d="M43.5,51.2h9.1c0.2,0,0.3-0.1,0.4-0.2c0,0,0,0,0,0c0-0.1-0.1-0.3-0.2-0.4
	L51,49.2c-0.1-0.1-0.3-0.2-0.4-0.3c-0.2,0.1-0.3,0.2-0.4,0.4L49,50.6H35.7c-1.1,0-2.2-0.1-3.3-0.1l0.4,0.9c0.8-0.1,1.6-0.2,2.5-0.2
	H42c-0.1,0.5-0.3,1.1-0.5,1.5c-2.6,4.4-5.8,8.4-9.6,11.9l0,0.1c3.5-1.8,6.6-4.4,8.9-7.6c0,8.6,0,8.9-0.1,11c0,0.1-0.1,0.8-0.1,0.9
	c0,0.4,0.4,0.7,0.8,0.7c0,0,0.1,0,0.1,0c0.6,0.1,1.2-0.4,1.3-1c0-0.4-0.1-1.9-0.1-2.3c-0.1-1.7-0.1-3-0.1-3.9c0-0.2,0-2.3,0.1-5.7
	c0.4,0,0.7-0.3,0.8-0.7c0-0.2-0.2-0.4-0.5-0.4l-1-0.2c0.7-1,1.2-1.9,1.6-2.7c0.7-0.1,1-0.2,1-0.5c0-0.1-0.1-0.2-0.2-0.3L43.5,51.2z
	 M44.5,55.8c1.1,0.5,3.5,2.9,4.9,5.3c0.9,1.5,1.2,2,2.1,2c0.6,0,1.1-0.6,1.1-1.2c0,0,0,0,0,0C52.5,59.2,47.1,55.8,44.5,55.8
	L44.5,55.8z M78.3,66.7l-0.1-0.2c-3.9-0.5-7.2-3.1-8.7-6.7h7.7c0.1,0,0.3,0,0.3-0.2c0,0,0,0,0-0.1c0-0.1-0.1-0.3-0.2-0.3l-1.3-1
	c-0.1-0.1-0.3-0.2-0.4-0.2c-0.2,0.1-0.3,0.2-0.4,0.3l-0.9,1h-0.3c0.1-4.5,0.1-5,0.2-5.4c0.3-0.2,0.6-0.5,0.8-0.9
	c0-0.1-0.1-0.2-0.2-0.3l-1.2-1.1c-0.1-0.1-0.3-0.2-0.4-0.2c-0.1,0-0.3,0.1-0.4,0.2l-0.8,0.8h-2.7c0-0.7,0-2,0-2.2
	c0.3-0.2,0.6-0.4,0.7-0.8c0-0.3-0.2-0.4-0.7-0.5l-2.6-0.6c0.5,1.3,0.7,2.7,0.6,4.2h-1c-1.1,0-2.2-0.1-3.3-0.1l0.4,0.8
	c0.8-0.1,1.7-0.2,2.5-0.1h1.4c0,1.4,0,5.2-0.1,6.4h-2.2c-1.1,0-2.2,0-3.3-0.1l0.4,0.9c0.8-0.1,1.6-0.2,2.5-0.2h2.6
	c-0.2,4.2-2.4,6.6-5.8,9l0.1,0.1c2.5-0.5,4.7-1.9,6.2-3.9c1-1.4,1.5-3.1,1.5-4.9c0.1,1.8,0.7,3.5,1.8,4.9c1.2,1.5,2.7,2.8,4.5,3.8
	C76,67.7,77.1,66.9,78.3,66.7L78.3,66.7z M72.3,52.8c0,0.9-0.2,5.4-0.2,6.4h-2.8c0-0.1,0.1-5.9,0.1-6.4H72.3z M64.9,56.1
	c0-1.1-1.2-2.2-3.6-2.7l-0.1,0.1c0-0.5,0.1-3,0.1-3.5c0.4-0.1,0.7-0.4,0.8-0.7c-0.1-0.2-0.3-0.4-0.6-0.4l-2.7-0.8
	c0.5,1.3,0.6,2.3,0.6,5.9c0,0.6,0,7.9-0.2,12.2c0,0.3-0.1,1.8-0.1,2.1c0,0.6,0.1,0.9,0.7,0.9c1.3,0,1.3-0.8,1.3-1.2
	c0-1.1-0.1-6.2-0.1-7.3c0-0.8,0-3.2,0.1-7.1c0.6,0.5,1,1.2,1.2,2c0.3,0.8,0.5,1.5,1.5,1.5c0.5,0.1,0.9-0.3,1-0.8
	C64.9,56.3,64.9,56.2,64.9,56.1L64.9,56.1z M58.6,56.7c0-1.2-0.3-2.3-0.8-3.4h-0.2c0.1,1.1-0.2,2.2-0.8,3.1
	c-0.8,1.3-0.9,1.4-0.9,1.7c0,0.5,0.3,0.9,0.8,1c0,0,0.1,0,0.1,0C58.6,59.2,58.6,57.4,58.6,56.7z M98,51.4c0-0.2-0.1-0.4-0.3-0.6
	l-1-0.7c-0.1-0.1-0.2-0.2-0.4-0.2c-0.2,0-0.3,0.1-0.5,0.2l-0.6,0.6h-5.4c0.7-0.3,1.3-0.7,1.9-1.1c0.1,0,0.6-0.1,0.7-0.1
	c0.2,0,0.3-0.2,0.3-0.4c0-0.2-0.1-0.4-0.3-0.4c0,0,0,0,0,0L89.9,48c0,1-0.3,1.9-0.8,2.8H87l-2.4-1.1c0.2,1.5,0.3,2.9,0.3,4.4
	c0,0.9-0.2,5-0.2,5.9c0,0.6,0.1,0.9,0.8,0.9c0.6,0.1,1.3-0.3,1.4-1c0-0.1,0-0.3,0-0.4h8.5v0.2c-0.1,0.4,0.2,0.8,0.7,0.9
	c0.1,0,0.1,0,0.2,0c0.2,0,1.3-0.2,1.3-1.1c0-0.2-0.1-1.2-0.1-1.4c-0.1-1.5-0.1-3.9-0.1-5.9C97.9,51.7,98,51.7,98,51.4z M95.3,56.2
	h-8.5v-2.2h8.5V56.2z M95.3,53.5h-8.5v-2.1h8.5V53.5z M95.3,59h-8.5v-2.2h8.5V59z M101.4,66.8v-0.2c-0.4,0-0.8,0.1-1.2,0.1
	c-3.2,0.1-6.4-1.2-8.5-3.6h9.2c0.2,0,0.3-0.1,0.3-0.2c0,0,0,0,0,0c0-0.1-0.1-0.3-0.2-0.4l-1.5-1.2c-0.1-0.1-0.3-0.2-0.4-0.2
	c-0.2,0.1-0.3,0.2-0.3,0.3l-1,1.2h-6.4c0.1-0.3,0.2-0.7,0.2-1c0.7-0.4,0.8-0.5,0.8-0.8c0-0.2-0.2-0.4-0.4-0.4l-2.4-0.6
	c0.1,1,0,1.9-0.3,2.8h-5.2c-0.2,0-1.9,0-3.3-0.1l0.4,0.9C82,63,82.8,63,83.6,63H89c-1.2,3.1-4.6,4.9-8.2,6.1v0.2
	C85,69,89.6,67.3,91.2,63c1.3,2.6,4.9,5.9,8.2,6.2C99.7,68.2,100.4,67.3,101.4,66.8z M119.1,56.4c0-0.9-1.5-1.1-2.3-1.1
	c-1.8,0-4.3,0.6-5,2c1-0.5,2.1-0.7,3.2-0.9c0.2,0,0.7,0,0.7,0.3c-0.5,0.6-1,1.1-1.6,1.6l0.1,0.1c1.1-0.7,2.3-1.1,3.6-1.3
	C118.9,57,119.1,56.7,119.1,56.4z M120,66c0-0.3-0.2-0.9-1.5-0.9c-0.3,0-2.1,0.1-2.4,0.1c-3.4,0-3.7-1.2-4-2.5
	c-0.2,0.3-0.3,0.6-0.3,0.9c0,2.3,1.8,3.1,6.2,3.1C119,66.8,120,66.8,120,66L120,66z M109.9,60.5h-0.1c-0.6,1.3-1.1,2.6-1.6,3.9
	c0,0.2-0.1,0.3-0.3,0.4c-0.3,0-0.6-1.5-0.6-2.6c0.1-1.9,0.5-3.7,1.4-5.4c0.1-0.3,0.2-0.6,0.3-0.9c-0.3-0.9-1.1-1.6-2-1.8
	c-0.2,0-0.3,0.1-0.5,0.1c0.5,0.5,0.7,1.1,0.7,1.8c0,0.4-0.1,0.8-0.1,1.2c-0.4,1.9-0.7,3.8-0.7,5.7c0,3.2,1,5.4,2.1,5.4
	c0.5,0,0.6-0.4,0.6-0.9c0-0.2-0.1-1.1-0.1-1.2c0.1-0.8,0.2-1.6,0.4-2.4C109.3,63.3,109.8,61,109.9,60.5L109.9,60.5z M50.2,90.7
	c0-0.3-0.1-0.5-0.4-0.6c-0.6-0.5-1.3-0.8-2-0.9c-0.1,0-0.8,0.2-0.9,0.2c-0.1,0-2.4,0.1-2.7,0.1c0-1.1,0.1-2.2,0.3-3.3
	c0-0.2,0.2-0.9,0.2-1.1c0-0.8-2.2-1.3-2.8-1.3c-0.5,0-1,0.2-1.4,0.6c1.9,0.2,1.9,1.2,1.9,2.2c0,0.4-0.1,2.4-0.1,2.9
	c-0.9,0-1.3,0.1-4.3,0.4c0-0.9,0-1.8,0.1-2.7c0-0.2,0.3-0.8,0.3-1c0-0.5-1.8-1.3-2.5-1.3c-0.5,0-1.1,0.2-1.5,0.6
	c1,0.3,1.4,0.4,1.6,0.9c0.3,1.2,0.4,2.4,0.4,3.7c-0.4,0.1-2.5,0.3-3,0.3c-0.4,0-0.9-0.1-1.3-0.4c-0.3-0.4-0.6-0.8-0.9-1.2
	c-0.2,0.4-0.3,0.8-0.2,1.1c0,1,1,2.5,1.9,2.5c0.2,0,0.4-0.1,0.5-0.2c1-0.3,2-0.6,3-0.7c0,0.6,0,0.7,0,1.7v0.9c0,0.1-0.1,1-0.1,1.1
	c0,0.4,0.3,1.7,1.2,1.7c0.7,0,0.7-0.6,0.7-1.4c0-0.6-0.1-3.6-0.1-4.3c1.4-0.3,2.8-0.5,4.3-0.5c0,0.6,0,3.3-0.1,3.9
	c-0.3,3-1.6,5.7-3.7,7.9l0.2,0.1c3.5-2.4,5-4.9,5.2-7.9c0.1-0.6,0.1-3.4,0.2-4.1c0.9,0.1,1.6,0.1,2.2,0.2c1,0.1,2.7,0.4,3,0.4
	C49.9,91.4,50.2,91.4,50.2,90.7L50.2,90.7z M71.4,87.7c0-0.2-0.2-0.4-1.5-1.5c-0.2-0.2-0.5-0.4-0.7-0.5c-0.2,0-0.4,0.2-0.5,0.4
	c-0.6,0.5-1.3,0.7-2,0.7C65,86.8,61.2,87,60.6,87c-0.9,0-1.4,0-2.4-1.4c-0.1,0.3-0.1,0.6-0.1,0.9c0.1,1.1,0.7,2.1,1.7,2.6
	c0.1,0,0.9-0.3,1.1-0.4c1.3-0.3,6.9-0.7,7.1-0.7c0.5,0,0.6,0,0.6,0.5c0,0.9-0.1,2.4-0.2,3.3c-3.2,0.2-3.6,0.2-6.6,0.5
	c-0.4,0-1.1,0.1-1.4,0.1c-0.9,0-1.7-0.6-2.1-1.4c-0.1,0.2-0.2,0.4-0.2,0.7c0,0.7,1.3,2.7,1.9,2.7c0.3-0.1,0.7-0.2,1-0.3
	c1.6-0.4,2.7-0.5,7.2-0.6c-0.1,0.6-0.3,3.4-0.4,4.1c-1.2,0.2-6.4,0.6-7.5,0.6c-0.6,0-1.2,0-2.3-1.3c-0.1,0.2-0.2,0.5-0.2,0.7
	c0.2,1.2,0.9,2.2,2,2.8c0.4-0.1,0.7-0.2,1.1-0.4c0.4-0.2,5.8-0.8,6.6-0.9c0.1,0.4,0.5,1.7,1.1,1.7c0.5-0.2,0.8-0.6,0.9-1.1
	c0.4-1.8,0.6-3.6,0.6-5.4c0-0.4,0.2-3.8,0.2-4.5c0.1-1,0.1-1.1,0.6-1.4C71.2,88.2,71.4,88,71.4,87.7L71.4,87.7z M97.5,90.8
	c0-1-2-1.4-2.4-1.4c-0.2,0-1.2,0.3-1.4,0.4c-1.1,0.1-2.8,0.2-3.8,0.2v-1.2c0-1.7,0.1-1.9,0.4-2.3c0.1-0.2,0.2-0.4,0.2-0.6
	c0-0.8-1.5-1.5-2.7-1.5c-0.6,0-1.3,0.3-1.7,0.8c1.1,0.3,1.8,0.6,1.9,1.2c0.1,0.6,0.1,2.6,0.1,3.9c-0.8,0.1-5.6,0.5-5.9,0.5
	c-1-0.1-1.9-0.7-2.5-1.5c-0.1,0.3-0.1,0.5-0.1,0.8c0.1,1.5,1.2,2.7,2.6,3c0.3,0,0.6-0.1,0.8-0.4c1-0.7,3.7-1,5-1.1
	c0,1.2-0.2,2.5-0.5,3.7c-0.7,3.1-2.5,5.8-5.1,7.7l0.1,0.2c2.4-0.7,4.5-2.3,5.8-4.5c1.1-2.2,1.7-4.7,1.6-7.2c0.5,0,1.2-0.1,2.3-0.1
	c0.6,0,1.3,0,1.9,0.1c0.3,0,2.2,0.3,2.4,0.3c0.4,0.1,0.9-0.1,1-0.6C97.5,90.9,97.5,90.9,97.5,90.8L97.5,90.8z M118.3,86.7
	c0-0.4-0.3-0.7-0.6-0.8c-0.5-0.2-1-0.4-1.4-0.5c-0.2,0-1,0.4-1.2,0.5c-1.5,0.4-3.1,0.6-4.7,0.6c-1.2,0.1-2.4-0.3-3.3-1.1
	c-0.1,1.1,0.9,2.8,2,2.8c0.5,0,1-0.1,1.5-0.2c1-0.2,4.4-0.4,5.4-0.4C117.9,87.3,118.3,87.3,118.3,86.7L118.3,86.7z M120,91
	c0-0.6-1.8-1.9-2.1-1.9c-0.4,0.3-0.7,0.6-1,0.9c-0.3,0.1-7.6,0.7-9.1,0.7c-0.5,0.1-1-0.1-1.3-0.4c-0.4-0.3-0.7-0.6-1-1.1
	c-0.1,0.3-0.2,0.5-0.2,0.8c0.2,1.3,1.1,2.5,2.3,2.9c0.3-0.1,0.6-0.2,0.9-0.4c1.3-0.6,6.9-1.1,8.3-1.3c-0.7,2.4-1.8,4.6-3.4,6.4
	c-0.6,0.7-3.9,4-6.2,4.9v0.2c2.5-0.1,5.1-1.9,6.2-2.8c2.2-1.8,3.9-4.1,4.9-6.8c0.1-0.5,0.4-0.9,0.7-1.3C119.7,91.4,120,91.3,120,91
	L120,91z"/>
</svg>
