<svg xmlns="http://www.w3.org/2000/svg" width="485" height="84" viewBox="0 0 485.661 84.41">
  <defs>
    <style>
      .cls-1 {
        fill: #9d1b5b;
      }
    </style>
  </defs>
  <path id="sec03_02_ttl" data-name="sec03_02_ttl" class="cls-1" d="M841.668,3893.9a1.226,1.226,0,0,0,1.474,1.36,2.111,2.111,0,0,0,2.151-1.92c0-.12-0.438-8.52-0.438-10.12,0-.68.04-1.04,0.08-1.72,1.314-.8,1.354-0.8,1.354-1.2a1.18,1.18,0,0,0-.4-0.72l-2.112-1.67a1.162,1.162,0,0,0-.637-0.28,1.091,1.091,0,0,0-.717.4l-1.116,1.35h-4.7v-3.71c1.076-.72,1.155-0.92,1.155-1.24a0.81,0.81,0,0,0-.637-0.72l-4.781-1.2a14.644,14.644,0,0,1,.956,5.12c0,0.44.04,1.31,0,1.75h-4.5l-4.382-2.27c0.6,3.35.677,11.19,0.677,15.15,0,0.48-.04,3.76-0.08,12.16-2.032.2-2.948,0.32-3.864,0.32a6.232,6.232,0,0,1-2.55-.48l2.072,4.4c0.239,0.48.239,0.6,0.557,0.6a1.035,1.035,0,0,0,.757-0.88,51.4,51.4,0,0,0,16.694-5.8,27.99,27.99,0,0,0,11.514,6.56c0.717-1.52,1.235-2.12,3.426-4.2l-0.12-.24c-7.211-.32-11.753-2.84-14.462-5.08a50.979,50.979,0,0,0,9.283-2.44c0.757,0,1.355,0,1.355-.56a1.106,1.106,0,0,0-.4-0.8l-3.267-2.92a4.337,4.337,0,0,1-1.035,1.72,33.2,33.2,0,0,1-6.415,4.6,17.294,17.294,0,0,1-4.024-5.32h7.132Zm-13.267-.96v-5.88h13.267v5.88H828.4Zm5.378,0.96a17.5,17.5,0,0,0,4.741,8.48,88.111,88.111,0,0,1-10.079,1.64c-0.04-1.76-.04-2.56-0.04-10.12h5.378Zm7.889-13.56v5.76H828.4v-5.76h13.267Zm28.442,10.24-4.064-2.28c0.079,0.76.119,1.88,0.119,2.44,0,2.16,0,7.08-.079,9.16,0,0.56-.2,3.36-0.2,3.68a0.78,0.78,0,0,0,.917.96c0.956,0,2.47-.4,2.39-1.64h1.634a31.963,31.963,0,0,1-10.877,6.56v0.24a34.466,34.466,0,0,0,13.865-4.04c1.235-.08,1.553-0.28,1.553-0.6a0.716,0.716,0,0,0-.4-0.56l-1.952-1.6h11.793c-0.08.68,0.119,1,1.036,1,0.438,0,2.271-.04,2.271-1.72,0-1.56-.2-8.36-0.2-9.76,0.917-.48,1.474-0.84,1.474-1.16a0.8,0.8,0,0,0-.518-0.64l-1.952-1.28a1.426,1.426,0,0,0-.8-0.36,1.037,1.037,0,0,0-.717.52l-0.956,1.08H870.11Zm-0.917,11.36v-2.92h15.658v2.92H869.193Zm15.658-6.68v2.8H869.193v-2.8h15.658Zm0-3.72v2.76H869.193v-2.76h15.658Zm-4.542,12.04a24.135,24.135,0,0,1,6.892,4.52c1.992,1.72,2.191,1.88,3.187,1.88a1.762,1.762,0,0,0,1.753-1.72c0-3.72-7.251-4.6-11.792-4.88Zm1.474-23.16a26.937,26.937,0,0,0,.239-3.79,54.3,54.3,0,0,0,8.685-.6,6.149,6.149,0,0,0,.677.12c0.439,0,.718-0.12.718-0.48a0.784,0.784,0,0,0-.439-0.68l-3.028-2.36a15.527,15.527,0,0,1-6.454,3.2l-3.984-1.6a14.166,14.166,0,0,1,.6,4.27c0,7.04-3.466,10.12-4.821,11.32l0.08,0.16a10.413,10.413,0,0,0,7.569-8.6h3.666c0.079,0.92-.04,5.48-0.04,6.52,0,0.32,0,1,1.235,1,0.159,0,2.032,0,2.032-1.6,0-1.52-.08-4.56-0.12-5.92h5.937a0.45,0.45,0,0,0,.557-0.4,0.828,0.828,0,0,0-.4-0.64l-2.112-1.92a1.266,1.266,0,0,0-.717-0.43,0.908,0.908,0,0,0-.637.51l-1.395,1.92h-7.848Zm-14.861,0a30.449,30.449,0,0,0,.16-3.35,75.916,75.916,0,0,0,8.127-.4c0.319,0,.837.04,1,0.04a0.7,0.7,0,0,0,.837-0.6,1.012,1.012,0,0,0-.4-0.68l-2.828-2.32a13.838,13.838,0,0,1-6.415,3.2l-4.1-1.8a16.49,16.49,0,0,1,.438,4.35c0,5.52-1.315,8.6-4.661,11.88l0.079,0.2c6.255-1.92,7.211-6.72,7.65-9.56h2.828c0.04,0.96.04,1.88,0,3.12,0,0.48-.079,2.92-0.079,3.48,0,0.36.04,1.04,1.235,1.04,0.159,0,2.032,0,2.032-1.6,0-1.52-.04-4.68-0.12-6.04H876.6a0.479,0.479,0,0,0,.6-0.4,0.76,0.76,0,0,0-.4-0.64l-1.753-1.4a1.458,1.458,0,0,0-.717-0.44,1.149,1.149,0,0,0-.757.56l-1.315,1.36h-5.339Zm61.55-2.08c0-3.47-4.741-3.67-5.857-3.71v0.32a10.549,10.549,0,0,1,2.311,3.83,1.906,1.906,0,0,0,1.793,1.48A1.744,1.744,0,0,0,928.472,3878.34Zm7.012,28.88c0-.44-0.12-0.56-0.957-1.4a1.792,1.792,0,0,1-.637-1.56c0-1.6.04-4.76,0.04-6.36l-0.279-.04a27.076,27.076,0,0,1-2.072,5.12,1.512,1.512,0,0,1-1.235.88c-0.558,0-2.59-.64-5.139-4.92a46.975,46.975,0,0,0,4.581-9.04c1.594-.56,1.674-0.56,1.674-0.96a1.054,1.054,0,0,0-.6-0.8l-4.422-2.44a9.037,9.037,0,0,1,.119,1.28c0,2.12-1,5.32-2.908,8.76a43.175,43.175,0,0,1-2.749-13.48h13.625a0.525,0.525,0,0,0,.638-0.44,1.008,1.008,0,0,0-.4-0.6l-2.868-2.36a1.077,1.077,0,0,0-.717-0.4,1.017,1.017,0,0,0-.638.48l-2.032,2.36h-7.689c0-.28-0.119-2.32-0.04-5.23,1.036-.56,1.355-0.8,1.355-1.28,0-.44-0.4-0.52-1.155-0.72l-4.5-1.12c0.637,2,.836,2.72,1.195,8.35h-9.841l-4.7-2.44a38.926,38.926,0,0,1,1.315,11.56,49.943,49.943,0,0,1-1.355,12.2,19.815,19.815,0,0,1-2.59,6.12l0.279,0.12c6.893-5.56,6.893-13.96,6.893-18.72h4.86c0,0.6.08,2.44,0.08,3,0,2.56-.279,5.24-0.319,5.64-0.2,1.28-.438,1.6-1.434,1.6a34.276,34.276,0,0,1-3.665-.4v0.24c1.753,1.52,2.51,2.32,3.028,4.6a5.765,5.765,0,0,0,3.107-1.4c1.673-1.36,2.032-2.88,2.231-5.2,0.08-1,.239-6,0.319-7.12,1.076-.76,1.076-0.92,1.076-1.12a0.865,0.865,0,0,0-.359-0.64l-1.912-1.44a1.335,1.335,0,0,0-.8-0.48,1.125,1.125,0,0,0-.677.56l-0.957,1.2h-4.581c0-.76-0.04-6.44-0.08-6.92h10.159c0.439,5.48.837,10.36,3.945,16.52-2.231,3-6.335,7.56-12.431,9.64v0.24a21.354,21.354,0,0,0,14.024-7.2c3.825,5.76,8.287,7.28,9.881,7.28C934.368,3908.74,935.484,3908.18,935.484,3907.22Zm19.8-17.32c-0.239,6.16-2.391,14-12.59,18.76l0.08,0.24c9.841-1.2,15.857-9.92,16.016-19h7.251a76.95,76.95,0,0,1-.6,11.04c-0.677,3.96-1.434,4.16-3.147,4.16a15.662,15.662,0,0,1-4.7-.92l-0.12.24c1.434,1.36,2.829,2.72,2.988,5.08,3.705-.36,6.215-1.08,7.45-4.48,1.076-2.88,1.395-10.64,1.435-13.36,0.757-.52,1.235-0.88,1.235-1.28a1.32,1.32,0,0,0-.4-0.64l-1.753-2a1.082,1.082,0,0,0-.6-0.36,1.14,1.14,0,0,0-.757.4l-1.315,1.16H954.443c-0.438,0-3.267-.04-5.657-0.24l0.637,1.48a19.95,19.95,0,0,1,4.3-.28h1.554Zm9.123-13.55c0.479,1.72,3.706,12.11,11.913,15.59a6.807,6.807,0,0,1,4.024-3.52l-0.08-.44c-6.375-.68-12.709-5.72-14.582-10.59,1.594-.36,2.51-0.84,2.51-1.32a0.982,0.982,0,0,0-.358-0.6l-1.594-1.64a0.886,0.886,0,0,0-.677-0.4,1.135,1.135,0,0,0-.638.4l-1.593,1.56c-0.877,0-3.546,0-5.857-.24l0.638,1.48a23.063,23.063,0,0,1,4.3-.28H964.4Zm-11.872-1.4a14.061,14.061,0,0,1-1.355,4.31c-2.191,4.8-5.9,9.52-8.964,13.04l0.2,0.2c3.626-1.68,9.921-7.24,12.71-13.24,1.035-.32,1.713-0.56,1.713-1a0.938,0.938,0,0,0-.518-0.71Zm64.059,14.15c0-2.24-3.07-3.68-5.14-3.68a3,3,0,0,0-1.04.2c1.12,0.68,1.36.84,1.36,1.44,0,0.48-.2.84-1.16,1.32-3.5,1.72-5.97,3.16-6.97,3.76a4.459,4.459,0,0,0-4.54-3.6,14.26,14.26,0,0,0-4.462.84c0.04-.08.2-0.4,0.319-0.6,0.4-.68,3.306-4.64,3.944-5.52a46.213,46.213,0,0,0,8.329-1.84,1.391,1.391,0,0,0,1.19-1.28c0-.96-1.11-1.56-2.11-1.56a2.572,2.572,0,0,0-.88.16c-0.35.12-3.02,1.08-4.54,1.64a15.666,15.666,0,0,1,1.96-2.47,2.257,2.257,0,0,0,.75-1.44c0-.96-1.99-2.56-3.862-2.56a4.231,4.231,0,0,0-3.028,1.36c1.514,0,2.988.84,2.988,1.56,0,0.6-1.674,3.51-2.112,4.31a31.4,31.4,0,0,1-4.3.44,5.11,5.11,0,0,1-4.223-1.64,2.292,2.292,0,0,0-.119.72c0,0.56.478,3.24,4.223,3.24a21.97,21.97,0,0,0,2.988-.28,30.425,30.425,0,0,1-6.733,8.48,4.065,4.065,0,0,0-.837,2.8c0,1.28.319,1.76,1.355,1.76,0.677,0,1.195-.24,2.828-3.2,0.8-1.4,2.431-3.68,4.821-3.68,2.474,0,2.9,2.04,3.184,4.16-1.989,1.32-7.088,4.92-7.088,8.84,0,4.96,8.248,5.12,10.8,5.12a52.862,52.862,0,0,0,6.05-.4,1.712,1.712,0,0,0,1.36-1.56,2.16,2.16,0,0,0-2.47-2,9.518,9.518,0,0,0-1.44.12,35.43,35.43,0,0,1-6.13.64c-1.16,0-6.336,0-6.336-3.04,0-2.24,3.626-4.96,5.416-6.08,0.04,0.52.04,0.68,0.04,2.24,0,1.72.04,4.28,1.8,4.28,1.55,0,1.55-2.44,1.55-3.72a26.654,26.654,0,0,0-.32-4.36,44.641,44.641,0,0,1,10.6-3.32C1016.19,3890.34,1016.59,3890.14,1016.59,3889.1Zm30.35-11.51c0-.84,0-1.44.04-1.88a1.92,1.92,0,0,0,1.04-1.12,0.816,0.816,0,0,0-.72-0.6l-3.98-1.16a14.774,14.774,0,0,1,.6,2.68c0.08,0.72.12,1.36,0.16,2.08h-2.28l-3.38-1.8a48.635,48.635,0,0,1,.24,7.31c0,1.16,0,2.92-.12,4.04a2.655,2.655,0,0,0-.04.52,1.246,1.246,0,0,0,1.47,1.16,1.492,1.492,0,0,0,1.72-1.6h13.26c-0.04.56-.08,1.28,1,1.28,1.95,0,1.99-1.08,1.99-1.76,0-.2-0.12-2.92-0.12-3.28-0.04-.84-0.04-1.48-0.04-3.88,0.72-.4,1.08-0.64,1.08-1.04a0.927,0.927,0,0,0-.36-0.67l-1.36-1.16a1.129,1.129,0,0,0-.71-0.4,0.906,0.906,0,0,0-.6.4l-0.96.88h-2.63a17.132,17.132,0,0,1,.04-1.84c0.96-.76.96-0.92,0.96-1.08a0.593,0.593,0,0,0-.56-0.64l-3.9-1.08c0.4,1.16.44,1.28,0.55,4.64h-2.39Zm2.55,5.43v3.24h-2.55v-3.24h2.55Zm-0.16-4.48c0.04,0.76.08,2.8,0.12,3.52h-2.47l-0.04-3.52h2.39Zm-7.6,3.52v-3.52h2.39c0.08,1.2.08,2,.08,3.52h-2.47Zm0,4.2v-3.24h2.47v3.24h-2.47Zm13.26-7.72v3.52h-2.75v-3.52h2.75Zm0,4.48v3.24h-2.71l-0.04-3.24h2.75Zm9.36,22.8a19.113,19.113,0,0,1-12.19-3.68c1.6-.44,2.95-0.8,4.27-1.24,0.95-.16,1.47-0.24,1.47-0.68a0.687,0.687,0,0,0-.28-0.44l-2.23-1.68h4.78c0.28,0,.6-0.04.6-0.44a0.77,0.77,0,0,0-.4-0.6l-2.03-1.84a1.648,1.648,0,0,0-.76-0.44,1.011,1.011,0,0,0-.6.52l-1.59,1.84h-15.82a59.125,59.125,0,0,0,.12-6.16h22.23a0.508,0.508,0,0,0,.6-0.44,0.84,0.84,0,0,0-.4-0.6l-2.23-2.2a1.485,1.485,0,0,0-.75-0.44,0.835,0.835,0,0,0-.6.48l-1.76,2.24h-16.17l-4.34-2.16a22.114,22.114,0,0,1,.4,4.84c0,5.44-.32,12.64-4.63,16.96l0.2,0.24a15,15,0,0,0,7.25-11.8h2.87v7.2a15.525,15.525,0,0,1-2.47.28,12.581,12.581,0,0,1-2.19-.24l2.03,4.16a0.609,0.609,0,0,0,.56.44,0.8,0.8,0,0,0,.64-0.72c0.6-.32,1.07-0.56,5.38-2.72,1.39-.72,3.78-2.2,4.46-2.64,1.39,1.72,4.98,5.4,9.2,5.96,1.4-2.4,1.44-2.52,4.42-3.76Zm-18.96-7.72h2.31a15.087,15.087,0,0,0,2.75,5.4c-1.35.4-3.51,0.88-5.06,1.24v-6.64Zm9,0a26.983,26.983,0,0,1-2.78,3.56,13,13,0,0,1-2.99-3.56h5.77Zm-24.82-24.03a24.186,24.186,0,0,1,2.59,4.15c0.36,0.8.8,1.88,2.08,1.88a1.913,1.913,0,0,0,1.83-1.96c0-2.87-3.59-3.91-6.42-4.27Zm-3.66,9.71a14.234,14.234,0,0,1,2.59,3.08c1.15,1.64,1.43,2.04,2.35,2.04a1.744,1.744,0,0,0,1.87-1.92c0-.88-0.6-3.36-6.77-3.48Zm21.15,9.84c-0.43,0-3.26,0-5.65-.24l0.63,1.48a23.2,23.2,0,0,1,4.31-.28h9.84c0.28,0,.59-0.04.59-0.4a0.761,0.761,0,0,0-.39-0.64l-2-1.76a1.545,1.545,0,0,0-.71-0.44c-0.2,0-.24.04-0.64,0.52l-1.51,1.76h-4.47Zm-11.99-10.2c-2.11,5.28-2.39,5.96-5.34,12.12-0.91,1.92-1.43,2.36-3.34,2.44v0.28c2.15,1,2.27,3.52,2.27,4.6,0,0.56-.28,3.16-0.28,3.72,0,2.04,1.31,2.68,1.99,2.68a2.386,2.386,0,0,0,2.11-2.56c0-.88-0.87-5.2-0.87-6.16,0-1.08,1.51-6.12,1.75-7.28,0.32-1.36,1.59-8.2,1.99-9.72Zm70.95,2.28a0.89,0.89,0,0,0-.4-0.6l-1.79-1.68a1.485,1.485,0,0,0-.75-0.44,0.906,0.906,0,0,0-.64.56l-1.2,1.64h-3.82c-1.91,0-3.79-.08-5.7-0.24l0.68,1.48a20.292,20.292,0,0,1,3.62-.28,21.484,21.484,0,0,1-.95,5.28l-3.27-1.88c0.28,2.72.32,3.08,0.32,10.12,0,1.2-.08,6.56-0.08,7.64a1.144,1.144,0,0,0,1.23,1.36c2.04,0,1.92-1.48,1.84-2.36h5.49c0,2.32,0,2.68,1.2,2.68a1.837,1.837,0,0,0,2.07-1.68c0-.44-0.16-5.56-0.2-6.6-0.04-2.4-.08-5.08-0.08-7.08,0.24-.24.8-0.92,0.92-1.08a0.6,0.6,0,0,0,.16-0.44,0.921,0.921,0,0,0-.44-0.6l-1.47-1.2a1.414,1.414,0,0,0-.76-0.4,0.61,0.61,0,0,0-.4.24l-1.19,1.28h-4.67a46.781,46.781,0,0,0,4.23-5.28h5.46A0.472,0.472,0,0,0,1106.02,3885.7Zm-5.42,12.44h-5.49v-5.76h5.49v5.76Zm0,7.2h-5.49v-6.24h5.49v6.24Zm4.79-24.64a0.774,0.774,0,0,0-.32-0.64l-2.55-2.43a1.031,1.031,0,0,0-.52-0.32,0.718,0.718,0,0,0-.4.24l-1.31,1.15h-4.23c0-1.35.04-1.71,0.08-2.27a1.879,1.879,0,0,0,1.12-1c0-.2-0.08-0.32-0.6-0.48l-4.18-1.24a22.279,22.279,0,0,1,.48,4.99h-5.38a5.906,5.906,0,0,0-.56-1.63l-0.16.04a9.2,9.2,0,0,1-1.43,3.19c-1.28,1.52-1.64,1.96-1.64,2.84a1.555,1.555,0,0,0,1.56,1.56c0.63,0,2.51-.8,2.51-3.88a7.386,7.386,0,0,0-.08-1.16h12.43c-0.24,1.64-.36,2.48-0.68,3.92l0.16,0.16c0.8-.44,1.75-1,3.58-2.24a6.773,6.773,0,0,0,1.04.08A0.926,0.926,0,0,0,1105.39,3880.7Zm-24.23-4.43a0.6,0.6,0,0,0-.36-0.56l-3.78-2.2a21.924,21.924,0,0,1-2.19,6.83,10.073,10.073,0,0,0-2.91-1l-0.12.16a9.108,9.108,0,0,1,2.11,3.92c0.48,1.44.68,2.16,1.87,2.16a1.686,1.686,0,0,0,1.72-1.64c0-.52-0.2-2.04-2.23-3.36a25.6,25.6,0,0,0,4.58-3.67C1080.64,3876.83,1081.16,3876.71,1081.16,3876.27Zm10.08,9.23a0.627,0.627,0,0,0-.36-0.56l-3.26-1.44a36.446,36.446,0,0,1-5.5,12.36l0.12,0.12a15.509,15.509,0,0,0,4.14-3.92c0.04,1.84-.12,10.8-0.12,12.84,0,0.4-.08,2.4-0.08,2.84,0,0.52,0,1.2,1.32,1.2a1.374,1.374,0,0,0,1.59-1.52c-0.08-3.4-.12-12.8,0-16.04a6.266,6.266,0,0,0,.8-1,0.682,0.682,0,0,0-.4-0.6l-1.16-.52c0.68-1.08,1.08-1.84,1.68-3C1090.88,3886.1,1091.24,3885.94,1091.24,3885.5Zm-6.89,5.4c0-2.16-2.79-3.8-4.7-4.36l-0.12.2a13.782,13.782,0,0,1,1.31,2.6c-0.47.04-4.38,0.16-4.7,0.2a69.956,69.956,0,0,0,6.74-7.2c0.59-.12,1.11-0.24,1.11-0.64a0.7,0.7,0,0,0-.48-0.6l-3.22-2.2c-0.12.48-.2,0.88-0.44,1.68a44.619,44.619,0,0,1-4.54,8.96c-3.03,0-3.55-.08-4.74-0.4l1.23,3.6a0.807,0.807,0,0,0,.72.68c0.44,0,.55-0.36.71-0.84,0.12-.04,2.55-0.8,3.79-1.24,0,4.4-.04,11.48-0.04,15.88,0,1.32.32,1.6,1.04,1.6,1.63,0,1.99-.72,1.99-1.52,0-2.4-.12-14.28-0.12-16.96a11.832,11.832,0,0,0,1.11-.48c0.04,0.24.28,1.32,0.32,1.56a1.465,1.465,0,0,0,1.4,1.32A1.776,1.776,0,0,0,1084.35,3890.9Zm0.72,10.36c0-1.84-1.56-4.2-4.62-5.64l-0.12.2c0.91,1.44,1.07,3.12,1.19,5.4,0.04,0.4.16,2.2,1.79,2.2A1.876,1.876,0,0,0,1085.07,3901.26Zm-8.13-4.84a0.634,0.634,0,0,0-.52-0.52l-3.62-1.28a33.094,33.094,0,0,1-2.23,11.8l0.15,0.12a22.578,22.578,0,0,0,5.1-9.04A2.258,2.258,0,0,0,1076.94,3896.42Zm71.19-8.4c0-2.48-4.06-4.2-7.01-4.36a11.137,11.137,0,0,1,3.46,3.52c0.92,1.72,1.28,2.32,2.16,2.32A1.422,1.422,0,0,0,1148.13,3888.02Zm-4.66,1.76c0-2.88-4.14-4.08-6.5-4.76a26.085,26.085,0,0,1,3.07,4.16c0.76,1.56,1.08,2.16,2.11,2.16A1.381,1.381,0,0,0,1143.47,3889.78Zm2.63-10c0-1.2-1.87-2.39-3.75-2.39a10.412,10.412,0,0,0-3.06.79c-0.88.28-19.33,4.68-20.6,4.68-1.4,0-2.35-.56-3.19-2.36a4.065,4.065,0,0,0-.88,2.52,3.641,3.641,0,0,0,3.15,3.8c0.56,0,.8-0.08,2.79-1,3.43-1.6,10.76-4.52,12.91-4.32-4.38,3.72-8.05,7.56-8.05,13.72a10.168,10.168,0,0,0,6.14,9.8,20.069,20.069,0,0,0,7.01,1.92c0.76,0,1.99,0,1.99-1.52a2.324,2.324,0,0,0-1.35-2.08,54.307,54.307,0,0,0-5.42-1.4c-5.46-1.68-6.3-5.68-6.3-7.6,0-5.96,4.47-11.2,8.61-12.48a27.419,27.419,0,0,1,7.17-.6C1144.86,3881.26,1146.1,3881.26,1146.1,3879.78Zm37.13,18.16c0-.56,0-1.28-1.6-3.04-2.15-2.4-4.18-4.8-4.86-5.68a40.638,40.638,0,0,0,4.86-2.32,1.8,1.8,0,0,0,1.12-1.36c0-.72-0.92-1.32-2.03-1.32-0.72,0-.88.08-2.16,0.92a25.436,25.436,0,0,1-3.38,1.84,21.3,21.3,0,0,1-2.07-3.88c1.63-.6,5.65-2.24,5.65-3.56,0-.68-0.91-1.28-1.95-1.28-0.64,0-.8.12-2.19,1.16a12.894,12.894,0,0,1-2.35,1.44,11.145,11.145,0,0,1-.6-3.83,2.159,2.159,0,0,0-.44-1.72,5.386,5.386,0,0,0-3.3-.96c-2.99,0-3.47,1.8-3.63,2.4,0.4-.04.6-0.08,0.88-0.08,2.87,0,3.66,1.99,4.1,3.19,0.6,1.56.68,1.76,0.76,1.96a14.393,14.393,0,0,1-5.18.96,7.366,7.366,0,0,1-3.75-.92c0.76,2.8,4.11,3.04,4.71,3.04a23.183,23.183,0,0,0,5.13-1.08c1.16,2.32,1.76,3.36,2.2,4.08a20.923,20.923,0,0,1-7.37,1.52,12.043,12.043,0,0,1-5.22-1.24,5.581,5.581,0,0,0,5.26,3.52,37.6,37.6,0,0,0,8.76-1.72c1.27,1.76,1.79,2.48,3.75,5.2a2.277,2.277,0,0,1,.43,1,0.256,0.256,0,0,1-.32.24c-0.15,0-.31-0.04-0.39-0.04a31.775,31.775,0,0,0-8.49-.92c-2.95,0-8.76.28-8.76,5.8,0,7.16,9.68,7.16,15.33,7.16,0.44,0,2.59,0,2.59-1.84,0-1.28-1.87-1.84-2.98-1.84-0.04,0-2.08.16-2.24,0.2-0.75.08-2.11,0.12-3.06,0.12-1.48,0-7.69,0-7.69-4.4,0-3.8,4.34-3.8,5.34-3.8,3.34,0,9.68,1.48,11.07,2.72,1.56,1.36,1.71,1.52,2.27,1.52C1182.87,3901.1,1183.23,3898.66,1183.23,3897.94Zm39.47-.64c0-3.48-2.35-7.44-9.2-7.44a18.6,18.6,0,0,0-9.04,2.48c0.91-1.68,1.67-2.48,8.4-9.88a13.675,13.675,0,0,1,1.48-1.4c1.31-.96,1.59-1.16,1.59-2.08,0-.84-1.51-2.91-3.11-2.91a3.56,3.56,0,0,0-1.39.4c-0.24.12-5.14,1.67-7.33,1.67-1.16,0-1.72,0-3.11-2.03a4.049,4.049,0,0,0-.56,2.07,3.916,3.916,0,0,0,3.31,3.68,12.42,12.42,0,0,0,1.71-.84,25.448,25.448,0,0,1,5.58-2.4,0.283,0.283,0,0,1,.32.28c0,0.68-1.44,2.68-2.03,3.48-4.19,5.68-8.53,11.4-10.88,13.72-2.19,2.2-2.71,2.76-2.71,3.96a1.83,1.83,0,0,0,1.75,2.04c0.8,0,1.04-.4,2.08-2,3.06-4.8,7.37-8.92,13.26-8.92,4.15,0,6.26,2.92,6.26,5.84,0,3.28-2.51,6.24-4.86,6.72-0.72-2.16-2.71-5.32-6.34-5.32-1.79,0-4.7.88-4.7,3.68,0,3.52,4.3,4.92,8.05,4.92C1218.96,3907.02,1222.7,3901.5,1222.7,3897.3Zm-11.27,7.36a3.6,3.6,0,0,1-1.36.24c-1.11,0-5.22-.92-5.22-3.08a1.841,1.841,0,0,1,1.8-1.68C1207.72,3900.14,1210.35,3901.34,1211.43,3904.66Zm56.05-10.48c0-3.52-2.51-6.96-5.78-8.6a21.219,21.219,0,0,0-5.53-1.8c5.61,3.72,7.05,7.04,7.05,7.48a0.78,0.78,0,0,1-.32.72c-0.2.12-3.67,0.88-4.38,1.08v0.28c0.51,0.08,4.02.48,5.65,1.72,1.36,1,1.52,1.12,2,1.12C1266.84,3896.18,1267.48,3895.5,1267.48,3894.18Zm-13.47-3.04c0-5.24-1.87-6.84-4.98-6.84-0.63,0-1.23.08-1.51,0.08,0.36-.88.92-2.12,1.27-2.76,1.32-2.2,1.44-2.44,1.44-3.12,0-1.07-3.15-3.11-4.34-3.11a6.1,6.1,0,0,0-2.55.76c1.71,0.92,2.75,1.44,2.75,3.15a20.222,20.222,0,0,1-1.52,5.64c-0.83.2-4.82,1.16-5.74,1.36a11.466,11.466,0,0,1-2.47.32c-0.79,0-1.63-.12-2.51-1.88a3.273,3.273,0,0,0-.71,1.96c0,1.8,2.19,3.72,3.34,3.72a4.044,4.044,0,0,0,2.04-.84,41.625,41.625,0,0,1,5.22-2.6,62.374,62.374,0,0,1-7.77,14.08c-1.56,2-1.8,2.28-1.8,3.44,0,1.36.8,2.04,1.52,2.04,1.15,0,1.79-1.16,2.87-3.08,2.47-4.56,5.81-11.8,8.2-17.28a9.436,9.436,0,0,1,1.76-.16c1.31,0,2.82.08,2.82,4.24,0,1.72-.75,7.88-3.1,11.68a1.445,1.445,0,0,1-1.28.76c-0.71,0-4.34-2.32-4.66-2.52v0.12c0.56,0.92.96,1.6,1.75,3.08a4.7,4.7,0,0,1,.8,2.24c0,1.24.04,2.08,1.32,2.08a5.707,5.707,0,0,0,3.7-2.04C1252.78,3902.58,1254.01,3894.34,1254.01,3891.14Zm46.85,6.24c0-3-2.07-7-7.97-7a21.185,21.185,0,0,0-10.19,3.08,27.135,27.135,0,0,1-3.23,1.92c-0.44,0-.48-0.64-0.48-0.88a25.892,25.892,0,0,1,.96-4.96,8.711,8.711,0,0,0,.67-2.68,3.5,3.5,0,0,0-.55-1.8,4.248,4.248,0,0,1-.92-2.24c0-1.56,2.99-1.84,3.94-1.84a10.241,10.241,0,0,1,4.7,1,3.884,3.884,0,0,0,1.84.6c0.87,0,.99-0.92.99-1.52,0-2.68-2.35-3.71-3.62-4.11a13.324,13.324,0,0,1-5.62-2.92,5.05,5.05,0,0,0,1.87,3.92c1.24,0.87,1.36.99,1.36,1.19a0.306,0.306,0,0,1-.08.2c-0.2.12-1.24,0.24-1.48,0.32-5.49,1.44-5.49,3.2-5.49,6.8a50.647,50.647,0,0,1-.92,8.92,9.119,9.119,0,0,0-.28,2.2c0,1.08.68,3.32,2.31,3.32a1.328,1.328,0,0,0,1.16-.76c0.16-.2.79-1.2,0.95-1.44,2.79-3.48,7.01-6.96,11.92-6.96,3.62,0,4.66,3.16,4.66,5.08,0,2.72-1.4,4.56-3.63,6.04a28.883,28.883,0,0,1-11.15,4.16v0.28c0.71,0.04,1.59.12,2.9,0.12C1295.01,3907.42,1300.86,3902.94,1300.86,3897.38Zm-447.28,52.96a0.6,0.6,0,0,0-.159-0.44c-0.12-.12-0.8-0.44-0.917-0.56-0.677-.52-1.434-4.64-1.593-5.56h-0.279c-0.239,1.28-1.076,5.32-1.713,6.08-0.6.72-2.47,0.72-3.984,0.72-1.275,0-1.514,0-1.634-.84-0.079-.4-0.04-11.84,0-12.88h9.044c0.279,0,.6-0.04.6-0.4a0.817,0.817,0,0,0-.4-0.64l-2.43-2.12a1.178,1.178,0,0,0-.717-0.44,0.881,0.881,0,0,0-.6.52l-1.593,2.12h-5.857v-7.72h8.685c0.279,0,.6-0.04.6-0.44a0.89,0.89,0,0,0-.4-0.6l-2.55-2a1.34,1.34,0,0,0-.757-0.44,1.063,1.063,0,0,0-.6.52l-1.354,2h-3.626v-5.39c1.235-.88,1.355-0.96,1.355-1.4a0.558,0.558,0,0,0-.518-0.56l-5.18-1.28c1,2.12,1,2.96,1.036,8.63H833.5a26.759,26.759,0,0,0,1.475-3.32c1.155-.76,1.314-0.83,1.314-1.15a0.727,0.727,0,0,0-.518-0.64l-4.3-1.72v1.64c0,1.27-.8,5.11-3.666,12.83H828a26.756,26.756,0,0,0,4.98-6.68h5.06c0.04,1.16,0,5.16,0,7.72h-5.976c-0.438,0-3.227,0-5.657-.24l0.637,1.48a23.077,23.077,0,0,1,4.3-.28H834.3a19.476,19.476,0,0,1-.677,7.08c-1.634,5.36-4.821,7.92-8.048,10.44v0.24c11.315-3.12,11.873-12.4,12.032-15.32,1-.68,1.076-0.92,1.076-1.2a0.523,0.523,0,0,0-.478-0.56l-2.67-.68h4.542c0,1.8-.08,10.52-0.08,12.52,0,2.12.16,3.12,1.395,3.92,0.956,0.6,1.076.6,6.016,0.6,2.111,0,3.625-.08,5.1-1.64A3.767,3.767,0,0,0,853.58,3950.34ZM827.6,3923.9c0-.91-0.558-3.79-7.49-3.75v0.24c2.191,1.04,3.745,3.79,3.984,4.27a2.018,2.018,0,0,0,1.793,1.28A1.937,1.937,0,0,0,827.6,3923.9Zm-3.745,9c0-3.4-5.5-3.52-7.53-3.56l-0.04.2a11.5,11.5,0,0,1,3.705,3.76,2.452,2.452,0,0,0,1.992,1.52A1.942,1.942,0,0,0,823.859,3932.9Zm3.984-6.04-0.279-.08c-2.111,5.32-5.737,13-6.374,13.96a4.544,4.544,0,0,1-3.706,1.48v0.28c0.8,0.16,3.506,1.36,3.506,5.56,0,0.68-.239,3.72-0.239,4.12,0,0.8.4,2.6,1.992,2.6,0.718,0,2.152-.48,2.152-2.92a15.324,15.324,0,0,0-.6-3.68,32.134,32.134,0,0,1-.8-3.24,24.229,24.229,0,0,1,.837-3.96C826.967,3931.38,827.206,3930.3,827.843,3926.86Zm54.1-2.84c0-2.47-4.422-3.43-6.135-3.79-3.586-.8-5.259-1.12-7.132-3.12a3.532,3.532,0,0,0,.718,2.28c1.115,1.84,2.549,2.6,4.86,3.44a0.893,0.893,0,0,1,.717.51c0,0.4-.239.6-2.271,2.52l0.12,0.08a15.714,15.714,0,0,1,4.422-.84c0.438,0,2.709.32,3.227,0.32A1.287,1.287,0,0,0,881.942,3924.02Zm2.909,14.24c0-2.92-1-8.88-7.211-8.88-2.271,0-3.985.6-7.889,2.88-1.673.96-2.55,1.4-3.386,1.4-1.2,0-1.992-1.32-2.351-1.88a6.151,6.151,0,0,0-.319,1.88,4.749,4.749,0,0,0,4.1,4.68c0.757,0,.916-0.24,2.39-2.24,1.076-1.48,4.024-5.32,7.092-5.32,3.267,0,3.865,4.72,3.865,7,0,5.92-3.228,14-9.722,17.6l0.16,0.24A18.638,18.638,0,0,0,884.851,3938.26Zm48.083-15.35c0-3.08-5.9-3.52-7.769-3.36a17.456,17.456,0,0,1,4.343,3.2c1.593,1.71,1.633,1.75,2.191,1.75A1.409,1.409,0,0,0,932.934,3922.91Zm-3.506,3.23c0-2.92-5.657-3.59-7.45-3.79a20.96,20.96,0,0,1,3.984,3.55c1.315,1.68,1.434,1.8,2.112,1.8A1.447,1.447,0,0,0,929.428,3926.14Zm1.793,7.76c0-1.68-2.988-3.88-6.773-3.88-1.195,0-4.861.36-6.494,1.92,3.825,0.08,6.813.12,6.813,1.28,0,0.32-.08.36-0.837,0.92a29,29,0,0,0-2.908,2.36l0.119,0.16a20.515,20.515,0,0,1,5.618-1.8c0.119,0,2.589.36,3.107,0.36A1.192,1.192,0,0,0,931.221,3933.9Zm-0.319,16.2c0-1.16-1.394-2.04-2.47-2.04a7.852,7.852,0,0,0-1.394.16,28.9,28.9,0,0,1-4.144.28c-6.334,0-7.809-1.48-8.167-6.08a6.493,6.493,0,0,0-1.155,3.68c0,4,4.94,5.88,10.039,5.88,1.235,0,5.3-.12,6.375-0.6A1.5,1.5,0,0,0,930.9,3950.1Zm-11.793-23.44c0-1-1.314-1.68-2.151-1.68a1.949,1.949,0,0,0-1.275.48,10.675,10.675,0,0,1-3.187,1.68c0.2-.48.478-1.08,0.836-1.84a11.275,11.275,0,0,0,1.076-2.43c0-1.48-2.55-3.28-4.422-3.28a4.119,4.119,0,0,0-2.351.76c2.311,1.12,2.789,1.36,2.789,2.75a30.912,30.912,0,0,1-1.076,5.08,25.969,25.969,0,0,1-6.215,1.04,10.364,10.364,0,0,1-3.665-.76,4.25,4.25,0,0,0,4.263,3.2,26.625,26.625,0,0,0,4.741-.68c-2.988,8.76-4.781,11.76-6.574,14.72-1.753,2.92-1.952,3.24-1.952,4a1.926,1.926,0,0,0,1.753,2.04c1.116,0,1.554-.92,1.952-1.76,2.709-5.96,4.741-11.64,7.65-19.64a28.765,28.765,0,0,0,7.211-2.68A1.1,1.1,0,0,0,919.109,3926.66Zm57.247,2.48c0-1.16-1.713-1.84-2.55-1.84a2.16,2.16,0,0,0-.757.12,26.289,26.289,0,0,1-4.383,1.28c-0.079-1.44-.079-2.4-0.079-3,0-.44.119-2.6,0.119-3.07a1.922,1.922,0,0,0-.637-1.72,6.656,6.656,0,0,0-3.745-1.32,3.706,3.706,0,0,0-2.749,1.68,4.862,4.862,0,0,1,3.028,1.32c0.876,1.07,1.075,4.95,1.2,6.67a47.238,47.238,0,0,1-7.211.64,9.779,9.779,0,0,1-2.63-.4c1.554,2.68,4.462,2.96,5.976,2.96a29.459,29.459,0,0,0,3.984-.36c0.04,0.76.08,1.84,0.08,3.52,0,9.6-1.554,14.36-7.609,18.88l0.239,0.28c9.083-3.84,10.478-9.88,10.478-15.4,0-1.56-.08-3.6-0.319-7.76,0.8-.16,4.621-0.8,5.5-1C974.682,3930.58,976.356,3930.26,976.356,3929.14Zm-24.064,5h-0.2c-1.235,3.04-1.952,4.56-2.909,6.68-0.279.6-1,2.24-1.354,2.24-0.717,0-.877-3.48-0.877-4.4a19.917,19.917,0,0,1,1-6.32c0.279-.88,2.072-5.2,2.072-6.28a4.779,4.779,0,0,0-4.9-4.31,5.912,5.912,0,0,1,1.235,3.87c0,1.04-.12,1.6-0.957,6.8a58.969,58.969,0,0,0-.637,8c0,7.44,2.43,9.24,3.745,9.24a1.614,1.614,0,0,0,1.594-1.88c0-.24-0.08-1.36-0.08-1.6C950.021,3944.86,951.854,3936.18,952.292,3934.14Zm66.768-1.12c0-2.48-4.06-4.2-7.01-4.36a11.137,11.137,0,0,1,3.46,3.52c0.92,1.72,1.28,2.32,2.16,2.32A1.422,1.422,0,0,0,1019.06,3933.02Zm-4.66,1.76c0-2.88-4.14-4.08-6.49-4.76a26.588,26.588,0,0,1,3.06,4.16c0.76,1.56,1.08,2.16,2.11,2.16A1.381,1.381,0,0,0,1014.4,3934.78Zm2.63-10c0-1.2-1.87-2.39-3.75-2.39a10.412,10.412,0,0,0-3.06.79c-0.88.28-19.327,4.68-20.6,4.68-1.394,0-2.35-.56-3.187-2.36a4.073,4.073,0,0,0-.877,2.52,3.635,3.635,0,0,0,3.148,3.8c0.558,0,.8-0.08,2.789-1,3.426-1.6,10.759-4.52,12.909-4.32-4.38,3.72-8.049,7.56-8.049,13.72a10.166,10.166,0,0,0,6.139,9.8,20.069,20.069,0,0,0,7.01,1.92c0.76,0,1.99,0,1.99-1.52a2.324,2.324,0,0,0-1.35-2.08,54.307,54.307,0,0,0-5.42-1.4c-5.46-1.68-6.3-5.68-6.3-7.6,0-5.96,4.467-11.2,8.607-12.48a27.419,27.419,0,0,1,7.17-.6C1015.79,3926.26,1017.03,3926.26,1017.03,3924.78Zm27.05,10.84v-4.84h10.71c0.28,0,.6-0.04.6-0.4a0.753,0.753,0,0,0-.4-0.6l-2.15-1.72a1.347,1.347,0,0,0-.76-0.44,0.78,0.78,0,0,0-.59.52l-1.24,1.68h-6.17v-3.88h14.5a0.527,0.527,0,0,0,.64-0.44,1.026,1.026,0,0,0-.4-0.64l-2.31-2.07a1.363,1.363,0,0,0-.76-0.44,0.791,0.791,0,0,0-.6.48l-1.71,2.15h-7.77a61.058,61.058,0,0,0,5.06-3.51c1-.2,1.35-0.28,1.35-0.8a0.773,0.773,0,0,0-.51-0.72l-4.27-2.64a17.813,17.813,0,0,1-2.51,7.67h-12.03c-0.44,0-3.27-.04-5.66-0.24l0.64,1.44a24.3,24.3,0,0,1,4.3-.24h8.65v3.88h-5.74c-0.44,0-3.22,0-5.66-.24l0.64,1.48a23.122,23.122,0,0,1,4.31-.28h6.45v4.84h-9.32c-0.44,0-3.23,0-5.66-.24l0.64,1.48a22.989,22.989,0,0,1,4.3-.28h9.84a7.547,7.547,0,0,1,.12,1.24,17.8,17.8,0,0,1-.6,4.08h-8.96c-0.44,0-3.27,0-5.7-.24l0.68,1.48a22.989,22.989,0,0,1,4.3-.28h9.44c-1.23,4.4-6.61,9.28-13.74,10.68v0.32c6.61-.48,14.1-1.88,17.41-11h0.28a17.506,17.506,0,0,0,14.14,11.4,6.708,6.708,0,0,1,3.71-4v-0.32c-1.04.08-1.44,0.08-1.96,0.08-6.73,0-12.67-3.24-14.94-7.16h15.3a0.482,0.482,0,0,0,.6-0.4,0.907,0.907,0,0,0-.44-0.64l-2.43-1.96a1.229,1.229,0,0,0-.8-0.48,0.956,0.956,0,0,0-.63.52l-1.52,2h-11.03a11.087,11.087,0,0,0,.48-3c0.71-.48.91-0.6,0.91-1a0.855,0.855,0,0,0-.8-0.76l-1.95-.56h18.29c0.28,0,.6-0.04.6-0.4a0.887,0.887,0,0,0-.36-0.64l-2.59-2.24a1.381,1.381,0,0,0-.76-0.48,0.944,0.944,0,0,0-.64.52l-1.79,2.28h-11.03Zm-11.36-17.23a11.571,11.571,0,0,1,3.31,4.24c0.87,1.71,1.15,2.31,2.27,2.31a1.81,1.81,0,0,0,1.79-1.99c0-2.12-2.67-4.32-7.25-4.88Zm69.04,24.31-0.24-.24c-3.23,3-12.95,7.44-18.09,7.44-4.22,0-4.22-2.16-4.22-5.56,0-.36,0-11.28,1.59-18.96a20,20,0,0,0,.56-2.31c0-1.08-2.35-3.12-4.66-3.12a4.872,4.872,0,0,0-3.43,1.32c3.23,0.88,3.63,1.32,3.63,4.07,0,2.68-.48,15.76-0.48,16.92,0,6.36,1,10.4,7.37,10.4C1086.94,3952.66,1096.86,3951.78,1101.76,3942.7Zm41.07-3c0-6.48-6.65-12.08-10.72-11.64a18.706,18.706,0,0,1,4.55,4.52,12.513,12.513,0,0,1,2.15,5.24,1,1,0,0,1-.72,1.04c-0.12.04-3.23,0.2-3.47,0.24v0.2a8.315,8.315,0,0,1,4.07,1.72c1.11,1.32,1.71,1.96,2.39,1.96C1141.96,3942.98,1142.83,3941.54,1142.83,3939.7Zm-16.29-5.8-0.28-.12c-2.03,3.28-4.22,6.4-6.38,9.52a1.731,1.731,0,0,1-.95.84c-0.84,0-3.19-2.56-3.19-6.72a58.938,58.938,0,0,1,.8-6.48,5.225,5.225,0,0,0,.12-0.92c0-3.36-3.59-4.68-5.58-4.8a12.842,12.842,0,0,1,1.63,4.84c0.12,0.76.24,4.6,0.28,5.48,0.64,12,6.81,14,7.89,14a1.558,1.558,0,0,0,1.51-1.76c0-.36-0.39-2.08-0.39-2.44,0-.68,1.91-4.76,2.27-5.64C1126.14,3934.94,1126.34,3934.38,1126.54,3933.9Zm38.16,9.8c0.48-.68,1.04-1.44,1.75-2.52h18.61c0.28,0,.6-0.04.6-0.4a0.858,0.858,0,0,0-.4-0.64l-2.51-2.04a1.3,1.3,0,0,0-.72-0.4,1.014,1.014,0,0,0-.56.44l-1.87,2.08h-12.51l0.44-.72c1.03-.4,1.63-0.88,1.63-1.2a0.671,0.671,0,0,0-.64-0.4l-3.78-.84a13.389,13.389,0,0,1-1,3.16h-6.25c-0.44,0-3.27,0-5.7-.24l0.68,1.48a22.672,22.672,0,0,1,4.3-.28h6.46c-1.84,3.28-6.98,9.48-10.68,11.76l0.2,0.24a22.494,22.494,0,0,0,10.83-7.96,16.1,16.1,0,0,0,4.35,4.16,29.155,29.155,0,0,1-12.23,4.52v0.36c0.63,0.04,1.19.08,2.03,0.08a24.837,24.837,0,0,0,12.51-3.6,27.52,27.52,0,0,0,12.55,3.24,6.2,6.2,0,0,1,2.83-4.04l-0.2-.28a36.505,36.505,0,0,1-6.22.52,26.752,26.752,0,0,1-6.81-.76,41.082,41.082,0,0,0,4.42-3.4c0.36,0,1.91,0,1.91-.68a0.739,0.739,0,0,0-.27-0.6l-1.92-1.84a1.236,1.236,0,0,0-.67-0.4,1.016,1.016,0,0,0-.68.36l-0.92.84h-9.56Zm8.88,0.96a22.583,22.583,0,0,1-4.18,3.76,17.034,17.034,0,0,1-5.46-3.68l0.04-.08h9.6Zm-14.62-14.72v-2.32h9.52a0.508,0.508,0,0,0,.6-0.44,0.854,0.854,0,0,0-.4-0.6l-1.39-.96a1.926,1.926,0,0,0-.76-0.44,0.829,0.829,0,0,0-.63.48l-0.76,1h-6.18v-1.96h9.45a0.486,0.486,0,0,0,.59-0.44,0.881,0.881,0,0,0-.36-0.6l-1.19-1.07a1.184,1.184,0,0,0-.72-0.44,1.071,1.071,0,0,0-.6.48l-0.99,1.11h-6.18v-1.95h11.2c0.28,0,.64-0.04.64-0.4a0.892,0.892,0,0,0-.4-0.64l-1.56-1.48a1.165,1.165,0,0,0-.71-0.44,0.884,0.884,0,0,0-.6.52l-1.04,1.48h-7.33l-3.7-2.12a81.891,81.891,0,0,1,.63,11.23c-1.95-.04-3.02-0.08-4.86-0.24l0.68,1.48a22.751,22.751,0,0,1,4.3-.28h1.28c-0.32,1.24-.4,1.44-1.08,3.56-0.2.04-1.63,0.12-1.87,0.12a10.465,10.465,0,0,1-2.07-.24l1.79,3.68a0.811,0.811,0,0,0,.64.64,1.308,1.308,0,0,0,.68-0.88c0.59-.2.87-0.32,1.23-0.44,6.58-2.12,6.85-2.2,8.45-2.96,0.83,2.2.99,2.64,2.03,2.64a1.5,1.5,0,0,0,1.51-1.64c0-2.56-3.62-3.88-5.22-4.48h6.9c0.28,0,.63-0.04.63-0.4a0.92,0.92,0,0,0-.39-0.64l-1.76-1.48a1.3,1.3,0,0,0-.71-0.44,0.884,0.884,0,0,0-.6.52l-1.16,1.48h-7.53Zm4.47,0.96-0.24.36a9.153,9.153,0,0,1,1.79,2.4c-1.55.2-4.62,0.44-7.33,0.68a29.666,29.666,0,0,0,3.7-3.44h2.08Zm14.9-12.71c-2.43,2.96-6.46,5.15-8.97,6.51v0.28a23.043,23.043,0,0,0,11.16-3.91,1.892,1.892,0,0,0,.55.08c0.2,0,.76-0.08.76-0.44a0.9,0.9,0,0,0-.48-0.64Zm4.02,10.99a5.718,5.718,0,0,1-1.87,2.12,36.84,36.84,0,0,1-11,6.04l0.16,0.36c6.37-.76,9.16-1.96,14.34-4.96a4.655,4.655,0,0,0,1.04.16,0.449,0.449,0,0,0,.44-0.48,0.76,0.76,0,0,0-.36-0.6Zm-2.31-5.84c-0.88,1.56-3.91,4.64-10.2,8.4l0.08,0.36c4.9-1.04,8.05-2.88,11.75-5.44a4.01,4.01,0,0,0,.92.16,0.462,0.462,0,0,0,.56-0.36,0.81,0.81,0,0,0-.28-0.52Zm29.36,24.28a5.88,5.88,0,1,0-5.9,5.92A5.88,5.88,0,0,0,1209.4,3947.62Zm-1.44,0a4.44,4.44,0,1,1-4.46-4.48A4.4,4.4,0,0,1,1207.96,3947.62Z" transform="translate(-815.719 -3871.78)"/>
</svg>
