<?xml version="1.0" encoding="utf-8"?>
<!-- Generator: Adobe Illustrator 25.0.0, SVG Export Plug-In . SVG Version: 6.00 Build 0)  -->
<svg version="1.1" id="sec04_b_02_a" xmlns="http://www.w3.org/2000/svg" xmlns:xlink="http://www.w3.org/1999/xlink" x="0px"
	 y="0px" viewBox="0 0 536 104" style="enable-background:new 0 0 536 104;" xml:space="preserve" width="536" height="104">
	<style type="text/css">
		.st0{fill:#9D1A5B;}
		.st1{fill:#9D1B5B;}
	</style>
	<path id="txt_main" class="st0" d="M17.3,17.7c0-0.4-0.2-0.9-0.6-1.1c-1.2-0.8-2-0.8-4.5-0.8c-3.4,0-6-0.2-8.1-2.3
		c0.1,3.2,4.2,3.8,6.5,4.1c0.1,0,0.3,0.1,0.3,0.2c0,0.3-3,2.3-3.5,2.8l0.1,0.2c4-1.7,4.4-1.8,5.3-2c1-0.2,2-0.2,3.1-0.2
		C17.1,18.6,17.3,17.9,17.3,17.7z M20.1,33.1c0-0.7-1.2-1.3-2.1-1.3c-0.4,0-0.7,0.1-0.8,0.1c-2.3,0.6-4.7,0.9-7.1,0.9
		c-1.6,0-7.6,0-7.6-5.3c0-0.7,0.1-1.3,0.3-2c-0.9,0.9-1.4,2.1-1.4,3.4c0,1.6,0.8,3.1,2.1,4.1c2,1.4,4.2,1.9,8.3,1.9
		c1.4,0,5.6-0.1,7.2-0.7C19.6,34.1,20.1,33.6,20.1,33.1z M48.4,24.6c0-6.1-5.1-9.4-10.7-9.4c-7.1,0-12.3,5.3-12.3,11.6
		c0,1.1,0.3,2.2,0.8,3.1c0.2,0.2,1.4,1.4,1.6,1.7c0.9,1.2,1.1,1.6,1.8,1.6c0.3,0,0.6-0.1,0.9-0.3c2-1.7,4.7-7.7,6.5-11.7
		c0.9-2,1-2.2,1-2.5c-0.2-1.1-1-2-2-2.4c0.4-0.2,0.8-0.3,1.2-0.2c5,0,9,3,9,8.1c0,4.5-2.9,8.7-9.1,10.9l0,0.3
		C43.8,34.9,48.4,30.4,48.4,24.6z M35.7,18.5c0,1.5-1,3.5-3.9,9.5c-0.5,1-1.6,3.2-2.4,3.2c-1.1,0-2.3-2.3-2.3-4.3
		c0-5.6,4.4-9.8,7.6-10.4C35.4,17,35.7,17.7,35.7,18.5z M79,14.6c-0.1-0.2-0.2-0.4-0.3-0.5l-1.9-1.6c-0.1-0.2-0.3-0.3-0.5-0.3
		c-0.2,0-0.4,0.2-0.5,0.4l-1.2,1.6H57.8c-1.5,0-3-0.1-4.4-0.2l0.6,1.2c1.1-0.2,2.3-0.3,3.4-0.3H63c-1.8,5.8-5.2,13.1-10.5,18.2
		l0.1,0.1c2.3-1.1,4.6-3,7.4-7.1c0.1,1.8-0.3,9.6-0.3,11.1c-0.1,0.4,0.2,0.9,0.6,1c0.1,0,0.2,0,0.3,0c1.5,0,1.4-1.1,1.4-2.4h10.9
		c-0.1,1.5-0.1,2.1,0.9,2.1c0.8,0,1.4-0.6,1.4-1.3c0-0.1,0-0.1,0-0.2c0-0.5-0.1-2.7-0.1-3.1c-0.1-2.9-0.1-5.6-0.1-8.2
		c0.5-0.2,0.9-0.6,1-1.1c0-0.2-0.1-0.4-0.3-0.5l-1.3-1.1c-0.1-0.2-0.3-0.3-0.5-0.3c-0.2,0-0.3,0.1-0.4,0.3l-0.7,1H62.2l-0.4-0.3
		c1.5-2.7,2.7-5.5,3.7-8.4h13C78.8,14.9,79,14.9,79,14.6L79,14.6z M72.9,35.1H62.1V24.2h10.9L72.9,35.1L72.9,35.1z M108.9,36
		L108.9,36c-3.3-1.4-5.9-4-7.2-7.4h3.1c0,1-0.1,1.4,0.6,1.4c0.3,0,0.6-0.1,0.9-0.3c0.4-0.1,0.6-0.5,0.6-0.9c0-0.1-0.1-1.2-0.1-1.8
		c0-0.7,0-1.6,0-2.2c0.4-0.1,0.6-0.4,0.7-0.8c0-0.2-0.2-0.4-0.3-0.5l-0.9-0.8c-0.1-0.2-0.3-0.3-0.5-0.3c-0.2,0.1-0.4,0.2-0.5,0.4
		l-0.6,0.7h-2.9c0-0.4,0.1-2.4,0.1-2.8h3c0.2,0,0.4-0.2,0.4-0.4c0,0,0,0,0,0c0-0.2-0.1-0.3-0.3-0.4l-1.1-1c-0.2-0.1-0.3-0.3-0.6-0.3
		c-0.2,0-0.4,0.2-0.4,0.4l-0.6,1h-0.7c-0.4,0-2.5-0.1-4.4-0.3l0.6,1.2c0.7-0.1,1.1-0.1,2.2-0.2c0,0.6,0,1.4,0,2.8h-2.4l-2.1-0.9
		c0.1,1.2,0.1,3.1,0.1,4.3c0,0.7-0.1,1.9-0.1,2.6c0,0.3,0.1,0.6,0.4,0.6c0.1,0,0.1,0,0.2,0c1.1,0,1.4-0.5,1.3-1.5h2.2
		c-0.7,4.1-3.4,7.6-7.3,9.4v0.2c4.8-0.8,8.5-4.6,9.2-9.5c0.5,2.8,2.3,7,5.1,9.1C107,36.9,107.9,36.3,108.9,36L108.9,36z M104.8,27.9
		h-3.4c0.2-1.2,0.2-2.5,0.2-3.7h3.2L104.8,27.9L104.8,27.9z M99.8,24.2c0,1.2-0.1,2.5-0.3,3.7h-2.3v-3.7H99.8L99.8,24.2z M95.2,15.5
		c0-0.2-0.1-0.4-0.3-0.5l-1.4-1.3c-0.1-0.1-0.3-0.3-0.5-0.3c-0.2,0.1-0.3,0.2-0.4,0.4l-0.8,1.3H89c0-0.1,0-1.4,0-1.6
		c0.4-0.1,0.7-0.4,0.8-0.8c0-0.3-0.3-0.4-0.8-0.6l-2.5-0.7c0.3,0.8,0.5,1.6,0.6,2.5c0.1,3.3,0.1,4.4,0.1,5.2h-1.7L83.1,18
		c0.2,1.1,0.3,2.2,0.2,3.3c0,1.4,0,4.5-0.1,11.9c0,0.6-0.1,3.4-0.1,4c0,0.5,0.1,0.8,0.7,0.8c0.1,0,1.2,0,1.3-0.8c0-0.3,0-1.8,0-2.2
		h6.8c0,1,0,1.3,0.6,1.3c0.7,0,1.3-0.5,1.3-1.2c0,0,0-0.1,0-0.1c0-1.4-0.1-8.1-0.1-9.6c0-2.2,0-3.7,0-5.2c0.3-0.2,0.6-0.5,0.7-0.9
		c0-0.2-0.2-0.4-0.4-0.5L93,18.2c-0.1-0.1-0.3-0.1-0.4-0.2c-0.2,0-0.3,0.1-0.4,0.3l-0.6,0.8H89c0-0.5,0-2.8,0-3.3h5.8
		C94.9,15.8,95.2,15.8,95.2,15.5L95.2,15.5z M91.9,34.3H85V19.8h6.8V34.3z M109.2,19l0-0.3c-2.3-0.4-5.2-2.4-7.2-5.5
		c0.1-0.1,0.2-0.2,0.2-0.4c-0.1-0.3-0.3-0.5-0.6-0.6l-2.1-0.9c-0.2,2.5-3.2,7.6-5.6,10.4l0.2,0.2c3.6-2.8,4.9-4.7,7-8.5
		c0.2,0,0.3,0,0.5-0.1c1,2.9,2.8,5.5,5.2,7.4C107.4,19.9,108.2,19.3,109.2,19L109.2,19z M88.4,23c0-1-0.9-1.6-2.2-2l-0.1,0.1
		c0.2,0.5,0.4,1,0.5,1.5c0.1,0.7,0.3,1.3,0.9,1.3C88,23.9,88.4,23.6,88.4,23C88.4,23.1,88.4,23.1,88.4,23L88.4,23z M91.7,27.3
		c-0.2-0.9-0.8-1.6-1.7-1.9l-0.1,0.2c0.2,0.4,0.3,0.9,0.3,1.4c0.1,0.8,0.2,1.3,0.7,1.3C91.5,28.2,91.8,27.8,91.7,27.3
		C91.7,27.3,91.7,27.3,91.7,27.3L91.7,27.3z M91.3,22.4c0-0.3-0.3-0.5-0.6-0.6l-1.6-0.9c0,0.3,0.1,0.5,0.1,0.8
		c-0.1,1.4-0.4,2.8-0.8,4.2c-0.8-0.8-1.6-1.5-2.5-2.1l-0.1,0.1c0.9,1.2,1.6,2.2,2.2,3.2c-0.6,2-1.6,3.9-2.8,5.6l0.1,0.2
		c1.3-1.3,2.5-2.8,3.3-4.5c0.3,0.6,0.5,1.2,0.6,1.8c0.3,1.2,0.6,1.5,1.2,1.5c0.5,0,0.8-0.4,0.8-0.9c0,0,0-0.1,0-0.1
		c0-1.4-1.4-3.1-1.9-3.8c0.6-1.4,1-2.6,1.4-4C91,22.9,91.2,22.7,91.3,22.4L91.3,22.4z M87.3,27.6c-0.1-1-0.9-1.8-1.9-2l-0.1,0.1
		c0.2,0.5,0.4,1.1,0.4,1.7c0.1,1.1,0.5,1.2,0.8,1.2c0.5,0,0.9-0.4,0.9-0.9C87.3,27.7,87.3,27.7,87.3,27.6L87.3,27.6z M89.6,32.6
		c0-1.2-1.3-1.7-2-2l-0.1,0.2c0.3,0.4,0.5,1,0.5,1.5c0.1,1,0.3,1.2,0.8,1.2c0.4,0,0.8-0.3,0.8-0.7C89.6,32.7,89.6,32.7,89.6,32.6
		L89.6,32.6z M127,16.8c0-0.5-1.3-0.9-1.7-0.9c-0.6,0-1.2,0.2-1.8,0.6c-0.7,0.3-1.4,0.6-2.2,0.9c0.3-0.7,0.7-1.3,1.1-1.9
		c0.7-1.1,0.7-1.1,0.7-1.4c0-0.7-1.8-2-2.9-2c-0.5,0-1,0.2-1.4,0.6c1.5,0.4,1.7,1.1,1.7,1.5c-0.3,1.3-0.7,2.6-1.2,3.8
		c-1.1,0.3-2.2,0.5-3.4,0.5c-1.1,0.1-2.2-0.3-2.8-1.2c-0.2,1.8,1.2,2.7,2.9,2.7c0.9,0,1.8-0.1,2.6-0.4c-1.3,3.1-2.9,6-4.8,8.8
		c-0.4,0.5-0.7,1.1-0.7,1.8c-0.1,0.5,0.2,1,0.6,1.1c0.1,0,0.1,0,0.2,0c0.6,0,1.2-1.1,1.9-2.3c0.8-1.3,3.9-8.3,4.7-9.8
		c2-0.5,4-1.1,6-1.8C126.8,17.3,127,17,127,16.8L127,16.8z M134.5,23.9c0-1.4-2.3-4.2-5.9-4.2c-0.6,0-1.3,0.1-1.9,0.3
		c2.9,0.8,4,1.9,4,2.3c0,0.4-0.3,0.4-0.5,0.5c-2,0.4-5.1,1.7-5.1,5c0,0.7,0.1,2.1,0.2,3.1c-0.4,0-0.9-0.1-1.5-0.1
		c-2.8,0-5.4,1.1-5.4,3.4c0,1.8,2.1,3.2,4.5,3.2c1.3,0,2.5-0.4,3.5-1.3c0.7-0.7,1.1-1.7,1.1-2.8c0.8,0.3,1.6,0.7,2.3,1.2
		c0.7,0.6,1.4,1.1,2.2,1.4c0.5,0,0.9-0.5,0.8-1c0,0,0,0,0,0c0-1.9-3.2-3.2-5.5-3.7c-0.3-1.4-0.5-2.8-0.5-4.3c0-1.5,0.4-3.2,3.5-3.2
		c0.9,0,1.8,0.2,2.5,0.8c0.3,0.2,0.7,0.3,1,0.3c0.4,0,0.8-0.3,0.8-0.7C134.6,24,134.6,24,134.5,23.9L134.5,23.9z M125.5,32.6
		c0.1,2.9-2.1,3.1-3.1,3.1c-1,0-2.8-0.3-2.8-1.6c0-1.6,2.7-1.8,3.8-1.8C124.1,32.2,124.8,32.4,125.5,32.6L125.5,32.6z M159,29.2
		c0-2.9-2.3-5.3-5.2-5.3c-0.1,0-0.3,0-0.4,0c-2.7,0.1-5.2,0.9-7.5,2.4c-0.7,0.6-1.5,1.1-2.3,1.6c-0.3,0-0.4-0.5-0.4-0.7
		c0.1-1.3,0.3-2.7,0.6-4c0.1-0.3,0.4-1.5,0.4-1.8c0-0.4-0.1-0.7-0.2-1.1c-0.3-0.6-0.5-1.2-0.6-1.9c0-0.9,0.9-1.6,3.1-1.6
		c1,0,2.1,0.1,3,0.5c0.4,0.3,0.9,0.4,1.3,0.5c0.4,0,0.6-0.3,0.6-1c-0.1-1.3-1-2.4-2.3-2.7c-2.7-1.2-2.9-1.3-4.2-2.3
		c0.1,1.2,0.8,2.2,1.8,2.9c0.3,0.1,0.6,0.4,0.8,0.7c0,0.2-0.1,0.2-0.3,0.2c-5,0.8-5,2.4-5,5.1c0,2.1-0.2,4.2-0.5,6.3
		c-0.2,0.7-0.3,1.4-0.4,2.2c0,0.6,0.5,2.4,1.5,2.4c0.3,0,0.6-0.2,0.7-0.5c2.3-3.7,6-6.1,9.5-6.1c3.5,0,3.6,3.1,3.6,3.9
		c0,2.5-1.7,4-3.8,5.1c-2.1,1.2-4.4,2.1-6.8,2.5v0.1C153.1,37.1,159,34.1,159,29.2L159,29.2z M170.4,35.6c-0.1-1.4-0.8-2.8-2-3.7
		c-1.3-1.1-2.9-1.9-4.6-2.4l-0.1,0.3c1.8,1.5,3.1,3.4,3.8,5.7c0.3,1,0.5,1.8,1.4,1.8C169.9,37.2,170.5,36.4,170.4,35.6L170.4,35.6z
		 M195.2,14.8c0-0.8-2.2-1.5-3.3-1.5c-0.8,0-1.5,0.3-2,0.9c2.6,0.4,2.7,0.6,2.7,5.2c0,6.8-0.3,13.3-6.8,17.6l0.1,0.2
		c2.1-0.5,3.9-1.6,5.2-3.3c1.9-2.2,3.2-4.9,3.4-10.4c0-1.1,0.1-6.3,0.2-6.7C194.7,16.6,195.2,15.1,195.2,14.8L195.2,14.8z
		 M184.8,16.5c0-0.9-2.4-1.6-3.1-1.6c-0.6,0-1.2,0.3-1.7,0.7c2.3,0.6,2.3,0.6,2.3,4.5c0,1.7,0,2.7-0.1,3.2c0,0.3-0.2,1.6-0.2,1.9
		c0,1.2,0.6,2.5,1.3,2.5c0.9,0,0.9-1.7,0.9-2.2s0-3,0-3.5c0-1.5,0-3,0.3-4.5C184.5,17.4,184.8,16.6,184.8,16.5L184.8,16.5z
		 M210.2,18.8c0-2.5-4.1-3.8-7.6-3.6c1.8,0.8,3.4,1.9,4.7,3.4c0.9,1,1.3,1.4,1.8,1.4C209.7,19.9,210.2,19.4,210.2,18.8L210.2,18.8z
		 M221.9,17.8l-0.1-0.1c-2.7,3.4-5.8,6.4-9.2,9.1c-1.3,1-5.7,4.4-6.7,4.4c-0.6,0-1.4-0.6-2.1-1.9c-0.2,0.4-0.3,0.8-0.3,1.3
		c0,1.4,1.9,3.9,2.9,3.9c0.2,0,0.4,0,0.5-0.2c0.1-0.1,0.8-0.9,0.9-1c0.5-0.5,3.2-2.6,3.8-3C218,25.1,221.3,20,221.9,17.8L221.9,17.8z
		 M245.8,33.5c0-2.9-4.8-6.4-8.3-8c1.5-2.1,2.8-4.3,3.9-6.6c0.1-0.4,0.3-0.7,0.6-0.9c0.9-0.4,1.1-0.4,1.1-0.7c0-0.6-2.1-2.4-2.5-2.4
		c-0.5,0.2-0.9,0.5-1.3,0.8c-1.2,0.7-7.5,1.3-8.3,1.3c-0.6,0-1.1,0-2.2-1.8c-0.2,0.4-0.3,0.8-0.3,1.3c0.1,1.3,0.9,2.4,2,3
		c0.5-0.2,1.1-0.4,1.6-0.7c2.5-0.7,5-1.3,7.5-1.7c-1.6,5.6-8.7,14.7-15.4,17.7l0,0.3c2.7-0.6,7.7-2.5,12.8-9.2c2.6,2,4.2,3.9,6.5,7.9
		c0.2,0.5,0.6,0.9,1.2,1c0.6-0.1,1.1-0.6,1-1.3C245.8,33.6,245.8,33.5,245.8,33.5L245.8,33.5z M256.5,24.7c0-1.1-0.9-2-2-2.1
		c-1.2,0-2.1,0.9-2.2,2c0,1.2,0.9,2.1,2,2.2C255.5,26.9,256.4,26,256.5,24.7C256.5,24.8,256.5,24.8,256.5,24.7L256.5,24.7z M283.5,19
		c0-0.6-2.1-2.4-2.4-2.4c-0.5,0.2-1,0.5-1.4,0.8c-0.8,0.3-9.8,1-11.2,1c-1.4-0.1-2.7-0.9-3.3-2.1c-0.1,0.3-0.1,0.7-0.1,1
		c0,1.5,1.6,3.5,2.6,3.5c0.4-0.1,0.9-0.3,1.3-0.5c3.6-0.7,7.2-1.1,10.8-1.3c0.3,0,0.4,0.1,0.4,0.3c0,1.2-0.5,4.5-1.4,10.6
		c-8.4,0.7-9.6,0.8-10.6,0.8c-1.6,0-2.7-1.5-3.1-1.9c-0.1,0.3-0.2,0.7-0.2,1c0,1.1,1.5,3.3,2.4,3.3c0.5-0.1,1-0.3,1.5-0.5
		c2.6-0.6,5.4-0.9,8.1-0.9c0.5,0,2.9,0.1,3.4,0.1c0.8,0,1.6,0,1.6-0.8c-0.1-0.7-0.7-1.1-1.4-1.2c0.9-5.6,1.2-7.1,1.6-9.1
		c0.1-0.4,0.3-0.8,0.6-1C283.3,19.5,283.5,19.4,283.5,19L283.5,19z M297.7,18.8c0-2.5-4.1-3.8-7.6-3.6c1.8,0.8,3.4,1.9,4.7,3.4
		c0.9,1,1.3,1.4,1.8,1.4C297.2,19.9,297.7,19.4,297.7,18.8L297.7,18.8z M309.4,17.8l-0.1-0.1c-2.7,3.4-5.8,6.4-9.2,9.1
		c-1.2,1-5.7,4.4-6.7,4.4c-0.6,0-1.5-0.6-2.1-1.9c-0.2,0.4-0.3,0.8-0.3,1.3c0,1.4,1.9,3.9,2.9,3.9c0.2,0,0.4,0,0.5-0.2
		c0.1-0.1,0.8-0.9,0.9-1c0.5-0.5,3.2-2.6,3.8-3C305.5,25.1,308.7,20,309.4,17.8L309.4,17.8z M336.7,18.8c0-2.3-3.7-2.7-4.8-2.7
		c1,0.7,2,1.5,2.7,2.5c0.9,1.1,1,1.2,1.4,1.2C336.5,19.6,336.8,19.2,336.7,18.8L336.7,18.8z M330.9,15.9c0-0.9-1.9-1.3-2.4-1.3
		c-0.4,0.1-0.8,0.2-1.2,0.4c-2,0.4-4,0.7-6.1,0.7c-1.1,0.1-2.1-0.3-2.9-1.1c-0.1,0.2-0.1,0.3-0.1,0.5c0.1,1.2,1,2.2,2.2,2.3
		c0.6,0,1.1,0,1.7-0.1c2.2-0.3,4.4-0.5,6.6-0.5C330,16.8,330.9,16.8,330.9,15.9L330.9,15.9z M338.9,16.8c0-2.4-4-2.7-5-2.8
		c1.1,0.6,2.1,1.5,2.9,2.5c1.1,1.2,1.2,1.3,1.5,1.3C338.7,17.7,339,17.2,338.9,16.8L338.9,16.8z M335.7,22.1c0-1.2-3-2-3.1-2
		c-0.3,0-0.7,0.1-1,0.3c-0.6,0.2-3.1,0.4-4.8,0.6c-1.6,0.1-9.4,1.1-10,1.1c-1.4,0-2-0.8-2.8-2.1c-0.1,0.4-0.2,0.7-0.2,1.1
		c0,1.5,1,2.9,2.5,3.3c0.5-0.1,0.9-0.3,1.3-0.5c1.9-0.6,3.9-1,5.9-1.2c0.4,0.4,0.6,0.9,0.5,1.5c0,1.5-2.3,9.1-7.2,12.7l0,0.2
		c4.1-1.5,6.3-4.9,7.7-8.2c0.5-1.1,1.2-3.1,1.5-3.9c0.3-0.4,0.5-0.8,0.7-1.2c0-0.1-0.1-0.2-0.2-0.3c-0.1-0.1-1-0.9-1.3-1.1
		c0.5,0,2.1-0.2,3.8-0.2c1.2,0,2.4,0.1,3.7,0.3c0.6,0.2,1.3,0.3,1.9,0.3C335.3,23,335.7,22.7,335.7,22.1
		C335.7,22.2,335.7,22.2,335.7,22.1L335.7,22.1z M351.9,18.9c-0.6-1.2-1.8-2.1-3.1-2.2c-0.3,0-0.6,0.1-0.9,0.2c1,0.6,1.4,0.8,1.4,1.3
		c0,1.3-6.7,8.8-11.7,11.7l0.1,0.3c3.4-1.1,7.1-4.3,8.3-5.5c0.3,0.9,0.3,1.9,0.3,2.9c0,1.7-0.1,4.4-0.3,6.2c0,0.2-0.2,1.2-0.2,1.5
		c0,0.6,0.4,1.7,1.1,1.7c0.8,0,0.8-1,0.8-1.3c0-0.9-0.1-5.1-0.1-6c0-1.3,0-2.7,0.1-4c0.1-0.3,0.1-0.6,0.2-0.9c0-0.3-0.1-0.3-1-1
		c0.6-0.6,3.4-3.9,4.3-4.3C351.6,19.5,351.8,19.2,351.9,18.9L351.9,18.9z M365.9,16.9c0-1.3-1.7-3.1-5.4-3.1c-0.6,0-1.2,0.1-1.8,0.2
		c2,0.7,3.8,1.9,5.3,3.4c0.3,0.3,0.6,0.5,1,0.6c0.5,0,0.9-0.5,0.9-1C366,17,365.9,16.9,365.9,16.9L365.9,16.9z M377,19.2l-0.2-0.1
		c-4.7,6.2-13.8,13.7-15.6,13.7c-0.9-0.4-1.7-0.9-2.3-1.7c-0.1,0.2-0.1,0.4-0.1,0.6c0,2.4,2.2,4.1,2.8,4.1c0.3,0,0.6-0.2,0.8-0.5
		c0.6-0.6,1.3-1.2,2-1.7C372.7,27.4,376,21.7,377,19.2L377,19.2z M363.5,23.4c0-1.4-1.7-2.8-5.2-2.8c-0.8,0-1.7,0.1-2.5,0.2
		c2,0.7,3.9,1.7,5.5,3c0.4,0.4,0.9,0.6,1.4,0.7c0.5-0.1,0.9-0.5,0.8-1C363.5,23.5,363.5,23.5,363.5,23.4L363.5,23.4z M394.3,21.8
		c-0.5-0.9-1.2-1.6-2.1-2.1c-0.1,0-0.2,0.1-0.3,0.2c-0.1,0.1-0.5,0.4-0.5,0.5c-0.6,0.5-6.9,0.8-7.5,0.8c-1.6,0-1.9,0-2.8-1.5
		c-0.1,0.4-0.1,0.7-0.2,1.1c0,0.7,0.9,2.3,1.5,2.3c0.2,0,1.1-0.3,1.3-0.3c1.2-0.3,6.5-0.8,7.9-0.9c0,1.6-0.1,1.9-0.2,4.3
		c-1.3,0.1-8.2,0.7-8.5,0.7c-0.4,0-1-0.1-1.9-1.3c-0.3,1.3,0.4,2.7,1.7,3.2c0.4-0.1,0.8-0.3,1.2-0.5c2.5-0.4,5-0.6,7.5-0.7
		c-0.1,0.9-0.2,3.1-0.3,4.7c-1.6,0.1-6.8,0.6-8.1,0.6c-0.9,0-1.8-0.6-2.1-1.5c-0.1,0.3-0.2,0.6-0.2,0.9c0,0.9,1.3,2.7,1.9,2.7
		c0.2,0,1.1-0.6,1.3-0.6c0.6-0.2,3.8-0.6,6.7-0.9c0.2,1,0.4,1.7,1.1,1.7c0.2,0,0.8-0.1,1-1.4c0.3-1.5,0.5-8.6,0.6-10.2
		c0.1-0.9,0.1-0.9,0.3-1.1C394.2,22,394.3,22,394.3,21.8L394.3,21.8z M422.7,21.7c0-1.3-2.8-1.7-2.9-1.7c-0.2,0-1.5,0.4-1.8,0.4
		c-0.1,0.1-4.5,0.3-5.1,0.3c0-0.3,0-0.6,0-1.3c0-1.1,0.1-2.1,0.2-3.2c0.2-0.4,0.4-0.8,0.5-1.3c0-0.9-2-1.8-3.2-1.8
		c-0.7,0-1.4,0.3-1.9,0.8c1.4,0.4,2.1,0.7,2.3,1.5c0.2,1.8,0.3,3.6,0.2,5.5c-0.8,0.1-4.8,0.5-5.7,0.6c-1.4,0.1-1.5,0.1-2,0.1
		c-1.3,0-2.4-0.8-3-1.9c-0.1,0.3-0.1,0.6-0.1,0.9c0.1,1.7,1.2,3.2,2.9,3.6c0.4,0,0.7-0.2,1-0.5c1.2-0.7,5.1-1.3,6.8-1.4
		c-0.4,6.4-2,11.4-7,15l0.1,0.2c4.8-1.4,7.2-5.8,7.9-8.5c0.6-2.3,0.9-4.6,1-7c0.7,0,1.6-0.1,3.2-0.1c0.9,0,1.8,0,2.7,0.2
		c0.3,0,2.7,0.4,2.9,0.4c0.5,0.1,1-0.2,1.1-0.6C422.7,21.9,422.7,21.8,422.7,21.7L422.7,21.7z M450.1,24.8c0-1.2-2.9-1.5-3.1-1.5
		c-0.4,0.1-0.8,0.2-1.2,0.3c-1.3,0.3-10.7,0.3-12.7,0.3c-3,0-3.9,0-4.9-2.3c-0.2,0.5-0.3,1-0.3,1.5c0,1.4,1.6,3.3,2.3,3.3
		c0.1,0,1-0.3,1.1-0.3c1.3-0.4,3.9-0.5,12.7-0.5c1.1,0,2.2,0,3.3,0.1h1C448.7,25.7,450.1,25.7,450.1,24.8L450.1,24.8z M478.4,29
		c0-2.8-5.2-7.1-9.6-8l-0.1,0.2c2.8,1.5,5.3,5.1,6.1,6.6c1.2,2,1.5,2.5,2.4,2.5c0.6,0,1.1-0.5,1.1-1.1
		C478.5,29.1,478.5,29.1,478.4,29L478.4,29z M479,14.5c0-0.2-0.1-0.3-0.3-0.4l-1.9-1.6c-0.2-0.2-0.4-0.3-0.7-0.3
		c-0.2,0-0.4,0.1-0.5,0.3l-1.3,1.6h-16.8c-1.5,0-3-0.1-4.5-0.2l0.6,1.2c1.1-0.2,2.3-0.3,3.4-0.3h8.2c-0.6,1.9-1.5,3.7-2.7,5.3
		c-2.9,4.5-6.4,8.6-10.2,12.2l0.1,0.2c5.7-2.9,9.9-8.6,11.7-10.9c0.1,1.5,0.1,2.3,0.1,4.6c0,3.3-0.1,7.9-0.2,10.7c0,0.7,0,0.8,0,0.8
		c-0.1,0.5,0.1,0.9,0.6,1.1c0.1,0,0.2,0,0.3,0c0.8,0,1.4-0.6,1.5-1.4c0-0.4-0.1-2.1-0.1-2.4c-0.1-1.5-0.1-3.6-0.1-7.5
		c0-3,0-3.8,0.1-5.4c0.5-0.1,0.8-0.5,1-1c0-0.2-0.2-0.5-0.5-0.5l-1.7-0.6c1.2-1.7,1.7-2.7,2.1-3.3c0.7,0,1.2-0.2,1.2-0.5
		c0-0.2-0.2-0.5-0.3-0.6l-1-0.9h11.4C478.8,14.8,479,14.8,479,14.5L479,14.5z M501.6,22.7c0,0.6,0.1,1.2,0.7,1.2
		c0.7,0,1.4-0.6,1.4-1.3c0-0.6-0.1-3.5-0.1-4.2c0.8-0.4,1-0.5,1-0.8c0-0.2-0.1-0.3-0.2-0.4l-1.3-1.1c-0.1-0.1-0.3-0.2-0.5-0.2
		c-0.2,0-0.3,0.1-0.4,0.2l-0.7,0.9h-4V14h8.8c0.2,0,0.4,0,0.4-0.3c0-0.2-0.1-0.4-0.3-0.5l-1.6-1.5c-0.2-0.1-0.3-0.2-0.5-0.3
		c-0.2,0.1-0.4,0.2-0.5,0.4l-1.1,1.5h-16.2c-0.9,0-2.6-0.1-4.4-0.2l0.5,1.2c1.1-0.2,2.3-0.3,3.4-0.3h4v3.1h-3.6l-2.4-1.2
		c0.2,1.2,0.3,2.5,0.2,3.7c0,0.7,0,2.2-0.1,3.4c0,0-0.1,0.6-0.1,0.8c-0.1,0.3,0.2,0.7,0.5,0.7c0.1,0,0.2,0,0.2,0c1.6,0,1.5-1,1.5-1.7
		h6c-0.4,1.3-0.5,1.6-2.3,4.5h-4.3c-0.9,0-2.7-0.1-4.5-0.2l0.6,1.2c1.1-0.2,2.3-0.3,3.4-0.3h4.3c-0.9,1.4-1.6,2.6-2.9,4.3
		c-0.2,0.2-0.3,0.5-0.3,0.8c0.3,0.7,1,1,1.7,0.7c0.1,0,0.2-0.1,0.3-0.2c0.1-0.2,0.8-1.3,0.9-1.6c1.4,0.2,2.8,0.6,4.2,1
		c-3.7,3.1-8.7,4.5-11.7,5v0.2c5,0.3,9.9-1.3,13.7-4.5c2.1,0.9,4.1,2,6,3.4c1,0.9,1.4,1.2,2,1.2c0.6,0,1.2-0.4,1.2-1.1c0,0,0,0,0,0
		c-0.1-0.9-0.7-1.6-1.5-2c-2.1-1.1-4.3-1.9-6.6-2.5c1-1,1.8-2.1,2.5-3.4c0.7,0,1.1-0.1,1.1-0.5c0-0.1-0.1-0.2-0.2-0.3l-0.7-0.5h7.6
		c0.2,0,0.4,0,0.4-0.3c0-0.2-0.1-0.4-0.3-0.5l-1.6-1.5c-0.1-0.2-0.3-0.3-0.5-0.3c-0.2,0.1-0.4,0.2-0.5,0.4l-1.2,1.5h-11
		c0.2-0.4,1.4-2.2,1.7-2.7c0.8,0,1.1-0.1,1.1-0.4c0-0.2-0.1-0.4-0.3-0.5l-1.5-0.9L501.6,22.7L501.6,22.7z M492,22v-4.2h3.5V22H492z
		 M497.5,22v-4.2h4.1V22H497.5z M486.3,22v-4.2h3.7V22H486.3z M495.5,14v3.1H492V14H495.5z M497.5,27.9c-0.7,1.5-1.7,2.9-3,4.1
		c-1.6-0.3-3.3-0.4-4.9-0.4c0.7-1.1,1.5-2.5,2.3-3.7L497.5,27.9L497.5,27.9z M534.6,22c0-2-3.2-3.2-5.1-3.4c1.1,0.8,2.1,1.8,3,2.9
		c0.8,1.3,0.9,1.4,1.4,1.4C534.2,22.9,534.6,22.6,534.6,22C534.6,22.1,534.6,22.1,534.6,22L534.6,22z M531.2,23.3
		c0-1.9-2.8-3.3-4.8-3.7c1,1,1.9,2.1,2.7,3.3c0.7,1.3,0.8,1.4,1.3,1.4c0.5,0,0.8-0.4,0.8-0.9C531.2,23.4,531.2,23.4,531.2,23.3
		L531.2,23.3z M532.9,15.8c0-1-1.9-1.6-2.3-1.6c-0.3,0-0.6,0.1-0.9,0.2c-3.4,0.9-9,2.1-12.5,3c-1.4,0.4-2.8,0.7-4.3,0.9
		c-1.3,0-1.7-0.7-2.3-1.6c-0.3,0.4-0.4,1-0.4,1.5c-0.1,1.3,0.8,2.5,2.1,2.7c0.5,0,0.6-0.1,1.9-0.8c3.3-1.4,6.7-2.5,10.3-3.3
		c-2.5,2.1-3.2,2.7-4,3.8c-1.5,1.9-2.4,4.2-2.4,6.7c0,6.6,6.7,8.9,9.7,8.9c0.5,0.1,1-0.2,1.1-0.7c0,0,0,0,0-0.1
		c-0.1-0.9-0.8-1.6-1.6-1.7c-2.6-0.6-7.7-1.8-7.7-6.8c0.1-3.6,1.9-6.9,4.9-8.9c1.9-1.2,3-1.2,6.7-1.2C532,16.8,532.9,16.8,532.9,15.8
		L532.9,15.8z"/>
	<path id="txt_copy" class="st1" d="M131,59.9c-0.1-0.3-0.2-0.5-0.4-0.7l-1.7-1.6c-0.2-0.2-0.5-0.3-0.7-0.4c-0.3,0.1-0.5,0.3-0.7,0.5
		l-1.3,1.6h-7.3c-2,0-4.1-0.1-6.1-0.3l0.8,1.6c1.7-0.3,3.5-0.4,5.2-0.4c-0.2,1.8-0.5,3.5-1,5.2h-1.6l-3.3-1.8
		c0.3,1.9,0.5,3.9,0.4,5.9c0,8.6-0.2,12.8-0.2,13.8c0,0.2-0.1,1-0.1,1.2c0,0.5,0.4,1,0.9,1c0.1,0,0.2,0,0.2,0
		c0.9,0.1,1.8-0.7,1.8-1.6c0,0,0-0.1,0-0.1h8.9c-0.1,0.9,0,1.5,0.9,1.5c0.2,0,2-0.1,2-1.6c0-0.3-0.2-7.3-0.2-7.7v-8.9
		c0.5-0.3,1-0.8,1.2-1.4c0-0.3-0.2-0.6-0.4-0.7l-1.2-0.9c-0.3-0.2-0.6-0.4-0.9-0.5c-0.3,0.1-0.6,0.3-0.7,0.5l-1.1,1.2h-5.9
		c1.4-1.6,2.7-3.3,3.8-5.2h8.1C130.7,60.2,131,60.2,131,59.9z M124.9,76.8h-9V72h9V76.8z M124.9,71.1h-9v-4.8h9V71.1z M124.9,82.9h-9
		v-5.1h9V82.9z M111.1,66c0-0.2-0.2-0.5-0.4-0.6l-1.1-0.9c-0.2-0.2-0.5-0.3-0.7-0.3c-0.3,0-0.5,0.2-0.7,0.4l-0.8,0.9h-6.5l-3.2-1.8
		c0.2,2.2,0.2,5.8,0.2,8c0,0.7-0.2,4.1-0.2,4.9c-0.1,0.5,0.3,0.9,0.8,1c0.1,0,0.2,0,0.2,0c2,0,1.9-1.2,1.8-2.2h7c0,0.9-0.1,1.5,1,1.5
		c0.8,0.1,1.6-0.4,1.8-1.3c0,0,0-0.1,0-0.1c0-0.6-0.2-3.6-0.2-4.3c0-1,0-3.3,0-4.2C110.6,66.9,110.9,66.5,111.1,66L111.1,66z
		 M107.5,74.5h-7v-8.1h7V74.5z M112,60.1c0-0.2-0.2-0.5-0.4-0.6l-1.7-1.5c-0.2-0.2-0.4-0.4-0.7-0.5c-0.3,0.1-0.5,0.3-0.6,0.5
		l-1.1,1.5H102c-1.1,0-3.5,0-6-0.2l0.7,1.5c1.5-0.2,3.1-0.3,4.7-0.3h10.1C111.8,60.5,112,60.4,112,60.1z M130.7,90.9
		c0-3-6.4-5.2-8.7-5.4l-0.1,0.2c1.8,1.3,3.5,2.9,4.9,4.7c1.5,1.9,1.6,2.1,2.3,2.1C130,92.5,130.7,91.8,130.7,90.9
		C130.7,90.9,130.7,90.9,130.7,90.9L130.7,90.9z M119.4,87.7c0-0.3-0.2-0.5-0.4-0.6l-2.9-2.4c-1.8,3.1-7.6,6.6-10.6,7.6l0,0.3
		c4.7-0.3,9.3-2.8,12.1-4.5C118.6,88.3,119.4,88.1,119.4,87.7L119.4,87.7z M111.9,84.5l-0.1-0.3c-1.3,0.5-2.9,1-6.8,2.1
		c0.9-1.2,3-4.3,3.9-5.8c1.3-0.5,1.4-0.8,1.4-1.2c-0.1-0.3-0.2-0.5-0.5-0.6l-3.7-1.4c0,0.3,0.1,0.6,0.1,0.9c0,2.2-1.5,7.1-2,8.3
		c-2.5,0.7-5.1,1.2-7.7,1.5c-0.6,0-1.1,0-1.7-0.1l2.2,3.7c0.1,0.2,0.3,0.4,0.5,0.4c0.4,0,0.6-0.4,0.6-1.1
		C100.2,90.2,108.3,87.1,111.9,84.5L111.9,84.5z M102.8,84c0-2.6-2.9-4.6-4.3-5.4l-0.3,0.1c0.7,1.3,1.1,2.7,1.3,4.2
		c0.4,2.6,0.5,3.1,1.7,3.1C102.3,86,102.8,85.1,102.8,84L102.8,84z M173.3,88.9v-0.4c-2.8,0.1-5.7-0.2-8.4-0.8
		c-2.5-0.5-4.8-1.4-7-2.7c2.7-2.6,4.9-5.7,6.5-9.2c1.9-0.6,2.1-0.8,2.1-1.2c0-0.3-0.2-0.5-0.4-0.7l-2.1-1.9c-0.2-0.2-0.4-0.3-0.6-0.4
		c-0.2,0.1-0.5,0.3-0.6,0.5l-1.2,1h-5.1v-8.9h8.5c-0.8,1.9-1.8,3.8-2.9,5.6l0.2,0.2c0.6-0.4,3.6-2.5,5.1-3.3c2.6-0.1,3-0.4,3-1
		c0-0.3-0.1-0.6-0.4-0.8l-2.6-2.4c-0.2-0.2-0.4-0.4-0.7-0.5c-0.3,0-0.5,0.2-0.7,0.4l-1.3,0.9h-8.4v-4.1c0.6-0.2,1.1-0.6,1.4-1.2
		c0-0.3-0.3-0.6-0.7-0.6l-4.4-1.4c0.6,1.8,0.6,2.3,0.8,7.3H145l-4-1.9c0.6,3.7,0.9,7.4,0.8,11.1c0,3.8,0,12.1-5.2,19.3l0.2,0.1
		c7.6-5.9,7.7-14.3,7.8-17.9c0.1-4.3,0.1-9.1,0.1-9.9h8.9c0,1,0.1,6.5,0,8.9h-2.4c-0.5,0-3.4-0.1-6.1-0.3l0.8,1.6
		c0.8-0.2,1.5-0.3,2.3-0.3c1.1,4,3.3,7.7,6.2,10.7c-3.9,3.4-8.3,6.1-13.2,7.8v0.2c5.5-0.5,10.7-2.7,15-6.3c3.9,3.1,8.6,5.2,13.6,6
		C170.4,91,171.7,89.6,173.3,88.9L173.3,88.9z M161.4,74.1c-1.1,3.6-3,6.8-5.6,9.5c-3-2.5-5.4-5.7-6.8-9.4c0.5-0.1,1.1-0.1,1.7-0.1
		H161.4z M207.6,86.3c0-3.8-6.5-8.6-11.3-10.6c2-2.7,3.8-5.7,5.2-8.8c0.5-0.9,0.6-1,0.8-1.1c1.3-0.5,1.5-0.6,1.5-1
		c0-0.7-2.9-3.2-3.3-3.2c-0.7,0.3-1.3,0.6-1.8,1.1c-1.6,1-10.2,1.8-11.3,1.8c-0.8,0-1.5,0-3-2.4c-0.3,0.5-0.4,1.1-0.4,1.7
		c0,2.1,2.2,4,2.8,4c0.3,0,1.8-0.8,2.1-0.9c2.1-0.9,8.7-2.1,10.2-2.3c-2.2,7.4-11.8,19.5-20.9,23.6l0,0.3c3.7-0.7,10.4-3.2,17.4-12.1
		c3.5,2.6,5.7,5.3,8.8,10.5c0.3,0.7,0.9,1.1,1.6,1.2C207.1,88.1,207.6,87.3,207.6,86.3L207.6,86.3z M236.2,77.6c0-1-0.4-2-1.2-2.7
		c-3-2.3-6.5-3.8-10.2-4.3c0-2,0.1-6.6,0.6-8.1c0.2-0.7,0.4-1.3,0.5-2c0-1.3-3.9-2.1-4.4-2.1c-0.9,0.1-1.8,0.4-2.6,0.9
		c2.1,0.8,2.9,1.2,3.2,2c0.3,1.3,0.4,9.3,0.4,10.9c0.1,4.3-0.1,8.6-0.5,12.8c-0.2,0.9-0.2,1.7-0.3,2.6c0,1.1,0.5,3.4,1.9,3.4
		c1.5,0,1.5-2.4,1.5-3.2c0-0.9-0.2-5.5-0.2-6.6c0-1.4,0-8.3,0-9.9c2.7,1,4.8,2.5,8.4,6.5c0.4,0.6,1,1,1.7,1.2c0.7,0,1.3-0.6,1.3-1.4
		C236.2,77.7,236.2,77.6,236.2,77.6L236.2,77.6z M274.6,69.8l-0.3-0.2c-6.7,7.1-15.8,12.7-20.7,14.4c-0.1-3.7,0.3-17.2,0.6-19.1
		c0.3-0.7,0.5-1.4,0.7-2.2c0-1-3.3-2.2-4.5-2.2c-1,0.1-2,0.6-2.8,1.2c2.2,0.6,3,0.9,3.2,1.6c0.3,0.9,0.3,8.3,0.3,9.8
		c0,2.1,0,9-0.3,10.2c-0.3,0.6-0.5,1.2-0.7,1.8c0,0.3,1.8,3.8,2.8,3.8c0.3,0,0.5-0.1,0.7-0.3c0.5-0.6,1.1-1.2,1.8-1.6
		C263.7,82.2,269,79.1,274.6,69.8L274.6,69.8z M307.3,86.3c0-3.8-6.5-8.6-11.3-10.6c2-2.7,3.8-5.7,5.2-8.8c0.5-0.9,0.5-1,0.8-1.1
		c1.3-0.5,1.5-0.6,1.5-1c0-0.7-2.9-3.2-3.4-3.2c-0.7,0.3-1.3,0.6-1.8,1.1c-1.6,1-10.2,1.8-11.3,1.8c-0.8,0-1.5,0-3-2.4
		c-0.3,0.5-0.4,1.1-0.4,1.7c0,2.1,2.2,4,2.8,4c0.7-0.3,1.4-0.6,2.1-0.9c2.1-0.9,8.7-2.1,10.2-2.3c-2.2,7.4-11.8,19.5-20.9,23.6l0,0.3
		c3.7-0.7,10.4-3.2,17.4-12.1c3.5,2.6,5.7,5.3,8.8,10.5c0.3,0.7,0.9,1.1,1.6,1.2C306.8,88.1,307.3,87.3,307.3,86.3L307.3,86.3z
		 M341.3,66c0-0.7-2.9-3.3-3.4-3.3c-0.5,0.3-1,0.6-1.5,0.9c-1.2,0.5-15.9,1.8-17,1.8c-1.7,0-2.1-0.4-3.8-2.5
		c-0.2,0.4-0.3,0.8-0.4,1.2c0,2.7,2.4,4.7,3.2,4.7c0.1,0,1.9-0.8,2.2-0.9c2.1-0.6,13.4-2.3,16.1-2.2c-2.4,11.3-10.3,20-17.5,23.8
		l0.1,0.3c2.6-0.7,5.1-1.7,7.3-3.2c5.9-3.9,9.5-10.2,11.8-16.8c0.5-1.4,0.8-2.1,1.5-2.5C341.3,66.5,341.3,66.5,341.3,66L341.3,66z
		 M370.5,61.5c0-1.1-3-2-4.4-2c-1,0-1.9,0.4-2.7,1.1c3.5,0.6,3.6,0.8,3.6,7c0,9.1-0.5,17.8-9.3,23.5l0.1,0.3c2.8-0.7,5.3-2.2,7.1-4.4
		c2.6-2.9,4.3-6.6,4.6-13.8c0-1.4,0.2-8.4,0.3-8.9C369.9,63.8,370.5,61.9,370.5,61.5L370.5,61.5z M356.4,63.6c0-1.2-3.3-2.1-4.2-2.1
		c-0.8,0.1-1.6,0.4-2.3,0.9c3.1,0.9,3.1,0.9,3.1,6.1c0,2.2,0,3.6-0.1,4.2c0,0.4-0.3,2.2-0.3,2.6c0,1.6,0.7,3.3,1.8,3.3
		c1.3,0,1.3-2.3,1.3-2.9c0-0.7,0-4,0-4.7c-0.1-2,0.1-4.1,0.4-6.1C356,64.8,356.4,63.7,356.4,63.6L356.4,63.6z M410.4,74.8
		c0-1.5-3.9-2-4.2-2c-0.5,0.1-1.1,0.2-1.6,0.4c-1.8,0.4-14.6,0.5-17.3,0.5c-4.1,0-5.3,0-6.7-3.1c-0.3,0.6-0.4,1.2-0.5,1.9
		c0,1.9,2.1,4.4,3.2,4.4c0.1,0,1.4-0.3,1.5-0.3c1.8-0.5,5.3-0.7,17.3-0.7c2.6,0,3,0,4.5,0.1c0.1,0,1,0.1,1.4,0.1
		C408.5,76.1,410.4,76.1,410.4,74.8L410.4,74.8z M431.2,85.7c-0.2-3.1-2.8-5.6-6-5.4c-3.1,0.1-5.6,2.8-5.4,6c0.1,3,2.6,5.4,5.7,5.4
		C428.7,91.7,431.3,89,431.2,85.7C431.2,85.8,431.2,85.8,431.2,85.7L431.2,85.7z M430.1,85.8c-0.1,2.5-2.3,4.5-4.8,4.3
		c-2.5-0.1-4.5-2.3-4.3-4.8c0.1-2.4,2.1-4.3,4.5-4.3C428.1,81.1,430.1,83.2,430.1,85.8C430.1,85.8,430.1,85.8,430.1,85.8L430.1,85.8z
		"/>
</svg>
