<svg id="main_ttl02" data-name="main_ttl02" xmlns="http://www.w3.org/2000/svg" xmlns:xlink="http://www.w3.org/1999/xlink" viewBox="0 0 1000.62 125.31" width="510" height="64">
	<defs>
		<style>
			.cls-1{fill:#ffffff;}
		</style>
	</defs>

	<path class="cls-1" d="M6.17,96.39c14.12-26.74,18.1-50.32,18.1-50.46,0-1.37-.55-1.37-4.94-1.37-2.88,0-7.68-.14-12.2-2.47S0,36.06,0,34.69a.58.58,0,0,1,.55-.55A31.5,31.5,0,0,1,3.7,35.37a50.18,50.18,0,0,0,12.2,1.51c2.06,0,8.64-.27,9.74-1.23s1.51-10.29,1.51-11.25,0-5.75-1.65-8.5c-.55-.68-3.84-4.11-3.84-5.07,0-1.37,2.61-3.15,6.17-3.15,6.17,0,11,5.62,11,7.26,0,.69-1.51,3.43-1.51,4.12,0,2.6,11,4.93,12.34,4.93.55,0,3.57-.27,4.25-.27,1.1,0,4.53,0,4.53,4.25,0,7.68-11.66,11.65-20.71,14.12C33,43.32,32.49,43.46,32,45.93c-7,29.89-7.13,30-10,38.94-9.46,28.52-14.4,28.52-17,28.52-3.3,0-3.71-4.53-3.71-6S1.92,104.34,6.17,96.39ZM35.1,33.73c.68,0,11.1-3.7,11.1-5.49,0-1.37-7.4-4.38-8.91-4.38-.82,0-1.23.27-1.51,1.64-.54,2.74-.54,3.15-1.23,6.45C34.41,32.9,34.28,33.73,35.1,33.73ZM45.52,91.86c2.88,11.93,17.69,14.53,28.11,14.53,2.33,0,12.75-1,14.94-1,4.66,0,11,2.33,11,6.86,0,3.84-5.07,4.66-16.73,4.66-22.21,0-40.72-5.62-40.72-22.89,0-3.16.82-6,1.92-6C44.56,88,45.38,91.45,45.52,91.86Zm30.3-47.71c13,0,22.9,3.84,22.9,9.87,0,3.29-2.88,3.29-4,3.29s-6.58-.41-7.68-.41c-2.47,0-4.52,0-10.14,2.19-3.43,1.24-4.8,1.78-5.76,1.78-.28,0-.69,0-.69-.41,0-1,7.13-6.17,7.13-7.67,0-2.06-9.73-2.2-11.79-2.2a81.07,81.07,0,0,0-9.87.55c-.82.14-4,.55-4.53.55s-1.09,0-1.23-.27C49.22,49.63,61.15,44.15,75.82,44.15ZM98.17,28.93c0,2.19-1.92,5.21-4.25,5.21-1.92,0-3-1-7-6.31-2.33-3.15-3.56-4.11-9.32-8.5-.55-.41-1.92-1.64-1.92-2.19S76.92,16,78.15,16C90.35,16,98.17,24,98.17,28.93Zm14.12-9c0,1.78-1.23,4.11-3.57,4.11-3,0-4.66-2.6-6.85-5.75-1.78-2.61-7-6.59-11.38-8.64C89.12,8.91,88.84,8.36,88.84,8c0-1.23,3.16-1.23,5.21-1.23C98.72,6.72,112.29,10.69,112.29,19.88Z"/>
	<path class="cls-1" d="M135.74,46.75A1.2,1.2,0,0,1,137,45.66c.41,0,7.54,1.92,9.05,1.92,4,0,22.76-4,23-4.12,2.34-1.64,2.47-15.49,2.47-16.18,0-3.56-.27-7.67-3.43-11.65-2.05-2.47-2.33-2.74-2.33-3.15,0-1,1.65-1.1,2.2-1.1,9.18,0,14.53,5.21,14.53,8.77,0,.28-5.21,17.69-5.21,20.3,0,.82.55,1.23,1.51,1.23.68,0,7-.69,8.09-.69,10.28,0,18.23,4.94,18.23,17.55,0,10.84-3.84,34.42-11.79,44-3.84,4.52-9.32,8.36-14,8.36-5.21,0-6.58-5.08-8.09-9.46-.28-.69-1.78-4.25-1.78-4.53a.64.64,0,0,1,.68-.68,24.53,24.53,0,0,1,3.43,1,43.2,43.2,0,0,0,7,1c4,0,9.05-1.92,13-16.73,1.5-5.48,4.25-16.59,4.25-23.86,0-9.59-5.49-10.28-9.46-10.28-4.39,0-12.21,2.06-13.17,3.29-.54.69-.68,1.24-2.05,5.9-5.49,18.64-18.79,52.37-29.89,52.37a4,4,0,0,1-4.39-4.39c0-2.88,1-4,9.19-13,3.7-4.11,9.46-10.42,16.86-31A36.66,36.66,0,0,0,166.86,54c0-.41-.14-1.1-1-1.1-3,0-15.77,5.49-18.51,5.49C142,58.41,135.74,49.77,135.74,46.75Zm95.7,28.52c-1.37,0-7.68-3.7-9.33-4.11-.68-.28-4.38-.55-4.38-1,0-.82,4.52-3.15,5.34-3.84,5.08-3.84,5.63-4.25,5.63-8,0-2.33-1-11.25-11.11-15.77-1.1-.55-3.29-1.51-3.29-2.06,0-.82.55-.82,1-.82,17.55,0,24,17.28,24,24.27C239.25,65.67,237.2,75.27,231.44,75.27Z"/>
	<path class="cls-1" d="M314.12,22.62a6.75,6.75,0,0,1-7,6.58c-1.23,0-1.92-.13-8.09-2.33a18.77,18.77,0,0,0-6.44-1.37c-5.62,0-9.73,3.84-9.73,9,0,1.24.95,7.13.95,8.36s-1.37,9.33-1.64,11.25c-.69,5.07-1.78,16.72-1.78,20.15,0,2.06.13,6.31,3.56,6.31,2.61,0,6.58-2.47,7.95-3.29,8.37-5.49,13.58-8.78,22.35-8.78,14.67,0,25.09,10.29,25.09,21.53,0,16.73-21.8,27.83-41.68,27.83-1.78,0-3.7,0-3.7-1.1,0-.68,3-1.37,4-1.64,17.14-3.84,30-14.67,30-27.56,0-14.4-12.47-15.22-15.22-15.22-4.79,0-11.79,1.51-17.82,10.29-6.31,8.91-7.81,11.24-12.48,11.24-5.76,0-10.42-6.58-10.42-17.14,0-5.76,3.29-31,3.71-36.06.41-4.8.95-11.79,12.47-16.45,7.68-3.16,11-4.53,11-8.5,0-2.61-1-4.12-2.33-6.17-.27-.55-.69-1.37-.27-1.79C297.53,7,314.12,14.94,314.12,22.62Z"/>
	<path class="cls-1" d="M385.55,123.67c-2.88,0-3.43-1-7.95-9.19-2.74-4.8-6.31-9.59-14.4-14.67-.41-.27-1.92-1.23-1.92-1.64s.41-1,1.51-1c4.8,0,28.11,7.13,28.11,19.88C390.9,120.38,388.16,123.67,385.55,123.67Z"/>
	<path class="cls-1" d="M468.5,44.42c-4.52,0-4.8,1.1-4.8,9.19,0,3.56,1.24,4.25,2.61,4.52,4.93,1.24,21.11,5.21,21.11,15.91,0,3.15-1.92,7.81-5.35,7.81-2.05,0-2.33-.68-4.93-7.27C474,66.5,466.72,61,465.21,61c-1.1,0-1.51,1-1.51,1.92,0,4.12,1.51,47.58,1.51,53.61,0,6.85-4.39,8.77-8.5,8.77-2.19,0-2.47-1.64-2.47-3.84,0-3.56.69-21.25.69-25.22.13-9.87.41-26.74.41-27.42,0-1,0-2.47-1.51-2.47-1,0-1.23.41-3.7,4-3.7,5.49-21.12,26.06-24.54,26.06-.42,0-.55-.28-.55-.69s7.68-10.42,8.63-11.79c11.8-17.41,18.24-35.65,18.24-36.61a2.69,2.69,0,0,0-3-2.88c-3.29,0-7.95.14-13.43.28-.69,0-5.35.55-5.76.55s-.82-.42-1.23-1l-2.61-3.16c-.55-.68-.69-.68-.69-1s.42-.27.55-.27c.83,0,5.21.41,6.17.55,5.08.13,11.38.41,16.46.41h3c2.61,0,3.29-.41,3.84-1.65.55-.82.55-11.65.55-13.16,0-4.25-.69-6.44-4.25-6.44-.69,0-13.57,1.23-16.18,1.23-1,0-4.39,0-4.39-.69,0-.54,1.37-.82,1.51-1,11.66-2.46,24-6.3,33.59-11.79,1.24-.68,6.72-5.07,7.54-5.07,1.37,0,12.07,9.19,12.07,10.28,0,.83-1,1.24-1.92,1.24-.28,0-3.15-.28-3.84-.28s-11.79,2.47-14,4.12C464,19.06,464,25.09,464,31.53c0,7.13,0,7.82,1.5,8.78.83.55,2.06.55,4.8.55,3.7,0,4.25-.69,7.13-4.25,1.92-2.47,3-3.84,3.84-3.84.55,0,11.66,7.4,11.66,9.87,0,1.78-2.75,1.78-7.27,1.78Zm6.72,62c0-.55.41-.68.82-.68.69,0,3.84.41,4.53.41,11,0,14.53-.82,15.63-1.92a5.11,5.11,0,0,0,1.64-3.15c4.53-21.25,9.32-48,11.52-68.56.55-4.38,2.05-19.74,2.05-25.36,0-2.74,0-3.57,1.24-3.57.55,0,9.6,3.3,10.83,3.71,3.43,1.37,3.84,1.5,3.84,2.88,0,.82-3.15,3.42-3.43,4.11-1.51,2.6-13.3,52-15.49,61-.55,2.61-6.72,26.19-6.72,26.74a2.47,2.47,0,0,0,2.61,2.33c1.91,0,22.07-2.61,25.63-3.29.83-.14,2.88-.55,2.88-2.74,0-1.1-4-11-10.14-19.2-1.65-2.19-1.92-2.47-1.92-2.88s.13-.55.41-.55c.68,0,6.72,5.21,8.77,7.13,8.78,8.23,19.61,20.57,19.61,30.3,0,7.41-4.94,9.33-7,9.33-4.12,0-4.39-3.57-5.08-10-.41-4-1.23-8.37-4.79-8.37-1.24,0-41.82,11.11-44,12.07-2.61,1.09-3.16,2.06-4.53,4a1.63,1.63,0,0,1-1.37,1.09C480.84,121.2,475.22,108,475.22,106.39Z"/>
	<path class="cls-1" d="M595.46,109c0,3-1.37,5.62-4.52,5.62-6.86,0-13.71-13.71-13.71-35,0-8.09.68-14.67,3.56-26.87,3.84-16.87,4.12-17.55,4.12-21.8,0-4.67-.69-7-3.16-11.38-.41-.83-2.6-4-2.6-4.8s1.64-1.1,2.47-1.1c7.67,0,14.53,13.71,14.53,16.18,0,1.1-6,18-7.13,21.39-2.74,9-4.94,17.55-4.94,27.56,0,.82,0,9.59,3.29,9.59,1.24,0,1.38-.55,3.84-8.09.55-1.78,4.67-13.71,5.62-13.71.55,0,.55,1,.55,1.24,0,4.38-3.84,24.13-3.84,28.1C593.54,98,595.46,107.08,595.46,109Zm54.43-7.68a22.6,22.6,0,0,1-20.42,13c-9.19,0-17.14-5.63-17.14-13.71,0-1.92,0-16.46,28.1-16.87,3.43,0,3.43-1,3.43-9.46,0-.82-.41-15.35-.55-19.19a4.53,4.53,0,0,0-1.09-3.29c-.28-.28-5.63-.28-6.31-.28-15.49,0-20.29-10.83-20.29-12.2,0-.41.14-1,.68-1S619.46,40,620,40.31a41.09,41.09,0,0,0,15.35,2.74c7.54,0,7.54,0,7.54-9,0-8.64,0-12.48-2.6-15.63-.55-.68-4.25-3.7-4.25-4.66s1.78-2.33,4.66-2.33,11.93,1.92,11.93,7.13c0,1-.14,1.23-1.51,3.43a5.93,5.93,0,0,0-.82,2.88c0,4.11,7.13,4.38,8,4.38,6,.28,10.56.41,10.56,6.17,0,6.45-9.19,10.42-14.26,12.62s-5.08,2.33-5.08,8.22c0,3,1,18.51,1.37,22.21.55,5.08,1,6,4.39,7.54,6.72,2.88,21.11,9.33,21.11,17.42,0,2.46-1.91,5.48-4.93,5.48-1.65,0-2.06-.55-5.35-4.66-4-4.8-11.1-10.56-13.57-9.32C651.54,95.29,650.31,100.36,649.89,101.32Zm-32.08-1.78c0,3.7,4.25,6,9.05,6,8.09,0,16.45-6.58,16.45-11.24,0-2.33-1.92-3.43-10.69-3.43C624.8,90.9,617.81,95.56,617.81,99.54Zm31.67-64.85c0,5.21,1.1,5.21,2.06,5.21,1.92,0,7.13-1.65,7.13-4.8,0-2.47-4.53-4.25-6.45-4.25a2.93,2.93,0,0,0-1.64.55C650,31.81,649.48,32.9,649.48,34.69Z"/>
	<path class="cls-1" d="M723,15.9c-12.06,0-15.9.28-17.27.42-.55,0-2.47.27-2.88.27s-.82-.27-1.23-.82L699,12.61c-.55-.68-.69-.68-.69-1s.28-.27.55-.27c1,0,5.08.41,6,.41,6.71.27,12.34.55,18.78.55h67.73c4.94,0,6,0,9.05-5.35,1.1-1.78,2.74-4.52,4.25-4.52,1.92,0,13.71,10.28,13.85,10.55a2.5,2.5,0,0,1,.13,1c0,1.91-.68,1.91-7.54,1.91H759.31c-3.43,0-3.57.55-6,5.9A190.39,190.39,0,0,1,737.1,50.18c-2.88,3.84-3.16,4.39-3.16,5.49s.41,1.64,4.94,4.66c1.23.82,3.43,1.78,8.91,1.78h39.35c1.78,0,3-.28,4.94-2.19,2.6-2.47,3.29-3.16,4.52-3.16s10,4.25,10,7.27a8.59,8.59,0,0,1-1.51,3.56c-2.33,3.16-2.33,4-2.33,11.52,0,5.62,1.1,30.57,1.1,35.65,0,7.13-6.72,8.5-9,8.5-2.61,0-2.61-3.29-2.61-4.12,0-3.42,0-5.48-5.35-5.48h-42c-1.09,0-4.25,0-4.66,3.15-.28,2.2-1.1,8-8.09,8-2.61,0-3.56-1.38-3.56-3.71,0-1.09.41-6,.54-7,.28-5.76.69-21.11.69-31.39,0-9.74-.28-12.21-.55-14.13-.41-2.74-.68-3.84-1.78-3.84-.82,0-1.1.42-4.25,4.39-10.28,13.16-23.72,22.62-26,22.62a.74.74,0,0,1-.69-.68c0-.69,3-4,3.84-4.94,13.3-14.53,25.37-30.3,34-48,4.39-8.92,7.41-18.1,7.41-20.3,0-1.92-1.37-1.92-3.57-1.92Zm21.39,49.77c-1.37,0-3.43,0-4.11,1.79-.55,1.37-.55,18.09-.55,21,0,3.16,0,18.38.69,19.88.68,1.78,2.74,1.78,4,1.78h43.47c1.37,0,3.42,0,4.11-1.78s.55-18,.55-21.25c0-21.39,0-21.39-4.66-21.39Z"/>
	<path class="cls-1" d="M872.56,25.5c-5.07,0-5.07,1.1-5.07,11.52,0,5.07,1,5.62,5.21,5.76a10.31,10.31,0,0,0,4.39-.83c.82-.41,3.7-4.11,4.79-4.11a1.45,1.45,0,0,1,1,.28l3.57,2.6c3.84,2.47,4.25,2.88,4.25,3.7s-.28,1.24-2.88,3.16c-1,.68-1,3-1,4.11,0,8.5.27,37.57.55,45.11,0,1.78.55,10.28.55,12.34,0,7.26-6.17,7.54-6.72,7.54-2.06,0-2.47-.82-3-2.2-1-2-2.88-2-4.25-2H850.49c-3.71,0-3.71,1.51-3.71,6.17,0,1.37,0,5.34-6.3,5.34-3.43,0-3.43-1.92-3.43-3.56,0-3.29.68-24.95.68-29.62,0-3-.13-40-.68-45.24-.14-.82-.69-4.8-.69-5.76,0-.69.28-1.1,1-1.1s4.39,1.92,5.35,2.33a21.45,21.45,0,0,0,7.82,1.79h4.38c4.39,0,4.39-1.51,4.39-6.86,0-4.93,0-26.32-1-29.48-.14-.55-1.64-3.42-1.64-4.25a1,1,0,0,1,1.09-1.09c1.92,0,13.85,4,13.85,5.62,0,.41-1.1,1.37-2.06,2.33-2,2.06-2,2.6-2,7.68,0,3.29.41,5.21,4.93,5.21,5.76,0,6.45,0,7.54-1.1.83-.69,4.12-5.21,5.35-5.21s8.91,5.35,8.91,7.81c0,2.06-2.47,2.06-7.26,2.06Zm1.78,83.22c4.53,0,4.66-.27,4.66-21.66,0-5.89-.13-21.52-.13-26.05,0-.55-.14-1.37-1-1.37S876.12,60.87,876,61c-.69,1.24-5.21,9.46-5.21,9.87,0,.69.68,1.24,1.51,1.79,3.7,2.6,5.75,4.11,5.75,6.85,0,1.24-1.09,3.7-3,3.7-1.51,0-1.65-.68-3-5.89-.27-1.37-1.23-4.25-2.33-4.25-.82,0-2.19,2.19-2.19,3.56,0,1,.27,1.51,2.19,5.35,1.51,2.88,4.66,9.05,4.66,14.81,0,3.56-1.64,5.76-3.29,5.76a2.55,2.55,0,0,1-1-.28c-2.19-1.51-5.48-18.65-7.4-18.65-.82,0-7.54,10-9.05,11.93-.41.55-5.48,6.86-5.48,5.62,0-2.74,12.61-19.47,12.61-23.44,0-2.19-5.49-11.66-7.13-14.53-.69-1.24-5.07-6.45-5.07-7.13,0-.28.13-.41.27-.41,1.23,0,8.23,7,12.2,13,.83,1.23,1.65,2.47,2.61,2.47,1.64,0,4.93-8.64,5.62-10.42.41-1.24,1.92-8.5,2.74-8.5,1.24,0,5.76,4.38,6.17,4.38s.55-.54.55-1.23c0-7.54,0-9-4.25-9H850.21c-1.23,0-3.43,0-4,2.06-.55,1.64-.42,4.93-.42,34.41,0,3.43.14,21.94.69,23.86s2.6,2,3.84,2Zm-18.1-30A3.89,3.89,0,0,1,853,82.54c-2.19,0-2.33-2.47-2.46-5.21-.14-2.33-.42-2.88-1.51-5.9-.14-.55-.41-1-.14-1.23C849.53,69.65,856.24,74.72,856.24,78.7Zm4-27.56c2.19.82,5.21,2.88,5.21,6.31a3.66,3.66,0,0,1-3.56,3.84c-2.2,0-2.75-2.33-3.43-4.67-.82-3.29-1.23-3.7-3.84-6-.28-.27-.82-1-.55-1.23S859.54,50.87,860.22,51.14Zm4.8,50c0,3.43-2.33,5.76-4.25,5.76a2.94,2.94,0,0,1-2.74-3.15c0-1.1.82-5.62.82-6.58,0-2.47-.28-3.29-1-4.25-.14-.14-.41-.41-.14-.55S865,95.29,865,101.18Zm65.12-21.93c-1.23,0-3,0-3,1.92a10,10,0,0,0,1.23,3.56c5.49,12.75,11.93,21.8,23.31,28.38,1.1.69,7.13,3.29,7.13,4,0,.27-4,.27-4.52.27a21.43,21.43,0,0,0-6.72,1.1c-.69.27-4.39,2.06-5.21,2.06s-1.24,0-3.71-3.3a69.25,69.25,0,0,1-13.71-29.06c-.27-1.1-.68-2.88-.95-2.88-.42,0-.42.41-.55.82-3,8.91-4.12,12.34-9.74,19.74C902.17,121.06,885,123.39,885,122.71c0-.27,1.64-1.1,1.92-1.24,10.69-5.61,17.27-11.24,22.62-21.11a57.55,57.55,0,0,0,5.89-18.51c0-2.6-2.19-2.6-3.7-2.6h-3.7c-1.92,0-2.88,0-3.56,2a6.93,6.93,0,0,1-6.72,4.8c-2.06,0-2.47-1.09-2.47-2.33,0-.68.55-4.25.55-5.07.27-4.8.41-10.15.41-12.89,0-2.33-.14-3.7-.41-9.19,0-.68-.69-3.7-.69-4.38a.59.59,0,0,1,.55-.55,10.58,10.58,0,0,1,3.84,1.37c5.76,2.74,8.91,2.74,10.42,2.74h3.29c3.84,0,4-.68,4-8.77,0-2.61,0-4.94-3.29-4.94-1.79,0-11,.69-11.66.69-.41,0-.82-.41-1.23-1l-2.61-3.16c-.41-.41-.68-.68-.68-.82s.27-.41.55-.41c.68,0,4.11.41,4.93.41,4.53.41,11.11.55,15.63.55H923c4.67,0,4.94,0,6.59-1.92,2.74-3.57,2.74-3.57,3.56-3.57.55,0,8.23,4.8,8.23,7s-2.61,2.19-5.63,2.19h-6.3c-1.92,0-4,0-4,3.43,0,9.32,0,10.28,4.12,10.28h4.11a14.51,14.51,0,0,0,4.93-.68c.69-.28,3.43-3,4.25-3,.14,0,10,6,10,7.68,0,.82-1,1.37-1.51,1.64s-1.78,1.1-2.6,1.65c0,.68-.14,7.26-.14,7.95,0,12.2-.27,15.36-4.66,15.36-4.11,0-4.11-1.79-4.11-4,0-3-1.92-3.15-3.84-3.15Zm11.52-43.6c-5.62-5.49-10.28-11.11-16.45-20.43-1.1-1.78-1.78-2.88-3-2.88s-1.37.41-4.66,4c-16.45,18-27.83,25-28.79,25a.3.3,0,0,1-.28-.28c0-.13,8.64-10.28,10.15-12.34,4-5.34,11.65-16.31,14.81-25.63,1-2.75,1.09-3,1.92-3,1.09,0,4,2.06,5.34,3.15,3.71,2.61,4.12,2.88,4.39,4.94s11.24,13.43,27.29,21.66c1.23.69,7.95,3.15,9.18,3.7-.27.83-4.93,1.65-5.89,2.06-1.37.55-7.13,4.8-8,4.8C947.42,40.31,945,38.8,941.66,35.65Zm-29.34,40c3.56,0,4.94,0,4.94-12.61,0-3.57-2.33-3.57-3.84-3.57h-5.07c-4.12,0-4.12.69-4.12,11.8,0,4.38,1.51,4.38,3.84,4.38ZM929.6,59.5c-4.39,0-4.39,1.65-4.39,12.75,0,3.43,2.19,3.43,4.25,3.43h6.72c1.37,0,4.11,0,4.11-3.56,0-12.62-.41-12.62-4.8-12.62Z"/>
	<path class="cls-1" d="M1000.62,108.45a15.29,15.29,0,0,1-15.36,15.22c-9.18,0-15.08-7.68-15.08-15.36,0-10.42,9.05-15.08,15.22-15.08A15.27,15.27,0,0,1,1000.62,108.45Zm-26.6-.14a11.5,11.5,0,0,0,11.52,11.52,11.32,11.32,0,0,0,11.38-11.24,11.5,11.5,0,0,0-11.66-11.52A11.1,11.1,0,0,0,974,108.31Z"/>
</svg>