<?xml version="1.0" encoding="utf-8"?>
<!-- Generator: Adobe Illustrator 25.0.0, SVG Export Plug-In . SVG Version: 6.00 Build 0)  -->
<svg version="1.1" id="sec01_b" xmlns="http://www.w3.org/2000/svg" xmlns:xlink="http://www.w3.org/1999/xlink" x="0px"
	 y="0px" viewBox="0 0 693 132.3" style="enable-background:new 0 0 693 132.3;" xml:space="preserve" wisth="693" height="132">
	<style type="text/css">
		.st0{fill:none;stroke:#9D1A5B;}
		.st1{fill-rule:evenodd;clip-rule:evenodd;fill:#9D1B5B;}
		.st2{fill:none;stroke:#9C1B5B;stroke-width:1.4556;stroke-miterlimit:10;}
		.st3{fill:none;stroke:#E50012;stroke-width:4;stroke-miterlimit:10;}
	</style>
	<path id="長方形_2" class="st0" d="M5.5,0.5h682c2.8,0,5,2.2,5,5v121.3c0,2.8-2.2,5-5,5H5.5c-2.8,0-5-2.2-5-5V5.5
		C0.5,2.7,2.7,0.5,5.5,0.5z"/>
	<path id="txt_amin" class="st1" d="M90.3,55.6c0-0.7-2-1.6-3.4-1.6c-0.8,0-1.6,0.3-2.1,0.9
		c2.6,0.6,2.7,0.7,2.7,4.8c0,3-0.2,6-0.6,9c-0.5,2.5-2.2,6.8-5.9,9l0.1,0.2c2.1-0.4,4-1.6,5.3-3.2c2.9-3.4,3.3-7.1,3.4-12.7
		c0-1.2-0.1-3.1,0.1-4.2C89.9,57.5,90.3,56,90.3,55.6z M80.7,57.2c0-0.8-2.6-1.8-3.4-1.8c-0.6,0.1-1.2,0.3-1.7,0.7
		c2.3,0.6,2.3,1.2,2.3,3.4c0,1.5,0,3.6-0.1,4.5c-0.1,0.6-0.2,1.6-0.2,1.9c0,1.6,1,2.6,1.5,2.6c1,0,1-2,1-2.5c0-0.7-0.1-4-0.1-4.7
		c-0.1-1.1,0-2.3,0.4-3.4C80.6,57.7,80.6,57.5,80.7,57.2z M112.4,59.7c0-3.3-5.2-3.8-6.1-3.8c-0.5,0-0.9,0-1.4,0.1
		c1.8,0.9,3.4,2.1,4.6,3.7c0.9,1,1.3,1.4,1.8,1.4C112,61,112.5,60.4,112.4,59.7z M123.5,58.5l-0.1-0.1c-2.6,3.3-5.5,6.2-8.7,8.9
		c-1,0.8-5.6,4.5-6.4,4.5c-0.5,0-1.3-0.4-2.2-2c-0.1,0.5-0.2,0.9-0.2,1.4c0,1.5,2,4.2,3,4.2c0.1,0,0.3,0,0.4-0.1
		c0.2-0.1,0.8-0.9,1-1.1c0.9-0.9,2.6-2.2,3.6-3.1C120.3,65.7,123,60.4,123.5,58.5L123.5,58.5z M151.3,74.5c0-2.7-4.4-6.3-7.7-7.8
		c1.4-1.9,2.6-4,3.6-6.2c0.1-0.5,0.4-0.9,0.8-1.1c0.9-0.4,1.1-0.4,1.1-0.8c-0.6-1.1-1.5-2-2.5-2.7c-0.5,0.3-0.9,0.6-1.3,1
		c-1.1,0.8-7.2,1.3-7.9,1.3c-0.9,0-1.1-0.3-2.3-1.9c-0.2,0.4-0.3,0.9-0.2,1.3c0,1.4,0.9,2.7,2.2,3.3c0.4-0.1,0.8-0.2,1.1-0.5
		c1.5-0.8,7-1.9,7.1-1.9c-0.9,4.3-7.8,14.3-14.4,17.6v0.2c3.9-0.8,8.1-3.7,12.4-9.1c2.2,1.9,3.5,3.8,5.6,7.7c0.2,0.6,0.8,1.1,1.4,1.3
		C151.1,76.1,151.3,75.2,151.3,74.5L151.3,74.5z M173.9,65.7c-0.1-1.3-1.3-2.4-2.6-2.3c-1.3,0.1-2.4,1.3-2.3,2.6
		c0.1,1.3,1.2,2.3,2.4,2.3C172.8,68.3,173.9,67.1,173.9,65.7z M209.8,59.8c0-0.6-2.1-2.6-2.5-2.6c-0.5,0.2-1,0.5-1.5,0.9
		c-0.7,0.4-8.9,1-10,1c-1.5,0-3-0.8-3.8-2.1c0,0.3-0.1,0.6-0.1,0.8c0,0.6,0.1,1.1,0.4,1.6c0.1,0.2,1.2,2.3,2.3,2.3
		c0.5-0.1,0.9-0.3,1.4-0.5c3.2-0.8,6.4-1.2,9.6-1.4c0.3,0,0.5,0.1,0.5,0.4s-0.4,5.6-1.1,10.1c-2.4,0.3-8.3,0.9-9.5,0.9
		c-1.7,0-3.3-1.7-3.6-2c-0.1,0.3-0.2,0.6-0.2,1c0,1.5,1.8,3.8,2.5,3.8c0.5-0.1,1-0.3,1.5-0.5c2.3-0.7,4.6-1,7-1c0.5,0,3,0.1,3.6,0.1
		c0.9,0,1.9,0,1.9-0.9c-0.1-0.7-0.6-1.3-1.3-1.4c0.9-6.2,1.1-6.9,1.4-8.6c0-0.5,0.3-0.9,0.7-1.1C209.5,60.5,209.7,60.2,209.8,59.8
		L209.8,59.8z M227,59.7c0-3.3-5.2-3.8-6.1-3.8c-0.5,0-0.9,0-1.4,0.1c1.8,0.9,3.4,2.1,4.6,3.7c0.9,1,1.3,1.4,1.8,1.4
		C226.6,61,227.1,60.4,227,59.7L227,59.7z M238.1,58.5l-0.1-0.1c-2.6,3.3-5.5,6.2-8.7,8.9c-1,0.8-5.6,4.5-6.4,4.5
		c-0.5,0-1.3-0.4-2.2-2c-0.1,0.5-0.2,0.9-0.2,1.4c0,1.5,2,4.2,3,4.2c0.1,0,0.3,0,0.4-0.1c0.2-0.1,0.8-0.9,1-1.1
		c0.9-0.9,2.6-2.2,3.6-3.1C234.9,65.7,237.6,60.4,238.1,58.5L238.1,58.5z M248.8,78.3c3.3-1,6.4-4.2,8.4-9.9c0.1-0.3,0.6-1.8,0.7-2.1
		c0.2-0.4,0.4-0.8,0.6-1.2c0-0.4-0.2-0.4-1.3-1.3c1.1-0.1,2.2-0.2,3.4-0.2c0.7,0,1.4,0,2.1,0.1c0.3,0,3.1,0.4,3.1,0.4
		c0.5,0.1,0.9-0.2,1-0.7c0-0.1,0-0.2,0-0.3c0-1.6-3-2.1-3.4-2.1c-0.3,0-1.5,0.4-1.8,0.5c-0.8,0.2-12.7,1.6-12.7,1.6
		c-1.5,0-1.9-0.7-2.7-1.9c-0.1,0.4-0.2,0.8-0.2,1.2c0.2,1.5,1.1,2.8,2.6,3.4c0.7-0.2,1.4-0.4,2-0.7c1.4-0.5,2.9-0.8,4.4-1
		c0.4,0.4,0.5,0.9,0.5,1.4c0,2.5-2.7,9.3-6.7,12.6L248.8,78.3z M262.9,57.2c0.9,0.8,1.8,1.7,2.6,2.6c0.8,0.9,0.9,1,1.2,1
		c0.5,0,0.8-0.4,0.8-0.9c0,0,0-0.1,0-0.1C267.5,57.3,263.7,57.3,262.9,57.2L262.9,57.2z M249.9,55.7c-0.1,0.2-0.1,0.5-0.1,0.8
		c0,1.2,0.9,2.3,2.2,2.5c0.8-0.1,1.5-0.2,2.3-0.3c1.5-0.2,2.9-0.4,4.4-0.4c2.7-0.1,3.3-0.2,3.3-1.1c0-1.1-2-1.5-2.4-1.5
		c-0.6,0.1-1.3,0.3-1.9,0.5c-1.5,0.4-3.1,0.6-4.7,0.7C251.8,57,250.7,56.5,249.9,55.7L249.9,55.7z M264.6,55.2
		c1.2,0.7,2.3,1.6,3.1,2.7c0.7,0.8,0.7,1,1.1,1c0.5-0.1,0.8-0.5,0.7-1c0,0,0,0,0,0C269.5,55.7,266.8,55.4,264.6,55.2L264.6,55.2z
		 M275.3,71.3c3.2-1.1,5.9-3.5,7.9-5.3c0.2,0.8,0.3,1.7,0.2,2.5c0,2.4-0.2,5.4-0.2,6.2c0,0.2-0.2,1.3-0.2,1.5c0,0.4,0.4,1.8,1.2,1.8
		c0.9,0,0.9-1.1,0.9-1.5c0-0.3-0.1-5.4-0.1-6.4c0-0.6,0-2.5,0.1-3.3c0-0.2,0.2-0.8,0.2-0.9c0-0.3-0.2-0.5-1.1-1
		c0.6-0.6,3.3-3.9,4.1-4.3c0.3-0.1,0.6-0.3,0.7-0.7c-0.6-1.3-1.8-2.2-3.2-2.3c-0.3,0-0.6,0.1-0.8,0.2c0.9,0.6,1.2,0.9,1.2,1.3
		c0,1.3-6.2,8.8-11,11.9L275.3,71.3z M311.1,57.7c0-1.4-1.7-3.2-5.3-3.2c-0.7,0-1.3,0.1-1.9,0.2c1.3,0.4,2.2,1,4.1,2.7
		c1.6,1.5,1.8,1.6,2.2,1.6C310.7,58.9,311.1,58.3,311.1,57.7L311.1,57.7z M321.1,59.6l-0.2-0.1c-3.1,4.6-12.5,13.8-14.7,13.8
		c-0.8-0.4-1.6-0.9-2.2-1.6c-0.1,0.2-0.1,0.5-0.1,0.7c0,2.4,2.2,4.2,2.8,4.2c0.3,0,0.5-0.1,0.7-0.4c0.3-0.3,0.6-0.7,0.9-1
		c1.2-1,2.5-2,3.5-2.9C315.5,69.3,319.7,64,321.1,59.6L321.1,59.6z M309,64.5c0-1.2-1.3-2.8-4.8-2.8c-1,0-2,0.1-3,0.2
		c2,0.7,3.8,1.7,5.3,3.1c1,0.8,1.1,0.8,1.5,0.8C308.9,65.8,309,64.6,309,64.5L309,64.5z M340.4,68.7c-0.1,1.8-0.1,2.1-0.3,4.5
		c-0.6,0.1-7.3,0.6-7.6,0.6c-0.9-0.1-1.7-0.6-2.1-1.5c-0.1,0.3-0.2,0.6-0.2,0.9c0,1,1.2,2.8,1.8,2.8c0.2,0,1.1-0.5,1.3-0.6
		c2.1-0.4,4.2-0.7,6.3-0.9c0.2,0.9,0.4,1.7,1.1,1.7c0.5,0,0.9-0.5,1.1-1.5c0.2-1.4,0.5-8.6,0.6-10.2c0.1-0.8,0.1-0.8,0.3-1.1
		c0.6-0.5,0.7-0.5,0.7-0.8c-0.5-0.9-1.3-1.6-2.1-2.1c-0.1,0-0.2,0.1-0.3,0.2c-0.1,0.1-0.5,0.4-0.6,0.5c-0.7,0.6-6.2,0.8-7.3,0.8
		c-1.3,0-1.8,0-2.6-1.5c-0.1,0.4-0.2,0.8-0.2,1.2c0,0.8,0.9,2.4,1.5,2.4c0.4-0.1,0.8-0.2,1.2-0.4c0.8-0.2,6.3-0.8,7.5-0.9
		c-0.1,1.9-0.1,2-0.2,4.1c-2.2,0.1-2.3,0.2-4.2,0.3c-0.8,0.1-3.1,0.3-3.7,0.3c-0.8-0.1-1.6-0.6-1.9-1.4c-0.1,0.3-0.1,0.5-0.1,0.8
		c0,1.1,0.7,2.2,1.7,2.7c0.4-0.1,0.8-0.3,1.1-0.5C335.7,69,338.1,68.8,340.4,68.7L340.4,68.7z M374.7,62.6c0-1.3-2.5-1.9-2.9-1.9
		c-0.2,0-1.4,0.4-1.7,0.5c-1.3,0.2-3.3,0.2-4.6,0.3v-1.6c0-2.2,0.1-2.4,0.5-3.1c0.2-0.3,0.2-0.5,0.2-0.8c0-1.1-1.9-2-3.2-2
		c-0.8,0-1.5,0.4-2,1c1.3,0.4,2.1,0.8,2.2,1.6c0.1,0.7,0.2,3.4,0.2,5.1c-1,0.1-6.7,0.7-7.1,0.7c-1.3-0.2-2.4-0.9-3-2
		c-0.1,0.3-0.1,0.7-0.1,1c0.1,1.8,1.3,3.4,3.1,4c0.4,0,0.7-0.2,1-0.4c1.2-0.9,4.5-1.3,6.1-1.5c0,1.6-0.2,3.2-0.6,4.8
		c-1.5,6.4-5,9.1-6.2,10l0.1,0.3c3.9-1,6.2-4.5,7-5.9c1.5-2.8,1.8-6.1,2-9.4c0.6,0,1.5-0.1,2.8-0.1c0.8,0,1.5,0,2.3,0.1
		c0.4,0.1,2.6,0.4,2.9,0.4c0.5,0.1,1.1-0.2,1.2-0.7C374.7,62.8,374.7,62.7,374.7,62.6L374.7,62.6z M404,66c0-1.6-3.2-1.9-3.3-1.9
		c-0.4,0-0.8,0.1-1.1,0.3c-0.9,0.4-10.6,0.4-12.2,0.4c-3.3,0-4-0.4-4.9-2.5c-0.3,0.5-0.4,1.1-0.4,1.7c0,1.2,1.6,3.6,2.6,3.6
		c0.3,0,0.6-0.1,0.9-0.2c2.4-0.4,4.7-0.5,7.1-0.5c0.5,0,7.2,0.1,7.8,0.1c0.6,0.1,1.2,0.1,1.7,0.1C403.4,67.1,404,66.5,404,66L404,66z
		 M423.2,55.8h11c0.2,0,0.4-0.1,0.4-0.3c0,0,0,0,0-0.1c0-0.2-0.1-0.3-0.3-0.4l-2-1.8c-0.1-0.2-0.3-0.3-0.5-0.3c-0.1,0-0.1,0-0.5,0.4
		l-1.4,1.7h-16.1c-1.3,0-2.6-0.1-4-0.2l0.5,1.1c1-0.2,2-0.3,3-0.2h8.1c-0.1,0.7-0.3,1.4-0.6,2c-3.1,5.7-7,11-11.6,15.6l0.1,0.1
		c4.4-2.1,8.3-6.3,10.8-9.9c0,11.2,0,11.7-0.1,14.3c0,0.2-0.1,1-0.1,1.1c0,0.5,0.4,0.9,0.9,0.9c0.1,0,0.1,0,0.2,0
		c0.8,0.1,1.5-0.5,1.6-1.3c0-0.4-0.1-2.6-0.1-3c-0.1-2.2-0.1-3.9-0.1-5.1c0-0.3,0-3,0.1-7.5c0.5,0,0.9-0.4,0.9-0.9
		c0-0.3-0.3-0.6-0.6-0.6l-1.2-0.2c0.8-1.3,1.5-2.5,2-3.5c0.8-0.2,1.2-0.2,1.2-0.7c0-0.2-0.1-0.3-0.2-0.4L423.2,55.8z M424.4,61.9
		c1.3,0.6,4.3,3.8,5.9,6.9c1.1,2,1.4,2.6,2.5,2.6c0.8-0.1,1.4-0.8,1.3-1.6c0-3.5-6.6-7.9-9.6-8L424.4,61.9z M458.2,63.9
		c0,0.6,0.1,1.1,0.9,1.1c0.8,0.1,1.5-0.5,1.6-1.3c0-0.6-0.1-3.5-0.1-4.1c0.8-0.5,0.9-0.6,0.9-0.8c0-0.2-0.1-0.4-0.2-0.5l-1.4-1.1
		c-0.1-0.1-0.3-0.2-0.4-0.2c-0.2,0-0.3,0.1-0.4,0.2l-0.8,1h-3.2v-3.1h8c0.2,0,0.4-0.1,0.4-0.3c0,0,0,0,0,0c0-0.2-0.1-0.3-0.3-0.4
		l-1.8-1.7c-0.1-0.1-0.3-0.3-0.5-0.3c-0.1,0-0.2,0-0.4,0.4l-1.2,1.7h-15.2c-0.3,0-2.3,0-4-0.2l0.5,1.1c1-0.2,2-0.3,3-0.2h3.9v3.1
		h-2.9l-2.6-1.4c0.3,1.4,0.3,2.8,0.2,4.2c0,0.9,0,1.6-0.1,2.3c0,0.2-0.1,1.3-0.1,1.6c0,0.4,0.3,0.8,0.7,0.8c0.1,0,0.1,0,0.2,0
		c0.8,0.1,1.5-0.4,1.6-1.2c0-0.2,0-0.3,0-0.5h5.2c-0.5,1.5-1.2,3-2.1,4.3h-4.2c-0.3,0-2.3,0-3.9-0.2l0.4,1.1c1-0.2,2-0.3,3-0.2h4.3
		c-0.9,1.4-2,3.1-2.7,4.2c-0.1,0.2-0.2,0.4-0.2,0.7c0.1,0.6,0.6,1.1,1.2,1c0.8,0,0.9-0.2,1.9-2c1.2,0.2,2.3,0.5,3.5,0.9
		c-3.1,2.8-7.7,4.3-11.1,5v0.2c0.5,0,1,0.1,1.7,0.1c4.2,0,8.4-1.5,11.6-4.3c2.1,0.9,4,2.2,5.8,3.7c0.4,0.4,1,0.7,1.6,0.8
		c0.7,0,1.4-0.5,1.4-1.3c0,0,0,0,0,0c-0.1-0.9-0.6-1.6-1.4-2c-1.9-1.1-3.9-2-6-2.5c0.9-0.9,1.6-2,2.2-3.1c0.7-0.2,1-0.2,1-0.6
		c0-0.2-0.1-0.3-0.2-0.4l-0.6-0.3h7.1c0.2,0,0.4-0.1,0.4-0.2c0,0,0-0.1,0-0.1c0-0.2-0.1-0.4-0.3-0.4l-1.8-1.7
		c-0.1-0.2-0.3-0.3-0.5-0.3c-0.1,0-0.2,0.1-0.4,0.4l-1.3,1.7h-9.8c0.5-0.9,1.5-2.6,1.6-2.6c0.5-0.1,0.9-0.2,0.9-0.6
		c0-0.2-0.1-0.4-0.4-0.5l-1.1-0.5L458.2,63.9L458.2,63.9z M449.5,63.2v-4.4h3v4.4H449.5z M454.8,63.2v-4.4h3.3v4.4H454.8z
		 M444.2,63.2v-4.4h3v4.4H444.2z M452.5,54.9v3.1h-3v-3.1H452.5z M454.2,68.9c-0.6,1.4-1.5,2.7-2.7,3.8c-1.4-0.2-2.8-0.3-4.3-0.3
		c1.4-2.4,1.5-2.6,2.1-3.5L454.2,68.9L454.2,68.9z M481,72.2c0-4.3,0.3-8.7,0.8-13c0.1-0.4,0.4-2.3,0.4-2.7c0.1-0.9-0.6-1.8-1.6-1.9
		s-1.8,0.6-1.9,1.6c0,0.1,0,0.2,0,0.3c0,0.4,0.4,2.3,0.4,2.7c0.6,4.3,0.8,8.6,0.8,13H481L481,72.2z M480.5,73.9c-1-0.1-1.9,0.7-2,1.7
		c-0.1,1,0.7,1.9,1.7,2c1,0.1,1.9-0.7,2-1.7c0,0,0-0.1,0-0.1C482.3,74.8,481.5,74,480.5,73.9C480.5,73.9,480.5,73.9,480.5,73.9
		L480.5,73.9z"/>
	<g>
		<g>
			<g>
				<rect x="610.2" y="34.5" class="st2" width="15.4" height="11.3"/>
				<path class="st2" d="M630.5,112.4h-25.6c-2.3,0-4.2-1.9-4.2-4.2V50.1c0-2.3,1.9-4.2,4.2-4.2h25.6c2.3,0,4.2,1.9,4.2,4.2v58.1
						C634.7,110.5,632.8,112.4,630.5,112.4z"/>
			</g>
			<rect x="615.7" y="24.4" class="st2" width="4.5" height="10.2"/>
			<polygon class="st2" points="606,24.3 624.1,24.3 624.1,19.1 605.8,22.2 		"/>
		</g>
		<g>
			<polygon class="st2" points="553.7,27.3 594.9,27.3 585.9,95.6 561.9,95.6 		"/>
			<rect x="563.2" y="95.6" class="st2" width="21.7" height="16.8"/>
		</g>
		<g>
			<line class="st3" x1="532.5" y1="13.6" x2="655.5" y2="121.2"/>
			<line class="st3" x1="655.5" y1="13.6" x2="532.5" y2="121.2"/>
		</g>
	</g>
</svg>
