<svg xmlns="http://www.w3.org/2000/svg" viewBox="0 0 236.44 236.44" width="236" height="236">
	<defs>
		<style>
			.cls-1{fill:#009a50;}
			.cls-2{fill:none;stroke:#231815;stroke-miterlimit:10;stroke-width:1.14px;}
		</style>
	</defs>
	<g id="sec11_c" data-name="sec11_c">
		<path class="cls-1" d="M34.05,141.59h8.44v-52H34.05V88.51H77.54v13.15h-.83a38.29,38.29,0,0,0-2.13-5.2,14.42,14.42,0,0,0-2.74-3.81A10,10,0,0,0,68,90.33a16.65,16.65,0,0,0-5.33-.76H50.09v23.5H55a16.76,16.76,0,0,0,4.26-.46,6.43,6.43,0,0,0,3-1.71,10.23,10.23,0,0,0,2.13-3.42,42.61,42.61,0,0,0,1.71-5.59H67v23.65h-.83q-.54-2.21-1.11-4.26a13.44,13.44,0,0,0-1.59-3.65,7.61,7.61,0,0,0-2.74-2.54,9,9,0,0,0-4.45-1H50.09v27.46H64.46a12.63,12.63,0,0,0,7-1.79A16.24,16.24,0,0,0,76,135.54a18.73,18.73,0,0,0,2.58-5.13A28,28,0,0,0,79.6,126h.83v16.65H34.05Z"/>
		<path class="cls-1" d="M136.32,142.65h-1.14a7.51,7.51,0,0,0-1.21-1.1,3.68,3.68,0,0,0-2.13-.5,8.2,8.2,0,0,0-2.47.42l-3.05.95a35.94,35.94,0,0,1-3.84,1,24.41,24.41,0,0,1-4.71.42,25.6,25.6,0,0,1-9.32-1.75,25.21,25.21,0,0,1-8.55-5.7,33.06,33.06,0,0,1-6.24-8.82,26.42,26.42,0,0,1-2.51-11.79,29.6,29.6,0,0,1,7.76-20,27.59,27.59,0,0,1,8.59-6.27,25.08,25.08,0,0,1,10.8-2.32,17,17,0,0,1,4.18.46,25.4,25.4,0,0,1,3.27,1l2.67,1a6.74,6.74,0,0,0,2.35.45,3.64,3.64,0,0,0,2.17-.49,8.79,8.79,0,0,0,1.18-1.1h1.14v15.21h-.84A45.21,45.21,0,0,0,132.67,98a16.2,16.2,0,0,0-3-5,14.19,14.19,0,0,0-4.83-3.5,17.64,17.64,0,0,0-7.26-1.33,17.21,17.21,0,0,0-6.92,1.26,14.7,14.7,0,0,0-4.87,3.34,16.42,16.42,0,0,0-3.16,4.87,29.52,29.52,0,0,0-1.78,5.86,46.35,46.35,0,0,0-.8,6.23q-.2,3.17-.19,6A56.64,56.64,0,0,0,101.19,129a22.49,22.49,0,0,0,3.61,8.29,12.42,12.42,0,0,0,5.59,4.26,20.62,20.62,0,0,0,7.23,1.22,19.61,19.61,0,0,0,8.21-1.45,13.85,13.85,0,0,0,5-3.76,16.6,16.6,0,0,0,2.89-5.25q1-2.93,1.75-5.82h.83Z"/>
		<path class="cls-1" d="M145.37,115.5a26.41,26.41,0,0,1,2.4-11.25,31.09,31.09,0,0,1,6.16-9,28.51,28.51,0,0,1,8.48-6,22.31,22.31,0,0,1,9.43-2.17,23.26,23.26,0,0,1,9.77,2.17,28.14,28.14,0,0,1,8.48,6,29.44,29.44,0,0,1,6,9,28.07,28.07,0,0,1,2.24,11.25,27.79,27.79,0,0,1-2.05,10.42,30.18,30.18,0,0,1-5.63,9,28.5,28.5,0,0,1-8.4,6.39,22.77,22.77,0,0,1-10.38,2.43,23.77,23.77,0,0,1-10.57-2.36,27.11,27.11,0,0,1-8.41-6.27,29.67,29.67,0,0,1-7.49-19.66Zm8.75,0a68.28,68.28,0,0,0,.91,11.94,24.06,24.06,0,0,0,3,8.52,13.5,13.5,0,0,0,5.48,5.09,21.19,21.19,0,0,0,16.54,0A13.45,13.45,0,0,0,185.6,136a24.06,24.06,0,0,0,3-8.52,68.28,68.28,0,0,0,.91-11.94,72.9,72.9,0,0,0-.68-10.15,27.93,27.93,0,0,0-2.62-8.74,15.71,15.71,0,0,0-5.4-6.12,18.89,18.89,0,0,0-18,0,15.71,15.71,0,0,0-5.4,6.12,27.93,27.93,0,0,0-2.62,8.74A74.46,74.46,0,0,0,154.12,115.5Z"/>
		<path class="cls-2" d="M92.75,233.09l-.93-.2Z"/>
		<path class="cls-2" d="M95.67,233.7l-1-.19Z"/>
		<path class="cls-2" d="M89.85,232.42l-.84-.21Z"/>
		<path class="cls-2" d="M87,231.67l-.76-.21Z"/>
		<path class="cls-2" d="M98.63,234.23l-1.11-.18Z"/>
		<path class="cls-2" d="M114.11,235.79c-.64,0-1.28,0-1.91-.08C112.83,235.75,113.47,235.77,114.11,235.79Z"/>
		<path class="cls-2" d="M84.15,230.85l-.67-.2Z"/>
		<path class="cls-2" d="M110.76,235.62c-.51,0-1-.05-1.54-.09C109.73,235.57,110.25,235.59,110.76,235.62Z"/>
		<path class="cls-2" d="M118.21,235.87c-1,0-2,0-3,0C116.2,235.85,117.2,235.87,118.21,235.87Z"/>
		<path class="cls-2" d="M107.69,235.39l-1.43-.13Z"/>
		<path class="cls-2" d="M104.65,235.08c-.44-.05-.89-.09-1.33-.15C103.76,235,104.21,235,104.65,235.08Z"/>
		<path class="cls-2" d="M101.6,234.69l-1.19-.16Z"/>
		<path class="cls-2" d="M81.36,230l-.6-.2Z"/>
		<path class="cls-2" d="M60.25,220.61l-.12-.07Z"/>
		<path class="cls-2" d="M55.38,217.69l-.05,0Z"/>
		<path class="cls-2" d="M62.75,222l-.16-.08Z"/>
		<path class="cls-2" d="M65.3,223.31l-.21-.1Z"/>
		<path class="cls-2" d="M53,216.14h0Z"/>
		<path class="cls-2" d="M75.85,228l-.44-.17Z"/>
		<path class="cls-2" d="M78.59,229l-.52-.19Z"/>
		<path class="cls-2" d="M118.22,235.87c1,0,2,0,3,0-1,0-2,0-3,0Z"/>
		<path class="cls-2" d="M70.49,225.78l-.31-.14Z"/>
		<path class="cls-2" d="M73.16,226.92l-.38-.16Z"/>
		<path class="cls-2" d="M67.87,224.57l-.25-.12Z"/>
		<path class="cls-2" d="M57.79,219.17l-.08,0Z"/>
		<path class="cls-2" d="M171.35,223.21l-.21.1Z"/>
		<path class="cls-2" d="M176.3,220.54l-.12.07Z"/>
		<path class="cls-2" d="M173.85,221.91l-.16.08Z"/>
		<path class="cls-2" d="M168.82,224.45l-.25.12Z"/>
		<path class="cls-2" d="M166.26,225.64l-.32.14Z"/>
		<path class="cls-2" d="M163.66,226.76l-.39.17Z"/>
		<path class="cls-2" d="M183.46,216.13h0Z"/>
		<path class="cls-2" d="M185.77,214.54h0Z"/>
		<polygon class="cls-2" points="200.79 202.01 200.79 202.01 200.78 202.02 200.79 202.01"/>
		<path class="cls-2" d="M178.73,219.13l-.08,0Z"/>
		<path class="cls-2" d="M161,227.83l-.45.17Z"/>
		<path class="cls-2" d="M181.11,217.65l-.05,0Z"/>
		<path class="cls-2" d="M147.43,232.21l-.85.21Z"/>
		<path class="cls-2" d="M136,234.53l-1.21.16Z"/>
		<path class="cls-2" d="M133.12,234.93l-1.34.15Z"/>
		<path class="cls-2" d="M138.92,234.05l-1.13.19Z"/>
		<path class="cls-2" d="M130.18,235.26l-1.44.13Z"/>
		<path class="cls-2" d="M141.78,233.5l-1,.2Z"/>
		<path class="cls-2" d="M127.22,235.53l-1.56.1Z"/>
		<path class="cls-2" d="M158.37,228.83l-.52.19Z"/>
		<path class="cls-2" d="M155.68,229.77l-.6.2Z"/>
		<path class="cls-2" d="M153,230.65l-.67.2Z"/>
		<path class="cls-2" d="M144.62,232.89l-.93.2Z"/>
		<path class="cls-2" d="M150.21,231.46l-.77.21Z"/>
		<path class="cls-2" d="M124.24,235.71c-.64,0-1.28.06-1.92.08C123,235.77,123.6,235.75,124.24,235.71Z"/>
		<path class="cls-2" d="M80.76,6.67l.58-.19Z"/>
		<path class="cls-2" d="M78.07,7.61l.51-.18Z"/>
		<path class="cls-2" d="M83.48,5.79l.66-.2Z"/>
		<path class="cls-2" d="M75.41,8.61l.43-.17Z"/>
		<path class="cls-2" d="M89,4.23l.84-.2Z"/>
		<path class="cls-2" d="M91.82,3.55l.92-.2Z"/>
		<path class="cls-2" d="M72.78,9.67l.37-.15Z"/>
		<path class="cls-2" d="M86.23,5,87,4.77Z"/>
		<path class="cls-2" d="M53,20.31h0Z"/>
		<path class="cls-2" d="M60.14,15.89l.1-.06Z"/>
		<path class="cls-2" d="M55.33,18.78l0,0Z"/>
		<path class="cls-2" d="M57.72,17.31l.06,0Z"/>
		<path class="cls-2" d="M94.66,2.93l1-.19Z"/>
		<path class="cls-2" d="M67.62,12l.24-.11Z"/>
		<path class="cls-2" d="M62.6,14.53l.14-.07Z"/>
		<path class="cls-2" d="M70.18,10.8l.3-.13Z"/>
		<path class="cls-2" d="M65.09,13.23l.2-.1Z"/>
		<path class="cls-2" d="M176.18,15.83l.12.06Z"/>
		<path class="cls-2" d="M115.2.61c1,0,2,0,3,0C117.2.57,116.2.59,115.2.61Z"/>
		<path class="cls-2" d="M181.06,18.75l.05,0Z"/>
		<path class="cls-2" d="M112.2.72l1.91-.07Z"/>
		<path class="cls-2" d="M143.69,3.35l.93.2Z"/>
		<path class="cls-2" d="M168.57,11.87l.25.12C168.74,11.94,168.65,11.91,168.57,11.87Z"/>
		<path class="cls-2" d="M160.58,8.44l.45.17Z"/>
		<path class="cls-2" d="M109.22.91l1.54-.1Z"/>
		<path class="cls-2" d="M128.74,1.05l1.44.12Z"/>
		<path class="cls-2" d="M163.27,9.51l.39.17Z"/>
		<path class="cls-2" d="M140.76,2.74l1,.19Z"/>
		<path class="cls-2" d="M122.32.65l1.92.07Z"/>
		<path class="cls-2" d="M137.79,2.2l1.13.19Z"/>
		<path class="cls-2" d="M125.66.81l1.56.1Z"/>
		<path class="cls-2" d="M118.22.57h0c1,0,2,0,3,0C120.24.59,119.23.57,118.22.57Z"/>
		<path class="cls-2" d="M165.94,10.66l.32.14Z"/>
		<path class="cls-2" d="M178.65,17.27l.08,0Z"/>
		<path class="cls-2" d="M183.44,20.3h0Z"/>
		<path class="cls-2" d="M103.32,1.51c.44-.06.89-.1,1.33-.15C104.21,1.41,103.76,1.45,103.32,1.51Z"/>
		<path class="cls-2" d="M131.78,1.35l1.34.16Z"/>
		<path class="cls-2" d="M100.41,1.91l1.19-.16Z"/>
		<path class="cls-2" d="M146.58,4l.85.21Z"/>
		<path class="cls-2" d="M149.44,4.77l.77.21Z"/>
		<path class="cls-2" d="M134.82,1.74l1.21.17Z"/>
		<path class="cls-2" d="M152.29,5.59l.67.2Z"/>
		<path class="cls-2" d="M155.08,6.47l.6.2Z"/>
		<path class="cls-2" d="M97.52,2.39l1.11-.19Z"/>
		<polygon class="cls-2" points="200.79 34.43 200.79 34.42 200.79 34.43 200.79 34.43"/>
		<path class="cls-2" d="M171.14,13.13l.21.1Z"/>
		<path class="cls-2" d="M106.26,1.17l1.43-.12Z"/>
		<path class="cls-2" d="M185.76,21.89h0Z"/>
		<path class="cls-2" d="M157.85,7.42l.52.19Z"/>
		<path class="cls-2" d="M173.69,14.45a.8.8,0,0,0,.16.08A.8.8,0,0,1,173.69,14.45Z"/>
		<path class="cls-2" d="M137.79,234.24l-1.76.29Z"/>
		<path class="cls-2" d="M140.76,233.7l-1.84.35Z"/>
		<path class="cls-2" d="M166.26,10.8c.77.35,1.54.7,2.31,1.07C167.8,11.5,167,11.15,166.26,10.8Z"/>
		<path class="cls-2" d="M125.66,235.63l-1.42.08Z"/>
		<path class="cls-2" d="M134.82,234.69c-.57.08-1.13.17-1.7.24C133.69,234.86,134.25,234.77,134.82,234.69Z"/>
		<polygon class="cls-2" points="118.22 235.87 118.22 235.87 118.21 235.87 118.22 235.87"/>
		<path class="cls-2" d="M115.2,235.83l-1.09,0Z"/>
		<path class="cls-2" d="M155.68,6.67c.73.24,1.45.49,2.17.75C157.13,7.16,156.41,6.91,155.68,6.67Z"/>
		<path class="cls-2" d="M112.2,235.71l-1.44-.09Z"/>
		<path class="cls-2" d="M158.37,7.61c.74.27,1.48.54,2.21.83Z"/>
		<path class="cls-2" d="M131.78,235.08c-.53.06-1.06.13-1.6.18C130.72,235.21,131.25,235.14,131.78,235.08Z"/>
		<path class="cls-2" d="M163.66,9.68c.77.32,1.53.65,2.28,1C165.19,10.33,164.43,10,163.66,9.68Z"/>
		<path class="cls-2" d="M161,8.61c.75.29,1.5.6,2.24.9C162.53,9.21,161.78,8.9,161,8.61Z"/>
		<path class="cls-2" d="M235.87,118.22a117.28,117.28,0,0,0-35.08-83.79,117.27,117.27,0,0,1-82.57,33.86A117.27,117.27,0,0,1,35.65,34.43,118.22,118.22,0,0,1,53,20.31,117.64,117.64,0,0,0,35.65,202a117.61,117.61,0,0,1,165.14,0A117.28,117.28,0,0,0,235.87,118.22Z"/>
		<path class="cls-2" d="M122.32,235.79l-1.08,0Z"/>
		<path class="cls-2" d="M95.66,2.74l1.86-.35Z"/>
		<path class="cls-2" d="M173.69,222l-2.34,1.22Z"/>
		<path class="cls-2" d="M183.46,20.31c.77.52,1.54,1,2.3,1.58C185,21.35,184.23,20.83,183.46,20.31Z"/>
		<path class="cls-2" d="M176.18,220.61c-.77.44-1.55.87-2.33,1.3C174.63,221.48,175.41,221.05,176.18,220.61Z"/>
		<path class="cls-2" d="M178.65,219.17c-.78.47-1.56.93-2.35,1.37C177.09,220.1,177.87,219.64,178.65,219.17Z"/>
		<path class="cls-2" d="M171.14,223.31c-.77.39-1.54.77-2.32,1.14C169.6,224.08,170.37,223.7,171.14,223.31Z"/>
		<path class="cls-2" d="M181.11,18.78c.78.5,1.56,1,2.33,1.52C182.67,19.78,181.89,19.28,181.11,18.78Z"/>
		<path class="cls-2" d="M168.57,224.57c-.77.37-1.54.72-2.31,1.07C167,225.29,167.8,224.94,168.57,224.57Z"/>
		<path class="cls-2" d="M109.22,235.53l-1.53-.14Z"/>
		<path class="cls-2" d="M185.76,214.55l-2.3,1.58Z"/>
		<path class="cls-2" d="M200.78,202a117.63,117.63,0,0,1-15,12.52A117.63,117.63,0,0,0,200.78,202Z"/>
		<path class="cls-2" d="M185.77,21.89a119.35,119.35,0,0,1,15,12.53A119.35,119.35,0,0,0,185.77,21.89Z"/>
		<path class="cls-2" d="M143.69,233.09c-.64.14-1.27.29-1.91.41C142.42,233.38,143.05,233.23,143.69,233.09Z"/>
		<path class="cls-2" d="M183.44,216.14c-.77.51-1.55,1-2.33,1.51C181.89,217.16,182.67,216.65,183.44,216.14Z"/>
		<path class="cls-2" d="M181.06,217.69c-.77.49-1.55,1-2.33,1.44C179.51,218.66,180.29,218.18,181.06,217.69Z"/>
		<path class="cls-2" d="M171.35,13.23l2.34,1.22Z"/>
		<path class="cls-2" d="M152.29,230.85c-.7.21-1.39.42-2.08.61C150.9,231.27,151.59,231.06,152.29,230.85Z"/>
		<path class="cls-2" d="M149.44,231.67l-2,.54Z"/>
		<path class="cls-2" d="M146.58,232.42l-2,.47Z"/>
		<path class="cls-2" d="M168.82,12c.78.37,1.55.75,2.32,1.14C170.37,12.74,169.6,12.36,168.82,12Z"/>
		<path class="cls-2" d="M155.08,230l-2.12.68Z"/>
		<path class="cls-2" d="M157.85,229c-.72.25-1.44.51-2.17.75C156.41,229.53,157.13,229.27,157.85,229Z"/>
		<path class="cls-2" d="M173.85,14.53c.78.43,1.56.86,2.33,1.3C175.41,15.39,174.63,15,173.85,14.53Z"/>
		<path class="cls-2" d="M178.73,17.31c.78.47,1.56,1,2.33,1.44C180.29,18.26,179.51,17.78,178.73,17.31Z"/>
		<path class="cls-2" d="M160.58,228l-2.21.83Z"/>
		<path class="cls-2" d="M163.27,226.93c-.74.3-1.49.61-2.24.9C161.78,227.54,162.53,227.23,163.27,226.93Z"/>
		<path class="cls-2" d="M165.94,225.78c-.75.33-1.51.66-2.28,1C164.43,226.44,165.19,226.11,165.94,225.78Z"/>
		<path class="cls-2" d="M176.3,15.89c.79.45,1.57.91,2.35,1.38C177.87,16.8,177.09,16.34,176.3,15.89Z"/>
		<path class="cls-2" d="M128.74,235.39l-1.52.14Z"/>
		<path class="cls-2" d="M60.24,15.83c.78-.44,1.57-.87,2.36-1.3C61.81,15,61,15.39,60.24,15.83Z"/>
		<path class="cls-2" d="M57.78,17.27c.78-.47,1.56-.93,2.36-1.38C59.34,16.34,58.56,16.8,57.78,17.27Z"/>
		<path class="cls-2" d="M114.11.65l1.09,0Z"/>
		<path class="cls-2" d="M65.29,13.13,67.62,12Z"/>
		<path class="cls-2" d="M110.76.81,112.2.72Z"/>
		<path class="cls-2" d="M67.86,11.87l2.32-1.07Z"/>
		<path class="cls-2" d="M62.74,14.46c.78-.42,1.56-.83,2.35-1.23C64.3,13.63,63.52,14,62.74,14.46Z"/>
		<polygon class="cls-2" points="118.22 0.57 118.21 0.57 118.22 0.57 118.22 0.57"/>
		<path class="cls-2" d="M124.24.72l1.42.09Z"/>
		<path class="cls-2" d="M57.71,219.13c-.78-.47-1.56-.95-2.33-1.44C56.15,218.18,56.93,218.66,57.71,219.13Z"/>
		<path class="cls-2" d="M53,216.13A118.87,118.87,0,0,1,35.65,202,118.87,118.87,0,0,0,53,216.13Z"/>
		<path class="cls-2" d="M55.33,217.65c-.79-.49-1.56-1-2.33-1.51C53.77,216.65,54.54,217.16,55.33,217.65Z"/>
		<path class="cls-2" d="M53,20.31q1.15-.78,2.34-1.53Q54.15,19.53,53,20.31Z"/>
		<path class="cls-2" d="M121.24.61l1.08,0Z"/>
		<path class="cls-2" d="M55.37,18.76c.77-.49,1.56-1,2.35-1.45C56.93,17.78,56.14,18.27,55.37,18.76Z"/>
		<path class="cls-2" d="M87,4.77l2-.54Z"/>
		<path class="cls-2" d="M84.14,5.59c.7-.21,1.39-.42,2.09-.61C85.53,5.17,84.84,5.38,84.14,5.59Z"/>
		<path class="cls-2" d="M98.63,2.2l1.78-.29Z"/>
		<path class="cls-2" d="M89.85,4c.65-.17,1.31-.33,2-.48C91.16,3.7,90.5,3.86,89.85,4Z"/>
		<path class="cls-2" d="M101.6,1.75l1.72-.24Z"/>
		<path class="cls-2" d="M92.74,3.35c.64-.14,1.28-.29,1.92-.42C94,3.06,93.38,3.21,92.74,3.35Z"/>
		<path class="cls-2" d="M104.65,1.36l1.61-.19Z"/>
		<path class="cls-2" d="M75.84,8.44l2.23-.83Z"/>
		<path class="cls-2" d="M73.15,9.52c.75-.31,1.5-.62,2.26-.91C74.65,8.9,73.9,9.21,73.15,9.52Z"/>
		<path class="cls-2" d="M81.34,6.48l2.14-.69Z"/>
		<path class="cls-2" d="M107.69,1.05l1.53-.14Z"/>
		<path class="cls-2" d="M70.48,10.67l2.3-1Z"/>
		<path class="cls-2" d="M78.58,7.43c.72-.26,1.45-.52,2.18-.76C80,6.91,79.3,7.17,78.58,7.43Z"/>
		<path class="cls-2" d="M153,5.79l2.12.68Z"/>
		<path class="cls-2" d="M144.62,3.55l2,.47Z"/>
		<path class="cls-2" d="M94.66,233.51l-1.91-.42Z"/>
		<path class="cls-2" d="M91.82,232.89l-2-.47Z"/>
		<path class="cls-2" d="M89,232.21l-2-.54Z"/>
		<path class="cls-2" d="M86.23,231.46c-.7-.19-1.39-.4-2.08-.61C84.84,231.06,85.53,231.27,86.23,231.46Z"/>
		<path class="cls-2" d="M141.78,2.93c.64.13,1.27.27,1.91.42C143.05,3.21,142.42,3.06,141.78,2.93Z"/>
		<path class="cls-2" d="M147.43,4.23q1,.25,2,.54Q148.44,4.49,147.43,4.23Z"/>
		<path class="cls-2" d="M150.21,5c.69.19,1.38.4,2.08.61C151.59,5.38,150.9,5.17,150.21,5Z"/>
		<path class="cls-2" d="M103.32,234.93l-1.72-.24Z"/>
		<path class="cls-2" d="M106.26,235.26c-.54,0-1.08-.12-1.61-.18C105.18,235.14,105.72,235.21,106.26,235.26Z"/>
		<path class="cls-2" d="M100.41,234.53l-1.78-.3Z"/>
		<path class="cls-2" d="M97.52,234.05l-1.85-.35Z"/>
		<path class="cls-2" d="M83.48,230.65,81.36,230Z"/>
		<path class="cls-2" d="M127.22.91l1.52.14Z"/>
		<path class="cls-2" d="M80.76,229.77c-.73-.24-1.45-.5-2.17-.75C79.31,229.27,80,229.53,80.76,229.77Z"/>
		<path class="cls-2" d="M65.09,223.21c-.79-.4-1.56-.81-2.34-1.22C63.53,222.4,64.3,222.81,65.09,223.21Z"/>
		<path class="cls-2" d="M133.12,1.51l1.7.23Z"/>
		<path class="cls-2" d="M67.62,224.45c-.78-.37-1.55-.75-2.32-1.14C66.07,223.7,66.84,224.08,67.62,224.45Z"/>
		<path class="cls-2" d="M60.13,220.54c-.78-.44-1.57-.9-2.34-1.37C58.56,219.64,59.35,220.1,60.13,220.54Z"/>
		<path class="cls-2" d="M62.59,221.91l-2.34-1.3Z"/>
		<path class="cls-2" d="M130.18,1.17l1.6.18Z"/>
		<path class="cls-2" d="M75.41,227.83c-.76-.29-1.5-.6-2.25-.91C73.91,227.23,74.65,227.54,75.41,227.83Z"/>
		<path class="cls-2" d="M78.07,228.83c-.75-.27-1.48-.55-2.22-.83C76.59,228.28,77.32,228.56,78.07,228.83Z"/>
		<path class="cls-2" d="M70.18,225.64l-2.31-1.07Z"/>
		<path class="cls-2" d="M138.92,2.39l1.84.35Z"/>
		<path class="cls-2" d="M72.78,226.76l-2.29-1Z"/>
		<path class="cls-2" d="M136,1.91l1.76.29Z"/>
		<ellipse class="cls-2" cx="117.58" cy="118.22" rx="65.17" ry="116.55"/>
		<path class="cls-2" d="M.57,118.22h235.3"/>
		<line class="cls-2" x1="118.22" y1="0.57" x2="118.22" y2="235.87"/>
	</g>
</svg>