<svg width="36" height="21" viewBox="0 0 36 21" fill="none" xmlns="http://www.w3.org/2000/svg">
  <g clip-path="url(#clip0_1_303670)">
    <g clip-path="url(#clip1_1_303670)">
      <path
        d="M10.1676 15.3311C8.72019 15.3311 7.55078 16.5204 7.55078 17.9804C7.55078 19.4404 8.72837 20.6298 10.1676 20.6298C11.6069 20.6298 12.7845 19.4404 12.7845 17.9804C12.7845 16.5204 11.6069 15.3311 10.1676 15.3311ZM11.5333 17.9804C11.5333 18.7432 10.92 19.3666 10.1676 19.3666C9.41529 19.3666 8.80196 18.7432 8.80196 17.9804C8.80196 17.2176 9.41529 16.5942 10.1676 16.5942C10.92 16.5942 11.5333 17.2176 11.5333 17.9804Z"
        fill="#003527" stroke="#003527" stroke-width="0.315789" />
      <path
        d="M29.4098 15.3311C27.9624 15.3311 26.793 16.5204 26.793 17.9804C26.793 19.4404 27.9706 20.6298 29.4098 20.6298C30.8491 20.6298 32.0267 19.4404 32.0267 17.9804C32.0267 16.5204 30.8491 15.3311 29.4098 15.3311ZM30.7755 17.9804C30.7755 18.7432 30.1622 19.3666 29.4098 19.3666C28.6575 19.3666 28.0442 18.7432 28.0442 17.9804C28.0442 17.2176 28.6575 16.5942 29.4098 16.5942C30.1622 16.5942 30.7755 17.2176 30.7755 17.9804Z"
        fill="#003527" stroke="#003527" stroke-width="0.315789" />
      <path d="M13.6585 5.34668H2.84766V7.57771H13.6585V5.34668Z" fill="#003527" />
      <path d="M11.4437 8.92188H0.632812V11.1529H11.4437V8.92188Z" fill="#003527" />
      <path
        d="M4.64062 4.41115H6.85677V2.86092H20.4971V15.1398H12.9001L13.3335 15.7796C13.5952 16.1651 13.7833 16.5916 13.8977 17.0591L13.9713 17.3708H22.7051V0.629883H4.64062V4.41115Z"
        fill="#003527" />
      <path
        d="M4.64099 16.7632H6.51368L6.61999 16.509C6.67723 16.3695 6.73447 16.2383 6.79989 16.1152L6.84896 16.025V12.252H4.63281V16.7632H4.64099Z"
        fill="#003527" />
      <path
        d="M31.1027 4.68983L30.8001 4.9605L31.0782 4.65702L30.9555 4.51758H23.8164V15.5907L25.5582 17.3706L25.7709 16.739C25.9181 16.3125 26.1307 15.9188 26.4005 15.5661L26.6213 15.279L26.0244 14.6721V6.74861H29.9578L33.785 11.063V14.4424L32.174 15.2544L32.4684 15.6481C32.7301 16.0008 32.9263 16.3781 33.0572 16.7801L33.2044 17.2312L36.0011 15.8204V10.2182L31.1027 4.68983Z"
        fill="#003527" />
    </g>
  </g>
  <defs>
    <clipPath id="clip0_1_303670">
      <rect width="36" height="20.8421" fill="white" />
    </clipPath>
    <clipPath id="clip1_1_303670">
      <rect width="36" height="20.8421" fill="white" />
    </clipPath>
  </defs>
</svg>