<svg width="21" height="24" viewBox="0 0 21 24" fill="none" xmlns="http://www.w3.org/2000/svg">
  <g clip-path="url(#clip0_1_306471)">
    <path fill-rule="evenodd" clip-rule="evenodd"
      d="M9.50032 10.9666L1.25874 6.62076L2.1668 5.10313L11.3545 9.94791V21.1971L10.3639 21.8571L9.50032 21.1971V10.9666Z"
      fill="black" />
    <path fill-rule="evenodd" clip-rule="evenodd"
      d="M9.9942 9.68781L19.2558 5.09248L20.1222 6.63141L10.8606 11.2267L9.9942 9.68781Z" fill="black" />
    <path fill-rule="evenodd" clip-rule="evenodd"
      d="M15.2186 4.07232L5.95696 8.67636L5.08926 7.13807L14.3509 2.53403L15.2186 4.07232Z" fill="black" />
    <path d="M6.6078 12.5025L4.42914 11.4843V7.28571L6.6078 8.412V12.5025Z" fill="black" />
    <path fill-rule="evenodd" clip-rule="evenodd"
      d="M10.324 0.0351562L20.9962 5.28311V17.6291L10.3639 23.3327L0.136719 18.5322V5.29512L10.324 0.0351562ZM10.3454 2.01067L1.9909 6.32432V17.4564L10.3055 21.3592L19.142 16.6189V6.33633L10.3454 2.01067Z"
      fill="black" />
  </g>
  <defs>
    <clipPath id="clip0_1_306471">
      <rect width="21" height="24" fill="white" />
    </clipPath>
  </defs>
</svg>