<svg width="24" height="23" viewBox="0 0 24 23" fill="none" xmlns="http://www.w3.org/2000/svg">
  <path fill-rule="evenodd" clip-rule="evenodd"
    d="M2.75765 2.1277H0.765625V0.00292969H4.44977L5.30016 4.37995H23.0781V16.7355H5.59573L2.75765 2.1277ZM5.71298 6.50472L7.28786 14.6107H21.0141V6.50472H5.71298Z"
    fill="#003527" />
  <path
    d="M8.56778 22.9717C9.74192 22.9717 10.6938 21.9918 10.6938 20.7832C10.6938 19.5745 9.74192 18.5947 8.56778 18.5947C7.39363 18.5947 6.44179 19.5745 6.44179 20.7832C6.44179 21.9918 7.39363 22.9717 8.56778 22.9717Z"
    fill="#003527" />
  <path
    d="M18.5062 22.9717C19.6804 22.9717 20.6322 21.9918 20.6322 20.7832C20.6322 19.5745 19.6804 18.5947 18.5062 18.5947C17.3321 18.5947 16.3802 19.5745 16.3802 20.7832C16.3802 21.9918 17.3321 22.9717 18.5062 22.9717Z"
    fill="#003527" />
</svg>