<svg width="23" height="23" viewBox="0 0 23 23" fill="none" xmlns="http://www.w3.org/2000/svg">
  <g opacity="0.4">
    <path fill-rule="evenodd" clip-rule="evenodd"
      d="M2.25765 2.1277H0.265625V0.00292969H3.94977L4.80016 4.37995H22.5781V16.7355H5.09573L2.25765 2.1277ZM5.21298 6.50472L6.78786 14.6107H20.5141V6.50472H5.21298Z"
      fill="black" />
    <path
      d="M8.06778 22.9717C9.24192 22.9717 10.1938 21.9918 10.1938 20.7832C10.1938 19.5745 9.24192 18.5947 8.06778 18.5947C6.89363 18.5947 5.94179 19.5745 5.94179 20.7832C5.94179 21.9918 6.89363 22.9717 8.06778 22.9717Z"
      fill="black" />
    <path
      d="M18.0062 22.9717C19.1804 22.9717 20.1322 21.9918 20.1322 20.7832C20.1322 19.5745 19.1804 18.5947 18.0062 18.5947C16.8321 18.5947 15.8802 19.5745 15.8802 20.7832C15.8802 21.9918 16.8321 22.9717 18.0062 22.9717Z"
      fill="black" />
  </g>
</svg>