<?xml version="1.0" encoding="utf-8"?>
<!-- Generator: Adobe Illustrator 26.2.1, SVG Export Plug-In . SVG Version: 6.00 Build 0)  -->
<svg version="1.1" id="content" xmlns="http://www.w3.org/2000/svg" xmlns:xlink="http://www.w3.org/1999/xlink" x="0px" y="0px"
	 viewBox="0 0 111 35" style="enable-background:new 0 0 111 35;" xml:space="preserve" width="111" height="35">
<style type="text/css">
	.st0{fill:#ffffff;}
</style>
<g id="logo">
	<!--<g id="copy">
		<path class="st0" d="M3.8,4C3.7,4.3,2.7,6.3,2.6,6.4c0,0.1-0.1,0.2-0.1,0.4c0,0.1,0.1,0.4,0.1,0.4c0,0.1-0.1,0.2-0.2,0.2l0,0
			c-0.2,0-1.2-0.1-1.6-2.1C0.7,4.6,0.6,4,0.6,3.3c0-0.6-0.1-1.1-0.5-1.6c0.5,0.1,1,0.5,1,1c0,0.1,0,0.3-0.1,0.4
			c0,0.3-0.1,0.5-0.1,0.8c0,0.5,0.1,1.9,0.7,2.3c0,0,0.1,0.1,0.2,0.1S2,6.2,2,6.1c0.9-0.9,0.9-1,1.6-2L3.7,4H3.8z M5.9,5.1L6.8,5
			C6.9,5,7,4.9,7,4.8C6.8,3.8,6.2,3,5.3,2.6c0.1,0,0.2-0.1,0.3-0.1C6,2.5,6.4,2.7,6.7,3c0.6,0.6,0.9,1.4,1,2.2c0,0.3-0.1,0.6-0.3,0.6
			s-0.1,0-0.3-0.2C6.7,5.4,6.3,5.2,5.9,5.1L5.9,5.1z"/>
		<path class="st0" d="M14,1.2c0-0.4-0.1-0.4-0.7-0.7c0.1-0.1,0.3-0.1,0.5-0.1c0.5,0,0.9,0.3,0.9,0.6c0,0,0,0.2-0.1,0.4
			s-0.1,0.4-0.1,0.7C15,2,15.5,1.9,16,1.7c0.1,0,0.2-0.1,0.2-0.1c0.2,0,0.5,0.2,0.5,0.3c0,0.1-0.1,0.2-0.2,0.2
			c-0.7,0.2-1.4,0.4-2.1,0.5c0,0.4,0,1,0,1.5c0.4-0.1,0.8-0.2,1.2-0.4c0.1,0,0.1,0,0.2,0c0.2,0,0.5,0.1,0.5,0.3s-0.1,0.1-0.2,0.1
			s-1,0.2-1.7,0.4c0,0.4,0.1,1.7,0.1,2.2c1.1,0.3,2,0.7,2,1.2c0,0.1-0.1,0.3-0.2,0.3l0,0c-0.1,0-0.1,0-0.4-0.2
			c-0.4-0.3-0.9-0.5-1.3-0.6c0,0.3-0.1,0.7-0.4,0.9c-0.3,0.2-0.7,0.3-1.2,0.3c-1,0-1.6-0.5-1.6-0.9c0-0.3,0.2-0.5,0.5-0.7
			c0.5-0.2,1.1-0.3,1.6-0.3H14c0-0.3-0.1-1.7-0.1-2c-0.5,0.1-0.9,0.1-1.4,0.1c-0.6,0-0.9-0.1-0.9-0.4c0-0.2,0.2-0.4,0.5-0.5
			C12,4,12,4.1,11.9,4.2c0,0.2,0.2,0.2,0.7,0.2s0.9,0,1.3-0.1c0-0.5,0-0.8,0-1.5C13.5,2.8,12.3,3,12,3c-0.5,0-1-0.2-1.3-0.6
			c0.4,0.2,0.8,0.2,1.2,0.2c0.7,0,1.3-0.1,1.9-0.2C14,2,14,1.4,14,1.2z M13,6.9c-0.6,0-1.2,0.2-1.2,0.5s0.4,0.5,1.1,0.5
			c0.4,0,1.2-0.1,1.1-0.9C13.7,6.9,13.4,6.9,13,6.9L13,6.9z"/>
		<path class="st0" d="M20,6.2c0.7,0.1,1.3,0.3,1.8,0.7c0.3,0.3,0.5,0.7,0.5,1.1c0,0.3-0.2,0.5-0.4,0.5S21.7,8.4,21.5,8
			C21,7.1,20.8,6.7,20,6.2L20,6.2z"/>
		<path class="st0" d="M26.9,3.2c0.7,0,1.6,0.2,1.6,0.9c0,0,0,0.2-0.2,0.2s-0.2-0.1-0.4-0.2c-0.5-0.4-1.1-0.7-1.8-0.9
			C26.4,3.2,26.6,3.2,26.9,3.2z M27.7,1.2c0.9,0,1.7,0.3,1.7,0.9c0,0.2-0.1,0.3-0.2,0.3s-0.2,0-0.3-0.2c-0.5-0.4-1-0.8-1.7-1
			L27.7,1.2z M33.2,2.9c-1.1,1.8-2.5,3.4-4.3,4.5c-0.3,0.2-0.5,0.3-0.7,0.6c0,0-0.1,0.1-0.2,0.1c-0.2,0-0.6-0.5-0.7-0.5
			c-0.2-0.3-0.2-0.6-0.2-0.9c0.2,0.3,0.4,0.5,0.7,0.6C28.5,7.2,31.4,4.9,33.2,2.9L33.2,2.9z"/>
		<path class="st0" d="M39.1,2.5c0,0.2-0.1,0.3-0.3,0.3c-0.2,0-0.2-0.1-0.5-0.4c-0.4-0.4-1-0.8-1.5-1C37.9,1.5,39.1,1.9,39.1,2.5z
			 M43.1,2.4c-0.7,1.4-1.8,2.6-3,3.5c-0.4,0.4-0.8,0.6-1.3,1c-0.2,0.2-0.4,0.4-0.6,0.6c-0.1,0.1-0.2,0.1-0.3,0.1
			c-0.3,0-0.9-0.7-0.9-1.1c0-0.2,0-0.3,0.1-0.4c0.2,0.4,0.4,0.6,0.6,0.6c0.6-0.3,1.1-0.6,1.6-1C40.7,4.8,41.9,3.6,43.1,2.4L43.1,2.4z
			"/>
		<path class="st0" d="M47.4,8.2c1.1-0.6,2-1.4,2.8-2.4c0.7-1,1.2-2.1,1.4-3.3c-1.4,0.1-2.7,0.3-4.1,0.5c-0.1,0-0.2,0.1-0.3,0.2
			c-0.1,0-0.1,0.1-0.2,0.1S46.7,3.1,46.6,3c-0.2-0.2-0.3-0.4-0.3-0.7c0-0.1,0-0.2,0.1-0.3c0.1,0.2,0.3,0.3,0.5,0.5
			c0.1,0.1,0.3,0.1,0.4,0.1c0.4,0,4-0.3,4.2-0.4S51.8,2,51.9,2s0.7,0.5,0.7,0.7s0,0.1-0.3,0.2S52.1,3.1,52,3.3c-0.4,1.3-1,2.5-2,3.5
			C49.3,7.5,48.4,8,47.4,8.2L47.4,8.2z M53.3,2.2c-0.5,0-0.9-0.4-0.9-0.9s0.4-0.9,0.9-0.9s0.9,0.4,0.9,0.9S53.8,2.2,53.3,2.2z
			 M53.3,0.7c-0.3,0-0.6,0.3-0.6,0.6s0.2,0.6,0.6,0.6l0,0c0.3,0,0.6-0.3,0.6-0.6C53.9,0.9,53.6,0.7,53.3,0.7L53.3,0.7L53.3,0.7z"/>
		<path class="st0" d="M56,7.8c0.6-0.5,1-1.1,1.3-1.8c0.4-0.9,0.5-1.8,0.5-2.7c0-0.8,0-0.9-0.7-1c0.1-0.2,0.3-0.2,0.5-0.3
			c0.3,0,0.8,0.2,0.8,0.5l-0.1,0.3c0,0.1,0,0.8,0,0.9c0,1.1-0.4,2.2-1,3.1C57,7.3,56.6,7.6,56,7.8L56,7.8z M63.7,3.4
			c-0.6,1.3-1.5,2.4-2.6,3.2C61,6.7,60.5,7,60.4,7.1c-0.2,0.3-0.3,0.3-0.3,0.3s-0.5-0.7-0.5-0.8s0.1-0.3,0.1-0.4
			c0.1-0.7,0.1-1.4,0.1-2.1c0-0.4,0-1.8,0-2.2c0-0.3-0.1-0.3-0.6-0.6c0.1-0.1,0.3-0.2,0.4-0.2c0.3,0.1,0.6,0.2,0.8,0.4
			c0.1,0,0.1,0.1,0.1,0.2S60.4,1.9,60.4,2c-0.1,0.2-0.1,0.5-0.1,0.7c0,0.6,0,2.7,0,3.4c0,0.1,0,0.2,0,0.2C61.6,5.8,62.8,4.7,63.7,3.4
			L63.7,3.4z"/>
		<path class="st0" d="M67.9,6.7c0.9,0.6,1,0.7,1.2,0.7s0.3-0.1,0.4-0.3c0.4-0.9,0.7-1.9,0.7-2.9c0-0.4,0-1.1-0.7-1.1
			c-0.3,0-0.6,0.1-0.8,0.2c-0.6,1.6-1.3,3.2-2.2,4.7c0,0.1-0.1,0.1-0.2,0.1c-0.1,0-0.2-0.3-0.2-0.4c0-0.1,0-0.2,0.3-0.7
			c0.7-1.1,1.3-2.4,1.8-3.6c-0.5,0.1-0.9,0.4-1.4,0.6c-0.1,0.1-0.2,0.1-0.4,0.2c-0.4-0.1-0.7-0.5-0.8-0.9c0-0.1,0-0.2,0-0.2
			c0.2,0.4,0.4,0.5,0.6,0.5s0.3,0,0.5-0.1l1.5-0.4c0.2-0.5,0.4-1,0.5-1.6c0-0.4-0.6-0.6-0.7-0.7c0.1-0.1,0.2-0.1,0.4-0.1
			c0.4,0,1.1,0.3,1.1,0.6c0,0.1,0,0.2-0.1,0.3C69.2,2,69,2.5,68.8,2.9c0.2-0.1,0.5-0.1,0.7-0.1c1.1,0,1.1,1,1.1,1.5
			c0,0.9-0.3,3.1-1.3,3.8c-0.1,0.1-0.3,0.2-0.5,0.2c-0.1,0-0.1,0-0.2-0.4C68.4,7.5,68.1,7.1,67.9,6.7L67.9,6.7z M71.8,4.9
			c0.3,0,0.7-0.1,1-0.2c0.1,0,0.2-0.2,0.2-0.3c-0.4-0.8-1.1-1.5-1.8-1.9c0.8,0,2.6,1.3,2.6,2.4c0,0.2,0,0.4-0.2,0.4
			c-0.1-0.1-0.3-0.1-0.4-0.2C73,5.1,72,5,71.8,4.9L71.8,4.9z M71.8,1.6c0.4,0,1.5,0.3,1.5,0.8c0,0.1-0.1,0.2-0.2,0.2
			c-0.1,0-0.3-0.3-0.4-0.3c-0.4-0.3-0.8-0.5-1.2-0.7C71.6,1.6,71.7,1.6,71.8,1.6z M72.8,0.8c0.4,0,1.5,0.1,1.5,0.8
			c0,0.1,0,0.2-0.2,0.2s-0.4-0.3-0.5-0.4c-0.4-0.3-0.9-0.5-1.4-0.6C72.4,0.9,72.6,0.8,72.8,0.8L72.8,0.8z"/>
		<path class="st0" d="M83.3,8.6c-0.8-0.1-1.5-0.4-2.2-0.9c-0.6-0.4-1.1-1-1.3-1.7h-0.2c-0.2,0.9-0.8,1.6-1.6,2
			c-0.7,0.4-1.5,0.6-2.3,0.7V8.6c1-0.2,1.9-0.7,2.7-1.4C78.8,6.9,79,6.4,79.1,6h-2.2c-0.4,0-0.8,0-1.2,0.1l-0.2-0.4
			c0.7,0,1.4,0.1,1.6,0.1h2.1c0.1-0.3,0.1-0.6,0.1-0.9c0-0.1,0-0.3,0-0.4h-2.2c-0.4,0-0.8,0-1.2,0.1l-0.2-0.4c0.7,0,1.4,0.1,1.6,0.1
			h2.2V3.1h-1.7c-0.4,0-0.8,0-1.2,0.1l-0.2-0.4c0.7,0.1,1.4,0.1,1.6,0.1h1.3V2h-2c-0.4,0-0.8,0-1.2,0.1l-0.3-0.4
			c0.7,0.1,1.4,0.1,1.6,0.1h2.8c0.2-0.4,0.3-0.8,0.5-1.2c0.1-0.2,0.1-0.4,0.2-0.6l0.8,0.4l0.1,0.1c0,0.1,0,0.1-0.1,0.1l-0.3,0.1
			c-0.4,0.3-0.5,0.5-1,0.9h2l0.3-0.4c0.1-0.1,0.1-0.1,0.2-0.1c0.1,0,0.1,0.1,0.2,0.1l0.3,0.3c0.1,0.1,0.1,0.1,0.1,0.2
			s-0.1,0.1-0.2,0.1h-3.5v0.9h1.9l0.1-0.2c0.1-0.1,0.1-0.1,0.2-0.1c0.1,0,0.1,0,0.2,0.1l0.3,0.3l0.1,0.1C82.6,3,82.5,3,82.5,3h-2.7
			v1.1h3l0.3-0.4c0,0,0.1-0.1,0.2-0.1c0.1,0,0.1,0.1,0.2,0.1l0.4,0.4C84,4.2,84,4.2,84,4.3s-0.1,0.1-0.1,0.1h-4.6l0.6,0.1
			c0.1,0,0.2,0.1,0.2,0.1l-0.2,0.2c0,0.3,0,0.5-0.1,0.8h2.9L83,5.2c0.1-0.1,0.1-0.1,0.2-0.1c0.1,0,0.2,0.1,0.2,0.1l0.5,0.4
			c0,0,0.1,0.1,0.1,0.2c0,0.1-0.1,0.1-0.2,0.1H80c0.8,1.3,2.2,2,3.7,2h0.4V8C83.7,8.2,83.5,8.4,83.3,8.6z M78.5,1.5
			c-0.2,0-0.3-0.2-0.5-0.4c-0.1-0.3-0.3-0.5-0.6-0.7V0.3c1.1,0.1,1.3,0.7,1.3,0.9C78.8,1.3,78.7,1.5,78.5,1.5L78.5,1.5z"/>
		<path class="st0" d="M93.4,6.2c-0.8,1.3-2.2,2.1-3.8,2.2c-0.5,0-1-0.1-1.4-0.4c-0.3-0.6-0.5-1.3-0.4-1.9c0-0.1,0-2,0.1-2.3
			C88,3.5,88,2.2,88,2c0-0.8-0.3-0.9-0.7-1c0.1-0.1,0.3-0.2,0.4-0.2c0.4,0,0.9,0.5,0.9,0.7c0,0.1,0,0.3-0.1,0.5
			c-0.2,1.4-0.3,2.8-0.3,4.2c0,0.5,0,1,0.2,1.4C88.6,7.9,89,8,89.3,7.9C90.8,7.8,92.2,7.2,93.4,6.2L93.4,6.2z"/>
		<path class="st0" d="M99.6,4c-0.1,0.3-1.1,2.3-1.2,2.4c0,0.1-0.1,0.2-0.1,0.4c0,0.1,0.1,0.4,0.1,0.4c0,0.1-0.1,0.2-0.2,0.2l0,0
			c-0.2,0-1.2-0.1-1.7-2.1c-0.1-0.7-0.2-1.3-0.2-2c0-0.6-0.1-1.1-0.4-1.6c0.5,0.1,0.9,0.5,1,1c0,0.1,0,0.3-0.1,0.4
			c0,0.3-0.1,0.5-0.1,0.8c0,0.8,0.2,1.7,0.7,2.3c0,0,0.1,0.1,0.2,0.1c0.1,0,0.2-0.1,0.2-0.2c0.7-1.1,0.8-1.2,1.4-2.2l0.1-0.1L99.6,4z
			 M101.8,5.1l0.9-0.1c0.1,0,0.2-0.1,0.2-0.2c-0.2-1-0.8-1.8-1.8-2.2c0.1,0,0.2,0,0.3-0.1c0.4,0,0.8,0.2,1,0.6c0.6,0.6,0.9,1.4,1,2.2
			c0,0.3-0.1,0.6-0.3,0.6s-0.1,0-0.3-0.2C102.6,5.4,102.2,5.2,101.8,5.1L101.8,5.1z"/>
		<path class="st0" d="M105.8,7.1c0-0.8,0.6-1.4,1.4-1.4c0.8,0,1.4,0.6,1.4,1.4c0,0.8-0.6,1.4-1.4,1.4l0,0
			C106.4,8.5,105.8,7.9,105.8,7.1z M108.3,7.1c0-0.6-0.5-1.1-1.1-1.1s-1.1,0.5-1.1,1.1s0.5,1.1,1.1,1.1l0,0
			C107.8,8.2,108.2,7.7,108.3,7.1L108.3,7.1z"/>
	</g>-->

	<path class="st0" d="M8.2,34.9c0.8,0,1.5-0.6,1.5-1.4l0,0C9.7,32.7,9,32,8.2,32s-1.5,0.7-1.5,1.5C6.7,34.3,7.4,34.9,8.2,34.9
		L8.2,34.9"/>
	<path class="st0" d="M77.2,34.9c0.8,0,1.5-0.7,1.5-1.5c0-0.8-0.7-1.5-1.5-1.5s-1.5,0.7-1.5,1.5C75.7,34.3,76.4,34.9,77.2,34.9
		L77.2,34.9"/>
	<path class="st0" d="M108.8,34.9c0.8,0,1.5-0.6,1.5-1.4l0,0c0-0.8-0.7-1.5-1.5-1.5l0,0c-0.8,0-1.5,0.7-1.5,1.5S108,34.9,108.8,34.9
		"/>
	<path class="st0" d="M45.5,34.9c0.8,0,1.5-0.6,1.5-1.5l0,0c0-0.8-0.7-1.5-1.5-1.5S44,32.6,44,33.4C44,34.3,44.7,34.9,45.5,34.9"/>
	<path class="st0" d="M6.2,15.2H0l0,0c0.4,0,0.8,0.3,0.8,1v17.3c0.1,0.5-0.3,0.9-0.8,1l0,0h4.2l0,0c-0.5-0.1-0.9-0.5-0.8-1l0,0v-6.3
		h2.8c3.8,0,6.4-2.4,6.4-6S10,15.2,6.2,15.2 M6.2,25.2H3.4v-8h2.8c2.1-0.1,3.8,1.6,3.9,3.6c0,0.1,0,0.3,0,0.4c0.2,2.1-1.4,3.8-3.4,4
		C6.4,25.2,6.3,25.2,6.2,25.2"/>
	<path class="st0" d="M98.4,15.2h-5.7l0,0c0.5,0.1,0.8,0.5,0.8,1l0,0v17.4c0.1,0.5-0.3,0.9-0.8,1l0,0l0,0h5.7c5.3,0,7.9-4.4,7.9-9.7
		S103.7,15.2,98.4,15.2 M98.5,32.5h-2.3V17.3h2.3c4.1,0,5.2,4.6,5.2,7.6S102.6,32.6,98.5,32.5"/>
	<path class="st0" d="M35.8,14.8c-4.6,0-7.2,4-7.2,10.1S31.3,35,35.8,35c4.3,0,6.7-3.3,6.8-8.3c0-0.7,0-0.5,0-0.6v-1.8h-5.3
		c-0.5,0.1-0.9-0.3-1-0.8l0,0v3.6l0,0c0.1-0.5,0.5-0.8,1-0.8h2.6v0.4c0,3.5-1,6.1-4.2,6.1c-3.5,0-4.6-3.8-4.6-8.1s1.1-8.1,4.6-8.1
		c1.8,0,3.4,1.2,3.7,3c0.2,0.4-0.1,0.9-0.5,1.1h-0.1l0,0h4l0,0c-0.5-0.1-0.7-0.4-0.8-0.9C41.3,16.7,39.1,14.8,35.8,14.8"/>
	<path class="st0" d="M60.7,24.9c0,6.1,2.5,10.1,7,10.1c3.2,0,5.4-1.9,6.2-5.3c0.1-0.5,0.3-0.8,0.8-0.9l0,0h-4l0,0
		c0.5,0.1,0.7,0.6,0.6,1v0.1c-0.3,1.7-1.8,3-3.5,3c-3,0-4.3-3.8-4.3-8l0,0c0-4.3,1.3-8.1,4.3-8.1c1.7,0,3.2,1.3,3.5,3
		c0.2,0.4-0.1,0.9-0.5,1.1c0,0,0,0-0.1,0l0,0h4.1l0,0c-0.5-0.1-0.7-0.4-0.8-0.9c-0.8-3.4-3-5.3-6.2-5.3
		C63.3,14.7,60.8,18.7,60.7,24.9L60.7,24.9z"/>
</g>
</svg>
