<?xml version="1.0" encoding="utf-8"?>
<!-- Generator: Adobe Illustrator 25.2.1, SVG Export Plug-In . SVG Version: 6.00 Build 0)  -->
<svg version="1.1" id="content" xmlns="http://www.w3.org/2000/svg" xmlns:xlink="http://www.w3.org/1999/xlink" x="0px" y="0px"
	 viewBox="0 0 398 88" style="enable-background:new 0 0 398 88;" xml:space="preserve" width="398" height="88">
<style type="text/css">
	.st0{fill:#E60001;}
</style>
<g id="text">
	<path d="M77.5,4.7H61.8c-1.3,3.2-2.8,6.4-4.5,9.4l0.5,0.3h13l0.6-0.8c0.2-0.2,0.4-0.5,0.6-0.5s0.4,0.2,0.6,0.4l1.1,0.9
		c0.2,0.2,0.6,0.3,0.6,0.6s-0.4,0.6-1.3,1.2c0,1,0.1,6.1,0.2,7.2c0,0.7,0.3,5.8,0.3,5.9c0,0.7-0.2,1-0.3,1.1c-0.3,0.3-0.6,0.4-1,0.5
		c-1,0-1-0.7-1-1s0.1-1.4,0.1-1.7H57.6c0,1.7,0,1.8-0.2,2.2c-0.2,0.5-0.7,0.7-1.2,0.7c-0.8,0-0.8-0.5-0.8-0.8s0.1-2,0.1-2.4
		c0.1-2.6,0.1-3.1,0.2-11.4c-4,6.2-6.6,7.8-8.6,8.7l-0.1-0.2c3-2.7,5.4-5.9,7.3-9.5c2-3.5,3.7-7.2,4.9-11h-6.3
		c-1.5,0-2.9,0.2-4.4,0.4l-0.8-1.5c1.8,0.1,3.9,0.2,5.7,0.2h19.8l1.2-1.6c0.1-0.2,0.3-0.4,0.6-0.4c0.2,0,0.5,0.2,0.6,0.3l2,1.6
		c0.1,0.1,0.4,0.3,0.4,0.6S77.7,4.7,77.5,4.7z M71.3,15.3H57.6v12.3h13.6V15.3z"/>
	<path d="M98.3,5.8h-7.2c0,0.6,0,3.1,0,3.6h3.5l0.6-0.7c0.1-0.1,0.2-0.3,0.4-0.3s0.2,0,0.6,0.3l0.8,0.6c0.4,0.3,0.5,0.4,0.5,0.6
		s0,0.2-0.2,0.3s-0.4,0.3-0.6,0.5c0,1-0.1,2.1-0.1,4.3c0,1.9,0.2,10.5,0.2,12.3c0,1.3-0.8,1.6-1.3,1.6c-0.7,0-0.7-0.3-0.7-1.2h-8.2
		c0,0.2,0,2.3-0.1,2.5c-0.1,0.6-0.8,0.9-1.4,0.9s-0.5-0.4-0.5-0.6c0-0.4,0.1-2.3,0.1-2.6c0.1-5.3,0.2-11.6,0.2-17
		c0-0.8,0-1.6-0.2-2.3l2.1,1h2.5c0-0.7,0-3.4-0.1-5.4c0-1.1-0.2-2.2-0.6-3.2l2.6,0.8c0.7,0.2,0.8,0.2,0.8,0.5s-0.6,0.7-1,0.9
		c0,0.6,0,0.8,0,1.9h3.8l1-1.2c0.2-0.3,0.3-0.5,0.5-0.5c0.2,0.1,0.4,0.2,0.6,0.3L98.4,5c0.2,0.2,0.3,0.3,0.3,0.5S98.5,5.8,98.3,5.8z
		 M94.9,10.3h-8.3V27h8.3L94.9,10.3z M93.3,14c-0.4,1.5-1,3.2-1.6,4.7c0.3,0.4,2.1,2.7,2.1,4.1c0,0.8-0.4,1-0.7,1
		c-0.5,0-0.8-0.2-1.1-1.4c-0.2-0.8-0.5-1.6-0.9-2.3c-1,2-2.3,3.8-3.9,5.3L87,25.2c1.5-1.9,2.6-4.1,3.4-6.4c-0.5-0.9-1.7-2.5-2.4-3.6
		l0.1-0.1c1,0.8,1.9,1.6,2.8,2.5c0.6-1.5,0.9-3,1-4.6c0-0.3,0-0.7-0.1-1l1.5,0.9c0.5,0.3,0.6,0.4,0.6,0.6S93.6,13.8,93.3,14z
		 M88.3,20.2c-0.4,0-0.6-0.2-0.8-1.2c-0.1-0.5-0.2-1.1-0.4-1.6l0.2-0.2c1.9,0.4,1.9,1.9,1.9,2C89.1,19.7,88.8,20.2,88.3,20.2
		C88.3,20.2,88.3,20.2,88.3,20.2z M89.6,14.8c-0.5,0-0.6-0.3-0.8-1.3c-0.1-0.5-0.3-1-0.6-1.4l0.1-0.2c0.7,0.2,2.2,0.8,2.2,2
		C90.5,14.5,90.1,14.8,89.6,14.8C89.6,14.8,89.6,14.8,89.6,14.8L89.6,14.8z M91.1,25.9c-0.6,0-0.7-0.3-0.8-1.3
		c0-0.5-0.2-1.1-0.5-1.5l0.1-0.2c0.8,0.4,1.9,1,1.9,2.1C91.9,25.5,91.6,25.9,91.1,25.9C91.2,25.9,91.2,25.9,91.1,25.9L91.1,25.9z
		 M93.6,19.9c-0.4,0-0.6-0.4-0.7-1.2c0-0.5-0.1-1-0.2-1.5l0.1-0.1c0.9,0.3,1.5,1,1.6,1.9C94.3,19.6,94,19.9,93.6,19.9L93.6,19.9z
		 M112,30.7c-3.3-2-5.3-6.4-6.2-10.2h-0.2c-0.2,3.1-1.7,5.9-3.9,8c-1.8,1.6-4.1,2.6-6.5,3l-0.1-0.2c3.3-1,7.5-4,8.7-10.7h-3
		c0,0.7,0.1,1.5-1.2,1.5c-0.4,0-0.5-0.2-0.5-0.7c0-0.6,0.1-1.7,0.1-2.4c0-1.3,0-3.6-0.1-4.9l1.7,0.6h3.6c0-0.5,0-1.5-0.1-3.1
		c-0.9,0-1.8,0.2-2.8,0.3l-0.8-1.5c2.6,0.2,5,0.2,5.6,0.2h0.8l0.6-0.9c0.1-0.1,0.3-0.4,0.5-0.4c0.2,0.1,0.5,0.2,0.7,0.3l1,0.9
		c0.2,0.2,0.3,0.3,0.3,0.5s-0.3,0.3-0.5,0.3h-3.7c0,1.2,0,2.1,0,3.2h3.9l0.6-0.6c0.3-0.3,0.4-0.4,0.5-0.4c0.2,0,0.4,0.1,0.5,0.3
		l1,0.9c0.1,0.1,0.2,0.3,0.2,0.4c0,0.3-0.2,0.5-0.8,0.8c0,0.5,0,0.7,0.1,2.7c0,0.2,0.1,1.9,0.1,2.1c0,0.3-0.2,0.7-0.5,0.8
		c-0.3,0.2-0.6,0.3-0.9,0.3c-0.6,0-0.6-0.6-0.5-1.4h-4c1.4,3.9,4.4,7,8.3,8.5v0.3C113.6,29.4,112.7,29.9,112,30.7L112,30.7z
		 M112.5,11.1c-3.1-2.2-4-3.6-6.3-8.2c-0.1,0.1-0.8,0.3-0.9,0.3c-2.9,4.8-4,6.7-8,9.6l-0.2-0.2c3.4-3.5,6.6-9.2,6.8-11.8l2.1,0.9
		c0.5,0.2,0.8,0.4,0.7,0.9c1.9,3.3,4.7,6,8.3,6.6v0.3C114,9.7,113.1,10.3,112.5,11.1L112.5,11.1z M100.9,15.4v4.2h3.2
		c0.2-1.4,0.3-2.8,0.4-4.2H100.9z M110.3,15.4h-4.2c0,1.4-0.1,2.8-0.3,4.2h4.5L110.3,15.4z"/>
	<path d="M135.5,6.9c0.6-0.4,0.6-0.4,1.1-0.4s1.3,0.3,1.3,0.8c0,0.3-0.3,0.5-0.5,0.7c-1.9,1-3.9,1.7-6,2.3
		c-3.2,8.8-5.1,14.1-6.9,17.4c-0.4,0.7-0.6,1.1-1.1,1.1s-1-0.8-1-1.3s0-0.5,1-2.3c2.5-4.6,4.6-9.5,6.2-14.5
		c-1.4,0.4-2.9,0.6-4.4,0.6c-2.4,0-3.1-1-3.4-1.7c1,0.3,2,0.5,3,0.4c1.8-0.1,3.6-0.4,5.4-0.9c0.6-1.7,1-3.4,1.3-5.1
		c0-1-0.7-1.3-1.7-2c0.5-0.2,1-0.3,1.5-0.2c1.3,0,2.4,0.9,2.6,2.2c0,0.2,0,0.3-0.4,1.1c-0.6,1.1-1,2.3-1.5,3.4
		C133.2,8.2,134.4,7.6,135.5,6.9z M141.2,27.1c1.7,0,3.3-0.1,4.9-0.4c0.6-0.1,0.6-0.1,0.8-0.1c0.6,0,1.6,0.7,1.6,1.2
		c0,1.1-4,1.1-5.9,1.1c-2.7,0-5.3-0.4-7.1-1.9c-0.9-0.8-1.4-1.9-1.3-3c0-0.8,0.2-1.5,0.6-2.2C134.8,24.8,135.5,27.1,141.2,27.1z
		 M141.4,15.5c0.8-0.6,2.8-2.2,2.8-2.9s-1.3-0.7-5.6-0.8c1.6-1.3,4.6-1.3,4.8-1.3c2.1,0,5,0.9,5,2.4c0,0.9-0.6,0.9-1.6,0.9
		c-1.3,0-2.2,0.2-5.3,1.8L141.4,15.5z M147.1,7c0,0.2-0.1,0.8-0.6,0.8c-0.4,0-0.5-0.1-1.8-1.4c-1.1-1-2.3-1.9-3.6-2.7
		C143.4,3.8,147.1,4.7,147.1,7z M145,1.2c1.6,0,3.2,0.5,4.5,1.3c0.4,0.4,0.7,0.9,0.7,1.5c0,0.4-0.1,0.8-0.6,0.8s-0.7-0.2-1-0.6
		c-1.3-1.3-3-2.3-4.8-2.9C144.1,1.2,144.6,1.1,145,1.2z"/>
	<path d="M165,24c1,0.7,2.2,1.6,2.9,2c0.4,0.3,0.8,0.4,1.3,0.5c0.6,0,1.2-0.4,1.5-1c2-3.5,2.7-9.7,2.7-11c0-2.4-0.6-3.4-2.3-3.4
		c-1,0-1.9,0.2-2.9,0.4c-0.6,1.3-3.1,7.1-3.6,8.3c-1.4,2.7-2.8,5.7-4.2,8.1c-0.1,0.1-0.6,1-1.1,1s-0.8-0.4-0.8-1.2
		c0-1.1,0.4-1.5,1.3-2.6c1.3-1.9,2.5-3.9,3.5-6c1.2-2.4,2.9-6.3,3.2-7c-1.7,0.5-3.4,1.2-5.1,2c-0.7,0.5-0.9,0.6-1.3,0.6
		c-1.1,0-2.8-1.5-2.8-3.4c0-0.2,0-0.4,0.1-0.5c0.5,0.9,1.4,1.6,2.4,1.7c0.7-0.1,1.5-0.2,2.2-0.4c2.8-0.8,2.9-0.8,4.9-1.3
		c0.6-1.4,1.8-4.4,1.8-5.6c0.1-0.8-0.4-1.5-1.1-1.8c-0.2-0.1-1.2-0.6-1.4-0.7c0.4-0.1,0.9-0.2,1.4-0.2c2.4,0,3.6,1.5,3.6,2.2
		c0,0.3,0,0.3-0.6,1.5c-0.3,0.6-1.6,3.6-1.8,4.1c0.8-0.1,1.6-0.2,2.5-0.2c3.5,0,3.7,3.4,3.7,5c0,2-1.2,10.2-3.6,12.9
		c-0.4,0.5-1.8,1.9-2.9,1.9c-0.7,0-0.8-0.4-0.8-1s-0.2-1.2-2.8-4.6L165,24z M179.1,17.6c2.3-0.1,4.6-0.1,4.6-1.7
		c0-0.8-1.6-3.3-6.7-6.8c2.9,0.5,5.6,2,7.4,4.4c1.2,1.4,1.9,3.2,1.9,5c0,0.8-0.1,1.2-0.6,1.2c-0.3,0-0.4-0.1-1.1-0.5
		c-0.4-0.3-0.7-0.2-2.8-0.7c-0.3-0.1-1.8-0.4-2.6-0.6L179.1,17.6z"/>
	<path d="M203.7,29.5c2.1-0.3,4.2-0.9,6.2-1.8c3.5-1.5,6.3-3.5,6.3-6.8c0.1-2.5-1.9-4.5-4.4-4.6c-0.1,0-0.2,0-0.3,0
		c-5.1,0-10.2,4.4-11.6,6.7c-0.3,0.5-0.4,0.7-0.7,0.7c-0.9,0-1.5-1.8-1.5-2.6c0-0.3,0.2-1.2,0.3-1.9c0.5-2.5,0.7-5,0.8-7.5
		c0-2.6,0-2.9,0.5-3.7c0.8-1.2,1.3-1.3,5.5-2.2c0.1,0,0.3-0.1,0.3-0.2c0,0,0,0,0,0c0-0.2-0.2-0.2-0.6-0.5c-0.7-0.4-2.8-1.8-2.7-3.4
		c1.5,1.2,3.1,2.1,4.9,2.7c2,0.9,2.2,2.3,2.2,2.8c0,0.7-0.3,0.7-0.6,0.7c-0.5,0-1-0.2-1.5-0.5c-1-0.2-2-0.4-3-0.3
		c-1.3,0-4.1,0.1-4.1,2.2c0,0.6,0.1,1.1,0.3,1.7c0.2,0.5,0.3,1,0.4,1.6c0,0.1-0.2,1.3-0.3,1.5c-0.4,1.8-0.6,3.6-0.7,5.4
		c0,0.4,0.1,0.8,0.4,0.8c0.1,0,0.2,0,0.4-0.2c3.1-2.8,7.1-4.4,11.2-4.6c3.3-0.2,6.2,2.3,6.4,5.7c0,0.1,0,0.2,0,0.2
		c0,3.5-3,5.8-4.7,6.5c-3,1.3-6.3,2-9.7,2L203.7,29.5z"/>
	<path d="M4,82.5c3.8-2.2,7.2-5.1,9.9-8.7c2.5-3.6,4.3-7.6,5.2-11.8c-4.9,0.2-9.9,0.8-14.7,1.8c-0.4,0.1-0.7,0.3-1,0.5
		c-0.2,0.1-0.4,0.2-0.6,0.2c-0.4,0-1-0.7-1.3-1c-0.7-0.7-1.1-1.6-1.1-2.5c0-0.3,0.1-0.6,0.2-1c0.5,0.7,1.1,1.3,1.7,1.7
		c0.5,0.2,1,0.3,1.5,0.2c1.4,0,14.5-1.3,15-1.4c0.2-0.1,1.2-0.8,1.3-0.8c0.3,0,2.7,1.9,2.7,2.5c0,0.2-0.1,0.3-1.1,0.8
		c-0.6,0.3-0.8,0.6-1.1,1.6c-2.3,6.1-3.7,9-7.3,12.5c-2.5,2.5-5.7,4.4-9.1,5.5L4,82.5z M25.1,60.7c-1.8,0-3.2-1.4-3.2-3.2
		s1.4-3.2,3.2-3.2c1.8,0,3.2,1.4,3.2,3.2C28.3,59.3,26.9,60.7,25.1,60.7C25.1,60.7,25.1,60.7,25.1,60.7z M25.1,55.5
		c-1.2,0-2.1,0.9-2.1,2.1s0.9,2.1,2.1,2.1s2.1-0.9,2.1-2.1S26.3,55.5,25.1,55.5z"/>
	<path d="M40.3,83c8.5-3.7,13.8-12.3,14.6-17.3c-2.6,0.2-12.3,1.1-13.9,2.1c-0.7,0.4-0.7,0.5-1,0.5c-0.9,0-3.2-2-3.2-3.8
		c0-0.4,0.1-0.7,0.2-1.1c0.8,1.3,2.1,2.2,3.7,2.2c1.3,0,12.6-0.9,13.5-1.1c0.3-0.1,0.6-0.2,1.5-0.9c0.2-0.2,0.3-0.3,0.5-0.3
		c0.4,0,2.7,1.7,2.7,2.4c0,0.3-0.1,0.4-1.1,0.8c-0.7,0.3-0.7,0.4-1.1,1.5c-0.3,0.8-3,7.2-7.9,11.2c-2.4,2-5.3,3.4-8.4,4L40.3,83z
		 M43.8,59c2.8-0.1,5.6-0.4,8.3-1c0.5-0.3,1-0.4,1.6-0.4c0.5,0,2.4,0.2,2.4,1.1s-1,0.9-3.6,1.1c-1.6,0.1-9.3,0.9-10.1,0.9
		s-2.3-0.8-2.6-3.2C41.3,58.7,41.8,59,43.8,59z"/>
	<path d="M70,80.6c7.5-3.2,15.4-11.8,18.6-20.5c-1.1,0.2-5.6,1-6.5,1.2c-1.4,0.3-2.7,0.7-3.9,1.3c-0.5,0.3-0.6,0.3-0.8,0.3
		c-0.4,0-1-0.8-1.4-1.4c-0.4-0.5-0.6-1-0.6-1.6c0-0.5,0.1-1,0.3-1.5c0.2,0.4,0.4,0.8,0.7,1.1c0.4,0.6,1,0.9,1.7,0.9
		c3.2-0.2,6.3-0.7,9.4-1.4c0.5-0.2,0.9-0.5,1.4-0.8c0.3-0.2,0.4-0.2,0.5-0.2c0.3,0,2.7,1.8,2.7,2.3s-0.2,0.5-1.3,0.8
		c-0.2,0-0.3,0.3-0.4,0.5c-1.3,2.9-2.9,5.6-4.8,8.2c4.5,2.1,10,5.9,10,9.2c0,0.2,0,1.3-1,1.3c-0.5,0-0.8-0.3-1-0.7
		c-2.2-3.7-4.5-6.7-8.4-9.3c-2.1,2.7-7.1,8.8-14.9,10.4L70,80.6z"/>
	<path d="M111.7,82.7c5-4.4,7.4-8.2,8-15.3c-5.3,0.5-7.6,1.1-9.5,1.9c-0.2,0.1-1.1,0.4-1.2,0.4c-0.7,0-1.9-1.4-2.4-1.9
		c-0.4-0.8-0.5-1.7-0.4-2.6c1.4,1.8,2.2,2.1,3.1,2.1c0.9,0,1.7-0.1,2.6-0.2c3.5-0.4,3.9-0.5,7.9-0.9c0-1.3,0-2.6-0.2-3.9
		c-0.2-0.6-0.5-0.9-1.4-1.6c-2.5,0.5-5.1,0.8-7.7,0.8v-0.2c4.4-0.5,12.4-3.6,12.9-4.3c0.1-0.1,0.1-0.1,0.1-0.2
		c0-0.2-0.1-0.4-1.1-0.8c0.2-0.1,0.5-0.2,0.7-0.2c1.3,0,4,1.9,4,2.7c0,0.3-0.3,0.4-0.5,0.4c-1.3,0-2.6,0.2-3.8,0.7
		c-1.6,0.5-2.7,0.8-3.3,0.9c0.9,0.3,1.8,0.7,2.7,1.2c0.1,0.1,0.2,0.3,0.2,0.5c0,0.2,0,0.4-0.4,1c-0.3,1-0.4,1.9-0.4,2.9
		c1.9-0.1,4.9-0.3,6.8-0.5c0.3,0,1.5-0.4,1.8-0.4c0.9,0,3.4,0.8,3.4,1.8c0,0.4-0.3,0.7-0.6,0.7c0,0,0,0,0,0c-0.2,0-0.5-0.1-0.7-0.1
		c-1.6-0.4-3.3-0.6-5-0.6c-1.9,0-3.9,0.1-5.8,0.2c-0.5,6-1.7,8.6-3.9,11.2c-1.5,1.9-3.5,3.4-5.7,4.4L111.7,82.7z"/>
	<path d="M148.4,69.2c0.1,0.5-0.3,1-0.9,1.1c0,0-0.1,0-0.1,0c-0.4,0-0.5-0.1-1.2-1.5c-0.7-1.3-1.6-2.5-2.6-3.6
		C146.2,65.4,148.4,68.1,148.4,69.2z M146.8,82.1c2-0.8,5.8-2.6,10.3-9.6c2.4-3.9,2.7-6,2.7-6.6s-0.4-1-1.8-1.7
		c0.5-0.2,1-0.3,1.6-0.3c1.2,0.2,2.3,1,2.8,2.1c0,0.3-0.1,0.4-0.7,1.1c-0.2,0.3-0.5,0.7-0.6,1.1c-1.5,3.7-3.7,7-6.5,9.9
		c-2.2,2.1-4.8,3.6-7.8,4.4L146.8,82.1z M154.3,67.8c0,1-0.6,1.2-0.9,1.2c-0.6,0-0.7-0.3-1.1-1.6c-0.5-1.4-1.2-2.6-2.2-3.7
		C152.2,64.4,154.3,65.9,154.3,67.8z"/>
	<path d="M174.3,82.9c7.2-3.5,14.9-11.9,17.7-19.8c-1,0.1-5.4,0.7-6.4,0.7c-0.7,0-1.4-0.2-2-0.6c-1.3,1.8-2.7,3.5-4.4,5
		c-1.3,1.3-2.9,2.3-4.6,3.1l-0.1-0.2c5.4-4.4,9-11,9-12.3c0-0.7-0.6-1-1.9-1.7c0.5-0.2,1.1-0.3,1.7-0.2c0.6,0,1,0,2.7,1.2
		c0.6,0.4,0.7,0.6,0.7,0.9s-0.1,0.5-0.5,0.9c-0.8,0.8-1.5,1.7-2.1,2.7c0.3,0,0.9,0.1,1.2,0.1c1.7,0,5.9-0.5,6.7-1
		c0.2-0.1,0.9-0.7,1.1-0.7s0.3,0.1,0.5,0.3c1.4,1.2,2.1,1.7,2.1,2.2c0,0.2-0.1,0.2-0.8,0.6c-1.1,0.6-1.3,0.7-2.1,2.3
		c-4.7,9.8-11.8,15-18.5,16.9L174.3,82.9z"/>
	<path d="M215,62c1.3,0,13.6-0.8,14.1-1.1c0.2-0.1,1-0.8,1.2-0.8c0.4,0,2.7,1.9,2.7,2.5c0,0.2-0.1,0.3-1,0.9
		c-0.4,0.3-0.7,0.8-0.8,1.3c-0.6,2.6-1.7,8.5-1.9,10.4c1.2,0.5,1.7,0.6,1.7,1.2c0,0.8-0.7,0.8-1,0.8s-2.4-0.1-2.8-0.1
		c-0.7,0-9.2,0-12.2,1c-0.4,0.2-0.8,0.4-1.3,0.5c-0.9,0-2.4-2.4-2.4-3.3c0-0.4,0.1-0.8,0.3-1.1c0.6,1.2,1.7,1.9,3,2
		c0.8,0,4-0.3,4.7-0.3c1.3-0.1,7.6-0.4,8.2-0.5c0.5-3,1.3-7.5,1.8-12c0-0.2,0.1-0.5,0.1-0.7c0-0.3-0.1-0.4-0.5-0.4
		c-2.4,0-11.5,0.8-13.1,1.4c-0.1,0-1.6,0.6-1.7,0.6c-0.6,0-2.5-1.9-2.5-3c0-0.5,0.1-1.1,0.3-1.6C213.6,62,214.4,62,215,62z
		 M235.5,60.2c0,0.5-0.3,1-0.7,1s-0.4-0.1-1.5-1.4c-1.1-1.1-2.4-2.1-3.7-2.9C232.8,57,235.5,58.6,235.5,60.2L235.5,60.2z
		 M238.6,57.9c0,0.7-0.3,1-0.7,1s-0.5-0.2-1.7-1.4c-1-1-2.2-1.8-3.5-2.5C235.3,54.9,238.6,56.2,238.6,57.9L238.6,57.9z"/>
	<path d="M262.9,77.9c1.3,0.7,2.2,1.9,2.4,3.3c0,0.5-0.4,0.9-0.9,0.9c0,0,0,0,0,0c-0.6,0-1-0.4-2.2-1.6c-3.3-3.1-8.2-5-13.9-6.6
		C253.4,73.9,258.5,75.3,262.9,77.9z M251.9,57.3c1.2,0,7,0.4,10.1,2.3c0.9,0.5,1.5,1.3,1.7,2.2c0,0.4-0.2,0.8-0.6,0.8
		c0,0-0.1,0-0.1,0c-0.6-0.1-1.1-0.4-1.6-0.7c-3.5-2.3-4.5-2.8-11-4.5C251.2,57.3,251.5,57.3,251.9,57.3L251.9,57.3z M252.5,65.8
		c3,0,6,0.6,8.7,1.8c0.9,0.4,1.6,1.2,1.8,2.2c0,0.4-0.3,0.8-0.7,0.8c0,0-0.1,0-0.1,0c-0.5,0-1-0.4-1.9-1.1c-1.4-1-3.4-1.9-9-3.7
		C251.7,65.8,252.1,65.8,252.5,65.8L252.5,65.8z"/>
	<path d="M360.7,68.8c0.5,0.5,0.8,1.2,0.8,1.9c0,0.8-0.3,1.3-0.8,1.3c-0.5,0-0.8-0.3-1.5-1.1c-2.1-2.3-4.7-4.1-7.5-5.4
		c0,3.1-0.1,6.3-0.1,9.3c0,0.7,0.1,3.8,0.1,4.4c0,1.6,0,3.1-1,3.1s-1.5-2.2-1.5-2.5c0-0.1,0.3-1.8,0.3-2c0.3-1.8,0.5-14.2,0.5-15.5
		c0-1.8,0-3.6-0.2-5.4c-0.2-0.9-1.2-1.2-2.8-1.7c0.7-0.4,1.4-0.7,2.2-0.8c0.5,0,3.4,0.7,3.4,1.8c0,0.2-0.3,1.2-0.5,1.8
		c-0.3,2.2-0.5,4.5-0.4,6.7C354.3,65.3,358.5,66.7,360.7,68.8z"/>
	<path d="M383.6,61.4c0,0.6-0.5,1.1-1.1,1.2c-0.6,0-0.9-0.3-1.9-1.3c-1.6-1.5-3.4-2.8-5.5-3.6C379.2,57.5,383.6,59.2,383.6,61.4z
		 M397.7,60.8c-2.7,4.9-6.4,9.2-10.9,12.5c-1.6,1.3-2.9,2.2-4.7,3.4c-0.8,0.6-1.6,1.3-2.2,2.1c-0.2,0.3-0.5,0.5-0.9,0.5
		c-1.1,0-3.2-2.6-3.2-4c0-0.5,0.2-1,0.5-1.4c0.6,1.4,1.5,2.2,2.2,2.2c1.1,0,4.2-2.2,5.5-3.2c7.3-5.4,9.7-7.9,13.5-12.3L397.7,60.8z"
		/>
</g>
<path id="zero" class="st0" d="M307.7,87.5C291.6,87.5,282,67,282,43.7C282,20.8,291.4,0,307.7,0c16.1,0,25.7,20.5,25.7,43.7
	S323.8,87.5,307.7,87.5z M307.7,3.2c-8.7,0-17.2,10.8-17.2,40.5c0,30.4,8.8,40.6,17.2,40.6c8,0,17.2-9.4,17.2-40.6
	C325,12.7,315.7,3.2,307.7,3.2z"/>
</svg>
