<svg xmlns="http://www.w3.org/2000/svg" width="657" height="38" viewBox="0 0 657.248 38.4">
  <defs>
    <style>
      .cls-1 {
        fill: #9d1b5b;
      }
    </style>
  </defs>
  <path id="sec05_02_ttl" data-name="sec05_02_ttl" class="cls-1" d="M736.028,12601.1a2.377,2.377,0,0,0-1.72-2.3,0.755,0.755,0,0,1-.36-0.7,4.006,4.006,0,0,1,1.88-2.6l-0.64-.6c-1,.8-3.8,3.3-3.8,6.2A2.32,2.32,0,0,0,736.028,12601.1Zm-6.079,0a2.377,2.377,0,0,0-1.72-2.3,0.755,0.755,0,0,1-.36-0.7,4.006,4.006,0,0,1,1.88-2.6l-0.64-.6c-1,.8-3.8,3.3-3.8,6.2A2.32,2.32,0,0,0,729.949,12601.1Zm35.6,17.2c0,0.6,0,1.1,1.04,1.1,0.48,0,1.839-.2,1.839-1.2s-0.2-5.9-.2-7c0.92-.5,1-0.7,1-0.9a1.06,1.06,0,0,0-.4-0.6l-1.439-1.2a1.2,1.2,0,0,0-.6-0.4,1.329,1.329,0,0,0-.56.4l-1.04,1.2h-2.32a60.2,60.2,0,0,1-6.159-.3l0.8,1.6a29.526,29.526,0,0,1,4.719-.3h3.32v6.7h-4.519l-3.92-2.1a17.433,17.433,0,0,1,.56,5.1c0,0.8-.12,4.5-0.12,5.4,0,4.7.76,5,9.559,5,1.959,0,7.8,0,9.358-.6a3.251,3.251,0,0,0,2.2-2.4,1.017,1.017,0,0,0-.76-0.8c-0.8-.4-0.92-1.8-1.16-5.2h-0.2a25.8,25.8,0,0,1-1.32,4.2c-0.92,2.1-2.319,2.2-7,2.2-3.519,0-5.279,0-6.638-.1a1.215,1.215,0,0,1-1.24-1c-0.12-.7-0.12-3.3-0.04-8.8h5.239Zm-5.039-15.1a52.3,52.3,0,0,0,2.759-4.7c1.16-.3,1.48-0.4,1.48-0.9a0.839,0.839,0,0,0-.44-0.6l-3.759-2.1a8.12,8.12,0,0,1-.32,2.6,40.437,40.437,0,0,1-7.279,13.5l0.2,0.1a31.093,31.093,0,0,0,6.719-7h12.518c0.04,3.2.04,7.8-.16,10.8-0.28,4.3-.72,5.9-2.8,5.9a16.857,16.857,0,0,1-3-.4v0.2a4.448,4.448,0,0,1,2.8,3.8,5.511,5.511,0,0,0,4.36-2.9c1.6-3.2,1.559-12,1.519-16,1.24-.7,1.4-0.9,1.4-1.2a0.966,0.966,0,0,0-.36-0.7l-1.84-1.5a0.966,0.966,0,0,0-.639-0.4,0.954,0.954,0,0,0-.68.4l-1.4,1.1H760.511Zm-14.358-7.2a8.132,8.132,0,0,1,3.04,4,1.875,1.875,0,0,0,1.639,1.5,1.689,1.689,0,0,0,1.6-1.8,3.609,3.609,0,0,0-2-2.8,13.819,13.819,0,0,0-4.239-1.1Zm-3.8,9.6a9.845,9.845,0,0,1,2.879,3.7,1.949,1.949,0,0,0,1.84,1.5,1.434,1.434,0,0,0,1.48-1.5c0-3-4.12-3.6-6.159-3.9Zm11.478-3.4c-1.2,2.8-5.679,13-7.8,16.3-0.96,1.5-1.56,1.8-3.6,1.9v0.3c3.439,1,3.439,3,3.439,8.1,0,0.9,0,2.6,1.96,2.6,1.16,0,1.92-.7,1.92-2.2a15.466,15.466,0,0,0-1-3.6,10.293,10.293,0,0,1-.76-3.6c0-.9.16-1.4,0.92-3.4,1.8-4.8,3.8-11.7,5.159-16.3Zm65.916-.9c0-3.1-5.04-3.2-5.759-3.2a14.651,14.651,0,0,0-2.48.2,14.126,14.126,0,0,1,4.719,2.2c0.4,0.3,2.16,1.9,2.68,1.9A0.939,0.939,0,0,0,819.748,12601.3Zm-3.68,3c0-2.3-4.279-3.3-6.4-3.3a6.653,6.653,0,0,0-1.6.2,13.483,13.483,0,0,1,5,3,5.056,5.056,0,0,0,1.919,1.3A1.1,1.1,0,0,0,816.068,12604.3Zm1.96,11.3c0-5.4-7.039-10.1-11.118-10.2,5.639,3.5,7.478,7.4,7.478,7.8,0,1.4-4.4,1.7-5,1.8v0.3a14.288,14.288,0,0,1,5.439,1.4,15.7,15.7,0,0,0,2.2,1C818.028,12617.7,818.028,12615.9,818.028,12615.6Zm-13.4-2.5c0-3.2-.2-7-4.879-7a7.618,7.618,0,0,0-2.16.3c0.76-1.7,1.44-3.2,2.32-4.8a3.755,3.755,0,0,0,.6-1.6c0-1-2.44-2.9-4.559-2.9a3.215,3.215,0,0,0-2,.7c0.56,0.2,2.919,1.2,2.919,2.8,0,1.5-1.2,4.7-1.8,6.3-1.32.3-7.239,2-8.2,2-1.12,0-2-.8-2.719-2.1a3.281,3.281,0,0,0-.48,1.6,4.081,4.081,0,0,0,3.319,3.7,3.249,3.249,0,0,0,1.68-.8,33.275,33.275,0,0,1,5.639-2.5c-3.68,8.8-5.839,11.9-8.439,15.6a3.7,3.7,0,0,0-.88,2.2c0,1,.48,1.9,1.28,1.9,0.88,0,1.76-1.5,2.28-2.5a197.035,197.035,0,0,0,8.358-18,11.369,11.369,0,0,1,2.64-.4c2.679,0,2.679,2.8,2.679,4.4a26.283,26.283,0,0,1-2.8,11.9,1.764,1.764,0,0,1-1.56,1.2c-0.72,0-1.48-.3-4.959-2.7l-0.12.2c2.6,3.7,2.68,4,2.96,5.7,0.12,0.7.28,1.3,1.2,1.3,1.16,0,2.8-1.2,3.88-2.5C803.03,12624.5,804.63,12617.8,804.63,12613.1Zm50.558-12.9a0.614,0.614,0,0,0-.36-0.5l-1.279-1.2a1.129,1.129,0,0,0-.64-0.3,0.888,0.888,0,0,0-.52.3l-0.88.9h-2.88v-2c0.08-.1.52-0.4,0.8-0.7a0.54,0.54,0,0,0,.16-0.4,0.5,0.5,0,0,0-.48-0.5l-3.479-.9a13.862,13.862,0,0,1,.52,4.5h-2.8v-2c0.24-.2.36-0.3,0.64-0.5a0.682,0.682,0,0,0,.36-0.6,0.71,0.71,0,0,0-.6-0.5l-3.439-1a14.342,14.342,0,0,1,.6,4.6h-2.6l-3-1.5a47.347,47.347,0,0,1,.28,7.3c0,0.9,0,2.9-.12,3.8a2.111,2.111,0,0,0-.04.5,1.061,1.061,0,0,0,1.04.9c0.159,0,1.679,0,1.679-1.3h13.518a0.739,0.739,0,0,0,.8,1c0.28,0,1.76-.2,1.76-1.4,0-.1-0.24-3.6-0.24-4.2v-3.2A2.324,2.324,0,0,0,855.188,12600.2Zm-8.918,3.5h-2.92v-3.3h2.84Zm0,4.4h-2.92v-3.4h2.92v3.4Zm5.4-4.4h-3.04v-3.3h3.04v3.3Zm-10.6,4.4h-2.92v-3.4h2.92v3.4Zm10.6,0h-3.04v-3.4h3.04v3.4Zm-10.6-4.4h-2.92v-3.3h2.8Zm19.6,24.6-0.04-.2a18.969,18.969,0,0,1-12.2-3.9c0.639-.2,2.839-0.9,4.359-1.4,0.76,0,1.64,0,1.64-.5a0.582,0.582,0,0,0-.24-0.5l-2.56-1.9h5.159a0.5,0.5,0,0,0,.6-0.4,1.067,1.067,0,0,0-.4-0.7l-1.76-1.5a1.093,1.093,0,0,0-.72-0.4,0.918,0.918,0,0,0-.679.5l-1.52,1.5H835.792c0.16-2.6.16-3.3,0.16-6.2h22.556c0.28,0,.6,0,0.6-0.4a0.807,0.807,0,0,0-.4-0.6l-1.88-1.8a1.182,1.182,0,0,0-.72-0.4,1.1,1.1,0,0,0-.68.5l-1.519,1.7H836.552l-3.6-1.8a22.539,22.539,0,0,1,.4,5.2c0,6.9-.92,12.4-4.679,16.4l0.16,0.2c6.159-4.4,6.679-9.6,6.879-11.8h3.359v7.7a13.572,13.572,0,0,1-2.719.3c-0.68,0-1.24-.1-1.72-0.1l1.76,3.6a0.665,0.665,0,0,0,.479.4,1.184,1.184,0,0,0,.8-0.9c0.6-.3,1.04-0.5,5.079-2.3,2.64-1.2,4.4-2.2,5.04-2.5a17.774,17.774,0,0,0,8.838,5.5A5.378,5.378,0,0,1,860.667,12628.3Zm-9.318-8.4a17.926,17.926,0,0,1-3.359,3.9,13.121,13.121,0,0,1-3.2-3.9h6.559Zm-3.879,5.8a48.037,48.037,0,0,1-5.879,1.4v-7.2h2.519A15.7,15.7,0,0,0,847.47,12625.7Zm-15.318-26c0-2.8-4-3.7-6-4.1l-0.08.2a19.1,19.1,0,0,1,2.48,3.5c0.88,1.7,1.12,2.2,2.04,2.2A1.7,1.7,0,0,0,832.152,12599.7Zm21.277,16.3a0.675,0.675,0,0,0-.4-0.6l-1.76-1.5a1.564,1.564,0,0,0-.76-0.4,0.875,0.875,0,0,0-.64.5l-1.24,1.4H844.07c-0.6,0-3.4,0-6.159-.2l0.8,1.6a22.265,22.265,0,0,1,4.719-.4h9.4A0.524,0.524,0,0,0,853.429,12616Zm-24.676-7.2c0-2.9-5.079-3.3-6.279-3.4l-0.08.2a15.931,15.931,0,0,1,3.119,3.5c0.8,1.1,1,1.3,1.72,1.3A1.528,1.528,0,0,0,828.753,12608.8Zm3.079-3.1-0.32-.1c-0.68,1.5-3.839,9.1-4.679,10.8-1.52,3-1.76,3.5-3.959,3.5v0.3c2.279,0.8,2.279,3.8,2.279,4.6,0,0.6-.24,3.5-0.24,3.9,0,1.9,1.28,2.3,1.8,2.3,0.76,0,1.76-.8,1.76-2.4,0-.8-0.88-5.2-0.88-6.2a7.449,7.449,0,0,1,.36-2.1c0.24-.9,1.44-5,1.72-5.9C829.993,12613.1,831.432,12607,831.832,12605.7Zm55.518-3.8a16.8,16.8,0,0,1-.92,2,34.6,34.6,0,0,1-8.119,8.7,1.635,1.635,0,0,1-1.439-1.5,44.728,44.728,0,0,1-.04-5.2c1.039-.6,1.159-0.6,1.159-1,0-.2-0.08-0.3-0.56-0.5l-3.479-1.5a33.175,33.175,0,0,1,.36,6.5c0,3.1.16,4.1,1.6,4.9a41.079,41.079,0,0,1-12.758,5.4l0.04,0.3a37.307,37.307,0,0,0,15.277-4.9c1.48,0.1,5.639.2,6.2,0.2,3,0,7.559-.1,7.559-2.4a1.322,1.322,0,0,0-.64-0.9,15.417,15.417,0,0,1-1.24-4.1h-0.32c-0.64,5.1-2.319,5.2-5.239,5.2-0.48,0-2.559-.1-3.2-0.2a41.528,41.528,0,0,0,7.478-7.7c1.12-.2,1.4-0.2,1.4-0.7a0.9,0.9,0,0,0-.32-0.6Zm-4.719-2.1a20.43,20.43,0,0,1,.04-2.1c0.839-.5,1.2-0.6,1.2-1.2a0.7,0.7,0,0,0-.64-0.6l-4.279-1a13.773,13.773,0,0,1,.76,4.9h-10.8c-0.04-.7-0.08-1-0.16-1.7h-0.2a5.6,5.6,0,0,1-2.92,3.8c-1.319.7-2.359,1.2-2.359,2.5a1.69,1.69,0,0,0,1.76,1.5c1.839,0,3.8-2.1,3.879-5.2h24.8c-0.24.6-1.2,3.3-1.4,4l0.12,0.1c0.92-.5,1.92-0.9,3.8-1.9h1.04c0.52,0,1.56,0,1.56-.8a0.756,0.756,0,0,0-.32-0.7l-2.4-2.4a1.265,1.265,0,0,0-.92-0.5,0.932,0.932,0,0,0-.639.4l-0.96.9H882.631Zm-10.079,28.4c-0.08-3.1-.12-4.8-0.08-6.9,0.68-.5,1.12-0.8,1.12-1.2a0.66,0.66,0,0,0-.68-0.6l-3.359-.6a22.366,22.366,0,0,1,.2,3.8c0,1.3-.24,6.7-0.24,7.8a0.918,0.918,0,0,0,1.08,1.1c2,0,2-1.2,1.959-2.5h17.8c-0.04,1.3-.04,1.9,1.12,1.9s1.8-.7,1.8-2.1c0-1.1-.32-6.7-0.28-7.9,1.2-.9,1.32-1,1.32-1.3,0-.2-0.12-0.4-0.68-0.5l-3.76-.9c0.36,1.1.6,1.9,0.6,5.3,0,0.8,0,1.1-.12,4.6h-7.718c0-2.9,0-5.8.04-8.8a3.316,3.316,0,0,0,1.159-1.2,0.878,0.878,0,0,0-.68-0.6l-3.479-.9a14.149,14.149,0,0,1,.32,2.5c0.04,1.3,0,7.5,0,9h-7.439Zm-2.8-22.5a6.718,6.718,0,0,1-2.44,4.2c-1.12.9-1.84,1.5-1.84,2.6a1.358,1.358,0,0,0,1.48,1.3c1.6,0,3.56-1.6,3.56-5.3a6.883,6.883,0,0,0-.52-2.8h-0.24Zm7.878-3.6a8.711,8.711,0,0,1,2.4,3.2c0.76,1.4.88,1.7,1.76,1.7a1.4,1.4,0,0,0,1.439-1.5c0-.7-0.479-2.6-5.479-3.6Zm14.358,5.4a17.009,17.009,0,0,1,2.76,4c1.119,2.4,1.359,2.9,2.439,2.9a1.786,1.786,0,0,0,1.68-1.9c0-1.2-1.44-2.7-2.8-3.6a17.814,17.814,0,0,0-3.919-1.6Zm22.363,16.9a5.783,5.783,0,1,0-5.8,6A5.8,5.8,0,0,0,914.352,12624.4Zm-1.16.1a4.622,4.622,0,1,1-4.639-4.8A4.707,4.707,0,0,1,913.192,12624.5Zm17.48-27.3a2.32,2.32,0,0,0-4.639,0c0,1.5,1.04,1.9,1.719,2.3a0.613,0.613,0,0,1,.36.6,4.161,4.161,0,0,1-1.879,2.7l0.64,0.6C927.872,12602.5,930.672,12600.1,930.672,12597.2Zm-6.079,0a2.32,2.32,0,0,0-4.639,0c0,1.5,1.04,1.9,1.719,2.3a0.613,0.613,0,0,1,.36.6,4.161,4.161,0,0,1-1.879,2.7l0.64,0.6C921.793,12602.5,924.593,12600.1,924.593,12597.2Zm52.115,2.2c0-3-5.759-3.3-6.519-3.3a4.869,4.869,0,0,0-1.2.1,15.559,15.559,0,0,1,4.679,3c1.48,1.5,1.56,1.5,2,1.5A1.111,1.111,0,0,0,976.708,12599.4Zm-3.56,3.4c0-2.7-4.759-3.5-7.278-3.7a21.426,21.426,0,0,1,4.319,3.5c1.28,1.5,1.36,1.5,1.84,1.5A1.137,1.137,0,0,0,973.148,12602.8Zm1.56,7.5c0-1.8-3.039-3.5-6.319-3.5-1.08,0-4.439.3-6.079,1.8,4.6,0.1,6.679.1,6.679,1.1a1.574,1.574,0,0,1-.8,1c-0.36.4-2.279,1.9-2.679,2.3l0.08,0.2c0.84-.5,4.119-1.9,5.519-1.9,0.32,0,2,.1,2.4.1A1.05,1.05,0,0,0,974.708,12610.3Zm-0.08,16.7a2.232,2.232,0,0,0-2.12-1.7,8.33,8.33,0,0,0-1.2.1,31.316,31.316,0,0,1-5,.4c-6.6,0-7.639-2.2-7.919-6.1a5.756,5.756,0,0,0-.92,3.2c0,3,2.96,5.7,10.078,5.7,1.56,0,4.959,0,6.359-.6A1,1,0,0,0,974.628,12627Zm-12.078-23.7a1.737,1.737,0,0,0-1.84-1.4c-0.6,0-.679.1-1.559,0.7a15.567,15.567,0,0,1-3.4,1.7c0.28-.8,2.08-4.4,2.08-4.8,0-1.1-1.72-3-3.759-3a3.919,3.919,0,0,0-2.12.6c1.96,1,2.44,1.3,2.44,2.6a25.3,25.3,0,0,1-1.24,5.4,23.173,23.173,0,0,1-6.319,1.1,10.083,10.083,0,0,1-3.6-.7,4.214,4.214,0,0,0,4.24,2.7,21.84,21.84,0,0,0,4.919-.7c-3.04,8.9-5.039,12.6-7.319,16.5-1.12,1.8-1.24,2.1-1.24,2.8a1.584,1.584,0,0,0,1.44,1.7c0.88,0,1.24-.7,1.64-1.5,2.319-4.9,4.519-10.8,7.838-20.1a31.535,31.535,0,0,0,7-2.6A1.129,1.129,0,0,0,962.55,12603.3Zm57.96,12.7c0-3.9-3.68-9.3-11.16-10.6,6.2,4.1,7.48,7.3,7.48,7.7,0,1.1-1,1.5-5.04,1.9v0.3a35.505,35.505,0,0,1,5.52,1.4,9.17,9.17,0,0,0,2.16,1.1C1020.51,12617.8,1020.51,12616.3,1020.51,12616Zm-13.44-3.5c0-3.3-.84-6.4-4.64-6.4a12.158,12.158,0,0,0-2.2.2c0.6-1.4,1.56-3.6,1.8-4,0.92-1.6,1-1.8,1-2.3,0-1.1-2.56-2.8-4.079-2.8a5.9,5.9,0,0,0-2.319.5c2.159,1,2.839,1.4,2.839,3,0,1.4-1.2,4.5-1.839,6.1-1.96.5-5.32,1.3-5.919,1.5a10.775,10.775,0,0,1-2.32.4c-0.72,0-1.72-.2-2.72-2a2.9,2.9,0,0,0-.44,1.4c0,1.9,2.04,3.8,3.32,3.8a3.462,3.462,0,0,0,1.72-.8,23.653,23.653,0,0,1,5.559-2.4c-0.76,1.9-1.6,3.7-2.48,5.5a60.1,60.1,0,0,1-5.319,9.1c-1.36,1.7-1.64,2-1.64,3.2,0,1.1.6,1.8,1.24,1.8a1.638,1.638,0,0,0,1.24-.8c1.28-1.5,5.759-10.9,6.039-11.5,0.44-.9,2.959-6.7,3.519-8a18.523,18.523,0,0,1,2.639-.3c1.88,0,2.72.9,2.72,4.1,0,2.8-1.88,13.2-4.68,13.2-0.8,0-3.918-2.1-4.8-2.7l-0.04.2c1.12,1.6,2.76,4,2.88,5.3,0.119,1.2.2,1.7,1.2,1.7,1.239,0,2.719-1.3,3.519-2.1C1005.83,12624.2,1007.07,12615.3,1007.07,12612.5Zm47.32,6.7c0-3.1-2.32-6.9-7.8-6.9a21.357,21.357,0,0,0-10.32,3.2c-0.52.3-3,2.1-3.24,2.1-0.48,0-.52-0.7-0.52-0.9a27.915,27.915,0,0,1,.84-5.4c0.08-.4.56-2,0.56-2.4a4.825,4.825,0,0,0-.28-1.4c-0.8-2-.88-2.2-0.88-2.6,0-1.2,1.28-2.2,4.32-2.2a12.376,12.376,0,0,1,4.16.7,3.73,3.73,0,0,0,1.84.7c0.52,0,.84-0.4.84-1.3,0-2.4-2.24-3.3-3.12-3.7-3.72-1.5-4.04-1.6-5.76-3-0.04,1.5,1.36,3.2,2.48,3.9,0.96,0.7,1.08.7,1.08,0.9a0.3,0.3,0,0,1-.36.3c-6.92,1.1-6.92,3.2-6.92,6.8a60.816,60.816,0,0,1-.72,8.4,12.561,12.561,0,0,0-.52,2.9c0,0.8.64,3.2,2.12,3.2a1.234,1.234,0,0,0,1-.7c3.2-4.9,8.32-8.1,13.08-8.1,4.8,0,5.04,4.1,5.04,5.1,0,3.4-2.36,5.4-5.2,6.9a30.947,30.947,0,0,1-9.4,3.3v0.2C1046.23,12629.8,1054.39,12625.8,1054.39,12619.2Zm46.92-20.8a1.27,1.27,0,0,0-.4-0.7l-1.76-1.6a1.564,1.564,0,0,0-.76-0.4,1.205,1.205,0,0,0-.68.5l-1.32,1.6h-7.36c-2,0-4.2-.1-6.16-0.3l0.8,1.6a26.423,26.423,0,0,1,5.32-.4,23.934,23.934,0,0,1-1.04,5.2h-1.64l-3.36-1.8a30.752,30.752,0,0,1,.4,5.9c0,8.6-.16,12.9-0.24,13.9,0,0.2-.08,1-0.08,1.2a0.967,0.967,0,0,0,1.16,1,1.731,1.731,0,0,0,1.84-1.7h9.08c-0.08.9-.04,1.5,0.92,1.5,0.16,0,2-.1,2-1.6,0-.3-0.16-7.3-0.16-7.7v-8.9a2.964,2.964,0,0,0,1.24-1.4,0.837,0.837,0,0,0-.44-0.7l-1.24-.9a2.177,2.177,0,0,0-.96-0.5,1.627,1.627,0,0,0-.76.5l-1.08,1.2h-5.96a33.759,33.759,0,0,0,3.84-5.2h8.2C1101.03,12598.7,1101.31,12598.7,1101.31,12598.4Zm-6.2,17h-9.12v-4.8h9.12v4.8Zm0-5.7h-9.12v-4.8h9.12v4.8Zm0,11.8h-9.12v-5.1h9.12v5.1Zm-14-16.9a0.819,0.819,0,0,0-.36-0.6l-1.16-.9a1.6,1.6,0,0,0-.72-0.3,0.954,0.954,0,0,0-.68.4l-0.84.9h-6.64l-3.24-1.8c0.2,2.2.24,5.8,0.24,8,0,0.7-.16,4.1-0.16,4.9a0.9,0.9,0,0,0,1.04,1c2,0,1.92-1.2,1.8-2.2h7.08c-0.04.9-.08,1.5,1,1.5a1.548,1.548,0,0,0,1.8-1.4c0-.6-0.16-3.6-0.16-4.3,0-1-.04-3.3,0-4.2A1.475,1.475,0,0,0,1081.11,12604.6Zm-3.64,8.5h-7.08v-8.1h7.08v8.1Zm4.6-14.5a0.89,0.89,0,0,0-.4-0.6l-1.76-1.5a1.328,1.328,0,0,0-.76-0.5,1.04,1.04,0,0,0-.64.5l-1.12,1.5h-5.52c-1.08,0-3.6,0-6.12-.2l0.76,1.5a32.481,32.481,0,0,1,4.72-.3h10.24C1081.83,12599,1082.07,12598.9,1082.07,12598.6Zm18.96,31c0-3-6.48-5.2-8.8-5.4l-0.08.2a23.509,23.509,0,0,1,4.96,4.7c1.48,1.9,1.64,2.1,2.36,2.1A1.569,1.569,0,0,0,1101.03,12629.6Zm-11.48-3.2a0.682,0.682,0,0,0-.4-0.6l-2.96-2.4c-1.84,3.1-7.68,6.6-10.8,7.6l0.04,0.3c4.72-.3,9.48-2.8,12.28-4.5C1088.75,12627,1089.55,12626.8,1089.55,12626.4Zm-7.6-3.2-0.08-.3c-1.28.5-2.96,1-6.88,2.1,0.96-1.2,3.04-4.3,3.96-5.8,1.28-.5,1.44-0.8,1.44-1.2a0.8,0.8,0,0,0-.52-0.6l-3.8-1.4a8.723,8.723,0,0,1,.08.9c0,2.2-1.56,7.1-2,8.3a48.024,48.024,0,0,1-7.8,1.5,10.414,10.414,0,0,1-1.68-.1l2.28,3.7a0.728,0.728,0,0,0,.52.4c0.44,0,.56-0.4.64-1.1C1070.07,12628.9,1078.23,12625.8,1081.95,12623.2Zm-9.2-.5c0-2.6-2.96-4.6-4.36-5.4l-0.28.1a13.418,13.418,0,0,1,1.36,4.2c0.44,2.6.52,3.1,1.72,3.1C1072.23,12624.7,1072.75,12623.8,1072.75,12622.7Zm70.68,4.9v-0.4a36.037,36.037,0,0,1-8.56-.8,24.9,24.9,0,0,1-7.08-2.7,31.254,31.254,0,0,0,6.56-9.2c1.88-.6,2.12-0.8,2.12-1.2a0.948,0.948,0,0,0-.4-0.7l-2.16-1.9a1.14,1.14,0,0,0-.64-0.4,1.991,1.991,0,0,0-.64.5l-1.2,1h-5.16v-8.9h8.6a51.624,51.624,0,0,1-2.92,5.6l0.24,0.2c0.6-.4,3.68-2.5,5.2-3.3,2.68-.1,3.08-0.4,3.08-1a1.19,1.19,0,0,0-.36-0.8l-2.68-2.4a1.488,1.488,0,0,0-.68-0.5,1.2,1.2,0,0,0-.72.4l-1.28.9h-8.48v-4.1a2.454,2.454,0,0,0,1.4-1.2,0.681,0.681,0,0,0-.68-0.6l-4.44-1.4c0.6,1.8.64,2.3,0.84,7.3h-8.64l-4.04-1.9a60.183,60.183,0,0,1,.8,11.2c0,3.8,0,12.2-5.32,19.4l0.2,0.1c7.68-5.9,7.84-14.4,7.88-18,0.08-4.3.12-9.1,0.12-9.9h9.04c0.04,1,.12,6.5.04,8.9h-2.4c-0.52,0-3.4-.1-6.16-0.3l0.8,1.6a15.749,15.749,0,0,1,2.32-.3,25.665,25.665,0,0,0,6.24,10.8,40.194,40.194,0,0,1-13.4,7.8v0.2a28.154,28.154,0,0,0,15.2-6.3,30.011,30.011,0,0,0,13.8,6A6.733,6.733,0,0,1,1143.43,12627.6Zm-12.08-14.9a22.491,22.491,0,0,1-5.72,9.5,22.745,22.745,0,0,1-6.88-9.4,10.414,10.414,0,0,1,1.68-.1h10.92Zm50.08-14.8a1.111,1.111,0,0,0-.32-0.6l-1.6-1.2a2.262,2.262,0,0,0-.64-0.3,1.14,1.14,0,0,0-.64.4l-0.76.8h-12.08l-3.12-1.5a46.989,46.989,0,0,1,.28,5.5c0,0.5-.16,3.1-0.16,3.4a1.084,1.084,0,0,0,1.16,1.3,1.572,1.572,0,0,0,1.6-1.4h12.56a0.99,0.99,0,0,0,1.16,1.3,1.508,1.508,0,0,0,1.56-1.6c0-.7-0.08-4.2-0.04-5A2.173,2.173,0,0,0,1181.43,12597.9Zm-8.76,5.4h-2.56v-5.3h2.56v5.3Zm5.08,0h-2.68v-5.3h2.68v5.3Zm-10,0h-2.56v-5.3h2.56v5.3Zm17.32,24.5v-0.2c-3.8-.3-7.48-3.1-9.32-5a40.383,40.383,0,0,0,4.12-1.4c0.6,0,1.76.1,1.76-.5a0.642,0.642,0,0,0-.44-0.5l-2.76-1.7a17.138,17.138,0,0,1-3.12,3.6,15.637,15.637,0,0,1-3.04-4.8h5.28c0.04,0.7.04,1,.8,1a1.651,1.651,0,0,0,1.88-1.4c0-.3-0.12-1.8-0.12-2.1,0-.4.04-1.8,0-2.1,0.84-.6,1-0.8,1-1.1a0.764,0.764,0,0,0-.4-0.5l-1.6-1a1.2,1.2,0,0,0-.6-0.4,1.517,1.517,0,0,0-.64.6l-0.8.8h-11.6l-2.88-1.4c0.12,1.5.16,2.8,0.16,3.6s-0.28,4.3-.28,4.7a0.934,0.934,0,0,0,1,1.1c0.16,0,2.16,0,1.96-1.8h2.28c-1.92,2.7-7.96,8.3-15.16,11.6l0.12,0.3c6.32-1.5,12.6-5.8,15.68-8.5-0.04.7-.4,9.9-0.4,10.2a0.9,0.9,0,0,0,1.04.9,1.771,1.771,0,0,0,2-1.8c0-.8-0.16-4.7-0.16-5.6v-6.1c0.16-.2.68-0.8,0.88-1,1.04,4.6,3.32,8.6,9.24,13.2A7.1,7.1,0,0,1,1185.07,12627.8Zm-7.52-11.4h-12.16v-4.4h12.16v4.4Zm6.8-8.9a1.06,1.06,0,0,0-.4-0.6l-1.68-1.4a2.79,2.79,0,0,0-.76-0.4,1.556,1.556,0,0,0-.68.6l-1.2,1.3h-12.8c-1.2,0-3.68-.1-6.16-0.3l0.8,1.6a31.914,31.914,0,0,1,4.72-.3h17.56A0.509,0.509,0,0,0,1184.35,12607.5Zm-22.44,9.5-0.12-.2c-1.2.4-4.48,1.5-6.04,2v-8.8h4.44a0.526,0.526,0,0,0,.6-0.5,1.316,1.316,0,0,0-.4-0.6l-1.44-1.1a2.136,2.136,0,0,0-.72-0.4,1.1,1.1,0,0,0-.64.5l-0.76,1.1h-1.08v-9.2h4.84a0.5,0.5,0,0,0,.6-0.4,0.99,0.99,0,0,0-.44-0.7l-1.52-1.3a1.258,1.258,0,0,0-.72-0.5,1.325,1.325,0,0,0-.64.6l-1.28,1.4h-2.56c-1.12,0-3.6-.1-6.16-0.3l0.8,1.6a22.623,22.623,0,0,1,4.48-.4v9.2c-2.28-.1-3.8-0.2-4.92-0.3l0.8,1.6a20.84,20.84,0,0,1,4.12-.3v9.6c-3.28,1-3.48,1-5.56,1.1l1.96,3.5a1.255,1.255,0,0,0,.88.6c0.36,0,.64-0.3.8-1.5,0.96-.6,3.68-2,5.16-2.8A38.879,38.879,0,0,0,1161.91,12617Zm65.68,10.9c0-.3-0.08-0.4-0.68-0.7-0.64-.3-0.72-0.8-1.16-4.8h-0.24c-1.36,5.2-1.4,5.3-4.44,5.3-3.16,0-3.16-.1-3.24-0.8-0.04-.6-0.04-1.1-0.04-5.9h2.44c0,0.8.04,1.2,0.96,1.2,0.32,0,1.84,0,1.84-1.4,0-.9-0.16-5.4-0.16-6.4,0.84-.4,1.36-0.7,1.36-1.3a0.986,0.986,0,0,0-.48-0.7l-1.48-1.1a1.173,1.173,0,0,0-.48-0.2,0.733,0.733,0,0,0-.6.3l-1.28,1h-11.08l-3.4-1.7a15.481,15.481,0,0,1,.16,3.2c-0.04,1.9-.16,7.3-0.16,7.7,0,0.6.04,1.2,0.96,1.2a1.651,1.651,0,0,0,1.88-1.8h1.52c-0.36,1.9-3.8,8-12.2,10l0.08,0.3c7.2-.3,11.8-3.4,14.36-7.9,0.72,0,1.28-.1,1.28-0.6a0.852,0.852,0,0,0-.56-0.8l-1.6-1h4.04c-0.04.8-.08,6.5-0.04,7,0.08,1.6.4,2.4,6.32,2.4,1.44,0,3.8-.1,4.96-0.8A2.247,2.247,0,0,0,1227.59,12627.9Zm-7.36-11.7h-12v-2.8h12v2.8Zm0,3.9h-12v-3h12v3Zm7.28-11.1a0.675,0.675,0,0,0-.4-0.6l-2.08-1.8a1.464,1.464,0,0,0-.72-0.4,0.825,0.825,0,0,0-.6.5l-1.32,1.8h-5.76c1.28-1.4,3.44-3.7,3.8-4.2,0.92-.2,1.4-0.2,1.4-0.7a1.568,1.568,0,0,0-.68-0.9l-1.36-.8h5.52a0.5,0.5,0,0,0,.6-0.4,0.822,0.822,0,0,0-.4-0.6l-2-1.8a1.317,1.317,0,0,0-.72-0.4,0.9,0.9,0,0,0-.6.5l-1.28,1.7h-5.52v-3c0.92-.5,1.24-0.7,1.24-1.1a0.762,0.762,0,0,0-.76-0.7l-4.16-1a17.88,17.88,0,0,1,.84,5.8h-2.84c-0.72,0-3.48,0-6.12-.2l0.8,1.6a17.934,17.934,0,0,1,3.24-.4,11.03,11.03,0,0,1,1.56,4.2c0.32,1.6.4,2.1,1.56,2.1a1.477,1.477,0,0,0,1.6-1.6c0-2.6-3.12-4.2-4-4.7h9.56c-0.08,1.5-.76,3.5-2.16,6.6h-7.96c-1.16,0-3.64-.1-6.12-0.3l0.8,1.6a24.132,24.132,0,0,1,4.68-.4h19.72A0.545,0.545,0,0,0,1227.51,12609Zm-22.84,7.9-0.08-.3c-1,.4-1.72.6-4.84,1.5v-11.5h4.12a0.509,0.509,0,0,0,.6-0.5,1.06,1.06,0,0,0-.4-0.6l-1.64-1.3a1.051,1.051,0,0,0-.76-0.4,0.842,0.842,0,0,0-.6.5l-0.8,1.3h-0.52v-7.4c0.68-.4,1.16-0.7,1.16-1.1,0-.3-0.12-0.5-0.72-0.6l-3.8-1.1c0.6,3.2.72,3.9,0.72,10.2a51.674,51.674,0,0,1-6.08-.3l0.8,1.6a35.7,35.7,0,0,1,5.28-.3c0,1.7-.04,10.2-0.04,12.2-4.12,1-4.68,1.1-6.64.9l1.76,3.8a1.14,1.14,0,0,0,.72.7c0.48,0,.68-0.8.84-1.5A107.407,107.407,0,0,0,1204.67,12616.9Zm58.32,8.1c0-3.8-6.64-8.6-11.44-10.7a51.567,51.567,0,0,0,5.32-8.8c0.52-.9.56-1,0.84-1.1,1.28-.5,1.56-0.6,1.56-1,0-.7-2.96-3.2-3.4-3.2a8,8,0,0,0-1.84,1.1c-1.64,1-10.32,1.8-11.44,1.8-0.8,0-1.48,0-3-2.4a3.586,3.586,0,0,0-.36,1.7c0,2.1,2.2,4,2.8,4,0.32,0,1.8-.8,2.16-0.9,2.16-.9,8.8-2.1,10.32-2.3-2.2,7.4-11.96,19.6-21.24,23.7l0.04,0.3c3.76-.7,10.56-3.2,17.68-12.2,3.56,2.6,5.76,5.3,8.96,10.6a1.937,1.937,0,0,0,1.64,1.2C1262.55,12626.8,1262.99,12626,1262.99,12625Zm20.88-13.3c0-1.7-2.52-4-5.24-4.8a15.813,15.813,0,0,1,2.4,4.2c0.68,1.8.8,2.2,1.64,2.2A1.425,1.425,0,0,0,1283.87,12611.7Zm9.24-2c0-.5-2.04-2.6-3.76-2.6a8.017,8.017,0,0,0-1.76.3c0.52,0.3,2.12,1.2,2.12,2.1,0,0.6-3.44,13.4-15.44,19l0.08,0.4c2.8-.8,9.92-2.7,15.68-13.5,0.36-.7,2-4.2,2.24-4.5C1293.03,12610.1,1293.11,12610,1293.11,12609.7Zm-16.16,3.8c0-2.2-3.16-4.4-5.8-4.8a16.7,16.7,0,0,1,2.92,4.4c0.44,1,.84,1.9,1.72,1.9A1.3,1.3,0,0,0,1276.95,12613.5Zm54.16-.6a1.352,1.352,0,0,0-.4-1,7.618,7.618,0,0,0-3.64-.9c-0.28,0-.48.1-0.72,0.1a21.573,21.573,0,0,0-2.48.9c-0.2.1-5.56,1.2-6.28,1.3-0.44-1.9-.68-3.4-1.24-6.8a40.549,40.549,0,0,1,8.52-.9c1.12,0,1.52-.5,1.52-1.1a1.19,1.19,0,0,0-.36-0.8,7.153,7.153,0,0,0-2.88-.8,8.358,8.358,0,0,0-2,.8c-0.68.2-4.28,0.9-5.08,1.1a35.1,35.1,0,0,1-.48-4.2c0-.3.28-1.4,0.28-1.7,0-1.6-4.24-1.8-4.32-1.8a4.173,4.173,0,0,0-2.6,1.1c3.48,0.7,3.52,1,4.76,7.1a59.41,59.41,0,0,1-6.2,1,5.56,5.56,0,0,1-3.92-1.5,2.86,2.86,0,0,0,.64,2.3c1.4,1.8,2.56,2.1,2.84,2.1a3.774,3.774,0,0,0,1-.4,51.337,51.337,0,0,1,5.96-1.9c0.48,2.3,1.24,6.2,1.36,6.9-1.72.3-9.88,2-10.92,2a4.871,4.871,0,0,1-3.68-2.1c-0.04.4-.12,0.6-0.12,0.9,0,2.6,3.2,4.2,3.92,4.2,0.32,0,.36,0,2.52-1a52.447,52.447,0,0,1,8.6-2.3,68.909,68.909,0,0,1,1.36,10.1c0.08,2.3,1.28,4.1,2.24,4.1a1.492,1.492,0,0,0,1.28-1.7c0-.7-2.24-11.1-2.64-12.9a45.764,45.764,0,0,1,10.6-1.1C1330.47,12614,1331.11,12614,1331.11,12612.9Zm29.2-12.9c0-1.1-3.08-2-4.52-2a4.211,4.211,0,0,0-2.72,1.1c3.56,0.6,3.68.8,3.68,7,0,9.1-.48,17.9-9.4,23.6l0.12,0.3a13.511,13.511,0,0,0,7.24-4.4c2.6-2.9,4.4-6.6,4.68-13.9,0.04-1.4.2-8.4,0.28-8.9C1359.71,12602.4,1360.31,12600.4,1360.31,12600Zm-14.28,2.2c0-1.2-3.36-2.1-4.32-2.1a4.258,4.258,0,0,0-2.32.9c3.16,0.9,3.16.9,3.16,6.1q0,3.3-.12,4.2c-0.04.4-.28,2.2-0.28,2.6,0,1.6.76,3.3,1.84,3.3,1.28,0,1.28-2.3,1.28-2.9,0-.7-0.04-4-0.04-4.7a33.588,33.588,0,0,1,.36-6.1C1345.63,12603.4,1346.03,12602.3,1346.03,12602.2Zm33.36,22.8a2.15,2.15,0,1,0,2.16,2.1A2.151,2.151,0,0,0,1379.39,12625Zm0.72-2.4a139.646,139.646,0,0,1,.68-16.8c0.08-.8.68-4.3,0.68-5.1a2.122,2.122,0,0,0-2.08-2.1,2.149,2.149,0,0,0-2.08,2.1c0,0.3.56,4.5,0.68,5.3a150.486,150.486,0,0,1,.68,16.6h1.44Z" transform="translate(-724.812 -12594)"/>
</svg>
